%TF.GenerationSoftware,KiCad,Pcbnew,(7.0.0)*%
%TF.CreationDate,2024-02-11T00:04:22+02:00*%
%TF.ProjectId,cap-touch-sensor,6361702d-746f-4756-9368-2d73656e736f,rev?*%
%TF.SameCoordinates,Original*%
%TF.FileFunction,Drillmap*%
%TF.FilePolarity,Positive*%
%FSLAX45Y45*%
G04 Gerber Fmt 4.5, Leading zero omitted, Abs format (unit mm)*
G04 Created by KiCad (PCBNEW (7.0.0)) date 2024-02-11 00:04:22*
%MOMM*%
%LPD*%
G01*
G04 APERTURE LIST*
%ADD10C,0.100000*%
%ADD11C,0.200000*%
%ADD12C,0.040000*%
%ADD13C,0.065000*%
G04 APERTURE END LIST*
D10*
X1500000Y-750000D02*
G75*
G03*
X1500000Y-750000I-750000J0D01*
G01*
D11*
D12*
X90000Y-730000D02*
X130000Y-770000D01*
X130000Y-730000D02*
X90000Y-770000D01*
X205000Y-955000D02*
X245000Y-995000D01*
X245000Y-955000D02*
X205000Y-995000D01*
X730000Y-1350000D02*
X770000Y-1390000D01*
X770000Y-1350000D02*
X730000Y-1390000D01*
X1360000Y-730000D02*
X1400000Y-770000D01*
X1400000Y-730000D02*
X1360000Y-770000D01*
D13*
X332500Y-360000D02*
G75*
G03*
X332500Y-360000I-32500J0D01*
G01*
X782500Y-120000D02*
G75*
G03*
X782500Y-120000I-32500J0D01*
G01*
X1232500Y-360000D02*
G75*
G03*
X1232500Y-360000I-32500J0D01*
G01*
D11*
X242619Y-1798476D02*
X242619Y-1598476D01*
X242619Y-1598476D02*
X290238Y-1598476D01*
X290238Y-1598476D02*
X318810Y-1608000D01*
X318810Y-1608000D02*
X337857Y-1627048D01*
X337857Y-1627048D02*
X347381Y-1646095D01*
X347381Y-1646095D02*
X356905Y-1684190D01*
X356905Y-1684190D02*
X356905Y-1712762D01*
X356905Y-1712762D02*
X347381Y-1750857D01*
X347381Y-1750857D02*
X337857Y-1769905D01*
X337857Y-1769905D02*
X318810Y-1788952D01*
X318810Y-1788952D02*
X290238Y-1798476D01*
X290238Y-1798476D02*
X242619Y-1798476D01*
X442619Y-1798476D02*
X442619Y-1665143D01*
X442619Y-1703238D02*
X452143Y-1684190D01*
X452143Y-1684190D02*
X461667Y-1674667D01*
X461667Y-1674667D02*
X480714Y-1665143D01*
X480714Y-1665143D02*
X499762Y-1665143D01*
X566429Y-1798476D02*
X566429Y-1665143D01*
X566429Y-1598476D02*
X556905Y-1608000D01*
X556905Y-1608000D02*
X566429Y-1617524D01*
X566429Y-1617524D02*
X575952Y-1608000D01*
X575952Y-1608000D02*
X566429Y-1598476D01*
X566429Y-1598476D02*
X566429Y-1617524D01*
X690238Y-1798476D02*
X671190Y-1788952D01*
X671190Y-1788952D02*
X661667Y-1769905D01*
X661667Y-1769905D02*
X661667Y-1598476D01*
X795000Y-1798476D02*
X775952Y-1788952D01*
X775952Y-1788952D02*
X766428Y-1769905D01*
X766428Y-1769905D02*
X766428Y-1598476D01*
X991190Y-1798476D02*
X991190Y-1598476D01*
X991190Y-1598476D02*
X1057857Y-1741333D01*
X1057857Y-1741333D02*
X1124524Y-1598476D01*
X1124524Y-1598476D02*
X1124524Y-1798476D01*
X1305476Y-1798476D02*
X1305476Y-1693714D01*
X1305476Y-1693714D02*
X1295952Y-1674667D01*
X1295952Y-1674667D02*
X1276905Y-1665143D01*
X1276905Y-1665143D02*
X1238809Y-1665143D01*
X1238809Y-1665143D02*
X1219762Y-1674667D01*
X1305476Y-1788952D02*
X1286429Y-1798476D01*
X1286429Y-1798476D02*
X1238809Y-1798476D01*
X1238809Y-1798476D02*
X1219762Y-1788952D01*
X1219762Y-1788952D02*
X1210238Y-1769905D01*
X1210238Y-1769905D02*
X1210238Y-1750857D01*
X1210238Y-1750857D02*
X1219762Y-1731809D01*
X1219762Y-1731809D02*
X1238809Y-1722286D01*
X1238809Y-1722286D02*
X1286429Y-1722286D01*
X1286429Y-1722286D02*
X1305476Y-1712762D01*
X1400714Y-1665143D02*
X1400714Y-1865143D01*
X1400714Y-1674667D02*
X1419762Y-1665143D01*
X1419762Y-1665143D02*
X1457857Y-1665143D01*
X1457857Y-1665143D02*
X1476905Y-1674667D01*
X1476905Y-1674667D02*
X1486428Y-1684190D01*
X1486428Y-1684190D02*
X1495952Y-1703238D01*
X1495952Y-1703238D02*
X1495952Y-1760381D01*
X1495952Y-1760381D02*
X1486428Y-1779428D01*
X1486428Y-1779428D02*
X1476905Y-1788952D01*
X1476905Y-1788952D02*
X1457857Y-1798476D01*
X1457857Y-1798476D02*
X1419762Y-1798476D01*
X1419762Y-1798476D02*
X1400714Y-1788952D01*
X1581667Y-1779428D02*
X1591190Y-1788952D01*
X1591190Y-1788952D02*
X1581667Y-1798476D01*
X1581667Y-1798476D02*
X1572143Y-1788952D01*
X1572143Y-1788952D02*
X1581667Y-1779428D01*
X1581667Y-1779428D02*
X1581667Y-1798476D01*
X1581667Y-1674667D02*
X1591190Y-1684190D01*
X1591190Y-1684190D02*
X1581667Y-1693714D01*
X1581667Y-1693714D02*
X1572143Y-1684190D01*
X1572143Y-1684190D02*
X1581667Y-1674667D01*
X1581667Y-1674667D02*
X1581667Y-1693714D01*
D12*
X-45000Y-2125000D02*
X-5000Y-2165000D01*
X-5000Y-2125000D02*
X-45000Y-2165000D01*
D11*
X280714Y-2018476D02*
X299762Y-2018476D01*
X299762Y-2018476D02*
X318810Y-2028000D01*
X318810Y-2028000D02*
X328333Y-2037524D01*
X328333Y-2037524D02*
X337857Y-2056571D01*
X337857Y-2056571D02*
X347381Y-2094667D01*
X347381Y-2094667D02*
X347381Y-2142286D01*
X347381Y-2142286D02*
X337857Y-2180381D01*
X337857Y-2180381D02*
X328333Y-2199429D01*
X328333Y-2199429D02*
X318810Y-2208952D01*
X318810Y-2208952D02*
X299762Y-2218476D01*
X299762Y-2218476D02*
X280714Y-2218476D01*
X280714Y-2218476D02*
X261667Y-2208952D01*
X261667Y-2208952D02*
X252143Y-2199429D01*
X252143Y-2199429D02*
X242619Y-2180381D01*
X242619Y-2180381D02*
X233095Y-2142286D01*
X233095Y-2142286D02*
X233095Y-2094667D01*
X233095Y-2094667D02*
X242619Y-2056571D01*
X242619Y-2056571D02*
X252143Y-2037524D01*
X252143Y-2037524D02*
X261667Y-2028000D01*
X261667Y-2028000D02*
X280714Y-2018476D01*
X433095Y-2199429D02*
X442619Y-2208952D01*
X442619Y-2208952D02*
X433095Y-2218476D01*
X433095Y-2218476D02*
X423571Y-2208952D01*
X423571Y-2208952D02*
X433095Y-2199429D01*
X433095Y-2199429D02*
X433095Y-2218476D01*
X614048Y-2085143D02*
X614048Y-2218476D01*
X566429Y-2008952D02*
X518809Y-2151810D01*
X518809Y-2151810D02*
X642619Y-2151810D01*
X756905Y-2018476D02*
X775952Y-2018476D01*
X775952Y-2018476D02*
X795000Y-2028000D01*
X795000Y-2028000D02*
X804524Y-2037524D01*
X804524Y-2037524D02*
X814048Y-2056571D01*
X814048Y-2056571D02*
X823571Y-2094667D01*
X823571Y-2094667D02*
X823571Y-2142286D01*
X823571Y-2142286D02*
X814048Y-2180381D01*
X814048Y-2180381D02*
X804524Y-2199429D01*
X804524Y-2199429D02*
X795000Y-2208952D01*
X795000Y-2208952D02*
X775952Y-2218476D01*
X775952Y-2218476D02*
X756905Y-2218476D01*
X756905Y-2218476D02*
X737857Y-2208952D01*
X737857Y-2208952D02*
X728333Y-2199429D01*
X728333Y-2199429D02*
X718809Y-2180381D01*
X718809Y-2180381D02*
X709286Y-2142286D01*
X709286Y-2142286D02*
X709286Y-2094667D01*
X709286Y-2094667D02*
X718809Y-2056571D01*
X718809Y-2056571D02*
X728333Y-2037524D01*
X728333Y-2037524D02*
X737857Y-2028000D01*
X737857Y-2028000D02*
X756905Y-2018476D01*
X947381Y-2018476D02*
X966429Y-2018476D01*
X966429Y-2018476D02*
X985476Y-2028000D01*
X985476Y-2028000D02*
X995000Y-2037524D01*
X995000Y-2037524D02*
X1004524Y-2056571D01*
X1004524Y-2056571D02*
X1014048Y-2094667D01*
X1014048Y-2094667D02*
X1014048Y-2142286D01*
X1014048Y-2142286D02*
X1004524Y-2180381D01*
X1004524Y-2180381D02*
X995000Y-2199429D01*
X995000Y-2199429D02*
X985476Y-2208952D01*
X985476Y-2208952D02*
X966429Y-2218476D01*
X966429Y-2218476D02*
X947381Y-2218476D01*
X947381Y-2218476D02*
X928333Y-2208952D01*
X928333Y-2208952D02*
X918809Y-2199429D01*
X918809Y-2199429D02*
X909286Y-2180381D01*
X909286Y-2180381D02*
X899762Y-2142286D01*
X899762Y-2142286D02*
X899762Y-2094667D01*
X899762Y-2094667D02*
X909286Y-2056571D01*
X909286Y-2056571D02*
X918809Y-2037524D01*
X918809Y-2037524D02*
X928333Y-2028000D01*
X928333Y-2028000D02*
X947381Y-2018476D01*
X1099762Y-2218476D02*
X1099762Y-2085143D01*
X1099762Y-2104190D02*
X1109286Y-2094667D01*
X1109286Y-2094667D02*
X1128333Y-2085143D01*
X1128333Y-2085143D02*
X1156905Y-2085143D01*
X1156905Y-2085143D02*
X1175952Y-2094667D01*
X1175952Y-2094667D02*
X1185476Y-2113714D01*
X1185476Y-2113714D02*
X1185476Y-2218476D01*
X1185476Y-2113714D02*
X1195000Y-2094667D01*
X1195000Y-2094667D02*
X1214048Y-2085143D01*
X1214048Y-2085143D02*
X1242619Y-2085143D01*
X1242619Y-2085143D02*
X1261667Y-2094667D01*
X1261667Y-2094667D02*
X1271191Y-2113714D01*
X1271191Y-2113714D02*
X1271191Y-2218476D01*
X1366429Y-2218476D02*
X1366429Y-2085143D01*
X1366429Y-2104190D02*
X1375952Y-2094667D01*
X1375952Y-2094667D02*
X1395000Y-2085143D01*
X1395000Y-2085143D02*
X1423571Y-2085143D01*
X1423571Y-2085143D02*
X1442619Y-2094667D01*
X1442619Y-2094667D02*
X1452143Y-2113714D01*
X1452143Y-2113714D02*
X1452143Y-2218476D01*
X1452143Y-2113714D02*
X1461667Y-2094667D01*
X1461667Y-2094667D02*
X1480714Y-2085143D01*
X1480714Y-2085143D02*
X1509286Y-2085143D01*
X1509286Y-2085143D02*
X1528333Y-2094667D01*
X1528333Y-2094667D02*
X1537857Y-2113714D01*
X1537857Y-2113714D02*
X1537857Y-2218476D01*
X1895952Y-2008952D02*
X1724524Y-2266095D01*
X2120714Y-2018476D02*
X2139762Y-2018476D01*
X2139762Y-2018476D02*
X2158810Y-2028000D01*
X2158810Y-2028000D02*
X2168333Y-2037524D01*
X2168333Y-2037524D02*
X2177857Y-2056571D01*
X2177857Y-2056571D02*
X2187381Y-2094667D01*
X2187381Y-2094667D02*
X2187381Y-2142286D01*
X2187381Y-2142286D02*
X2177857Y-2180381D01*
X2177857Y-2180381D02*
X2168333Y-2199429D01*
X2168333Y-2199429D02*
X2158810Y-2208952D01*
X2158810Y-2208952D02*
X2139762Y-2218476D01*
X2139762Y-2218476D02*
X2120714Y-2218476D01*
X2120714Y-2218476D02*
X2101667Y-2208952D01*
X2101667Y-2208952D02*
X2092143Y-2199429D01*
X2092143Y-2199429D02*
X2082619Y-2180381D01*
X2082619Y-2180381D02*
X2073095Y-2142286D01*
X2073095Y-2142286D02*
X2073095Y-2094667D01*
X2073095Y-2094667D02*
X2082619Y-2056571D01*
X2082619Y-2056571D02*
X2092143Y-2037524D01*
X2092143Y-2037524D02*
X2101667Y-2028000D01*
X2101667Y-2028000D02*
X2120714Y-2018476D01*
X2273095Y-2199429D02*
X2282619Y-2208952D01*
X2282619Y-2208952D02*
X2273095Y-2218476D01*
X2273095Y-2218476D02*
X2263572Y-2208952D01*
X2263572Y-2208952D02*
X2273095Y-2199429D01*
X2273095Y-2199429D02*
X2273095Y-2218476D01*
X2406429Y-2018476D02*
X2425476Y-2018476D01*
X2425476Y-2018476D02*
X2444524Y-2028000D01*
X2444524Y-2028000D02*
X2454048Y-2037524D01*
X2454048Y-2037524D02*
X2463572Y-2056571D01*
X2463572Y-2056571D02*
X2473095Y-2094667D01*
X2473095Y-2094667D02*
X2473095Y-2142286D01*
X2473095Y-2142286D02*
X2463572Y-2180381D01*
X2463572Y-2180381D02*
X2454048Y-2199429D01*
X2454048Y-2199429D02*
X2444524Y-2208952D01*
X2444524Y-2208952D02*
X2425476Y-2218476D01*
X2425476Y-2218476D02*
X2406429Y-2218476D01*
X2406429Y-2218476D02*
X2387381Y-2208952D01*
X2387381Y-2208952D02*
X2377857Y-2199429D01*
X2377857Y-2199429D02*
X2368333Y-2180381D01*
X2368333Y-2180381D02*
X2358810Y-2142286D01*
X2358810Y-2142286D02*
X2358810Y-2094667D01*
X2358810Y-2094667D02*
X2368333Y-2056571D01*
X2368333Y-2056571D02*
X2377857Y-2037524D01*
X2377857Y-2037524D02*
X2387381Y-2028000D01*
X2387381Y-2028000D02*
X2406429Y-2018476D01*
X2663572Y-2218476D02*
X2549286Y-2218476D01*
X2606429Y-2218476D02*
X2606429Y-2018476D01*
X2606429Y-2018476D02*
X2587381Y-2047048D01*
X2587381Y-2047048D02*
X2568333Y-2066095D01*
X2568333Y-2066095D02*
X2549286Y-2075619D01*
X2844524Y-2018476D02*
X2749286Y-2018476D01*
X2749286Y-2018476D02*
X2739762Y-2113714D01*
X2739762Y-2113714D02*
X2749286Y-2104190D01*
X2749286Y-2104190D02*
X2768333Y-2094667D01*
X2768333Y-2094667D02*
X2815952Y-2094667D01*
X2815952Y-2094667D02*
X2835000Y-2104190D01*
X2835000Y-2104190D02*
X2844524Y-2113714D01*
X2844524Y-2113714D02*
X2854048Y-2132762D01*
X2854048Y-2132762D02*
X2854048Y-2180381D01*
X2854048Y-2180381D02*
X2844524Y-2199429D01*
X2844524Y-2199429D02*
X2835000Y-2208952D01*
X2835000Y-2208952D02*
X2815952Y-2218476D01*
X2815952Y-2218476D02*
X2768333Y-2218476D01*
X2768333Y-2218476D02*
X2749286Y-2208952D01*
X2749286Y-2208952D02*
X2739762Y-2199429D01*
X2920714Y-2018476D02*
X3054048Y-2018476D01*
X3054048Y-2018476D02*
X2968333Y-2218476D01*
X3120714Y-2018476D02*
X3120714Y-2056571D01*
X3196905Y-2018476D02*
X3196905Y-2056571D01*
X3459762Y-2294667D02*
X3450238Y-2285143D01*
X3450238Y-2285143D02*
X3431191Y-2256571D01*
X3431191Y-2256571D02*
X3421667Y-2237524D01*
X3421667Y-2237524D02*
X3412143Y-2208952D01*
X3412143Y-2208952D02*
X3402619Y-2161333D01*
X3402619Y-2161333D02*
X3402619Y-2123238D01*
X3402619Y-2123238D02*
X3412143Y-2075619D01*
X3412143Y-2075619D02*
X3421667Y-2047048D01*
X3421667Y-2047048D02*
X3431191Y-2028000D01*
X3431191Y-2028000D02*
X3450238Y-1999428D01*
X3450238Y-1999428D02*
X3459762Y-1989905D01*
X3621667Y-2085143D02*
X3621667Y-2218476D01*
X3574048Y-2008952D02*
X3526429Y-2151810D01*
X3526429Y-2151810D02*
X3650238Y-2151810D01*
X3846429Y-2218476D02*
X3846429Y-2018476D01*
X3932143Y-2218476D02*
X3932143Y-2113714D01*
X3932143Y-2113714D02*
X3922619Y-2094667D01*
X3922619Y-2094667D02*
X3903572Y-2085143D01*
X3903572Y-2085143D02*
X3875000Y-2085143D01*
X3875000Y-2085143D02*
X3855952Y-2094667D01*
X3855952Y-2094667D02*
X3846429Y-2104190D01*
X4055952Y-2218476D02*
X4036905Y-2208952D01*
X4036905Y-2208952D02*
X4027381Y-2199429D01*
X4027381Y-2199429D02*
X4017857Y-2180381D01*
X4017857Y-2180381D02*
X4017857Y-2123238D01*
X4017857Y-2123238D02*
X4027381Y-2104190D01*
X4027381Y-2104190D02*
X4036905Y-2094667D01*
X4036905Y-2094667D02*
X4055952Y-2085143D01*
X4055952Y-2085143D02*
X4084524Y-2085143D01*
X4084524Y-2085143D02*
X4103572Y-2094667D01*
X4103572Y-2094667D02*
X4113095Y-2104190D01*
X4113095Y-2104190D02*
X4122619Y-2123238D01*
X4122619Y-2123238D02*
X4122619Y-2180381D01*
X4122619Y-2180381D02*
X4113095Y-2199429D01*
X4113095Y-2199429D02*
X4103572Y-2208952D01*
X4103572Y-2208952D02*
X4084524Y-2218476D01*
X4084524Y-2218476D02*
X4055952Y-2218476D01*
X4236905Y-2218476D02*
X4217857Y-2208952D01*
X4217857Y-2208952D02*
X4208334Y-2189905D01*
X4208334Y-2189905D02*
X4208334Y-2018476D01*
X4389286Y-2208952D02*
X4370238Y-2218476D01*
X4370238Y-2218476D02*
X4332143Y-2218476D01*
X4332143Y-2218476D02*
X4313095Y-2208952D01*
X4313095Y-2208952D02*
X4303572Y-2189905D01*
X4303572Y-2189905D02*
X4303572Y-2113714D01*
X4303572Y-2113714D02*
X4313095Y-2094667D01*
X4313095Y-2094667D02*
X4332143Y-2085143D01*
X4332143Y-2085143D02*
X4370238Y-2085143D01*
X4370238Y-2085143D02*
X4389286Y-2094667D01*
X4389286Y-2094667D02*
X4398810Y-2113714D01*
X4398810Y-2113714D02*
X4398810Y-2132762D01*
X4398810Y-2132762D02*
X4303572Y-2151810D01*
X4475000Y-2208952D02*
X4494048Y-2218476D01*
X4494048Y-2218476D02*
X4532143Y-2218476D01*
X4532143Y-2218476D02*
X4551191Y-2208952D01*
X4551191Y-2208952D02*
X4560715Y-2189905D01*
X4560715Y-2189905D02*
X4560715Y-2180381D01*
X4560715Y-2180381D02*
X4551191Y-2161333D01*
X4551191Y-2161333D02*
X4532143Y-2151810D01*
X4532143Y-2151810D02*
X4503572Y-2151810D01*
X4503572Y-2151810D02*
X4484524Y-2142286D01*
X4484524Y-2142286D02*
X4475000Y-2123238D01*
X4475000Y-2123238D02*
X4475000Y-2113714D01*
X4475000Y-2113714D02*
X4484524Y-2094667D01*
X4484524Y-2094667D02*
X4503572Y-2085143D01*
X4503572Y-2085143D02*
X4532143Y-2085143D01*
X4532143Y-2085143D02*
X4551191Y-2094667D01*
X4627381Y-2294667D02*
X4636905Y-2285143D01*
X4636905Y-2285143D02*
X4655953Y-2256571D01*
X4655953Y-2256571D02*
X4665476Y-2237524D01*
X4665476Y-2237524D02*
X4675000Y-2208952D01*
X4675000Y-2208952D02*
X4684524Y-2161333D01*
X4684524Y-2161333D02*
X4684524Y-2123238D01*
X4684524Y-2123238D02*
X4675000Y-2075619D01*
X4675000Y-2075619D02*
X4665476Y-2047048D01*
X4665476Y-2047048D02*
X4655953Y-2028000D01*
X4655953Y-2028000D02*
X4636905Y-1999428D01*
X4636905Y-1999428D02*
X4627381Y-1989905D01*
D13*
X-5000Y-2409000D02*
G75*
G03*
X-5000Y-2409000I-32500J0D01*
G01*
D11*
X280714Y-2282476D02*
X299762Y-2282476D01*
X299762Y-2282476D02*
X318810Y-2292000D01*
X318810Y-2292000D02*
X328333Y-2301524D01*
X328333Y-2301524D02*
X337857Y-2320571D01*
X337857Y-2320571D02*
X347381Y-2358667D01*
X347381Y-2358667D02*
X347381Y-2406286D01*
X347381Y-2406286D02*
X337857Y-2444381D01*
X337857Y-2444381D02*
X328333Y-2463429D01*
X328333Y-2463429D02*
X318810Y-2472952D01*
X318810Y-2472952D02*
X299762Y-2482476D01*
X299762Y-2482476D02*
X280714Y-2482476D01*
X280714Y-2482476D02*
X261667Y-2472952D01*
X261667Y-2472952D02*
X252143Y-2463429D01*
X252143Y-2463429D02*
X242619Y-2444381D01*
X242619Y-2444381D02*
X233095Y-2406286D01*
X233095Y-2406286D02*
X233095Y-2358667D01*
X233095Y-2358667D02*
X242619Y-2320571D01*
X242619Y-2320571D02*
X252143Y-2301524D01*
X252143Y-2301524D02*
X261667Y-2292000D01*
X261667Y-2292000D02*
X280714Y-2282476D01*
X433095Y-2463429D02*
X442619Y-2472952D01*
X442619Y-2472952D02*
X433095Y-2482476D01*
X433095Y-2482476D02*
X423571Y-2472952D01*
X423571Y-2472952D02*
X433095Y-2463429D01*
X433095Y-2463429D02*
X433095Y-2482476D01*
X614048Y-2282476D02*
X575952Y-2282476D01*
X575952Y-2282476D02*
X556905Y-2292000D01*
X556905Y-2292000D02*
X547381Y-2301524D01*
X547381Y-2301524D02*
X528333Y-2330095D01*
X528333Y-2330095D02*
X518809Y-2368190D01*
X518809Y-2368190D02*
X518809Y-2444381D01*
X518809Y-2444381D02*
X528333Y-2463429D01*
X528333Y-2463429D02*
X537857Y-2472952D01*
X537857Y-2472952D02*
X556905Y-2482476D01*
X556905Y-2482476D02*
X595000Y-2482476D01*
X595000Y-2482476D02*
X614048Y-2472952D01*
X614048Y-2472952D02*
X623571Y-2463429D01*
X623571Y-2463429D02*
X633095Y-2444381D01*
X633095Y-2444381D02*
X633095Y-2396762D01*
X633095Y-2396762D02*
X623571Y-2377714D01*
X623571Y-2377714D02*
X614048Y-2368190D01*
X614048Y-2368190D02*
X595000Y-2358667D01*
X595000Y-2358667D02*
X556905Y-2358667D01*
X556905Y-2358667D02*
X537857Y-2368190D01*
X537857Y-2368190D02*
X528333Y-2377714D01*
X528333Y-2377714D02*
X518809Y-2396762D01*
X814048Y-2282476D02*
X718809Y-2282476D01*
X718809Y-2282476D02*
X709286Y-2377714D01*
X709286Y-2377714D02*
X718809Y-2368190D01*
X718809Y-2368190D02*
X737857Y-2358667D01*
X737857Y-2358667D02*
X785476Y-2358667D01*
X785476Y-2358667D02*
X804524Y-2368190D01*
X804524Y-2368190D02*
X814048Y-2377714D01*
X814048Y-2377714D02*
X823571Y-2396762D01*
X823571Y-2396762D02*
X823571Y-2444381D01*
X823571Y-2444381D02*
X814048Y-2463429D01*
X814048Y-2463429D02*
X804524Y-2472952D01*
X804524Y-2472952D02*
X785476Y-2482476D01*
X785476Y-2482476D02*
X737857Y-2482476D01*
X737857Y-2482476D02*
X718809Y-2472952D01*
X718809Y-2472952D02*
X709286Y-2463429D01*
X947381Y-2282476D02*
X966429Y-2282476D01*
X966429Y-2282476D02*
X985476Y-2292000D01*
X985476Y-2292000D02*
X995000Y-2301524D01*
X995000Y-2301524D02*
X1004524Y-2320571D01*
X1004524Y-2320571D02*
X1014048Y-2358667D01*
X1014048Y-2358667D02*
X1014048Y-2406286D01*
X1014048Y-2406286D02*
X1004524Y-2444381D01*
X1004524Y-2444381D02*
X995000Y-2463429D01*
X995000Y-2463429D02*
X985476Y-2472952D01*
X985476Y-2472952D02*
X966429Y-2482476D01*
X966429Y-2482476D02*
X947381Y-2482476D01*
X947381Y-2482476D02*
X928333Y-2472952D01*
X928333Y-2472952D02*
X918809Y-2463429D01*
X918809Y-2463429D02*
X909286Y-2444381D01*
X909286Y-2444381D02*
X899762Y-2406286D01*
X899762Y-2406286D02*
X899762Y-2358667D01*
X899762Y-2358667D02*
X909286Y-2320571D01*
X909286Y-2320571D02*
X918809Y-2301524D01*
X918809Y-2301524D02*
X928333Y-2292000D01*
X928333Y-2292000D02*
X947381Y-2282476D01*
X1099762Y-2482476D02*
X1099762Y-2349143D01*
X1099762Y-2368190D02*
X1109286Y-2358667D01*
X1109286Y-2358667D02*
X1128333Y-2349143D01*
X1128333Y-2349143D02*
X1156905Y-2349143D01*
X1156905Y-2349143D02*
X1175952Y-2358667D01*
X1175952Y-2358667D02*
X1185476Y-2377714D01*
X1185476Y-2377714D02*
X1185476Y-2482476D01*
X1185476Y-2377714D02*
X1195000Y-2358667D01*
X1195000Y-2358667D02*
X1214048Y-2349143D01*
X1214048Y-2349143D02*
X1242619Y-2349143D01*
X1242619Y-2349143D02*
X1261667Y-2358667D01*
X1261667Y-2358667D02*
X1271191Y-2377714D01*
X1271191Y-2377714D02*
X1271191Y-2482476D01*
X1366429Y-2482476D02*
X1366429Y-2349143D01*
X1366429Y-2368190D02*
X1375952Y-2358667D01*
X1375952Y-2358667D02*
X1395000Y-2349143D01*
X1395000Y-2349143D02*
X1423571Y-2349143D01*
X1423571Y-2349143D02*
X1442619Y-2358667D01*
X1442619Y-2358667D02*
X1452143Y-2377714D01*
X1452143Y-2377714D02*
X1452143Y-2482476D01*
X1452143Y-2377714D02*
X1461667Y-2358667D01*
X1461667Y-2358667D02*
X1480714Y-2349143D01*
X1480714Y-2349143D02*
X1509286Y-2349143D01*
X1509286Y-2349143D02*
X1528333Y-2358667D01*
X1528333Y-2358667D02*
X1537857Y-2377714D01*
X1537857Y-2377714D02*
X1537857Y-2482476D01*
X1895952Y-2272952D02*
X1724524Y-2530095D01*
X2120714Y-2282476D02*
X2139762Y-2282476D01*
X2139762Y-2282476D02*
X2158810Y-2292000D01*
X2158810Y-2292000D02*
X2168333Y-2301524D01*
X2168333Y-2301524D02*
X2177857Y-2320571D01*
X2177857Y-2320571D02*
X2187381Y-2358667D01*
X2187381Y-2358667D02*
X2187381Y-2406286D01*
X2187381Y-2406286D02*
X2177857Y-2444381D01*
X2177857Y-2444381D02*
X2168333Y-2463429D01*
X2168333Y-2463429D02*
X2158810Y-2472952D01*
X2158810Y-2472952D02*
X2139762Y-2482476D01*
X2139762Y-2482476D02*
X2120714Y-2482476D01*
X2120714Y-2482476D02*
X2101667Y-2472952D01*
X2101667Y-2472952D02*
X2092143Y-2463429D01*
X2092143Y-2463429D02*
X2082619Y-2444381D01*
X2082619Y-2444381D02*
X2073095Y-2406286D01*
X2073095Y-2406286D02*
X2073095Y-2358667D01*
X2073095Y-2358667D02*
X2082619Y-2320571D01*
X2082619Y-2320571D02*
X2092143Y-2301524D01*
X2092143Y-2301524D02*
X2101667Y-2292000D01*
X2101667Y-2292000D02*
X2120714Y-2282476D01*
X2273095Y-2463429D02*
X2282619Y-2472952D01*
X2282619Y-2472952D02*
X2273095Y-2482476D01*
X2273095Y-2482476D02*
X2263572Y-2472952D01*
X2263572Y-2472952D02*
X2273095Y-2463429D01*
X2273095Y-2463429D02*
X2273095Y-2482476D01*
X2406429Y-2282476D02*
X2425476Y-2282476D01*
X2425476Y-2282476D02*
X2444524Y-2292000D01*
X2444524Y-2292000D02*
X2454048Y-2301524D01*
X2454048Y-2301524D02*
X2463572Y-2320571D01*
X2463572Y-2320571D02*
X2473095Y-2358667D01*
X2473095Y-2358667D02*
X2473095Y-2406286D01*
X2473095Y-2406286D02*
X2463572Y-2444381D01*
X2463572Y-2444381D02*
X2454048Y-2463429D01*
X2454048Y-2463429D02*
X2444524Y-2472952D01*
X2444524Y-2472952D02*
X2425476Y-2482476D01*
X2425476Y-2482476D02*
X2406429Y-2482476D01*
X2406429Y-2482476D02*
X2387381Y-2472952D01*
X2387381Y-2472952D02*
X2377857Y-2463429D01*
X2377857Y-2463429D02*
X2368333Y-2444381D01*
X2368333Y-2444381D02*
X2358810Y-2406286D01*
X2358810Y-2406286D02*
X2358810Y-2358667D01*
X2358810Y-2358667D02*
X2368333Y-2320571D01*
X2368333Y-2320571D02*
X2377857Y-2301524D01*
X2377857Y-2301524D02*
X2387381Y-2292000D01*
X2387381Y-2292000D02*
X2406429Y-2282476D01*
X2549286Y-2301524D02*
X2558810Y-2292000D01*
X2558810Y-2292000D02*
X2577857Y-2282476D01*
X2577857Y-2282476D02*
X2625476Y-2282476D01*
X2625476Y-2282476D02*
X2644524Y-2292000D01*
X2644524Y-2292000D02*
X2654048Y-2301524D01*
X2654048Y-2301524D02*
X2663572Y-2320571D01*
X2663572Y-2320571D02*
X2663572Y-2339619D01*
X2663572Y-2339619D02*
X2654048Y-2368190D01*
X2654048Y-2368190D02*
X2539762Y-2482476D01*
X2539762Y-2482476D02*
X2663572Y-2482476D01*
X2844524Y-2282476D02*
X2749286Y-2282476D01*
X2749286Y-2282476D02*
X2739762Y-2377714D01*
X2739762Y-2377714D02*
X2749286Y-2368190D01*
X2749286Y-2368190D02*
X2768333Y-2358667D01*
X2768333Y-2358667D02*
X2815952Y-2358667D01*
X2815952Y-2358667D02*
X2835000Y-2368190D01*
X2835000Y-2368190D02*
X2844524Y-2377714D01*
X2844524Y-2377714D02*
X2854048Y-2396762D01*
X2854048Y-2396762D02*
X2854048Y-2444381D01*
X2854048Y-2444381D02*
X2844524Y-2463429D01*
X2844524Y-2463429D02*
X2835000Y-2472952D01*
X2835000Y-2472952D02*
X2815952Y-2482476D01*
X2815952Y-2482476D02*
X2768333Y-2482476D01*
X2768333Y-2482476D02*
X2749286Y-2472952D01*
X2749286Y-2472952D02*
X2739762Y-2463429D01*
X3025476Y-2282476D02*
X2987381Y-2282476D01*
X2987381Y-2282476D02*
X2968333Y-2292000D01*
X2968333Y-2292000D02*
X2958810Y-2301524D01*
X2958810Y-2301524D02*
X2939762Y-2330095D01*
X2939762Y-2330095D02*
X2930238Y-2368190D01*
X2930238Y-2368190D02*
X2930238Y-2444381D01*
X2930238Y-2444381D02*
X2939762Y-2463429D01*
X2939762Y-2463429D02*
X2949286Y-2472952D01*
X2949286Y-2472952D02*
X2968333Y-2482476D01*
X2968333Y-2482476D02*
X3006429Y-2482476D01*
X3006429Y-2482476D02*
X3025476Y-2472952D01*
X3025476Y-2472952D02*
X3035000Y-2463429D01*
X3035000Y-2463429D02*
X3044524Y-2444381D01*
X3044524Y-2444381D02*
X3044524Y-2396762D01*
X3044524Y-2396762D02*
X3035000Y-2377714D01*
X3035000Y-2377714D02*
X3025476Y-2368190D01*
X3025476Y-2368190D02*
X3006429Y-2358667D01*
X3006429Y-2358667D02*
X2968333Y-2358667D01*
X2968333Y-2358667D02*
X2949286Y-2368190D01*
X2949286Y-2368190D02*
X2939762Y-2377714D01*
X2939762Y-2377714D02*
X2930238Y-2396762D01*
X3120714Y-2282476D02*
X3120714Y-2320571D01*
X3196905Y-2282476D02*
X3196905Y-2320571D01*
X3459762Y-2558667D02*
X3450238Y-2549143D01*
X3450238Y-2549143D02*
X3431191Y-2520571D01*
X3431191Y-2520571D02*
X3421667Y-2501524D01*
X3421667Y-2501524D02*
X3412143Y-2472952D01*
X3412143Y-2472952D02*
X3402619Y-2425333D01*
X3402619Y-2425333D02*
X3402619Y-2387238D01*
X3402619Y-2387238D02*
X3412143Y-2339619D01*
X3412143Y-2339619D02*
X3421667Y-2311048D01*
X3421667Y-2311048D02*
X3431191Y-2292000D01*
X3431191Y-2292000D02*
X3450238Y-2263429D01*
X3450238Y-2263429D02*
X3459762Y-2253905D01*
X3516905Y-2282476D02*
X3640714Y-2282476D01*
X3640714Y-2282476D02*
X3574048Y-2358667D01*
X3574048Y-2358667D02*
X3602619Y-2358667D01*
X3602619Y-2358667D02*
X3621667Y-2368190D01*
X3621667Y-2368190D02*
X3631191Y-2377714D01*
X3631191Y-2377714D02*
X3640714Y-2396762D01*
X3640714Y-2396762D02*
X3640714Y-2444381D01*
X3640714Y-2444381D02*
X3631191Y-2463429D01*
X3631191Y-2463429D02*
X3621667Y-2472952D01*
X3621667Y-2472952D02*
X3602619Y-2482476D01*
X3602619Y-2482476D02*
X3545476Y-2482476D01*
X3545476Y-2482476D02*
X3526429Y-2472952D01*
X3526429Y-2472952D02*
X3516905Y-2463429D01*
X3846429Y-2482476D02*
X3846429Y-2282476D01*
X3932143Y-2482476D02*
X3932143Y-2377714D01*
X3932143Y-2377714D02*
X3922619Y-2358667D01*
X3922619Y-2358667D02*
X3903572Y-2349143D01*
X3903572Y-2349143D02*
X3875000Y-2349143D01*
X3875000Y-2349143D02*
X3855952Y-2358667D01*
X3855952Y-2358667D02*
X3846429Y-2368190D01*
X4055952Y-2482476D02*
X4036905Y-2472952D01*
X4036905Y-2472952D02*
X4027381Y-2463429D01*
X4027381Y-2463429D02*
X4017857Y-2444381D01*
X4017857Y-2444381D02*
X4017857Y-2387238D01*
X4017857Y-2387238D02*
X4027381Y-2368190D01*
X4027381Y-2368190D02*
X4036905Y-2358667D01*
X4036905Y-2358667D02*
X4055952Y-2349143D01*
X4055952Y-2349143D02*
X4084524Y-2349143D01*
X4084524Y-2349143D02*
X4103572Y-2358667D01*
X4103572Y-2358667D02*
X4113095Y-2368190D01*
X4113095Y-2368190D02*
X4122619Y-2387238D01*
X4122619Y-2387238D02*
X4122619Y-2444381D01*
X4122619Y-2444381D02*
X4113095Y-2463429D01*
X4113095Y-2463429D02*
X4103572Y-2472952D01*
X4103572Y-2472952D02*
X4084524Y-2482476D01*
X4084524Y-2482476D02*
X4055952Y-2482476D01*
X4236905Y-2482476D02*
X4217857Y-2472952D01*
X4217857Y-2472952D02*
X4208334Y-2453905D01*
X4208334Y-2453905D02*
X4208334Y-2282476D01*
X4389286Y-2472952D02*
X4370238Y-2482476D01*
X4370238Y-2482476D02*
X4332143Y-2482476D01*
X4332143Y-2482476D02*
X4313095Y-2472952D01*
X4313095Y-2472952D02*
X4303572Y-2453905D01*
X4303572Y-2453905D02*
X4303572Y-2377714D01*
X4303572Y-2377714D02*
X4313095Y-2358667D01*
X4313095Y-2358667D02*
X4332143Y-2349143D01*
X4332143Y-2349143D02*
X4370238Y-2349143D01*
X4370238Y-2349143D02*
X4389286Y-2358667D01*
X4389286Y-2358667D02*
X4398810Y-2377714D01*
X4398810Y-2377714D02*
X4398810Y-2396762D01*
X4398810Y-2396762D02*
X4303572Y-2415810D01*
X4475000Y-2472952D02*
X4494048Y-2482476D01*
X4494048Y-2482476D02*
X4532143Y-2482476D01*
X4532143Y-2482476D02*
X4551191Y-2472952D01*
X4551191Y-2472952D02*
X4560715Y-2453905D01*
X4560715Y-2453905D02*
X4560715Y-2444381D01*
X4560715Y-2444381D02*
X4551191Y-2425333D01*
X4551191Y-2425333D02*
X4532143Y-2415810D01*
X4532143Y-2415810D02*
X4503572Y-2415810D01*
X4503572Y-2415810D02*
X4484524Y-2406286D01*
X4484524Y-2406286D02*
X4475000Y-2387238D01*
X4475000Y-2387238D02*
X4475000Y-2377714D01*
X4475000Y-2377714D02*
X4484524Y-2358667D01*
X4484524Y-2358667D02*
X4503572Y-2349143D01*
X4503572Y-2349143D02*
X4532143Y-2349143D01*
X4532143Y-2349143D02*
X4551191Y-2358667D01*
X4627381Y-2558667D02*
X4636905Y-2549143D01*
X4636905Y-2549143D02*
X4655953Y-2520571D01*
X4655953Y-2520571D02*
X4665476Y-2501524D01*
X4665476Y-2501524D02*
X4675000Y-2472952D01*
X4675000Y-2472952D02*
X4684524Y-2425333D01*
X4684524Y-2425333D02*
X4684524Y-2387238D01*
X4684524Y-2387238D02*
X4675000Y-2339619D01*
X4675000Y-2339619D02*
X4665476Y-2311048D01*
X4665476Y-2311048D02*
X4655953Y-2292000D01*
X4655953Y-2292000D02*
X4636905Y-2263429D01*
X4636905Y-2263429D02*
X4627381Y-2253905D01*
M02*
