%TF.GenerationSoftware,KiCad,Pcbnew,8.0.1*%
%TF.CreationDate,2024-06-15T21:09:58+03:00*%
%TF.ProjectId,FancyLight-V2,46616e63-794c-4696-9768-742d56322e6b,rev?*%
%TF.SameCoordinates,Original*%
%TF.FileFunction,Drillmap*%
%TF.FilePolarity,Positive*%
%FSLAX45Y45*%
G04 Gerber Fmt 4.5, Leading zero omitted, Abs format (unit mm)*
G04 Created by KiCad (PCBNEW 8.0.1) date 2024-06-15 21:09:58*
%MOMM*%
%LPD*%
G01*
G04 APERTURE LIST*
%ADD10C,0.100000*%
%ADD11C,0.200000*%
G04 APERTURE END LIST*
D10*
X0Y0D02*
X4000000Y0D01*
X4000000Y-4000000D01*
X0Y-4000000D01*
X0Y0D01*
D11*
D10*
X400000Y-870000D02*
X440000Y-910000D01*
X440000Y-870000D02*
X400000Y-910000D01*
X610000Y-2640000D02*
X650000Y-2680000D01*
X650000Y-2640000D02*
X610000Y-2680000D01*
X615000Y-785000D02*
X655000Y-825000D01*
X655000Y-785000D02*
X615000Y-825000D01*
X620000Y-1060000D02*
X660000Y-1100000D01*
X660000Y-1060000D02*
X620000Y-1100000D01*
X700000Y-3120000D02*
X740000Y-3160000D01*
X740000Y-3120000D02*
X700000Y-3160000D01*
X700000Y-3260000D02*
X740000Y-3300000D01*
X740000Y-3260000D02*
X700000Y-3300000D01*
X710000Y-220000D02*
X750000Y-260000D01*
X750000Y-220000D02*
X710000Y-260000D01*
X720000Y-980000D02*
X760000Y-1020000D01*
X760000Y-980000D02*
X720000Y-1020000D01*
X810000Y-2650000D02*
X850000Y-2690000D01*
X850000Y-2650000D02*
X810000Y-2690000D01*
X830000Y-630000D02*
X870000Y-670000D01*
X870000Y-630000D02*
X830000Y-670000D01*
X840000Y-770000D02*
X880000Y-810000D01*
X880000Y-770000D02*
X840000Y-810000D01*
X850000Y-220000D02*
X890000Y-260000D01*
X890000Y-220000D02*
X850000Y-260000D01*
X910000Y-1140000D02*
X950000Y-1180000D01*
X950000Y-1140000D02*
X910000Y-1180000D01*
X960000Y-2640000D02*
X1000000Y-2680000D01*
X1000000Y-2640000D02*
X960000Y-2680000D01*
X960000Y-3130000D02*
X1000000Y-3170000D01*
X1000000Y-3130000D02*
X960000Y-3170000D01*
X980000Y-630000D02*
X1020000Y-670000D01*
X1020000Y-630000D02*
X980000Y-670000D01*
X980000Y-770000D02*
X1020000Y-810000D01*
X1020000Y-770000D02*
X980000Y-810000D01*
X1010000Y-350000D02*
X1050000Y-390000D01*
X1050000Y-350000D02*
X1010000Y-390000D01*
X1050000Y-1410000D02*
X1090000Y-1450000D01*
X1090000Y-1410000D02*
X1050000Y-1450000D01*
X1100000Y-2640000D02*
X1140000Y-2680000D01*
X1140000Y-2640000D02*
X1100000Y-2680000D01*
X1130000Y-1940000D02*
X1170000Y-1980000D01*
X1170000Y-1940000D02*
X1130000Y-1980000D01*
X1150000Y-900000D02*
X1190000Y-940000D01*
X1190000Y-900000D02*
X1150000Y-940000D01*
X1170000Y-350000D02*
X1210000Y-390000D01*
X1210000Y-350000D02*
X1170000Y-390000D01*
X1210000Y-2250000D02*
X1250000Y-2290000D01*
X1250000Y-2250000D02*
X1210000Y-2290000D01*
X1260000Y-1900000D02*
X1300000Y-1940000D01*
X1300000Y-1900000D02*
X1260000Y-1940000D01*
X1310000Y-350000D02*
X1350000Y-390000D01*
X1350000Y-350000D02*
X1310000Y-390000D01*
X1450000Y-350000D02*
X1490000Y-390000D01*
X1490000Y-350000D02*
X1450000Y-390000D01*
X1500000Y-1880000D02*
X1540000Y-1920000D01*
X1540000Y-1880000D02*
X1500000Y-1920000D01*
X1510000Y-920000D02*
X1550000Y-960000D01*
X1550000Y-920000D02*
X1510000Y-960000D01*
X1530000Y-800000D02*
X1570000Y-840000D01*
X1570000Y-800000D02*
X1530000Y-840000D01*
X1580000Y-1150000D02*
X1620000Y-1190000D01*
X1620000Y-1150000D02*
X1580000Y-1190000D01*
X1630000Y-1880000D02*
X1670000Y-1920000D01*
X1670000Y-1880000D02*
X1630000Y-1920000D01*
X1720000Y-1150000D02*
X1760000Y-1190000D01*
X1760000Y-1150000D02*
X1720000Y-1190000D01*
X1720100Y-910000D02*
X1760100Y-950000D01*
X1760100Y-910000D02*
X1720100Y-950000D01*
X1750000Y-2290000D02*
X1790000Y-2330000D01*
X1790000Y-2290000D02*
X1750000Y-2330000D01*
X1790000Y-2570000D02*
X1830000Y-2610000D01*
X1830000Y-2570000D02*
X1790000Y-2610000D01*
X1817600Y-427600D02*
X1857600Y-467600D01*
X1857600Y-427600D02*
X1817600Y-467600D01*
X1827600Y-907600D02*
X1867600Y-947600D01*
X1867600Y-907600D02*
X1827600Y-947600D01*
X1930000Y-1500000D02*
X1970000Y-1540000D01*
X1970000Y-1500000D02*
X1930000Y-1540000D01*
X1930000Y-2570000D02*
X1970000Y-2610000D01*
X1970000Y-2570000D02*
X1930000Y-2610000D01*
X1950000Y-2290000D02*
X1990000Y-2330000D01*
X1990000Y-2290000D02*
X1950000Y-2330000D01*
X1960000Y-1880000D02*
X2000000Y-1920000D01*
X2000000Y-1880000D02*
X1960000Y-1920000D01*
X2040000Y-1190000D02*
X2080000Y-1230000D01*
X2080000Y-1190000D02*
X2040000Y-1230000D01*
X2100000Y-2650000D02*
X2140000Y-2690000D01*
X2140000Y-2650000D02*
X2100000Y-2690000D01*
X2110000Y-2280000D02*
X2150000Y-2320000D01*
X2150000Y-2280000D02*
X2110000Y-2320000D01*
X2170000Y-1500000D02*
X2210000Y-1540000D01*
X2210000Y-1500000D02*
X2170000Y-1540000D01*
X2180000Y-1190000D02*
X2220000Y-1230000D01*
X2220000Y-1190000D02*
X2180000Y-1230000D01*
X2280000Y-2170000D02*
X2320000Y-2210000D01*
X2320000Y-2170000D02*
X2280000Y-2210000D01*
X2400000Y-2170000D02*
X2440000Y-2210000D01*
X2440000Y-2170000D02*
X2400000Y-2210000D01*
X2520000Y-2170000D02*
X2560000Y-2210000D01*
X2560000Y-2170000D02*
X2520000Y-2210000D01*
X2550000Y-1150000D02*
X2590000Y-1190000D01*
X2590000Y-1150000D02*
X2550000Y-1190000D01*
X2562500Y-802500D02*
X2602500Y-842500D01*
X2602500Y-802500D02*
X2562500Y-842500D01*
X2620000Y-1630000D02*
X2660000Y-1670000D01*
X2660000Y-1630000D02*
X2620000Y-1670000D01*
X2690000Y-1150000D02*
X2730000Y-1190000D01*
X2730000Y-1150000D02*
X2690000Y-1190000D01*
X2790000Y-3040000D02*
X2830000Y-3080000D01*
X2830000Y-3040000D02*
X2790000Y-3080000D01*
X2790000Y-3180000D02*
X2830000Y-3220000D01*
X2830000Y-3180000D02*
X2790000Y-3220000D01*
X3280000Y-150000D02*
X3320000Y-190000D01*
X3320000Y-150000D02*
X3280000Y-190000D01*
X3280000Y-310000D02*
X3320000Y-350000D01*
X3320000Y-310000D02*
X3280000Y-350000D01*
X3280000Y-470000D02*
X3320000Y-510000D01*
X3320000Y-470000D02*
X3280000Y-510000D01*
X3290000Y-820000D02*
X3330000Y-860000D01*
X3330000Y-820000D02*
X3290000Y-860000D01*
X3430000Y-820000D02*
X3470000Y-860000D01*
X3470000Y-820000D02*
X3430000Y-860000D01*
X3570000Y-2920000D02*
X3610000Y-2960000D01*
X3610000Y-2920000D02*
X3570000Y-2960000D01*
X3570000Y-3060000D02*
X3610000Y-3100000D01*
X3610000Y-3060000D02*
X3570000Y-3100000D01*
X2125100Y-345600D02*
G75*
G02*
X2060100Y-345600I-32500J0D01*
G01*
X2060100Y-345600D02*
G75*
G02*
X2125100Y-345600I32500J0D01*
G01*
X2125100Y-472600D02*
G75*
G02*
X2060100Y-472600I-32500J0D01*
G01*
X2060100Y-472600D02*
G75*
G02*
X2125100Y-472600I32500J0D01*
G01*
X2125100Y-599600D02*
G75*
G02*
X2060100Y-599600I-32500J0D01*
G01*
X2060100Y-599600D02*
G75*
G02*
X2125100Y-599600I32500J0D01*
G01*
X2455100Y-345600D02*
G75*
G02*
X2390100Y-345600I-32500J0D01*
G01*
X2390100Y-345600D02*
G75*
G02*
X2455100Y-345600I32500J0D01*
G01*
X2455100Y-472600D02*
G75*
G02*
X2390100Y-472600I-32500J0D01*
G01*
X2390100Y-472600D02*
G75*
G02*
X2455100Y-472600I32500J0D01*
G01*
X2455100Y-599600D02*
G75*
G02*
X2390100Y-599600I-32500J0D01*
G01*
X2390100Y-599600D02*
G75*
G02*
X2455100Y-599600I32500J0D01*
G01*
X2790100Y-347600D02*
G75*
G02*
X2725100Y-347600I-32500J0D01*
G01*
X2725100Y-347600D02*
G75*
G02*
X2790100Y-347600I32500J0D01*
G01*
X2790100Y-474600D02*
G75*
G02*
X2725100Y-474600I-32500J0D01*
G01*
X2725100Y-474600D02*
G75*
G02*
X2790100Y-474600I32500J0D01*
G01*
X3232500Y-3233000D02*
G75*
G02*
X3167500Y-3233000I-32500J0D01*
G01*
X3167500Y-3233000D02*
G75*
G02*
X3232500Y-3233000I32500J0D01*
G01*
X3232500Y-3360000D02*
G75*
G02*
X3167500Y-3360000I-32500J0D01*
G01*
X3167500Y-3360000D02*
G75*
G02*
X3232500Y-3360000I32500J0D01*
G01*
X3232500Y-3620000D02*
G75*
G02*
X3167500Y-3620000I-32500J0D01*
G01*
X3167500Y-3620000D02*
G75*
G02*
X3232500Y-3620000I32500J0D01*
G01*
X3232500Y-3747000D02*
G75*
G02*
X3167500Y-3747000I-32500J0D01*
G01*
X3167500Y-3747000D02*
G75*
G02*
X3232500Y-3747000I32500J0D01*
G01*
X1568000Y-3421200D02*
X1568000Y-3491200D01*
X1533000Y-3456200D02*
X1603000Y-3456200D01*
X1533000Y-3416200D02*
X1533000Y-3496200D01*
X1603000Y-3496200D02*
G75*
G02*
X1533000Y-3496200I-35000J0D01*
G01*
X1603000Y-3496200D02*
X1603000Y-3416200D01*
X1603000Y-3416200D02*
G75*
G03*
X1533000Y-3416200I-35000J0D01*
G01*
X1568000Y-3801300D02*
X1568000Y-3871300D01*
X1533000Y-3836300D02*
X1603000Y-3836300D01*
X1533000Y-3796300D02*
X1533000Y-3876300D01*
X1603000Y-3876300D02*
G75*
G02*
X1533000Y-3876300I-35000J0D01*
G01*
X1603000Y-3876300D02*
X1603000Y-3796300D01*
X1603000Y-3796300D02*
G75*
G03*
X1533000Y-3796300I-35000J0D01*
G01*
X2432000Y-3421200D02*
X2432000Y-3491200D01*
X2397000Y-3456200D02*
X2467000Y-3456200D01*
X2397000Y-3416200D02*
X2397000Y-3496200D01*
X2467000Y-3496200D02*
G75*
G02*
X2397000Y-3496200I-35000J0D01*
G01*
X2467000Y-3496200D02*
X2467000Y-3416200D01*
X2467000Y-3416200D02*
G75*
G03*
X2397000Y-3416200I-35000J0D01*
G01*
X2432000Y-3801300D02*
X2432000Y-3871300D01*
X2397000Y-3836300D02*
X2467000Y-3836300D01*
X2397000Y-3796300D02*
X2397000Y-3876300D01*
X2467000Y-3876300D02*
G75*
G02*
X2397000Y-3876300I-35000J0D01*
G01*
X2467000Y-3876300D02*
X2467000Y-3796300D01*
X2467000Y-3796300D02*
G75*
G03*
X2397000Y-3796300I-35000J0D01*
G01*
X331356Y-1362856D02*
X331356Y-1292144D01*
X260644Y-1292144D01*
X260644Y-1362856D01*
X331356Y-1362856D01*
X331356Y-1616856D02*
X331356Y-1546144D01*
X260644Y-1546144D01*
X260644Y-1616856D01*
X331356Y-1616856D01*
X331356Y-1870856D02*
X331356Y-1800144D01*
X260644Y-1800144D01*
X260644Y-1870856D01*
X331356Y-1870856D01*
X331356Y-2301356D02*
X331356Y-2230644D01*
X260644Y-2230644D01*
X260644Y-2301356D01*
X331356Y-2301356D01*
X331356Y-2555356D02*
X331356Y-2484644D01*
X260644Y-2484644D01*
X260644Y-2555356D01*
X331356Y-2555356D01*
X585356Y-1362856D02*
X585356Y-1292144D01*
X514644Y-1292144D01*
X514644Y-1362856D01*
X585356Y-1362856D01*
X585356Y-1616856D02*
X585356Y-1546144D01*
X514644Y-1546144D01*
X514644Y-1616856D01*
X585356Y-1616856D01*
X585356Y-1870856D02*
X585356Y-1800144D01*
X514644Y-1800144D01*
X514644Y-1870856D01*
X585356Y-1870856D01*
X585356Y-2301356D02*
X585356Y-2230644D01*
X514644Y-2230644D01*
X514644Y-2301356D01*
X585356Y-2301356D01*
X585356Y-2555356D02*
X585356Y-2484644D01*
X514644Y-2484644D01*
X514644Y-2555356D01*
X585356Y-2555356D01*
D11*
X255777Y-4316484D02*
X255777Y-4116484D01*
X255777Y-4116484D02*
X303396Y-4116484D01*
X303396Y-4116484D02*
X331967Y-4126008D01*
X331967Y-4126008D02*
X351015Y-4145055D01*
X351015Y-4145055D02*
X360539Y-4164103D01*
X360539Y-4164103D02*
X370062Y-4202198D01*
X370062Y-4202198D02*
X370062Y-4230770D01*
X370062Y-4230770D02*
X360539Y-4268865D01*
X360539Y-4268865D02*
X351015Y-4287912D01*
X351015Y-4287912D02*
X331967Y-4306960D01*
X331967Y-4306960D02*
X303396Y-4316484D01*
X303396Y-4316484D02*
X255777Y-4316484D01*
X455777Y-4316484D02*
X455777Y-4183150D01*
X455777Y-4221246D02*
X465301Y-4202198D01*
X465301Y-4202198D02*
X474824Y-4192674D01*
X474824Y-4192674D02*
X493872Y-4183150D01*
X493872Y-4183150D02*
X512920Y-4183150D01*
X579586Y-4316484D02*
X579586Y-4183150D01*
X579586Y-4116484D02*
X570063Y-4126008D01*
X570063Y-4126008D02*
X579586Y-4135531D01*
X579586Y-4135531D02*
X589110Y-4126008D01*
X589110Y-4126008D02*
X579586Y-4116484D01*
X579586Y-4116484D02*
X579586Y-4135531D01*
X703396Y-4316484D02*
X684348Y-4306960D01*
X684348Y-4306960D02*
X674824Y-4287912D01*
X674824Y-4287912D02*
X674824Y-4116484D01*
X808158Y-4316484D02*
X789110Y-4306960D01*
X789110Y-4306960D02*
X779586Y-4287912D01*
X779586Y-4287912D02*
X779586Y-4116484D01*
X1036729Y-4316484D02*
X1036729Y-4116484D01*
X1036729Y-4116484D02*
X1103396Y-4259341D01*
X1103396Y-4259341D02*
X1170063Y-4116484D01*
X1170063Y-4116484D02*
X1170063Y-4316484D01*
X1351015Y-4316484D02*
X1351015Y-4211722D01*
X1351015Y-4211722D02*
X1341491Y-4192674D01*
X1341491Y-4192674D02*
X1322444Y-4183150D01*
X1322444Y-4183150D02*
X1284348Y-4183150D01*
X1284348Y-4183150D02*
X1265301Y-4192674D01*
X1351015Y-4306960D02*
X1331967Y-4316484D01*
X1331967Y-4316484D02*
X1284348Y-4316484D01*
X1284348Y-4316484D02*
X1265301Y-4306960D01*
X1265301Y-4306960D02*
X1255777Y-4287912D01*
X1255777Y-4287912D02*
X1255777Y-4268865D01*
X1255777Y-4268865D02*
X1265301Y-4249817D01*
X1265301Y-4249817D02*
X1284348Y-4240293D01*
X1284348Y-4240293D02*
X1331967Y-4240293D01*
X1331967Y-4240293D02*
X1351015Y-4230770D01*
X1446253Y-4183150D02*
X1446253Y-4383150D01*
X1446253Y-4192674D02*
X1465301Y-4183150D01*
X1465301Y-4183150D02*
X1503396Y-4183150D01*
X1503396Y-4183150D02*
X1522443Y-4192674D01*
X1522443Y-4192674D02*
X1531967Y-4202198D01*
X1531967Y-4202198D02*
X1541491Y-4221246D01*
X1541491Y-4221246D02*
X1541491Y-4278389D01*
X1541491Y-4278389D02*
X1531967Y-4297436D01*
X1531967Y-4297436D02*
X1522443Y-4306960D01*
X1522443Y-4306960D02*
X1503396Y-4316484D01*
X1503396Y-4316484D02*
X1465301Y-4316484D01*
X1465301Y-4316484D02*
X1446253Y-4306960D01*
X1627205Y-4297436D02*
X1636729Y-4306960D01*
X1636729Y-4306960D02*
X1627205Y-4316484D01*
X1627205Y-4316484D02*
X1617682Y-4306960D01*
X1617682Y-4306960D02*
X1627205Y-4297436D01*
X1627205Y-4297436D02*
X1627205Y-4316484D01*
X1627205Y-4192674D02*
X1636729Y-4202198D01*
X1636729Y-4202198D02*
X1627205Y-4211722D01*
X1627205Y-4211722D02*
X1617682Y-4202198D01*
X1617682Y-4202198D02*
X1627205Y-4192674D01*
X1627205Y-4192674D02*
X1627205Y-4211722D01*
D10*
X-45000Y-4625000D02*
X-5000Y-4665000D01*
X-5000Y-4625000D02*
X-45000Y-4665000D01*
D11*
X293872Y-4536484D02*
X312920Y-4536484D01*
X312920Y-4536484D02*
X331967Y-4546008D01*
X331967Y-4546008D02*
X341491Y-4555531D01*
X341491Y-4555531D02*
X351015Y-4574579D01*
X351015Y-4574579D02*
X360539Y-4612674D01*
X360539Y-4612674D02*
X360539Y-4660293D01*
X360539Y-4660293D02*
X351015Y-4698389D01*
X351015Y-4698389D02*
X341491Y-4717436D01*
X341491Y-4717436D02*
X331967Y-4726960D01*
X331967Y-4726960D02*
X312920Y-4736484D01*
X312920Y-4736484D02*
X293872Y-4736484D01*
X293872Y-4736484D02*
X274824Y-4726960D01*
X274824Y-4726960D02*
X265301Y-4717436D01*
X265301Y-4717436D02*
X255777Y-4698389D01*
X255777Y-4698389D02*
X246253Y-4660293D01*
X246253Y-4660293D02*
X246253Y-4612674D01*
X246253Y-4612674D02*
X255777Y-4574579D01*
X255777Y-4574579D02*
X265301Y-4555531D01*
X265301Y-4555531D02*
X274824Y-4546008D01*
X274824Y-4546008D02*
X293872Y-4536484D01*
X446253Y-4717436D02*
X455777Y-4726960D01*
X455777Y-4726960D02*
X446253Y-4736484D01*
X446253Y-4736484D02*
X436729Y-4726960D01*
X436729Y-4726960D02*
X446253Y-4717436D01*
X446253Y-4717436D02*
X446253Y-4736484D01*
X627205Y-4603150D02*
X627205Y-4736484D01*
X579586Y-4526960D02*
X531967Y-4669817D01*
X531967Y-4669817D02*
X655777Y-4669817D01*
X770062Y-4536484D02*
X789110Y-4536484D01*
X789110Y-4536484D02*
X808158Y-4546008D01*
X808158Y-4546008D02*
X817682Y-4555531D01*
X817682Y-4555531D02*
X827205Y-4574579D01*
X827205Y-4574579D02*
X836729Y-4612674D01*
X836729Y-4612674D02*
X836729Y-4660293D01*
X836729Y-4660293D02*
X827205Y-4698389D01*
X827205Y-4698389D02*
X817682Y-4717436D01*
X817682Y-4717436D02*
X808158Y-4726960D01*
X808158Y-4726960D02*
X789110Y-4736484D01*
X789110Y-4736484D02*
X770062Y-4736484D01*
X770062Y-4736484D02*
X751015Y-4726960D01*
X751015Y-4726960D02*
X741491Y-4717436D01*
X741491Y-4717436D02*
X731967Y-4698389D01*
X731967Y-4698389D02*
X722443Y-4660293D01*
X722443Y-4660293D02*
X722443Y-4612674D01*
X722443Y-4612674D02*
X731967Y-4574579D01*
X731967Y-4574579D02*
X741491Y-4555531D01*
X741491Y-4555531D02*
X751015Y-4546008D01*
X751015Y-4546008D02*
X770062Y-4536484D01*
X960539Y-4536484D02*
X979586Y-4536484D01*
X979586Y-4536484D02*
X998634Y-4546008D01*
X998634Y-4546008D02*
X1008158Y-4555531D01*
X1008158Y-4555531D02*
X1017682Y-4574579D01*
X1017682Y-4574579D02*
X1027205Y-4612674D01*
X1027205Y-4612674D02*
X1027205Y-4660293D01*
X1027205Y-4660293D02*
X1017682Y-4698389D01*
X1017682Y-4698389D02*
X1008158Y-4717436D01*
X1008158Y-4717436D02*
X998634Y-4726960D01*
X998634Y-4726960D02*
X979586Y-4736484D01*
X979586Y-4736484D02*
X960539Y-4736484D01*
X960539Y-4736484D02*
X941491Y-4726960D01*
X941491Y-4726960D02*
X931967Y-4717436D01*
X931967Y-4717436D02*
X922443Y-4698389D01*
X922443Y-4698389D02*
X912920Y-4660293D01*
X912920Y-4660293D02*
X912920Y-4612674D01*
X912920Y-4612674D02*
X922443Y-4574579D01*
X922443Y-4574579D02*
X931967Y-4555531D01*
X931967Y-4555531D02*
X941491Y-4546008D01*
X941491Y-4546008D02*
X960539Y-4536484D01*
X1112920Y-4736484D02*
X1112920Y-4603150D01*
X1112920Y-4622198D02*
X1122444Y-4612674D01*
X1122444Y-4612674D02*
X1141491Y-4603150D01*
X1141491Y-4603150D02*
X1170063Y-4603150D01*
X1170063Y-4603150D02*
X1189110Y-4612674D01*
X1189110Y-4612674D02*
X1198634Y-4631722D01*
X1198634Y-4631722D02*
X1198634Y-4736484D01*
X1198634Y-4631722D02*
X1208158Y-4612674D01*
X1208158Y-4612674D02*
X1227205Y-4603150D01*
X1227205Y-4603150D02*
X1255777Y-4603150D01*
X1255777Y-4603150D02*
X1274825Y-4612674D01*
X1274825Y-4612674D02*
X1284348Y-4631722D01*
X1284348Y-4631722D02*
X1284348Y-4736484D01*
X1379586Y-4736484D02*
X1379586Y-4603150D01*
X1379586Y-4622198D02*
X1389110Y-4612674D01*
X1389110Y-4612674D02*
X1408158Y-4603150D01*
X1408158Y-4603150D02*
X1436729Y-4603150D01*
X1436729Y-4603150D02*
X1455777Y-4612674D01*
X1455777Y-4612674D02*
X1465301Y-4631722D01*
X1465301Y-4631722D02*
X1465301Y-4736484D01*
X1465301Y-4631722D02*
X1474824Y-4612674D01*
X1474824Y-4612674D02*
X1493872Y-4603150D01*
X1493872Y-4603150D02*
X1522443Y-4603150D01*
X1522443Y-4603150D02*
X1541491Y-4612674D01*
X1541491Y-4612674D02*
X1551015Y-4631722D01*
X1551015Y-4631722D02*
X1551015Y-4736484D01*
X1941491Y-4526960D02*
X1770063Y-4784103D01*
X2198634Y-4536484D02*
X2217682Y-4536484D01*
X2217682Y-4536484D02*
X2236729Y-4546008D01*
X2236729Y-4546008D02*
X2246253Y-4555531D01*
X2246253Y-4555531D02*
X2255777Y-4574579D01*
X2255777Y-4574579D02*
X2265301Y-4612674D01*
X2265301Y-4612674D02*
X2265301Y-4660293D01*
X2265301Y-4660293D02*
X2255777Y-4698389D01*
X2255777Y-4698389D02*
X2246253Y-4717436D01*
X2246253Y-4717436D02*
X2236729Y-4726960D01*
X2236729Y-4726960D02*
X2217682Y-4736484D01*
X2217682Y-4736484D02*
X2198634Y-4736484D01*
X2198634Y-4736484D02*
X2179587Y-4726960D01*
X2179587Y-4726960D02*
X2170063Y-4717436D01*
X2170063Y-4717436D02*
X2160539Y-4698389D01*
X2160539Y-4698389D02*
X2151015Y-4660293D01*
X2151015Y-4660293D02*
X2151015Y-4612674D01*
X2151015Y-4612674D02*
X2160539Y-4574579D01*
X2160539Y-4574579D02*
X2170063Y-4555531D01*
X2170063Y-4555531D02*
X2179587Y-4546008D01*
X2179587Y-4546008D02*
X2198634Y-4536484D01*
X2351015Y-4717436D02*
X2360539Y-4726960D01*
X2360539Y-4726960D02*
X2351015Y-4736484D01*
X2351015Y-4736484D02*
X2341491Y-4726960D01*
X2341491Y-4726960D02*
X2351015Y-4717436D01*
X2351015Y-4717436D02*
X2351015Y-4736484D01*
X2484348Y-4536484D02*
X2503396Y-4536484D01*
X2503396Y-4536484D02*
X2522444Y-4546008D01*
X2522444Y-4546008D02*
X2531968Y-4555531D01*
X2531968Y-4555531D02*
X2541491Y-4574579D01*
X2541491Y-4574579D02*
X2551015Y-4612674D01*
X2551015Y-4612674D02*
X2551015Y-4660293D01*
X2551015Y-4660293D02*
X2541491Y-4698389D01*
X2541491Y-4698389D02*
X2531968Y-4717436D01*
X2531968Y-4717436D02*
X2522444Y-4726960D01*
X2522444Y-4726960D02*
X2503396Y-4736484D01*
X2503396Y-4736484D02*
X2484348Y-4736484D01*
X2484348Y-4736484D02*
X2465301Y-4726960D01*
X2465301Y-4726960D02*
X2455777Y-4717436D01*
X2455777Y-4717436D02*
X2446253Y-4698389D01*
X2446253Y-4698389D02*
X2436729Y-4660293D01*
X2436729Y-4660293D02*
X2436729Y-4612674D01*
X2436729Y-4612674D02*
X2446253Y-4574579D01*
X2446253Y-4574579D02*
X2455777Y-4555531D01*
X2455777Y-4555531D02*
X2465301Y-4546008D01*
X2465301Y-4546008D02*
X2484348Y-4536484D01*
X2741491Y-4736484D02*
X2627206Y-4736484D01*
X2684348Y-4736484D02*
X2684348Y-4536484D01*
X2684348Y-4536484D02*
X2665301Y-4565055D01*
X2665301Y-4565055D02*
X2646253Y-4584103D01*
X2646253Y-4584103D02*
X2627206Y-4593627D01*
X2922444Y-4536484D02*
X2827206Y-4536484D01*
X2827206Y-4536484D02*
X2817682Y-4631722D01*
X2817682Y-4631722D02*
X2827206Y-4622198D01*
X2827206Y-4622198D02*
X2846253Y-4612674D01*
X2846253Y-4612674D02*
X2893872Y-4612674D01*
X2893872Y-4612674D02*
X2912920Y-4622198D01*
X2912920Y-4622198D02*
X2922444Y-4631722D01*
X2922444Y-4631722D02*
X2931967Y-4650770D01*
X2931967Y-4650770D02*
X2931967Y-4698389D01*
X2931967Y-4698389D02*
X2922444Y-4717436D01*
X2922444Y-4717436D02*
X2912920Y-4726960D01*
X2912920Y-4726960D02*
X2893872Y-4736484D01*
X2893872Y-4736484D02*
X2846253Y-4736484D01*
X2846253Y-4736484D02*
X2827206Y-4726960D01*
X2827206Y-4726960D02*
X2817682Y-4717436D01*
X2998634Y-4536484D02*
X3131967Y-4536484D01*
X3131967Y-4536484D02*
X3046253Y-4736484D01*
X3198634Y-4536484D02*
X3198634Y-4574579D01*
X3274825Y-4536484D02*
X3274825Y-4574579D01*
X3570063Y-4812674D02*
X3560539Y-4803150D01*
X3560539Y-4803150D02*
X3541491Y-4774579D01*
X3541491Y-4774579D02*
X3531968Y-4755531D01*
X3531968Y-4755531D02*
X3522444Y-4726960D01*
X3522444Y-4726960D02*
X3512920Y-4679341D01*
X3512920Y-4679341D02*
X3512920Y-4641246D01*
X3512920Y-4641246D02*
X3522444Y-4593627D01*
X3522444Y-4593627D02*
X3531968Y-4565055D01*
X3531968Y-4565055D02*
X3541491Y-4546008D01*
X3541491Y-4546008D02*
X3560539Y-4517436D01*
X3560539Y-4517436D02*
X3570063Y-4507912D01*
X3731968Y-4536484D02*
X3693872Y-4536484D01*
X3693872Y-4536484D02*
X3674825Y-4546008D01*
X3674825Y-4546008D02*
X3665301Y-4555531D01*
X3665301Y-4555531D02*
X3646253Y-4584103D01*
X3646253Y-4584103D02*
X3636729Y-4622198D01*
X3636729Y-4622198D02*
X3636729Y-4698389D01*
X3636729Y-4698389D02*
X3646253Y-4717436D01*
X3646253Y-4717436D02*
X3655777Y-4726960D01*
X3655777Y-4726960D02*
X3674825Y-4736484D01*
X3674825Y-4736484D02*
X3712920Y-4736484D01*
X3712920Y-4736484D02*
X3731968Y-4726960D01*
X3731968Y-4726960D02*
X3741491Y-4717436D01*
X3741491Y-4717436D02*
X3751015Y-4698389D01*
X3751015Y-4698389D02*
X3751015Y-4650770D01*
X3751015Y-4650770D02*
X3741491Y-4631722D01*
X3741491Y-4631722D02*
X3731968Y-4622198D01*
X3731968Y-4622198D02*
X3712920Y-4612674D01*
X3712920Y-4612674D02*
X3674825Y-4612674D01*
X3674825Y-4612674D02*
X3655777Y-4622198D01*
X3655777Y-4622198D02*
X3646253Y-4631722D01*
X3646253Y-4631722D02*
X3636729Y-4650770D01*
X3817682Y-4536484D02*
X3941491Y-4536484D01*
X3941491Y-4536484D02*
X3874825Y-4612674D01*
X3874825Y-4612674D02*
X3903396Y-4612674D01*
X3903396Y-4612674D02*
X3922444Y-4622198D01*
X3922444Y-4622198D02*
X3931968Y-4631722D01*
X3931968Y-4631722D02*
X3941491Y-4650770D01*
X3941491Y-4650770D02*
X3941491Y-4698389D01*
X3941491Y-4698389D02*
X3931968Y-4717436D01*
X3931968Y-4717436D02*
X3922444Y-4726960D01*
X3922444Y-4726960D02*
X3903396Y-4736484D01*
X3903396Y-4736484D02*
X3846253Y-4736484D01*
X3846253Y-4736484D02*
X3827206Y-4726960D01*
X3827206Y-4726960D02*
X3817682Y-4717436D01*
X4179587Y-4736484D02*
X4179587Y-4536484D01*
X4265301Y-4736484D02*
X4265301Y-4631722D01*
X4265301Y-4631722D02*
X4255777Y-4612674D01*
X4255777Y-4612674D02*
X4236730Y-4603150D01*
X4236730Y-4603150D02*
X4208158Y-4603150D01*
X4208158Y-4603150D02*
X4189110Y-4612674D01*
X4189110Y-4612674D02*
X4179587Y-4622198D01*
X4389111Y-4736484D02*
X4370063Y-4726960D01*
X4370063Y-4726960D02*
X4360539Y-4717436D01*
X4360539Y-4717436D02*
X4351015Y-4698389D01*
X4351015Y-4698389D02*
X4351015Y-4641246D01*
X4351015Y-4641246D02*
X4360539Y-4622198D01*
X4360539Y-4622198D02*
X4370063Y-4612674D01*
X4370063Y-4612674D02*
X4389111Y-4603150D01*
X4389111Y-4603150D02*
X4417682Y-4603150D01*
X4417682Y-4603150D02*
X4436730Y-4612674D01*
X4436730Y-4612674D02*
X4446253Y-4622198D01*
X4446253Y-4622198D02*
X4455777Y-4641246D01*
X4455777Y-4641246D02*
X4455777Y-4698389D01*
X4455777Y-4698389D02*
X4446253Y-4717436D01*
X4446253Y-4717436D02*
X4436730Y-4726960D01*
X4436730Y-4726960D02*
X4417682Y-4736484D01*
X4417682Y-4736484D02*
X4389111Y-4736484D01*
X4570063Y-4736484D02*
X4551015Y-4726960D01*
X4551015Y-4726960D02*
X4541492Y-4707912D01*
X4541492Y-4707912D02*
X4541492Y-4536484D01*
X4722444Y-4726960D02*
X4703396Y-4736484D01*
X4703396Y-4736484D02*
X4665301Y-4736484D01*
X4665301Y-4736484D02*
X4646253Y-4726960D01*
X4646253Y-4726960D02*
X4636730Y-4707912D01*
X4636730Y-4707912D02*
X4636730Y-4631722D01*
X4636730Y-4631722D02*
X4646253Y-4612674D01*
X4646253Y-4612674D02*
X4665301Y-4603150D01*
X4665301Y-4603150D02*
X4703396Y-4603150D01*
X4703396Y-4603150D02*
X4722444Y-4612674D01*
X4722444Y-4612674D02*
X4731968Y-4631722D01*
X4731968Y-4631722D02*
X4731968Y-4650770D01*
X4731968Y-4650770D02*
X4636730Y-4669817D01*
X4808158Y-4726960D02*
X4827206Y-4736484D01*
X4827206Y-4736484D02*
X4865301Y-4736484D01*
X4865301Y-4736484D02*
X4884349Y-4726960D01*
X4884349Y-4726960D02*
X4893873Y-4707912D01*
X4893873Y-4707912D02*
X4893873Y-4698389D01*
X4893873Y-4698389D02*
X4884349Y-4679341D01*
X4884349Y-4679341D02*
X4865301Y-4669817D01*
X4865301Y-4669817D02*
X4836730Y-4669817D01*
X4836730Y-4669817D02*
X4817682Y-4660293D01*
X4817682Y-4660293D02*
X4808158Y-4641246D01*
X4808158Y-4641246D02*
X4808158Y-4631722D01*
X4808158Y-4631722D02*
X4817682Y-4612674D01*
X4817682Y-4612674D02*
X4836730Y-4603150D01*
X4836730Y-4603150D02*
X4865301Y-4603150D01*
X4865301Y-4603150D02*
X4884349Y-4612674D01*
X4960539Y-4812674D02*
X4970063Y-4803150D01*
X4970063Y-4803150D02*
X4989111Y-4774579D01*
X4989111Y-4774579D02*
X4998634Y-4755531D01*
X4998634Y-4755531D02*
X5008158Y-4726960D01*
X5008158Y-4726960D02*
X5017682Y-4679341D01*
X5017682Y-4679341D02*
X5017682Y-4641246D01*
X5017682Y-4641246D02*
X5008158Y-4593627D01*
X5008158Y-4593627D02*
X4998634Y-4565055D01*
X4998634Y-4565055D02*
X4989111Y-4546008D01*
X4989111Y-4546008D02*
X4970063Y-4517436D01*
X4970063Y-4517436D02*
X4960539Y-4507912D01*
D10*
X-5000Y-4909000D02*
G75*
G02*
X-70000Y-4909000I-32500J0D01*
G01*
X-70000Y-4909000D02*
G75*
G02*
X-5000Y-4909000I32500J0D01*
G01*
D11*
X293872Y-4800484D02*
X312920Y-4800484D01*
X312920Y-4800484D02*
X331967Y-4810008D01*
X331967Y-4810008D02*
X341491Y-4819531D01*
X341491Y-4819531D02*
X351015Y-4838579D01*
X351015Y-4838579D02*
X360539Y-4876674D01*
X360539Y-4876674D02*
X360539Y-4924293D01*
X360539Y-4924293D02*
X351015Y-4962389D01*
X351015Y-4962389D02*
X341491Y-4981436D01*
X341491Y-4981436D02*
X331967Y-4990960D01*
X331967Y-4990960D02*
X312920Y-5000484D01*
X312920Y-5000484D02*
X293872Y-5000484D01*
X293872Y-5000484D02*
X274824Y-4990960D01*
X274824Y-4990960D02*
X265301Y-4981436D01*
X265301Y-4981436D02*
X255777Y-4962389D01*
X255777Y-4962389D02*
X246253Y-4924293D01*
X246253Y-4924293D02*
X246253Y-4876674D01*
X246253Y-4876674D02*
X255777Y-4838579D01*
X255777Y-4838579D02*
X265301Y-4819531D01*
X265301Y-4819531D02*
X274824Y-4810008D01*
X274824Y-4810008D02*
X293872Y-4800484D01*
X446253Y-4981436D02*
X455777Y-4990960D01*
X455777Y-4990960D02*
X446253Y-5000484D01*
X446253Y-5000484D02*
X436729Y-4990960D01*
X436729Y-4990960D02*
X446253Y-4981436D01*
X446253Y-4981436D02*
X446253Y-5000484D01*
X627205Y-4800484D02*
X589110Y-4800484D01*
X589110Y-4800484D02*
X570063Y-4810008D01*
X570063Y-4810008D02*
X560539Y-4819531D01*
X560539Y-4819531D02*
X541491Y-4848103D01*
X541491Y-4848103D02*
X531967Y-4886198D01*
X531967Y-4886198D02*
X531967Y-4962389D01*
X531967Y-4962389D02*
X541491Y-4981436D01*
X541491Y-4981436D02*
X551015Y-4990960D01*
X551015Y-4990960D02*
X570063Y-5000484D01*
X570063Y-5000484D02*
X608158Y-5000484D01*
X608158Y-5000484D02*
X627205Y-4990960D01*
X627205Y-4990960D02*
X636729Y-4981436D01*
X636729Y-4981436D02*
X646253Y-4962389D01*
X646253Y-4962389D02*
X646253Y-4914770D01*
X646253Y-4914770D02*
X636729Y-4895722D01*
X636729Y-4895722D02*
X627205Y-4886198D01*
X627205Y-4886198D02*
X608158Y-4876674D01*
X608158Y-4876674D02*
X570063Y-4876674D01*
X570063Y-4876674D02*
X551015Y-4886198D01*
X551015Y-4886198D02*
X541491Y-4895722D01*
X541491Y-4895722D02*
X531967Y-4914770D01*
X827205Y-4800484D02*
X731967Y-4800484D01*
X731967Y-4800484D02*
X722443Y-4895722D01*
X722443Y-4895722D02*
X731967Y-4886198D01*
X731967Y-4886198D02*
X751015Y-4876674D01*
X751015Y-4876674D02*
X798634Y-4876674D01*
X798634Y-4876674D02*
X817682Y-4886198D01*
X817682Y-4886198D02*
X827205Y-4895722D01*
X827205Y-4895722D02*
X836729Y-4914770D01*
X836729Y-4914770D02*
X836729Y-4962389D01*
X836729Y-4962389D02*
X827205Y-4981436D01*
X827205Y-4981436D02*
X817682Y-4990960D01*
X817682Y-4990960D02*
X798634Y-5000484D01*
X798634Y-5000484D02*
X751015Y-5000484D01*
X751015Y-5000484D02*
X731967Y-4990960D01*
X731967Y-4990960D02*
X722443Y-4981436D01*
X960539Y-4800484D02*
X979586Y-4800484D01*
X979586Y-4800484D02*
X998634Y-4810008D01*
X998634Y-4810008D02*
X1008158Y-4819531D01*
X1008158Y-4819531D02*
X1017682Y-4838579D01*
X1017682Y-4838579D02*
X1027205Y-4876674D01*
X1027205Y-4876674D02*
X1027205Y-4924293D01*
X1027205Y-4924293D02*
X1017682Y-4962389D01*
X1017682Y-4962389D02*
X1008158Y-4981436D01*
X1008158Y-4981436D02*
X998634Y-4990960D01*
X998634Y-4990960D02*
X979586Y-5000484D01*
X979586Y-5000484D02*
X960539Y-5000484D01*
X960539Y-5000484D02*
X941491Y-4990960D01*
X941491Y-4990960D02*
X931967Y-4981436D01*
X931967Y-4981436D02*
X922443Y-4962389D01*
X922443Y-4962389D02*
X912920Y-4924293D01*
X912920Y-4924293D02*
X912920Y-4876674D01*
X912920Y-4876674D02*
X922443Y-4838579D01*
X922443Y-4838579D02*
X931967Y-4819531D01*
X931967Y-4819531D02*
X941491Y-4810008D01*
X941491Y-4810008D02*
X960539Y-4800484D01*
X1112920Y-5000484D02*
X1112920Y-4867150D01*
X1112920Y-4886198D02*
X1122444Y-4876674D01*
X1122444Y-4876674D02*
X1141491Y-4867150D01*
X1141491Y-4867150D02*
X1170063Y-4867150D01*
X1170063Y-4867150D02*
X1189110Y-4876674D01*
X1189110Y-4876674D02*
X1198634Y-4895722D01*
X1198634Y-4895722D02*
X1198634Y-5000484D01*
X1198634Y-4895722D02*
X1208158Y-4876674D01*
X1208158Y-4876674D02*
X1227205Y-4867150D01*
X1227205Y-4867150D02*
X1255777Y-4867150D01*
X1255777Y-4867150D02*
X1274825Y-4876674D01*
X1274825Y-4876674D02*
X1284348Y-4895722D01*
X1284348Y-4895722D02*
X1284348Y-5000484D01*
X1379586Y-5000484D02*
X1379586Y-4867150D01*
X1379586Y-4886198D02*
X1389110Y-4876674D01*
X1389110Y-4876674D02*
X1408158Y-4867150D01*
X1408158Y-4867150D02*
X1436729Y-4867150D01*
X1436729Y-4867150D02*
X1455777Y-4876674D01*
X1455777Y-4876674D02*
X1465301Y-4895722D01*
X1465301Y-4895722D02*
X1465301Y-5000484D01*
X1465301Y-4895722D02*
X1474824Y-4876674D01*
X1474824Y-4876674D02*
X1493872Y-4867150D01*
X1493872Y-4867150D02*
X1522443Y-4867150D01*
X1522443Y-4867150D02*
X1541491Y-4876674D01*
X1541491Y-4876674D02*
X1551015Y-4895722D01*
X1551015Y-4895722D02*
X1551015Y-5000484D01*
X1941491Y-4790960D02*
X1770063Y-5048103D01*
X2198634Y-4800484D02*
X2217682Y-4800484D01*
X2217682Y-4800484D02*
X2236729Y-4810008D01*
X2236729Y-4810008D02*
X2246253Y-4819531D01*
X2246253Y-4819531D02*
X2255777Y-4838579D01*
X2255777Y-4838579D02*
X2265301Y-4876674D01*
X2265301Y-4876674D02*
X2265301Y-4924293D01*
X2265301Y-4924293D02*
X2255777Y-4962389D01*
X2255777Y-4962389D02*
X2246253Y-4981436D01*
X2246253Y-4981436D02*
X2236729Y-4990960D01*
X2236729Y-4990960D02*
X2217682Y-5000484D01*
X2217682Y-5000484D02*
X2198634Y-5000484D01*
X2198634Y-5000484D02*
X2179587Y-4990960D01*
X2179587Y-4990960D02*
X2170063Y-4981436D01*
X2170063Y-4981436D02*
X2160539Y-4962389D01*
X2160539Y-4962389D02*
X2151015Y-4924293D01*
X2151015Y-4924293D02*
X2151015Y-4876674D01*
X2151015Y-4876674D02*
X2160539Y-4838579D01*
X2160539Y-4838579D02*
X2170063Y-4819531D01*
X2170063Y-4819531D02*
X2179587Y-4810008D01*
X2179587Y-4810008D02*
X2198634Y-4800484D01*
X2351015Y-4981436D02*
X2360539Y-4990960D01*
X2360539Y-4990960D02*
X2351015Y-5000484D01*
X2351015Y-5000484D02*
X2341491Y-4990960D01*
X2341491Y-4990960D02*
X2351015Y-4981436D01*
X2351015Y-4981436D02*
X2351015Y-5000484D01*
X2484348Y-4800484D02*
X2503396Y-4800484D01*
X2503396Y-4800484D02*
X2522444Y-4810008D01*
X2522444Y-4810008D02*
X2531968Y-4819531D01*
X2531968Y-4819531D02*
X2541491Y-4838579D01*
X2541491Y-4838579D02*
X2551015Y-4876674D01*
X2551015Y-4876674D02*
X2551015Y-4924293D01*
X2551015Y-4924293D02*
X2541491Y-4962389D01*
X2541491Y-4962389D02*
X2531968Y-4981436D01*
X2531968Y-4981436D02*
X2522444Y-4990960D01*
X2522444Y-4990960D02*
X2503396Y-5000484D01*
X2503396Y-5000484D02*
X2484348Y-5000484D01*
X2484348Y-5000484D02*
X2465301Y-4990960D01*
X2465301Y-4990960D02*
X2455777Y-4981436D01*
X2455777Y-4981436D02*
X2446253Y-4962389D01*
X2446253Y-4962389D02*
X2436729Y-4924293D01*
X2436729Y-4924293D02*
X2436729Y-4876674D01*
X2436729Y-4876674D02*
X2446253Y-4838579D01*
X2446253Y-4838579D02*
X2455777Y-4819531D01*
X2455777Y-4819531D02*
X2465301Y-4810008D01*
X2465301Y-4810008D02*
X2484348Y-4800484D01*
X2627206Y-4819531D02*
X2636729Y-4810008D01*
X2636729Y-4810008D02*
X2655777Y-4800484D01*
X2655777Y-4800484D02*
X2703396Y-4800484D01*
X2703396Y-4800484D02*
X2722444Y-4810008D01*
X2722444Y-4810008D02*
X2731968Y-4819531D01*
X2731968Y-4819531D02*
X2741491Y-4838579D01*
X2741491Y-4838579D02*
X2741491Y-4857627D01*
X2741491Y-4857627D02*
X2731968Y-4886198D01*
X2731968Y-4886198D02*
X2617682Y-5000484D01*
X2617682Y-5000484D02*
X2741491Y-5000484D01*
X2922444Y-4800484D02*
X2827206Y-4800484D01*
X2827206Y-4800484D02*
X2817682Y-4895722D01*
X2817682Y-4895722D02*
X2827206Y-4886198D01*
X2827206Y-4886198D02*
X2846253Y-4876674D01*
X2846253Y-4876674D02*
X2893872Y-4876674D01*
X2893872Y-4876674D02*
X2912920Y-4886198D01*
X2912920Y-4886198D02*
X2922444Y-4895722D01*
X2922444Y-4895722D02*
X2931967Y-4914770D01*
X2931967Y-4914770D02*
X2931967Y-4962389D01*
X2931967Y-4962389D02*
X2922444Y-4981436D01*
X2922444Y-4981436D02*
X2912920Y-4990960D01*
X2912920Y-4990960D02*
X2893872Y-5000484D01*
X2893872Y-5000484D02*
X2846253Y-5000484D01*
X2846253Y-5000484D02*
X2827206Y-4990960D01*
X2827206Y-4990960D02*
X2817682Y-4981436D01*
X3103396Y-4800484D02*
X3065301Y-4800484D01*
X3065301Y-4800484D02*
X3046253Y-4810008D01*
X3046253Y-4810008D02*
X3036729Y-4819531D01*
X3036729Y-4819531D02*
X3017682Y-4848103D01*
X3017682Y-4848103D02*
X3008158Y-4886198D01*
X3008158Y-4886198D02*
X3008158Y-4962389D01*
X3008158Y-4962389D02*
X3017682Y-4981436D01*
X3017682Y-4981436D02*
X3027206Y-4990960D01*
X3027206Y-4990960D02*
X3046253Y-5000484D01*
X3046253Y-5000484D02*
X3084348Y-5000484D01*
X3084348Y-5000484D02*
X3103396Y-4990960D01*
X3103396Y-4990960D02*
X3112920Y-4981436D01*
X3112920Y-4981436D02*
X3122444Y-4962389D01*
X3122444Y-4962389D02*
X3122444Y-4914770D01*
X3122444Y-4914770D02*
X3112920Y-4895722D01*
X3112920Y-4895722D02*
X3103396Y-4886198D01*
X3103396Y-4886198D02*
X3084348Y-4876674D01*
X3084348Y-4876674D02*
X3046253Y-4876674D01*
X3046253Y-4876674D02*
X3027206Y-4886198D01*
X3027206Y-4886198D02*
X3017682Y-4895722D01*
X3017682Y-4895722D02*
X3008158Y-4914770D01*
X3198634Y-4800484D02*
X3198634Y-4838579D01*
X3274825Y-4800484D02*
X3274825Y-4838579D01*
X3570063Y-5076674D02*
X3560539Y-5067150D01*
X3560539Y-5067150D02*
X3541491Y-5038579D01*
X3541491Y-5038579D02*
X3531968Y-5019531D01*
X3531968Y-5019531D02*
X3522444Y-4990960D01*
X3522444Y-4990960D02*
X3512920Y-4943341D01*
X3512920Y-4943341D02*
X3512920Y-4905246D01*
X3512920Y-4905246D02*
X3522444Y-4857627D01*
X3522444Y-4857627D02*
X3531968Y-4829055D01*
X3531968Y-4829055D02*
X3541491Y-4810008D01*
X3541491Y-4810008D02*
X3560539Y-4781436D01*
X3560539Y-4781436D02*
X3570063Y-4771912D01*
X3751015Y-5000484D02*
X3636729Y-5000484D01*
X3693872Y-5000484D02*
X3693872Y-4800484D01*
X3693872Y-4800484D02*
X3674825Y-4829055D01*
X3674825Y-4829055D02*
X3655777Y-4848103D01*
X3655777Y-4848103D02*
X3636729Y-4857627D01*
X3827206Y-4819531D02*
X3836729Y-4810008D01*
X3836729Y-4810008D02*
X3855777Y-4800484D01*
X3855777Y-4800484D02*
X3903396Y-4800484D01*
X3903396Y-4800484D02*
X3922444Y-4810008D01*
X3922444Y-4810008D02*
X3931968Y-4819531D01*
X3931968Y-4819531D02*
X3941491Y-4838579D01*
X3941491Y-4838579D02*
X3941491Y-4857627D01*
X3941491Y-4857627D02*
X3931968Y-4886198D01*
X3931968Y-4886198D02*
X3817682Y-5000484D01*
X3817682Y-5000484D02*
X3941491Y-5000484D01*
X4179587Y-5000484D02*
X4179587Y-4800484D01*
X4265301Y-5000484D02*
X4265301Y-4895722D01*
X4265301Y-4895722D02*
X4255777Y-4876674D01*
X4255777Y-4876674D02*
X4236730Y-4867150D01*
X4236730Y-4867150D02*
X4208158Y-4867150D01*
X4208158Y-4867150D02*
X4189110Y-4876674D01*
X4189110Y-4876674D02*
X4179587Y-4886198D01*
X4389111Y-5000484D02*
X4370063Y-4990960D01*
X4370063Y-4990960D02*
X4360539Y-4981436D01*
X4360539Y-4981436D02*
X4351015Y-4962389D01*
X4351015Y-4962389D02*
X4351015Y-4905246D01*
X4351015Y-4905246D02*
X4360539Y-4886198D01*
X4360539Y-4886198D02*
X4370063Y-4876674D01*
X4370063Y-4876674D02*
X4389111Y-4867150D01*
X4389111Y-4867150D02*
X4417682Y-4867150D01*
X4417682Y-4867150D02*
X4436730Y-4876674D01*
X4436730Y-4876674D02*
X4446253Y-4886198D01*
X4446253Y-4886198D02*
X4455777Y-4905246D01*
X4455777Y-4905246D02*
X4455777Y-4962389D01*
X4455777Y-4962389D02*
X4446253Y-4981436D01*
X4446253Y-4981436D02*
X4436730Y-4990960D01*
X4436730Y-4990960D02*
X4417682Y-5000484D01*
X4417682Y-5000484D02*
X4389111Y-5000484D01*
X4570063Y-5000484D02*
X4551015Y-4990960D01*
X4551015Y-4990960D02*
X4541492Y-4971912D01*
X4541492Y-4971912D02*
X4541492Y-4800484D01*
X4722444Y-4990960D02*
X4703396Y-5000484D01*
X4703396Y-5000484D02*
X4665301Y-5000484D01*
X4665301Y-5000484D02*
X4646253Y-4990960D01*
X4646253Y-4990960D02*
X4636730Y-4971912D01*
X4636730Y-4971912D02*
X4636730Y-4895722D01*
X4636730Y-4895722D02*
X4646253Y-4876674D01*
X4646253Y-4876674D02*
X4665301Y-4867150D01*
X4665301Y-4867150D02*
X4703396Y-4867150D01*
X4703396Y-4867150D02*
X4722444Y-4876674D01*
X4722444Y-4876674D02*
X4731968Y-4895722D01*
X4731968Y-4895722D02*
X4731968Y-4914770D01*
X4731968Y-4914770D02*
X4636730Y-4933817D01*
X4808158Y-4990960D02*
X4827206Y-5000484D01*
X4827206Y-5000484D02*
X4865301Y-5000484D01*
X4865301Y-5000484D02*
X4884349Y-4990960D01*
X4884349Y-4990960D02*
X4893873Y-4971912D01*
X4893873Y-4971912D02*
X4893873Y-4962389D01*
X4893873Y-4962389D02*
X4884349Y-4943341D01*
X4884349Y-4943341D02*
X4865301Y-4933817D01*
X4865301Y-4933817D02*
X4836730Y-4933817D01*
X4836730Y-4933817D02*
X4817682Y-4924293D01*
X4817682Y-4924293D02*
X4808158Y-4905246D01*
X4808158Y-4905246D02*
X4808158Y-4895722D01*
X4808158Y-4895722D02*
X4817682Y-4876674D01*
X4817682Y-4876674D02*
X4836730Y-4867150D01*
X4836730Y-4867150D02*
X4865301Y-4867150D01*
X4865301Y-4867150D02*
X4884349Y-4876674D01*
X4960539Y-5076674D02*
X4970063Y-5067150D01*
X4970063Y-5067150D02*
X4989111Y-5038579D01*
X4989111Y-5038579D02*
X4998634Y-5019531D01*
X4998634Y-5019531D02*
X5008158Y-4990960D01*
X5008158Y-4990960D02*
X5017682Y-4943341D01*
X5017682Y-4943341D02*
X5017682Y-4905246D01*
X5017682Y-4905246D02*
X5008158Y-4857627D01*
X5008158Y-4857627D02*
X4998634Y-4829055D01*
X4998634Y-4829055D02*
X4989111Y-4810008D01*
X4989111Y-4810008D02*
X4970063Y-4781436D01*
X4970063Y-4781436D02*
X4960539Y-4771912D01*
D10*
X-40000Y-5138000D02*
X-40000Y-5208000D01*
X-75000Y-5173000D02*
X-5000Y-5173000D01*
D11*
X293872Y-5064484D02*
X312920Y-5064484D01*
X312920Y-5064484D02*
X331967Y-5074008D01*
X331967Y-5074008D02*
X341491Y-5083531D01*
X341491Y-5083531D02*
X351015Y-5102579D01*
X351015Y-5102579D02*
X360539Y-5140674D01*
X360539Y-5140674D02*
X360539Y-5188293D01*
X360539Y-5188293D02*
X351015Y-5226389D01*
X351015Y-5226389D02*
X341491Y-5245436D01*
X341491Y-5245436D02*
X331967Y-5254960D01*
X331967Y-5254960D02*
X312920Y-5264484D01*
X312920Y-5264484D02*
X293872Y-5264484D01*
X293872Y-5264484D02*
X274824Y-5254960D01*
X274824Y-5254960D02*
X265301Y-5245436D01*
X265301Y-5245436D02*
X255777Y-5226389D01*
X255777Y-5226389D02*
X246253Y-5188293D01*
X246253Y-5188293D02*
X246253Y-5140674D01*
X246253Y-5140674D02*
X255777Y-5102579D01*
X255777Y-5102579D02*
X265301Y-5083531D01*
X265301Y-5083531D02*
X274824Y-5074008D01*
X274824Y-5074008D02*
X293872Y-5064484D01*
X446253Y-5245436D02*
X455777Y-5254960D01*
X455777Y-5254960D02*
X446253Y-5264484D01*
X446253Y-5264484D02*
X436729Y-5254960D01*
X436729Y-5254960D02*
X446253Y-5245436D01*
X446253Y-5245436D02*
X446253Y-5264484D01*
X522443Y-5064484D02*
X655777Y-5064484D01*
X655777Y-5064484D02*
X570063Y-5264484D01*
X770062Y-5064484D02*
X789110Y-5064484D01*
X789110Y-5064484D02*
X808158Y-5074008D01*
X808158Y-5074008D02*
X817682Y-5083531D01*
X817682Y-5083531D02*
X827205Y-5102579D01*
X827205Y-5102579D02*
X836729Y-5140674D01*
X836729Y-5140674D02*
X836729Y-5188293D01*
X836729Y-5188293D02*
X827205Y-5226389D01*
X827205Y-5226389D02*
X817682Y-5245436D01*
X817682Y-5245436D02*
X808158Y-5254960D01*
X808158Y-5254960D02*
X789110Y-5264484D01*
X789110Y-5264484D02*
X770062Y-5264484D01*
X770062Y-5264484D02*
X751015Y-5254960D01*
X751015Y-5254960D02*
X741491Y-5245436D01*
X741491Y-5245436D02*
X731967Y-5226389D01*
X731967Y-5226389D02*
X722443Y-5188293D01*
X722443Y-5188293D02*
X722443Y-5140674D01*
X722443Y-5140674D02*
X731967Y-5102579D01*
X731967Y-5102579D02*
X741491Y-5083531D01*
X741491Y-5083531D02*
X751015Y-5074008D01*
X751015Y-5074008D02*
X770062Y-5064484D01*
X960539Y-5064484D02*
X979586Y-5064484D01*
X979586Y-5064484D02*
X998634Y-5074008D01*
X998634Y-5074008D02*
X1008158Y-5083531D01*
X1008158Y-5083531D02*
X1017682Y-5102579D01*
X1017682Y-5102579D02*
X1027205Y-5140674D01*
X1027205Y-5140674D02*
X1027205Y-5188293D01*
X1027205Y-5188293D02*
X1017682Y-5226389D01*
X1017682Y-5226389D02*
X1008158Y-5245436D01*
X1008158Y-5245436D02*
X998634Y-5254960D01*
X998634Y-5254960D02*
X979586Y-5264484D01*
X979586Y-5264484D02*
X960539Y-5264484D01*
X960539Y-5264484D02*
X941491Y-5254960D01*
X941491Y-5254960D02*
X931967Y-5245436D01*
X931967Y-5245436D02*
X922443Y-5226389D01*
X922443Y-5226389D02*
X912920Y-5188293D01*
X912920Y-5188293D02*
X912920Y-5140674D01*
X912920Y-5140674D02*
X922443Y-5102579D01*
X922443Y-5102579D02*
X931967Y-5083531D01*
X931967Y-5083531D02*
X941491Y-5074008D01*
X941491Y-5074008D02*
X960539Y-5064484D01*
X1112920Y-5264484D02*
X1112920Y-5131150D01*
X1112920Y-5150198D02*
X1122444Y-5140674D01*
X1122444Y-5140674D02*
X1141491Y-5131150D01*
X1141491Y-5131150D02*
X1170063Y-5131150D01*
X1170063Y-5131150D02*
X1189110Y-5140674D01*
X1189110Y-5140674D02*
X1198634Y-5159722D01*
X1198634Y-5159722D02*
X1198634Y-5264484D01*
X1198634Y-5159722D02*
X1208158Y-5140674D01*
X1208158Y-5140674D02*
X1227205Y-5131150D01*
X1227205Y-5131150D02*
X1255777Y-5131150D01*
X1255777Y-5131150D02*
X1274825Y-5140674D01*
X1274825Y-5140674D02*
X1284348Y-5159722D01*
X1284348Y-5159722D02*
X1284348Y-5264484D01*
X1379586Y-5264484D02*
X1379586Y-5131150D01*
X1379586Y-5150198D02*
X1389110Y-5140674D01*
X1389110Y-5140674D02*
X1408158Y-5131150D01*
X1408158Y-5131150D02*
X1436729Y-5131150D01*
X1436729Y-5131150D02*
X1455777Y-5140674D01*
X1455777Y-5140674D02*
X1465301Y-5159722D01*
X1465301Y-5159722D02*
X1465301Y-5264484D01*
X1465301Y-5159722D02*
X1474824Y-5140674D01*
X1474824Y-5140674D02*
X1493872Y-5131150D01*
X1493872Y-5131150D02*
X1522443Y-5131150D01*
X1522443Y-5131150D02*
X1541491Y-5140674D01*
X1541491Y-5140674D02*
X1551015Y-5159722D01*
X1551015Y-5159722D02*
X1551015Y-5264484D01*
X1941491Y-5054960D02*
X1770063Y-5312103D01*
X2198634Y-5064484D02*
X2217682Y-5064484D01*
X2217682Y-5064484D02*
X2236729Y-5074008D01*
X2236729Y-5074008D02*
X2246253Y-5083531D01*
X2246253Y-5083531D02*
X2255777Y-5102579D01*
X2255777Y-5102579D02*
X2265301Y-5140674D01*
X2265301Y-5140674D02*
X2265301Y-5188293D01*
X2265301Y-5188293D02*
X2255777Y-5226389D01*
X2255777Y-5226389D02*
X2246253Y-5245436D01*
X2246253Y-5245436D02*
X2236729Y-5254960D01*
X2236729Y-5254960D02*
X2217682Y-5264484D01*
X2217682Y-5264484D02*
X2198634Y-5264484D01*
X2198634Y-5264484D02*
X2179587Y-5254960D01*
X2179587Y-5254960D02*
X2170063Y-5245436D01*
X2170063Y-5245436D02*
X2160539Y-5226389D01*
X2160539Y-5226389D02*
X2151015Y-5188293D01*
X2151015Y-5188293D02*
X2151015Y-5140674D01*
X2151015Y-5140674D02*
X2160539Y-5102579D01*
X2160539Y-5102579D02*
X2170063Y-5083531D01*
X2170063Y-5083531D02*
X2179587Y-5074008D01*
X2179587Y-5074008D02*
X2198634Y-5064484D01*
X2351015Y-5245436D02*
X2360539Y-5254960D01*
X2360539Y-5254960D02*
X2351015Y-5264484D01*
X2351015Y-5264484D02*
X2341491Y-5254960D01*
X2341491Y-5254960D02*
X2351015Y-5245436D01*
X2351015Y-5245436D02*
X2351015Y-5264484D01*
X2484348Y-5064484D02*
X2503396Y-5064484D01*
X2503396Y-5064484D02*
X2522444Y-5074008D01*
X2522444Y-5074008D02*
X2531968Y-5083531D01*
X2531968Y-5083531D02*
X2541491Y-5102579D01*
X2541491Y-5102579D02*
X2551015Y-5140674D01*
X2551015Y-5140674D02*
X2551015Y-5188293D01*
X2551015Y-5188293D02*
X2541491Y-5226389D01*
X2541491Y-5226389D02*
X2531968Y-5245436D01*
X2531968Y-5245436D02*
X2522444Y-5254960D01*
X2522444Y-5254960D02*
X2503396Y-5264484D01*
X2503396Y-5264484D02*
X2484348Y-5264484D01*
X2484348Y-5264484D02*
X2465301Y-5254960D01*
X2465301Y-5254960D02*
X2455777Y-5245436D01*
X2455777Y-5245436D02*
X2446253Y-5226389D01*
X2446253Y-5226389D02*
X2436729Y-5188293D01*
X2436729Y-5188293D02*
X2436729Y-5140674D01*
X2436729Y-5140674D02*
X2446253Y-5102579D01*
X2446253Y-5102579D02*
X2455777Y-5083531D01*
X2455777Y-5083531D02*
X2465301Y-5074008D01*
X2465301Y-5074008D02*
X2484348Y-5064484D01*
X2627206Y-5083531D02*
X2636729Y-5074008D01*
X2636729Y-5074008D02*
X2655777Y-5064484D01*
X2655777Y-5064484D02*
X2703396Y-5064484D01*
X2703396Y-5064484D02*
X2722444Y-5074008D01*
X2722444Y-5074008D02*
X2731968Y-5083531D01*
X2731968Y-5083531D02*
X2741491Y-5102579D01*
X2741491Y-5102579D02*
X2741491Y-5121627D01*
X2741491Y-5121627D02*
X2731968Y-5150198D01*
X2731968Y-5150198D02*
X2617682Y-5264484D01*
X2617682Y-5264484D02*
X2741491Y-5264484D01*
X2808158Y-5064484D02*
X2941491Y-5064484D01*
X2941491Y-5064484D02*
X2855777Y-5264484D01*
X3103396Y-5064484D02*
X3065301Y-5064484D01*
X3065301Y-5064484D02*
X3046253Y-5074008D01*
X3046253Y-5074008D02*
X3036729Y-5083531D01*
X3036729Y-5083531D02*
X3017682Y-5112103D01*
X3017682Y-5112103D02*
X3008158Y-5150198D01*
X3008158Y-5150198D02*
X3008158Y-5226389D01*
X3008158Y-5226389D02*
X3017682Y-5245436D01*
X3017682Y-5245436D02*
X3027206Y-5254960D01*
X3027206Y-5254960D02*
X3046253Y-5264484D01*
X3046253Y-5264484D02*
X3084348Y-5264484D01*
X3084348Y-5264484D02*
X3103396Y-5254960D01*
X3103396Y-5254960D02*
X3112920Y-5245436D01*
X3112920Y-5245436D02*
X3122444Y-5226389D01*
X3122444Y-5226389D02*
X3122444Y-5178770D01*
X3122444Y-5178770D02*
X3112920Y-5159722D01*
X3112920Y-5159722D02*
X3103396Y-5150198D01*
X3103396Y-5150198D02*
X3084348Y-5140674D01*
X3084348Y-5140674D02*
X3046253Y-5140674D01*
X3046253Y-5140674D02*
X3027206Y-5150198D01*
X3027206Y-5150198D02*
X3017682Y-5159722D01*
X3017682Y-5159722D02*
X3008158Y-5178770D01*
X3198634Y-5064484D02*
X3198634Y-5102579D01*
X3274825Y-5064484D02*
X3274825Y-5102579D01*
X3570063Y-5340674D02*
X3560539Y-5331150D01*
X3560539Y-5331150D02*
X3541491Y-5302579D01*
X3541491Y-5302579D02*
X3531968Y-5283531D01*
X3531968Y-5283531D02*
X3522444Y-5254960D01*
X3522444Y-5254960D02*
X3512920Y-5207341D01*
X3512920Y-5207341D02*
X3512920Y-5169246D01*
X3512920Y-5169246D02*
X3522444Y-5121627D01*
X3522444Y-5121627D02*
X3531968Y-5093055D01*
X3531968Y-5093055D02*
X3541491Y-5074008D01*
X3541491Y-5074008D02*
X3560539Y-5045436D01*
X3560539Y-5045436D02*
X3570063Y-5035912D01*
X3684348Y-5064484D02*
X3703396Y-5064484D01*
X3703396Y-5064484D02*
X3722444Y-5074008D01*
X3722444Y-5074008D02*
X3731968Y-5083531D01*
X3731968Y-5083531D02*
X3741491Y-5102579D01*
X3741491Y-5102579D02*
X3751015Y-5140674D01*
X3751015Y-5140674D02*
X3751015Y-5188293D01*
X3751015Y-5188293D02*
X3741491Y-5226389D01*
X3741491Y-5226389D02*
X3731968Y-5245436D01*
X3731968Y-5245436D02*
X3722444Y-5254960D01*
X3722444Y-5254960D02*
X3703396Y-5264484D01*
X3703396Y-5264484D02*
X3684348Y-5264484D01*
X3684348Y-5264484D02*
X3665301Y-5254960D01*
X3665301Y-5254960D02*
X3655777Y-5245436D01*
X3655777Y-5245436D02*
X3646253Y-5226389D01*
X3646253Y-5226389D02*
X3636729Y-5188293D01*
X3636729Y-5188293D02*
X3636729Y-5140674D01*
X3636729Y-5140674D02*
X3646253Y-5102579D01*
X3646253Y-5102579D02*
X3655777Y-5083531D01*
X3655777Y-5083531D02*
X3665301Y-5074008D01*
X3665301Y-5074008D02*
X3684348Y-5064484D01*
X3989110Y-5264484D02*
X3989110Y-5064484D01*
X4074825Y-5264484D02*
X4074825Y-5159722D01*
X4074825Y-5159722D02*
X4065301Y-5140674D01*
X4065301Y-5140674D02*
X4046253Y-5131150D01*
X4046253Y-5131150D02*
X4017682Y-5131150D01*
X4017682Y-5131150D02*
X3998634Y-5140674D01*
X3998634Y-5140674D02*
X3989110Y-5150198D01*
X4198634Y-5264484D02*
X4179587Y-5254960D01*
X4179587Y-5254960D02*
X4170063Y-5245436D01*
X4170063Y-5245436D02*
X4160539Y-5226389D01*
X4160539Y-5226389D02*
X4160539Y-5169246D01*
X4160539Y-5169246D02*
X4170063Y-5150198D01*
X4170063Y-5150198D02*
X4179587Y-5140674D01*
X4179587Y-5140674D02*
X4198634Y-5131150D01*
X4198634Y-5131150D02*
X4227206Y-5131150D01*
X4227206Y-5131150D02*
X4246253Y-5140674D01*
X4246253Y-5140674D02*
X4255777Y-5150198D01*
X4255777Y-5150198D02*
X4265301Y-5169246D01*
X4265301Y-5169246D02*
X4265301Y-5226389D01*
X4265301Y-5226389D02*
X4255777Y-5245436D01*
X4255777Y-5245436D02*
X4246253Y-5254960D01*
X4246253Y-5254960D02*
X4227206Y-5264484D01*
X4227206Y-5264484D02*
X4198634Y-5264484D01*
X4379587Y-5264484D02*
X4360539Y-5254960D01*
X4360539Y-5254960D02*
X4351015Y-5235912D01*
X4351015Y-5235912D02*
X4351015Y-5064484D01*
X4531968Y-5254960D02*
X4512920Y-5264484D01*
X4512920Y-5264484D02*
X4474825Y-5264484D01*
X4474825Y-5264484D02*
X4455777Y-5254960D01*
X4455777Y-5254960D02*
X4446253Y-5235912D01*
X4446253Y-5235912D02*
X4446253Y-5159722D01*
X4446253Y-5159722D02*
X4455777Y-5140674D01*
X4455777Y-5140674D02*
X4474825Y-5131150D01*
X4474825Y-5131150D02*
X4512920Y-5131150D01*
X4512920Y-5131150D02*
X4531968Y-5140674D01*
X4531968Y-5140674D02*
X4541492Y-5159722D01*
X4541492Y-5159722D02*
X4541492Y-5178770D01*
X4541492Y-5178770D02*
X4446253Y-5197817D01*
X4617682Y-5254960D02*
X4636730Y-5264484D01*
X4636730Y-5264484D02*
X4674825Y-5264484D01*
X4674825Y-5264484D02*
X4693873Y-5254960D01*
X4693873Y-5254960D02*
X4703396Y-5235912D01*
X4703396Y-5235912D02*
X4703396Y-5226389D01*
X4703396Y-5226389D02*
X4693873Y-5207341D01*
X4693873Y-5207341D02*
X4674825Y-5197817D01*
X4674825Y-5197817D02*
X4646253Y-5197817D01*
X4646253Y-5197817D02*
X4627206Y-5188293D01*
X4627206Y-5188293D02*
X4617682Y-5169246D01*
X4617682Y-5169246D02*
X4617682Y-5159722D01*
X4617682Y-5159722D02*
X4627206Y-5140674D01*
X4627206Y-5140674D02*
X4646253Y-5131150D01*
X4646253Y-5131150D02*
X4674825Y-5131150D01*
X4674825Y-5131150D02*
X4693873Y-5140674D01*
X4941492Y-5188293D02*
X5093873Y-5188293D01*
X5017682Y-5264484D02*
X5017682Y-5112103D01*
X5427206Y-5131150D02*
X5427206Y-5264484D01*
X5379587Y-5054960D02*
X5331968Y-5197817D01*
X5331968Y-5197817D02*
X5455777Y-5197817D01*
X5674825Y-5254960D02*
X5693873Y-5264484D01*
X5693873Y-5264484D02*
X5731968Y-5264484D01*
X5731968Y-5264484D02*
X5751015Y-5254960D01*
X5751015Y-5254960D02*
X5760539Y-5235912D01*
X5760539Y-5235912D02*
X5760539Y-5226389D01*
X5760539Y-5226389D02*
X5751015Y-5207341D01*
X5751015Y-5207341D02*
X5731968Y-5197817D01*
X5731968Y-5197817D02*
X5703396Y-5197817D01*
X5703396Y-5197817D02*
X5684349Y-5188293D01*
X5684349Y-5188293D02*
X5674825Y-5169246D01*
X5674825Y-5169246D02*
X5674825Y-5159722D01*
X5674825Y-5159722D02*
X5684349Y-5140674D01*
X5684349Y-5140674D02*
X5703396Y-5131150D01*
X5703396Y-5131150D02*
X5731968Y-5131150D01*
X5731968Y-5131150D02*
X5751015Y-5140674D01*
X5874825Y-5264484D02*
X5855777Y-5254960D01*
X5855777Y-5254960D02*
X5846254Y-5235912D01*
X5846254Y-5235912D02*
X5846254Y-5064484D01*
X5979587Y-5264484D02*
X5960539Y-5254960D01*
X5960539Y-5254960D02*
X5951015Y-5245436D01*
X5951015Y-5245436D02*
X5941492Y-5226389D01*
X5941492Y-5226389D02*
X5941492Y-5169246D01*
X5941492Y-5169246D02*
X5951015Y-5150198D01*
X5951015Y-5150198D02*
X5960539Y-5140674D01*
X5960539Y-5140674D02*
X5979587Y-5131150D01*
X5979587Y-5131150D02*
X6008158Y-5131150D01*
X6008158Y-5131150D02*
X6027206Y-5140674D01*
X6027206Y-5140674D02*
X6036730Y-5150198D01*
X6036730Y-5150198D02*
X6046254Y-5169246D01*
X6046254Y-5169246D02*
X6046254Y-5226389D01*
X6046254Y-5226389D02*
X6036730Y-5245436D01*
X6036730Y-5245436D02*
X6027206Y-5254960D01*
X6027206Y-5254960D02*
X6008158Y-5264484D01*
X6008158Y-5264484D02*
X5979587Y-5264484D01*
X6103396Y-5131150D02*
X6179587Y-5131150D01*
X6131968Y-5064484D02*
X6131968Y-5235912D01*
X6131968Y-5235912D02*
X6141492Y-5254960D01*
X6141492Y-5254960D02*
X6160539Y-5264484D01*
X6160539Y-5264484D02*
X6179587Y-5264484D01*
X6236730Y-5254960D02*
X6255777Y-5264484D01*
X6255777Y-5264484D02*
X6293873Y-5264484D01*
X6293873Y-5264484D02*
X6312920Y-5254960D01*
X6312920Y-5254960D02*
X6322444Y-5235912D01*
X6322444Y-5235912D02*
X6322444Y-5226389D01*
X6322444Y-5226389D02*
X6312920Y-5207341D01*
X6312920Y-5207341D02*
X6293873Y-5197817D01*
X6293873Y-5197817D02*
X6265301Y-5197817D01*
X6265301Y-5197817D02*
X6246254Y-5188293D01*
X6246254Y-5188293D02*
X6236730Y-5169246D01*
X6236730Y-5169246D02*
X6236730Y-5159722D01*
X6236730Y-5159722D02*
X6246254Y-5140674D01*
X6246254Y-5140674D02*
X6265301Y-5131150D01*
X6265301Y-5131150D02*
X6293873Y-5131150D01*
X6293873Y-5131150D02*
X6312920Y-5140674D01*
X6389111Y-5340674D02*
X6398635Y-5331150D01*
X6398635Y-5331150D02*
X6417682Y-5302579D01*
X6417682Y-5302579D02*
X6427206Y-5283531D01*
X6427206Y-5283531D02*
X6436730Y-5254960D01*
X6436730Y-5254960D02*
X6446254Y-5207341D01*
X6446254Y-5207341D02*
X6446254Y-5169246D01*
X6446254Y-5169246D02*
X6436730Y-5121627D01*
X6436730Y-5121627D02*
X6427206Y-5093055D01*
X6427206Y-5093055D02*
X6417682Y-5074008D01*
X6417682Y-5074008D02*
X6398635Y-5045436D01*
X6398635Y-5045436D02*
X6389111Y-5035912D01*
D10*
X-19644Y-5472356D02*
X-19644Y-5401644D01*
X-90356Y-5401644D01*
X-90356Y-5472356D01*
X-19644Y-5472356D01*
D11*
X360539Y-5528484D02*
X246253Y-5528484D01*
X303396Y-5528484D02*
X303396Y-5328484D01*
X303396Y-5328484D02*
X284348Y-5357055D01*
X284348Y-5357055D02*
X265301Y-5376103D01*
X265301Y-5376103D02*
X246253Y-5385627D01*
X446253Y-5509436D02*
X455777Y-5518960D01*
X455777Y-5518960D02*
X446253Y-5528484D01*
X446253Y-5528484D02*
X436729Y-5518960D01*
X436729Y-5518960D02*
X446253Y-5509436D01*
X446253Y-5509436D02*
X446253Y-5528484D01*
X579586Y-5328484D02*
X598634Y-5328484D01*
X598634Y-5328484D02*
X617682Y-5338008D01*
X617682Y-5338008D02*
X627205Y-5347531D01*
X627205Y-5347531D02*
X636729Y-5366579D01*
X636729Y-5366579D02*
X646253Y-5404674D01*
X646253Y-5404674D02*
X646253Y-5452293D01*
X646253Y-5452293D02*
X636729Y-5490389D01*
X636729Y-5490389D02*
X627205Y-5509436D01*
X627205Y-5509436D02*
X617682Y-5518960D01*
X617682Y-5518960D02*
X598634Y-5528484D01*
X598634Y-5528484D02*
X579586Y-5528484D01*
X579586Y-5528484D02*
X560539Y-5518960D01*
X560539Y-5518960D02*
X551015Y-5509436D01*
X551015Y-5509436D02*
X541491Y-5490389D01*
X541491Y-5490389D02*
X531967Y-5452293D01*
X531967Y-5452293D02*
X531967Y-5404674D01*
X531967Y-5404674D02*
X541491Y-5366579D01*
X541491Y-5366579D02*
X551015Y-5347531D01*
X551015Y-5347531D02*
X560539Y-5338008D01*
X560539Y-5338008D02*
X579586Y-5328484D01*
X770062Y-5328484D02*
X789110Y-5328484D01*
X789110Y-5328484D02*
X808158Y-5338008D01*
X808158Y-5338008D02*
X817682Y-5347531D01*
X817682Y-5347531D02*
X827205Y-5366579D01*
X827205Y-5366579D02*
X836729Y-5404674D01*
X836729Y-5404674D02*
X836729Y-5452293D01*
X836729Y-5452293D02*
X827205Y-5490389D01*
X827205Y-5490389D02*
X817682Y-5509436D01*
X817682Y-5509436D02*
X808158Y-5518960D01*
X808158Y-5518960D02*
X789110Y-5528484D01*
X789110Y-5528484D02*
X770062Y-5528484D01*
X770062Y-5528484D02*
X751015Y-5518960D01*
X751015Y-5518960D02*
X741491Y-5509436D01*
X741491Y-5509436D02*
X731967Y-5490389D01*
X731967Y-5490389D02*
X722443Y-5452293D01*
X722443Y-5452293D02*
X722443Y-5404674D01*
X722443Y-5404674D02*
X731967Y-5366579D01*
X731967Y-5366579D02*
X741491Y-5347531D01*
X741491Y-5347531D02*
X751015Y-5338008D01*
X751015Y-5338008D02*
X770062Y-5328484D01*
X960539Y-5328484D02*
X979586Y-5328484D01*
X979586Y-5328484D02*
X998634Y-5338008D01*
X998634Y-5338008D02*
X1008158Y-5347531D01*
X1008158Y-5347531D02*
X1017682Y-5366579D01*
X1017682Y-5366579D02*
X1027205Y-5404674D01*
X1027205Y-5404674D02*
X1027205Y-5452293D01*
X1027205Y-5452293D02*
X1017682Y-5490389D01*
X1017682Y-5490389D02*
X1008158Y-5509436D01*
X1008158Y-5509436D02*
X998634Y-5518960D01*
X998634Y-5518960D02*
X979586Y-5528484D01*
X979586Y-5528484D02*
X960539Y-5528484D01*
X960539Y-5528484D02*
X941491Y-5518960D01*
X941491Y-5518960D02*
X931967Y-5509436D01*
X931967Y-5509436D02*
X922443Y-5490389D01*
X922443Y-5490389D02*
X912920Y-5452293D01*
X912920Y-5452293D02*
X912920Y-5404674D01*
X912920Y-5404674D02*
X922443Y-5366579D01*
X922443Y-5366579D02*
X931967Y-5347531D01*
X931967Y-5347531D02*
X941491Y-5338008D01*
X941491Y-5338008D02*
X960539Y-5328484D01*
X1112920Y-5528484D02*
X1112920Y-5395150D01*
X1112920Y-5414198D02*
X1122444Y-5404674D01*
X1122444Y-5404674D02*
X1141491Y-5395150D01*
X1141491Y-5395150D02*
X1170063Y-5395150D01*
X1170063Y-5395150D02*
X1189110Y-5404674D01*
X1189110Y-5404674D02*
X1198634Y-5423722D01*
X1198634Y-5423722D02*
X1198634Y-5528484D01*
X1198634Y-5423722D02*
X1208158Y-5404674D01*
X1208158Y-5404674D02*
X1227205Y-5395150D01*
X1227205Y-5395150D02*
X1255777Y-5395150D01*
X1255777Y-5395150D02*
X1274825Y-5404674D01*
X1274825Y-5404674D02*
X1284348Y-5423722D01*
X1284348Y-5423722D02*
X1284348Y-5528484D01*
X1379586Y-5528484D02*
X1379586Y-5395150D01*
X1379586Y-5414198D02*
X1389110Y-5404674D01*
X1389110Y-5404674D02*
X1408158Y-5395150D01*
X1408158Y-5395150D02*
X1436729Y-5395150D01*
X1436729Y-5395150D02*
X1455777Y-5404674D01*
X1455777Y-5404674D02*
X1465301Y-5423722D01*
X1465301Y-5423722D02*
X1465301Y-5528484D01*
X1465301Y-5423722D02*
X1474824Y-5404674D01*
X1474824Y-5404674D02*
X1493872Y-5395150D01*
X1493872Y-5395150D02*
X1522443Y-5395150D01*
X1522443Y-5395150D02*
X1541491Y-5404674D01*
X1541491Y-5404674D02*
X1551015Y-5423722D01*
X1551015Y-5423722D02*
X1551015Y-5528484D01*
X1941491Y-5318960D02*
X1770063Y-5576103D01*
X2198634Y-5328484D02*
X2217682Y-5328484D01*
X2217682Y-5328484D02*
X2236729Y-5338008D01*
X2236729Y-5338008D02*
X2246253Y-5347531D01*
X2246253Y-5347531D02*
X2255777Y-5366579D01*
X2255777Y-5366579D02*
X2265301Y-5404674D01*
X2265301Y-5404674D02*
X2265301Y-5452293D01*
X2265301Y-5452293D02*
X2255777Y-5490389D01*
X2255777Y-5490389D02*
X2246253Y-5509436D01*
X2246253Y-5509436D02*
X2236729Y-5518960D01*
X2236729Y-5518960D02*
X2217682Y-5528484D01*
X2217682Y-5528484D02*
X2198634Y-5528484D01*
X2198634Y-5528484D02*
X2179587Y-5518960D01*
X2179587Y-5518960D02*
X2170063Y-5509436D01*
X2170063Y-5509436D02*
X2160539Y-5490389D01*
X2160539Y-5490389D02*
X2151015Y-5452293D01*
X2151015Y-5452293D02*
X2151015Y-5404674D01*
X2151015Y-5404674D02*
X2160539Y-5366579D01*
X2160539Y-5366579D02*
X2170063Y-5347531D01*
X2170063Y-5347531D02*
X2179587Y-5338008D01*
X2179587Y-5338008D02*
X2198634Y-5328484D01*
X2351015Y-5509436D02*
X2360539Y-5518960D01*
X2360539Y-5518960D02*
X2351015Y-5528484D01*
X2351015Y-5528484D02*
X2341491Y-5518960D01*
X2341491Y-5518960D02*
X2351015Y-5509436D01*
X2351015Y-5509436D02*
X2351015Y-5528484D01*
X2484348Y-5328484D02*
X2503396Y-5328484D01*
X2503396Y-5328484D02*
X2522444Y-5338008D01*
X2522444Y-5338008D02*
X2531968Y-5347531D01*
X2531968Y-5347531D02*
X2541491Y-5366579D01*
X2541491Y-5366579D02*
X2551015Y-5404674D01*
X2551015Y-5404674D02*
X2551015Y-5452293D01*
X2551015Y-5452293D02*
X2541491Y-5490389D01*
X2541491Y-5490389D02*
X2531968Y-5509436D01*
X2531968Y-5509436D02*
X2522444Y-5518960D01*
X2522444Y-5518960D02*
X2503396Y-5528484D01*
X2503396Y-5528484D02*
X2484348Y-5528484D01*
X2484348Y-5528484D02*
X2465301Y-5518960D01*
X2465301Y-5518960D02*
X2455777Y-5509436D01*
X2455777Y-5509436D02*
X2446253Y-5490389D01*
X2446253Y-5490389D02*
X2436729Y-5452293D01*
X2436729Y-5452293D02*
X2436729Y-5404674D01*
X2436729Y-5404674D02*
X2446253Y-5366579D01*
X2446253Y-5366579D02*
X2455777Y-5347531D01*
X2455777Y-5347531D02*
X2465301Y-5338008D01*
X2465301Y-5338008D02*
X2484348Y-5328484D01*
X2617682Y-5328484D02*
X2741491Y-5328484D01*
X2741491Y-5328484D02*
X2674825Y-5404674D01*
X2674825Y-5404674D02*
X2703396Y-5404674D01*
X2703396Y-5404674D02*
X2722444Y-5414198D01*
X2722444Y-5414198D02*
X2731968Y-5423722D01*
X2731968Y-5423722D02*
X2741491Y-5442770D01*
X2741491Y-5442770D02*
X2741491Y-5490389D01*
X2741491Y-5490389D02*
X2731968Y-5509436D01*
X2731968Y-5509436D02*
X2722444Y-5518960D01*
X2722444Y-5518960D02*
X2703396Y-5528484D01*
X2703396Y-5528484D02*
X2646253Y-5528484D01*
X2646253Y-5528484D02*
X2627206Y-5518960D01*
X2627206Y-5518960D02*
X2617682Y-5509436D01*
X2836729Y-5528484D02*
X2874825Y-5528484D01*
X2874825Y-5528484D02*
X2893872Y-5518960D01*
X2893872Y-5518960D02*
X2903396Y-5509436D01*
X2903396Y-5509436D02*
X2922444Y-5480865D01*
X2922444Y-5480865D02*
X2931967Y-5442770D01*
X2931967Y-5442770D02*
X2931967Y-5366579D01*
X2931967Y-5366579D02*
X2922444Y-5347531D01*
X2922444Y-5347531D02*
X2912920Y-5338008D01*
X2912920Y-5338008D02*
X2893872Y-5328484D01*
X2893872Y-5328484D02*
X2855777Y-5328484D01*
X2855777Y-5328484D02*
X2836729Y-5338008D01*
X2836729Y-5338008D02*
X2827206Y-5347531D01*
X2827206Y-5347531D02*
X2817682Y-5366579D01*
X2817682Y-5366579D02*
X2817682Y-5414198D01*
X2817682Y-5414198D02*
X2827206Y-5433246D01*
X2827206Y-5433246D02*
X2836729Y-5442770D01*
X2836729Y-5442770D02*
X2855777Y-5452293D01*
X2855777Y-5452293D02*
X2893872Y-5452293D01*
X2893872Y-5452293D02*
X2912920Y-5442770D01*
X2912920Y-5442770D02*
X2922444Y-5433246D01*
X2922444Y-5433246D02*
X2931967Y-5414198D01*
X3103396Y-5395150D02*
X3103396Y-5528484D01*
X3055777Y-5318960D02*
X3008158Y-5461817D01*
X3008158Y-5461817D02*
X3131967Y-5461817D01*
X3198634Y-5328484D02*
X3198634Y-5366579D01*
X3274825Y-5328484D02*
X3274825Y-5366579D01*
X3570063Y-5604674D02*
X3560539Y-5595150D01*
X3560539Y-5595150D02*
X3541491Y-5566579D01*
X3541491Y-5566579D02*
X3531968Y-5547531D01*
X3531968Y-5547531D02*
X3522444Y-5518960D01*
X3522444Y-5518960D02*
X3512920Y-5471341D01*
X3512920Y-5471341D02*
X3512920Y-5433246D01*
X3512920Y-5433246D02*
X3522444Y-5385627D01*
X3522444Y-5385627D02*
X3531968Y-5357055D01*
X3531968Y-5357055D02*
X3541491Y-5338008D01*
X3541491Y-5338008D02*
X3560539Y-5309436D01*
X3560539Y-5309436D02*
X3570063Y-5299912D01*
X3751015Y-5528484D02*
X3636729Y-5528484D01*
X3693872Y-5528484D02*
X3693872Y-5328484D01*
X3693872Y-5328484D02*
X3674825Y-5357055D01*
X3674825Y-5357055D02*
X3655777Y-5376103D01*
X3655777Y-5376103D02*
X3636729Y-5385627D01*
X3874825Y-5328484D02*
X3893872Y-5328484D01*
X3893872Y-5328484D02*
X3912920Y-5338008D01*
X3912920Y-5338008D02*
X3922444Y-5347531D01*
X3922444Y-5347531D02*
X3931968Y-5366579D01*
X3931968Y-5366579D02*
X3941491Y-5404674D01*
X3941491Y-5404674D02*
X3941491Y-5452293D01*
X3941491Y-5452293D02*
X3931968Y-5490389D01*
X3931968Y-5490389D02*
X3922444Y-5509436D01*
X3922444Y-5509436D02*
X3912920Y-5518960D01*
X3912920Y-5518960D02*
X3893872Y-5528484D01*
X3893872Y-5528484D02*
X3874825Y-5528484D01*
X3874825Y-5528484D02*
X3855777Y-5518960D01*
X3855777Y-5518960D02*
X3846253Y-5509436D01*
X3846253Y-5509436D02*
X3836729Y-5490389D01*
X3836729Y-5490389D02*
X3827206Y-5452293D01*
X3827206Y-5452293D02*
X3827206Y-5404674D01*
X3827206Y-5404674D02*
X3836729Y-5366579D01*
X3836729Y-5366579D02*
X3846253Y-5347531D01*
X3846253Y-5347531D02*
X3855777Y-5338008D01*
X3855777Y-5338008D02*
X3874825Y-5328484D01*
X4179587Y-5528484D02*
X4179587Y-5328484D01*
X4265301Y-5528484D02*
X4265301Y-5423722D01*
X4265301Y-5423722D02*
X4255777Y-5404674D01*
X4255777Y-5404674D02*
X4236730Y-5395150D01*
X4236730Y-5395150D02*
X4208158Y-5395150D01*
X4208158Y-5395150D02*
X4189110Y-5404674D01*
X4189110Y-5404674D02*
X4179587Y-5414198D01*
X4389111Y-5528484D02*
X4370063Y-5518960D01*
X4370063Y-5518960D02*
X4360539Y-5509436D01*
X4360539Y-5509436D02*
X4351015Y-5490389D01*
X4351015Y-5490389D02*
X4351015Y-5433246D01*
X4351015Y-5433246D02*
X4360539Y-5414198D01*
X4360539Y-5414198D02*
X4370063Y-5404674D01*
X4370063Y-5404674D02*
X4389111Y-5395150D01*
X4389111Y-5395150D02*
X4417682Y-5395150D01*
X4417682Y-5395150D02*
X4436730Y-5404674D01*
X4436730Y-5404674D02*
X4446253Y-5414198D01*
X4446253Y-5414198D02*
X4455777Y-5433246D01*
X4455777Y-5433246D02*
X4455777Y-5490389D01*
X4455777Y-5490389D02*
X4446253Y-5509436D01*
X4446253Y-5509436D02*
X4436730Y-5518960D01*
X4436730Y-5518960D02*
X4417682Y-5528484D01*
X4417682Y-5528484D02*
X4389111Y-5528484D01*
X4570063Y-5528484D02*
X4551015Y-5518960D01*
X4551015Y-5518960D02*
X4541492Y-5499912D01*
X4541492Y-5499912D02*
X4541492Y-5328484D01*
X4722444Y-5518960D02*
X4703396Y-5528484D01*
X4703396Y-5528484D02*
X4665301Y-5528484D01*
X4665301Y-5528484D02*
X4646253Y-5518960D01*
X4646253Y-5518960D02*
X4636730Y-5499912D01*
X4636730Y-5499912D02*
X4636730Y-5423722D01*
X4636730Y-5423722D02*
X4646253Y-5404674D01*
X4646253Y-5404674D02*
X4665301Y-5395150D01*
X4665301Y-5395150D02*
X4703396Y-5395150D01*
X4703396Y-5395150D02*
X4722444Y-5404674D01*
X4722444Y-5404674D02*
X4731968Y-5423722D01*
X4731968Y-5423722D02*
X4731968Y-5442770D01*
X4731968Y-5442770D02*
X4636730Y-5461817D01*
X4808158Y-5518960D02*
X4827206Y-5528484D01*
X4827206Y-5528484D02*
X4865301Y-5528484D01*
X4865301Y-5528484D02*
X4884349Y-5518960D01*
X4884349Y-5518960D02*
X4893873Y-5499912D01*
X4893873Y-5499912D02*
X4893873Y-5490389D01*
X4893873Y-5490389D02*
X4884349Y-5471341D01*
X4884349Y-5471341D02*
X4865301Y-5461817D01*
X4865301Y-5461817D02*
X4836730Y-5461817D01*
X4836730Y-5461817D02*
X4817682Y-5452293D01*
X4817682Y-5452293D02*
X4808158Y-5433246D01*
X4808158Y-5433246D02*
X4808158Y-5423722D01*
X4808158Y-5423722D02*
X4817682Y-5404674D01*
X4817682Y-5404674D02*
X4836730Y-5395150D01*
X4836730Y-5395150D02*
X4865301Y-5395150D01*
X4865301Y-5395150D02*
X4884349Y-5404674D01*
X4960539Y-5604674D02*
X4970063Y-5595150D01*
X4970063Y-5595150D02*
X4989111Y-5566579D01*
X4989111Y-5566579D02*
X4998634Y-5547531D01*
X4998634Y-5547531D02*
X5008158Y-5518960D01*
X5008158Y-5518960D02*
X5017682Y-5471341D01*
X5017682Y-5471341D02*
X5017682Y-5433246D01*
X5017682Y-5433246D02*
X5008158Y-5385627D01*
X5008158Y-5385627D02*
X4998634Y-5357055D01*
X4998634Y-5357055D02*
X4989111Y-5338008D01*
X4989111Y-5338008D02*
X4970063Y-5309436D01*
X4970063Y-5309436D02*
X4960539Y-5299912D01*
M02*
