M48
; DRILL file {KiCad (7.0.0)} date Thu Feb  1 10:08:00 2024
; FORMAT={-:-/ absolute / metric / decimal}
; #@! TF.CreationDate,2024-02-01T10:08:00+02:00
; #@! TF.GenerationSoftware,Kicad,Pcbnew,(7.0.0)
; #@! TF.FileFunction,Plated,1,2,PTH
FMAT,2
METRIC
; #@! TA.AperFunction,Plated,PTH,ViaDrill
T1C0.400
; #@! TA.AperFunction,Plated,PTH,ComponentDrill
T2C0.650
; #@! TA.AperFunction,Plated,PTH,ComponentDrill
T3C0.700
; #@! TA.AperFunction,Plated,PTH,ComponentDrill
T4C1.000
%
G90
G05
T1
X1.6Y-8.7
X2.6Y-14.5
X3.5Y-7.0
X4.4Y-13.1
X6.575Y-8.725
X7.1Y-10.5
X7.35Y-9.45
X8.2Y-14.4
X8.425Y-6.425
X8.9Y-16.2
X10.1Y-6.4
X10.125Y-8.125
X11.0Y-4.3
X11.4Y-10.1
X11.4Y-20.1
X11.5Y-11.9
X12.2Y-19.0
X12.3Y-22.7
X13.05Y-9.15
X13.463Y-10.963
X14.5Y-4.6
X14.8Y-9.7
X15.2Y-19.0
X16.5Y-19.0
X17.8Y-23.4
X19.5Y-15.2
X19.8Y-19.0
X21.9Y-15.2
X21.9Y-33.3
X22.2Y-7.5
X22.2Y-10.6
X22.7Y-23.1
X23.0Y-27.1
X25.2Y-16.7
X28.5Y-11.0
X28.7Y-16.9
X28.7Y-18.3
X28.7Y-19.7
X28.7Y-21.1
X30.3Y-16.9
X30.3Y-18.3
X30.3Y-19.7
X30.3Y-21.1
T2
X17.45Y-3.48
X17.45Y-4.75
X17.45Y-6.02
X20.75Y-3.48
X20.75Y-4.75
X20.75Y-6.02
X24.1Y-3.5
X24.1Y-4.77
X32.0Y-32.33
X32.0Y-33.6
X32.0Y-36.2
X32.0Y-37.47
T4
X2.22Y-18.125
X2.22Y-20.665
X3.51Y-26.925
X3.51Y-29.465
X4.76Y-18.125
X4.76Y-20.665
X6.05Y-26.925
X6.05Y-29.465
X7.3Y-18.125
X7.3Y-20.665
T3
X15.68Y-34.162G85X15.68Y-34.962
G05
X15.68Y-37.963G85X15.68Y-38.763
G05
X24.32Y-34.162G85X24.32Y-34.962
G05
X24.32Y-37.963G85X24.32Y-38.763
G05
T0
M30
