M48
; DRILL file {KiCad 8.0.1} date 2024-06-15T21:09:56+0300
; FORMAT={-:-/ absolute / metric / decimal}
; #@! TF.CreationDate,2024-06-15T21:09:56+03:00
; #@! TF.GenerationSoftware,Kicad,Pcbnew,8.0.1
; #@! TF.FileFunction,Plated,1,4,PTH
FMAT,2
METRIC
; #@! TA.AperFunction,Plated,PTH,ViaDrill
T1C0.400
; #@! TA.AperFunction,Plated,PTH,ComponentDrill
T2C0.650
; #@! TA.AperFunction,Plated,PTH,ComponentDrill
T3C0.700
; #@! TA.AperFunction,Plated,PTH,ComponentDrill
T4C1.000
%
G90
G05
T1
X4.2Y-8.9
X6.3Y-26.6
X6.35Y-8.05
X6.4Y-10.8
X7.2Y-31.4
X7.2Y-32.8
X7.3Y-2.4
X7.4Y-10.0
X8.3Y-26.7
X8.5Y-6.5
X8.6Y-7.9
X8.7Y-2.4
X9.3Y-11.6
X9.8Y-26.6
X9.8Y-31.5
X10.0Y-6.5
X10.0Y-7.9
X10.3Y-3.7
X10.7Y-14.3
X11.2Y-26.6
X11.5Y-19.6
X11.7Y-9.2
X11.9Y-3.7
X12.3Y-22.7
X12.8Y-19.2
X13.3Y-3.7
X14.7Y-3.7
X15.2Y-19.0
X15.3Y-9.4
X15.5Y-8.2
X16.0Y-11.7
X16.5Y-19.0
X17.4Y-11.7
X17.401Y-9.3
X17.7Y-23.1
X18.1Y-25.9
X18.376Y-4.476
X18.476Y-9.276
X19.5Y-15.2
X19.5Y-25.9
X19.7Y-23.1
X19.8Y-19.0
X20.6Y-12.1
X21.2Y-26.7
X21.3Y-23.0
X21.9Y-15.2
X22.0Y-12.1
X23.0Y-21.9
X24.2Y-21.9
X25.4Y-21.9
X25.7Y-11.7
X25.825Y-8.225
X26.4Y-16.5
X27.1Y-11.7
X28.1Y-30.6
X28.1Y-32.0
X33.0Y-1.7
X33.0Y-3.3
X33.0Y-4.9
X33.1Y-8.4
X34.5Y-8.4
X35.9Y-29.4
X35.9Y-30.8
T2
X20.926Y-3.456
X20.926Y-4.726
X20.926Y-5.996
X24.226Y-3.456
X24.226Y-4.726
X24.226Y-5.996
X27.576Y-3.476
X27.576Y-4.746
X32.0Y-32.33
X32.0Y-33.6
X32.0Y-36.2
X32.0Y-37.47
T4
X2.96Y-13.275
X2.96Y-15.815
X2.96Y-18.355
X2.96Y-22.66
X2.96Y-25.2
X5.5Y-13.275
X5.5Y-15.815
X5.5Y-18.355
X5.5Y-22.66
X5.5Y-25.2
T3
X15.68Y-34.162G85X15.68Y-34.962
G05
X15.68Y-37.963G85X15.68Y-38.763
G05
X24.32Y-34.162G85X24.32Y-34.962
G05
X24.32Y-37.963G85X24.32Y-38.763
G05
M30
