G04 #@! TF.GenerationSoftware,KiCad,Pcbnew,8.0.1*
G04 #@! TF.CreationDate,2024-06-15T21:09:50+03:00*
G04 #@! TF.ProjectId,FancyLight-V2,46616e63-794c-4696-9768-742d56322e6b,rev?*
G04 #@! TF.SameCoordinates,Original*
G04 #@! TF.FileFunction,Copper,L2,Inr*
G04 #@! TF.FilePolarity,Positive*
%FSLAX46Y46*%
G04 Gerber Fmt 4.6, Leading zero omitted, Abs format (unit mm)*
G04 Created by KiCad (PCBNEW 8.0.1) date 2024-06-15 21:09:50*
%MOMM*%
%LPD*%
G01*
G04 APERTURE LIST*
G04 #@! TA.AperFunction,ComponentPad*
%ADD10R,1.000000X1.000000*%
G04 #@! TD*
G04 #@! TA.AperFunction,ComponentPad*
%ADD11O,1.000000X1.000000*%
G04 #@! TD*
G04 #@! TA.AperFunction,ComponentPad*
%ADD12R,1.700000X1.700000*%
G04 #@! TD*
G04 #@! TA.AperFunction,ComponentPad*
%ADD13O,1.700000X1.700000*%
G04 #@! TD*
G04 #@! TA.AperFunction,ComponentPad*
%ADD14O,1.100000X1.900000*%
G04 #@! TD*
G04 #@! TA.AperFunction,ViaPad*
%ADD15C,0.800000*%
G04 #@! TD*
G04 APERTURE END LIST*
D10*
X32000000Y-37470000D03*
D11*
X32000000Y-36200000D03*
D12*
X5500000Y-22660000D03*
D13*
X5500000Y-25200000D03*
X2960000Y-22660000D03*
X2960000Y-25200000D03*
D10*
X20926000Y-3456000D03*
D11*
X20926000Y-4726000D03*
X20926000Y-5996000D03*
D10*
X27576000Y-3476000D03*
D11*
X27576000Y-4746000D03*
D10*
X32000000Y-33600000D03*
D11*
X32000000Y-32330000D03*
D10*
X24226000Y-5996000D03*
D11*
X24226000Y-4726000D03*
X24226000Y-3456000D03*
D14*
X15680000Y-34562000D03*
X15680000Y-38363000D03*
X24320000Y-34562000D03*
X24320000Y-38363000D03*
D12*
X2960000Y-13275000D03*
D13*
X5500000Y-13275000D03*
X2960000Y-15815000D03*
X5500000Y-15815000D03*
X2960000Y-18355000D03*
X5500000Y-18355000D03*
D15*
X6300000Y-26600000D03*
X7200000Y-32800000D03*
X7200000Y-31400000D03*
X9800000Y-26600000D03*
X11200000Y-26600000D03*
X18100000Y-25900000D03*
X19500000Y-25900000D03*
X28100000Y-32000000D03*
X28100000Y-30600000D03*
X35900000Y-30800000D03*
X35900000Y-29400000D03*
X27100000Y-11700000D03*
X25700000Y-11700000D03*
X22000000Y-12100000D03*
X20600000Y-12100000D03*
X17400000Y-11700000D03*
X16000000Y-11700000D03*
X34500000Y-8400000D03*
X33100000Y-8400000D03*
X8700000Y-2400000D03*
X7300000Y-2400000D03*
X33000000Y-3300000D03*
X33000000Y-1700000D03*
X11900000Y-3700000D03*
X13300000Y-3700000D03*
X14700000Y-3700000D03*
X8300000Y-26700000D03*
X9300000Y-11600000D03*
X19800000Y-19000000D03*
X11500000Y-19600000D03*
X10000000Y-6500000D03*
X12300000Y-22700000D03*
X10000000Y-7900000D03*
X21900000Y-15200000D03*
X19500000Y-15200000D03*
X8600000Y-7900000D03*
X16500000Y-19000000D03*
X8500000Y-6500000D03*
X19700000Y-23100000D03*
X26400000Y-16500000D03*
X15200000Y-19000000D03*
X17700000Y-23100000D03*
X12800000Y-19200000D03*
X9800000Y-31500000D03*
X21200000Y-26700000D03*
X6400000Y-10800000D03*
X25400000Y-21900000D03*
X10300000Y-3700000D03*
X23000000Y-21900000D03*
X33000000Y-4900000D03*
X24200000Y-21900000D03*
X10700000Y-14300000D03*
X11700000Y-9200000D03*
X4200000Y-8900000D03*
X25825000Y-8225000D03*
X18476000Y-9276000D03*
X21300000Y-23000000D03*
X18376000Y-4476000D03*
X15300000Y-9400000D03*
X7400000Y-10000000D03*
X17401000Y-9300000D03*
X6350000Y-8050000D03*
X15500000Y-8200000D03*
G04 #@! TA.AperFunction,Conductor*
G36*
X39943039Y-19685D02*
G01*
X39988794Y-72489D01*
X40000000Y-124000D01*
X40000000Y-39876000D01*
X39980315Y-39943039D01*
X39927511Y-39988794D01*
X39876000Y-40000000D01*
X24700792Y-40000000D01*
X24633753Y-39980315D01*
X24587998Y-39927511D01*
X24578054Y-39858353D01*
X24607079Y-39794797D01*
X24653339Y-39761439D01*
X24817358Y-39693499D01*
X24817368Y-39693494D01*
X24989335Y-39578589D01*
X24989339Y-39578586D01*
X25135586Y-39432339D01*
X25135589Y-39432335D01*
X25250494Y-39260368D01*
X25250499Y-39260358D01*
X25329649Y-39069274D01*
X25329651Y-39069266D01*
X25369999Y-38866420D01*
X25370000Y-38866417D01*
X25370000Y-38613000D01*
X24670000Y-38613000D01*
X24670000Y-38113000D01*
X25370000Y-38113000D01*
X25370000Y-37859583D01*
X25369999Y-37859579D01*
X25329651Y-37656733D01*
X25329649Y-37656725D01*
X25250499Y-37465641D01*
X25250494Y-37465631D01*
X25135589Y-37293664D01*
X25135586Y-37293660D01*
X24989339Y-37147413D01*
X24989335Y-37147410D01*
X24817368Y-37032505D01*
X24817358Y-37032500D01*
X24626272Y-36953349D01*
X24626267Y-36953347D01*
X24570000Y-36942155D01*
X24570000Y-37718025D01*
X24534905Y-37682930D01*
X24455095Y-37636852D01*
X24366078Y-37613000D01*
X24273922Y-37613000D01*
X24184905Y-37636852D01*
X24105095Y-37682930D01*
X24070000Y-37718025D01*
X24070000Y-36942156D01*
X24069999Y-36942155D01*
X24013732Y-36953347D01*
X24013727Y-36953349D01*
X23822641Y-37032500D01*
X23822631Y-37032505D01*
X23650664Y-37147410D01*
X23650660Y-37147413D01*
X23504413Y-37293660D01*
X23504410Y-37293664D01*
X23389505Y-37465631D01*
X23389500Y-37465641D01*
X23310350Y-37656725D01*
X23310348Y-37656733D01*
X23270000Y-37859579D01*
X23270000Y-38113000D01*
X23970000Y-38113000D01*
X23970000Y-38613000D01*
X23270000Y-38613000D01*
X23270000Y-38866420D01*
X23310348Y-39069266D01*
X23310350Y-39069274D01*
X23389500Y-39260358D01*
X23389505Y-39260368D01*
X23504410Y-39432335D01*
X23504413Y-39432339D01*
X23650660Y-39578586D01*
X23650664Y-39578589D01*
X23822631Y-39693494D01*
X23822641Y-39693499D01*
X23986661Y-39761439D01*
X24041064Y-39805280D01*
X24063129Y-39871574D01*
X24045850Y-39939274D01*
X23994712Y-39986884D01*
X23939208Y-40000000D01*
X16060792Y-40000000D01*
X15993753Y-39980315D01*
X15947998Y-39927511D01*
X15938054Y-39858353D01*
X15967079Y-39794797D01*
X16013339Y-39761439D01*
X16177358Y-39693499D01*
X16177368Y-39693494D01*
X16349335Y-39578589D01*
X16349339Y-39578586D01*
X16495586Y-39432339D01*
X16495589Y-39432335D01*
X16610494Y-39260368D01*
X16610499Y-39260358D01*
X16689649Y-39069274D01*
X16689651Y-39069266D01*
X16729999Y-38866420D01*
X16730000Y-38866417D01*
X16730000Y-38613000D01*
X16030000Y-38613000D01*
X16030000Y-38113000D01*
X16730000Y-38113000D01*
X16730000Y-37859583D01*
X16729999Y-37859579D01*
X16689651Y-37656733D01*
X16689649Y-37656725D01*
X16610499Y-37465641D01*
X16610494Y-37465631D01*
X16495589Y-37293664D01*
X16495586Y-37293660D01*
X16349339Y-37147413D01*
X16349335Y-37147410D01*
X16177368Y-37032505D01*
X16177358Y-37032500D01*
X15986272Y-36953349D01*
X15986267Y-36953347D01*
X15930000Y-36942155D01*
X15930000Y-37718025D01*
X15894905Y-37682930D01*
X15815095Y-37636852D01*
X15726078Y-37613000D01*
X15633922Y-37613000D01*
X15544905Y-37636852D01*
X15465095Y-37682930D01*
X15430000Y-37718025D01*
X15430000Y-36942156D01*
X15429999Y-36942155D01*
X15373732Y-36953347D01*
X15373727Y-36953349D01*
X15182641Y-37032500D01*
X15182631Y-37032505D01*
X15010664Y-37147410D01*
X15010660Y-37147413D01*
X14864413Y-37293660D01*
X14864410Y-37293664D01*
X14749505Y-37465631D01*
X14749500Y-37465641D01*
X14670350Y-37656725D01*
X14670348Y-37656733D01*
X14630000Y-37859579D01*
X14630000Y-38113000D01*
X15330000Y-38113000D01*
X15330000Y-38613000D01*
X14630000Y-38613000D01*
X14630000Y-38866420D01*
X14670348Y-39069266D01*
X14670350Y-39069274D01*
X14749500Y-39260358D01*
X14749505Y-39260368D01*
X14864410Y-39432335D01*
X14864413Y-39432339D01*
X15010660Y-39578586D01*
X15010664Y-39578589D01*
X15182631Y-39693494D01*
X15182641Y-39693499D01*
X15346661Y-39761439D01*
X15401064Y-39805280D01*
X15423129Y-39871574D01*
X15405850Y-39939274D01*
X15354712Y-39986884D01*
X15299208Y-40000000D01*
X124000Y-40000000D01*
X56961Y-39980315D01*
X11206Y-39927511D01*
X0Y-39876000D01*
X0Y-36618097D01*
X1999500Y-36618097D01*
X2036446Y-36851368D01*
X2109433Y-37075996D01*
X2216657Y-37286433D01*
X2355483Y-37477510D01*
X2522490Y-37644517D01*
X2713567Y-37783343D01*
X2801025Y-37827905D01*
X2924003Y-37890566D01*
X2924005Y-37890566D01*
X2924008Y-37890568D01*
X3005117Y-37916922D01*
X3148631Y-37963553D01*
X3381903Y-38000500D01*
X3381908Y-38000500D01*
X3618097Y-38000500D01*
X3851368Y-37963553D01*
X4075992Y-37890568D01*
X4286433Y-37783343D01*
X4477510Y-37644517D01*
X4644517Y-37477510D01*
X4783343Y-37286433D01*
X4890568Y-37075992D01*
X4963553Y-36851368D01*
X4982137Y-36734034D01*
X5000500Y-36618097D01*
X5000500Y-36381902D01*
X4971689Y-36200002D01*
X31244751Y-36200002D01*
X31263685Y-36368056D01*
X31319545Y-36527694D01*
X31319547Y-36527697D01*
X31371171Y-36609855D01*
X31390172Y-36677091D01*
X31369805Y-36743926D01*
X31335069Y-36778929D01*
X31319399Y-36789398D01*
X31264033Y-36872260D01*
X31264032Y-36872264D01*
X31249500Y-36945321D01*
X31249500Y-37994678D01*
X31264032Y-38067735D01*
X31264033Y-38067739D01*
X31264034Y-38067740D01*
X31319399Y-38150601D01*
X31402260Y-38205966D01*
X31402264Y-38205967D01*
X31475321Y-38220499D01*
X31475324Y-38220500D01*
X31475326Y-38220500D01*
X32524676Y-38220500D01*
X32524677Y-38220499D01*
X32597740Y-38205966D01*
X32680601Y-38150601D01*
X32735966Y-38067740D01*
X32750500Y-37994674D01*
X32750500Y-36945326D01*
X32750500Y-36945323D01*
X32750499Y-36945321D01*
X32735967Y-36872264D01*
X32735966Y-36872260D01*
X32680600Y-36789398D01*
X32664931Y-36778929D01*
X32620126Y-36725317D01*
X32611419Y-36655992D01*
X32625719Y-36618097D01*
X34999500Y-36618097D01*
X35036446Y-36851368D01*
X35109433Y-37075996D01*
X35216657Y-37286433D01*
X35355483Y-37477510D01*
X35522490Y-37644517D01*
X35713567Y-37783343D01*
X35801025Y-37827905D01*
X35924003Y-37890566D01*
X35924005Y-37890566D01*
X35924008Y-37890568D01*
X36005117Y-37916922D01*
X36148631Y-37963553D01*
X36381903Y-38000500D01*
X36381908Y-38000500D01*
X36618097Y-38000500D01*
X36851368Y-37963553D01*
X37075992Y-37890568D01*
X37286433Y-37783343D01*
X37477510Y-37644517D01*
X37644517Y-37477510D01*
X37783343Y-37286433D01*
X37890568Y-37075992D01*
X37963553Y-36851368D01*
X37982137Y-36734034D01*
X38000500Y-36618097D01*
X38000500Y-36381902D01*
X37963553Y-36148631D01*
X37909684Y-35982842D01*
X37890568Y-35924008D01*
X37890566Y-35924005D01*
X37890566Y-35924003D01*
X37791265Y-35729115D01*
X37783343Y-35713567D01*
X37644517Y-35522490D01*
X37477510Y-35355483D01*
X37286433Y-35216657D01*
X37075996Y-35109433D01*
X36851368Y-35036446D01*
X36618097Y-34999500D01*
X36618092Y-34999500D01*
X36381908Y-34999500D01*
X36381903Y-34999500D01*
X36148631Y-35036446D01*
X35924003Y-35109433D01*
X35713566Y-35216657D01*
X35615168Y-35288148D01*
X35522490Y-35355483D01*
X35522488Y-35355485D01*
X35522487Y-35355485D01*
X35355485Y-35522487D01*
X35355485Y-35522488D01*
X35355483Y-35522490D01*
X35295862Y-35604550D01*
X35216657Y-35713566D01*
X35109433Y-35924003D01*
X35036446Y-36148631D01*
X34999500Y-36381902D01*
X34999500Y-36618097D01*
X32625719Y-36618097D01*
X32628829Y-36609855D01*
X32680452Y-36527697D01*
X32680454Y-36527694D01*
X32680454Y-36527692D01*
X32680456Y-36527690D01*
X32736313Y-36368059D01*
X32736313Y-36368058D01*
X32736314Y-36368056D01*
X32755249Y-36200002D01*
X32755249Y-36199997D01*
X32736314Y-36031943D01*
X32687520Y-35892499D01*
X32680456Y-35872310D01*
X32680455Y-35872309D01*
X32680454Y-35872305D01*
X32680452Y-35872302D01*
X32590481Y-35729115D01*
X32590476Y-35729109D01*
X32470890Y-35609523D01*
X32470884Y-35609518D01*
X32327697Y-35519547D01*
X32327694Y-35519545D01*
X32168056Y-35463685D01*
X32000003Y-35444751D01*
X31999997Y-35444751D01*
X31831943Y-35463685D01*
X31672305Y-35519545D01*
X31672302Y-35519547D01*
X31529115Y-35609518D01*
X31529109Y-35609523D01*
X31409523Y-35729109D01*
X31409518Y-35729115D01*
X31319547Y-35872302D01*
X31319545Y-35872305D01*
X31263685Y-36031943D01*
X31244751Y-36199997D01*
X31244751Y-36200002D01*
X4971689Y-36200002D01*
X4963553Y-36148631D01*
X4909684Y-35982842D01*
X4890568Y-35924008D01*
X4890566Y-35924005D01*
X4890566Y-35924003D01*
X4791265Y-35729115D01*
X4783343Y-35713567D01*
X4644517Y-35522490D01*
X4477510Y-35355483D01*
X4286433Y-35216657D01*
X4075996Y-35109433D01*
X3940540Y-35065420D01*
X14630000Y-35065420D01*
X14670348Y-35268266D01*
X14670350Y-35268274D01*
X14749500Y-35459358D01*
X14749505Y-35459368D01*
X14864410Y-35631335D01*
X14864413Y-35631339D01*
X15010660Y-35777586D01*
X15010664Y-35777589D01*
X15182631Y-35892494D01*
X15182641Y-35892499D01*
X15373723Y-35971648D01*
X15373725Y-35971649D01*
X15430000Y-35982842D01*
X15430000Y-35206975D01*
X15465095Y-35242070D01*
X15544905Y-35288148D01*
X15633922Y-35312000D01*
X15726078Y-35312000D01*
X15815095Y-35288148D01*
X15894905Y-35242070D01*
X15930000Y-35206975D01*
X15930000Y-35982842D01*
X15986274Y-35971649D01*
X15986276Y-35971648D01*
X16177358Y-35892499D01*
X16177368Y-35892494D01*
X16349335Y-35777589D01*
X16349339Y-35777586D01*
X16495586Y-35631339D01*
X16495589Y-35631335D01*
X16610494Y-35459368D01*
X16610499Y-35459358D01*
X16689649Y-35268274D01*
X16689651Y-35268266D01*
X16729999Y-35065420D01*
X23270000Y-35065420D01*
X23310348Y-35268266D01*
X23310350Y-35268274D01*
X23389500Y-35459358D01*
X23389505Y-35459368D01*
X23504410Y-35631335D01*
X23504413Y-35631339D01*
X23650660Y-35777586D01*
X23650664Y-35777589D01*
X23822631Y-35892494D01*
X23822641Y-35892499D01*
X24013723Y-35971648D01*
X24013725Y-35971649D01*
X24070000Y-35982842D01*
X24070000Y-35206975D01*
X24105095Y-35242070D01*
X24184905Y-35288148D01*
X24273922Y-35312000D01*
X24366078Y-35312000D01*
X24455095Y-35288148D01*
X24534905Y-35242070D01*
X24570000Y-35206975D01*
X24570000Y-35982842D01*
X24626274Y-35971649D01*
X24626276Y-35971648D01*
X24817358Y-35892499D01*
X24817368Y-35892494D01*
X24989335Y-35777589D01*
X24989339Y-35777586D01*
X25135586Y-35631339D01*
X25135589Y-35631335D01*
X25250494Y-35459368D01*
X25250499Y-35459358D01*
X25329649Y-35268274D01*
X25329651Y-35268266D01*
X25369999Y-35065420D01*
X25370000Y-35065417D01*
X25370000Y-34812000D01*
X24670000Y-34812000D01*
X24670000Y-34312000D01*
X25370000Y-34312000D01*
X25370000Y-34058583D01*
X25369999Y-34058579D01*
X25329651Y-33855733D01*
X25329649Y-33855725D01*
X25250499Y-33664641D01*
X25250494Y-33664631D01*
X25135589Y-33492664D01*
X25135586Y-33492660D01*
X24989339Y-33346413D01*
X24989335Y-33346410D01*
X24817368Y-33231505D01*
X24817358Y-33231500D01*
X24626272Y-33152349D01*
X24626267Y-33152347D01*
X24570000Y-33141155D01*
X24570000Y-33917025D01*
X24534905Y-33881930D01*
X24455095Y-33835852D01*
X24366078Y-33812000D01*
X24273922Y-33812000D01*
X24184905Y-33835852D01*
X24105095Y-33881930D01*
X24070000Y-33917025D01*
X24070000Y-33141156D01*
X24069999Y-33141155D01*
X24013732Y-33152347D01*
X24013727Y-33152349D01*
X23822641Y-33231500D01*
X23822631Y-33231505D01*
X23650664Y-33346410D01*
X23650660Y-33346413D01*
X23504413Y-33492660D01*
X23504410Y-33492664D01*
X23389505Y-33664631D01*
X23389500Y-33664641D01*
X23310350Y-33855725D01*
X23310348Y-33855733D01*
X23270000Y-34058579D01*
X23270000Y-34312000D01*
X23970000Y-34312000D01*
X23970000Y-34812000D01*
X23270000Y-34812000D01*
X23270000Y-35065420D01*
X16729999Y-35065420D01*
X16730000Y-35065417D01*
X16730000Y-34812000D01*
X16030000Y-34812000D01*
X16030000Y-34312000D01*
X16730000Y-34312000D01*
X16730000Y-34058583D01*
X16729999Y-34058579D01*
X16689651Y-33855733D01*
X16689649Y-33855725D01*
X16610499Y-33664641D01*
X16610494Y-33664631D01*
X16495589Y-33492664D01*
X16495586Y-33492660D01*
X16349339Y-33346413D01*
X16349335Y-33346410D01*
X16177368Y-33231505D01*
X16177358Y-33231500D01*
X15986272Y-33152349D01*
X15986267Y-33152347D01*
X15930000Y-33141155D01*
X15930000Y-33917025D01*
X15894905Y-33881930D01*
X15815095Y-33835852D01*
X15726078Y-33812000D01*
X15633922Y-33812000D01*
X15544905Y-33835852D01*
X15465095Y-33881930D01*
X15430000Y-33917025D01*
X15430000Y-33141156D01*
X15429999Y-33141155D01*
X15373732Y-33152347D01*
X15373727Y-33152349D01*
X15182641Y-33231500D01*
X15182631Y-33231505D01*
X15010664Y-33346410D01*
X15010660Y-33346413D01*
X14864413Y-33492660D01*
X14864410Y-33492664D01*
X14749505Y-33664631D01*
X14749500Y-33664641D01*
X14670350Y-33855725D01*
X14670348Y-33855733D01*
X14630000Y-34058579D01*
X14630000Y-34312000D01*
X15330000Y-34312000D01*
X15330000Y-34812000D01*
X14630000Y-34812000D01*
X14630000Y-35065420D01*
X3940540Y-35065420D01*
X3851368Y-35036446D01*
X3618097Y-34999500D01*
X3618092Y-34999500D01*
X3381908Y-34999500D01*
X3381903Y-34999500D01*
X3148631Y-35036446D01*
X2924003Y-35109433D01*
X2713566Y-35216657D01*
X2615168Y-35288148D01*
X2522490Y-35355483D01*
X2522488Y-35355485D01*
X2522487Y-35355485D01*
X2355485Y-35522487D01*
X2355485Y-35522488D01*
X2355483Y-35522490D01*
X2295862Y-35604550D01*
X2216657Y-35713566D01*
X2109433Y-35924003D01*
X2036446Y-36148631D01*
X1999500Y-36381902D01*
X1999500Y-36618097D01*
X0Y-36618097D01*
X0Y-32330002D01*
X31244751Y-32330002D01*
X31263685Y-32498056D01*
X31319545Y-32657694D01*
X31319547Y-32657697D01*
X31371171Y-32739855D01*
X31390172Y-32807091D01*
X31369805Y-32873926D01*
X31335069Y-32908929D01*
X31319399Y-32919398D01*
X31264033Y-33002260D01*
X31264032Y-33002264D01*
X31249500Y-33075321D01*
X31249500Y-34124678D01*
X31264032Y-34197735D01*
X31264033Y-34197739D01*
X31264034Y-34197740D01*
X31319399Y-34280601D01*
X31366392Y-34312000D01*
X31402260Y-34335966D01*
X31402264Y-34335967D01*
X31475321Y-34350499D01*
X31475324Y-34350500D01*
X31475326Y-34350500D01*
X32524676Y-34350500D01*
X32524677Y-34350499D01*
X32597740Y-34335966D01*
X32680601Y-34280601D01*
X32735966Y-34197740D01*
X32750500Y-34124674D01*
X32750500Y-33075326D01*
X32750500Y-33075323D01*
X32750499Y-33075321D01*
X32735967Y-33002264D01*
X32735966Y-33002260D01*
X32680600Y-32919398D01*
X32664931Y-32908929D01*
X32620126Y-32855317D01*
X32611419Y-32785992D01*
X32628829Y-32739855D01*
X32680452Y-32657697D01*
X32680454Y-32657694D01*
X32680454Y-32657692D01*
X32680456Y-32657690D01*
X32736313Y-32498059D01*
X32736313Y-32498058D01*
X32736314Y-32498056D01*
X32755249Y-32330002D01*
X32755249Y-32329997D01*
X32736314Y-32161943D01*
X32680454Y-32002305D01*
X32680452Y-32002302D01*
X32590481Y-31859115D01*
X32590476Y-31859109D01*
X32470890Y-31739523D01*
X32470884Y-31739518D01*
X32327697Y-31649547D01*
X32327694Y-31649545D01*
X32168056Y-31593685D01*
X32000003Y-31574751D01*
X31999997Y-31574751D01*
X31831943Y-31593685D01*
X31672305Y-31649545D01*
X31672302Y-31649547D01*
X31529115Y-31739518D01*
X31529109Y-31739523D01*
X31409523Y-31859109D01*
X31409518Y-31859115D01*
X31319547Y-32002302D01*
X31319545Y-32002305D01*
X31263685Y-32161943D01*
X31244751Y-32329997D01*
X31244751Y-32330002D01*
X0Y-32330002D01*
X0Y-31500000D01*
X9144722Y-31500000D01*
X9163762Y-31656818D01*
X9219780Y-31804523D01*
X9309517Y-31934530D01*
X9427760Y-32039283D01*
X9427762Y-32039284D01*
X9567634Y-32112696D01*
X9721014Y-32150500D01*
X9721015Y-32150500D01*
X9878985Y-32150500D01*
X10032365Y-32112696D01*
X10172240Y-32039283D01*
X10290483Y-31934530D01*
X10380220Y-31804523D01*
X10436237Y-31656818D01*
X10455278Y-31500000D01*
X10436237Y-31343182D01*
X10380220Y-31195477D01*
X10290483Y-31065470D01*
X10172240Y-30960717D01*
X10172238Y-30960716D01*
X10172237Y-30960715D01*
X10032365Y-30887303D01*
X9878986Y-30849500D01*
X9878985Y-30849500D01*
X9721015Y-30849500D01*
X9721014Y-30849500D01*
X9567634Y-30887303D01*
X9427762Y-30960715D01*
X9309516Y-31065471D01*
X9219781Y-31195475D01*
X9219780Y-31195476D01*
X9163762Y-31343181D01*
X9144722Y-31499999D01*
X9144722Y-31500000D01*
X0Y-31500000D01*
X0Y-26700000D01*
X7644722Y-26700000D01*
X7663762Y-26856818D01*
X7719780Y-27004523D01*
X7809517Y-27134530D01*
X7927760Y-27239283D01*
X7927762Y-27239284D01*
X8067634Y-27312696D01*
X8221014Y-27350500D01*
X8221015Y-27350500D01*
X8378985Y-27350500D01*
X8532365Y-27312696D01*
X8672240Y-27239283D01*
X8790483Y-27134530D01*
X8880220Y-27004523D01*
X8936237Y-26856818D01*
X8955278Y-26700000D01*
X20544722Y-26700000D01*
X20563762Y-26856818D01*
X20619780Y-27004523D01*
X20709517Y-27134530D01*
X20827760Y-27239283D01*
X20827762Y-27239284D01*
X20967634Y-27312696D01*
X21121014Y-27350500D01*
X21121015Y-27350500D01*
X21278985Y-27350500D01*
X21432365Y-27312696D01*
X21572240Y-27239283D01*
X21690483Y-27134530D01*
X21780220Y-27004523D01*
X21836237Y-26856818D01*
X21855278Y-26700000D01*
X21836237Y-26543182D01*
X21780220Y-26395477D01*
X21690483Y-26265470D01*
X21572240Y-26160717D01*
X21572238Y-26160716D01*
X21572237Y-26160715D01*
X21432365Y-26087303D01*
X21278986Y-26049500D01*
X21278985Y-26049500D01*
X21121015Y-26049500D01*
X21121014Y-26049500D01*
X20967634Y-26087303D01*
X20827762Y-26160715D01*
X20709516Y-26265471D01*
X20619781Y-26395475D01*
X20619780Y-26395476D01*
X20563762Y-26543181D01*
X20544722Y-26699999D01*
X20544722Y-26700000D01*
X8955278Y-26700000D01*
X8936237Y-26543182D01*
X8880220Y-26395477D01*
X8790483Y-26265470D01*
X8672240Y-26160717D01*
X8672238Y-26160716D01*
X8672237Y-26160715D01*
X8532365Y-26087303D01*
X8378986Y-26049500D01*
X8378985Y-26049500D01*
X8221015Y-26049500D01*
X8221014Y-26049500D01*
X8067634Y-26087303D01*
X7927762Y-26160715D01*
X7809516Y-26265471D01*
X7719781Y-26395475D01*
X7719780Y-26395476D01*
X7663762Y-26543181D01*
X7644722Y-26699999D01*
X7644722Y-26700000D01*
X0Y-26700000D01*
X0Y-25200000D01*
X1854785Y-25200000D01*
X1873602Y-25403082D01*
X1929417Y-25599247D01*
X1929422Y-25599260D01*
X2020327Y-25781821D01*
X2143237Y-25944581D01*
X2293958Y-26081980D01*
X2293960Y-26081982D01*
X2393141Y-26143392D01*
X2467363Y-26189348D01*
X2657544Y-26263024D01*
X2858024Y-26300500D01*
X2858026Y-26300500D01*
X3061974Y-26300500D01*
X3061976Y-26300500D01*
X3262456Y-26263024D01*
X3452637Y-26189348D01*
X3626041Y-26081981D01*
X3776764Y-25944579D01*
X3899673Y-25781821D01*
X3990582Y-25599250D01*
X4046397Y-25403083D01*
X4065215Y-25200000D01*
X4394785Y-25200000D01*
X4413602Y-25403082D01*
X4469417Y-25599247D01*
X4469422Y-25599260D01*
X4560327Y-25781821D01*
X4683237Y-25944581D01*
X4833958Y-26081980D01*
X4833960Y-26081982D01*
X4933141Y-26143392D01*
X5007363Y-26189348D01*
X5197544Y-26263024D01*
X5398024Y-26300500D01*
X5398026Y-26300500D01*
X5601974Y-26300500D01*
X5601976Y-26300500D01*
X5802456Y-26263024D01*
X5992637Y-26189348D01*
X6166041Y-26081981D01*
X6316764Y-25944579D01*
X6439673Y-25781821D01*
X6530582Y-25599250D01*
X6586397Y-25403083D01*
X6605215Y-25200000D01*
X6586397Y-24996917D01*
X6530582Y-24800750D01*
X6439673Y-24618179D01*
X6316764Y-24455421D01*
X6316762Y-24455418D01*
X6166041Y-24318019D01*
X6166039Y-24318017D01*
X5992642Y-24210655D01*
X5992635Y-24210651D01*
X5897546Y-24173814D01*
X5802456Y-24136976D01*
X5601976Y-24099500D01*
X5398024Y-24099500D01*
X5197544Y-24136976D01*
X5197541Y-24136976D01*
X5197541Y-24136977D01*
X5007364Y-24210651D01*
X5007357Y-24210655D01*
X4833960Y-24318017D01*
X4833958Y-24318019D01*
X4683237Y-24455418D01*
X4560327Y-24618178D01*
X4469422Y-24800739D01*
X4469417Y-24800752D01*
X4413602Y-24996917D01*
X4394785Y-25199999D01*
X4394785Y-25200000D01*
X4065215Y-25200000D01*
X4046397Y-24996917D01*
X3990582Y-24800750D01*
X3899673Y-24618179D01*
X3776764Y-24455421D01*
X3776762Y-24455418D01*
X3626041Y-24318019D01*
X3626039Y-24318017D01*
X3452642Y-24210655D01*
X3452635Y-24210651D01*
X3357546Y-24173814D01*
X3262456Y-24136976D01*
X3061976Y-24099500D01*
X2858024Y-24099500D01*
X2657544Y-24136976D01*
X2657541Y-24136976D01*
X2657541Y-24136977D01*
X2467364Y-24210651D01*
X2467357Y-24210655D01*
X2293960Y-24318017D01*
X2293958Y-24318019D01*
X2143237Y-24455418D01*
X2020327Y-24618178D01*
X1929422Y-24800739D01*
X1929417Y-24800752D01*
X1873602Y-24996917D01*
X1854785Y-25199999D01*
X1854785Y-25200000D01*
X0Y-25200000D01*
X0Y-22660000D01*
X1854785Y-22660000D01*
X1873602Y-22863082D01*
X1929417Y-23059247D01*
X1929422Y-23059260D01*
X2020327Y-23241821D01*
X2143237Y-23404581D01*
X2282638Y-23531660D01*
X2290999Y-23539283D01*
X2293958Y-23541980D01*
X2293960Y-23541982D01*
X2393141Y-23603392D01*
X2467363Y-23649348D01*
X2657544Y-23723024D01*
X2858024Y-23760500D01*
X2858026Y-23760500D01*
X3061974Y-23760500D01*
X3061976Y-23760500D01*
X3262456Y-23723024D01*
X3452637Y-23649348D01*
X3626041Y-23541981D01*
X3634052Y-23534678D01*
X4399500Y-23534678D01*
X4414032Y-23607735D01*
X4414033Y-23607739D01*
X4414034Y-23607740D01*
X4469399Y-23690601D01*
X4552260Y-23745966D01*
X4552264Y-23745967D01*
X4625321Y-23760499D01*
X4625324Y-23760500D01*
X4625326Y-23760500D01*
X6374676Y-23760500D01*
X6374677Y-23760499D01*
X6447740Y-23745966D01*
X6530601Y-23690601D01*
X6585966Y-23607740D01*
X6600500Y-23534674D01*
X6600500Y-23000000D01*
X20644722Y-23000000D01*
X20663762Y-23156818D01*
X20696000Y-23241821D01*
X20719780Y-23304523D01*
X20809517Y-23434530D01*
X20927760Y-23539283D01*
X20939860Y-23545633D01*
X21067634Y-23612696D01*
X21221014Y-23650500D01*
X21221015Y-23650500D01*
X21378985Y-23650500D01*
X21532365Y-23612696D01*
X21541817Y-23607735D01*
X21672240Y-23539283D01*
X21790483Y-23434530D01*
X21880220Y-23304523D01*
X21936237Y-23156818D01*
X21955278Y-23000000D01*
X21938654Y-22863083D01*
X21936237Y-22843181D01*
X21914992Y-22787164D01*
X21880220Y-22695477D01*
X21790483Y-22565470D01*
X21672240Y-22460717D01*
X21672238Y-22460716D01*
X21672237Y-22460715D01*
X21532365Y-22387303D01*
X21378986Y-22349500D01*
X21378985Y-22349500D01*
X21221015Y-22349500D01*
X21221014Y-22349500D01*
X21067634Y-22387303D01*
X20927762Y-22460715D01*
X20809516Y-22565471D01*
X20719781Y-22695475D01*
X20719780Y-22695476D01*
X20663762Y-22843181D01*
X20644722Y-22999999D01*
X20644722Y-23000000D01*
X6600500Y-23000000D01*
X6600500Y-21900000D01*
X22344722Y-21900000D01*
X22363762Y-22056818D01*
X22400000Y-22152367D01*
X22419780Y-22204523D01*
X22509517Y-22334530D01*
X22627760Y-22439283D01*
X22627762Y-22439284D01*
X22767634Y-22512696D01*
X22921014Y-22550500D01*
X22921015Y-22550500D01*
X23078985Y-22550500D01*
X23232365Y-22512696D01*
X23331401Y-22460717D01*
X23372240Y-22439283D01*
X23490483Y-22334530D01*
X23497950Y-22323711D01*
X23552233Y-22279722D01*
X23621681Y-22272062D01*
X23684246Y-22303165D01*
X23702049Y-22323711D01*
X23709517Y-22334530D01*
X23827760Y-22439283D01*
X23827762Y-22439284D01*
X23967634Y-22512696D01*
X24121014Y-22550500D01*
X24121015Y-22550500D01*
X24278985Y-22550500D01*
X24432365Y-22512696D01*
X24531401Y-22460717D01*
X24572240Y-22439283D01*
X24690483Y-22334530D01*
X24697950Y-22323711D01*
X24752233Y-22279722D01*
X24821681Y-22272062D01*
X24884246Y-22303165D01*
X24902049Y-22323711D01*
X24909517Y-22334530D01*
X25027760Y-22439283D01*
X25027762Y-22439284D01*
X25167634Y-22512696D01*
X25321014Y-22550500D01*
X25321015Y-22550500D01*
X25478985Y-22550500D01*
X25632365Y-22512696D01*
X25731401Y-22460717D01*
X25772240Y-22439283D01*
X25890483Y-22334530D01*
X25980220Y-22204523D01*
X26036237Y-22056818D01*
X26055278Y-21900000D01*
X26036237Y-21743182D01*
X26024511Y-21712264D01*
X26008730Y-21670651D01*
X25980220Y-21595477D01*
X25890483Y-21465470D01*
X25772240Y-21360717D01*
X25772238Y-21360716D01*
X25772237Y-21360715D01*
X25632365Y-21287303D01*
X25478986Y-21249500D01*
X25478985Y-21249500D01*
X25321015Y-21249500D01*
X25321014Y-21249500D01*
X25167634Y-21287303D01*
X25027762Y-21360715D01*
X24909515Y-21465471D01*
X24902048Y-21476290D01*
X24847764Y-21520279D01*
X24778315Y-21527936D01*
X24715751Y-21496831D01*
X24697952Y-21476290D01*
X24690484Y-21465471D01*
X24690483Y-21465470D01*
X24572240Y-21360717D01*
X24572238Y-21360716D01*
X24572237Y-21360715D01*
X24432365Y-21287303D01*
X24278986Y-21249500D01*
X24278985Y-21249500D01*
X24121015Y-21249500D01*
X24121014Y-21249500D01*
X23967634Y-21287303D01*
X23827762Y-21360715D01*
X23709515Y-21465471D01*
X23702048Y-21476290D01*
X23647764Y-21520279D01*
X23578315Y-21527936D01*
X23515751Y-21496831D01*
X23497952Y-21476290D01*
X23490484Y-21465471D01*
X23490483Y-21465470D01*
X23372240Y-21360717D01*
X23372238Y-21360716D01*
X23372237Y-21360715D01*
X23232365Y-21287303D01*
X23078986Y-21249500D01*
X23078985Y-21249500D01*
X22921015Y-21249500D01*
X22921014Y-21249500D01*
X22767634Y-21287303D01*
X22627762Y-21360715D01*
X22509516Y-21465471D01*
X22419781Y-21595475D01*
X22419780Y-21595476D01*
X22363762Y-21743181D01*
X22344722Y-21899999D01*
X22344722Y-21900000D01*
X6600500Y-21900000D01*
X6600500Y-21785326D01*
X6600500Y-21785323D01*
X6600499Y-21785321D01*
X6585967Y-21712264D01*
X6585966Y-21712260D01*
X6530601Y-21629399D01*
X6447740Y-21574034D01*
X6447739Y-21574033D01*
X6447735Y-21574032D01*
X6374677Y-21559500D01*
X6374674Y-21559500D01*
X4625326Y-21559500D01*
X4625323Y-21559500D01*
X4552264Y-21574032D01*
X4552260Y-21574033D01*
X4469399Y-21629399D01*
X4414033Y-21712260D01*
X4414032Y-21712264D01*
X4399500Y-21785321D01*
X4399500Y-23534678D01*
X3634052Y-23534678D01*
X3776764Y-23404579D01*
X3899673Y-23241821D01*
X3990582Y-23059250D01*
X4046397Y-22863083D01*
X4065215Y-22660000D01*
X4046397Y-22456917D01*
X3990582Y-22260750D01*
X3962584Y-22204523D01*
X3936614Y-22152367D01*
X3899673Y-22078179D01*
X3776764Y-21915421D01*
X3776762Y-21915418D01*
X3626041Y-21778019D01*
X3626039Y-21778017D01*
X3452642Y-21670655D01*
X3452635Y-21670651D01*
X3346150Y-21629399D01*
X3262456Y-21596976D01*
X3061976Y-21559500D01*
X2858024Y-21559500D01*
X2657544Y-21596976D01*
X2657541Y-21596976D01*
X2657541Y-21596977D01*
X2467364Y-21670651D01*
X2467357Y-21670655D01*
X2293960Y-21778017D01*
X2293958Y-21778019D01*
X2143237Y-21915418D01*
X2020327Y-22078178D01*
X1929422Y-22260739D01*
X1929417Y-22260752D01*
X1873602Y-22456917D01*
X1854785Y-22659999D01*
X1854785Y-22660000D01*
X0Y-22660000D01*
X0Y-18355000D01*
X1854785Y-18355000D01*
X1873602Y-18558082D01*
X1929417Y-18754247D01*
X1929422Y-18754260D01*
X2020327Y-18936821D01*
X2143237Y-19099581D01*
X2293958Y-19236980D01*
X2293960Y-19236982D01*
X2393141Y-19298392D01*
X2467363Y-19344348D01*
X2657544Y-19418024D01*
X2858024Y-19455500D01*
X2858026Y-19455500D01*
X3061974Y-19455500D01*
X3061976Y-19455500D01*
X3262456Y-19418024D01*
X3452637Y-19344348D01*
X3626041Y-19236981D01*
X3776764Y-19099579D01*
X3899673Y-18936821D01*
X3986817Y-18761812D01*
X4034319Y-18710575D01*
X4101982Y-18693153D01*
X4168323Y-18715078D01*
X4212278Y-18769389D01*
X4217592Y-18784989D01*
X4226567Y-18818485D01*
X4226570Y-18818492D01*
X4326399Y-19032578D01*
X4461894Y-19226082D01*
X4628917Y-19393105D01*
X4822421Y-19528600D01*
X5036507Y-19628429D01*
X5036516Y-19628433D01*
X5250000Y-19685634D01*
X5250000Y-18788012D01*
X5307007Y-18820925D01*
X5434174Y-18855000D01*
X5565826Y-18855000D01*
X5692993Y-18820925D01*
X5750000Y-18788012D01*
X5750000Y-19685633D01*
X5963483Y-19628433D01*
X5963492Y-19628429D01*
X6177578Y-19528600D01*
X6371082Y-19393105D01*
X6538105Y-19226082D01*
X6673600Y-19032578D01*
X6773429Y-18818492D01*
X6773432Y-18818486D01*
X6830636Y-18605000D01*
X5933012Y-18605000D01*
X5965925Y-18547993D01*
X6000000Y-18420826D01*
X6000000Y-18289174D01*
X5965925Y-18162007D01*
X5933012Y-18105000D01*
X6830636Y-18105000D01*
X6830635Y-18104999D01*
X6773432Y-17891513D01*
X6773429Y-17891507D01*
X6673600Y-17677422D01*
X6673599Y-17677420D01*
X6538113Y-17483926D01*
X6538108Y-17483920D01*
X6371082Y-17316894D01*
X6177578Y-17181399D01*
X5963492Y-17081570D01*
X5963477Y-17081564D01*
X5924414Y-17071097D01*
X5864754Y-17034732D01*
X5834226Y-16971885D01*
X5842521Y-16902509D01*
X5887007Y-16848632D01*
X5911710Y-16835698D01*
X5992637Y-16804348D01*
X6166041Y-16696981D01*
X6316764Y-16559579D01*
X6439673Y-16396821D01*
X6530582Y-16214250D01*
X6562420Y-16102351D01*
X30699500Y-16102351D01*
X30731522Y-16304534D01*
X30794781Y-16499223D01*
X30887715Y-16681613D01*
X31008028Y-16847213D01*
X31152786Y-16991971D01*
X31247654Y-17060895D01*
X31318390Y-17112287D01*
X31434607Y-17171503D01*
X31500776Y-17205218D01*
X31500778Y-17205218D01*
X31500781Y-17205220D01*
X31605137Y-17239127D01*
X31695465Y-17268477D01*
X31796557Y-17284488D01*
X31897648Y-17300500D01*
X31897649Y-17300500D01*
X32102351Y-17300500D01*
X32102352Y-17300500D01*
X32304534Y-17268477D01*
X32499219Y-17205220D01*
X32681610Y-17112287D01*
X32819485Y-17012116D01*
X32847213Y-16991971D01*
X32847215Y-16991968D01*
X32847219Y-16991966D01*
X32991966Y-16847219D01*
X32991968Y-16847215D01*
X32991971Y-16847213D01*
X33044732Y-16774590D01*
X33112287Y-16681610D01*
X33205220Y-16499219D01*
X33268477Y-16304534D01*
X33300500Y-16102352D01*
X33300500Y-15897648D01*
X33287410Y-15815000D01*
X33268477Y-15695465D01*
X33205218Y-15500776D01*
X33161889Y-15415739D01*
X33112287Y-15318390D01*
X33104556Y-15307749D01*
X32991971Y-15152786D01*
X32847213Y-15008028D01*
X32681613Y-14887715D01*
X32681612Y-14887714D01*
X32681610Y-14887713D01*
X32624653Y-14858691D01*
X32499223Y-14794781D01*
X32304534Y-14731522D01*
X32129995Y-14703878D01*
X32102352Y-14699500D01*
X31897648Y-14699500D01*
X31873329Y-14703351D01*
X31695465Y-14731522D01*
X31500776Y-14794781D01*
X31318386Y-14887715D01*
X31152786Y-15008028D01*
X31008028Y-15152786D01*
X30887715Y-15318386D01*
X30794781Y-15500776D01*
X30731522Y-15695465D01*
X30699500Y-15897648D01*
X30699500Y-16102351D01*
X6562420Y-16102351D01*
X6586397Y-16018083D01*
X6605215Y-15815000D01*
X6586397Y-15611917D01*
X6530582Y-15415750D01*
X6439673Y-15233179D01*
X6316764Y-15070421D01*
X6316762Y-15070418D01*
X6166041Y-14933019D01*
X6166039Y-14933017D01*
X5992642Y-14825655D01*
X5992635Y-14825651D01*
X5897546Y-14788814D01*
X5802456Y-14751976D01*
X5601976Y-14714500D01*
X5398024Y-14714500D01*
X5197544Y-14751976D01*
X5197541Y-14751976D01*
X5197541Y-14751977D01*
X5007364Y-14825651D01*
X5007357Y-14825655D01*
X4833960Y-14933017D01*
X4833958Y-14933019D01*
X4683237Y-15070418D01*
X4560327Y-15233178D01*
X4469422Y-15415739D01*
X4469417Y-15415752D01*
X4413602Y-15611917D01*
X4394785Y-15814999D01*
X4394785Y-15815000D01*
X4413602Y-16018082D01*
X4469417Y-16214247D01*
X4469422Y-16214260D01*
X4560327Y-16396821D01*
X4683237Y-16559581D01*
X4833958Y-16696980D01*
X4833960Y-16696982D01*
X4933141Y-16758392D01*
X5007363Y-16804348D01*
X5088283Y-16835696D01*
X5143685Y-16878269D01*
X5167276Y-16944035D01*
X5151565Y-17012116D01*
X5101542Y-17060895D01*
X5075586Y-17071097D01*
X5036519Y-17081565D01*
X5036507Y-17081570D01*
X4822422Y-17181399D01*
X4822420Y-17181400D01*
X4628926Y-17316886D01*
X4628920Y-17316891D01*
X4461891Y-17483920D01*
X4461886Y-17483926D01*
X4326400Y-17677420D01*
X4326399Y-17677422D01*
X4226570Y-17891507D01*
X4226568Y-17891511D01*
X4217592Y-17925011D01*
X4181226Y-17984671D01*
X4118379Y-18015199D01*
X4049003Y-18006904D01*
X3995126Y-17962418D01*
X3986817Y-17948188D01*
X3940415Y-17855000D01*
X3899673Y-17773179D01*
X3776764Y-17610421D01*
X3776762Y-17610418D01*
X3626041Y-17473019D01*
X3626039Y-17473017D01*
X3452642Y-17365655D01*
X3452635Y-17365651D01*
X3326769Y-17316891D01*
X3262456Y-17291976D01*
X3061976Y-17254500D01*
X2858024Y-17254500D01*
X2657544Y-17291976D01*
X2657541Y-17291976D01*
X2657541Y-17291977D01*
X2467364Y-17365651D01*
X2467357Y-17365655D01*
X2293960Y-17473017D01*
X2293958Y-17473019D01*
X2143237Y-17610418D01*
X2020327Y-17773178D01*
X1929422Y-17955739D01*
X1929417Y-17955752D01*
X1873602Y-18151917D01*
X1854785Y-18354999D01*
X1854785Y-18355000D01*
X0Y-18355000D01*
X0Y-15815000D01*
X1854785Y-15815000D01*
X1873602Y-16018082D01*
X1929417Y-16214247D01*
X1929422Y-16214260D01*
X2020327Y-16396821D01*
X2143237Y-16559581D01*
X2293958Y-16696980D01*
X2293960Y-16696982D01*
X2393141Y-16758392D01*
X2467363Y-16804348D01*
X2657544Y-16878024D01*
X2858024Y-16915500D01*
X2858026Y-16915500D01*
X3061974Y-16915500D01*
X3061976Y-16915500D01*
X3262456Y-16878024D01*
X3452637Y-16804348D01*
X3626041Y-16696981D01*
X3776764Y-16559579D01*
X3899673Y-16396821D01*
X3990582Y-16214250D01*
X4046397Y-16018083D01*
X4065215Y-15815000D01*
X4046397Y-15611917D01*
X3990582Y-15415750D01*
X3899673Y-15233179D01*
X3776764Y-15070421D01*
X3776762Y-15070418D01*
X3626041Y-14933019D01*
X3626039Y-14933017D01*
X3452642Y-14825655D01*
X3452635Y-14825651D01*
X3357546Y-14788814D01*
X3262456Y-14751976D01*
X3061976Y-14714500D01*
X2858024Y-14714500D01*
X2657544Y-14751976D01*
X2657541Y-14751976D01*
X2657541Y-14751977D01*
X2467364Y-14825651D01*
X2467357Y-14825655D01*
X2293960Y-14933017D01*
X2293958Y-14933019D01*
X2143237Y-15070418D01*
X2020327Y-15233178D01*
X1929422Y-15415739D01*
X1929417Y-15415752D01*
X1873602Y-15611917D01*
X1854785Y-15814999D01*
X1854785Y-15815000D01*
X0Y-15815000D01*
X0Y-14149678D01*
X1859500Y-14149678D01*
X1874032Y-14222735D01*
X1874033Y-14222739D01*
X1874034Y-14222740D01*
X1929399Y-14305601D01*
X2012260Y-14360966D01*
X2012264Y-14360967D01*
X2085321Y-14375499D01*
X2085324Y-14375500D01*
X2085326Y-14375500D01*
X3834676Y-14375500D01*
X3834677Y-14375499D01*
X3907740Y-14360966D01*
X3990601Y-14305601D01*
X4045966Y-14222740D01*
X4060500Y-14149674D01*
X4060500Y-13275000D01*
X4394785Y-13275000D01*
X4413602Y-13478082D01*
X4469417Y-13674247D01*
X4469422Y-13674260D01*
X4560327Y-13856821D01*
X4683237Y-14019581D01*
X4833958Y-14156980D01*
X4833960Y-14156982D01*
X4933141Y-14218392D01*
X5007363Y-14264348D01*
X5197544Y-14338024D01*
X5398024Y-14375500D01*
X5398026Y-14375500D01*
X5601974Y-14375500D01*
X5601976Y-14375500D01*
X5802456Y-14338024D01*
X5900608Y-14300000D01*
X10044722Y-14300000D01*
X10063762Y-14456818D01*
X10119780Y-14604523D01*
X10209517Y-14734530D01*
X10327760Y-14839283D01*
X10327762Y-14839284D01*
X10467634Y-14912696D01*
X10621014Y-14950500D01*
X10621015Y-14950500D01*
X10778985Y-14950500D01*
X10932365Y-14912696D01*
X11072240Y-14839283D01*
X11190483Y-14734530D01*
X11280220Y-14604523D01*
X11336237Y-14456818D01*
X11355278Y-14300000D01*
X11345897Y-14222735D01*
X11336237Y-14143181D01*
X11289361Y-14019581D01*
X11280220Y-13995477D01*
X11190483Y-13865470D01*
X11072240Y-13760717D01*
X11072238Y-13760716D01*
X11072237Y-13760715D01*
X10932365Y-13687303D01*
X10778986Y-13649500D01*
X10778985Y-13649500D01*
X10621015Y-13649500D01*
X10621014Y-13649500D01*
X10467634Y-13687303D01*
X10327762Y-13760715D01*
X10209516Y-13865471D01*
X10119781Y-13995475D01*
X10119780Y-13995476D01*
X10063762Y-14143181D01*
X10044722Y-14299999D01*
X10044722Y-14300000D01*
X5900608Y-14300000D01*
X5992637Y-14264348D01*
X6166041Y-14156981D01*
X6316764Y-14019579D01*
X6439673Y-13856821D01*
X6530582Y-13674250D01*
X6586397Y-13478083D01*
X6605215Y-13275000D01*
X6586397Y-13071917D01*
X6530582Y-12875750D01*
X6439673Y-12693179D01*
X6316764Y-12530421D01*
X6316762Y-12530418D01*
X6166041Y-12393019D01*
X6166039Y-12393017D01*
X5992642Y-12285655D01*
X5992635Y-12285651D01*
X5886150Y-12244399D01*
X5802456Y-12211976D01*
X5601976Y-12174500D01*
X5398024Y-12174500D01*
X5197544Y-12211976D01*
X5197541Y-12211976D01*
X5197541Y-12211977D01*
X5007364Y-12285651D01*
X5007357Y-12285655D01*
X4833960Y-12393017D01*
X4833958Y-12393019D01*
X4683237Y-12530418D01*
X4560327Y-12693178D01*
X4469422Y-12875739D01*
X4469417Y-12875752D01*
X4413602Y-13071917D01*
X4394785Y-13274999D01*
X4394785Y-13275000D01*
X4060500Y-13275000D01*
X4060500Y-12400326D01*
X4060500Y-12400323D01*
X4060499Y-12400321D01*
X4045967Y-12327264D01*
X4045966Y-12327260D01*
X3990601Y-12244399D01*
X3907740Y-12189034D01*
X3907739Y-12189033D01*
X3907735Y-12189032D01*
X3834677Y-12174500D01*
X3834674Y-12174500D01*
X2085326Y-12174500D01*
X2085323Y-12174500D01*
X2012264Y-12189032D01*
X2012260Y-12189033D01*
X1929399Y-12244399D01*
X1874033Y-12327260D01*
X1874032Y-12327264D01*
X1859500Y-12400321D01*
X1859500Y-14149678D01*
X0Y-14149678D01*
X0Y-11600000D01*
X8644722Y-11600000D01*
X8663762Y-11756818D01*
X8719780Y-11904523D01*
X8809517Y-12034530D01*
X8927760Y-12139283D01*
X8927762Y-12139284D01*
X9067634Y-12212696D01*
X9221014Y-12250500D01*
X9221015Y-12250500D01*
X9378985Y-12250500D01*
X9532365Y-12212696D01*
X9533737Y-12211976D01*
X9672240Y-12139283D01*
X9790483Y-12034530D01*
X9880220Y-11904523D01*
X9936237Y-11756818D01*
X9955278Y-11600000D01*
X9936237Y-11443182D01*
X9880220Y-11295477D01*
X9790483Y-11165470D01*
X9672240Y-11060717D01*
X9672238Y-11060716D01*
X9672237Y-11060715D01*
X9532365Y-10987303D01*
X9378986Y-10949500D01*
X9378985Y-10949500D01*
X9221015Y-10949500D01*
X9221014Y-10949500D01*
X9067634Y-10987303D01*
X8927762Y-11060715D01*
X8809516Y-11165471D01*
X8719781Y-11295475D01*
X8719780Y-11295476D01*
X8663762Y-11443181D01*
X8644722Y-11599999D01*
X8644722Y-11600000D01*
X0Y-11600000D01*
X0Y-10800000D01*
X5744722Y-10800000D01*
X5763762Y-10956818D01*
X5819780Y-11104523D01*
X5909517Y-11234530D01*
X6027760Y-11339283D01*
X6027762Y-11339284D01*
X6167634Y-11412696D01*
X6321014Y-11450500D01*
X6321015Y-11450500D01*
X6478985Y-11450500D01*
X6632365Y-11412696D01*
X6772240Y-11339283D01*
X6890483Y-11234530D01*
X6980220Y-11104523D01*
X7036237Y-10956818D01*
X7055278Y-10800000D01*
X7050021Y-10756704D01*
X7061482Y-10687781D01*
X7108385Y-10635995D01*
X7175841Y-10617788D01*
X7202789Y-10621360D01*
X7321015Y-10650500D01*
X7478985Y-10650500D01*
X7632365Y-10612696D01*
X7772240Y-10539283D01*
X7890483Y-10434530D01*
X7980220Y-10304523D01*
X8036237Y-10156818D01*
X8055278Y-10000000D01*
X8044678Y-9912696D01*
X8036237Y-9843181D01*
X8002309Y-9753722D01*
X7980220Y-9695477D01*
X7890483Y-9565470D01*
X7772240Y-9460717D01*
X7772238Y-9460716D01*
X7772237Y-9460715D01*
X7632365Y-9387303D01*
X7478986Y-9349500D01*
X7478985Y-9349500D01*
X7321015Y-9349500D01*
X7321014Y-9349500D01*
X7167634Y-9387303D01*
X7027762Y-9460715D01*
X6909516Y-9565471D01*
X6819781Y-9695475D01*
X6819780Y-9695476D01*
X6763762Y-9843181D01*
X6744722Y-9999999D01*
X6744722Y-10000003D01*
X6749978Y-10043297D01*
X6738517Y-10112220D01*
X6691612Y-10164005D01*
X6624156Y-10182211D01*
X6597208Y-10178638D01*
X6478986Y-10149500D01*
X6478985Y-10149500D01*
X6321015Y-10149500D01*
X6321014Y-10149500D01*
X6167634Y-10187303D01*
X6027762Y-10260715D01*
X5909516Y-10365471D01*
X5819781Y-10495475D01*
X5819780Y-10495476D01*
X5763762Y-10643181D01*
X5744722Y-10799999D01*
X5744722Y-10800000D01*
X0Y-10800000D01*
X0Y-8900000D01*
X3544722Y-8900000D01*
X3563762Y-9056818D01*
X3578424Y-9095477D01*
X3619780Y-9204523D01*
X3709517Y-9334530D01*
X3827760Y-9439283D01*
X3827762Y-9439284D01*
X3967634Y-9512696D01*
X4121014Y-9550500D01*
X4121015Y-9550500D01*
X4278985Y-9550500D01*
X4432365Y-9512696D01*
X4531401Y-9460717D01*
X4572240Y-9439283D01*
X4690483Y-9334530D01*
X4780220Y-9204523D01*
X4781935Y-9200000D01*
X11044722Y-9200000D01*
X11063762Y-9356818D01*
X11119780Y-9504523D01*
X11209517Y-9634530D01*
X11327760Y-9739283D01*
X11327762Y-9739284D01*
X11467634Y-9812696D01*
X11621014Y-9850500D01*
X11621015Y-9850500D01*
X11778985Y-9850500D01*
X11932365Y-9812696D01*
X12072240Y-9739283D01*
X12190483Y-9634530D01*
X12280220Y-9504523D01*
X12319860Y-9400000D01*
X14644722Y-9400000D01*
X14663762Y-9556818D01*
X14716349Y-9695476D01*
X14719780Y-9704523D01*
X14809517Y-9834530D01*
X14927760Y-9939283D01*
X14927762Y-9939284D01*
X15067634Y-10012696D01*
X15221014Y-10050500D01*
X15221015Y-10050500D01*
X15378985Y-10050500D01*
X15532365Y-10012696D01*
X15556557Y-9999999D01*
X15672240Y-9939283D01*
X15790483Y-9834530D01*
X15880220Y-9704523D01*
X15936237Y-9556818D01*
X15955278Y-9400000D01*
X15953737Y-9387304D01*
X15943136Y-9300000D01*
X16745722Y-9300000D01*
X16764762Y-9456818D01*
X16811678Y-9580523D01*
X16820780Y-9604523D01*
X16910517Y-9734530D01*
X17028760Y-9839283D01*
X17028762Y-9839284D01*
X17168634Y-9912696D01*
X17322014Y-9950500D01*
X17322015Y-9950500D01*
X17479985Y-9950500D01*
X17633365Y-9912696D01*
X17773238Y-9839284D01*
X17773237Y-9839284D01*
X17773240Y-9839283D01*
X17869818Y-9753722D01*
X17933051Y-9724001D01*
X18002315Y-9733185D01*
X18034269Y-9753720D01*
X18086376Y-9799882D01*
X18103762Y-9815285D01*
X18243634Y-9888696D01*
X18397014Y-9926500D01*
X18397015Y-9926500D01*
X18554985Y-9926500D01*
X18708365Y-9888696D01*
X18781140Y-9850500D01*
X18848240Y-9815283D01*
X18966483Y-9710530D01*
X19056220Y-9580523D01*
X19112237Y-9432818D01*
X19131278Y-9276000D01*
X19112237Y-9119182D01*
X19056220Y-8971477D01*
X18966483Y-8841470D01*
X18848240Y-8736717D01*
X18848238Y-8736716D01*
X18848237Y-8736715D01*
X18708365Y-8663303D01*
X18554986Y-8625500D01*
X18554985Y-8625500D01*
X18397015Y-8625500D01*
X18397014Y-8625500D01*
X18243634Y-8663303D01*
X18103761Y-8736715D01*
X18103759Y-8736717D01*
X18007180Y-8822277D01*
X17943947Y-8851998D01*
X17874683Y-8842814D01*
X17842729Y-8822278D01*
X17780208Y-8766890D01*
X17773237Y-8760714D01*
X17633365Y-8687303D01*
X17479986Y-8649500D01*
X17479985Y-8649500D01*
X17322015Y-8649500D01*
X17322014Y-8649500D01*
X17168634Y-8687303D01*
X17028762Y-8760715D01*
X16910516Y-8865471D01*
X16820781Y-8995475D01*
X16820780Y-8995476D01*
X16764762Y-9143181D01*
X16745722Y-9299999D01*
X16745722Y-9300000D01*
X15943136Y-9300000D01*
X15936237Y-9243181D01*
X15898312Y-9143182D01*
X15880220Y-9095477D01*
X15790483Y-8965470D01*
X15790481Y-8965467D01*
X15785509Y-8959855D01*
X15787740Y-8957877D01*
X15757906Y-8910303D01*
X15758679Y-8840438D01*
X15797101Y-8782081D01*
X15819631Y-8766894D01*
X15872240Y-8739283D01*
X15990483Y-8634530D01*
X16080220Y-8504523D01*
X16136237Y-8356818D01*
X16152242Y-8225000D01*
X25169722Y-8225000D01*
X25188762Y-8381818D01*
X25227716Y-8484530D01*
X25244780Y-8529523D01*
X25334517Y-8659530D01*
X25452760Y-8764283D01*
X25452762Y-8764284D01*
X25592634Y-8837696D01*
X25746014Y-8875500D01*
X25746015Y-8875500D01*
X25903985Y-8875500D01*
X26057365Y-8837696D01*
X26086743Y-8822277D01*
X26197240Y-8764283D01*
X26315483Y-8659530D01*
X26405220Y-8529523D01*
X26461237Y-8381818D01*
X26480278Y-8225000D01*
X26477243Y-8200000D01*
X26461237Y-8068181D01*
X26439992Y-8012164D01*
X26405220Y-7920477D01*
X26315483Y-7790470D01*
X26197240Y-7685717D01*
X26197238Y-7685716D01*
X26197237Y-7685715D01*
X26057365Y-7612303D01*
X25903986Y-7574500D01*
X25903985Y-7574500D01*
X25746015Y-7574500D01*
X25746014Y-7574500D01*
X25592634Y-7612303D01*
X25452762Y-7685715D01*
X25452760Y-7685717D01*
X25362737Y-7765470D01*
X25334516Y-7790471D01*
X25244781Y-7920475D01*
X25244780Y-7920476D01*
X25188762Y-8068181D01*
X25169722Y-8224999D01*
X25169722Y-8225000D01*
X16152242Y-8225000D01*
X16155278Y-8200000D01*
X16139273Y-8068181D01*
X16136237Y-8043181D01*
X16089701Y-7920477D01*
X16080220Y-7895477D01*
X15990483Y-7765470D01*
X15872240Y-7660717D01*
X15872238Y-7660716D01*
X15872237Y-7660715D01*
X15732365Y-7587303D01*
X15578986Y-7549500D01*
X15578985Y-7549500D01*
X15421015Y-7549500D01*
X15421014Y-7549500D01*
X15267634Y-7587303D01*
X15127762Y-7660715D01*
X15009516Y-7765471D01*
X14919781Y-7895475D01*
X14919780Y-7895476D01*
X14863762Y-8043181D01*
X14844722Y-8199999D01*
X14844722Y-8200000D01*
X14863762Y-8356818D01*
X14919780Y-8504523D01*
X14919781Y-8504524D01*
X15009518Y-8634532D01*
X15014491Y-8640145D01*
X15012249Y-8642130D01*
X15042074Y-8689624D01*
X15041342Y-8759490D01*
X15002954Y-8817869D01*
X14980365Y-8833107D01*
X14944372Y-8851998D01*
X14927760Y-8860717D01*
X14809521Y-8965467D01*
X14809516Y-8965471D01*
X14719781Y-9095475D01*
X14719780Y-9095476D01*
X14663762Y-9243181D01*
X14644722Y-9399999D01*
X14644722Y-9400000D01*
X12319860Y-9400000D01*
X12336237Y-9356818D01*
X12355278Y-9200000D01*
X12342587Y-9095475D01*
X12336237Y-9043181D01*
X12309043Y-8971477D01*
X12280220Y-8895477D01*
X12190483Y-8765470D01*
X12072240Y-8660717D01*
X12072238Y-8660716D01*
X12072237Y-8660715D01*
X11932365Y-8587303D01*
X11778986Y-8549500D01*
X11778985Y-8549500D01*
X11621015Y-8549500D01*
X11621014Y-8549500D01*
X11467634Y-8587303D01*
X11327762Y-8660715D01*
X11327760Y-8660717D01*
X11214886Y-8760714D01*
X11209516Y-8765471D01*
X11119781Y-8895475D01*
X11119780Y-8895476D01*
X11063762Y-9043181D01*
X11044722Y-9199999D01*
X11044722Y-9200000D01*
X4781935Y-9200000D01*
X4836237Y-9056818D01*
X4855278Y-8900000D01*
X4851086Y-8865471D01*
X4836237Y-8743181D01*
X4797160Y-8640145D01*
X4780220Y-8595477D01*
X4690483Y-8465470D01*
X4572240Y-8360717D01*
X4572238Y-8360716D01*
X4572237Y-8360715D01*
X4432365Y-8287303D01*
X4278986Y-8249500D01*
X4278985Y-8249500D01*
X4121015Y-8249500D01*
X4121014Y-8249500D01*
X3967634Y-8287303D01*
X3827762Y-8360715D01*
X3709516Y-8465471D01*
X3619781Y-8595475D01*
X3619780Y-8595476D01*
X3563762Y-8743181D01*
X3544722Y-8899999D01*
X3544722Y-8900000D01*
X0Y-8900000D01*
X0Y-8050000D01*
X5694722Y-8050000D01*
X5713762Y-8206818D01*
X5744287Y-8287304D01*
X5769780Y-8354523D01*
X5859517Y-8484530D01*
X5977760Y-8589283D01*
X5977762Y-8589284D01*
X6117634Y-8662696D01*
X6271014Y-8700500D01*
X6271015Y-8700500D01*
X6428985Y-8700500D01*
X6582365Y-8662696D01*
X6588401Y-8659528D01*
X6722240Y-8589283D01*
X6840483Y-8484530D01*
X6930220Y-8354523D01*
X6986237Y-8206818D01*
X7005278Y-8050000D01*
X6986516Y-7895475D01*
X6986237Y-7893181D01*
X6947284Y-7790471D01*
X6930220Y-7745477D01*
X6840483Y-7615470D01*
X6722240Y-7510717D01*
X6722238Y-7510716D01*
X6722237Y-7510715D01*
X6582365Y-7437303D01*
X6428986Y-7399500D01*
X6428985Y-7399500D01*
X6271015Y-7399500D01*
X6271014Y-7399500D01*
X6117634Y-7437303D01*
X5977762Y-7510715D01*
X5859516Y-7615471D01*
X5769781Y-7745475D01*
X5769780Y-7745476D01*
X5713762Y-7893181D01*
X5694722Y-8049999D01*
X5694722Y-8050000D01*
X0Y-8050000D01*
X0Y-3618097D01*
X1999500Y-3618097D01*
X2036446Y-3851368D01*
X2109433Y-4075996D01*
X2210888Y-4275110D01*
X2216657Y-4286433D01*
X2355483Y-4477510D01*
X2522490Y-4644517D01*
X2713567Y-4783343D01*
X2812991Y-4834002D01*
X2924003Y-4890566D01*
X2924005Y-4890566D01*
X2924008Y-4890568D01*
X3044412Y-4929689D01*
X3148631Y-4963553D01*
X3381903Y-5000500D01*
X3381908Y-5000500D01*
X3618097Y-5000500D01*
X3851368Y-4963553D01*
X4075992Y-4890568D01*
X4286433Y-4783343D01*
X4477510Y-4644517D01*
X4644517Y-4477510D01*
X4645614Y-4476000D01*
X17720722Y-4476000D01*
X17739762Y-4632818D01*
X17758875Y-4683213D01*
X17795780Y-4780523D01*
X17885517Y-4910530D01*
X18003760Y-5015283D01*
X18003762Y-5015284D01*
X18143634Y-5088696D01*
X18297014Y-5126500D01*
X18297015Y-5126500D01*
X18454985Y-5126500D01*
X18608365Y-5088696D01*
X18636943Y-5073697D01*
X18748240Y-5015283D01*
X18866483Y-4910530D01*
X18956220Y-4780523D01*
X19012237Y-4632818D01*
X19031278Y-4476000D01*
X19031278Y-4475999D01*
X19956839Y-4475999D01*
X19956840Y-4476000D01*
X20716382Y-4476000D01*
X20665936Y-4526446D01*
X20623149Y-4600555D01*
X20601000Y-4683213D01*
X20601000Y-4768787D01*
X20623149Y-4851445D01*
X20665936Y-4925554D01*
X20716382Y-4976000D01*
X19956840Y-4976000D01*
X19997652Y-5110541D01*
X20090503Y-5284253D01*
X20090507Y-5284260D01*
X20215471Y-5436527D01*
X20246941Y-5462354D01*
X20286276Y-5520100D01*
X20288147Y-5589944D01*
X20273272Y-5624178D01*
X20245545Y-5668306D01*
X20189685Y-5827943D01*
X20170751Y-5995997D01*
X20170751Y-5996002D01*
X20189685Y-6164056D01*
X20245545Y-6323694D01*
X20245547Y-6323697D01*
X20335518Y-6466884D01*
X20335523Y-6466890D01*
X20455109Y-6586476D01*
X20455115Y-6586481D01*
X20598302Y-6676452D01*
X20598305Y-6676454D01*
X20598309Y-6676455D01*
X20598310Y-6676456D01*
X20670913Y-6701860D01*
X20757943Y-6732314D01*
X20925997Y-6751249D01*
X20926000Y-6751249D01*
X20926003Y-6751249D01*
X21094056Y-6732314D01*
X21095051Y-6731966D01*
X21253690Y-6676456D01*
X21253692Y-6676454D01*
X21253694Y-6676454D01*
X21253697Y-6676452D01*
X21396884Y-6586481D01*
X21396885Y-6586480D01*
X21396890Y-6586477D01*
X21516477Y-6466890D01*
X21606452Y-6323697D01*
X21606454Y-6323694D01*
X21606454Y-6323692D01*
X21606456Y-6323690D01*
X21662313Y-6164059D01*
X21662313Y-6164058D01*
X21662314Y-6164056D01*
X21681249Y-5996002D01*
X21681249Y-5995997D01*
X21662314Y-5827943D01*
X21644668Y-5777516D01*
X21606456Y-5668310D01*
X21578727Y-5624180D01*
X21559727Y-5556946D01*
X21580094Y-5490111D01*
X21605058Y-5462354D01*
X21636526Y-5436529D01*
X21761492Y-5284260D01*
X21761496Y-5284253D01*
X21854347Y-5110541D01*
X21895160Y-4976000D01*
X21135618Y-4976000D01*
X21186064Y-4925554D01*
X21228851Y-4851445D01*
X21251000Y-4768787D01*
X21251000Y-4726002D01*
X23470751Y-4726002D01*
X23489685Y-4894056D01*
X23545545Y-5053694D01*
X23545547Y-5053697D01*
X23597171Y-5135855D01*
X23616172Y-5203091D01*
X23595805Y-5269926D01*
X23561069Y-5304929D01*
X23545399Y-5315398D01*
X23490033Y-5398260D01*
X23490032Y-5398264D01*
X23475500Y-5471321D01*
X23475500Y-6520678D01*
X23490032Y-6593735D01*
X23490033Y-6593739D01*
X23490034Y-6593740D01*
X23545399Y-6676601D01*
X23628260Y-6731966D01*
X23628264Y-6731967D01*
X23701321Y-6746499D01*
X23701324Y-6746500D01*
X23701326Y-6746500D01*
X24750676Y-6746500D01*
X24750677Y-6746499D01*
X24823740Y-6731966D01*
X24906601Y-6676601D01*
X24961966Y-6593740D01*
X24976500Y-6520674D01*
X24976500Y-5471326D01*
X24976500Y-5471323D01*
X24976499Y-5471321D01*
X24961967Y-5398264D01*
X24961966Y-5398260D01*
X24920687Y-5336481D01*
X24906601Y-5315399D01*
X24890930Y-5304928D01*
X24846126Y-5251317D01*
X24837419Y-5181992D01*
X24854829Y-5135855D01*
X24906452Y-5053697D01*
X24906454Y-5053694D01*
X24906454Y-5053692D01*
X24906456Y-5053690D01*
X24962313Y-4894059D01*
X24962313Y-4894058D01*
X24962314Y-4894056D01*
X24978996Y-4746002D01*
X26820751Y-4746002D01*
X26839685Y-4914056D01*
X26895545Y-5073694D01*
X26895547Y-5073697D01*
X26985518Y-5216884D01*
X26985523Y-5216890D01*
X27105109Y-5336476D01*
X27105115Y-5336481D01*
X27248302Y-5426452D01*
X27248305Y-5426454D01*
X27248309Y-5426455D01*
X27248310Y-5426456D01*
X27284968Y-5439283D01*
X27407943Y-5482314D01*
X27575997Y-5501249D01*
X27576000Y-5501249D01*
X27576003Y-5501249D01*
X27744056Y-5482314D01*
X27775458Y-5471326D01*
X27903690Y-5426456D01*
X27903692Y-5426454D01*
X27903694Y-5426454D01*
X27903697Y-5426452D01*
X28046884Y-5336481D01*
X28046885Y-5336480D01*
X28046890Y-5336477D01*
X28166477Y-5216890D01*
X28256452Y-5073697D01*
X28256454Y-5073694D01*
X28256454Y-5073692D01*
X28256456Y-5073690D01*
X28312313Y-4914059D01*
X28312313Y-4914058D01*
X28312314Y-4914056D01*
X28313898Y-4900000D01*
X32344722Y-4900000D01*
X32363762Y-5056818D01*
X32411235Y-5181992D01*
X32419780Y-5204523D01*
X32509517Y-5334530D01*
X32627760Y-5439283D01*
X32627762Y-5439284D01*
X32767634Y-5512696D01*
X32921014Y-5550500D01*
X32921015Y-5550500D01*
X33078985Y-5550500D01*
X33232365Y-5512696D01*
X33254175Y-5501249D01*
X33372240Y-5439283D01*
X33490483Y-5334530D01*
X33580220Y-5204523D01*
X33636237Y-5056818D01*
X33655278Y-4900000D01*
X33649383Y-4851445D01*
X33636237Y-4743181D01*
X33598817Y-4644514D01*
X33580220Y-4595477D01*
X33490483Y-4465470D01*
X33372240Y-4360717D01*
X33372238Y-4360716D01*
X33372237Y-4360715D01*
X33232365Y-4287303D01*
X33078986Y-4249500D01*
X33078985Y-4249500D01*
X32921015Y-4249500D01*
X32921014Y-4249500D01*
X32767634Y-4287303D01*
X32627762Y-4360715D01*
X32509516Y-4465471D01*
X32419781Y-4595475D01*
X32419780Y-4595476D01*
X32363762Y-4743181D01*
X32344722Y-4899999D01*
X32344722Y-4900000D01*
X28313898Y-4900000D01*
X28331249Y-4746002D01*
X28331249Y-4745997D01*
X28312314Y-4577943D01*
X28293694Y-4524730D01*
X28256456Y-4418310D01*
X28256454Y-4418307D01*
X28256454Y-4418306D01*
X28204828Y-4336145D01*
X28185827Y-4268908D01*
X28206194Y-4202073D01*
X28240930Y-4167071D01*
X28256601Y-4156601D01*
X28311966Y-4073740D01*
X28326500Y-4000674D01*
X28326500Y-3618097D01*
X34999500Y-3618097D01*
X35036446Y-3851368D01*
X35109433Y-4075996D01*
X35210888Y-4275110D01*
X35216657Y-4286433D01*
X35355483Y-4477510D01*
X35522490Y-4644517D01*
X35713567Y-4783343D01*
X35812991Y-4834002D01*
X35924003Y-4890566D01*
X35924005Y-4890566D01*
X35924008Y-4890568D01*
X36044412Y-4929689D01*
X36148631Y-4963553D01*
X36381903Y-5000500D01*
X36381908Y-5000500D01*
X36618097Y-5000500D01*
X36851368Y-4963553D01*
X37075992Y-4890568D01*
X37286433Y-4783343D01*
X37477510Y-4644517D01*
X37644517Y-4477510D01*
X37783343Y-4286433D01*
X37890568Y-4075992D01*
X37963553Y-3851368D01*
X37974271Y-3783697D01*
X38000500Y-3618097D01*
X38000500Y-3381902D01*
X37963553Y-3148631D01*
X37899443Y-2951323D01*
X37890568Y-2924008D01*
X37890566Y-2924005D01*
X37890566Y-2924003D01*
X37814848Y-2775399D01*
X37783343Y-2713567D01*
X37644517Y-2522490D01*
X37477510Y-2355483D01*
X37286433Y-2216657D01*
X37075996Y-2109433D01*
X36851368Y-2036446D01*
X36618097Y-1999500D01*
X36618092Y-1999500D01*
X36381908Y-1999500D01*
X36381903Y-1999500D01*
X36148631Y-2036446D01*
X35924003Y-2109433D01*
X35713566Y-2216657D01*
X35604550Y-2295862D01*
X35522490Y-2355483D01*
X35522488Y-2355485D01*
X35522487Y-2355485D01*
X35355485Y-2522487D01*
X35355485Y-2522488D01*
X35355483Y-2522490D01*
X35295862Y-2604550D01*
X35216657Y-2713566D01*
X35109433Y-2924003D01*
X35036446Y-3148631D01*
X34999500Y-3381902D01*
X34999500Y-3618097D01*
X28326500Y-3618097D01*
X28326500Y-2951326D01*
X28326500Y-2951323D01*
X28326499Y-2951321D01*
X28311967Y-2878264D01*
X28311966Y-2878260D01*
X28256601Y-2795399D01*
X28173740Y-2740034D01*
X28173739Y-2740033D01*
X28173735Y-2740032D01*
X28100677Y-2725500D01*
X28100674Y-2725500D01*
X27051326Y-2725500D01*
X27051323Y-2725500D01*
X26978264Y-2740032D01*
X26978260Y-2740033D01*
X26895399Y-2795399D01*
X26840033Y-2878260D01*
X26840032Y-2878264D01*
X26825500Y-2951321D01*
X26825500Y-4000678D01*
X26840032Y-4073735D01*
X26840033Y-4073739D01*
X26858405Y-4101235D01*
X26895399Y-4156601D01*
X26911068Y-4167070D01*
X26955872Y-4220679D01*
X26964582Y-4290004D01*
X26947172Y-4336144D01*
X26895545Y-4418307D01*
X26839685Y-4577943D01*
X26820751Y-4745997D01*
X26820751Y-4746002D01*
X24978996Y-4746002D01*
X24981249Y-4726002D01*
X24981249Y-4725997D01*
X24962314Y-4557943D01*
X24906454Y-4398305D01*
X24906452Y-4398302D01*
X24816481Y-4255115D01*
X24816476Y-4255109D01*
X24740048Y-4178681D01*
X24706563Y-4117358D01*
X24711547Y-4047666D01*
X24740048Y-4003319D01*
X24762695Y-3980672D01*
X24816477Y-3926890D01*
X24856432Y-3863303D01*
X24906452Y-3783697D01*
X24906454Y-3783694D01*
X24906454Y-3783692D01*
X24906456Y-3783690D01*
X24962313Y-3624059D01*
X24962313Y-3624058D01*
X24962314Y-3624056D01*
X24981249Y-3456002D01*
X24981249Y-3455997D01*
X24962314Y-3287943D01*
X24931860Y-3200913D01*
X24906456Y-3128310D01*
X24906455Y-3128309D01*
X24906454Y-3128305D01*
X24906452Y-3128302D01*
X24816481Y-2985115D01*
X24816476Y-2985109D01*
X24696890Y-2865523D01*
X24696884Y-2865518D01*
X24553697Y-2775547D01*
X24553694Y-2775545D01*
X24394056Y-2719685D01*
X24226003Y-2700751D01*
X24225997Y-2700751D01*
X24057943Y-2719685D01*
X23898305Y-2775545D01*
X23898302Y-2775547D01*
X23755115Y-2865518D01*
X23755109Y-2865523D01*
X23635523Y-2985109D01*
X23635518Y-2985115D01*
X23545547Y-3128302D01*
X23545545Y-3128305D01*
X23489685Y-3287943D01*
X23470751Y-3455997D01*
X23470751Y-3456002D01*
X23489685Y-3624056D01*
X23545545Y-3783694D01*
X23545547Y-3783697D01*
X23635518Y-3926884D01*
X23635523Y-3926890D01*
X23711952Y-4003319D01*
X23745437Y-4064642D01*
X23740453Y-4134334D01*
X23711952Y-4178681D01*
X23635523Y-4255109D01*
X23635518Y-4255115D01*
X23545547Y-4398302D01*
X23545545Y-4398305D01*
X23489685Y-4557943D01*
X23470751Y-4725997D01*
X23470751Y-4726002D01*
X21251000Y-4726002D01*
X21251000Y-4683213D01*
X21228851Y-4600555D01*
X21186064Y-4526446D01*
X21135618Y-4476000D01*
X21895160Y-4476000D01*
X21895160Y-4475999D01*
X21854347Y-4341458D01*
X21761496Y-4167746D01*
X21761492Y-4167739D01*
X21700336Y-4093221D01*
X21673023Y-4028911D01*
X21674572Y-3990362D01*
X21676500Y-3980674D01*
X21676500Y-2931326D01*
X21676500Y-2931323D01*
X21676499Y-2931321D01*
X21661967Y-2858264D01*
X21661966Y-2858260D01*
X21619964Y-2795399D01*
X21606601Y-2775399D01*
X21523740Y-2720034D01*
X21523739Y-2720033D01*
X21523735Y-2720032D01*
X21450677Y-2705500D01*
X21450674Y-2705500D01*
X20401326Y-2705500D01*
X20401323Y-2705500D01*
X20328264Y-2720032D01*
X20328260Y-2720033D01*
X20245399Y-2775399D01*
X20190033Y-2858260D01*
X20190032Y-2858264D01*
X20175500Y-2931321D01*
X20175500Y-3980672D01*
X20177428Y-3990366D01*
X20171199Y-4059958D01*
X20151664Y-4093220D01*
X20090507Y-4167740D01*
X20090505Y-4167742D01*
X19997652Y-4341458D01*
X19956839Y-4475999D01*
X19031278Y-4475999D01*
X19030000Y-4465470D01*
X19012237Y-4319181D01*
X18969502Y-4206500D01*
X18956220Y-4171477D01*
X18866483Y-4041470D01*
X18748240Y-3936717D01*
X18748238Y-3936716D01*
X18748237Y-3936715D01*
X18608365Y-3863303D01*
X18454986Y-3825500D01*
X18454985Y-3825500D01*
X18297015Y-3825500D01*
X18297014Y-3825500D01*
X18143634Y-3863303D01*
X18003762Y-3936715D01*
X17885516Y-4041471D01*
X17795781Y-4171475D01*
X17795780Y-4171476D01*
X17739762Y-4319181D01*
X17720722Y-4475999D01*
X17720722Y-4476000D01*
X4645614Y-4476000D01*
X4783343Y-4286433D01*
X4890568Y-4075992D01*
X4963553Y-3851368D01*
X4974271Y-3783697D01*
X4987528Y-3700000D01*
X9644722Y-3700000D01*
X9663762Y-3856818D01*
X9714411Y-3990366D01*
X9719780Y-4004523D01*
X9809517Y-4134530D01*
X9927760Y-4239283D01*
X9927762Y-4239284D01*
X10067634Y-4312696D01*
X10221014Y-4350500D01*
X10221015Y-4350500D01*
X10378985Y-4350500D01*
X10532365Y-4312696D01*
X10575600Y-4290004D01*
X10672240Y-4239283D01*
X10790483Y-4134530D01*
X10880220Y-4004523D01*
X10936237Y-3856818D01*
X10955278Y-3700000D01*
X10936237Y-3543182D01*
X10880220Y-3395477D01*
X10790483Y-3265470D01*
X10672240Y-3160717D01*
X10672238Y-3160716D01*
X10672237Y-3160715D01*
X10532365Y-3087303D01*
X10378986Y-3049500D01*
X10378985Y-3049500D01*
X10221015Y-3049500D01*
X10221014Y-3049500D01*
X10067634Y-3087303D01*
X9927762Y-3160715D01*
X9809516Y-3265471D01*
X9719781Y-3395475D01*
X9719780Y-3395476D01*
X9663762Y-3543181D01*
X9644722Y-3699999D01*
X9644722Y-3700000D01*
X4987528Y-3700000D01*
X5000500Y-3618097D01*
X5000500Y-3381902D01*
X4963553Y-3148631D01*
X4899443Y-2951323D01*
X4890568Y-2924008D01*
X4890566Y-2924005D01*
X4890566Y-2924003D01*
X4814848Y-2775399D01*
X4783343Y-2713567D01*
X4644517Y-2522490D01*
X4477510Y-2355483D01*
X4286433Y-2216657D01*
X4075996Y-2109433D01*
X3851368Y-2036446D01*
X3618097Y-1999500D01*
X3618092Y-1999500D01*
X3381908Y-1999500D01*
X3381903Y-1999500D01*
X3148631Y-2036446D01*
X2924003Y-2109433D01*
X2713566Y-2216657D01*
X2604550Y-2295862D01*
X2522490Y-2355483D01*
X2522488Y-2355485D01*
X2522487Y-2355485D01*
X2355485Y-2522487D01*
X2355485Y-2522488D01*
X2355483Y-2522490D01*
X2295862Y-2604550D01*
X2216657Y-2713566D01*
X2109433Y-2924003D01*
X2036446Y-3148631D01*
X1999500Y-3381902D01*
X1999500Y-3618097D01*
X0Y-3618097D01*
X0Y-124000D01*
X19685Y-56961D01*
X72489Y-11206D01*
X124000Y0D01*
X39876000Y0D01*
X39943039Y-19685D01*
G37*
G04 #@! TD.AperFunction*
M02*
