G04 #@! TF.GenerationSoftware,KiCad,Pcbnew,8.0.1*
G04 #@! TF.CreationDate,2024-06-15T21:09:50+03:00*
G04 #@! TF.ProjectId,FancyLight-V2,46616e63-794c-4696-9768-742d56322e6b,rev?*
G04 #@! TF.SameCoordinates,Original*
G04 #@! TF.FileFunction,Legend,Top*
G04 #@! TF.FilePolarity,Positive*
%FSLAX46Y46*%
G04 Gerber Fmt 4.6, Leading zero omitted, Abs format (unit mm)*
G04 Created by KiCad (PCBNEW 8.0.1) date 2024-06-15 21:09:50*
%MOMM*%
%LPD*%
G01*
G04 APERTURE LIST*
G04 Aperture macros list*
%AMRoundRect*
0 Rectangle with rounded corners*
0 $1 Rounding radius*
0 $2 $3 $4 $5 $6 $7 $8 $9 X,Y pos of 4 corners*
0 Add a 4 corners polygon primitive as box body*
4,1,4,$2,$3,$4,$5,$6,$7,$8,$9,$2,$3,0*
0 Add four circle primitives for the rounded corners*
1,1,$1+$1,$2,$3*
1,1,$1+$1,$4,$5*
1,1,$1+$1,$6,$7*
1,1,$1+$1,$8,$9*
0 Add four rect primitives between the rounded corners*
20,1,$1+$1,$2,$3,$4,$5,0*
20,1,$1+$1,$4,$5,$6,$7,0*
20,1,$1+$1,$6,$7,$8,$9,0*
20,1,$1+$1,$8,$9,$2,$3,0*%
G04 Aperture macros list end*
%ADD10C,0.150000*%
%ADD11C,0.000000*%
%ADD12C,0.120000*%
%ADD13C,0.254000*%
%ADD14C,0.200000*%
%ADD15C,0.127000*%
%ADD16C,0.250000*%
%ADD17C,0.152000*%
%ADD18C,2.100000*%
%ADD19RoundRect,0.062500X0.362500X0.062500X-0.362500X0.062500X-0.362500X-0.062500X0.362500X-0.062500X0*%
%ADD20RoundRect,0.062500X0.062500X0.362500X-0.062500X0.362500X-0.062500X-0.362500X0.062500X-0.362500X0*%
%ADD21R,2.600000X2.600000*%
%ADD22RoundRect,0.218750X0.218750X0.256250X-0.218750X0.256250X-0.218750X-0.256250X0.218750X-0.256250X0*%
%ADD23RoundRect,0.225000X-0.225000X-0.250000X0.225000X-0.250000X0.225000X0.250000X-0.225000X0.250000X0*%
%ADD24RoundRect,0.200000X0.275000X-0.200000X0.275000X0.200000X-0.275000X0.200000X-0.275000X-0.200000X0*%
%ADD25R,1.000000X1.000000*%
%ADD26O,1.000000X1.000000*%
%ADD27R,0.700000X1.150000*%
%ADD28RoundRect,0.200000X-0.275000X0.200000X-0.275000X-0.200000X0.275000X-0.200000X0.275000X0.200000X0*%
%ADD29RoundRect,0.250000X0.450000X-0.262500X0.450000X0.262500X-0.450000X0.262500X-0.450000X-0.262500X0*%
%ADD30RoundRect,0.200000X-0.200000X-0.275000X0.200000X-0.275000X0.200000X0.275000X-0.200000X0.275000X0*%
%ADD31C,2.500000*%
%ADD32R,2.500000X2.200000*%
%ADD33R,1.550000X2.200000*%
%ADD34RoundRect,0.225000X0.375000X-0.225000X0.375000X0.225000X-0.375000X0.225000X-0.375000X-0.225000X0*%
%ADD35R,1.700000X1.700000*%
%ADD36O,1.700000X1.700000*%
%ADD37R,3.320000X1.500000*%
%ADD38RoundRect,0.200000X0.200000X0.275000X-0.200000X0.275000X-0.200000X-0.275000X0.200000X-0.275000X0*%
%ADD39RoundRect,0.250000X-0.450000X0.262500X-0.450000X-0.262500X0.450000X-0.262500X0.450000X0.262500X0*%
%ADD40RoundRect,0.250000X-0.475000X0.250000X-0.475000X-0.250000X0.475000X-0.250000X0.475000X0.250000X0*%
%ADD41RoundRect,0.225000X-0.225000X-0.375000X0.225000X-0.375000X0.225000X0.375000X-0.225000X0.375000X0*%
%ADD42RoundRect,0.150000X-0.587500X-0.150000X0.587500X-0.150000X0.587500X0.150000X-0.587500X0.150000X0*%
%ADD43RoundRect,0.042000X-0.943000X-0.258000X0.943000X-0.258000X0.943000X0.258000X-0.943000X0.258000X0*%
%ADD44R,2.413000X3.302000*%
%ADD45RoundRect,0.225000X0.225000X0.250000X-0.225000X0.250000X-0.225000X-0.250000X0.225000X-0.250000X0*%
%ADD46RoundRect,0.112500X-0.112500X0.187500X-0.112500X-0.187500X0.112500X-0.187500X0.112500X0.187500X0*%
%ADD47RoundRect,0.150000X-0.512500X-0.150000X0.512500X-0.150000X0.512500X0.150000X-0.512500X0.150000X0*%
%ADD48RoundRect,0.250000X0.250000X0.475000X-0.250000X0.475000X-0.250000X-0.475000X0.250000X-0.475000X0*%
%ADD49RoundRect,0.225000X0.250000X-0.225000X0.250000X0.225000X-0.250000X0.225000X-0.250000X-0.225000X0*%
%ADD50O,1.100000X1.900000*%
%ADD51R,0.700000X1.000000*%
%ADD52R,0.800000X1.000000*%
%ADD53R,1.250000X0.700000*%
%ADD54R,0.800000X0.500000*%
%ADD55R,0.800000X0.400000*%
G04 APERTURE END LIST*
D10*
X32441541Y-24903152D02*
X32679636Y-25569819D01*
X32679636Y-25569819D02*
X32917731Y-24903152D01*
X33203446Y-24569819D02*
X33822493Y-24569819D01*
X33822493Y-24569819D02*
X33489160Y-24950771D01*
X33489160Y-24950771D02*
X33632017Y-24950771D01*
X33632017Y-24950771D02*
X33727255Y-24998390D01*
X33727255Y-24998390D02*
X33774874Y-25046009D01*
X33774874Y-25046009D02*
X33822493Y-25141247D01*
X33822493Y-25141247D02*
X33822493Y-25379342D01*
X33822493Y-25379342D02*
X33774874Y-25474580D01*
X33774874Y-25474580D02*
X33727255Y-25522200D01*
X33727255Y-25522200D02*
X33632017Y-25569819D01*
X33632017Y-25569819D02*
X33346303Y-25569819D01*
X33346303Y-25569819D02*
X33251065Y-25522200D01*
X33251065Y-25522200D02*
X33203446Y-25474580D01*
X34251065Y-25474580D02*
X34298684Y-25522200D01*
X34298684Y-25522200D02*
X34251065Y-25569819D01*
X34251065Y-25569819D02*
X34203446Y-25522200D01*
X34203446Y-25522200D02*
X34251065Y-25474580D01*
X34251065Y-25474580D02*
X34251065Y-25569819D01*
X35251064Y-25569819D02*
X34679636Y-25569819D01*
X34965350Y-25569819D02*
X34965350Y-24569819D01*
X34965350Y-24569819D02*
X34870112Y-24712676D01*
X34870112Y-24712676D02*
X34774874Y-24807914D01*
X34774874Y-24807914D02*
X34679636Y-24855533D01*
X27733333Y-32459580D02*
X27685714Y-32507200D01*
X27685714Y-32507200D02*
X27542857Y-32554819D01*
X27542857Y-32554819D02*
X27447619Y-32554819D01*
X27447619Y-32554819D02*
X27304762Y-32507200D01*
X27304762Y-32507200D02*
X27209524Y-32411961D01*
X27209524Y-32411961D02*
X27161905Y-32316723D01*
X27161905Y-32316723D02*
X27114286Y-32126247D01*
X27114286Y-32126247D02*
X27114286Y-31983390D01*
X27114286Y-31983390D02*
X27161905Y-31792914D01*
X27161905Y-31792914D02*
X27209524Y-31697676D01*
X27209524Y-31697676D02*
X27304762Y-31602438D01*
X27304762Y-31602438D02*
X27447619Y-31554819D01*
X27447619Y-31554819D02*
X27542857Y-31554819D01*
X27542857Y-31554819D02*
X27685714Y-31602438D01*
X27685714Y-31602438D02*
X27733333Y-31650057D01*
X28066667Y-31554819D02*
X28685714Y-31554819D01*
X28685714Y-31554819D02*
X28352381Y-31935771D01*
X28352381Y-31935771D02*
X28495238Y-31935771D01*
X28495238Y-31935771D02*
X28590476Y-31983390D01*
X28590476Y-31983390D02*
X28638095Y-32031009D01*
X28638095Y-32031009D02*
X28685714Y-32126247D01*
X28685714Y-32126247D02*
X28685714Y-32364342D01*
X28685714Y-32364342D02*
X28638095Y-32459580D01*
X28638095Y-32459580D02*
X28590476Y-32507200D01*
X28590476Y-32507200D02*
X28495238Y-32554819D01*
X28495238Y-32554819D02*
X28209524Y-32554819D01*
X28209524Y-32554819D02*
X28114286Y-32507200D01*
X28114286Y-32507200D02*
X28066667Y-32459580D01*
X36357142Y-33054819D02*
X36023809Y-32578628D01*
X35785714Y-33054819D02*
X35785714Y-32054819D01*
X35785714Y-32054819D02*
X36166666Y-32054819D01*
X36166666Y-32054819D02*
X36261904Y-32102438D01*
X36261904Y-32102438D02*
X36309523Y-32150057D01*
X36309523Y-32150057D02*
X36357142Y-32245295D01*
X36357142Y-32245295D02*
X36357142Y-32388152D01*
X36357142Y-32388152D02*
X36309523Y-32483390D01*
X36309523Y-32483390D02*
X36261904Y-32531009D01*
X36261904Y-32531009D02*
X36166666Y-32578628D01*
X36166666Y-32578628D02*
X35785714Y-32578628D01*
X37309523Y-33054819D02*
X36738095Y-33054819D01*
X37023809Y-33054819D02*
X37023809Y-32054819D01*
X37023809Y-32054819D02*
X36928571Y-32197676D01*
X36928571Y-32197676D02*
X36833333Y-32292914D01*
X36833333Y-32292914D02*
X36738095Y-32340533D01*
X37690476Y-32150057D02*
X37738095Y-32102438D01*
X37738095Y-32102438D02*
X37833333Y-32054819D01*
X37833333Y-32054819D02*
X38071428Y-32054819D01*
X38071428Y-32054819D02*
X38166666Y-32102438D01*
X38166666Y-32102438D02*
X38214285Y-32150057D01*
X38214285Y-32150057D02*
X38261904Y-32245295D01*
X38261904Y-32245295D02*
X38261904Y-32340533D01*
X38261904Y-32340533D02*
X38214285Y-32483390D01*
X38214285Y-32483390D02*
X37642857Y-33054819D01*
X37642857Y-33054819D02*
X38261904Y-33054819D01*
X27733333Y-30154819D02*
X27400000Y-29678628D01*
X27161905Y-30154819D02*
X27161905Y-29154819D01*
X27161905Y-29154819D02*
X27542857Y-29154819D01*
X27542857Y-29154819D02*
X27638095Y-29202438D01*
X27638095Y-29202438D02*
X27685714Y-29250057D01*
X27685714Y-29250057D02*
X27733333Y-29345295D01*
X27733333Y-29345295D02*
X27733333Y-29488152D01*
X27733333Y-29488152D02*
X27685714Y-29583390D01*
X27685714Y-29583390D02*
X27638095Y-29631009D01*
X27638095Y-29631009D02*
X27542857Y-29678628D01*
X27542857Y-29678628D02*
X27161905Y-29678628D01*
X28590476Y-29154819D02*
X28400000Y-29154819D01*
X28400000Y-29154819D02*
X28304762Y-29202438D01*
X28304762Y-29202438D02*
X28257143Y-29250057D01*
X28257143Y-29250057D02*
X28161905Y-29392914D01*
X28161905Y-29392914D02*
X28114286Y-29583390D01*
X28114286Y-29583390D02*
X28114286Y-29964342D01*
X28114286Y-29964342D02*
X28161905Y-30059580D01*
X28161905Y-30059580D02*
X28209524Y-30107200D01*
X28209524Y-30107200D02*
X28304762Y-30154819D01*
X28304762Y-30154819D02*
X28495238Y-30154819D01*
X28495238Y-30154819D02*
X28590476Y-30107200D01*
X28590476Y-30107200D02*
X28638095Y-30059580D01*
X28638095Y-30059580D02*
X28685714Y-29964342D01*
X28685714Y-29964342D02*
X28685714Y-29726247D01*
X28685714Y-29726247D02*
X28638095Y-29631009D01*
X28638095Y-29631009D02*
X28590476Y-29583390D01*
X28590476Y-29583390D02*
X28495238Y-29535771D01*
X28495238Y-29535771D02*
X28304762Y-29535771D01*
X28304762Y-29535771D02*
X28209524Y-29583390D01*
X28209524Y-29583390D02*
X28161905Y-29631009D01*
X28161905Y-29631009D02*
X28114286Y-29726247D01*
X11533333Y-36754819D02*
X11200000Y-36278628D01*
X10961905Y-36754819D02*
X10961905Y-35754819D01*
X10961905Y-35754819D02*
X11342857Y-35754819D01*
X11342857Y-35754819D02*
X11438095Y-35802438D01*
X11438095Y-35802438D02*
X11485714Y-35850057D01*
X11485714Y-35850057D02*
X11533333Y-35945295D01*
X11533333Y-35945295D02*
X11533333Y-36088152D01*
X11533333Y-36088152D02*
X11485714Y-36183390D01*
X11485714Y-36183390D02*
X11438095Y-36231009D01*
X11438095Y-36231009D02*
X11342857Y-36278628D01*
X11342857Y-36278628D02*
X10961905Y-36278628D01*
X12438095Y-35754819D02*
X11961905Y-35754819D01*
X11961905Y-35754819D02*
X11914286Y-36231009D01*
X11914286Y-36231009D02*
X11961905Y-36183390D01*
X11961905Y-36183390D02*
X12057143Y-36135771D01*
X12057143Y-36135771D02*
X12295238Y-36135771D01*
X12295238Y-36135771D02*
X12390476Y-36183390D01*
X12390476Y-36183390D02*
X12438095Y-36231009D01*
X12438095Y-36231009D02*
X12485714Y-36326247D01*
X12485714Y-36326247D02*
X12485714Y-36564342D01*
X12485714Y-36564342D02*
X12438095Y-36659580D01*
X12438095Y-36659580D02*
X12390476Y-36707200D01*
X12390476Y-36707200D02*
X12295238Y-36754819D01*
X12295238Y-36754819D02*
X12057143Y-36754819D01*
X12057143Y-36754819D02*
X11961905Y-36707200D01*
X11961905Y-36707200D02*
X11914286Y-36659580D01*
X27354819Y-36888094D02*
X26354819Y-36888094D01*
X26354819Y-36888094D02*
X26354819Y-36649999D01*
X26354819Y-36649999D02*
X26402438Y-36507142D01*
X26402438Y-36507142D02*
X26497676Y-36411904D01*
X26497676Y-36411904D02*
X26592914Y-36364285D01*
X26592914Y-36364285D02*
X26783390Y-36316666D01*
X26783390Y-36316666D02*
X26926247Y-36316666D01*
X26926247Y-36316666D02*
X27116723Y-36364285D01*
X27116723Y-36364285D02*
X27211961Y-36411904D01*
X27211961Y-36411904D02*
X27307200Y-36507142D01*
X27307200Y-36507142D02*
X27354819Y-36649999D01*
X27354819Y-36649999D02*
X27354819Y-36888094D01*
X26783390Y-35745237D02*
X26735771Y-35840475D01*
X26735771Y-35840475D02*
X26688152Y-35888094D01*
X26688152Y-35888094D02*
X26592914Y-35935713D01*
X26592914Y-35935713D02*
X26545295Y-35935713D01*
X26545295Y-35935713D02*
X26450057Y-35888094D01*
X26450057Y-35888094D02*
X26402438Y-35840475D01*
X26402438Y-35840475D02*
X26354819Y-35745237D01*
X26354819Y-35745237D02*
X26354819Y-35554761D01*
X26354819Y-35554761D02*
X26402438Y-35459523D01*
X26402438Y-35459523D02*
X26450057Y-35411904D01*
X26450057Y-35411904D02*
X26545295Y-35364285D01*
X26545295Y-35364285D02*
X26592914Y-35364285D01*
X26592914Y-35364285D02*
X26688152Y-35411904D01*
X26688152Y-35411904D02*
X26735771Y-35459523D01*
X26735771Y-35459523D02*
X26783390Y-35554761D01*
X26783390Y-35554761D02*
X26783390Y-35745237D01*
X26783390Y-35745237D02*
X26831009Y-35840475D01*
X26831009Y-35840475D02*
X26878628Y-35888094D01*
X26878628Y-35888094D02*
X26973866Y-35935713D01*
X26973866Y-35935713D02*
X27164342Y-35935713D01*
X27164342Y-35935713D02*
X27259580Y-35888094D01*
X27259580Y-35888094D02*
X27307200Y-35840475D01*
X27307200Y-35840475D02*
X27354819Y-35745237D01*
X27354819Y-35745237D02*
X27354819Y-35554761D01*
X27354819Y-35554761D02*
X27307200Y-35459523D01*
X27307200Y-35459523D02*
X27259580Y-35411904D01*
X27259580Y-35411904D02*
X27164342Y-35364285D01*
X27164342Y-35364285D02*
X26973866Y-35364285D01*
X26973866Y-35364285D02*
X26878628Y-35411904D01*
X26878628Y-35411904D02*
X26831009Y-35459523D01*
X26831009Y-35459523D02*
X26783390Y-35554761D01*
X22439411Y-21154819D02*
X22439411Y-21964342D01*
X22439411Y-21964342D02*
X22487030Y-22059580D01*
X22487030Y-22059580D02*
X22534649Y-22107200D01*
X22534649Y-22107200D02*
X22629887Y-22154819D01*
X22629887Y-22154819D02*
X22820363Y-22154819D01*
X22820363Y-22154819D02*
X22915601Y-22107200D01*
X22915601Y-22107200D02*
X22963220Y-22059580D01*
X22963220Y-22059580D02*
X23010839Y-21964342D01*
X23010839Y-21964342D02*
X23010839Y-21154819D01*
X24010839Y-22154819D02*
X23439411Y-22154819D01*
X23725125Y-22154819D02*
X23725125Y-21154819D01*
X23725125Y-21154819D02*
X23629887Y-21297676D01*
X23629887Y-21297676D02*
X23534649Y-21392914D01*
X23534649Y-21392914D02*
X23439411Y-21440533D01*
X13399819Y-28466666D02*
X12923628Y-28799999D01*
X13399819Y-29038094D02*
X12399819Y-29038094D01*
X12399819Y-29038094D02*
X12399819Y-28657142D01*
X12399819Y-28657142D02*
X12447438Y-28561904D01*
X12447438Y-28561904D02*
X12495057Y-28514285D01*
X12495057Y-28514285D02*
X12590295Y-28466666D01*
X12590295Y-28466666D02*
X12733152Y-28466666D01*
X12733152Y-28466666D02*
X12828390Y-28514285D01*
X12828390Y-28514285D02*
X12876009Y-28561904D01*
X12876009Y-28561904D02*
X12923628Y-28657142D01*
X12923628Y-28657142D02*
X12923628Y-29038094D01*
X13399819Y-27514285D02*
X13399819Y-28085713D01*
X13399819Y-27799999D02*
X12399819Y-27799999D01*
X12399819Y-27799999D02*
X12542676Y-27895237D01*
X12542676Y-27895237D02*
X12637914Y-27990475D01*
X12637914Y-27990475D02*
X12685533Y-28085713D01*
X25933333Y-22109580D02*
X25885714Y-22157200D01*
X25885714Y-22157200D02*
X25742857Y-22204819D01*
X25742857Y-22204819D02*
X25647619Y-22204819D01*
X25647619Y-22204819D02*
X25504762Y-22157200D01*
X25504762Y-22157200D02*
X25409524Y-22061961D01*
X25409524Y-22061961D02*
X25361905Y-21966723D01*
X25361905Y-21966723D02*
X25314286Y-21776247D01*
X25314286Y-21776247D02*
X25314286Y-21633390D01*
X25314286Y-21633390D02*
X25361905Y-21442914D01*
X25361905Y-21442914D02*
X25409524Y-21347676D01*
X25409524Y-21347676D02*
X25504762Y-21252438D01*
X25504762Y-21252438D02*
X25647619Y-21204819D01*
X25647619Y-21204819D02*
X25742857Y-21204819D01*
X25742857Y-21204819D02*
X25885714Y-21252438D01*
X25885714Y-21252438D02*
X25933333Y-21300057D01*
X26314286Y-21300057D02*
X26361905Y-21252438D01*
X26361905Y-21252438D02*
X26457143Y-21204819D01*
X26457143Y-21204819D02*
X26695238Y-21204819D01*
X26695238Y-21204819D02*
X26790476Y-21252438D01*
X26790476Y-21252438D02*
X26838095Y-21300057D01*
X26838095Y-21300057D02*
X26885714Y-21395295D01*
X26885714Y-21395295D02*
X26885714Y-21490533D01*
X26885714Y-21490533D02*
X26838095Y-21633390D01*
X26838095Y-21633390D02*
X26266667Y-22204819D01*
X26266667Y-22204819D02*
X26885714Y-22204819D01*
X17661905Y-17654819D02*
X17661905Y-16654819D01*
X17661905Y-16654819D02*
X17900000Y-16654819D01*
X17900000Y-16654819D02*
X18042857Y-16702438D01*
X18042857Y-16702438D02*
X18138095Y-16797676D01*
X18138095Y-16797676D02*
X18185714Y-16892914D01*
X18185714Y-16892914D02*
X18233333Y-17083390D01*
X18233333Y-17083390D02*
X18233333Y-17226247D01*
X18233333Y-17226247D02*
X18185714Y-17416723D01*
X18185714Y-17416723D02*
X18138095Y-17511961D01*
X18138095Y-17511961D02*
X18042857Y-17607200D01*
X18042857Y-17607200D02*
X17900000Y-17654819D01*
X17900000Y-17654819D02*
X17661905Y-17654819D01*
X19138095Y-16654819D02*
X18661905Y-16654819D01*
X18661905Y-16654819D02*
X18614286Y-17131009D01*
X18614286Y-17131009D02*
X18661905Y-17083390D01*
X18661905Y-17083390D02*
X18757143Y-17035771D01*
X18757143Y-17035771D02*
X18995238Y-17035771D01*
X18995238Y-17035771D02*
X19090476Y-17083390D01*
X19090476Y-17083390D02*
X19138095Y-17131009D01*
X19138095Y-17131009D02*
X19185714Y-17226247D01*
X19185714Y-17226247D02*
X19185714Y-17464342D01*
X19185714Y-17464342D02*
X19138095Y-17559580D01*
X19138095Y-17559580D02*
X19090476Y-17607200D01*
X19090476Y-17607200D02*
X18995238Y-17654819D01*
X18995238Y-17654819D02*
X18757143Y-17654819D01*
X18757143Y-17654819D02*
X18661905Y-17607200D01*
X18661905Y-17607200D02*
X18614286Y-17559580D01*
X13533333Y-38154819D02*
X13200000Y-37678628D01*
X12961905Y-38154819D02*
X12961905Y-37154819D01*
X12961905Y-37154819D02*
X13342857Y-37154819D01*
X13342857Y-37154819D02*
X13438095Y-37202438D01*
X13438095Y-37202438D02*
X13485714Y-37250057D01*
X13485714Y-37250057D02*
X13533333Y-37345295D01*
X13533333Y-37345295D02*
X13533333Y-37488152D01*
X13533333Y-37488152D02*
X13485714Y-37583390D01*
X13485714Y-37583390D02*
X13438095Y-37631009D01*
X13438095Y-37631009D02*
X13342857Y-37678628D01*
X13342857Y-37678628D02*
X12961905Y-37678628D01*
X14390476Y-37488152D02*
X14390476Y-38154819D01*
X14152381Y-37107200D02*
X13914286Y-37821485D01*
X13914286Y-37821485D02*
X14533333Y-37821485D01*
X18138095Y-23154819D02*
X18138095Y-23964342D01*
X18138095Y-23964342D02*
X18185714Y-24059580D01*
X18185714Y-24059580D02*
X18233333Y-24107200D01*
X18233333Y-24107200D02*
X18328571Y-24154819D01*
X18328571Y-24154819D02*
X18519047Y-24154819D01*
X18519047Y-24154819D02*
X18614285Y-24107200D01*
X18614285Y-24107200D02*
X18661904Y-24059580D01*
X18661904Y-24059580D02*
X18709523Y-23964342D01*
X18709523Y-23964342D02*
X18709523Y-23154819D01*
X19138095Y-23250057D02*
X19185714Y-23202438D01*
X19185714Y-23202438D02*
X19280952Y-23154819D01*
X19280952Y-23154819D02*
X19519047Y-23154819D01*
X19519047Y-23154819D02*
X19614285Y-23202438D01*
X19614285Y-23202438D02*
X19661904Y-23250057D01*
X19661904Y-23250057D02*
X19709523Y-23345295D01*
X19709523Y-23345295D02*
X19709523Y-23440533D01*
X19709523Y-23440533D02*
X19661904Y-23583390D01*
X19661904Y-23583390D02*
X19090476Y-24154819D01*
X19090476Y-24154819D02*
X19709523Y-24154819D01*
X13533333Y-19259580D02*
X13485714Y-19307200D01*
X13485714Y-19307200D02*
X13342857Y-19354819D01*
X13342857Y-19354819D02*
X13247619Y-19354819D01*
X13247619Y-19354819D02*
X13104762Y-19307200D01*
X13104762Y-19307200D02*
X13009524Y-19211961D01*
X13009524Y-19211961D02*
X12961905Y-19116723D01*
X12961905Y-19116723D02*
X12914286Y-18926247D01*
X12914286Y-18926247D02*
X12914286Y-18783390D01*
X12914286Y-18783390D02*
X12961905Y-18592914D01*
X12961905Y-18592914D02*
X13009524Y-18497676D01*
X13009524Y-18497676D02*
X13104762Y-18402438D01*
X13104762Y-18402438D02*
X13247619Y-18354819D01*
X13247619Y-18354819D02*
X13342857Y-18354819D01*
X13342857Y-18354819D02*
X13485714Y-18402438D01*
X13485714Y-18402438D02*
X13533333Y-18450057D01*
X14390476Y-18688152D02*
X14390476Y-19354819D01*
X14152381Y-18307200D02*
X13914286Y-19021485D01*
X13914286Y-19021485D02*
X14533333Y-19021485D01*
X13459580Y-31166666D02*
X13507200Y-31214285D01*
X13507200Y-31214285D02*
X13554819Y-31357142D01*
X13554819Y-31357142D02*
X13554819Y-31452380D01*
X13554819Y-31452380D02*
X13507200Y-31595237D01*
X13507200Y-31595237D02*
X13411961Y-31690475D01*
X13411961Y-31690475D02*
X13316723Y-31738094D01*
X13316723Y-31738094D02*
X13126247Y-31785713D01*
X13126247Y-31785713D02*
X12983390Y-31785713D01*
X12983390Y-31785713D02*
X12792914Y-31738094D01*
X12792914Y-31738094D02*
X12697676Y-31690475D01*
X12697676Y-31690475D02*
X12602438Y-31595237D01*
X12602438Y-31595237D02*
X12554819Y-31452380D01*
X12554819Y-31452380D02*
X12554819Y-31357142D01*
X12554819Y-31357142D02*
X12602438Y-31214285D01*
X12602438Y-31214285D02*
X12650057Y-31166666D01*
X13554819Y-30214285D02*
X13554819Y-30785713D01*
X13554819Y-30499999D02*
X12554819Y-30499999D01*
X12554819Y-30499999D02*
X12697676Y-30595237D01*
X12697676Y-30595237D02*
X12792914Y-30690475D01*
X12792914Y-30690475D02*
X12840533Y-30785713D01*
X29733333Y-29259580D02*
X29685714Y-29307200D01*
X29685714Y-29307200D02*
X29542857Y-29354819D01*
X29542857Y-29354819D02*
X29447619Y-29354819D01*
X29447619Y-29354819D02*
X29304762Y-29307200D01*
X29304762Y-29307200D02*
X29209524Y-29211961D01*
X29209524Y-29211961D02*
X29161905Y-29116723D01*
X29161905Y-29116723D02*
X29114286Y-28926247D01*
X29114286Y-28926247D02*
X29114286Y-28783390D01*
X29114286Y-28783390D02*
X29161905Y-28592914D01*
X29161905Y-28592914D02*
X29209524Y-28497676D01*
X29209524Y-28497676D02*
X29304762Y-28402438D01*
X29304762Y-28402438D02*
X29447619Y-28354819D01*
X29447619Y-28354819D02*
X29542857Y-28354819D01*
X29542857Y-28354819D02*
X29685714Y-28402438D01*
X29685714Y-28402438D02*
X29733333Y-28450057D01*
X30590476Y-28354819D02*
X30400000Y-28354819D01*
X30400000Y-28354819D02*
X30304762Y-28402438D01*
X30304762Y-28402438D02*
X30257143Y-28450057D01*
X30257143Y-28450057D02*
X30161905Y-28592914D01*
X30161905Y-28592914D02*
X30114286Y-28783390D01*
X30114286Y-28783390D02*
X30114286Y-29164342D01*
X30114286Y-29164342D02*
X30161905Y-29259580D01*
X30161905Y-29259580D02*
X30209524Y-29307200D01*
X30209524Y-29307200D02*
X30304762Y-29354819D01*
X30304762Y-29354819D02*
X30495238Y-29354819D01*
X30495238Y-29354819D02*
X30590476Y-29307200D01*
X30590476Y-29307200D02*
X30638095Y-29259580D01*
X30638095Y-29259580D02*
X30685714Y-29164342D01*
X30685714Y-29164342D02*
X30685714Y-28926247D01*
X30685714Y-28926247D02*
X30638095Y-28831009D01*
X30638095Y-28831009D02*
X30590476Y-28783390D01*
X30590476Y-28783390D02*
X30495238Y-28735771D01*
X30495238Y-28735771D02*
X30304762Y-28735771D01*
X30304762Y-28735771D02*
X30209524Y-28783390D01*
X30209524Y-28783390D02*
X30161905Y-28831009D01*
X30161905Y-28831009D02*
X30114286Y-28926247D01*
X29754819Y-36938094D02*
X28754819Y-36938094D01*
X28754819Y-36938094D02*
X28754819Y-36699999D01*
X28754819Y-36699999D02*
X28802438Y-36557142D01*
X28802438Y-36557142D02*
X28897676Y-36461904D01*
X28897676Y-36461904D02*
X28992914Y-36414285D01*
X28992914Y-36414285D02*
X29183390Y-36366666D01*
X29183390Y-36366666D02*
X29326247Y-36366666D01*
X29326247Y-36366666D02*
X29516723Y-36414285D01*
X29516723Y-36414285D02*
X29611961Y-36461904D01*
X29611961Y-36461904D02*
X29707200Y-36557142D01*
X29707200Y-36557142D02*
X29754819Y-36699999D01*
X29754819Y-36699999D02*
X29754819Y-36938094D01*
X29754819Y-35890475D02*
X29754819Y-35699999D01*
X29754819Y-35699999D02*
X29707200Y-35604761D01*
X29707200Y-35604761D02*
X29659580Y-35557142D01*
X29659580Y-35557142D02*
X29516723Y-35461904D01*
X29516723Y-35461904D02*
X29326247Y-35414285D01*
X29326247Y-35414285D02*
X28945295Y-35414285D01*
X28945295Y-35414285D02*
X28850057Y-35461904D01*
X28850057Y-35461904D02*
X28802438Y-35509523D01*
X28802438Y-35509523D02*
X28754819Y-35604761D01*
X28754819Y-35604761D02*
X28754819Y-35795237D01*
X28754819Y-35795237D02*
X28802438Y-35890475D01*
X28802438Y-35890475D02*
X28850057Y-35938094D01*
X28850057Y-35938094D02*
X28945295Y-35985713D01*
X28945295Y-35985713D02*
X29183390Y-35985713D01*
X29183390Y-35985713D02*
X29278628Y-35938094D01*
X29278628Y-35938094D02*
X29326247Y-35890475D01*
X29326247Y-35890475D02*
X29373866Y-35795237D01*
X29373866Y-35795237D02*
X29373866Y-35604761D01*
X29373866Y-35604761D02*
X29326247Y-35509523D01*
X29326247Y-35509523D02*
X29278628Y-35461904D01*
X29278628Y-35461904D02*
X29183390Y-35414285D01*
X18436779Y-36254819D02*
X18436779Y-37064342D01*
X18436779Y-37064342D02*
X18484398Y-37159580D01*
X18484398Y-37159580D02*
X18532017Y-37207200D01*
X18532017Y-37207200D02*
X18627255Y-37254819D01*
X18627255Y-37254819D02*
X18817731Y-37254819D01*
X18817731Y-37254819D02*
X18912969Y-37207200D01*
X18912969Y-37207200D02*
X18960588Y-37159580D01*
X18960588Y-37159580D02*
X19008207Y-37064342D01*
X19008207Y-37064342D02*
X19008207Y-36254819D01*
X19436779Y-37207200D02*
X19579636Y-37254819D01*
X19579636Y-37254819D02*
X19817731Y-37254819D01*
X19817731Y-37254819D02*
X19912969Y-37207200D01*
X19912969Y-37207200D02*
X19960588Y-37159580D01*
X19960588Y-37159580D02*
X20008207Y-37064342D01*
X20008207Y-37064342D02*
X20008207Y-36969104D01*
X20008207Y-36969104D02*
X19960588Y-36873866D01*
X19960588Y-36873866D02*
X19912969Y-36826247D01*
X19912969Y-36826247D02*
X19817731Y-36778628D01*
X19817731Y-36778628D02*
X19627255Y-36731009D01*
X19627255Y-36731009D02*
X19532017Y-36683390D01*
X19532017Y-36683390D02*
X19484398Y-36635771D01*
X19484398Y-36635771D02*
X19436779Y-36540533D01*
X19436779Y-36540533D02*
X19436779Y-36445295D01*
X19436779Y-36445295D02*
X19484398Y-36350057D01*
X19484398Y-36350057D02*
X19532017Y-36302438D01*
X19532017Y-36302438D02*
X19627255Y-36254819D01*
X19627255Y-36254819D02*
X19865350Y-36254819D01*
X19865350Y-36254819D02*
X20008207Y-36302438D01*
X20770112Y-36731009D02*
X20912969Y-36778628D01*
X20912969Y-36778628D02*
X20960588Y-36826247D01*
X20960588Y-36826247D02*
X21008207Y-36921485D01*
X21008207Y-36921485D02*
X21008207Y-37064342D01*
X21008207Y-37064342D02*
X20960588Y-37159580D01*
X20960588Y-37159580D02*
X20912969Y-37207200D01*
X20912969Y-37207200D02*
X20817731Y-37254819D01*
X20817731Y-37254819D02*
X20436779Y-37254819D01*
X20436779Y-37254819D02*
X20436779Y-36254819D01*
X20436779Y-36254819D02*
X20770112Y-36254819D01*
X20770112Y-36254819D02*
X20865350Y-36302438D01*
X20865350Y-36302438D02*
X20912969Y-36350057D01*
X20912969Y-36350057D02*
X20960588Y-36445295D01*
X20960588Y-36445295D02*
X20960588Y-36540533D01*
X20960588Y-36540533D02*
X20912969Y-36635771D01*
X20912969Y-36635771D02*
X20865350Y-36683390D01*
X20865350Y-36683390D02*
X20770112Y-36731009D01*
X20770112Y-36731009D02*
X20436779Y-36731009D01*
X21960588Y-37254819D02*
X21389160Y-37254819D01*
X21674874Y-37254819D02*
X21674874Y-36254819D01*
X21674874Y-36254819D02*
X21579636Y-36397676D01*
X21579636Y-36397676D02*
X21484398Y-36492914D01*
X21484398Y-36492914D02*
X21389160Y-36540533D01*
D11*
G36*
X33895594Y-17293349D02*
G01*
X33906040Y-17300223D01*
X33925658Y-17312509D01*
X33958068Y-17331211D01*
X33998714Y-17353758D01*
X34041654Y-17376840D01*
X34087992Y-17401657D01*
X34132537Y-17426050D01*
X34169934Y-17447053D01*
X34193077Y-17460625D01*
X34225105Y-17479926D01*
X34264874Y-17503449D01*
X34299372Y-17523550D01*
X34337657Y-17546236D01*
X34375770Y-17569760D01*
X34402689Y-17587196D01*
X34422571Y-17599870D01*
X34453339Y-17618611D01*
X34491575Y-17641430D01*
X34533859Y-17666336D01*
X34576774Y-17691338D01*
X34616902Y-17714446D01*
X34650823Y-17733669D01*
X34675120Y-17747017D01*
X34686375Y-17752499D01*
X34686629Y-17752538D01*
X34695660Y-17757325D01*
X34718538Y-17770562D01*
X34752405Y-17790565D01*
X34794402Y-17815650D01*
X34826164Y-17834763D01*
X34875430Y-17864254D01*
X34921800Y-17891577D01*
X34961391Y-17914477D01*
X34990319Y-17930696D01*
X35000269Y-17935946D01*
X35026927Y-17949942D01*
X35063479Y-17969955D01*
X35102946Y-17992151D01*
X35111384Y-17996979D01*
X35146571Y-18017186D01*
X35193457Y-18044115D01*
X35246802Y-18074753D01*
X35301361Y-18106091D01*
X35321423Y-18117615D01*
X35375086Y-18148850D01*
X35439623Y-18187061D01*
X35509351Y-18228844D01*
X35578588Y-18270798D01*
X35634038Y-18304809D01*
X35691380Y-18340040D01*
X35747667Y-18374272D01*
X35799136Y-18405244D01*
X35842023Y-18430690D01*
X35872562Y-18448349D01*
X35875323Y-18449896D01*
X35940762Y-18486349D01*
X35941397Y-19421193D01*
X35941421Y-19556641D01*
X35941314Y-19687898D01*
X35941085Y-19813469D01*
X35940741Y-19931857D01*
X35940291Y-20041565D01*
X35939744Y-20141097D01*
X35939108Y-20228955D01*
X35938392Y-20303645D01*
X35937605Y-20363668D01*
X35936754Y-20407528D01*
X35935848Y-20433729D01*
X35935609Y-20437411D01*
X35932022Y-20477521D01*
X35927993Y-20502508D01*
X35921985Y-20516758D01*
X35912463Y-20524656D01*
X35903728Y-20528436D01*
X35883975Y-20538056D01*
X35853449Y-20555311D01*
X35817658Y-20577037D01*
X35804798Y-20585184D01*
X35769053Y-20607646D01*
X35721868Y-20636654D01*
X35668675Y-20668901D01*
X35614905Y-20701080D01*
X35599644Y-20710124D01*
X35549725Y-20739957D01*
X35488334Y-20777148D01*
X35420515Y-20818614D01*
X35351310Y-20861269D01*
X35285761Y-20902029D01*
X35278866Y-20906342D01*
X35222564Y-20941209D01*
X35169939Y-20973092D01*
X35123865Y-21000305D01*
X35087215Y-21021165D01*
X35062861Y-21033985D01*
X35056616Y-21036705D01*
X35023461Y-21048694D01*
X35023461Y-21364231D01*
X35023549Y-21451831D01*
X35023875Y-21521812D01*
X35024529Y-21576093D01*
X35025605Y-21616593D01*
X35027194Y-21645230D01*
X35029387Y-21663925D01*
X35032276Y-21674596D01*
X35035954Y-21679162D01*
X35038556Y-21679769D01*
X35054993Y-21673882D01*
X35084747Y-21657080D01*
X35125874Y-21630647D01*
X35176431Y-21595868D01*
X35234474Y-21554030D01*
X35280124Y-21520018D01*
X35317417Y-21492924D01*
X35351254Y-21470230D01*
X35377330Y-21454718D01*
X35389331Y-21449439D01*
X35400147Y-21445854D01*
X35406940Y-21439109D01*
X35410570Y-21425342D01*
X35411895Y-21400693D01*
X35411772Y-21361300D01*
X35411622Y-21349173D01*
X35411661Y-21340662D01*
X35609615Y-21340662D01*
X35612658Y-21382272D01*
X35624197Y-21411992D01*
X35647848Y-21436852D01*
X35665858Y-21450006D01*
X35708896Y-21470251D01*
X35750087Y-21472191D01*
X35787218Y-21455751D01*
X35789224Y-21454214D01*
X35824250Y-21416365D01*
X35841157Y-21373929D01*
X35839996Y-21329502D01*
X35820820Y-21285677D01*
X35785063Y-21246202D01*
X35746400Y-21224830D01*
X35704499Y-21222649D01*
X35668338Y-21235213D01*
X35634220Y-21260630D01*
X35615261Y-21295323D01*
X35609615Y-21340662D01*
X35411661Y-21340662D01*
X35411846Y-21300242D01*
X35414588Y-21264626D01*
X35420732Y-21236171D01*
X35431158Y-21208723D01*
X35432045Y-21206739D01*
X35471127Y-21139529D01*
X35525421Y-21079330D01*
X35593436Y-21026188D01*
X35631337Y-20998677D01*
X35676413Y-20963112D01*
X35721790Y-20925019D01*
X35746384Y-20903176D01*
X35832536Y-20828561D01*
X35918080Y-20762032D01*
X35998439Y-20707091D01*
X36019923Y-20693942D01*
X36073654Y-20662032D01*
X36073654Y-20586888D01*
X36254384Y-20586888D01*
X36261169Y-20612476D01*
X36282661Y-20643308D01*
X36296671Y-20658713D01*
X36323079Y-20684182D01*
X36343914Y-20697613D01*
X36365455Y-20702500D01*
X36375974Y-20702846D01*
X36402151Y-20699765D01*
X36425007Y-20688032D01*
X36450918Y-20664918D01*
X36474327Y-20638702D01*
X36485706Y-20616322D01*
X36488838Y-20590135D01*
X36488846Y-20588230D01*
X36481541Y-20549667D01*
X36462379Y-20512267D01*
X36435492Y-20481922D01*
X36405010Y-20464522D01*
X36401478Y-20463622D01*
X36364146Y-20464591D01*
X36326178Y-20480490D01*
X36292207Y-20507435D01*
X36266870Y-20541542D01*
X36254800Y-20578926D01*
X36254384Y-20586888D01*
X36073654Y-20586888D01*
X36073654Y-20567650D01*
X36074201Y-20521882D01*
X36076558Y-20489941D01*
X36081796Y-20466132D01*
X36090987Y-20444758D01*
X36099687Y-20429307D01*
X36148907Y-20364657D01*
X36211132Y-20314277D01*
X36234846Y-20300718D01*
X36260767Y-20289069D01*
X36287424Y-20282127D01*
X36321120Y-20278806D01*
X36366730Y-20278019D01*
X36418907Y-20279566D01*
X36455969Y-20284416D01*
X36482152Y-20293168D01*
X36485222Y-20294756D01*
X36525385Y-20322111D01*
X36568965Y-20360578D01*
X36609964Y-20404151D01*
X36642382Y-20446823D01*
X36650453Y-20460184D01*
X36665535Y-20489891D01*
X36674196Y-20516023D01*
X36678081Y-20546129D01*
X36678833Y-20587763D01*
X36678816Y-20590500D01*
X36672598Y-20658083D01*
X36653539Y-20717244D01*
X36619547Y-20772693D01*
X36575987Y-20821789D01*
X36515965Y-20871376D01*
X36452619Y-20904714D01*
X36388241Y-20921449D01*
X36325126Y-20921227D01*
X36265567Y-20903697D01*
X36221287Y-20876394D01*
X36192336Y-20857139D01*
X36173890Y-20853723D01*
X36171049Y-20855168D01*
X36159276Y-20863750D01*
X36134717Y-20881692D01*
X36100354Y-20906815D01*
X36059168Y-20936940D01*
X36031963Y-20956846D01*
X35987540Y-20989198D01*
X35947546Y-21018037D01*
X35915130Y-21041114D01*
X35893439Y-21056182D01*
X35886945Y-21060406D01*
X35878907Y-21066973D01*
X35878476Y-21075661D01*
X35887374Y-21089935D01*
X35907326Y-21113259D01*
X35920377Y-21127639D01*
X35972311Y-21193170D01*
X36006044Y-21257273D01*
X36022491Y-21322557D01*
X36022565Y-21391633D01*
X36019860Y-21411497D01*
X36003134Y-21477466D01*
X35974354Y-21534919D01*
X35930361Y-21589828D01*
X35919721Y-21600768D01*
X35875263Y-21641998D01*
X35835896Y-21669421D01*
X35795991Y-21685561D01*
X35749917Y-21692944D01*
X35711329Y-21694254D01*
X35669978Y-21693630D01*
X35640995Y-21690377D01*
X35617234Y-21682743D01*
X35591545Y-21668977D01*
X35580446Y-21662180D01*
X35551347Y-21645981D01*
X35527675Y-21636182D01*
X35516032Y-21634753D01*
X35503154Y-21642499D01*
X35478954Y-21659315D01*
X35447543Y-21682292D01*
X35428945Y-21696303D01*
X35385089Y-21729359D01*
X35336362Y-21765585D01*
X35291982Y-21798138D01*
X35284184Y-21803789D01*
X35212340Y-21856009D01*
X35154873Y-21898473D01*
X35110059Y-21932489D01*
X35076171Y-21959366D01*
X35052641Y-21979376D01*
X35017972Y-22010330D01*
X35015843Y-22189415D01*
X35014437Y-22270816D01*
X35012332Y-22333458D01*
X35009447Y-22378110D01*
X35005705Y-22405542D01*
X35001026Y-22416521D01*
X34995332Y-22411819D01*
X34993457Y-22407577D01*
X34987899Y-22395933D01*
X34985624Y-22401574D01*
X34985071Y-22413998D01*
X34976297Y-22436876D01*
X34952251Y-22467085D01*
X34914871Y-22502711D01*
X34866098Y-22541839D01*
X34828077Y-22569016D01*
X34794483Y-22593785D01*
X34762946Y-22619966D01*
X34745038Y-22637046D01*
X34715139Y-22663908D01*
X34673544Y-22694876D01*
X34626344Y-22725967D01*
X34579630Y-22753201D01*
X34539492Y-22772595D01*
X34535000Y-22774361D01*
X34500964Y-22791924D01*
X34476414Y-22818035D01*
X34466615Y-22833765D01*
X34442192Y-22876500D01*
X34442192Y-23154923D01*
X34442100Y-23236790D01*
X34441734Y-23301428D01*
X34440960Y-23351146D01*
X34439641Y-23388252D01*
X34437644Y-23415055D01*
X34434833Y-23433865D01*
X34431073Y-23446988D01*
X34426229Y-23456735D01*
X34424377Y-23459593D01*
X34400532Y-23481685D01*
X34375531Y-23492546D01*
X34348456Y-23500920D01*
X34315937Y-23514413D01*
X34284059Y-23530057D01*
X34258906Y-23544886D01*
X34246922Y-23555275D01*
X34233068Y-23563575D01*
X34221359Y-23565230D01*
X34215577Y-23564630D01*
X34211107Y-23561379D01*
X34207812Y-23553307D01*
X34205554Y-23538239D01*
X34204199Y-23514004D01*
X34203609Y-23478429D01*
X34203648Y-23429342D01*
X34204179Y-23364569D01*
X34204840Y-23302383D01*
X34205341Y-23233307D01*
X34205293Y-23171355D01*
X34204738Y-23118990D01*
X34203719Y-23078677D01*
X34202279Y-23052878D01*
X34200459Y-23044055D01*
X34200382Y-23044089D01*
X34198284Y-23036332D01*
X34196906Y-23012011D01*
X34196298Y-22974090D01*
X34196507Y-22925531D01*
X34197532Y-22871326D01*
X34202031Y-22694010D01*
X34253727Y-22662622D01*
X34280119Y-22645473D01*
X34317774Y-22619515D01*
X34362407Y-22587773D01*
X34409734Y-22553270D01*
X34429032Y-22538944D01*
X34514582Y-22475632D01*
X34586138Y-22423934D01*
X34644817Y-22383077D01*
X34691736Y-22352291D01*
X34728013Y-22330802D01*
X34737711Y-22325684D01*
X34779230Y-22304603D01*
X34779230Y-21748165D01*
X34779230Y-21191728D01*
X34708404Y-21233797D01*
X34674659Y-21253672D01*
X34628929Y-21280372D01*
X34576185Y-21311006D01*
X34521393Y-21342685D01*
X34495923Y-21357358D01*
X34379805Y-21424417D01*
X34276308Y-21484716D01*
X34186325Y-21537726D01*
X34110746Y-21582919D01*
X34050464Y-21619766D01*
X34006369Y-21647737D01*
X34004960Y-21648660D01*
X33982056Y-21666283D01*
X33975590Y-21679100D01*
X33978094Y-21684582D01*
X33979305Y-21695583D01*
X33980410Y-21724443D01*
X33981408Y-21769518D01*
X33982301Y-21829163D01*
X33983088Y-21901731D01*
X33983768Y-21985579D01*
X33984342Y-22079060D01*
X33984810Y-22180530D01*
X33985172Y-22288343D01*
X33985428Y-22400855D01*
X33985577Y-22516419D01*
X33985619Y-22633392D01*
X33985556Y-22750127D01*
X33985385Y-22864979D01*
X33985108Y-22976304D01*
X33984725Y-23082456D01*
X33984234Y-23181790D01*
X33983637Y-23272660D01*
X33982934Y-23353422D01*
X33982123Y-23422431D01*
X33981205Y-23478040D01*
X33980181Y-23518606D01*
X33979049Y-23542482D01*
X33978154Y-23548430D01*
X33966968Y-23550791D01*
X33940539Y-23553767D01*
X33903133Y-23556934D01*
X33869829Y-23559217D01*
X33766389Y-23565643D01*
X33759715Y-22654456D01*
X33758665Y-22497266D01*
X33757898Y-22351911D01*
X33757413Y-22219219D01*
X33757208Y-22100019D01*
X33757279Y-21995140D01*
X33757626Y-21905409D01*
X33758245Y-21831655D01*
X33759135Y-21774707D01*
X33760294Y-21735393D01*
X33761718Y-21714542D01*
X33762192Y-21712028D01*
X33766441Y-21685459D01*
X33759960Y-21671891D01*
X33744614Y-21661653D01*
X33714165Y-21642869D01*
X33670504Y-21616640D01*
X33615519Y-21584064D01*
X33551102Y-21546239D01*
X33479141Y-21504266D01*
X33401527Y-21459242D01*
X33320149Y-21412267D01*
X33236898Y-21364440D01*
X33153663Y-21316859D01*
X33072333Y-21270624D01*
X32994800Y-21226834D01*
X32989019Y-21223582D01*
X32987662Y-21232280D01*
X32986392Y-21258783D01*
X32985229Y-21301358D01*
X32984199Y-21358272D01*
X32983324Y-21427792D01*
X32982626Y-21508184D01*
X32982130Y-21597716D01*
X32981858Y-21694654D01*
X32981813Y-21764673D01*
X32981934Y-22309884D01*
X33086832Y-22384331D01*
X33141550Y-22422880D01*
X33201390Y-22464555D01*
X33263366Y-22507321D01*
X33324491Y-22549143D01*
X33381778Y-22587988D01*
X33432241Y-22621822D01*
X33472892Y-22648610D01*
X33500746Y-22666319D01*
X33502035Y-22667103D01*
X33543423Y-22692167D01*
X33545969Y-23114045D01*
X33546321Y-23202708D01*
X33546294Y-23285039D01*
X33545915Y-23359048D01*
X33545210Y-23422745D01*
X33544206Y-23474139D01*
X33542931Y-23511242D01*
X33541409Y-23532062D01*
X33540326Y-23535923D01*
X33527563Y-23532567D01*
X33502441Y-23523823D01*
X33474280Y-23513092D01*
X33433935Y-23497388D01*
X33392421Y-23481562D01*
X33370019Y-23473207D01*
X33338504Y-23458585D01*
X33324640Y-23443895D01*
X33323615Y-23438237D01*
X33319603Y-23421530D01*
X33315081Y-23417064D01*
X33312774Y-23406854D01*
X33310359Y-23379530D01*
X33307949Y-23337517D01*
X33305656Y-23283239D01*
X33303592Y-23219119D01*
X33301870Y-23147581D01*
X33301363Y-23120901D01*
X33296179Y-22827995D01*
X33239070Y-22793069D01*
X33213065Y-22776294D01*
X33174847Y-22750498D01*
X33128003Y-22718157D01*
X33076116Y-22681746D01*
X33022773Y-22643743D01*
X33020769Y-22642303D01*
X32968086Y-22605010D01*
X32917228Y-22570042D01*
X32871613Y-22539672D01*
X32834660Y-22516173D01*
X32809788Y-22501818D01*
X32808583Y-22501212D01*
X32779717Y-22485045D01*
X32758503Y-22469704D01*
X32751195Y-22461307D01*
X32749105Y-22447320D01*
X32747085Y-22417078D01*
X32745270Y-22373862D01*
X32743796Y-22320955D01*
X32742799Y-22261641D01*
X32742747Y-22257064D01*
X32741974Y-22191779D01*
X32741041Y-22143212D01*
X32739599Y-22108543D01*
X32737302Y-22084952D01*
X32733803Y-22069620D01*
X32728755Y-22059728D01*
X32721811Y-22052454D01*
X32717097Y-22048580D01*
X32693428Y-22029016D01*
X32666868Y-22006253D01*
X32663964Y-22003708D01*
X32589783Y-21939115D01*
X32517124Y-21877076D01*
X32447587Y-21818865D01*
X32382770Y-21765758D01*
X32324274Y-21719027D01*
X32273698Y-21679948D01*
X32232640Y-21649794D01*
X32202701Y-21629841D01*
X32185480Y-21621363D01*
X32183854Y-21621154D01*
X32167374Y-21626750D01*
X32144240Y-21640654D01*
X32137928Y-21645266D01*
X32099340Y-21666133D01*
X32050683Y-21680735D01*
X32000980Y-21686971D01*
X31967983Y-21684812D01*
X31913720Y-21667414D01*
X31857079Y-21636914D01*
X31805132Y-21597309D01*
X31793461Y-21586206D01*
X31746303Y-21525750D01*
X31716182Y-21456383D01*
X31703557Y-21379529D01*
X31704754Y-21350447D01*
X31884961Y-21350447D01*
X31888484Y-21380056D01*
X31898917Y-21403639D01*
X31918293Y-21427849D01*
X31925102Y-21435127D01*
X31950678Y-21459267D01*
X31972187Y-21471164D01*
X31996753Y-21474593D01*
X31999657Y-21474615D01*
X32023915Y-21472023D01*
X32045272Y-21461940D01*
X32070187Y-21440904D01*
X32079324Y-21431939D01*
X32103694Y-21405756D01*
X32116567Y-21385106D01*
X32121434Y-21362992D01*
X32121963Y-21346458D01*
X32113959Y-21297822D01*
X32092086Y-21256570D01*
X32059420Y-21226097D01*
X32019036Y-21209800D01*
X31996562Y-21208037D01*
X31971061Y-21212278D01*
X31948028Y-21225915D01*
X31924481Y-21248638D01*
X31903540Y-21274315D01*
X31889592Y-21297550D01*
X31886317Y-21308160D01*
X31884961Y-21350447D01*
X31704754Y-21350447D01*
X31706226Y-21314693D01*
X31712066Y-21285140D01*
X31723370Y-21254719D01*
X31742326Y-21218641D01*
X31771122Y-21172114D01*
X31771962Y-21170816D01*
X31831158Y-21079280D01*
X31788521Y-21042277D01*
X31758445Y-21018248D01*
X31716844Y-20987744D01*
X31668934Y-20954363D01*
X31619932Y-20921706D01*
X31575052Y-20893370D01*
X31557975Y-20883209D01*
X31538829Y-20872979D01*
X31524057Y-20870181D01*
X31506235Y-20875237D01*
X31479821Y-20887646D01*
X31422137Y-20908050D01*
X31361500Y-20916115D01*
X31304337Y-20911431D01*
X31271319Y-20901016D01*
X31222977Y-20872419D01*
X31173247Y-20830809D01*
X31127567Y-20781481D01*
X31091370Y-20729731D01*
X31086468Y-20720918D01*
X31068236Y-20683788D01*
X31058455Y-20653179D01*
X31054723Y-20619365D01*
X31054406Y-20590962D01*
X31054904Y-20584788D01*
X31244161Y-20584788D01*
X31256439Y-20626960D01*
X31267437Y-20644562D01*
X31303455Y-20681917D01*
X31341869Y-20700982D01*
X31380931Y-20701486D01*
X31418896Y-20683158D01*
X31433475Y-20670401D01*
X31461525Y-20630705D01*
X31473060Y-20587239D01*
X31468440Y-20544156D01*
X31448027Y-20505605D01*
X31416761Y-20478404D01*
X31386416Y-20463240D01*
X31359927Y-20460223D01*
X31329591Y-20469342D01*
X31310966Y-20478249D01*
X31272322Y-20507005D01*
X31249755Y-20543660D01*
X31244161Y-20584788D01*
X31054904Y-20584788D01*
X31059323Y-20529951D01*
X31074848Y-20477599D01*
X31103648Y-20426219D01*
X31118890Y-20405000D01*
X31173394Y-20346708D01*
X31234392Y-20305558D01*
X31299473Y-20281331D01*
X31366223Y-20273807D01*
X31432232Y-20282767D01*
X31495088Y-20307991D01*
X31552377Y-20349260D01*
X31601688Y-20406354D01*
X31628064Y-20451334D01*
X31641346Y-20481729D01*
X31649149Y-20511575D01*
X31652869Y-20548113D01*
X31653826Y-20585091D01*
X31654575Y-20668654D01*
X31783268Y-20763481D01*
X31833256Y-20800108D01*
X31883949Y-20836894D01*
X31930557Y-20870386D01*
X31968288Y-20897129D01*
X31980346Y-20905525D01*
X32053011Y-20956267D01*
X32111318Y-20998562D01*
X32157434Y-21034390D01*
X32193525Y-21065731D01*
X32221756Y-21094565D01*
X32244294Y-21122872D01*
X32263305Y-21152632D01*
X32275784Y-21175604D01*
X32288275Y-21203002D01*
X32296708Y-21231129D01*
X32302243Y-21265695D01*
X32306039Y-21312410D01*
X32306993Y-21329283D01*
X32312500Y-21433067D01*
X32357237Y-21467158D01*
X32383326Y-21486396D01*
X32420468Y-21512953D01*
X32463535Y-21543195D01*
X32503775Y-21571007D01*
X32550472Y-21603433D01*
X32598505Y-21637506D01*
X32641656Y-21668778D01*
X32669077Y-21689242D01*
X32699340Y-21711743D01*
X32723758Y-21728782D01*
X32738171Y-21737492D01*
X32739904Y-21738052D01*
X32741629Y-21728739D01*
X32743191Y-21702136D01*
X32744543Y-21660491D01*
X32745636Y-21606053D01*
X32746422Y-21541070D01*
X32746855Y-21467791D01*
X32746917Y-21408673D01*
X32746604Y-21078961D01*
X32578398Y-20979536D01*
X32523183Y-20946862D01*
X32455591Y-20906805D01*
X32380032Y-20861982D01*
X32300915Y-20815009D01*
X32222649Y-20768503D01*
X32161077Y-20731884D01*
X32095558Y-20693033D01*
X32033279Y-20656355D01*
X31976839Y-20623361D01*
X31928838Y-20595563D01*
X31891876Y-20574472D01*
X31868551Y-20561601D01*
X31865723Y-20560132D01*
X31833227Y-20539473D01*
X31815906Y-20519095D01*
X31814399Y-20514708D01*
X31813675Y-20502090D01*
X31812936Y-20471260D01*
X31812192Y-20423541D01*
X31811452Y-20360258D01*
X31810725Y-20282737D01*
X31810022Y-20192303D01*
X31809352Y-20090280D01*
X31808724Y-19977994D01*
X31808149Y-19856769D01*
X31807635Y-19727931D01*
X31807193Y-19592804D01*
X31806906Y-19484587D01*
X31805263Y-18796175D01*
X32082923Y-18796175D01*
X32082923Y-19571305D01*
X32082923Y-20346435D01*
X32148865Y-20387342D01*
X32243800Y-20445852D01*
X32334334Y-20500907D01*
X32419057Y-20551698D01*
X32496564Y-20597419D01*
X32565446Y-20637260D01*
X32624296Y-20670413D01*
X32671708Y-20696071D01*
X32706272Y-20713425D01*
X32726582Y-20721666D01*
X32731389Y-20721855D01*
X32732568Y-20711358D01*
X32733837Y-20683770D01*
X32735134Y-20641537D01*
X32736397Y-20587108D01*
X32737564Y-20522930D01*
X32738572Y-20451448D01*
X32738855Y-20427108D01*
X32742054Y-20136717D01*
X32697864Y-20108693D01*
X32640589Y-20062617D01*
X32589868Y-20002983D01*
X32553197Y-19940846D01*
X32531403Y-19873907D01*
X32526773Y-19804192D01*
X32530539Y-19783764D01*
X32728565Y-19783764D01*
X32728837Y-19824927D01*
X32742111Y-19865262D01*
X32766737Y-19898964D01*
X32790690Y-19915920D01*
X32823322Y-19928319D01*
X32852769Y-19928736D01*
X32888349Y-19917275D01*
X32888984Y-19917011D01*
X32922739Y-19893697D01*
X32948503Y-19858735D01*
X32961424Y-19819296D01*
X32962080Y-19808961D01*
X32954642Y-19773553D01*
X32935653Y-19737958D01*
X32910102Y-19710753D01*
X32901897Y-19705506D01*
X32864075Y-19695330D01*
X32821321Y-19699067D01*
X32780350Y-19714940D01*
X32747874Y-19741174D01*
X32742939Y-19747579D01*
X32728565Y-19783764D01*
X32530539Y-19783764D01*
X32539267Y-19736416D01*
X32555196Y-19698203D01*
X32601427Y-19628925D01*
X32659898Y-19573131D01*
X32728204Y-19532428D01*
X32803936Y-19508421D01*
X32847878Y-19502916D01*
X32913491Y-19504914D01*
X32969147Y-19520868D01*
X33020290Y-19552813D01*
X33048390Y-19577862D01*
X33093718Y-19629105D01*
X33122982Y-19680867D01*
X33138569Y-19738864D01*
X33142884Y-19804077D01*
X33135222Y-19890456D01*
X33112640Y-19966543D01*
X33075745Y-20030985D01*
X33025143Y-20082431D01*
X33014430Y-20090345D01*
X32969914Y-20121577D01*
X32973486Y-20501804D01*
X32974682Y-20608021D01*
X32976114Y-20695605D01*
X32977819Y-20765461D01*
X32979830Y-20818493D01*
X32982182Y-20855606D01*
X32984908Y-20877705D01*
X32988044Y-20885693D01*
X32988073Y-20885704D01*
X32999164Y-20891546D01*
X33024623Y-20906070D01*
X33062076Y-20927886D01*
X33109150Y-20955603D01*
X33163469Y-20987832D01*
X33212640Y-21017182D01*
X33285714Y-21060709D01*
X33359534Y-21104301D01*
X33432099Y-21146811D01*
X33501407Y-21187088D01*
X33565455Y-21223984D01*
X33622241Y-21256349D01*
X33669764Y-21283036D01*
X33706020Y-21302894D01*
X33729008Y-21314774D01*
X33736365Y-21317760D01*
X33737510Y-21308323D01*
X33738600Y-21280813D01*
X33739621Y-21236697D01*
X33740559Y-21177442D01*
X33741401Y-21104513D01*
X33742133Y-21019377D01*
X33742741Y-20923500D01*
X33743210Y-20818349D01*
X33743528Y-20705389D01*
X33743680Y-20586087D01*
X33743692Y-20542453D01*
X33743760Y-20420815D01*
X33743955Y-20304679D01*
X33744269Y-20195550D01*
X33744690Y-20094931D01*
X33745208Y-20004326D01*
X33745812Y-19925239D01*
X33746492Y-19859173D01*
X33747238Y-19807634D01*
X33748039Y-19772123D01*
X33748885Y-19754146D01*
X33749175Y-19752310D01*
X33746324Y-19743572D01*
X34002374Y-19743572D01*
X34003173Y-19755213D01*
X34003933Y-19784887D01*
X34004645Y-19831087D01*
X34005299Y-19892306D01*
X34005885Y-19967039D01*
X34006393Y-20053779D01*
X34006814Y-20151021D01*
X34007138Y-20257257D01*
X34007355Y-20370982D01*
X34007455Y-20490690D01*
X34007461Y-20527799D01*
X34007525Y-20648626D01*
X34007710Y-20763640D01*
X34008006Y-20871367D01*
X34008403Y-20970335D01*
X34008891Y-21059073D01*
X34009462Y-21136107D01*
X34010103Y-21199966D01*
X34010807Y-21249176D01*
X34011563Y-21282267D01*
X34012360Y-21297765D01*
X34012624Y-21298769D01*
X34023295Y-21294686D01*
X34046434Y-21283957D01*
X34077131Y-21268865D01*
X34078567Y-21268142D01*
X34109287Y-21252125D01*
X34153780Y-21228210D01*
X34208845Y-21198177D01*
X34271285Y-21163809D01*
X34337899Y-21126889D01*
X34405488Y-21089198D01*
X34470855Y-21052518D01*
X34530798Y-21018632D01*
X34582120Y-20989322D01*
X34621621Y-20966370D01*
X34639547Y-20955640D01*
X34670042Y-20937350D01*
X34693621Y-20923912D01*
X34705778Y-20917878D01*
X34706327Y-20917769D01*
X34716778Y-20913001D01*
X34737698Y-20900907D01*
X34750117Y-20893223D01*
X34789000Y-20868678D01*
X34789000Y-20492685D01*
X34788766Y-20396101D01*
X34788084Y-20311702D01*
X34786987Y-20240773D01*
X34785506Y-20184600D01*
X34783672Y-20144467D01*
X34781517Y-20121662D01*
X34779787Y-20116692D01*
X34768791Y-20110461D01*
X34747680Y-20093896D01*
X34720444Y-20070188D01*
X34711775Y-20062254D01*
X34660096Y-20007114D01*
X34625087Y-19950903D01*
X34604308Y-19888485D01*
X34595458Y-19817491D01*
X34594641Y-19794478D01*
X34799262Y-19794478D01*
X34803909Y-19837304D01*
X34821043Y-19873316D01*
X34855296Y-19909671D01*
X34895683Y-19928282D01*
X34939681Y-19928556D01*
X34982530Y-19911288D01*
X35012916Y-19883184D01*
X35033339Y-19845441D01*
X35040414Y-19805286D01*
X35038902Y-19790917D01*
X35023569Y-19752063D01*
X34996757Y-19717436D01*
X34963935Y-19693379D01*
X34950242Y-19688106D01*
X34904487Y-19684018D01*
X34864211Y-19695909D01*
X34831714Y-19720482D01*
X34809297Y-19754437D01*
X34799262Y-19794478D01*
X34594641Y-19794478D01*
X34593943Y-19774817D01*
X34595540Y-19744460D01*
X34601399Y-19719300D01*
X34612667Y-19692213D01*
X34617193Y-19682814D01*
X34649704Y-19631252D01*
X34693421Y-19582699D01*
X34743290Y-19541689D01*
X34794255Y-19512760D01*
X34815130Y-19505199D01*
X34885756Y-19493438D01*
X34956229Y-19497876D01*
X35020822Y-19518090D01*
X35026218Y-19520702D01*
X35067707Y-19547695D01*
X35112091Y-19586614D01*
X35153874Y-19631741D01*
X35187557Y-19677357D01*
X35202094Y-19703663D01*
X35217713Y-19754974D01*
X35224088Y-19815713D01*
X35221219Y-19878096D01*
X35209104Y-19934336D01*
X35202141Y-19952331D01*
X35176000Y-19997221D01*
X35139957Y-20042214D01*
X35099596Y-20081173D01*
X35060535Y-20107945D01*
X35023461Y-20126858D01*
X35023461Y-20247215D01*
X35023894Y-20301541D01*
X35025083Y-20368100D01*
X35026863Y-20439606D01*
X35029068Y-20508776D01*
X35029880Y-20530324D01*
X35032653Y-20592513D01*
X35035518Y-20637493D01*
X35038759Y-20667596D01*
X35042662Y-20685149D01*
X35047512Y-20692483D01*
X35049808Y-20693077D01*
X35071816Y-20687138D01*
X35109307Y-20669330D01*
X35162254Y-20639668D01*
X35230630Y-20598166D01*
X35238384Y-20593322D01*
X35332019Y-20534699D01*
X35410379Y-20485650D01*
X35474743Y-20445375D01*
X35526392Y-20413074D01*
X35566607Y-20387948D01*
X35596669Y-20369195D01*
X35617858Y-20356016D01*
X35631455Y-20347612D01*
X35638741Y-20343180D01*
X35638923Y-20343072D01*
X35641769Y-20339477D01*
X35644249Y-20331432D01*
X35646393Y-20317636D01*
X35648235Y-20296788D01*
X35649804Y-20267588D01*
X35651135Y-20228734D01*
X35652257Y-20178925D01*
X35653204Y-20116861D01*
X35654006Y-20041240D01*
X35654696Y-19950761D01*
X35655305Y-19844124D01*
X35655866Y-19720028D01*
X35656191Y-19636939D01*
X35656521Y-19519869D01*
X35656632Y-19406973D01*
X35656533Y-19300013D01*
X35656236Y-19200757D01*
X35655752Y-19110967D01*
X35655093Y-19032411D01*
X35654270Y-18966851D01*
X35653293Y-18916055D01*
X35652175Y-18881786D01*
X35651306Y-18868507D01*
X35643807Y-18797515D01*
X35607265Y-18822393D01*
X35587355Y-18834741D01*
X35553552Y-18854395D01*
X35509202Y-18879464D01*
X35457651Y-18908059D01*
X35402245Y-18938290D01*
X35397226Y-18941003D01*
X35332443Y-18976149D01*
X35262480Y-19014352D01*
X35193302Y-19052339D01*
X35130875Y-19086837D01*
X35091846Y-19108578D01*
X35042072Y-19136422D01*
X34994592Y-19162936D01*
X34953747Y-19185701D01*
X34923877Y-19202297D01*
X34916000Y-19206650D01*
X34861185Y-19237143D01*
X34795594Y-19274085D01*
X34722317Y-19315699D01*
X34644442Y-19360204D01*
X34565060Y-19405819D01*
X34487258Y-19450766D01*
X34414128Y-19493263D01*
X34348757Y-19531532D01*
X34294235Y-19563792D01*
X34253652Y-19588263D01*
X34253596Y-19588298D01*
X34202664Y-19619027D01*
X34151768Y-19648844D01*
X34105839Y-19674919D01*
X34069804Y-19694423D01*
X34060452Y-19699168D01*
X34023142Y-19719742D01*
X34004373Y-19735489D01*
X34002374Y-19743572D01*
X33746324Y-19743572D01*
X33745910Y-19742304D01*
X33728896Y-19727741D01*
X33696619Y-19707521D01*
X33658809Y-19686542D01*
X33612849Y-19661344D01*
X33566833Y-19635251D01*
X33527398Y-19612062D01*
X33509230Y-19600854D01*
X33491515Y-19589822D01*
X33469685Y-19576740D01*
X33442175Y-19560730D01*
X33407422Y-19540914D01*
X33363860Y-19516413D01*
X33309927Y-19486350D01*
X33244056Y-19449845D01*
X33164685Y-19406021D01*
X33070249Y-19354000D01*
X33035423Y-19334835D01*
X32919749Y-19270950D01*
X32801102Y-19204974D01*
X32683175Y-19138983D01*
X32569658Y-19075052D01*
X32464244Y-19015256D01*
X32370624Y-18961672D01*
X32332038Y-18939392D01*
X32277628Y-18907896D01*
X32226196Y-18878176D01*
X32181218Y-18852237D01*
X32146168Y-18832083D01*
X32124523Y-18819718D01*
X32124442Y-18819672D01*
X32082923Y-18796175D01*
X31805263Y-18796175D01*
X31804664Y-18545190D01*
X32260406Y-18545190D01*
X32262380Y-18552705D01*
X32273788Y-18563734D01*
X32296735Y-18580089D01*
X32333324Y-18603582D01*
X32358571Y-18619301D01*
X32419536Y-18656583D01*
X32488658Y-18698067D01*
X32562195Y-18741576D01*
X32636403Y-18784932D01*
X32707538Y-18825954D01*
X32771857Y-18862466D01*
X32825617Y-18892289D01*
X32852226Y-18906581D01*
X32894947Y-18927529D01*
X32925283Y-18938385D01*
X32946805Y-18940330D01*
X32951618Y-18939469D01*
X32981235Y-18928960D01*
X33023821Y-18909449D01*
X33076054Y-18882713D01*
X33134608Y-18850530D01*
X33196160Y-18814681D01*
X33257385Y-18776942D01*
X33267578Y-18770430D01*
X33322365Y-18735076D01*
X33363189Y-18709077D01*
X33392818Y-18691700D01*
X33414023Y-18682214D01*
X33429573Y-18679887D01*
X33442238Y-18683986D01*
X33454788Y-18693779D01*
X33469992Y-18708535D01*
X33476856Y-18715117D01*
X33510450Y-18743505D01*
X33547532Y-18770048D01*
X33570750Y-18783910D01*
X33617616Y-18808412D01*
X33531673Y-18864640D01*
X33488412Y-18892647D01*
X33435449Y-18926493D01*
X33379717Y-18961767D01*
X33331561Y-18991936D01*
X33288945Y-19018899D01*
X33251929Y-19043134D01*
X33223916Y-19062351D01*
X33208312Y-19074262D01*
X33206731Y-19075851D01*
X33204980Y-19080580D01*
X33207694Y-19086848D01*
X33216248Y-19095519D01*
X33232017Y-19107458D01*
X33256375Y-19123530D01*
X33290698Y-19144600D01*
X33336361Y-19171532D01*
X33394737Y-19205191D01*
X33467201Y-19246442D01*
X33555130Y-19296150D01*
X33572730Y-19306076D01*
X33632447Y-19339842D01*
X33689784Y-19372439D01*
X33741402Y-19401955D01*
X33783965Y-19426479D01*
X33814134Y-19444100D01*
X33821846Y-19448705D01*
X33849613Y-19465396D01*
X33869526Y-19477205D01*
X33877001Y-19481430D01*
X33885306Y-19476676D01*
X33906739Y-19463584D01*
X33937903Y-19444245D01*
X33969809Y-19424269D01*
X34008863Y-19400357D01*
X34060168Y-19369860D01*
X34118861Y-19335621D01*
X34180077Y-19300480D01*
X34228529Y-19273108D01*
X34315761Y-19223787D01*
X34390737Y-19180452D01*
X34452518Y-19143677D01*
X34500167Y-19114038D01*
X34532745Y-19092108D01*
X34549314Y-19078462D01*
X34551213Y-19075581D01*
X34544432Y-19067645D01*
X34524501Y-19052000D01*
X34494997Y-19031031D01*
X34459501Y-19007120D01*
X34421590Y-18982652D01*
X34384843Y-18960011D01*
X34352840Y-18941581D01*
X34339615Y-18934630D01*
X34318523Y-18923318D01*
X34288367Y-18906201D01*
X34253047Y-18885611D01*
X34216460Y-18863876D01*
X34182504Y-18843326D01*
X34155077Y-18826290D01*
X34138077Y-18815098D01*
X34134461Y-18812027D01*
X34142332Y-18805971D01*
X34163146Y-18793109D01*
X34192706Y-18776013D01*
X34198522Y-18772746D01*
X34233320Y-18751064D01*
X34263639Y-18728275D01*
X34283064Y-18709213D01*
X34283398Y-18708768D01*
X34300498Y-18689978D01*
X34315149Y-18680796D01*
X34316696Y-18680615D01*
X34329046Y-18685136D01*
X34355334Y-18697652D01*
X34392464Y-18716594D01*
X34437336Y-18740390D01*
X34473609Y-18760148D01*
X34548949Y-18801187D01*
X34619081Y-18838523D01*
X34682008Y-18871154D01*
X34735732Y-18898077D01*
X34778256Y-18918290D01*
X34807583Y-18930789D01*
X34821089Y-18934615D01*
X34834008Y-18929956D01*
X34860167Y-18917211D01*
X34895984Y-18898227D01*
X34937874Y-18874854D01*
X34945838Y-18870291D01*
X35000055Y-18839249D01*
X35063203Y-18803325D01*
X35127138Y-18767138D01*
X35179769Y-18737525D01*
X35234396Y-18706238D01*
X35292865Y-18671646D01*
X35348169Y-18637953D01*
X35393301Y-18609365D01*
X35393305Y-18609363D01*
X35433746Y-18582879D01*
X35459573Y-18563604D01*
X35470412Y-18548468D01*
X35465886Y-18534401D01*
X35445620Y-18518335D01*
X35409240Y-18497201D01*
X35377454Y-18479667D01*
X35350622Y-18464403D01*
X35310264Y-18440889D01*
X35259562Y-18411007D01*
X35201696Y-18376637D01*
X35139849Y-18339659D01*
X35095153Y-18312787D01*
X35032733Y-18275257D01*
X34972344Y-18239113D01*
X34917093Y-18206204D01*
X34870089Y-18178377D01*
X34834439Y-18157480D01*
X34817461Y-18147713D01*
X34756269Y-18113126D01*
X34643192Y-18187660D01*
X34592185Y-18220615D01*
X34537627Y-18254763D01*
X34486162Y-18286007D01*
X34445542Y-18309624D01*
X34360969Y-18357054D01*
X34323427Y-18323796D01*
X34294089Y-18299450D01*
X34257904Y-18271636D01*
X34232889Y-18253557D01*
X34205252Y-18233116D01*
X34184866Y-18215869D01*
X34176463Y-18206048D01*
X34181770Y-18194973D01*
X34198602Y-18183870D01*
X34216506Y-18174145D01*
X34245640Y-18156582D01*
X34282940Y-18133195D01*
X34325344Y-18105999D01*
X34369787Y-18077009D01*
X34413205Y-18048241D01*
X34452535Y-18021709D01*
X34484712Y-17999428D01*
X34506674Y-17983413D01*
X34515357Y-17975680D01*
X34515388Y-17975522D01*
X34507443Y-17968316D01*
X34485895Y-17953962D01*
X34454271Y-17934712D01*
X34425096Y-17917870D01*
X34388608Y-17897263D01*
X34339297Y-17869430D01*
X34281357Y-17836737D01*
X34218985Y-17801552D01*
X34156377Y-17766243D01*
X34144230Y-17759393D01*
X34086460Y-17726705D01*
X34032228Y-17695807D01*
X33984623Y-17668475D01*
X33946734Y-17646487D01*
X33921648Y-17631618D01*
X33916205Y-17628260D01*
X33878680Y-17604544D01*
X33711051Y-17699824D01*
X33646650Y-17736598D01*
X33576199Y-17777108D01*
X33505993Y-17817717D01*
X33442322Y-17854790D01*
X33406654Y-17875721D01*
X33358145Y-17903951D01*
X33313478Y-17929279D01*
X33276255Y-17949711D01*
X33250080Y-17963253D01*
X33241337Y-17967182D01*
X33212789Y-17978026D01*
X33246592Y-18000996D01*
X33266177Y-18013220D01*
X33299357Y-18032759D01*
X33342574Y-18057569D01*
X33392275Y-18085603D01*
X33434692Y-18109188D01*
X33588988Y-18194409D01*
X33512475Y-18266158D01*
X33479072Y-18295837D01*
X33448998Y-18319595D01*
X33426087Y-18334565D01*
X33415977Y-18338299D01*
X33405266Y-18336579D01*
X33387947Y-18330584D01*
X33362397Y-18319525D01*
X33326996Y-18302617D01*
X33280121Y-18279073D01*
X33220150Y-18248106D01*
X33145463Y-18208930D01*
X33102754Y-18186367D01*
X33058609Y-18163451D01*
X33020113Y-18144300D01*
X32990800Y-18130611D01*
X32974205Y-18124084D01*
X32972400Y-18123769D01*
X32960305Y-18128637D01*
X32934731Y-18142083D01*
X32898792Y-18162367D01*
X32855602Y-18187748D01*
X32826915Y-18205058D01*
X32769064Y-18240235D01*
X32720036Y-18269838D01*
X32674792Y-18296855D01*
X32628292Y-18324273D01*
X32575499Y-18355081D01*
X32511373Y-18392267D01*
X32503000Y-18397112D01*
X32458083Y-18423311D01*
X32410004Y-18451701D01*
X32362757Y-18479884D01*
X32320339Y-18505465D01*
X32286747Y-18526047D01*
X32265977Y-18539234D01*
X32265763Y-18539377D01*
X32260406Y-18545190D01*
X31804664Y-18545190D01*
X31804500Y-18476367D01*
X31828923Y-18465363D01*
X31853790Y-18452574D01*
X31892140Y-18430822D01*
X31941094Y-18401826D01*
X31997774Y-18367306D01*
X32059301Y-18328980D01*
X32092692Y-18307839D01*
X32147036Y-18274051D01*
X32216342Y-18232384D01*
X32300997Y-18182614D01*
X32401387Y-18124516D01*
X32517900Y-18057866D01*
X32650924Y-17982440D01*
X32781876Y-17908669D01*
X32851985Y-17869127D01*
X32921773Y-17829495D01*
X32987939Y-17791667D01*
X33047179Y-17757540D01*
X33096193Y-17729009D01*
X33131677Y-17707969D01*
X33133569Y-17706825D01*
X33166737Y-17687102D01*
X33213468Y-17659811D01*
X33270924Y-17626567D01*
X33336270Y-17588988D01*
X33406669Y-17548687D01*
X33479283Y-17507280D01*
X33551275Y-17466383D01*
X33619810Y-17427610D01*
X33682050Y-17392578D01*
X33735158Y-17362901D01*
X33776298Y-17340196D01*
X33797423Y-17328803D01*
X33827527Y-17312385D01*
X33852270Y-17298015D01*
X33862079Y-17291716D01*
X33877056Y-17286375D01*
X33895594Y-17293349D01*
G37*
G36*
X33881402Y-18255148D02*
G01*
X33899421Y-18263388D01*
X33927334Y-18281231D01*
X33935154Y-18286509D01*
X34005439Y-18333317D01*
X34067636Y-18372701D01*
X34129114Y-18409186D01*
X34195976Y-18446599D01*
X34291683Y-18498982D01*
X34241626Y-18528741D01*
X34210977Y-18548106D01*
X34171374Y-18574711D01*
X34129475Y-18604038D01*
X34111727Y-18616861D01*
X34073431Y-18644694D01*
X34037039Y-18670864D01*
X34008039Y-18691437D01*
X33997692Y-18698624D01*
X33968999Y-18718631D01*
X33935101Y-18742768D01*
X33919538Y-18754017D01*
X33875577Y-18786009D01*
X33836500Y-18751971D01*
X33805419Y-18727691D01*
X33762089Y-18697622D01*
X33711538Y-18665091D01*
X33658799Y-18633424D01*
X33647367Y-18626884D01*
X33618624Y-18609624D01*
X33584693Y-18587793D01*
X33549399Y-18564052D01*
X33516568Y-18541061D01*
X33490026Y-18521481D01*
X33473597Y-18507971D01*
X33470154Y-18503660D01*
X33478261Y-18495578D01*
X33499729Y-18481798D01*
X33530274Y-18465014D01*
X33537217Y-18461473D01*
X33571373Y-18442875D01*
X33616050Y-18416565D01*
X33665677Y-18385914D01*
X33714685Y-18354293D01*
X33718978Y-18351446D01*
X33762415Y-18322616D01*
X33801640Y-18296671D01*
X33832968Y-18276041D01*
X33852716Y-18263156D01*
X33855588Y-18261318D01*
X33868413Y-18254972D01*
X33881402Y-18255148D01*
G37*
D12*
X7190000Y-5190000D02*
X7190000Y-5915000D01*
X7190000Y-9410000D02*
X7190000Y-8685000D01*
X7915000Y-5190000D02*
X7190000Y-5190000D01*
X7915000Y-9410000D02*
X7190000Y-9410000D01*
X10685000Y-5190000D02*
X11410000Y-5190000D01*
X10685000Y-9410000D02*
X11410000Y-9410000D01*
X11410000Y-5190000D02*
X11410000Y-5915000D01*
X24875000Y-28635000D02*
X27160000Y-28635000D01*
X27160000Y-27165000D02*
X24875000Y-27165000D01*
X27160000Y-28635000D02*
X27160000Y-27165000D01*
X25459420Y-30990000D02*
X25740580Y-30990000D01*
X25459420Y-32010000D02*
X25740580Y-32010000D01*
X34077500Y-32737258D02*
X34077500Y-32262742D01*
X35122500Y-32737258D02*
X35122500Y-32262742D01*
X30890000Y-36710000D02*
X30890000Y-35505000D01*
X31436529Y-36710000D02*
X30890000Y-36710000D01*
X31692470Y-35505000D02*
X30890000Y-35505000D01*
X33110000Y-35505000D02*
X32307530Y-35505000D01*
X33110000Y-36710000D02*
X32563471Y-36710000D01*
X33110000Y-36710000D02*
X33110000Y-35505000D01*
X33110000Y-37470000D02*
X33110000Y-38230000D01*
X33110000Y-38230000D02*
X32000000Y-38230000D01*
D13*
X29340000Y-5400000D02*
X29340000Y-4585000D01*
X29340000Y-5400000D02*
X30000000Y-5400000D01*
X30000000Y-5400000D02*
X29340000Y-5400000D01*
X30000000Y-5400000D02*
X29340000Y-5400000D01*
D14*
X31100000Y-3988000D02*
X30500000Y-3988000D01*
D13*
X32260000Y-4585000D02*
X32260000Y-5400000D01*
X32260000Y-5400000D02*
X31600000Y-5400000D01*
D12*
X26552500Y-8812742D02*
X26552500Y-9287258D01*
X27597500Y-8812742D02*
X27597500Y-9287258D01*
X9465000Y-24114564D02*
X9465000Y-23660436D01*
X10935000Y-24114564D02*
X10935000Y-23660436D01*
X4062742Y-31177500D02*
X4537258Y-31177500D01*
X4062742Y-32222500D02*
X4537258Y-32222500D01*
X25337742Y-29077500D02*
X25812258Y-29077500D01*
X25337742Y-30122500D02*
X25812258Y-30122500D01*
X12287500Y-12235000D02*
X14572500Y-12235000D01*
X14572500Y-10765000D02*
X12287500Y-10765000D01*
X14572500Y-12235000D02*
X14572500Y-10765000D01*
X13044000Y-23165000D02*
X16944000Y-23165000D01*
X13044000Y-26365000D02*
X16944000Y-26365000D01*
X16944000Y-26365000D02*
X16944000Y-23165000D01*
X11177500Y-33637258D02*
X11177500Y-33162742D01*
X12222500Y-33637258D02*
X12222500Y-33162742D01*
X25650000Y-38510000D02*
X25650000Y-34500000D01*
X25650000Y-38510000D02*
X27650000Y-38510000D01*
X27650000Y-38510000D02*
X27650000Y-34500000D01*
X1630000Y-21330000D02*
X1630000Y-26530000D01*
X4230000Y-21330000D02*
X1630000Y-21330000D01*
X4230000Y-21330000D02*
X4230000Y-23930000D01*
X4230000Y-23930000D02*
X6830000Y-23930000D01*
X5500000Y-21330000D02*
X6830000Y-21330000D01*
X6830000Y-21330000D02*
X6830000Y-22660000D01*
X6830000Y-23930000D02*
X6830000Y-26530000D01*
X6830000Y-26530000D02*
X1630000Y-26530000D01*
D13*
X21195000Y-17276000D02*
X21195000Y-20324000D01*
X21195000Y-17276000D02*
X21209000Y-17276000D01*
X21209000Y-20324000D02*
X21195000Y-20324000D01*
X24991000Y-17276000D02*
X25005000Y-17276000D01*
X25005000Y-17276000D02*
X25005000Y-20324000D01*
X25005000Y-20324000D02*
X24991000Y-20324000D01*
D12*
X24474000Y-23165000D02*
X28374000Y-23165000D01*
X24474000Y-26365000D02*
X28374000Y-26365000D01*
X28374000Y-26365000D02*
X28374000Y-23165000D01*
X4537258Y-30522500D02*
X4062742Y-30522500D01*
X4537258Y-29477500D02*
X4062742Y-29477500D01*
X13277500Y-8837258D02*
X13277500Y-8362742D01*
X14322500Y-8837258D02*
X14322500Y-8362742D01*
X4677500Y-9462742D02*
X4677500Y-9937258D01*
X5722500Y-9462742D02*
X5722500Y-9937258D01*
X13852500Y-28537258D02*
X13852500Y-28062742D01*
X14897500Y-28537258D02*
X14897500Y-28062742D01*
X9565000Y-17172936D02*
X9565000Y-17627064D01*
X11035000Y-17172936D02*
X11035000Y-17627064D01*
X24474000Y-12500000D02*
X28374000Y-12500000D01*
X24474000Y-15700000D02*
X28374000Y-15700000D01*
X28374000Y-15700000D02*
X28374000Y-12500000D01*
X25365000Y-18888748D02*
X25365000Y-19411252D01*
X26835000Y-18888748D02*
X26835000Y-19411252D01*
X16099300Y-16073400D02*
X16099300Y-18073400D01*
X16099300Y-16073400D02*
X20109300Y-16073400D01*
X16099300Y-18073400D02*
X20109300Y-18073400D01*
X19816000Y-2696000D02*
X20926000Y-2696000D01*
X19816000Y-3456000D02*
X19816000Y-2696000D01*
X19816000Y-4216000D02*
X19816000Y-6691000D01*
X19816000Y-4216000D02*
X20362529Y-4216000D01*
X19816000Y-6691000D02*
X20618470Y-6691000D01*
X21233530Y-6691000D02*
X22036000Y-6691000D01*
X21489471Y-4216000D02*
X22036000Y-4216000D01*
X22036000Y-4216000D02*
X22036000Y-6691000D01*
X23288500Y-7866000D02*
X21613500Y-7866000D01*
X23288500Y-7866000D02*
X23938500Y-7866000D01*
X23288500Y-10986000D02*
X22638500Y-10986000D01*
X23288500Y-10986000D02*
X23938500Y-10986000D01*
X26466000Y-2716000D02*
X27576000Y-2716000D01*
X26466000Y-3476000D02*
X26466000Y-2716000D01*
X26466000Y-4236000D02*
X26466000Y-5441000D01*
X26466000Y-4236000D02*
X27012529Y-4236000D01*
X26466000Y-5441000D02*
X27268470Y-5441000D01*
X27883530Y-5441000D02*
X28686000Y-5441000D01*
X28139471Y-4236000D02*
X28686000Y-4236000D01*
X28686000Y-4236000D02*
X28686000Y-5441000D01*
X10165000Y-12537258D02*
X10165000Y-12062742D01*
X11210000Y-12537258D02*
X11210000Y-12062742D01*
D15*
X17795300Y-27391800D02*
X21795300Y-27391800D01*
X17795300Y-32491800D02*
X21795300Y-32491800D01*
D14*
X15450300Y-27436800D02*
G75*
G02*
X15250300Y-27436800I-100000J0D01*
G01*
X15250300Y-27436800D02*
G75*
G02*
X15450300Y-27436800I100000J0D01*
G01*
D12*
X32859420Y-5890000D02*
X33140580Y-5890000D01*
X32859420Y-6910000D02*
X33140580Y-6910000D01*
X17840580Y-3710000D02*
X17559420Y-3710000D01*
X17840580Y-2690000D02*
X17559420Y-2690000D01*
X30890000Y-32840000D02*
X30890000Y-31635000D01*
X31436529Y-32840000D02*
X30890000Y-32840000D01*
X31692470Y-31635000D02*
X30890000Y-31635000D01*
X33110000Y-31635000D02*
X32307530Y-31635000D01*
X33110000Y-32840000D02*
X32563471Y-32840000D01*
X33110000Y-32840000D02*
X33110000Y-31635000D01*
X33110000Y-33600000D02*
X33110000Y-34360000D01*
X33110000Y-34360000D02*
X32000000Y-34360000D01*
X7962500Y-27340000D02*
X7312500Y-27340000D01*
X7962500Y-27340000D02*
X8612500Y-27340000D01*
X7962500Y-30460000D02*
X7312500Y-30460000D01*
X7962500Y-30460000D02*
X8612500Y-30460000D01*
X6800000Y-27390000D02*
X6560000Y-27060000D01*
X7040000Y-27060000D01*
X6800000Y-27390000D01*
G36*
X6800000Y-27390000D02*
G01*
X6560000Y-27060000D01*
X7040000Y-27060000D01*
X6800000Y-27390000D01*
G37*
X10450000Y-28290000D02*
X10450000Y-30950000D01*
X12150000Y-28290000D02*
X10450000Y-28290000D01*
X12150000Y-28290000D02*
X12150000Y-30950000D01*
X15037258Y-21577500D02*
X14562742Y-21577500D01*
X15037258Y-22622500D02*
X14562742Y-22622500D01*
X13377500Y-35437258D02*
X13377500Y-34962742D01*
X14422500Y-35437258D02*
X14422500Y-34962742D01*
X18962500Y-19590000D02*
X17162500Y-19590000D01*
X18962500Y-19590000D02*
X19762500Y-19590000D01*
X18962500Y-22710000D02*
X18162500Y-22710000D01*
X18962500Y-22710000D02*
X19762500Y-22710000D01*
X23116000Y-5236000D02*
X23116000Y-2761000D01*
X23662529Y-5236000D02*
X23116000Y-5236000D01*
X23918470Y-2761000D02*
X23116000Y-2761000D01*
X25336000Y-2761000D02*
X24533530Y-2761000D01*
X25336000Y-5236000D02*
X24789471Y-5236000D01*
X25336000Y-5236000D02*
X25336000Y-2761000D01*
X25336000Y-5996000D02*
X25336000Y-6756000D01*
X25336000Y-6756000D02*
X24226000Y-6756000D01*
X14046952Y-16389200D02*
X13524448Y-16389200D01*
X14046952Y-17859200D02*
X13524448Y-17859200D01*
X13044000Y-12500000D02*
X16944000Y-12500000D01*
X13044000Y-15700000D02*
X16944000Y-15700000D01*
X16944000Y-15700000D02*
X16944000Y-12500000D01*
X30659420Y-1240000D02*
X30940580Y-1240000D01*
X30659420Y-2260000D02*
X30940580Y-2260000D01*
X13865000Y-31640580D02*
X13865000Y-31359420D01*
X14885000Y-31640580D02*
X14885000Y-31359420D01*
X30540580Y-29790000D02*
X30259420Y-29790000D01*
X30540580Y-30810000D02*
X30259420Y-30810000D01*
X8059420Y-3190000D02*
X8340580Y-3190000D01*
X8059420Y-4210000D02*
X8340580Y-4210000D01*
X28200000Y-38560000D02*
X28200000Y-34550000D01*
X28200000Y-38560000D02*
X30200000Y-38560000D01*
X30200000Y-38560000D02*
X30200000Y-34550000D01*
X19803500Y-9088742D02*
X19803500Y-9563258D01*
X20848500Y-9088742D02*
X20848500Y-9563258D01*
X30037500Y-10710000D02*
X29387500Y-10710000D01*
X30037500Y-10710000D02*
X30687500Y-10710000D01*
X30037500Y-7590000D02*
X28362500Y-7590000D01*
X30037500Y-7590000D02*
X30687500Y-7590000D01*
X14562742Y-19877500D02*
X15037258Y-19877500D01*
X14562742Y-20922500D02*
X15037258Y-20922500D01*
D16*
X15499000Y-39541000D02*
X15499000Y-40963000D01*
X15499000Y-39564000D02*
X15499000Y-39541000D01*
X15499000Y-40963000D02*
X24501000Y-40963000D01*
X15500000Y-35762000D02*
X15500000Y-35720000D01*
X15500000Y-35762000D02*
X15500000Y-37205000D01*
X16459000Y-34162000D02*
X16671000Y-34162000D01*
D13*
X17182000Y-39796000D02*
X17680000Y-37294000D01*
X17482000Y-38495000D02*
X17881000Y-38495000D01*
X17657000Y-39796000D02*
X17182000Y-39796000D01*
X17680000Y-37294000D02*
X18981000Y-37294000D01*
X18059000Y-37695000D02*
X17657000Y-39796000D01*
X18587000Y-37695000D02*
X18059000Y-37695000D01*
X18781000Y-38495000D02*
X19181000Y-38495000D01*
X18981000Y-37294000D02*
X19481000Y-39796000D01*
X18986000Y-39796000D02*
X18587000Y-37695000D01*
D16*
X18990000Y-35962000D02*
X21010000Y-35962000D01*
X19000000Y-35562000D02*
X19600000Y-35562000D01*
X19000000Y-35962000D02*
X19000000Y-35562000D01*
D13*
X19481000Y-39796000D02*
X18986000Y-39796000D01*
D16*
X19600000Y-35562000D02*
X19600000Y-35362000D01*
X20400000Y-35562000D02*
X20400000Y-35362000D01*
D13*
X20459000Y-39791000D02*
X20957000Y-37289000D01*
X20759000Y-38490000D02*
X21158000Y-38490000D01*
X20934000Y-39791000D02*
X20459000Y-39791000D01*
X20957000Y-37289000D02*
X22257000Y-37289000D01*
D16*
X21000000Y-35562000D02*
X20400000Y-35562000D01*
X21000000Y-35962000D02*
X21000000Y-35562000D01*
D13*
X21335000Y-37690000D02*
X20934000Y-39791000D01*
X21864000Y-37690000D02*
X21335000Y-37690000D01*
X22058000Y-38490000D02*
X22458000Y-38490000D01*
X22257000Y-37289000D02*
X22758000Y-39791000D01*
X22263000Y-39791000D02*
X21864000Y-37690000D01*
X22758000Y-39791000D02*
X22263000Y-39791000D01*
D16*
X23329000Y-34162000D02*
X23541000Y-34162000D01*
X24500000Y-37162000D02*
X24500000Y-35712000D01*
X24501000Y-40963000D02*
X24501000Y-39564000D01*
D12*
X4537258Y-27477500D02*
X4062742Y-27477500D01*
X4537258Y-28522500D02*
X4062742Y-28522500D01*
X1630000Y-11945000D02*
X2960000Y-11945000D01*
X1630000Y-13275000D02*
X1630000Y-11945000D01*
X1630000Y-14545000D02*
X1630000Y-19685000D01*
X1630000Y-14545000D02*
X4230000Y-14545000D01*
X1630000Y-19685000D02*
X6830000Y-19685000D01*
X4230000Y-11945000D02*
X6830000Y-11945000D01*
X4230000Y-14545000D02*
X4230000Y-11945000D01*
X6830000Y-11945000D02*
X6830000Y-19685000D01*
D17*
X32174000Y-27474000D02*
X32174000Y-28505000D01*
X32174000Y-30526000D02*
X32174000Y-29495000D01*
X33626000Y-27474000D02*
X32174000Y-27474000D01*
X33626000Y-28545000D02*
X33626000Y-29455000D01*
X33626000Y-30526000D02*
X32174000Y-30526000D01*
D12*
X18076000Y-5296000D02*
X17076000Y-5296000D01*
X18076000Y-8656000D02*
X17076000Y-8656000D01*
%LPC*%
D18*
X32000000Y-16000000D03*
D19*
X11225000Y-8300000D03*
X11225000Y-7800000D03*
X11225000Y-7300000D03*
X11225000Y-6800000D03*
X11225000Y-6300000D03*
D20*
X10300000Y-5375000D03*
X9800000Y-5375000D03*
X9300000Y-5375000D03*
X8800000Y-5375000D03*
X8300000Y-5375000D03*
D19*
X7375000Y-6300000D03*
X7375000Y-6800000D03*
X7375000Y-7300000D03*
X7375000Y-7800000D03*
X7375000Y-8300000D03*
D20*
X8300000Y-9225000D03*
X8800000Y-9225000D03*
X9300000Y-9225000D03*
X9800000Y-9225000D03*
X10300000Y-9225000D03*
D21*
X9300000Y-7300000D03*
D22*
X26462500Y-27900000D03*
X24887500Y-27900000D03*
D23*
X24825000Y-31500000D03*
X26375000Y-31500000D03*
D24*
X34600000Y-33325000D03*
X34600000Y-31675000D03*
D25*
X32000000Y-37470000D03*
D26*
X32000000Y-36200000D03*
D27*
X31750000Y-3500000D03*
X30800000Y-6000000D03*
X29850000Y-3500000D03*
D28*
X27075000Y-8225000D03*
X27075000Y-9875000D03*
D29*
X10200000Y-24800000D03*
X10200000Y-22975000D03*
D30*
X3475000Y-31700000D03*
X5125000Y-31700000D03*
X24750000Y-29600000D03*
X26400000Y-29600000D03*
D22*
X13875000Y-11500000D03*
X12300000Y-11500000D03*
D31*
X3500000Y-36500000D03*
D32*
X15494000Y-24765000D03*
D33*
X12919000Y-24765000D03*
D24*
X11700000Y-34225000D03*
X11700000Y-32575000D03*
D34*
X26650000Y-37800000D03*
X26650000Y-34500000D03*
D35*
X5500000Y-22660000D03*
D36*
X5500000Y-25200000D03*
X2960000Y-22660000D03*
X2960000Y-25200000D03*
D37*
X23100000Y-20128000D03*
X23100000Y-17472000D03*
D32*
X26924000Y-24765000D03*
D33*
X24349000Y-24765000D03*
D31*
X3500000Y-3500000D03*
D38*
X5125000Y-30000000D03*
X3475000Y-30000000D03*
D24*
X13800000Y-9425000D03*
X13800000Y-7775000D03*
D28*
X5200000Y-8875000D03*
X5200000Y-10525000D03*
D24*
X14375000Y-29125000D03*
X14375000Y-27475000D03*
D39*
X10300000Y-16487500D03*
X10300000Y-18312500D03*
D32*
X26924000Y-14100000D03*
D33*
X24349000Y-14100000D03*
D40*
X26100000Y-18200000D03*
X26100000Y-20100000D03*
D41*
X16809300Y-17073400D03*
X20109300Y-17073400D03*
D25*
X20926000Y-3456000D03*
D26*
X20926000Y-4726000D03*
X20926000Y-5996000D03*
D42*
X22351000Y-8476000D03*
X22351000Y-10376000D03*
X24226000Y-9426000D03*
D25*
X27576000Y-3476000D03*
D26*
X27576000Y-4746000D03*
D24*
X10687500Y-13125000D03*
X10687500Y-11475000D03*
D31*
X36500000Y-3500000D03*
D43*
X17320300Y-28036800D03*
X17320300Y-29306800D03*
X17320300Y-30576800D03*
X17320300Y-31846800D03*
X22270300Y-31846800D03*
X22270300Y-30576800D03*
X22270300Y-29306800D03*
X22270300Y-28036800D03*
D44*
X19795300Y-29941800D03*
D23*
X32225000Y-6400000D03*
X33775000Y-6400000D03*
D45*
X18475000Y-3200000D03*
X16925000Y-3200000D03*
D25*
X32000000Y-33600000D03*
D26*
X32000000Y-32330000D03*
D42*
X7025000Y-27950000D03*
X7025000Y-29850000D03*
X8900000Y-28900000D03*
D46*
X11300000Y-28850000D03*
X11300000Y-30950000D03*
D38*
X15625000Y-22100000D03*
X13975000Y-22100000D03*
D24*
X13900000Y-36025000D03*
X13900000Y-34375000D03*
D47*
X17825000Y-20200000D03*
X17825000Y-21150000D03*
X17825000Y-22100000D03*
X20100000Y-22100000D03*
X20100000Y-21150000D03*
X20100000Y-20200000D03*
D25*
X24226000Y-5996000D03*
D26*
X24226000Y-4726000D03*
X24226000Y-3456000D03*
D48*
X14735700Y-17124200D03*
X12835700Y-17124200D03*
D32*
X15494000Y-14100000D03*
D33*
X12919000Y-14100000D03*
D23*
X30025000Y-1750000D03*
X31575000Y-1750000D03*
D31*
X36500000Y-36500000D03*
D49*
X14375000Y-32275000D03*
X14375000Y-30725000D03*
D45*
X31175000Y-30300000D03*
X29625000Y-30300000D03*
D23*
X7425000Y-3700000D03*
X8975000Y-3700000D03*
D34*
X29200000Y-37850000D03*
X29200000Y-34550000D03*
D28*
X20326000Y-8501000D03*
X20326000Y-10151000D03*
D42*
X29100000Y-8200000D03*
X29100000Y-10100000D03*
X30975000Y-9150000D03*
D30*
X13975000Y-20400000D03*
X15625000Y-20400000D03*
D50*
X15680000Y-34562000D03*
X15680000Y-38363000D03*
X24320000Y-34562000D03*
X24320000Y-38363000D03*
D51*
X19500000Y-34437000D03*
X21500000Y-34437000D03*
D52*
X22700000Y-34437000D03*
D51*
X20500000Y-34437000D03*
X18500000Y-34437000D03*
D52*
X17300000Y-34437000D03*
D38*
X5125000Y-28000000D03*
X3475000Y-28000000D03*
D35*
X2960000Y-13275000D03*
D36*
X5500000Y-13275000D03*
X2960000Y-15815000D03*
X5500000Y-15815000D03*
X2960000Y-18355000D03*
X5500000Y-18355000D03*
D53*
X33900000Y-29950000D03*
X33900000Y-28050000D03*
X31900000Y-29000000D03*
D54*
X16676000Y-5776000D03*
D55*
X16676000Y-6576000D03*
X16676000Y-7376000D03*
D54*
X16676000Y-8176000D03*
X18476000Y-8176000D03*
D55*
X18476000Y-7376000D03*
X18476000Y-6576000D03*
D54*
X18476000Y-5776000D03*
%LPD*%
M02*
