G04 #@! TF.GenerationSoftware,KiCad,Pcbnew,8.0.1*
G04 #@! TF.CreationDate,2024-06-15T21:09:50+03:00*
G04 #@! TF.ProjectId,FancyLight-V2,46616e63-794c-4696-9768-742d56322e6b,rev?*
G04 #@! TF.SameCoordinates,Original*
G04 #@! TF.FileFunction,Paste,Top*
G04 #@! TF.FilePolarity,Positive*
%FSLAX46Y46*%
G04 Gerber Fmt 4.6, Leading zero omitted, Abs format (unit mm)*
G04 Created by KiCad (PCBNEW 8.0.1) date 2024-06-15 21:09:50*
%MOMM*%
%LPD*%
G01*
G04 APERTURE LIST*
G04 Aperture macros list*
%AMRoundRect*
0 Rectangle with rounded corners*
0 $1 Rounding radius*
0 $2 $3 $4 $5 $6 $7 $8 $9 X,Y pos of 4 corners*
0 Add a 4 corners polygon primitive as box body*
4,1,4,$2,$3,$4,$5,$6,$7,$8,$9,$2,$3,0*
0 Add four circle primitives for the rounded corners*
1,1,$1+$1,$2,$3*
1,1,$1+$1,$4,$5*
1,1,$1+$1,$6,$7*
1,1,$1+$1,$8,$9*
0 Add four rect primitives between the rounded corners*
20,1,$1+$1,$2,$3,$4,$5,0*
20,1,$1+$1,$4,$5,$6,$7,0*
20,1,$1+$1,$6,$7,$8,$9,0*
20,1,$1+$1,$8,$9,$2,$3,0*%
G04 Aperture macros list end*
%ADD10C,0.010000*%
%ADD11C,0.120000*%
%ADD12RoundRect,0.250000X0.275000X0.275000X-0.275000X0.275000X-0.275000X-0.275000X0.275000X-0.275000X0*%
%ADD13RoundRect,0.062500X0.362500X0.062500X-0.362500X0.062500X-0.362500X-0.062500X0.362500X-0.062500X0*%
%ADD14RoundRect,0.062500X0.062500X0.362500X-0.062500X0.362500X-0.062500X-0.362500X0.062500X-0.362500X0*%
%ADD15RoundRect,0.218750X0.218750X0.256250X-0.218750X0.256250X-0.218750X-0.256250X0.218750X-0.256250X0*%
%ADD16RoundRect,0.225000X-0.225000X-0.250000X0.225000X-0.250000X0.225000X0.250000X-0.225000X0.250000X0*%
%ADD17RoundRect,0.200000X0.275000X-0.200000X0.275000X0.200000X-0.275000X0.200000X-0.275000X-0.200000X0*%
%ADD18R,0.700000X1.150000*%
%ADD19RoundRect,0.200000X-0.275000X0.200000X-0.275000X-0.200000X0.275000X-0.200000X0.275000X0.200000X0*%
%ADD20RoundRect,0.250000X0.450000X-0.262500X0.450000X0.262500X-0.450000X0.262500X-0.450000X-0.262500X0*%
%ADD21RoundRect,0.200000X-0.200000X-0.275000X0.200000X-0.275000X0.200000X0.275000X-0.200000X0.275000X0*%
%ADD22R,2.500000X2.200000*%
%ADD23R,1.550000X2.200000*%
%ADD24RoundRect,0.225000X0.375000X-0.225000X0.375000X0.225000X-0.375000X0.225000X-0.375000X-0.225000X0*%
%ADD25R,3.320000X1.500000*%
%ADD26RoundRect,0.200000X0.200000X0.275000X-0.200000X0.275000X-0.200000X-0.275000X0.200000X-0.275000X0*%
%ADD27RoundRect,0.250000X-0.450000X0.262500X-0.450000X-0.262500X0.450000X-0.262500X0.450000X0.262500X0*%
%ADD28RoundRect,0.250000X-0.475000X0.250000X-0.475000X-0.250000X0.475000X-0.250000X0.475000X0.250000X0*%
%ADD29RoundRect,0.225000X-0.225000X-0.375000X0.225000X-0.375000X0.225000X0.375000X-0.225000X0.375000X0*%
%ADD30RoundRect,0.150000X-0.587500X-0.150000X0.587500X-0.150000X0.587500X0.150000X-0.587500X0.150000X0*%
%ADD31RoundRect,0.042000X-0.943000X-0.258000X0.943000X-0.258000X0.943000X0.258000X-0.943000X0.258000X0*%
%ADD32RoundRect,0.225000X0.225000X0.250000X-0.225000X0.250000X-0.225000X-0.250000X0.225000X-0.250000X0*%
%ADD33RoundRect,0.112500X-0.112500X0.187500X-0.112500X-0.187500X0.112500X-0.187500X0.112500X0.187500X0*%
%ADD34RoundRect,0.150000X-0.512500X-0.150000X0.512500X-0.150000X0.512500X0.150000X-0.512500X0.150000X0*%
%ADD35RoundRect,0.250000X0.250000X0.475000X-0.250000X0.475000X-0.250000X-0.475000X0.250000X-0.475000X0*%
%ADD36RoundRect,0.225000X0.250000X-0.225000X0.250000X0.225000X-0.250000X0.225000X-0.250000X-0.225000X0*%
%ADD37R,0.700000X1.000000*%
%ADD38R,0.800000X1.000000*%
%ADD39R,1.250000X0.700000*%
%ADD40R,0.800000X0.500000*%
%ADD41R,0.800000X0.400000*%
G04 APERTURE END LIST*
D10*
X20440300Y-30761800D02*
X19150300Y-30761800D01*
X19150300Y-29121800D01*
X20440300Y-29121800D01*
X20440300Y-30761800D01*
G36*
X20440300Y-30761800D02*
G01*
X19150300Y-30761800D01*
X19150300Y-29121800D01*
X20440300Y-29121800D01*
X20440300Y-30761800D01*
G37*
D11*
X17700000Y-34937000D02*
X16900000Y-34937000D01*
X16900000Y-33937000D01*
X17700000Y-33937000D01*
X17700000Y-34937000D01*
G36*
X17700000Y-34937000D02*
G01*
X16900000Y-34937000D01*
X16900000Y-33937000D01*
X17700000Y-33937000D01*
X17700000Y-34937000D01*
G37*
X18850000Y-34937000D02*
X18150000Y-34937000D01*
X18150000Y-33937000D01*
X18850000Y-33937000D01*
X18850000Y-34937000D01*
G36*
X18850000Y-34937000D02*
G01*
X18150000Y-34937000D01*
X18150000Y-33937000D01*
X18850000Y-33937000D01*
X18850000Y-34937000D01*
G37*
X19850000Y-34937000D02*
X19150000Y-34937000D01*
X19150000Y-33937000D01*
X19850000Y-33937000D01*
X19850000Y-34937000D01*
G36*
X19850000Y-34937000D02*
G01*
X19150000Y-34937000D01*
X19150000Y-33937000D01*
X19850000Y-33937000D01*
X19850000Y-34937000D01*
G37*
X20850000Y-34937000D02*
X20150000Y-34937000D01*
X20150000Y-33937000D01*
X20850000Y-33937000D01*
X20850000Y-34937000D01*
G36*
X20850000Y-34937000D02*
G01*
X20150000Y-34937000D01*
X20150000Y-33937000D01*
X20850000Y-33937000D01*
X20850000Y-34937000D01*
G37*
X21850000Y-34937000D02*
X21150000Y-34937000D01*
X21150000Y-33937000D01*
X21850000Y-33937000D01*
X21850000Y-34937000D01*
G36*
X21850000Y-34937000D02*
G01*
X21150000Y-34937000D01*
X21150000Y-33937000D01*
X21850000Y-33937000D01*
X21850000Y-34937000D01*
G37*
X23100000Y-34937000D02*
X22300000Y-34937000D01*
X22300000Y-33937000D01*
X23100000Y-33937000D01*
X23100000Y-34937000D01*
G36*
X23100000Y-34937000D02*
G01*
X22300000Y-34937000D01*
X22300000Y-33937000D01*
X23100000Y-33937000D01*
X23100000Y-34937000D01*
G37*
X15787000Y-33623000D02*
X15891000Y-33654000D01*
X15986000Y-33705000D01*
X16069000Y-33774000D01*
X16137000Y-33857000D01*
X16188000Y-33952000D01*
X16220000Y-34055000D01*
X16230000Y-34162000D01*
X16230000Y-34962000D01*
X16220000Y-35070000D01*
X16188000Y-35173000D01*
X16137000Y-35268000D01*
X16069000Y-35351000D01*
X15986000Y-35420000D01*
X15891000Y-35471000D01*
X15787000Y-35502000D01*
X15680000Y-35512000D01*
X15573000Y-35502000D01*
X15470000Y-35471000D01*
X15375000Y-35420000D01*
X15291000Y-35351000D01*
X15223000Y-35268000D01*
X15172000Y-35173000D01*
X15141000Y-35070000D01*
X15130000Y-34962000D01*
X15130000Y-34162000D01*
X15141000Y-34055000D01*
X15172000Y-33952000D01*
X15223000Y-33857000D01*
X15291000Y-33774000D01*
X15375000Y-33705000D01*
X15470000Y-33654000D01*
X15573000Y-33623000D01*
X15680000Y-33612000D01*
X15787000Y-33623000D01*
G36*
X15787000Y-33623000D02*
G01*
X15891000Y-33654000D01*
X15986000Y-33705000D01*
X16069000Y-33774000D01*
X16137000Y-33857000D01*
X16188000Y-33952000D01*
X16220000Y-34055000D01*
X16230000Y-34162000D01*
X16230000Y-34962000D01*
X16220000Y-35070000D01*
X16188000Y-35173000D01*
X16137000Y-35268000D01*
X16069000Y-35351000D01*
X15986000Y-35420000D01*
X15891000Y-35471000D01*
X15787000Y-35502000D01*
X15680000Y-35512000D01*
X15573000Y-35502000D01*
X15470000Y-35471000D01*
X15375000Y-35420000D01*
X15291000Y-35351000D01*
X15223000Y-35268000D01*
X15172000Y-35173000D01*
X15141000Y-35070000D01*
X15130000Y-34962000D01*
X15130000Y-34162000D01*
X15141000Y-34055000D01*
X15172000Y-33952000D01*
X15223000Y-33857000D01*
X15291000Y-33774000D01*
X15375000Y-33705000D01*
X15470000Y-33654000D01*
X15573000Y-33623000D01*
X15680000Y-33612000D01*
X15787000Y-33623000D01*
G37*
X15787000Y-37423000D02*
X15891000Y-37454000D01*
X15986000Y-37505000D01*
X16069000Y-37574000D01*
X16137000Y-37657000D01*
X16188000Y-37752000D01*
X16220000Y-37855000D01*
X16230000Y-37963000D01*
X16230000Y-38763000D01*
X16220000Y-38870000D01*
X16188000Y-38973000D01*
X16137000Y-39068000D01*
X16069000Y-39151000D01*
X15986000Y-39220000D01*
X15891000Y-39271000D01*
X15787000Y-39302000D01*
X15680000Y-39313000D01*
X15573000Y-39302000D01*
X15470000Y-39271000D01*
X15375000Y-39220000D01*
X15291000Y-39151000D01*
X15223000Y-39068000D01*
X15172000Y-38973000D01*
X15141000Y-38870000D01*
X15130000Y-38763000D01*
X15130000Y-37963000D01*
X15141000Y-37855000D01*
X15172000Y-37752000D01*
X15223000Y-37657000D01*
X15291000Y-37574000D01*
X15375000Y-37505000D01*
X15470000Y-37454000D01*
X15573000Y-37423000D01*
X15680000Y-37413000D01*
X15787000Y-37423000D01*
G36*
X15787000Y-37423000D02*
G01*
X15891000Y-37454000D01*
X15986000Y-37505000D01*
X16069000Y-37574000D01*
X16137000Y-37657000D01*
X16188000Y-37752000D01*
X16220000Y-37855000D01*
X16230000Y-37963000D01*
X16230000Y-38763000D01*
X16220000Y-38870000D01*
X16188000Y-38973000D01*
X16137000Y-39068000D01*
X16069000Y-39151000D01*
X15986000Y-39220000D01*
X15891000Y-39271000D01*
X15787000Y-39302000D01*
X15680000Y-39313000D01*
X15573000Y-39302000D01*
X15470000Y-39271000D01*
X15375000Y-39220000D01*
X15291000Y-39151000D01*
X15223000Y-39068000D01*
X15172000Y-38973000D01*
X15141000Y-38870000D01*
X15130000Y-38763000D01*
X15130000Y-37963000D01*
X15141000Y-37855000D01*
X15172000Y-37752000D01*
X15223000Y-37657000D01*
X15291000Y-37574000D01*
X15375000Y-37505000D01*
X15470000Y-37454000D01*
X15573000Y-37423000D01*
X15680000Y-37413000D01*
X15787000Y-37423000D01*
G37*
X24427000Y-33623000D02*
X24530000Y-33654000D01*
X24625000Y-33705000D01*
X24709000Y-33774000D01*
X24777000Y-33857000D01*
X24828000Y-33952000D01*
X24859000Y-34055000D01*
X24870000Y-34162000D01*
X24870000Y-34962000D01*
X24859000Y-35070000D01*
X24828000Y-35173000D01*
X24777000Y-35268000D01*
X24709000Y-35351000D01*
X24625000Y-35420000D01*
X24530000Y-35471000D01*
X24427000Y-35502000D01*
X24320000Y-35512000D01*
X24213000Y-35502000D01*
X24109000Y-35471000D01*
X24014000Y-35420000D01*
X23931000Y-35351000D01*
X23863000Y-35268000D01*
X23812000Y-35173000D01*
X23780000Y-35070000D01*
X23770000Y-34962000D01*
X23770000Y-34162000D01*
X23780000Y-34055000D01*
X23812000Y-33952000D01*
X23863000Y-33857000D01*
X23931000Y-33774000D01*
X24014000Y-33705000D01*
X24109000Y-33654000D01*
X24213000Y-33623000D01*
X24320000Y-33612000D01*
X24427000Y-33623000D01*
G36*
X24427000Y-33623000D02*
G01*
X24530000Y-33654000D01*
X24625000Y-33705000D01*
X24709000Y-33774000D01*
X24777000Y-33857000D01*
X24828000Y-33952000D01*
X24859000Y-34055000D01*
X24870000Y-34162000D01*
X24870000Y-34962000D01*
X24859000Y-35070000D01*
X24828000Y-35173000D01*
X24777000Y-35268000D01*
X24709000Y-35351000D01*
X24625000Y-35420000D01*
X24530000Y-35471000D01*
X24427000Y-35502000D01*
X24320000Y-35512000D01*
X24213000Y-35502000D01*
X24109000Y-35471000D01*
X24014000Y-35420000D01*
X23931000Y-35351000D01*
X23863000Y-35268000D01*
X23812000Y-35173000D01*
X23780000Y-35070000D01*
X23770000Y-34962000D01*
X23770000Y-34162000D01*
X23780000Y-34055000D01*
X23812000Y-33952000D01*
X23863000Y-33857000D01*
X23931000Y-33774000D01*
X24014000Y-33705000D01*
X24109000Y-33654000D01*
X24213000Y-33623000D01*
X24320000Y-33612000D01*
X24427000Y-33623000D01*
G37*
X24427000Y-37423000D02*
X24530000Y-37454000D01*
X24625000Y-37505000D01*
X24709000Y-37574000D01*
X24777000Y-37657000D01*
X24828000Y-37752000D01*
X24859000Y-37855000D01*
X24870000Y-37963000D01*
X24870000Y-38763000D01*
X24859000Y-38870000D01*
X24828000Y-38973000D01*
X24777000Y-39068000D01*
X24709000Y-39151000D01*
X24625000Y-39220000D01*
X24530000Y-39271000D01*
X24427000Y-39302000D01*
X24320000Y-39313000D01*
X24213000Y-39302000D01*
X24109000Y-39271000D01*
X24014000Y-39220000D01*
X23931000Y-39151000D01*
X23863000Y-39068000D01*
X23812000Y-38973000D01*
X23780000Y-38870000D01*
X23770000Y-38763000D01*
X23770000Y-37963000D01*
X23780000Y-37855000D01*
X23812000Y-37752000D01*
X23863000Y-37657000D01*
X23931000Y-37574000D01*
X24014000Y-37505000D01*
X24109000Y-37454000D01*
X24213000Y-37423000D01*
X24320000Y-37413000D01*
X24427000Y-37423000D01*
G36*
X24427000Y-37423000D02*
G01*
X24530000Y-37454000D01*
X24625000Y-37505000D01*
X24709000Y-37574000D01*
X24777000Y-37657000D01*
X24828000Y-37752000D01*
X24859000Y-37855000D01*
X24870000Y-37963000D01*
X24870000Y-38763000D01*
X24859000Y-38870000D01*
X24828000Y-38973000D01*
X24777000Y-39068000D01*
X24709000Y-39151000D01*
X24625000Y-39220000D01*
X24530000Y-39271000D01*
X24427000Y-39302000D01*
X24320000Y-39313000D01*
X24213000Y-39302000D01*
X24109000Y-39271000D01*
X24014000Y-39220000D01*
X23931000Y-39151000D01*
X23863000Y-39068000D01*
X23812000Y-38973000D01*
X23780000Y-38870000D01*
X23770000Y-38763000D01*
X23770000Y-37963000D01*
X23780000Y-37855000D01*
X23812000Y-37752000D01*
X23863000Y-37657000D01*
X23931000Y-37574000D01*
X24014000Y-37505000D01*
X24109000Y-37454000D01*
X24213000Y-37423000D01*
X24320000Y-37413000D01*
X24427000Y-37423000D01*
G37*
D12*
X9950000Y-7950000D03*
X9950000Y-6650000D03*
X8650000Y-7950000D03*
X8650000Y-6650000D03*
D13*
X11225000Y-8300000D03*
X11225000Y-7800000D03*
X11225000Y-7300000D03*
X11225000Y-6800000D03*
X11225000Y-6300000D03*
D14*
X10300000Y-5375000D03*
X9800000Y-5375000D03*
X9300000Y-5375000D03*
X8800000Y-5375000D03*
X8300000Y-5375000D03*
D13*
X7375000Y-6300000D03*
X7375000Y-6800000D03*
X7375000Y-7300000D03*
X7375000Y-7800000D03*
X7375000Y-8300000D03*
D14*
X8300000Y-9225000D03*
X8800000Y-9225000D03*
X9300000Y-9225000D03*
X9800000Y-9225000D03*
X10300000Y-9225000D03*
D15*
X26462500Y-27900000D03*
X24887500Y-27900000D03*
D16*
X24825000Y-31500000D03*
X26375000Y-31500000D03*
D17*
X34600000Y-33325000D03*
X34600000Y-31675000D03*
D18*
X31750000Y-3500000D03*
X30800000Y-6000000D03*
X29850000Y-3500000D03*
D19*
X27075000Y-8225000D03*
X27075000Y-9875000D03*
D20*
X10200000Y-24800000D03*
X10200000Y-22975000D03*
D21*
X3475000Y-31700000D03*
X5125000Y-31700000D03*
X24750000Y-29600000D03*
X26400000Y-29600000D03*
D15*
X13875000Y-11500000D03*
X12300000Y-11500000D03*
D22*
X15494000Y-24765000D03*
D23*
X12919000Y-24765000D03*
D17*
X11700000Y-34225000D03*
X11700000Y-32575000D03*
D24*
X26650000Y-37800000D03*
X26650000Y-34500000D03*
D25*
X23100000Y-20128000D03*
X23100000Y-17472000D03*
D22*
X26924000Y-24765000D03*
D23*
X24349000Y-24765000D03*
D26*
X5125000Y-30000000D03*
X3475000Y-30000000D03*
D17*
X13800000Y-9425000D03*
X13800000Y-7775000D03*
D19*
X5200000Y-8875000D03*
X5200000Y-10525000D03*
D17*
X14375000Y-29125000D03*
X14375000Y-27475000D03*
D27*
X10300000Y-16487500D03*
X10300000Y-18312500D03*
D22*
X26924000Y-14100000D03*
D23*
X24349000Y-14100000D03*
D28*
X26100000Y-18200000D03*
X26100000Y-20100000D03*
D29*
X16809300Y-17073400D03*
X20109300Y-17073400D03*
D30*
X22351000Y-8476000D03*
X22351000Y-10376000D03*
X24226000Y-9426000D03*
D17*
X10687500Y-13125000D03*
X10687500Y-11475000D03*
D31*
X17320300Y-28036800D03*
X17320300Y-29306800D03*
X17320300Y-30576800D03*
X17320300Y-31846800D03*
X22270300Y-31846800D03*
X22270300Y-30576800D03*
X22270300Y-29306800D03*
X22270300Y-28036800D03*
D16*
X32225000Y-6400000D03*
X33775000Y-6400000D03*
D32*
X18475000Y-3200000D03*
X16925000Y-3200000D03*
D30*
X7025000Y-27950000D03*
X7025000Y-29850000D03*
X8900000Y-28900000D03*
D33*
X11300000Y-28850000D03*
X11300000Y-30950000D03*
D26*
X15625000Y-22100000D03*
X13975000Y-22100000D03*
D17*
X13900000Y-36025000D03*
X13900000Y-34375000D03*
D34*
X17825000Y-20200000D03*
X17825000Y-21150000D03*
X17825000Y-22100000D03*
X20100000Y-22100000D03*
X20100000Y-21150000D03*
X20100000Y-20200000D03*
D35*
X14735700Y-17124200D03*
X12835700Y-17124200D03*
D22*
X15494000Y-14100000D03*
D23*
X12919000Y-14100000D03*
D16*
X30025000Y-1750000D03*
X31575000Y-1750000D03*
D36*
X14375000Y-32275000D03*
X14375000Y-30725000D03*
D32*
X31175000Y-30300000D03*
X29625000Y-30300000D03*
D16*
X7425000Y-3700000D03*
X8975000Y-3700000D03*
D24*
X29200000Y-37850000D03*
X29200000Y-34550000D03*
D19*
X20326000Y-8501000D03*
X20326000Y-10151000D03*
D30*
X29100000Y-8200000D03*
X29100000Y-10100000D03*
X30975000Y-9150000D03*
D21*
X13975000Y-20400000D03*
X15625000Y-20400000D03*
D37*
X19500000Y-34437000D03*
X21500000Y-34437000D03*
D38*
X22700000Y-34437000D03*
D37*
X20500000Y-34437000D03*
X18500000Y-34437000D03*
D38*
X17300000Y-34437000D03*
D26*
X5125000Y-28000000D03*
X3475000Y-28000000D03*
D39*
X33900000Y-29950000D03*
X33900000Y-28050000D03*
X31900000Y-29000000D03*
D40*
X16676000Y-5776000D03*
D41*
X16676000Y-6576000D03*
X16676000Y-7376000D03*
D40*
X16676000Y-8176000D03*
X18476000Y-8176000D03*
D41*
X18476000Y-7376000D03*
X18476000Y-6576000D03*
D40*
X18476000Y-5776000D03*
M02*
