%TF.GenerationSoftware,KiCad,Pcbnew,(7.0.0)*%
%TF.CreationDate,2024-01-31T21:47:27+02:00*%
%TF.ProjectId,FancyLight-V2,46616e63-794c-4696-9768-742d56322e6b,rev?*%
%TF.SameCoordinates,Original*%
%TF.FileFunction,Paste,Top*%
%TF.FilePolarity,Positive*%
%FSLAX46Y46*%
G04 Gerber Fmt 4.6, Leading zero omitted, Abs format (unit mm)*
G04 Created by KiCad (PCBNEW (7.0.0)) date 2024-01-31 21:47:27*
%MOMM*%
%LPD*%
G01*
G04 APERTURE LIST*
G04 Aperture macros list*
%AMRoundRect*
0 Rectangle with rounded corners*
0 $1 Rounding radius*
0 $2 $3 $4 $5 $6 $7 $8 $9 X,Y pos of 4 corners*
0 Add a 4 corners polygon primitive as box body*
4,1,4,$2,$3,$4,$5,$6,$7,$8,$9,$2,$3,0*
0 Add four circle primitives for the rounded corners*
1,1,$1+$1,$2,$3*
1,1,$1+$1,$4,$5*
1,1,$1+$1,$6,$7*
1,1,$1+$1,$8,$9*
0 Add four rect primitives between the rounded corners*
20,1,$1+$1,$2,$3,$4,$5,0*
20,1,$1+$1,$4,$5,$6,$7,0*
20,1,$1+$1,$6,$7,$8,$9,0*
20,1,$1+$1,$8,$9,$2,$3,0*%
G04 Aperture macros list end*
%ADD10C,0.010000*%
%ADD11C,0.120000*%
%ADD12RoundRect,0.250000X0.275000X0.275000X-0.275000X0.275000X-0.275000X-0.275000X0.275000X-0.275000X0*%
%ADD13RoundRect,0.062500X0.362500X0.062500X-0.362500X0.062500X-0.362500X-0.062500X0.362500X-0.062500X0*%
%ADD14RoundRect,0.062500X0.062500X0.362500X-0.062500X0.362500X-0.062500X-0.362500X0.062500X-0.362500X0*%
%ADD15RoundRect,0.243750X0.243750X0.456250X-0.243750X0.456250X-0.243750X-0.456250X0.243750X-0.456250X0*%
%ADD16RoundRect,0.225000X-0.225000X-0.250000X0.225000X-0.250000X0.225000X0.250000X-0.225000X0.250000X0*%
%ADD17RoundRect,0.200000X0.275000X-0.200000X0.275000X0.200000X-0.275000X0.200000X-0.275000X-0.200000X0*%
%ADD18RoundRect,0.200000X0.200000X0.275000X-0.200000X0.275000X-0.200000X-0.275000X0.200000X-0.275000X0*%
%ADD19RoundRect,0.250000X0.450000X-0.262500X0.450000X0.262500X-0.450000X0.262500X-0.450000X-0.262500X0*%
%ADD20RoundRect,0.200000X-0.200000X-0.275000X0.200000X-0.275000X0.200000X0.275000X-0.200000X0.275000X0*%
%ADD21RoundRect,0.218750X-0.218750X-0.256250X0.218750X-0.256250X0.218750X0.256250X-0.218750X0.256250X0*%
%ADD22R,2.500000X2.200000*%
%ADD23R,1.550000X2.200000*%
%ADD24RoundRect,0.225000X0.375000X-0.225000X0.375000X0.225000X-0.375000X0.225000X-0.375000X-0.225000X0*%
%ADD25RoundRect,0.250000X-0.450000X0.262500X-0.450000X-0.262500X0.450000X-0.262500X0.450000X0.262500X0*%
%ADD26RoundRect,0.250000X-0.475000X0.250000X-0.475000X-0.250000X0.475000X-0.250000X0.475000X0.250000X0*%
%ADD27RoundRect,0.225000X-0.225000X-0.375000X0.225000X-0.375000X0.225000X0.375000X-0.225000X0.375000X0*%
%ADD28RoundRect,0.150000X-0.587500X-0.150000X0.587500X-0.150000X0.587500X0.150000X-0.587500X0.150000X0*%
%ADD29RoundRect,0.042000X-0.943000X-0.258000X0.943000X-0.258000X0.943000X0.258000X-0.943000X0.258000X0*%
%ADD30RoundRect,0.112500X-0.112500X0.187500X-0.112500X-0.187500X0.112500X-0.187500X0.112500X0.187500X0*%
%ADD31RoundRect,0.150000X-0.512500X-0.150000X0.512500X-0.150000X0.512500X0.150000X-0.512500X0.150000X0*%
%ADD32RoundRect,0.250000X0.250000X0.475000X-0.250000X0.475000X-0.250000X-0.475000X0.250000X-0.475000X0*%
%ADD33RoundRect,0.225000X0.250000X-0.225000X0.250000X0.225000X-0.250000X0.225000X-0.250000X-0.225000X0*%
%ADD34RoundRect,0.225000X0.225000X0.250000X-0.225000X0.250000X-0.225000X-0.250000X0.225000X-0.250000X0*%
%ADD35RoundRect,0.200000X-0.275000X0.200000X-0.275000X-0.200000X0.275000X-0.200000X0.275000X0.200000X0*%
%ADD36RoundRect,0.150000X-0.150000X0.587500X-0.150000X-0.587500X0.150000X-0.587500X0.150000X0.587500X0*%
%ADD37R,0.700000X1.000000*%
%ADD38R,0.800000X1.000000*%
%ADD39R,1.250000X0.700000*%
%ADD40R,0.800000X0.500000*%
%ADD41R,0.800000X0.400000*%
G04 APERTURE END LIST*
%TO.C,L1*%
G36*
X23600000Y-21263400D02*
G01*
X23100000Y-21263400D01*
X23100000Y-22363400D01*
X22100000Y-22363400D01*
X22100000Y-21263400D01*
X21600000Y-21263400D01*
X21600000Y-20263400D01*
X23600000Y-20263400D01*
X23600000Y-21263400D01*
G37*
D10*
X23600000Y-21263400D02*
X23100000Y-21263400D01*
X23100000Y-22363400D01*
X22100000Y-22363400D01*
X22100000Y-21263400D01*
X21600000Y-21263400D01*
X21600000Y-20263400D01*
X23600000Y-20263400D01*
X23600000Y-21263400D01*
G36*
X23100000Y-17963400D02*
G01*
X23600000Y-17963400D01*
X23600000Y-18963400D01*
X21600000Y-18963400D01*
X21600000Y-17963400D01*
X22100000Y-17963400D01*
X22100000Y-16863400D01*
X23100000Y-16863400D01*
X23100000Y-17963400D01*
G37*
X23100000Y-17963400D02*
X23600000Y-17963400D01*
X23600000Y-18963400D01*
X21600000Y-18963400D01*
X21600000Y-17963400D01*
X22100000Y-17963400D01*
X22100000Y-16863400D01*
X23100000Y-16863400D01*
X23100000Y-17963400D01*
%TO.C,U2*%
G36*
X20440300Y-30761800D02*
G01*
X19150300Y-30761800D01*
X19150300Y-29121800D01*
X20440300Y-29121800D01*
X20440300Y-30761800D01*
G37*
X20440300Y-30761800D02*
X19150300Y-30761800D01*
X19150300Y-29121800D01*
X20440300Y-29121800D01*
X20440300Y-30761800D01*
%TO.C,USB1*%
G36*
X17700000Y-34937000D02*
G01*
X16900000Y-34937000D01*
X16900000Y-33937000D01*
X17700000Y-33937000D01*
X17700000Y-34937000D01*
G37*
D11*
X17700000Y-34937000D02*
X16900000Y-34937000D01*
X16900000Y-33937000D01*
X17700000Y-33937000D01*
X17700000Y-34937000D01*
G36*
X18850000Y-34937000D02*
G01*
X18150000Y-34937000D01*
X18150000Y-33937000D01*
X18850000Y-33937000D01*
X18850000Y-34937000D01*
G37*
X18850000Y-34937000D02*
X18150000Y-34937000D01*
X18150000Y-33937000D01*
X18850000Y-33937000D01*
X18850000Y-34937000D01*
G36*
X19850000Y-34937000D02*
G01*
X19150000Y-34937000D01*
X19150000Y-33937000D01*
X19850000Y-33937000D01*
X19850000Y-34937000D01*
G37*
X19850000Y-34937000D02*
X19150000Y-34937000D01*
X19150000Y-33937000D01*
X19850000Y-33937000D01*
X19850000Y-34937000D01*
G36*
X20850000Y-34937000D02*
G01*
X20150000Y-34937000D01*
X20150000Y-33937000D01*
X20850000Y-33937000D01*
X20850000Y-34937000D01*
G37*
X20850000Y-34937000D02*
X20150000Y-34937000D01*
X20150000Y-33937000D01*
X20850000Y-33937000D01*
X20850000Y-34937000D01*
G36*
X21850000Y-34937000D02*
G01*
X21150000Y-34937000D01*
X21150000Y-33937000D01*
X21850000Y-33937000D01*
X21850000Y-34937000D01*
G37*
X21850000Y-34937000D02*
X21150000Y-34937000D01*
X21150000Y-33937000D01*
X21850000Y-33937000D01*
X21850000Y-34937000D01*
G36*
X23100000Y-34937000D02*
G01*
X22300000Y-34937000D01*
X22300000Y-33937000D01*
X23100000Y-33937000D01*
X23100000Y-34937000D01*
G37*
X23100000Y-34937000D02*
X22300000Y-34937000D01*
X22300000Y-33937000D01*
X23100000Y-33937000D01*
X23100000Y-34937000D01*
G36*
X15787000Y-33623000D02*
G01*
X15891000Y-33654000D01*
X15986000Y-33705000D01*
X16069000Y-33774000D01*
X16137000Y-33857000D01*
X16188000Y-33952000D01*
X16220000Y-34055000D01*
X16230000Y-34162000D01*
X16230000Y-34962000D01*
X16220000Y-35070000D01*
X16188000Y-35173000D01*
X16137000Y-35268000D01*
X16069000Y-35351000D01*
X15986000Y-35420000D01*
X15891000Y-35471000D01*
X15787000Y-35502000D01*
X15680000Y-35512000D01*
X15573000Y-35502000D01*
X15470000Y-35471000D01*
X15375000Y-35420000D01*
X15291000Y-35351000D01*
X15223000Y-35268000D01*
X15172000Y-35173000D01*
X15141000Y-35070000D01*
X15130000Y-34962000D01*
X15130000Y-34162000D01*
X15141000Y-34055000D01*
X15172000Y-33952000D01*
X15223000Y-33857000D01*
X15291000Y-33774000D01*
X15375000Y-33705000D01*
X15470000Y-33654000D01*
X15573000Y-33623000D01*
X15680000Y-33612000D01*
X15787000Y-33623000D01*
G37*
X15787000Y-33623000D02*
X15891000Y-33654000D01*
X15986000Y-33705000D01*
X16069000Y-33774000D01*
X16137000Y-33857000D01*
X16188000Y-33952000D01*
X16220000Y-34055000D01*
X16230000Y-34162000D01*
X16230000Y-34962000D01*
X16220000Y-35070000D01*
X16188000Y-35173000D01*
X16137000Y-35268000D01*
X16069000Y-35351000D01*
X15986000Y-35420000D01*
X15891000Y-35471000D01*
X15787000Y-35502000D01*
X15680000Y-35512000D01*
X15573000Y-35502000D01*
X15470000Y-35471000D01*
X15375000Y-35420000D01*
X15291000Y-35351000D01*
X15223000Y-35268000D01*
X15172000Y-35173000D01*
X15141000Y-35070000D01*
X15130000Y-34962000D01*
X15130000Y-34162000D01*
X15141000Y-34055000D01*
X15172000Y-33952000D01*
X15223000Y-33857000D01*
X15291000Y-33774000D01*
X15375000Y-33705000D01*
X15470000Y-33654000D01*
X15573000Y-33623000D01*
X15680000Y-33612000D01*
X15787000Y-33623000D01*
G36*
X15787000Y-37423000D02*
G01*
X15891000Y-37454000D01*
X15986000Y-37505000D01*
X16069000Y-37574000D01*
X16137000Y-37657000D01*
X16188000Y-37752000D01*
X16220000Y-37855000D01*
X16230000Y-37963000D01*
X16230000Y-38763000D01*
X16220000Y-38870000D01*
X16188000Y-38973000D01*
X16137000Y-39068000D01*
X16069000Y-39151000D01*
X15986000Y-39220000D01*
X15891000Y-39271000D01*
X15787000Y-39302000D01*
X15680000Y-39313000D01*
X15573000Y-39302000D01*
X15470000Y-39271000D01*
X15375000Y-39220000D01*
X15291000Y-39151000D01*
X15223000Y-39068000D01*
X15172000Y-38973000D01*
X15141000Y-38870000D01*
X15130000Y-38763000D01*
X15130000Y-37963000D01*
X15141000Y-37855000D01*
X15172000Y-37752000D01*
X15223000Y-37657000D01*
X15291000Y-37574000D01*
X15375000Y-37505000D01*
X15470000Y-37454000D01*
X15573000Y-37423000D01*
X15680000Y-37413000D01*
X15787000Y-37423000D01*
G37*
X15787000Y-37423000D02*
X15891000Y-37454000D01*
X15986000Y-37505000D01*
X16069000Y-37574000D01*
X16137000Y-37657000D01*
X16188000Y-37752000D01*
X16220000Y-37855000D01*
X16230000Y-37963000D01*
X16230000Y-38763000D01*
X16220000Y-38870000D01*
X16188000Y-38973000D01*
X16137000Y-39068000D01*
X16069000Y-39151000D01*
X15986000Y-39220000D01*
X15891000Y-39271000D01*
X15787000Y-39302000D01*
X15680000Y-39313000D01*
X15573000Y-39302000D01*
X15470000Y-39271000D01*
X15375000Y-39220000D01*
X15291000Y-39151000D01*
X15223000Y-39068000D01*
X15172000Y-38973000D01*
X15141000Y-38870000D01*
X15130000Y-38763000D01*
X15130000Y-37963000D01*
X15141000Y-37855000D01*
X15172000Y-37752000D01*
X15223000Y-37657000D01*
X15291000Y-37574000D01*
X15375000Y-37505000D01*
X15470000Y-37454000D01*
X15573000Y-37423000D01*
X15680000Y-37413000D01*
X15787000Y-37423000D01*
G36*
X24427000Y-33623000D02*
G01*
X24530000Y-33654000D01*
X24625000Y-33705000D01*
X24709000Y-33774000D01*
X24777000Y-33857000D01*
X24828000Y-33952000D01*
X24859000Y-34055000D01*
X24870000Y-34162000D01*
X24870000Y-34962000D01*
X24859000Y-35070000D01*
X24828000Y-35173000D01*
X24777000Y-35268000D01*
X24709000Y-35351000D01*
X24625000Y-35420000D01*
X24530000Y-35471000D01*
X24427000Y-35502000D01*
X24320000Y-35512000D01*
X24213000Y-35502000D01*
X24109000Y-35471000D01*
X24014000Y-35420000D01*
X23931000Y-35351000D01*
X23863000Y-35268000D01*
X23812000Y-35173000D01*
X23780000Y-35070000D01*
X23770000Y-34962000D01*
X23770000Y-34162000D01*
X23780000Y-34055000D01*
X23812000Y-33952000D01*
X23863000Y-33857000D01*
X23931000Y-33774000D01*
X24014000Y-33705000D01*
X24109000Y-33654000D01*
X24213000Y-33623000D01*
X24320000Y-33612000D01*
X24427000Y-33623000D01*
G37*
X24427000Y-33623000D02*
X24530000Y-33654000D01*
X24625000Y-33705000D01*
X24709000Y-33774000D01*
X24777000Y-33857000D01*
X24828000Y-33952000D01*
X24859000Y-34055000D01*
X24870000Y-34162000D01*
X24870000Y-34962000D01*
X24859000Y-35070000D01*
X24828000Y-35173000D01*
X24777000Y-35268000D01*
X24709000Y-35351000D01*
X24625000Y-35420000D01*
X24530000Y-35471000D01*
X24427000Y-35502000D01*
X24320000Y-35512000D01*
X24213000Y-35502000D01*
X24109000Y-35471000D01*
X24014000Y-35420000D01*
X23931000Y-35351000D01*
X23863000Y-35268000D01*
X23812000Y-35173000D01*
X23780000Y-35070000D01*
X23770000Y-34962000D01*
X23770000Y-34162000D01*
X23780000Y-34055000D01*
X23812000Y-33952000D01*
X23863000Y-33857000D01*
X23931000Y-33774000D01*
X24014000Y-33705000D01*
X24109000Y-33654000D01*
X24213000Y-33623000D01*
X24320000Y-33612000D01*
X24427000Y-33623000D01*
G36*
X24427000Y-37423000D02*
G01*
X24530000Y-37454000D01*
X24625000Y-37505000D01*
X24709000Y-37574000D01*
X24777000Y-37657000D01*
X24828000Y-37752000D01*
X24859000Y-37855000D01*
X24870000Y-37963000D01*
X24870000Y-38763000D01*
X24859000Y-38870000D01*
X24828000Y-38973000D01*
X24777000Y-39068000D01*
X24709000Y-39151000D01*
X24625000Y-39220000D01*
X24530000Y-39271000D01*
X24427000Y-39302000D01*
X24320000Y-39313000D01*
X24213000Y-39302000D01*
X24109000Y-39271000D01*
X24014000Y-39220000D01*
X23931000Y-39151000D01*
X23863000Y-39068000D01*
X23812000Y-38973000D01*
X23780000Y-38870000D01*
X23770000Y-38763000D01*
X23770000Y-37963000D01*
X23780000Y-37855000D01*
X23812000Y-37752000D01*
X23863000Y-37657000D01*
X23931000Y-37574000D01*
X24014000Y-37505000D01*
X24109000Y-37454000D01*
X24213000Y-37423000D01*
X24320000Y-37413000D01*
X24427000Y-37423000D01*
G37*
X24427000Y-37423000D02*
X24530000Y-37454000D01*
X24625000Y-37505000D01*
X24709000Y-37574000D01*
X24777000Y-37657000D01*
X24828000Y-37752000D01*
X24859000Y-37855000D01*
X24870000Y-37963000D01*
X24870000Y-38763000D01*
X24859000Y-38870000D01*
X24828000Y-38973000D01*
X24777000Y-39068000D01*
X24709000Y-39151000D01*
X24625000Y-39220000D01*
X24530000Y-39271000D01*
X24427000Y-39302000D01*
X24320000Y-39313000D01*
X24213000Y-39302000D01*
X24109000Y-39271000D01*
X24014000Y-39220000D01*
X23931000Y-39151000D01*
X23863000Y-39068000D01*
X23812000Y-38973000D01*
X23780000Y-38870000D01*
X23770000Y-38763000D01*
X23770000Y-37963000D01*
X23780000Y-37855000D01*
X23812000Y-37752000D01*
X23863000Y-37657000D01*
X23931000Y-37574000D01*
X24014000Y-37505000D01*
X24109000Y-37454000D01*
X24213000Y-37423000D01*
X24320000Y-37413000D01*
X24427000Y-37423000D01*
%TD*%
D12*
%TO.C,U6*%
X9950000Y-7950000D03*
X9950000Y-6650000D03*
X8650000Y-7950000D03*
X8650000Y-6650000D03*
D13*
X11225000Y-8300000D03*
X11225000Y-7800000D03*
X11225000Y-7300000D03*
X11225000Y-6800000D03*
X11225000Y-6300000D03*
D14*
X10300000Y-5375000D03*
X9800000Y-5375000D03*
X9300000Y-5375000D03*
X8800000Y-5375000D03*
X8300000Y-5375000D03*
D13*
X7375000Y-6300000D03*
X7375000Y-6800000D03*
X7375000Y-7300000D03*
X7375000Y-7800000D03*
X7375000Y-8300000D03*
D14*
X8300000Y-9225000D03*
X8800000Y-9225000D03*
X9300000Y-9225000D03*
X9800000Y-9225000D03*
X10300000Y-9225000D03*
%TD*%
D15*
%TO.C,D6*%
X26612500Y-27900000D03*
X24737500Y-27900000D03*
%TD*%
D16*
%TO.C,C4*%
X24825000Y-31500000D03*
X26375000Y-31500000D03*
%TD*%
D17*
%TO.C,R8*%
X34600000Y-33325000D03*
X34600000Y-31675000D03*
%TD*%
D18*
%TO.C,R11*%
X27825000Y-7000000D03*
X26175000Y-7000000D03*
%TD*%
D19*
%TO.C,R2*%
X10200000Y-23812500D03*
X10200000Y-21987500D03*
%TD*%
D20*
%TO.C,R6*%
X24750000Y-29600000D03*
X26400000Y-29600000D03*
%TD*%
D21*
%TO.C,D10*%
X5912500Y-13100000D03*
X7487500Y-13100000D03*
%TD*%
D22*
%TO.C,D3*%
X15493999Y-24764999D03*
D23*
X12918999Y-24764999D03*
%TD*%
D17*
%TO.C,R9*%
X11700000Y-34225000D03*
X11700000Y-32575000D03*
%TD*%
D24*
%TO.C,D7*%
X26650000Y-37800000D03*
X26650000Y-34500000D03*
%TD*%
D22*
%TO.C,D4*%
X26923999Y-24764999D03*
D23*
X24348999Y-24764999D03*
%TD*%
D18*
%TO.C,R16*%
X10075000Y-11450000D03*
X8425000Y-11450000D03*
%TD*%
D20*
%TO.C,R13*%
X5775000Y-23600000D03*
X7425000Y-23600000D03*
%TD*%
D17*
%TO.C,R5*%
X14375000Y-29125000D03*
X14375000Y-27475000D03*
%TD*%
D25*
%TO.C,R1*%
X10400000Y-15987500D03*
X10400000Y-17812500D03*
%TD*%
D22*
%TO.C,D2*%
X26923999Y-14099999D03*
D23*
X24348999Y-14099999D03*
%TD*%
D26*
%TO.C,C1*%
X25400000Y-18850000D03*
X25400000Y-20750000D03*
%TD*%
D27*
%TO.C,D5*%
X16809300Y-17073400D03*
X20109300Y-17073400D03*
%TD*%
D28*
%TO.C,Q2*%
X18875000Y-8500000D03*
X18875000Y-10400000D03*
X20750000Y-9450000D03*
%TD*%
D18*
%TO.C,R17*%
X10625000Y-13100000D03*
X8975000Y-13100000D03*
%TD*%
D29*
%TO.C,U2*%
X17320300Y-28036800D03*
X17320300Y-29306800D03*
X17320300Y-30576800D03*
X17320300Y-31846800D03*
X22270300Y-31846800D03*
X22270300Y-30576800D03*
X22270300Y-29306800D03*
X22270300Y-28036800D03*
%TD*%
D30*
%TO.C,D9*%
X11300000Y-28850000D03*
X11300000Y-30950000D03*
%TD*%
D18*
%TO.C,R3*%
X15625000Y-22100000D03*
X13975000Y-22100000D03*
%TD*%
D17*
%TO.C,R7*%
X13900000Y-36025000D03*
X13900000Y-34375000D03*
%TD*%
D31*
%TO.C,U1*%
X17825000Y-20200000D03*
X17825000Y-21150000D03*
X17825000Y-22100000D03*
X20100000Y-22100000D03*
X20100000Y-21150000D03*
X20100000Y-20200000D03*
%TD*%
D32*
%TO.C,C2*%
X14735700Y-17124200D03*
X12835700Y-17124200D03*
%TD*%
D22*
%TO.C,D1*%
X15493999Y-14099999D03*
D23*
X12918999Y-14099999D03*
%TD*%
D33*
%TO.C,C3*%
X14375000Y-32275000D03*
X14375000Y-30725000D03*
%TD*%
D34*
%TO.C,C5*%
X31175000Y-30300000D03*
X29625000Y-30300000D03*
%TD*%
D16*
%TO.C,C6*%
X7425000Y-3700000D03*
X8975000Y-3700000D03*
%TD*%
D24*
%TO.C,D8*%
X29200000Y-37850000D03*
X29200000Y-34550000D03*
%TD*%
D35*
%TO.C,R12*%
X16850000Y-8525000D03*
X16850000Y-10175000D03*
%TD*%
D36*
%TO.C,Q1*%
X27850000Y-9025000D03*
X25950000Y-9025000D03*
X26900000Y-10900000D03*
%TD*%
D20*
%TO.C,R14*%
X9575000Y-27200000D03*
X11225000Y-27200000D03*
%TD*%
%TO.C,R4*%
X13975000Y-20400000D03*
X15625000Y-20400000D03*
%TD*%
D37*
%TO.C,USB1*%
X19499999Y-34436999D03*
X21499999Y-34436999D03*
D38*
X22699999Y-34436999D03*
D37*
X20499999Y-34436999D03*
X18499999Y-34436999D03*
D38*
X17299999Y-34436999D03*
%TD*%
D18*
%TO.C,R18*%
X5500000Y-32400000D03*
X3850000Y-32400000D03*
%TD*%
D39*
%TO.C,U3*%
X33899999Y-29949999D03*
X33899999Y-28049999D03*
X31899999Y-28999999D03*
%TD*%
D40*
%TO.C,RN1*%
X13199999Y-5799999D03*
D41*
X13199999Y-6599999D03*
X13199999Y-7399999D03*
D40*
X13199999Y-8199999D03*
X14999999Y-8199999D03*
D41*
X14999999Y-7399999D03*
X14999999Y-6599999D03*
D40*
X14999999Y-5799999D03*
%TD*%
M02*
