G04 #@! TF.GenerationSoftware,KiCad,Pcbnew,8.0.1*
G04 #@! TF.CreationDate,2024-06-15T21:09:50+03:00*
G04 #@! TF.ProjectId,FancyLight-V2,46616e63-794c-4696-9768-742d56322e6b,rev?*
G04 #@! TF.SameCoordinates,Original*
G04 #@! TF.FileFunction,Copper,L3,Inr*
G04 #@! TF.FilePolarity,Positive*
%FSLAX46Y46*%
G04 Gerber Fmt 4.6, Leading zero omitted, Abs format (unit mm)*
G04 Created by KiCad (PCBNEW 8.0.1) date 2024-06-15 21:09:50*
%MOMM*%
%LPD*%
G01*
G04 APERTURE LIST*
G04 #@! TA.AperFunction,ComponentPad*
%ADD10R,1.000000X1.000000*%
G04 #@! TD*
G04 #@! TA.AperFunction,ComponentPad*
%ADD11O,1.000000X1.000000*%
G04 #@! TD*
G04 #@! TA.AperFunction,ComponentPad*
%ADD12R,1.700000X1.700000*%
G04 #@! TD*
G04 #@! TA.AperFunction,ComponentPad*
%ADD13O,1.700000X1.700000*%
G04 #@! TD*
G04 #@! TA.AperFunction,ComponentPad*
%ADD14O,1.100000X1.900000*%
G04 #@! TD*
G04 #@! TA.AperFunction,ViaPad*
%ADD15C,0.800000*%
G04 #@! TD*
G04 #@! TA.AperFunction,Conductor*
%ADD16C,0.250000*%
G04 #@! TD*
G04 APERTURE END LIST*
D10*
X32000000Y-37470000D03*
D11*
X32000000Y-36200000D03*
D12*
X5500000Y-22660000D03*
D13*
X5500000Y-25200000D03*
X2960000Y-22660000D03*
X2960000Y-25200000D03*
D10*
X20926000Y-3456000D03*
D11*
X20926000Y-4726000D03*
X20926000Y-5996000D03*
D10*
X27576000Y-3476000D03*
D11*
X27576000Y-4746000D03*
D10*
X32000000Y-33600000D03*
D11*
X32000000Y-32330000D03*
D10*
X24226000Y-5996000D03*
D11*
X24226000Y-4726000D03*
X24226000Y-3456000D03*
D14*
X15680000Y-34562000D03*
X15680000Y-38363000D03*
X24320000Y-34562000D03*
X24320000Y-38363000D03*
D12*
X2960000Y-13275000D03*
D13*
X5500000Y-13275000D03*
X2960000Y-15815000D03*
X5500000Y-15815000D03*
X2960000Y-18355000D03*
X5500000Y-18355000D03*
D15*
X6300000Y-26600000D03*
X7200000Y-32800000D03*
X7200000Y-31400000D03*
X9800000Y-26600000D03*
X11200000Y-26600000D03*
X18100000Y-25900000D03*
X19500000Y-25900000D03*
X28100000Y-32000000D03*
X28100000Y-30600000D03*
X35900000Y-30800000D03*
X35900000Y-29400000D03*
X27100000Y-11700000D03*
X25700000Y-11700000D03*
X22000000Y-12100000D03*
X20600000Y-12100000D03*
X17400000Y-11700000D03*
X16000000Y-11700000D03*
X34500000Y-8400000D03*
X33100000Y-8400000D03*
X8700000Y-2400000D03*
X7300000Y-2400000D03*
X33000000Y-3300000D03*
X33000000Y-1700000D03*
X11900000Y-3700000D03*
X13300000Y-3700000D03*
X14700000Y-3700000D03*
X8300000Y-26700000D03*
X9300000Y-11600000D03*
X19800000Y-19000000D03*
X11500000Y-19600000D03*
X10000000Y-6500000D03*
X12300000Y-22700000D03*
X10000000Y-7900000D03*
X21900000Y-15200000D03*
X19500000Y-15200000D03*
X8600000Y-7900000D03*
X16500000Y-19000000D03*
X8500000Y-6500000D03*
X19700000Y-23100000D03*
X26400000Y-16500000D03*
X15200000Y-19000000D03*
X17700000Y-23100000D03*
X12800000Y-19200000D03*
X9800000Y-31500000D03*
X21200000Y-26700000D03*
X6400000Y-10800000D03*
X25400000Y-21900000D03*
X10300000Y-3700000D03*
X23000000Y-21900000D03*
X33000000Y-4900000D03*
X24200000Y-21900000D03*
X10700000Y-14300000D03*
X11700000Y-9200000D03*
X4200000Y-8900000D03*
X25825000Y-8225000D03*
X18476000Y-9276000D03*
X21300000Y-23000000D03*
X18376000Y-4476000D03*
X15300000Y-9400000D03*
X7400000Y-10000000D03*
X17401000Y-9300000D03*
X6350000Y-8050000D03*
X15500000Y-8200000D03*
D16*
X20926000Y-2626000D02*
X21352000Y-2200000D01*
X26900000Y-2200000D02*
X27576000Y-2876000D01*
X21352000Y-2200000D02*
X26900000Y-2200000D01*
X20926000Y-3456000D02*
X20926000Y-2626000D01*
X27576000Y-2876000D02*
X27576000Y-3476000D01*
X11700000Y-9200000D02*
X10700000Y-10200000D01*
X10700000Y-10200000D02*
X10700000Y-14300000D01*
G04 #@! TA.AperFunction,Conductor*
G36*
X39943039Y-19685D02*
G01*
X39988794Y-72489D01*
X40000000Y-124000D01*
X40000000Y-39876000D01*
X39980315Y-39943039D01*
X39927511Y-39988794D01*
X39876000Y-40000000D01*
X124000Y-40000000D01*
X56961Y-39980315D01*
X11206Y-39927511D01*
X0Y-39876000D01*
X0Y-38841846D01*
X14879500Y-38841846D01*
X14910261Y-38996489D01*
X14910264Y-38996501D01*
X14970602Y-39142172D01*
X14970609Y-39142185D01*
X15058210Y-39273288D01*
X15058213Y-39273292D01*
X15169707Y-39384786D01*
X15169711Y-39384789D01*
X15300814Y-39472390D01*
X15300827Y-39472397D01*
X15446498Y-39532735D01*
X15446503Y-39532737D01*
X15601153Y-39563499D01*
X15601156Y-39563500D01*
X15601158Y-39563500D01*
X15758844Y-39563500D01*
X15758845Y-39563499D01*
X15913497Y-39532737D01*
X16059179Y-39472394D01*
X16190289Y-39384789D01*
X16301789Y-39273289D01*
X16389394Y-39142179D01*
X16449737Y-38996497D01*
X16480499Y-38841846D01*
X23519500Y-38841846D01*
X23550261Y-38996489D01*
X23550264Y-38996501D01*
X23610602Y-39142172D01*
X23610609Y-39142185D01*
X23698210Y-39273288D01*
X23698213Y-39273292D01*
X23809707Y-39384786D01*
X23809711Y-39384789D01*
X23940814Y-39472390D01*
X23940827Y-39472397D01*
X24086498Y-39532735D01*
X24086503Y-39532737D01*
X24241153Y-39563499D01*
X24241156Y-39563500D01*
X24241158Y-39563500D01*
X24398844Y-39563500D01*
X24398845Y-39563499D01*
X24553497Y-39532737D01*
X24699179Y-39472394D01*
X24830289Y-39384789D01*
X24941789Y-39273289D01*
X25029394Y-39142179D01*
X25089737Y-38996497D01*
X25120500Y-38841842D01*
X25120500Y-37884158D01*
X25120500Y-37884155D01*
X25120499Y-37884153D01*
X25089737Y-37729503D01*
X25054534Y-37644514D01*
X25029397Y-37583827D01*
X25029390Y-37583814D01*
X24941789Y-37452711D01*
X24941786Y-37452707D01*
X24830292Y-37341213D01*
X24830288Y-37341210D01*
X24699185Y-37253609D01*
X24699172Y-37253602D01*
X24553501Y-37193264D01*
X24553489Y-37193261D01*
X24398845Y-37162500D01*
X24398842Y-37162500D01*
X24241158Y-37162500D01*
X24241155Y-37162500D01*
X24086510Y-37193261D01*
X24086498Y-37193264D01*
X23940827Y-37253602D01*
X23940814Y-37253609D01*
X23809711Y-37341210D01*
X23809707Y-37341213D01*
X23698213Y-37452707D01*
X23698210Y-37452711D01*
X23610609Y-37583814D01*
X23610602Y-37583827D01*
X23550264Y-37729498D01*
X23550261Y-37729510D01*
X23519500Y-37884153D01*
X23519500Y-38841846D01*
X16480499Y-38841846D01*
X16480500Y-38841842D01*
X16480500Y-37884158D01*
X16480500Y-37884155D01*
X16480499Y-37884153D01*
X16449737Y-37729503D01*
X16414534Y-37644514D01*
X16389397Y-37583827D01*
X16389390Y-37583814D01*
X16301789Y-37452711D01*
X16301786Y-37452707D01*
X16190292Y-37341213D01*
X16190288Y-37341210D01*
X16059185Y-37253609D01*
X16059172Y-37253602D01*
X15913501Y-37193264D01*
X15913489Y-37193261D01*
X15758845Y-37162500D01*
X15758842Y-37162500D01*
X15601158Y-37162500D01*
X15601155Y-37162500D01*
X15446510Y-37193261D01*
X15446498Y-37193264D01*
X15300827Y-37253602D01*
X15300814Y-37253609D01*
X15169711Y-37341210D01*
X15169707Y-37341213D01*
X15058213Y-37452707D01*
X15058210Y-37452711D01*
X14970609Y-37583814D01*
X14970602Y-37583827D01*
X14910264Y-37729498D01*
X14910261Y-37729510D01*
X14879500Y-37884153D01*
X14879500Y-38841846D01*
X0Y-38841846D01*
X0Y-36618097D01*
X1999500Y-36618097D01*
X2036446Y-36851368D01*
X2109433Y-37075996D01*
X2169185Y-37193264D01*
X2216657Y-37286433D01*
X2355483Y-37477510D01*
X2522490Y-37644517D01*
X2713567Y-37783343D01*
X2812991Y-37834002D01*
X2924003Y-37890566D01*
X2924005Y-37890566D01*
X2924008Y-37890568D01*
X3044412Y-37929689D01*
X3148631Y-37963553D01*
X3381903Y-38000500D01*
X3381908Y-38000500D01*
X3618097Y-38000500D01*
X3851368Y-37963553D01*
X4075992Y-37890568D01*
X4286433Y-37783343D01*
X4477510Y-37644517D01*
X4644517Y-37477510D01*
X4783343Y-37286433D01*
X4890568Y-37075992D01*
X4963553Y-36851368D01*
X4984439Y-36719500D01*
X5000500Y-36618097D01*
X5000500Y-36450000D01*
X31030840Y-36450000D01*
X31071652Y-36584541D01*
X31164503Y-36758253D01*
X31164504Y-36758254D01*
X31225663Y-36832776D01*
X31252976Y-36897086D01*
X31251428Y-36935629D01*
X31249500Y-36945321D01*
X31249500Y-37994678D01*
X31264032Y-38067735D01*
X31264033Y-38067739D01*
X31264034Y-38067740D01*
X31319399Y-38150601D01*
X31402260Y-38205966D01*
X31402264Y-38205967D01*
X31475321Y-38220499D01*
X31475324Y-38220500D01*
X31475326Y-38220500D01*
X32524676Y-38220500D01*
X32524677Y-38220499D01*
X32597740Y-38205966D01*
X32680601Y-38150601D01*
X32735966Y-38067740D01*
X32750500Y-37994674D01*
X32750500Y-36945326D01*
X32750500Y-36945323D01*
X32748573Y-36935638D01*
X32754797Y-36866046D01*
X32774337Y-36832776D01*
X32835491Y-36758261D01*
X32835496Y-36758253D01*
X32910411Y-36618097D01*
X34999500Y-36618097D01*
X35036446Y-36851368D01*
X35109433Y-37075996D01*
X35169185Y-37193264D01*
X35216657Y-37286433D01*
X35355483Y-37477510D01*
X35522490Y-37644517D01*
X35713567Y-37783343D01*
X35812991Y-37834002D01*
X35924003Y-37890566D01*
X35924005Y-37890566D01*
X35924008Y-37890568D01*
X36044412Y-37929689D01*
X36148631Y-37963553D01*
X36381903Y-38000500D01*
X36381908Y-38000500D01*
X36618097Y-38000500D01*
X36851368Y-37963553D01*
X37075992Y-37890568D01*
X37286433Y-37783343D01*
X37477510Y-37644517D01*
X37644517Y-37477510D01*
X37783343Y-37286433D01*
X37890568Y-37075992D01*
X37963553Y-36851368D01*
X37984439Y-36719500D01*
X38000500Y-36618097D01*
X38000500Y-36381902D01*
X37963553Y-36148631D01*
X37890566Y-35924003D01*
X37834002Y-35812991D01*
X37783343Y-35713567D01*
X37644517Y-35522490D01*
X37477510Y-35355483D01*
X37286433Y-35216657D01*
X37244912Y-35195501D01*
X37075996Y-35109433D01*
X36851368Y-35036446D01*
X36618097Y-34999500D01*
X36618092Y-34999500D01*
X36381908Y-34999500D01*
X36381903Y-34999500D01*
X36148631Y-35036446D01*
X35924003Y-35109433D01*
X35713566Y-35216657D01*
X35637873Y-35271652D01*
X35522490Y-35355483D01*
X35522488Y-35355485D01*
X35522487Y-35355485D01*
X35355485Y-35522487D01*
X35355485Y-35522488D01*
X35355483Y-35522490D01*
X35310949Y-35583786D01*
X35216657Y-35713566D01*
X35109433Y-35924003D01*
X35036446Y-36148631D01*
X34999500Y-36381902D01*
X34999500Y-36618097D01*
X32910411Y-36618097D01*
X32928347Y-36584541D01*
X32969160Y-36450000D01*
X32209618Y-36450000D01*
X32260064Y-36399554D01*
X32302851Y-36325445D01*
X32325000Y-36242787D01*
X32325000Y-36157213D01*
X32302851Y-36074555D01*
X32260064Y-36000446D01*
X32199554Y-35939936D01*
X32125445Y-35897149D01*
X32042787Y-35875000D01*
X31957213Y-35875000D01*
X31874555Y-35897149D01*
X31800446Y-35939936D01*
X31739936Y-36000446D01*
X31697149Y-36074555D01*
X31675000Y-36157213D01*
X31675000Y-36242787D01*
X31697149Y-36325445D01*
X31739936Y-36399554D01*
X31790382Y-36450000D01*
X31030840Y-36450000D01*
X5000500Y-36450000D01*
X5000500Y-36381902D01*
X4963553Y-36148631D01*
X4899013Y-35949999D01*
X31030839Y-35949999D01*
X31030840Y-35950000D01*
X31750000Y-35950000D01*
X31750000Y-35230839D01*
X32250000Y-35230839D01*
X32250000Y-35950000D01*
X32969160Y-35950000D01*
X32969160Y-35949999D01*
X32928347Y-35815458D01*
X32835496Y-35641746D01*
X32835492Y-35641739D01*
X32710528Y-35489471D01*
X32558260Y-35364507D01*
X32558253Y-35364503D01*
X32384541Y-35271652D01*
X32250000Y-35230839D01*
X31750000Y-35230839D01*
X31749999Y-35230839D01*
X31615458Y-35271652D01*
X31441746Y-35364503D01*
X31441739Y-35364507D01*
X31289471Y-35489471D01*
X31164507Y-35641739D01*
X31164503Y-35641746D01*
X31071652Y-35815458D01*
X31030839Y-35949999D01*
X4899013Y-35949999D01*
X4890566Y-35924003D01*
X4834002Y-35812991D01*
X4783343Y-35713567D01*
X4644517Y-35522490D01*
X4477510Y-35355483D01*
X4286433Y-35216657D01*
X4244912Y-35195501D01*
X4075996Y-35109433D01*
X3864910Y-35040846D01*
X14879500Y-35040846D01*
X14910261Y-35195489D01*
X14910264Y-35195501D01*
X14970602Y-35341172D01*
X14970609Y-35341185D01*
X15058210Y-35472288D01*
X15058213Y-35472292D01*
X15169707Y-35583786D01*
X15169711Y-35583789D01*
X15300814Y-35671390D01*
X15300827Y-35671397D01*
X15402636Y-35713567D01*
X15446503Y-35731737D01*
X15601153Y-35762499D01*
X15601156Y-35762500D01*
X15601158Y-35762500D01*
X15758844Y-35762500D01*
X15758845Y-35762499D01*
X15913497Y-35731737D01*
X16059179Y-35671394D01*
X16190289Y-35583789D01*
X16301789Y-35472289D01*
X16389394Y-35341179D01*
X16449737Y-35195497D01*
X16480499Y-35040846D01*
X23519500Y-35040846D01*
X23550261Y-35195489D01*
X23550264Y-35195501D01*
X23610602Y-35341172D01*
X23610609Y-35341185D01*
X23698210Y-35472288D01*
X23698213Y-35472292D01*
X23809707Y-35583786D01*
X23809711Y-35583789D01*
X23940814Y-35671390D01*
X23940827Y-35671397D01*
X24042636Y-35713567D01*
X24086503Y-35731737D01*
X24241153Y-35762499D01*
X24241156Y-35762500D01*
X24241158Y-35762500D01*
X24398844Y-35762500D01*
X24398845Y-35762499D01*
X24553497Y-35731737D01*
X24699179Y-35671394D01*
X24830289Y-35583789D01*
X24941789Y-35472289D01*
X25029394Y-35341179D01*
X25089737Y-35195497D01*
X25120500Y-35040842D01*
X25120500Y-34083158D01*
X25120500Y-34083155D01*
X25120499Y-34083153D01*
X25089738Y-33928510D01*
X25089737Y-33928503D01*
X25089735Y-33928498D01*
X25029397Y-33782827D01*
X25029390Y-33782814D01*
X24941789Y-33651711D01*
X24941786Y-33651707D01*
X24830292Y-33540213D01*
X24830288Y-33540210D01*
X24699185Y-33452609D01*
X24699172Y-33452602D01*
X24553501Y-33392264D01*
X24553489Y-33392261D01*
X24398845Y-33361500D01*
X24398842Y-33361500D01*
X24241158Y-33361500D01*
X24241155Y-33361500D01*
X24086510Y-33392261D01*
X24086498Y-33392264D01*
X23940827Y-33452602D01*
X23940814Y-33452609D01*
X23809711Y-33540210D01*
X23809707Y-33540213D01*
X23698213Y-33651707D01*
X23698210Y-33651711D01*
X23610609Y-33782814D01*
X23610602Y-33782827D01*
X23550264Y-33928498D01*
X23550261Y-33928510D01*
X23519500Y-34083153D01*
X23519500Y-35040846D01*
X16480499Y-35040846D01*
X16480500Y-35040842D01*
X16480500Y-34083158D01*
X16480500Y-34083155D01*
X16480499Y-34083153D01*
X16449738Y-33928510D01*
X16449737Y-33928503D01*
X16449735Y-33928498D01*
X16389397Y-33782827D01*
X16389390Y-33782814D01*
X16301789Y-33651711D01*
X16301786Y-33651707D01*
X16190292Y-33540213D01*
X16190288Y-33540210D01*
X16059185Y-33452609D01*
X16059172Y-33452602D01*
X15913501Y-33392264D01*
X15913489Y-33392261D01*
X15758845Y-33361500D01*
X15758842Y-33361500D01*
X15601158Y-33361500D01*
X15601155Y-33361500D01*
X15446510Y-33392261D01*
X15446498Y-33392264D01*
X15300827Y-33452602D01*
X15300814Y-33452609D01*
X15169711Y-33540210D01*
X15169707Y-33540213D01*
X15058213Y-33651707D01*
X15058210Y-33651711D01*
X14970609Y-33782814D01*
X14970602Y-33782827D01*
X14910264Y-33928498D01*
X14910261Y-33928510D01*
X14879500Y-34083153D01*
X14879500Y-35040846D01*
X3864910Y-35040846D01*
X3851368Y-35036446D01*
X3618097Y-34999500D01*
X3618092Y-34999500D01*
X3381908Y-34999500D01*
X3381903Y-34999500D01*
X3148631Y-35036446D01*
X2924003Y-35109433D01*
X2713566Y-35216657D01*
X2637873Y-35271652D01*
X2522490Y-35355483D01*
X2522488Y-35355485D01*
X2522487Y-35355485D01*
X2355485Y-35522487D01*
X2355485Y-35522488D01*
X2355483Y-35522490D01*
X2310949Y-35583786D01*
X2216657Y-35713566D01*
X2109433Y-35924003D01*
X2036446Y-36148631D01*
X1999500Y-36381902D01*
X1999500Y-36618097D01*
X0Y-36618097D01*
X0Y-32800000D01*
X6544722Y-32800000D01*
X6563762Y-32956818D01*
X6580998Y-33002264D01*
X6619780Y-33104523D01*
X6709517Y-33234530D01*
X6827760Y-33339283D01*
X6827762Y-33339284D01*
X6967634Y-33412696D01*
X7121014Y-33450500D01*
X7121015Y-33450500D01*
X7278985Y-33450500D01*
X7432365Y-33412696D01*
X7471300Y-33392261D01*
X7572240Y-33339283D01*
X7690483Y-33234530D01*
X7780220Y-33104523D01*
X7836237Y-32956818D01*
X7855278Y-32800000D01*
X7838000Y-32657697D01*
X7836237Y-32643181D01*
X7814992Y-32587164D01*
X7780220Y-32495477D01*
X7690483Y-32365470D01*
X7572240Y-32260717D01*
X7572238Y-32260716D01*
X7572237Y-32260715D01*
X7475220Y-32209796D01*
X7425007Y-32161212D01*
X7409033Y-32093193D01*
X7432368Y-32027335D01*
X7475220Y-31990204D01*
X7510348Y-31971766D01*
X7572240Y-31939283D01*
X7690483Y-31834530D01*
X7780220Y-31704523D01*
X7836237Y-31556818D01*
X7843136Y-31500000D01*
X9144722Y-31500000D01*
X9163762Y-31656818D01*
X9219780Y-31804523D01*
X9309517Y-31934530D01*
X9427760Y-32039283D01*
X9427762Y-32039284D01*
X9567634Y-32112696D01*
X9721014Y-32150500D01*
X9721015Y-32150500D01*
X9878985Y-32150500D01*
X10032365Y-32112696D01*
X10172240Y-32039283D01*
X10216582Y-32000000D01*
X27444722Y-32000000D01*
X27463762Y-32156818D01*
X27519780Y-32304523D01*
X27609517Y-32434530D01*
X27727760Y-32539283D01*
X27727762Y-32539284D01*
X27867634Y-32612696D01*
X28021014Y-32650500D01*
X28021015Y-32650500D01*
X28178985Y-32650500D01*
X28332365Y-32612696D01*
X28472240Y-32539283D01*
X28590483Y-32434530D01*
X28662633Y-32330002D01*
X31244751Y-32330002D01*
X31263685Y-32498056D01*
X31319545Y-32657694D01*
X31319547Y-32657697D01*
X31371171Y-32739855D01*
X31390172Y-32807091D01*
X31369805Y-32873926D01*
X31335069Y-32908929D01*
X31319399Y-32919398D01*
X31264033Y-33002260D01*
X31264032Y-33002264D01*
X31249500Y-33075321D01*
X31249500Y-34124678D01*
X31264032Y-34197735D01*
X31264033Y-34197739D01*
X31264034Y-34197740D01*
X31319399Y-34280601D01*
X31402260Y-34335966D01*
X31402264Y-34335967D01*
X31475321Y-34350499D01*
X31475324Y-34350500D01*
X31475326Y-34350500D01*
X32524676Y-34350500D01*
X32524677Y-34350499D01*
X32597740Y-34335966D01*
X32680601Y-34280601D01*
X32735966Y-34197740D01*
X32750500Y-34124674D01*
X32750500Y-33075326D01*
X32750500Y-33075323D01*
X32750499Y-33075321D01*
X32735967Y-33002264D01*
X32735966Y-33002260D01*
X32680600Y-32919398D01*
X32664931Y-32908929D01*
X32620126Y-32855317D01*
X32611419Y-32785992D01*
X32628829Y-32739855D01*
X32680452Y-32657697D01*
X32680454Y-32657694D01*
X32680454Y-32657692D01*
X32680456Y-32657690D01*
X32736313Y-32498059D01*
X32736313Y-32498058D01*
X32736314Y-32498056D01*
X32755249Y-32330002D01*
X32755249Y-32329997D01*
X32736314Y-32161943D01*
X32693220Y-32038789D01*
X32680456Y-32002310D01*
X32680455Y-32002309D01*
X32680454Y-32002305D01*
X32680452Y-32002302D01*
X32590481Y-31859115D01*
X32590476Y-31859109D01*
X32470890Y-31739523D01*
X32470884Y-31739518D01*
X32327697Y-31649547D01*
X32327694Y-31649545D01*
X32168056Y-31593685D01*
X32000003Y-31574751D01*
X31999997Y-31574751D01*
X31831943Y-31593685D01*
X31672305Y-31649545D01*
X31672302Y-31649547D01*
X31529115Y-31739518D01*
X31529109Y-31739523D01*
X31409523Y-31859109D01*
X31409518Y-31859115D01*
X31319547Y-32002302D01*
X31319545Y-32002305D01*
X31263685Y-32161943D01*
X31244751Y-32329997D01*
X31244751Y-32330002D01*
X28662633Y-32330002D01*
X28680220Y-32304523D01*
X28736237Y-32156818D01*
X28755278Y-32000000D01*
X28736237Y-31843182D01*
X28680220Y-31695477D01*
X28590483Y-31565470D01*
X28472240Y-31460717D01*
X28472238Y-31460716D01*
X28472237Y-31460715D01*
X28375220Y-31409796D01*
X28325007Y-31361212D01*
X28309033Y-31293193D01*
X28332368Y-31227335D01*
X28375220Y-31190204D01*
X28410348Y-31171766D01*
X28472240Y-31139283D01*
X28590483Y-31034530D01*
X28680220Y-30904523D01*
X28719860Y-30800000D01*
X35244722Y-30800000D01*
X35263762Y-30956818D01*
X35316349Y-31095476D01*
X35319780Y-31104523D01*
X35409517Y-31234530D01*
X35527760Y-31339283D01*
X35527762Y-31339284D01*
X35667634Y-31412696D01*
X35821014Y-31450500D01*
X35821015Y-31450500D01*
X35978985Y-31450500D01*
X36132365Y-31412696D01*
X36156557Y-31399999D01*
X36272240Y-31339283D01*
X36390483Y-31234530D01*
X36480220Y-31104523D01*
X36536237Y-30956818D01*
X36555278Y-30800000D01*
X36553737Y-30787304D01*
X36536237Y-30643181D01*
X36514992Y-30587164D01*
X36480220Y-30495477D01*
X36390483Y-30365470D01*
X36272240Y-30260717D01*
X36272238Y-30260716D01*
X36272237Y-30260715D01*
X36175220Y-30209796D01*
X36125007Y-30161212D01*
X36109033Y-30093193D01*
X36132368Y-30027335D01*
X36175220Y-29990204D01*
X36252773Y-29949500D01*
X36272240Y-29939283D01*
X36390483Y-29834530D01*
X36480220Y-29704523D01*
X36536237Y-29556818D01*
X36555278Y-29400000D01*
X36536237Y-29243182D01*
X36480220Y-29095477D01*
X36390483Y-28965470D01*
X36272240Y-28860717D01*
X36272238Y-28860716D01*
X36272237Y-28860715D01*
X36132365Y-28787303D01*
X35978986Y-28749500D01*
X35978985Y-28749500D01*
X35821015Y-28749500D01*
X35821014Y-28749500D01*
X35667634Y-28787303D01*
X35527762Y-28860715D01*
X35409516Y-28965471D01*
X35319781Y-29095475D01*
X35319780Y-29095476D01*
X35263762Y-29243181D01*
X35244722Y-29399999D01*
X35244722Y-29400000D01*
X35263762Y-29556818D01*
X35319780Y-29704523D01*
X35409517Y-29834530D01*
X35527760Y-29939283D01*
X35547227Y-29949500D01*
X35624780Y-29990204D01*
X35674992Y-30038789D01*
X35690966Y-30106808D01*
X35667630Y-30172666D01*
X35624780Y-30209796D01*
X35527761Y-30260716D01*
X35409516Y-30365471D01*
X35319781Y-30495475D01*
X35319780Y-30495476D01*
X35263762Y-30643181D01*
X35244722Y-30799999D01*
X35244722Y-30800000D01*
X28719860Y-30800000D01*
X28736237Y-30756818D01*
X28755278Y-30600000D01*
X28742587Y-30495475D01*
X28736237Y-30443181D01*
X28706765Y-30365470D01*
X28680220Y-30295477D01*
X28590483Y-30165470D01*
X28472240Y-30060717D01*
X28472238Y-30060716D01*
X28472237Y-30060715D01*
X28332365Y-29987303D01*
X28178986Y-29949500D01*
X28178985Y-29949500D01*
X28021015Y-29949500D01*
X28021014Y-29949500D01*
X27867634Y-29987303D01*
X27727762Y-30060715D01*
X27609516Y-30165471D01*
X27519781Y-30295475D01*
X27519780Y-30295476D01*
X27463762Y-30443181D01*
X27444722Y-30599999D01*
X27444722Y-30600000D01*
X27463762Y-30756818D01*
X27513249Y-30887303D01*
X27519780Y-30904523D01*
X27609517Y-31034530D01*
X27727760Y-31139283D01*
X27787599Y-31170689D01*
X27824780Y-31190204D01*
X27874992Y-31238789D01*
X27890966Y-31306808D01*
X27867630Y-31372666D01*
X27824780Y-31409796D01*
X27727761Y-31460716D01*
X27609516Y-31565471D01*
X27519781Y-31695475D01*
X27519780Y-31695476D01*
X27463762Y-31843181D01*
X27444722Y-31999999D01*
X27444722Y-32000000D01*
X10216582Y-32000000D01*
X10290483Y-31934530D01*
X10380220Y-31804523D01*
X10436237Y-31656818D01*
X10455278Y-31500000D01*
X10444678Y-31412696D01*
X10436237Y-31343181D01*
X10398312Y-31243182D01*
X10380220Y-31195477D01*
X10290483Y-31065470D01*
X10172240Y-30960717D01*
X10172238Y-30960716D01*
X10172237Y-30960715D01*
X10032365Y-30887303D01*
X9878986Y-30849500D01*
X9878985Y-30849500D01*
X9721015Y-30849500D01*
X9721014Y-30849500D01*
X9567634Y-30887303D01*
X9427762Y-30960715D01*
X9309516Y-31065471D01*
X9219781Y-31195475D01*
X9219780Y-31195476D01*
X9163762Y-31343181D01*
X9144722Y-31499999D01*
X9144722Y-31500000D01*
X7843136Y-31500000D01*
X7855278Y-31400000D01*
X7853737Y-31387304D01*
X7836237Y-31243181D01*
X7814992Y-31187164D01*
X7780220Y-31095477D01*
X7690483Y-30965470D01*
X7572240Y-30860717D01*
X7572238Y-30860716D01*
X7572237Y-30860715D01*
X7432365Y-30787303D01*
X7278986Y-30749500D01*
X7278985Y-30749500D01*
X7121015Y-30749500D01*
X7121014Y-30749500D01*
X6967634Y-30787303D01*
X6827762Y-30860715D01*
X6709516Y-30965471D01*
X6619781Y-31095475D01*
X6619780Y-31095476D01*
X6563762Y-31243181D01*
X6544722Y-31399999D01*
X6544722Y-31400000D01*
X6563762Y-31556818D01*
X6616349Y-31695476D01*
X6619780Y-31704523D01*
X6709517Y-31834530D01*
X6827760Y-31939283D01*
X6887599Y-31970689D01*
X6924780Y-31990204D01*
X6974992Y-32038789D01*
X6990966Y-32106808D01*
X6967630Y-32172666D01*
X6924780Y-32209796D01*
X6827761Y-32260716D01*
X6709516Y-32365471D01*
X6619781Y-32495475D01*
X6619780Y-32495476D01*
X6563762Y-32643181D01*
X6544722Y-32799999D01*
X6544722Y-32800000D01*
X0Y-32800000D01*
X0Y-25200000D01*
X1854785Y-25200000D01*
X1873602Y-25403082D01*
X1929417Y-25599247D01*
X1929422Y-25599260D01*
X2020327Y-25781821D01*
X2143237Y-25944581D01*
X2293958Y-26081980D01*
X2293960Y-26081982D01*
X2393141Y-26143392D01*
X2467363Y-26189348D01*
X2657544Y-26263024D01*
X2858024Y-26300500D01*
X2858026Y-26300500D01*
X3061974Y-26300500D01*
X3061976Y-26300500D01*
X3262456Y-26263024D01*
X3452637Y-26189348D01*
X3626041Y-26081981D01*
X3771366Y-25949500D01*
X3776762Y-25944581D01*
X3822936Y-25883437D01*
X3899673Y-25781821D01*
X3990582Y-25599250D01*
X4046397Y-25403083D01*
X4065215Y-25200000D01*
X4394785Y-25200000D01*
X4413602Y-25403082D01*
X4469417Y-25599247D01*
X4469422Y-25599260D01*
X4560327Y-25781821D01*
X4683237Y-25944581D01*
X4833958Y-26081980D01*
X4833960Y-26081982D01*
X4933141Y-26143392D01*
X5007363Y-26189348D01*
X5197544Y-26263024D01*
X5398024Y-26300500D01*
X5398026Y-26300500D01*
X5541121Y-26300500D01*
X5608160Y-26320185D01*
X5653915Y-26372989D01*
X5664217Y-26439447D01*
X5663763Y-26443180D01*
X5663764Y-26443181D01*
X5644722Y-26600000D01*
X5663762Y-26756818D01*
X5701688Y-26856818D01*
X5719780Y-26904523D01*
X5809517Y-27034530D01*
X5927760Y-27139283D01*
X5927762Y-27139284D01*
X6067634Y-27212696D01*
X6221014Y-27250500D01*
X6221015Y-27250500D01*
X6378985Y-27250500D01*
X6532365Y-27212696D01*
X6672240Y-27139283D01*
X6790483Y-27034530D01*
X6880220Y-26904523D01*
X6936237Y-26756818D01*
X6955278Y-26600000D01*
X9144722Y-26600000D01*
X9163762Y-26756818D01*
X9201688Y-26856818D01*
X9219780Y-26904523D01*
X9309517Y-27034530D01*
X9427760Y-27139283D01*
X9427762Y-27139284D01*
X9567634Y-27212696D01*
X9721014Y-27250500D01*
X9721015Y-27250500D01*
X9878985Y-27250500D01*
X10032365Y-27212696D01*
X10172240Y-27139283D01*
X10290483Y-27034530D01*
X10380220Y-26904523D01*
X10384058Y-26894400D01*
X10426236Y-26838700D01*
X10491833Y-26814642D01*
X10560023Y-26829869D01*
X10609157Y-26879544D01*
X10615942Y-26894402D01*
X10619780Y-26904524D01*
X10677627Y-26988330D01*
X10709517Y-27034530D01*
X10827760Y-27139283D01*
X10827762Y-27139284D01*
X10967634Y-27212696D01*
X11121014Y-27250500D01*
X11121015Y-27250500D01*
X11278985Y-27250500D01*
X11432365Y-27212696D01*
X11572240Y-27139283D01*
X11690483Y-27034530D01*
X11780220Y-26904523D01*
X11836237Y-26756818D01*
X11843136Y-26700000D01*
X20544722Y-26700000D01*
X20563762Y-26856818D01*
X20581855Y-26904524D01*
X20619780Y-27004523D01*
X20709517Y-27134530D01*
X20827760Y-27239283D01*
X20827762Y-27239284D01*
X20967634Y-27312696D01*
X21121014Y-27350500D01*
X21121015Y-27350500D01*
X21278985Y-27350500D01*
X21432365Y-27312696D01*
X21572240Y-27239283D01*
X21690483Y-27134530D01*
X21780220Y-27004523D01*
X21836237Y-26856818D01*
X21855278Y-26700000D01*
X21836237Y-26543182D01*
X21780220Y-26395477D01*
X21690483Y-26265470D01*
X21572240Y-26160717D01*
X21572238Y-26160716D01*
X21572237Y-26160715D01*
X21432365Y-26087303D01*
X21278986Y-26049500D01*
X21278985Y-26049500D01*
X21121015Y-26049500D01*
X21121014Y-26049500D01*
X20967634Y-26087303D01*
X20827762Y-26160715D01*
X20709516Y-26265471D01*
X20619781Y-26395475D01*
X20619780Y-26395476D01*
X20563762Y-26543181D01*
X20544722Y-26699999D01*
X20544722Y-26700000D01*
X11843136Y-26700000D01*
X11855278Y-26600000D01*
X11844678Y-26512696D01*
X11836237Y-26443181D01*
X11805184Y-26361301D01*
X11780220Y-26295477D01*
X11690483Y-26165470D01*
X11572240Y-26060717D01*
X11572238Y-26060716D01*
X11572237Y-26060715D01*
X11432365Y-25987303D01*
X11278986Y-25949500D01*
X11278985Y-25949500D01*
X11121015Y-25949500D01*
X11121014Y-25949500D01*
X10967634Y-25987303D01*
X10827762Y-26060715D01*
X10709516Y-26165471D01*
X10619781Y-26295475D01*
X10619779Y-26295478D01*
X10615941Y-26305599D01*
X10573763Y-26361301D01*
X10508165Y-26385357D01*
X10439975Y-26370129D01*
X10390842Y-26320453D01*
X10384059Y-26305599D01*
X10380220Y-26295478D01*
X10380220Y-26295477D01*
X10290483Y-26165470D01*
X10172240Y-26060717D01*
X10172238Y-26060716D01*
X10172237Y-26060715D01*
X10032365Y-25987303D01*
X9878986Y-25949500D01*
X9878985Y-25949500D01*
X9721015Y-25949500D01*
X9721014Y-25949500D01*
X9567634Y-25987303D01*
X9427762Y-26060715D01*
X9309516Y-26165471D01*
X9219781Y-26295475D01*
X9219780Y-26295476D01*
X9163762Y-26443181D01*
X9144722Y-26599999D01*
X9144722Y-26600000D01*
X6955278Y-26600000D01*
X6944678Y-26512696D01*
X6936237Y-26443181D01*
X6905184Y-26361301D01*
X6880220Y-26295477D01*
X6790483Y-26165470D01*
X6672240Y-26060717D01*
X6672238Y-26060716D01*
X6672237Y-26060715D01*
X6532366Y-25987304D01*
X6506030Y-25980813D01*
X6445649Y-25945657D01*
X6422323Y-25900000D01*
X17444722Y-25900000D01*
X17463762Y-26056818D01*
X17510307Y-26179544D01*
X17519780Y-26204523D01*
X17609517Y-26334530D01*
X17727760Y-26439283D01*
X17735187Y-26443181D01*
X17867634Y-26512696D01*
X18021014Y-26550500D01*
X18021015Y-26550500D01*
X18178985Y-26550500D01*
X18332365Y-26512696D01*
X18472240Y-26439283D01*
X18590483Y-26334530D01*
X18680220Y-26204523D01*
X18684058Y-26194400D01*
X18726236Y-26138700D01*
X18791833Y-26114642D01*
X18860023Y-26129869D01*
X18909157Y-26179544D01*
X18915942Y-26194402D01*
X18919780Y-26204524D01*
X18961849Y-26265471D01*
X19009517Y-26334530D01*
X19127760Y-26439283D01*
X19135187Y-26443181D01*
X19267634Y-26512696D01*
X19421014Y-26550500D01*
X19421015Y-26550500D01*
X19578985Y-26550500D01*
X19732365Y-26512696D01*
X19872240Y-26439283D01*
X19990483Y-26334530D01*
X20080220Y-26204523D01*
X20136237Y-26056818D01*
X20155278Y-25900000D01*
X20136237Y-25743182D01*
X20080220Y-25595477D01*
X19990483Y-25465470D01*
X19872240Y-25360717D01*
X19872238Y-25360716D01*
X19872237Y-25360715D01*
X19732365Y-25287303D01*
X19578986Y-25249500D01*
X19578985Y-25249500D01*
X19421015Y-25249500D01*
X19421014Y-25249500D01*
X19267634Y-25287303D01*
X19127762Y-25360715D01*
X19009516Y-25465471D01*
X18919781Y-25595475D01*
X18919779Y-25595478D01*
X18915941Y-25605599D01*
X18873763Y-25661301D01*
X18808165Y-25685357D01*
X18739975Y-25670129D01*
X18690842Y-25620453D01*
X18684059Y-25605599D01*
X18680220Y-25595478D01*
X18680220Y-25595477D01*
X18590483Y-25465470D01*
X18472240Y-25360717D01*
X18472238Y-25360716D01*
X18472237Y-25360715D01*
X18332365Y-25287303D01*
X18178986Y-25249500D01*
X18178985Y-25249500D01*
X18021015Y-25249500D01*
X18021014Y-25249500D01*
X17867634Y-25287303D01*
X17727762Y-25360715D01*
X17609516Y-25465471D01*
X17519781Y-25595475D01*
X17519780Y-25595476D01*
X17463762Y-25743181D01*
X17444722Y-25899999D01*
X17444722Y-25900000D01*
X6422323Y-25900000D01*
X6413861Y-25883437D01*
X6420757Y-25813909D01*
X6436753Y-25785686D01*
X6439673Y-25781821D01*
X6530582Y-25599250D01*
X6586397Y-25403083D01*
X6605215Y-25200000D01*
X6586397Y-24996917D01*
X6530582Y-24800750D01*
X6439673Y-24618179D01*
X6316764Y-24455421D01*
X6316762Y-24455418D01*
X6166041Y-24318019D01*
X6166039Y-24318017D01*
X5992642Y-24210655D01*
X5992635Y-24210651D01*
X5897546Y-24173814D01*
X5802456Y-24136976D01*
X5601976Y-24099500D01*
X5398024Y-24099500D01*
X5197544Y-24136976D01*
X5197541Y-24136976D01*
X5197541Y-24136977D01*
X5007364Y-24210651D01*
X5007357Y-24210655D01*
X4833960Y-24318017D01*
X4833958Y-24318019D01*
X4683237Y-24455418D01*
X4560327Y-24618178D01*
X4469422Y-24800739D01*
X4469417Y-24800752D01*
X4413602Y-24996917D01*
X4394785Y-25199999D01*
X4394785Y-25200000D01*
X4065215Y-25200000D01*
X4046397Y-24996917D01*
X3990582Y-24800750D01*
X3899673Y-24618179D01*
X3776764Y-24455421D01*
X3776762Y-24455418D01*
X3626041Y-24318019D01*
X3626039Y-24318017D01*
X3452642Y-24210655D01*
X3452635Y-24210651D01*
X3357546Y-24173814D01*
X3262456Y-24136976D01*
X3061976Y-24099500D01*
X2858024Y-24099500D01*
X2657544Y-24136976D01*
X2657541Y-24136976D01*
X2657541Y-24136977D01*
X2467364Y-24210651D01*
X2467357Y-24210655D01*
X2293960Y-24318017D01*
X2293958Y-24318019D01*
X2143237Y-24455418D01*
X2020327Y-24618178D01*
X1929422Y-24800739D01*
X1929417Y-24800752D01*
X1873602Y-24996917D01*
X1854785Y-25199999D01*
X1854785Y-25200000D01*
X0Y-25200000D01*
X0Y-22660000D01*
X1854785Y-22660000D01*
X1873602Y-22863082D01*
X1929417Y-23059247D01*
X1929422Y-23059260D01*
X2020327Y-23241821D01*
X2143237Y-23404581D01*
X2282638Y-23531660D01*
X2290999Y-23539283D01*
X2293958Y-23541980D01*
X2293960Y-23541982D01*
X2393141Y-23603392D01*
X2467363Y-23649348D01*
X2657544Y-23723024D01*
X2858024Y-23760500D01*
X2858026Y-23760500D01*
X3061974Y-23760500D01*
X3061976Y-23760500D01*
X3262456Y-23723024D01*
X3452637Y-23649348D01*
X3626041Y-23541981D01*
X3634052Y-23534678D01*
X4399500Y-23534678D01*
X4414032Y-23607735D01*
X4414033Y-23607739D01*
X4414034Y-23607740D01*
X4469399Y-23690601D01*
X4552260Y-23745966D01*
X4552264Y-23745967D01*
X4625321Y-23760499D01*
X4625324Y-23760500D01*
X4625326Y-23760500D01*
X6374676Y-23760500D01*
X6374677Y-23760499D01*
X6447740Y-23745966D01*
X6530601Y-23690601D01*
X6585966Y-23607740D01*
X6600500Y-23534674D01*
X6600500Y-22700000D01*
X11644722Y-22700000D01*
X11663762Y-22856818D01*
X11696516Y-22943181D01*
X11719780Y-23004523D01*
X11809517Y-23134530D01*
X11927760Y-23239283D01*
X11927762Y-23239284D01*
X12067634Y-23312696D01*
X12221014Y-23350500D01*
X12221015Y-23350500D01*
X12378985Y-23350500D01*
X12532365Y-23312696D01*
X12547937Y-23304523D01*
X12672240Y-23239283D01*
X12790483Y-23134530D01*
X12814317Y-23100000D01*
X17044722Y-23100000D01*
X17063762Y-23256818D01*
X17119780Y-23404523D01*
X17209517Y-23534530D01*
X17327760Y-23639283D01*
X17327762Y-23639284D01*
X17467634Y-23712696D01*
X17621014Y-23750500D01*
X17621015Y-23750500D01*
X17778985Y-23750500D01*
X17932365Y-23712696D01*
X17974465Y-23690600D01*
X18072240Y-23639283D01*
X18190483Y-23534530D01*
X18280220Y-23404523D01*
X18336237Y-23256818D01*
X18355278Y-23100000D01*
X19044722Y-23100000D01*
X19063762Y-23256818D01*
X19119780Y-23404523D01*
X19209517Y-23534530D01*
X19327760Y-23639283D01*
X19327762Y-23639284D01*
X19467634Y-23712696D01*
X19621014Y-23750500D01*
X19621015Y-23750500D01*
X19778985Y-23750500D01*
X19932365Y-23712696D01*
X19974465Y-23690600D01*
X20072240Y-23639283D01*
X20190483Y-23534530D01*
X20280220Y-23404523D01*
X20336237Y-23256818D01*
X20355278Y-23100000D01*
X20343136Y-23000000D01*
X20644722Y-23000000D01*
X20663762Y-23156818D01*
X20695038Y-23239284D01*
X20719780Y-23304523D01*
X20809517Y-23434530D01*
X20927760Y-23539283D01*
X20939860Y-23545633D01*
X21067634Y-23612696D01*
X21221014Y-23650500D01*
X21221015Y-23650500D01*
X21378985Y-23650500D01*
X21532365Y-23612696D01*
X21541817Y-23607735D01*
X21672240Y-23539283D01*
X21790483Y-23434530D01*
X21880220Y-23304523D01*
X21936237Y-23156818D01*
X21955278Y-23000000D01*
X21938654Y-22863083D01*
X21936237Y-22843181D01*
X21881935Y-22700000D01*
X21880220Y-22695477D01*
X21790483Y-22565470D01*
X21672240Y-22460717D01*
X21672238Y-22460716D01*
X21672237Y-22460715D01*
X21532365Y-22387303D01*
X21378986Y-22349500D01*
X21378985Y-22349500D01*
X21221015Y-22349500D01*
X21221014Y-22349500D01*
X21067634Y-22387303D01*
X20927762Y-22460715D01*
X20809516Y-22565471D01*
X20719781Y-22695475D01*
X20719780Y-22695476D01*
X20663762Y-22843181D01*
X20644722Y-22999999D01*
X20644722Y-23000000D01*
X20343136Y-23000000D01*
X20336237Y-22943182D01*
X20280220Y-22795477D01*
X20190483Y-22665470D01*
X20072240Y-22560717D01*
X20072238Y-22560716D01*
X20072237Y-22560715D01*
X19932365Y-22487303D01*
X19778986Y-22449500D01*
X19778985Y-22449500D01*
X19621015Y-22449500D01*
X19621014Y-22449500D01*
X19467634Y-22487303D01*
X19327762Y-22560715D01*
X19327760Y-22560717D01*
X19215692Y-22660000D01*
X19209516Y-22665471D01*
X19119781Y-22795475D01*
X19119780Y-22795476D01*
X19063762Y-22943181D01*
X19044722Y-23099999D01*
X19044722Y-23100000D01*
X18355278Y-23100000D01*
X18336237Y-22943182D01*
X18280220Y-22795477D01*
X18190483Y-22665470D01*
X18072240Y-22560717D01*
X18072238Y-22560716D01*
X18072237Y-22560715D01*
X17932365Y-22487303D01*
X17778986Y-22449500D01*
X17778985Y-22449500D01*
X17621015Y-22449500D01*
X17621014Y-22449500D01*
X17467634Y-22487303D01*
X17327762Y-22560715D01*
X17327760Y-22560717D01*
X17215692Y-22660000D01*
X17209516Y-22665471D01*
X17119781Y-22795475D01*
X17119780Y-22795476D01*
X17063762Y-22943181D01*
X17044722Y-23099999D01*
X17044722Y-23100000D01*
X12814317Y-23100000D01*
X12880220Y-23004523D01*
X12936237Y-22856818D01*
X12955278Y-22700000D01*
X12951086Y-22665471D01*
X12936237Y-22543181D01*
X12900708Y-22449500D01*
X12880220Y-22395477D01*
X12790483Y-22265470D01*
X12672240Y-22160717D01*
X12672238Y-22160716D01*
X12672237Y-22160715D01*
X12532365Y-22087303D01*
X12378986Y-22049500D01*
X12378985Y-22049500D01*
X12221015Y-22049500D01*
X12221014Y-22049500D01*
X12067634Y-22087303D01*
X11927762Y-22160715D01*
X11809516Y-22265471D01*
X11719781Y-22395475D01*
X11719780Y-22395476D01*
X11663762Y-22543181D01*
X11644722Y-22699999D01*
X11644722Y-22700000D01*
X6600500Y-22700000D01*
X6600500Y-21785326D01*
X6600500Y-21785323D01*
X6600499Y-21785321D01*
X6585967Y-21712264D01*
X6585966Y-21712260D01*
X6530601Y-21629399D01*
X6447740Y-21574034D01*
X6447739Y-21574033D01*
X6447735Y-21574032D01*
X6374677Y-21559500D01*
X6374674Y-21559500D01*
X4625326Y-21559500D01*
X4625323Y-21559500D01*
X4552264Y-21574032D01*
X4552260Y-21574033D01*
X4469399Y-21629399D01*
X4414033Y-21712260D01*
X4414032Y-21712264D01*
X4399500Y-21785321D01*
X4399500Y-23534678D01*
X3634052Y-23534678D01*
X3776764Y-23404579D01*
X3899673Y-23241821D01*
X3990582Y-23059250D01*
X4046397Y-22863083D01*
X4065215Y-22660000D01*
X4046397Y-22456917D01*
X3990582Y-22260750D01*
X3899673Y-22078179D01*
X3776764Y-21915421D01*
X3776762Y-21915418D01*
X3626041Y-21778019D01*
X3626039Y-21778017D01*
X3452642Y-21670655D01*
X3452635Y-21670651D01*
X3346150Y-21629399D01*
X3262456Y-21596976D01*
X3061976Y-21559500D01*
X2858024Y-21559500D01*
X2657544Y-21596976D01*
X2657541Y-21596976D01*
X2657541Y-21596977D01*
X2467364Y-21670651D01*
X2467357Y-21670655D01*
X2293960Y-21778017D01*
X2293958Y-21778019D01*
X2143237Y-21915418D01*
X2020327Y-22078178D01*
X1929422Y-22260739D01*
X1929417Y-22260752D01*
X1873602Y-22456917D01*
X1854785Y-22659999D01*
X1854785Y-22660000D01*
X0Y-22660000D01*
X0Y-19600000D01*
X10844722Y-19600000D01*
X10863762Y-19756818D01*
X10919780Y-19904523D01*
X11009517Y-20034530D01*
X11127760Y-20139283D01*
X11127762Y-20139284D01*
X11267634Y-20212696D01*
X11421014Y-20250500D01*
X11421015Y-20250500D01*
X11578985Y-20250500D01*
X11732365Y-20212696D01*
X11872240Y-20139283D01*
X11990483Y-20034530D01*
X12080220Y-19904523D01*
X12136237Y-19756818D01*
X12137994Y-19742345D01*
X12165613Y-19678167D01*
X12223546Y-19639109D01*
X12293399Y-19637572D01*
X12343314Y-19664471D01*
X12358774Y-19678167D01*
X12427762Y-19739285D01*
X12567634Y-19812696D01*
X12721014Y-19850500D01*
X12721015Y-19850500D01*
X12878985Y-19850500D01*
X13032365Y-19812696D01*
X13172240Y-19739283D01*
X13290483Y-19634530D01*
X13380220Y-19504523D01*
X13436237Y-19356818D01*
X13455278Y-19200000D01*
X13451086Y-19165471D01*
X13436237Y-19043181D01*
X13419860Y-19000000D01*
X14544722Y-19000000D01*
X14563762Y-19156818D01*
X14616349Y-19295476D01*
X14619780Y-19304523D01*
X14709517Y-19434530D01*
X14827760Y-19539283D01*
X14827762Y-19539284D01*
X14967634Y-19612696D01*
X15121014Y-19650500D01*
X15121015Y-19650500D01*
X15278985Y-19650500D01*
X15432365Y-19612696D01*
X15456557Y-19599999D01*
X15572240Y-19539283D01*
X15690483Y-19434530D01*
X15747950Y-19351273D01*
X15802233Y-19307284D01*
X15871681Y-19299624D01*
X15934246Y-19330727D01*
X15952048Y-19351272D01*
X15977228Y-19387751D01*
X16009515Y-19434528D01*
X16009517Y-19434530D01*
X16127760Y-19539283D01*
X16127762Y-19539284D01*
X16267634Y-19612696D01*
X16421014Y-19650500D01*
X16421015Y-19650500D01*
X16578985Y-19650500D01*
X16732365Y-19612696D01*
X16756557Y-19599999D01*
X16872240Y-19539283D01*
X16990483Y-19434530D01*
X17080220Y-19304523D01*
X17136237Y-19156818D01*
X17155278Y-19000000D01*
X19144722Y-19000000D01*
X19163762Y-19156818D01*
X19216349Y-19295476D01*
X19219780Y-19304523D01*
X19309517Y-19434530D01*
X19427760Y-19539283D01*
X19427762Y-19539284D01*
X19567634Y-19612696D01*
X19721014Y-19650500D01*
X19721015Y-19650500D01*
X19878985Y-19650500D01*
X20032365Y-19612696D01*
X20056557Y-19599999D01*
X20172240Y-19539283D01*
X20290483Y-19434530D01*
X20380220Y-19304523D01*
X20436237Y-19156818D01*
X20455278Y-19000000D01*
X20453737Y-18987304D01*
X20436237Y-18843181D01*
X20402513Y-18754260D01*
X20380220Y-18695477D01*
X20290483Y-18565470D01*
X20172240Y-18460717D01*
X20172238Y-18460716D01*
X20172237Y-18460715D01*
X20032365Y-18387303D01*
X19878986Y-18349500D01*
X19878985Y-18349500D01*
X19721015Y-18349500D01*
X19721014Y-18349500D01*
X19567634Y-18387303D01*
X19427762Y-18460715D01*
X19427760Y-18460717D01*
X19317857Y-18558082D01*
X19309516Y-18565471D01*
X19219781Y-18695475D01*
X19219780Y-18695476D01*
X19163762Y-18843181D01*
X19144722Y-18999999D01*
X19144722Y-19000000D01*
X17155278Y-19000000D01*
X17153737Y-18987304D01*
X17136237Y-18843181D01*
X17102513Y-18754260D01*
X17080220Y-18695477D01*
X16990483Y-18565470D01*
X16872240Y-18460717D01*
X16872238Y-18460716D01*
X16872237Y-18460715D01*
X16732365Y-18387303D01*
X16578986Y-18349500D01*
X16578985Y-18349500D01*
X16421015Y-18349500D01*
X16421014Y-18349500D01*
X16267634Y-18387303D01*
X16127762Y-18460715D01*
X16127760Y-18460717D01*
X16017857Y-18558082D01*
X16009516Y-18565471D01*
X15952050Y-18648725D01*
X15897767Y-18692715D01*
X15828318Y-18700375D01*
X15765754Y-18669271D01*
X15747950Y-18648725D01*
X15725310Y-18615926D01*
X15690483Y-18565470D01*
X15572240Y-18460717D01*
X15572238Y-18460716D01*
X15572237Y-18460715D01*
X15432365Y-18387303D01*
X15278986Y-18349500D01*
X15278985Y-18349500D01*
X15121015Y-18349500D01*
X15121014Y-18349500D01*
X14967634Y-18387303D01*
X14827762Y-18460715D01*
X14827760Y-18460717D01*
X14717857Y-18558082D01*
X14709516Y-18565471D01*
X14619781Y-18695475D01*
X14619780Y-18695476D01*
X14563762Y-18843181D01*
X14544722Y-18999999D01*
X14544722Y-19000000D01*
X13419860Y-19000000D01*
X13414992Y-18987164D01*
X13380220Y-18895477D01*
X13290483Y-18765470D01*
X13172240Y-18660717D01*
X13172238Y-18660716D01*
X13172237Y-18660715D01*
X13032365Y-18587303D01*
X12878986Y-18549500D01*
X12878985Y-18549500D01*
X12721015Y-18549500D01*
X12721014Y-18549500D01*
X12567634Y-18587303D01*
X12427762Y-18660715D01*
X12309516Y-18765471D01*
X12219781Y-18895475D01*
X12219780Y-18895476D01*
X12163763Y-19043180D01*
X12162005Y-19057659D01*
X12134382Y-19121836D01*
X12076447Y-19160892D01*
X12006594Y-19162425D01*
X11956684Y-19135527D01*
X11872240Y-19060717D01*
X11872237Y-19060714D01*
X11732365Y-18987303D01*
X11578986Y-18949500D01*
X11578985Y-18949500D01*
X11421015Y-18949500D01*
X11421014Y-18949500D01*
X11267634Y-18987303D01*
X11127762Y-19060715D01*
X11009516Y-19165471D01*
X10919781Y-19295475D01*
X10919780Y-19295476D01*
X10863762Y-19443181D01*
X10844722Y-19599999D01*
X10844722Y-19600000D01*
X0Y-19600000D01*
X0Y-18355000D01*
X1854785Y-18355000D01*
X1873602Y-18558082D01*
X1929417Y-18754247D01*
X1929422Y-18754260D01*
X2020327Y-18936821D01*
X2143237Y-19099581D01*
X2293958Y-19236980D01*
X2293960Y-19236982D01*
X2388430Y-19295475D01*
X2467363Y-19344348D01*
X2657544Y-19418024D01*
X2858024Y-19455500D01*
X2858026Y-19455500D01*
X3061974Y-19455500D01*
X3061976Y-19455500D01*
X3262456Y-19418024D01*
X3452637Y-19344348D01*
X3626041Y-19236981D01*
X3776764Y-19099579D01*
X3899673Y-18936821D01*
X3990582Y-18754250D01*
X4046397Y-18558083D01*
X4065215Y-18355000D01*
X4394785Y-18355000D01*
X4413602Y-18558082D01*
X4469417Y-18754247D01*
X4469422Y-18754260D01*
X4560327Y-18936821D01*
X4683237Y-19099581D01*
X4833958Y-19236980D01*
X4833960Y-19236982D01*
X4928430Y-19295475D01*
X5007363Y-19344348D01*
X5197544Y-19418024D01*
X5398024Y-19455500D01*
X5398026Y-19455500D01*
X5601974Y-19455500D01*
X5601976Y-19455500D01*
X5802456Y-19418024D01*
X5992637Y-19344348D01*
X6166041Y-19236981D01*
X6316764Y-19099579D01*
X6439673Y-18936821D01*
X6530582Y-18754250D01*
X6586397Y-18558083D01*
X6605215Y-18355000D01*
X6586397Y-18151917D01*
X6530582Y-17955750D01*
X6439673Y-17773179D01*
X6316764Y-17610421D01*
X6316762Y-17610418D01*
X6166041Y-17473019D01*
X6166039Y-17473017D01*
X5992642Y-17365655D01*
X5992635Y-17365651D01*
X5824459Y-17300500D01*
X5802456Y-17291976D01*
X5601976Y-17254500D01*
X5398024Y-17254500D01*
X5197544Y-17291976D01*
X5197541Y-17291976D01*
X5197541Y-17291977D01*
X5007364Y-17365651D01*
X5007357Y-17365655D01*
X4833960Y-17473017D01*
X4833958Y-17473019D01*
X4683237Y-17610418D01*
X4560327Y-17773178D01*
X4469422Y-17955739D01*
X4469417Y-17955752D01*
X4413602Y-18151917D01*
X4394785Y-18354999D01*
X4394785Y-18355000D01*
X4065215Y-18355000D01*
X4046397Y-18151917D01*
X3990582Y-17955750D01*
X3899673Y-17773179D01*
X3776764Y-17610421D01*
X3776762Y-17610418D01*
X3626041Y-17473019D01*
X3626039Y-17473017D01*
X3452642Y-17365655D01*
X3452635Y-17365651D01*
X3284459Y-17300500D01*
X3262456Y-17291976D01*
X3061976Y-17254500D01*
X2858024Y-17254500D01*
X2657544Y-17291976D01*
X2657541Y-17291976D01*
X2657541Y-17291977D01*
X2467364Y-17365651D01*
X2467357Y-17365655D01*
X2293960Y-17473017D01*
X2293958Y-17473019D01*
X2143237Y-17610418D01*
X2020327Y-17773178D01*
X1929422Y-17955739D01*
X1929417Y-17955752D01*
X1873602Y-18151917D01*
X1854785Y-18354999D01*
X1854785Y-18355000D01*
X0Y-18355000D01*
X0Y-15815000D01*
X1854785Y-15815000D01*
X1873602Y-16018082D01*
X1929417Y-16214247D01*
X1929422Y-16214260D01*
X2020327Y-16396821D01*
X2143237Y-16559581D01*
X2293958Y-16696980D01*
X2293960Y-16696982D01*
X2393141Y-16758392D01*
X2467363Y-16804348D01*
X2657544Y-16878024D01*
X2858024Y-16915500D01*
X2858026Y-16915500D01*
X3061974Y-16915500D01*
X3061976Y-16915500D01*
X3262456Y-16878024D01*
X3452637Y-16804348D01*
X3626041Y-16696981D01*
X3776764Y-16559579D01*
X3899673Y-16396821D01*
X3990582Y-16214250D01*
X4046397Y-16018083D01*
X4065215Y-15815000D01*
X4046397Y-15611917D01*
X3990582Y-15415750D01*
X3899673Y-15233179D01*
X3776764Y-15070421D01*
X3776762Y-15070418D01*
X3626041Y-14933019D01*
X3626039Y-14933017D01*
X3452642Y-14825655D01*
X3452635Y-14825651D01*
X3338321Y-14781366D01*
X3262456Y-14751976D01*
X3061976Y-14714500D01*
X2858024Y-14714500D01*
X2657544Y-14751976D01*
X2657541Y-14751976D01*
X2657541Y-14751977D01*
X2467364Y-14825651D01*
X2467357Y-14825655D01*
X2293960Y-14933017D01*
X2293958Y-14933019D01*
X2143237Y-15070418D01*
X2020327Y-15233178D01*
X1929422Y-15415739D01*
X1929417Y-15415752D01*
X1873602Y-15611917D01*
X1854785Y-15814999D01*
X1854785Y-15815000D01*
X0Y-15815000D01*
X0Y-14149678D01*
X1859500Y-14149678D01*
X1874032Y-14222735D01*
X1874033Y-14222739D01*
X1874034Y-14222740D01*
X1929399Y-14305601D01*
X2012260Y-14360966D01*
X2012264Y-14360967D01*
X2085321Y-14375499D01*
X2085324Y-14375500D01*
X2085326Y-14375500D01*
X3834676Y-14375500D01*
X3834677Y-14375499D01*
X3907740Y-14360966D01*
X3990601Y-14305601D01*
X4045966Y-14222740D01*
X4060500Y-14149674D01*
X4060500Y-13941681D01*
X4080185Y-13874642D01*
X4132989Y-13828887D01*
X4202147Y-13818943D01*
X4265703Y-13847968D01*
X4296882Y-13889277D01*
X4326398Y-13952575D01*
X4326399Y-13952577D01*
X4461894Y-14146082D01*
X4628917Y-14313105D01*
X4822421Y-14448600D01*
X5036507Y-14548429D01*
X5036516Y-14548433D01*
X5075583Y-14558901D01*
X5135244Y-14595266D01*
X5165773Y-14658113D01*
X5157479Y-14727488D01*
X5112993Y-14781366D01*
X5088284Y-14794302D01*
X5007373Y-14825647D01*
X5007357Y-14825655D01*
X4833960Y-14933017D01*
X4833958Y-14933019D01*
X4683237Y-15070418D01*
X4560327Y-15233178D01*
X4469422Y-15415739D01*
X4469417Y-15415752D01*
X4413602Y-15611917D01*
X4394785Y-15814999D01*
X4394785Y-15815000D01*
X4413602Y-16018082D01*
X4469417Y-16214247D01*
X4469422Y-16214260D01*
X4560327Y-16396821D01*
X4683237Y-16559581D01*
X4833958Y-16696980D01*
X4833960Y-16696982D01*
X4933141Y-16758392D01*
X5007363Y-16804348D01*
X5197544Y-16878024D01*
X5398024Y-16915500D01*
X5398026Y-16915500D01*
X5601974Y-16915500D01*
X5601976Y-16915500D01*
X5802456Y-16878024D01*
X5992637Y-16804348D01*
X6166041Y-16696981D01*
X6316764Y-16559579D01*
X6361756Y-16500000D01*
X25744722Y-16500000D01*
X25763762Y-16656818D01*
X25819712Y-16804344D01*
X25819780Y-16804523D01*
X25909517Y-16934530D01*
X26027760Y-17039283D01*
X26027762Y-17039284D01*
X26167634Y-17112696D01*
X26321014Y-17150500D01*
X26321015Y-17150500D01*
X26478985Y-17150500D01*
X26632365Y-17112696D01*
X26633150Y-17112284D01*
X26772240Y-17039283D01*
X26890483Y-16934530D01*
X26980220Y-16804523D01*
X27036237Y-16656818D01*
X27055278Y-16500000D01*
X27036237Y-16343182D01*
X26980220Y-16195477D01*
X26915940Y-16102351D01*
X30699500Y-16102351D01*
X30731522Y-16304534D01*
X30794781Y-16499223D01*
X30887715Y-16681613D01*
X31008028Y-16847213D01*
X31152786Y-16991971D01*
X31307749Y-17104556D01*
X31318390Y-17112287D01*
X31434607Y-17171503D01*
X31500776Y-17205218D01*
X31500778Y-17205218D01*
X31500781Y-17205220D01*
X31605137Y-17239127D01*
X31695465Y-17268477D01*
X31796557Y-17284488D01*
X31897648Y-17300500D01*
X31897649Y-17300500D01*
X32102351Y-17300500D01*
X32102352Y-17300500D01*
X32304534Y-17268477D01*
X32499219Y-17205220D01*
X32681610Y-17112287D01*
X32782092Y-17039283D01*
X32847213Y-16991971D01*
X32847215Y-16991968D01*
X32847219Y-16991966D01*
X32991966Y-16847219D01*
X32991968Y-16847215D01*
X32991971Y-16847213D01*
X33044732Y-16774590D01*
X33112287Y-16681610D01*
X33205220Y-16499219D01*
X33268477Y-16304534D01*
X33300500Y-16102352D01*
X33300500Y-15897648D01*
X33287410Y-15815000D01*
X33268477Y-15695465D01*
X33206436Y-15504524D01*
X33205220Y-15500781D01*
X33205218Y-15500778D01*
X33205218Y-15500776D01*
X33161889Y-15415739D01*
X33112287Y-15318390D01*
X33104556Y-15307749D01*
X32991971Y-15152786D01*
X32847213Y-15008028D01*
X32681613Y-14887715D01*
X32681612Y-14887714D01*
X32681610Y-14887713D01*
X32624653Y-14858691D01*
X32499223Y-14794781D01*
X32304534Y-14731522D01*
X32129995Y-14703878D01*
X32102352Y-14699500D01*
X31897648Y-14699500D01*
X31873329Y-14703351D01*
X31695465Y-14731522D01*
X31500776Y-14794781D01*
X31318386Y-14887715D01*
X31152786Y-15008028D01*
X31008028Y-15152786D01*
X30887715Y-15318386D01*
X30794781Y-15500776D01*
X30731522Y-15695465D01*
X30699500Y-15897648D01*
X30699500Y-16102351D01*
X26915940Y-16102351D01*
X26890483Y-16065470D01*
X26772240Y-15960717D01*
X26772238Y-15960716D01*
X26772237Y-15960715D01*
X26632365Y-15887303D01*
X26478986Y-15849500D01*
X26478985Y-15849500D01*
X26321015Y-15849500D01*
X26321014Y-15849500D01*
X26167634Y-15887303D01*
X26027762Y-15960715D01*
X25909516Y-16065471D01*
X25819781Y-16195475D01*
X25819780Y-16195476D01*
X25763762Y-16343181D01*
X25744722Y-16499999D01*
X25744722Y-16500000D01*
X6361756Y-16500000D01*
X6439673Y-16396821D01*
X6530582Y-16214250D01*
X6586397Y-16018083D01*
X6605215Y-15815000D01*
X6586397Y-15611917D01*
X6530582Y-15415750D01*
X6439673Y-15233179D01*
X6414617Y-15200000D01*
X18844722Y-15200000D01*
X18863762Y-15356818D01*
X18918359Y-15500776D01*
X18919780Y-15504523D01*
X19009517Y-15634530D01*
X19127760Y-15739283D01*
X19127762Y-15739284D01*
X19267634Y-15812696D01*
X19421014Y-15850500D01*
X19421015Y-15850500D01*
X19578985Y-15850500D01*
X19732365Y-15812696D01*
X19872240Y-15739283D01*
X19990483Y-15634530D01*
X20080220Y-15504523D01*
X20136237Y-15356818D01*
X20155278Y-15200000D01*
X21244722Y-15200000D01*
X21263762Y-15356818D01*
X21318359Y-15500776D01*
X21319780Y-15504523D01*
X21409517Y-15634530D01*
X21527760Y-15739283D01*
X21527762Y-15739284D01*
X21667634Y-15812696D01*
X21821014Y-15850500D01*
X21821015Y-15850500D01*
X21978985Y-15850500D01*
X22132365Y-15812696D01*
X22272240Y-15739283D01*
X22390483Y-15634530D01*
X22480220Y-15504523D01*
X22536237Y-15356818D01*
X22555278Y-15200000D01*
X22539545Y-15070421D01*
X22536237Y-15043181D01*
X22501087Y-14950500D01*
X22480220Y-14895477D01*
X22390483Y-14765470D01*
X22272240Y-14660717D01*
X22272238Y-14660716D01*
X22272237Y-14660715D01*
X22132365Y-14587303D01*
X21978986Y-14549500D01*
X21978985Y-14549500D01*
X21821015Y-14549500D01*
X21821014Y-14549500D01*
X21667634Y-14587303D01*
X21527762Y-14660715D01*
X21467051Y-14714500D01*
X21425027Y-14751730D01*
X21409516Y-14765471D01*
X21319781Y-14895475D01*
X21319780Y-14895476D01*
X21263762Y-15043181D01*
X21244722Y-15199999D01*
X21244722Y-15200000D01*
X20155278Y-15200000D01*
X20139545Y-15070421D01*
X20136237Y-15043181D01*
X20101087Y-14950500D01*
X20080220Y-14895477D01*
X19990483Y-14765470D01*
X19872240Y-14660717D01*
X19872238Y-14660716D01*
X19872237Y-14660715D01*
X19732365Y-14587303D01*
X19578986Y-14549500D01*
X19578985Y-14549500D01*
X19421015Y-14549500D01*
X19421014Y-14549500D01*
X19267634Y-14587303D01*
X19127762Y-14660715D01*
X19067051Y-14714500D01*
X19025027Y-14751730D01*
X19009516Y-14765471D01*
X18919781Y-14895475D01*
X18919780Y-14895476D01*
X18863762Y-15043181D01*
X18844722Y-15199999D01*
X18844722Y-15200000D01*
X6414617Y-15200000D01*
X6316764Y-15070421D01*
X6316762Y-15070418D01*
X6166041Y-14933019D01*
X6166039Y-14933017D01*
X5992642Y-14825655D01*
X5992635Y-14825651D01*
X5912949Y-14794781D01*
X5911714Y-14794302D01*
X5856313Y-14751730D01*
X5832723Y-14685963D01*
X5848434Y-14617883D01*
X5898458Y-14569104D01*
X5924417Y-14558901D01*
X5963481Y-14548434D01*
X5963492Y-14548429D01*
X6177578Y-14448600D01*
X6371082Y-14313105D01*
X6384187Y-14300000D01*
X10044722Y-14300000D01*
X10063762Y-14456818D01*
X10102478Y-14558901D01*
X10119780Y-14604523D01*
X10209517Y-14734530D01*
X10327760Y-14839283D01*
X10327762Y-14839284D01*
X10467634Y-14912696D01*
X10621014Y-14950500D01*
X10621015Y-14950500D01*
X10778985Y-14950500D01*
X10932365Y-14912696D01*
X11072240Y-14839283D01*
X11190483Y-14734530D01*
X11280220Y-14604523D01*
X11336237Y-14456818D01*
X11355278Y-14300000D01*
X11345897Y-14222735D01*
X11336237Y-14143181D01*
X11314992Y-14087164D01*
X11280220Y-13995477D01*
X11190483Y-13865470D01*
X11190481Y-13865468D01*
X11117273Y-13800611D01*
X11080146Y-13741422D01*
X11075500Y-13707796D01*
X11075500Y-11700000D01*
X15344722Y-11700000D01*
X15363762Y-11856818D01*
X15410307Y-11979544D01*
X15419780Y-12004523D01*
X15509517Y-12134530D01*
X15627760Y-12239283D01*
X15627762Y-12239284D01*
X15767634Y-12312696D01*
X15921014Y-12350500D01*
X15921015Y-12350500D01*
X16078985Y-12350500D01*
X16232365Y-12312696D01*
X16372240Y-12239283D01*
X16490483Y-12134530D01*
X16580220Y-12004523D01*
X16584058Y-11994400D01*
X16626236Y-11938700D01*
X16691833Y-11914642D01*
X16760023Y-11929869D01*
X16809157Y-11979544D01*
X16815942Y-11994402D01*
X16819780Y-12004524D01*
X16840492Y-12034530D01*
X16909517Y-12134530D01*
X17027760Y-12239283D01*
X17027762Y-12239284D01*
X17167634Y-12312696D01*
X17321014Y-12350500D01*
X17321015Y-12350500D01*
X17478985Y-12350500D01*
X17632365Y-12312696D01*
X17772240Y-12239283D01*
X17890483Y-12134530D01*
X17914317Y-12100000D01*
X19944722Y-12100000D01*
X19963762Y-12256818D01*
X20010307Y-12379544D01*
X20019780Y-12404523D01*
X20109517Y-12534530D01*
X20227760Y-12639283D01*
X20227762Y-12639284D01*
X20367634Y-12712696D01*
X20521014Y-12750500D01*
X20521015Y-12750500D01*
X20678985Y-12750500D01*
X20832365Y-12712696D01*
X20833504Y-12712098D01*
X20972240Y-12639283D01*
X21090483Y-12534530D01*
X21180220Y-12404523D01*
X21184058Y-12394400D01*
X21226236Y-12338700D01*
X21291833Y-12314642D01*
X21360023Y-12329869D01*
X21409157Y-12379544D01*
X21415942Y-12394402D01*
X21419780Y-12404524D01*
X21477627Y-12488330D01*
X21509517Y-12534530D01*
X21627760Y-12639283D01*
X21627762Y-12639284D01*
X21767634Y-12712696D01*
X21921014Y-12750500D01*
X21921015Y-12750500D01*
X22078985Y-12750500D01*
X22232365Y-12712696D01*
X22233504Y-12712098D01*
X22372240Y-12639283D01*
X22490483Y-12534530D01*
X22580220Y-12404523D01*
X22636237Y-12256818D01*
X22655278Y-12100000D01*
X22636237Y-11943182D01*
X22634537Y-11938700D01*
X22605184Y-11861301D01*
X22580220Y-11795477D01*
X22514317Y-11700000D01*
X25044722Y-11700000D01*
X25063762Y-11856818D01*
X25110307Y-11979544D01*
X25119780Y-12004523D01*
X25209517Y-12134530D01*
X25327760Y-12239283D01*
X25327762Y-12239284D01*
X25467634Y-12312696D01*
X25621014Y-12350500D01*
X25621015Y-12350500D01*
X25778985Y-12350500D01*
X25932365Y-12312696D01*
X26072240Y-12239283D01*
X26190483Y-12134530D01*
X26280220Y-12004523D01*
X26284058Y-11994400D01*
X26326236Y-11938700D01*
X26391833Y-11914642D01*
X26460023Y-11929869D01*
X26509157Y-11979544D01*
X26515942Y-11994402D01*
X26519780Y-12004524D01*
X26540492Y-12034530D01*
X26609517Y-12134530D01*
X26727760Y-12239283D01*
X26727762Y-12239284D01*
X26867634Y-12312696D01*
X27021014Y-12350500D01*
X27021015Y-12350500D01*
X27178985Y-12350500D01*
X27332365Y-12312696D01*
X27472240Y-12239283D01*
X27590483Y-12134530D01*
X27680220Y-12004523D01*
X27736237Y-11856818D01*
X27755278Y-11700000D01*
X27751086Y-11665471D01*
X27736237Y-11543181D01*
X27698312Y-11443182D01*
X27680220Y-11395477D01*
X27590483Y-11265470D01*
X27472240Y-11160717D01*
X27472238Y-11160716D01*
X27472237Y-11160715D01*
X27332365Y-11087303D01*
X27178986Y-11049500D01*
X27178985Y-11049500D01*
X27021015Y-11049500D01*
X27021014Y-11049500D01*
X26867634Y-11087303D01*
X26727762Y-11160715D01*
X26609516Y-11265471D01*
X26519781Y-11395475D01*
X26519779Y-11395478D01*
X26515941Y-11405599D01*
X26473763Y-11461301D01*
X26408165Y-11485357D01*
X26339975Y-11470129D01*
X26290842Y-11420453D01*
X26284059Y-11405599D01*
X26280220Y-11395478D01*
X26280220Y-11395477D01*
X26190483Y-11265470D01*
X26072240Y-11160717D01*
X26072238Y-11160716D01*
X26072237Y-11160715D01*
X25932365Y-11087303D01*
X25778986Y-11049500D01*
X25778985Y-11049500D01*
X25621015Y-11049500D01*
X25621014Y-11049500D01*
X25467634Y-11087303D01*
X25327762Y-11160715D01*
X25209516Y-11265471D01*
X25119781Y-11395475D01*
X25119780Y-11395476D01*
X25063762Y-11543181D01*
X25044722Y-11699999D01*
X25044722Y-11700000D01*
X22514317Y-11700000D01*
X22490483Y-11665470D01*
X22372240Y-11560717D01*
X22372238Y-11560716D01*
X22372237Y-11560715D01*
X22232365Y-11487303D01*
X22078986Y-11449500D01*
X22078985Y-11449500D01*
X21921015Y-11449500D01*
X21921014Y-11449500D01*
X21767634Y-11487303D01*
X21627762Y-11560715D01*
X21509516Y-11665471D01*
X21419781Y-11795475D01*
X21419779Y-11795478D01*
X21415941Y-11805599D01*
X21373763Y-11861301D01*
X21308165Y-11885357D01*
X21239975Y-11870129D01*
X21190842Y-11820453D01*
X21184059Y-11805599D01*
X21180220Y-11795478D01*
X21180220Y-11795477D01*
X21090483Y-11665470D01*
X20972240Y-11560717D01*
X20972238Y-11560716D01*
X20972237Y-11560715D01*
X20832365Y-11487303D01*
X20678986Y-11449500D01*
X20678985Y-11449500D01*
X20521015Y-11449500D01*
X20521014Y-11449500D01*
X20367634Y-11487303D01*
X20227762Y-11560715D01*
X20109516Y-11665471D01*
X20019781Y-11795475D01*
X20019780Y-11795476D01*
X19963762Y-11943181D01*
X19944722Y-12099999D01*
X19944722Y-12100000D01*
X17914317Y-12100000D01*
X17980220Y-12004523D01*
X18036237Y-11856818D01*
X18055278Y-11700000D01*
X18051086Y-11665471D01*
X18036237Y-11543181D01*
X17998312Y-11443182D01*
X17980220Y-11395477D01*
X17890483Y-11265470D01*
X17772240Y-11160717D01*
X17772238Y-11160716D01*
X17772237Y-11160715D01*
X17632365Y-11087303D01*
X17478986Y-11049500D01*
X17478985Y-11049500D01*
X17321015Y-11049500D01*
X17321014Y-11049500D01*
X17167634Y-11087303D01*
X17027762Y-11160715D01*
X16909516Y-11265471D01*
X16819781Y-11395475D01*
X16819779Y-11395478D01*
X16815941Y-11405599D01*
X16773763Y-11461301D01*
X16708165Y-11485357D01*
X16639975Y-11470129D01*
X16590842Y-11420453D01*
X16584059Y-11405599D01*
X16580220Y-11395478D01*
X16580220Y-11395477D01*
X16490483Y-11265470D01*
X16372240Y-11160717D01*
X16372238Y-11160716D01*
X16372237Y-11160715D01*
X16232365Y-11087303D01*
X16078986Y-11049500D01*
X16078985Y-11049500D01*
X15921015Y-11049500D01*
X15921014Y-11049500D01*
X15767634Y-11087303D01*
X15627762Y-11160715D01*
X15509516Y-11265471D01*
X15419781Y-11395475D01*
X15419780Y-11395476D01*
X15363762Y-11543181D01*
X15344722Y-11699999D01*
X15344722Y-11700000D01*
X11075500Y-11700000D01*
X11075500Y-10406898D01*
X11095185Y-10339859D01*
X11111815Y-10319221D01*
X11544217Y-9886818D01*
X11605540Y-9853334D01*
X11631898Y-9850500D01*
X11778985Y-9850500D01*
X11932365Y-9812696D01*
X12072240Y-9739283D01*
X12190483Y-9634530D01*
X12280220Y-9504523D01*
X12319860Y-9400000D01*
X14644722Y-9400000D01*
X14663762Y-9556818D01*
X14716349Y-9695476D01*
X14719780Y-9704523D01*
X14809517Y-9834530D01*
X14927760Y-9939283D01*
X14927762Y-9939284D01*
X15067634Y-10012696D01*
X15221014Y-10050500D01*
X15221015Y-10050500D01*
X15378985Y-10050500D01*
X15532365Y-10012696D01*
X15614785Y-9969438D01*
X15672240Y-9939283D01*
X15790483Y-9834530D01*
X15880220Y-9704523D01*
X15936237Y-9556818D01*
X15955278Y-9400000D01*
X15953737Y-9387304D01*
X15943136Y-9300000D01*
X16745722Y-9300000D01*
X16764762Y-9456818D01*
X16811678Y-9580523D01*
X16820780Y-9604523D01*
X16910517Y-9734530D01*
X17028760Y-9839283D01*
X17028762Y-9839284D01*
X17168634Y-9912696D01*
X17322014Y-9950500D01*
X17322015Y-9950500D01*
X17479985Y-9950500D01*
X17633365Y-9912696D01*
X17773238Y-9839284D01*
X17773237Y-9839284D01*
X17773240Y-9839283D01*
X17869818Y-9753722D01*
X17933051Y-9724001D01*
X18002315Y-9733185D01*
X18034269Y-9753720D01*
X18086376Y-9799882D01*
X18103762Y-9815285D01*
X18243634Y-9888696D01*
X18397014Y-9926500D01*
X18397015Y-9926500D01*
X18554985Y-9926500D01*
X18708365Y-9888696D01*
X18711941Y-9886819D01*
X18848240Y-9815283D01*
X18966483Y-9710530D01*
X19056220Y-9580523D01*
X19112237Y-9432818D01*
X19131278Y-9276000D01*
X19112237Y-9119182D01*
X19056220Y-8971477D01*
X18966483Y-8841470D01*
X18848240Y-8736717D01*
X18848238Y-8736716D01*
X18848237Y-8736715D01*
X18708365Y-8663303D01*
X18554986Y-8625500D01*
X18554985Y-8625500D01*
X18397015Y-8625500D01*
X18397014Y-8625500D01*
X18243634Y-8663303D01*
X18103761Y-8736715D01*
X18103759Y-8736717D01*
X18007180Y-8822277D01*
X17943947Y-8851998D01*
X17874683Y-8842814D01*
X17842729Y-8822278D01*
X17780208Y-8766890D01*
X17773237Y-8760714D01*
X17633365Y-8687303D01*
X17479986Y-8649500D01*
X17479985Y-8649500D01*
X17322015Y-8649500D01*
X17322014Y-8649500D01*
X17168634Y-8687303D01*
X17028762Y-8760715D01*
X16910516Y-8865471D01*
X16820781Y-8995475D01*
X16820780Y-8995476D01*
X16764762Y-9143181D01*
X16745722Y-9299999D01*
X16745722Y-9300000D01*
X15943136Y-9300000D01*
X15936237Y-9243181D01*
X15898312Y-9143182D01*
X15880220Y-9095477D01*
X15790483Y-8965470D01*
X15790481Y-8965467D01*
X15785509Y-8959855D01*
X15787740Y-8957877D01*
X15757906Y-8910303D01*
X15758679Y-8840438D01*
X15797101Y-8782081D01*
X15819631Y-8766894D01*
X15872240Y-8739283D01*
X15990483Y-8634530D01*
X16080220Y-8504523D01*
X16136237Y-8356818D01*
X16152242Y-8225000D01*
X25169722Y-8225000D01*
X25188762Y-8381818D01*
X25227716Y-8484530D01*
X25244780Y-8529523D01*
X25334517Y-8659530D01*
X25452760Y-8764283D01*
X25452762Y-8764284D01*
X25592634Y-8837696D01*
X25746014Y-8875500D01*
X25746015Y-8875500D01*
X25903985Y-8875500D01*
X26057365Y-8837696D01*
X26086743Y-8822277D01*
X26197240Y-8764283D01*
X26315483Y-8659530D01*
X26405220Y-8529523D01*
X26454341Y-8400000D01*
X32444722Y-8400000D01*
X32463762Y-8556818D01*
X32515942Y-8694402D01*
X32519780Y-8704523D01*
X32609517Y-8834530D01*
X32727760Y-8939283D01*
X32727762Y-8939284D01*
X32867634Y-9012696D01*
X33021014Y-9050500D01*
X33021015Y-9050500D01*
X33178985Y-9050500D01*
X33332365Y-9012696D01*
X33472240Y-8939283D01*
X33590483Y-8834530D01*
X33680220Y-8704523D01*
X33684058Y-8694400D01*
X33726236Y-8638700D01*
X33791833Y-8614642D01*
X33860023Y-8629869D01*
X33909157Y-8679544D01*
X33915942Y-8694402D01*
X33919780Y-8704524D01*
X33973314Y-8782081D01*
X34009517Y-8834530D01*
X34127760Y-8939283D01*
X34127762Y-8939284D01*
X34267634Y-9012696D01*
X34421014Y-9050500D01*
X34421015Y-9050500D01*
X34578985Y-9050500D01*
X34732365Y-9012696D01*
X34872240Y-8939283D01*
X34990483Y-8834530D01*
X35080220Y-8704523D01*
X35136237Y-8556818D01*
X35155278Y-8400000D01*
X35136237Y-8243182D01*
X35129341Y-8225000D01*
X35087488Y-8114642D01*
X35080220Y-8095477D01*
X34990483Y-7965470D01*
X34872240Y-7860717D01*
X34872238Y-7860716D01*
X34872237Y-7860715D01*
X34732365Y-7787303D01*
X34578986Y-7749500D01*
X34578985Y-7749500D01*
X34421015Y-7749500D01*
X34421014Y-7749500D01*
X34267634Y-7787303D01*
X34127762Y-7860715D01*
X34009516Y-7965471D01*
X33919781Y-8095475D01*
X33919779Y-8095478D01*
X33915941Y-8105599D01*
X33873763Y-8161301D01*
X33808165Y-8185357D01*
X33739975Y-8170129D01*
X33690842Y-8120453D01*
X33684059Y-8105599D01*
X33680220Y-8095478D01*
X33680220Y-8095477D01*
X33590483Y-7965470D01*
X33472240Y-7860717D01*
X33472238Y-7860716D01*
X33472237Y-7860715D01*
X33332365Y-7787303D01*
X33178986Y-7749500D01*
X33178985Y-7749500D01*
X33021015Y-7749500D01*
X33021014Y-7749500D01*
X32867634Y-7787303D01*
X32727762Y-7860715D01*
X32609516Y-7965471D01*
X32519781Y-8095475D01*
X32519780Y-8095476D01*
X32463762Y-8243181D01*
X32444722Y-8399999D01*
X32444722Y-8400000D01*
X26454341Y-8400000D01*
X26461237Y-8381818D01*
X26480278Y-8225000D01*
X26477243Y-8200000D01*
X26461237Y-8068181D01*
X26422284Y-7965471D01*
X26405220Y-7920477D01*
X26315483Y-7790470D01*
X26197240Y-7685717D01*
X26197238Y-7685716D01*
X26197237Y-7685715D01*
X26057365Y-7612303D01*
X25903986Y-7574500D01*
X25903985Y-7574500D01*
X25746015Y-7574500D01*
X25746014Y-7574500D01*
X25592634Y-7612303D01*
X25452762Y-7685715D01*
X25452760Y-7685717D01*
X25362737Y-7765470D01*
X25334516Y-7790471D01*
X25244781Y-7920475D01*
X25244780Y-7920476D01*
X25188762Y-8068181D01*
X25169722Y-8224999D01*
X25169722Y-8225000D01*
X16152242Y-8225000D01*
X16155278Y-8200000D01*
X16142587Y-8095475D01*
X16136237Y-8043181D01*
X16089701Y-7920477D01*
X16080220Y-7895477D01*
X15990483Y-7765470D01*
X15872240Y-7660717D01*
X15872238Y-7660716D01*
X15872237Y-7660715D01*
X15732365Y-7587303D01*
X15578986Y-7549500D01*
X15578985Y-7549500D01*
X15421015Y-7549500D01*
X15421014Y-7549500D01*
X15267634Y-7587303D01*
X15127762Y-7660715D01*
X15009516Y-7765471D01*
X14919781Y-7895475D01*
X14919780Y-7895476D01*
X14863762Y-8043181D01*
X14844722Y-8199999D01*
X14844722Y-8200000D01*
X14863762Y-8356818D01*
X14912197Y-8484528D01*
X14919780Y-8504523D01*
X14960051Y-8562865D01*
X15009518Y-8634532D01*
X15014491Y-8640145D01*
X15012249Y-8642130D01*
X15042074Y-8689624D01*
X15041342Y-8759490D01*
X15002954Y-8817869D01*
X14980365Y-8833107D01*
X14944372Y-8851998D01*
X14927760Y-8860717D01*
X14809521Y-8965467D01*
X14809516Y-8965471D01*
X14719781Y-9095475D01*
X14719780Y-9095476D01*
X14663762Y-9243181D01*
X14644722Y-9399999D01*
X14644722Y-9400000D01*
X12319860Y-9400000D01*
X12336237Y-9356818D01*
X12355278Y-9200000D01*
X12342587Y-9095475D01*
X12336237Y-9043181D01*
X12309043Y-8971477D01*
X12280220Y-8895477D01*
X12190483Y-8765470D01*
X12072240Y-8660717D01*
X12072238Y-8660716D01*
X12072237Y-8660715D01*
X11932365Y-8587303D01*
X11778986Y-8549500D01*
X11778985Y-8549500D01*
X11621015Y-8549500D01*
X11621014Y-8549500D01*
X11467634Y-8587303D01*
X11327762Y-8660715D01*
X11248931Y-8730552D01*
X11214886Y-8760714D01*
X11209516Y-8765471D01*
X11119781Y-8895475D01*
X11119780Y-8895476D01*
X11063762Y-9043181D01*
X11044722Y-9199999D01*
X11044722Y-9200001D01*
X11050896Y-9250854D01*
X11039435Y-9319777D01*
X11015481Y-9353480D01*
X10469438Y-9899525D01*
X10399526Y-9969436D01*
X10350091Y-10055059D01*
X10350091Y-10055060D01*
X10350090Y-10055062D01*
X10324500Y-10150565D01*
X10324500Y-10150567D01*
X10324500Y-13707796D01*
X10304815Y-13774835D01*
X10282727Y-13800611D01*
X10209518Y-13865468D01*
X10119781Y-13995475D01*
X10119780Y-13995476D01*
X10063762Y-14143181D01*
X10044722Y-14299999D01*
X10044722Y-14300000D01*
X6384187Y-14300000D01*
X6538105Y-14146082D01*
X6673600Y-13952578D01*
X6773429Y-13738492D01*
X6773432Y-13738486D01*
X6830636Y-13525000D01*
X5933012Y-13525000D01*
X5965925Y-13467993D01*
X6000000Y-13340826D01*
X6000000Y-13209174D01*
X5965925Y-13082007D01*
X5933012Y-13025000D01*
X6830636Y-13025000D01*
X6830635Y-13024999D01*
X6773432Y-12811513D01*
X6773429Y-12811507D01*
X6673600Y-12597422D01*
X6673599Y-12597420D01*
X6538113Y-12403926D01*
X6538108Y-12403920D01*
X6371082Y-12236894D01*
X6177578Y-12101399D01*
X5963492Y-12001570D01*
X5963486Y-12001567D01*
X5750000Y-11944364D01*
X5750000Y-12841988D01*
X5692993Y-12809075D01*
X5565826Y-12775000D01*
X5434174Y-12775000D01*
X5307007Y-12809075D01*
X5250000Y-12841988D01*
X5250000Y-11944364D01*
X5249999Y-11944364D01*
X5036513Y-12001567D01*
X5036507Y-12001570D01*
X4822422Y-12101399D01*
X4822420Y-12101400D01*
X4628926Y-12236886D01*
X4628920Y-12236891D01*
X4461891Y-12403920D01*
X4461886Y-12403926D01*
X4326400Y-12597420D01*
X4326399Y-12597422D01*
X4296882Y-12660723D01*
X4250710Y-12713162D01*
X4183516Y-12732314D01*
X4116635Y-12712098D01*
X4071300Y-12658933D01*
X4060500Y-12608318D01*
X4060500Y-12400323D01*
X4060499Y-12400321D01*
X4045967Y-12327264D01*
X4045966Y-12327260D01*
X4036235Y-12312696D01*
X3990601Y-12244399D01*
X3907740Y-12189034D01*
X3907739Y-12189033D01*
X3907735Y-12189032D01*
X3834677Y-12174500D01*
X3834674Y-12174500D01*
X2085326Y-12174500D01*
X2085323Y-12174500D01*
X2012264Y-12189032D01*
X2012260Y-12189033D01*
X1929399Y-12244399D01*
X1874033Y-12327260D01*
X1874032Y-12327264D01*
X1859500Y-12400321D01*
X1859500Y-14149678D01*
X0Y-14149678D01*
X0Y-11600000D01*
X8644722Y-11600000D01*
X8663762Y-11756818D01*
X8701688Y-11856818D01*
X8719780Y-11904523D01*
X8809517Y-12034530D01*
X8927760Y-12139283D01*
X8927762Y-12139284D01*
X9067634Y-12212696D01*
X9221014Y-12250500D01*
X9221015Y-12250500D01*
X9378985Y-12250500D01*
X9532365Y-12212696D01*
X9672240Y-12139283D01*
X9790483Y-12034530D01*
X9880220Y-11904523D01*
X9936237Y-11756818D01*
X9955278Y-11600000D01*
X9936237Y-11443182D01*
X9880220Y-11295477D01*
X9790483Y-11165470D01*
X9672240Y-11060717D01*
X9672238Y-11060716D01*
X9672237Y-11060715D01*
X9532365Y-10987303D01*
X9378986Y-10949500D01*
X9378985Y-10949500D01*
X9221015Y-10949500D01*
X9221014Y-10949500D01*
X9067634Y-10987303D01*
X8927762Y-11060715D01*
X8809516Y-11165471D01*
X8719781Y-11295475D01*
X8719780Y-11295476D01*
X8663762Y-11443181D01*
X8644722Y-11599999D01*
X8644722Y-11600000D01*
X0Y-11600000D01*
X0Y-10000000D01*
X6744722Y-10000000D01*
X6763762Y-10156818D01*
X6819780Y-10304523D01*
X6909517Y-10434530D01*
X7027760Y-10539283D01*
X7027762Y-10539284D01*
X7167634Y-10612696D01*
X7321014Y-10650500D01*
X7321015Y-10650500D01*
X7478985Y-10650500D01*
X7632365Y-10612696D01*
X7772240Y-10539283D01*
X7890483Y-10434530D01*
X7980220Y-10304523D01*
X8036237Y-10156818D01*
X8055278Y-10000000D01*
X8044678Y-9912696D01*
X8036237Y-9843181D01*
X8002309Y-9753722D01*
X7980220Y-9695477D01*
X7890483Y-9565470D01*
X7772240Y-9460717D01*
X7772238Y-9460716D01*
X7772237Y-9460715D01*
X7632365Y-9387303D01*
X7478986Y-9349500D01*
X7478985Y-9349500D01*
X7321015Y-9349500D01*
X7321014Y-9349500D01*
X7167634Y-9387303D01*
X7027762Y-9460715D01*
X6909516Y-9565471D01*
X6819781Y-9695475D01*
X6819780Y-9695476D01*
X6763762Y-9843181D01*
X6744722Y-9999999D01*
X6744722Y-10000000D01*
X0Y-10000000D01*
X0Y-8900000D01*
X3544722Y-8900000D01*
X3563762Y-9056818D01*
X3578424Y-9095477D01*
X3619780Y-9204523D01*
X3709517Y-9334530D01*
X3827760Y-9439283D01*
X3827762Y-9439284D01*
X3967634Y-9512696D01*
X4121014Y-9550500D01*
X4121015Y-9550500D01*
X4278985Y-9550500D01*
X4432365Y-9512696D01*
X4531401Y-9460717D01*
X4572240Y-9439283D01*
X4690483Y-9334530D01*
X4780220Y-9204523D01*
X4836237Y-9056818D01*
X4855278Y-8900000D01*
X4851086Y-8865471D01*
X4836237Y-8743181D01*
X4796612Y-8638700D01*
X4780220Y-8595477D01*
X4690483Y-8465470D01*
X4572240Y-8360717D01*
X4572238Y-8360716D01*
X4572237Y-8360715D01*
X4432365Y-8287303D01*
X4278986Y-8249500D01*
X4278985Y-8249500D01*
X4121015Y-8249500D01*
X4121014Y-8249500D01*
X3967634Y-8287303D01*
X3827762Y-8360715D01*
X3709516Y-8465471D01*
X3619781Y-8595475D01*
X3619780Y-8595476D01*
X3563762Y-8743181D01*
X3544722Y-8899999D01*
X3544722Y-8900000D01*
X0Y-8900000D01*
X0Y-8050000D01*
X5694722Y-8050000D01*
X5713762Y-8206818D01*
X5744287Y-8287304D01*
X5769780Y-8354523D01*
X5859517Y-8484530D01*
X5977760Y-8589283D01*
X5977762Y-8589284D01*
X6117634Y-8662696D01*
X6271014Y-8700500D01*
X6271015Y-8700500D01*
X6428985Y-8700500D01*
X6582365Y-8662696D01*
X6588401Y-8659528D01*
X6722240Y-8589283D01*
X6840483Y-8484530D01*
X6930220Y-8354523D01*
X6986237Y-8206818D01*
X7005278Y-8050000D01*
X6995015Y-7965471D01*
X6986237Y-7893181D01*
X6947284Y-7790471D01*
X6930220Y-7745477D01*
X6840483Y-7615470D01*
X6722240Y-7510717D01*
X6722238Y-7510716D01*
X6722237Y-7510715D01*
X6582365Y-7437303D01*
X6428986Y-7399500D01*
X6428985Y-7399500D01*
X6271015Y-7399500D01*
X6271014Y-7399500D01*
X6117634Y-7437303D01*
X5977762Y-7510715D01*
X5859516Y-7615471D01*
X5769781Y-7745475D01*
X5769780Y-7745476D01*
X5713762Y-7893181D01*
X5694722Y-8049999D01*
X5694722Y-8050000D01*
X0Y-8050000D01*
X0Y-6500000D01*
X7844722Y-6500000D01*
X7863762Y-6656818D01*
X7899576Y-6751249D01*
X7919780Y-6804523D01*
X8009517Y-6934530D01*
X8127760Y-7039283D01*
X8127762Y-7039284D01*
X8274276Y-7116182D01*
X8272777Y-7119037D01*
X8316854Y-7152363D01*
X8340959Y-7217943D01*
X8325781Y-7286144D01*
X8276141Y-7335313D01*
X8274862Y-7335994D01*
X8227763Y-7360714D01*
X8109516Y-7465471D01*
X8019781Y-7595475D01*
X8019780Y-7595476D01*
X7963762Y-7743181D01*
X7944722Y-7899999D01*
X7944722Y-7900000D01*
X7963762Y-8056818D01*
X8003388Y-8161301D01*
X8019780Y-8204523D01*
X8109517Y-8334530D01*
X8227760Y-8439283D01*
X8227762Y-8439284D01*
X8367634Y-8512696D01*
X8521014Y-8550500D01*
X8521015Y-8550500D01*
X8678985Y-8550500D01*
X8832365Y-8512696D01*
X8886034Y-8484528D01*
X8972240Y-8439283D01*
X9090483Y-8334530D01*
X9180220Y-8204523D01*
X9184058Y-8194400D01*
X9226236Y-8138700D01*
X9291833Y-8114642D01*
X9360023Y-8129869D01*
X9409157Y-8179544D01*
X9415942Y-8194402D01*
X9419780Y-8204524D01*
X9446464Y-8243182D01*
X9509517Y-8334530D01*
X9627760Y-8439283D01*
X9627762Y-8439284D01*
X9767634Y-8512696D01*
X9921014Y-8550500D01*
X9921015Y-8550500D01*
X10078985Y-8550500D01*
X10232365Y-8512696D01*
X10286034Y-8484528D01*
X10372240Y-8439283D01*
X10490483Y-8334530D01*
X10580220Y-8204523D01*
X10636237Y-8056818D01*
X10655278Y-7900000D01*
X10636516Y-7745475D01*
X10636237Y-7743181D01*
X10589692Y-7620453D01*
X10580220Y-7595477D01*
X10490483Y-7465470D01*
X10372240Y-7360717D01*
X10372238Y-7360716D01*
X10372237Y-7360715D01*
X10275220Y-7309796D01*
X10225007Y-7261212D01*
X10209033Y-7193193D01*
X10232368Y-7127335D01*
X10275220Y-7090204D01*
X10323944Y-7064631D01*
X10372240Y-7039283D01*
X10490483Y-6934530D01*
X10580220Y-6804523D01*
X10636237Y-6656818D01*
X10655278Y-6500000D01*
X10636237Y-6343182D01*
X10628847Y-6323697D01*
X10614992Y-6287164D01*
X10580220Y-6195477D01*
X10490483Y-6065470D01*
X10412069Y-5996002D01*
X20170751Y-5996002D01*
X20189685Y-6164056D01*
X20245545Y-6323694D01*
X20245547Y-6323697D01*
X20335518Y-6466884D01*
X20335523Y-6466890D01*
X20455109Y-6586476D01*
X20455115Y-6586481D01*
X20598302Y-6676452D01*
X20598305Y-6676454D01*
X20598309Y-6676455D01*
X20598310Y-6676456D01*
X20670913Y-6701860D01*
X20757943Y-6732314D01*
X20925997Y-6751249D01*
X20926000Y-6751249D01*
X20926003Y-6751249D01*
X21094056Y-6732314D01*
X21095051Y-6731966D01*
X21253690Y-6676456D01*
X21253692Y-6676454D01*
X21253694Y-6676454D01*
X21253697Y-6676452D01*
X21396884Y-6586481D01*
X21396885Y-6586480D01*
X21396890Y-6586477D01*
X21516477Y-6466890D01*
X21547703Y-6417195D01*
X21606452Y-6323697D01*
X21606454Y-6323694D01*
X21606454Y-6323692D01*
X21606456Y-6323690D01*
X21662313Y-6164059D01*
X21662313Y-6164058D01*
X21662314Y-6164056D01*
X21681249Y-5996002D01*
X21681249Y-5995997D01*
X21662314Y-5827943D01*
X21606454Y-5668305D01*
X21606452Y-5668302D01*
X21516481Y-5525115D01*
X21516476Y-5525109D01*
X21440048Y-5448681D01*
X21406563Y-5387358D01*
X21411547Y-5317666D01*
X21440048Y-5273319D01*
X21465015Y-5248352D01*
X21516477Y-5196890D01*
X21554828Y-5135855D01*
X21606452Y-5053697D01*
X21606454Y-5053694D01*
X21606454Y-5053692D01*
X21606456Y-5053690D01*
X21662313Y-4894059D01*
X21662313Y-4894058D01*
X21662314Y-4894056D01*
X21681249Y-4726002D01*
X21681249Y-4725997D01*
X21662314Y-4557943D01*
X21613453Y-4418307D01*
X21606456Y-4398310D01*
X21606454Y-4398307D01*
X21606454Y-4398306D01*
X21554828Y-4316145D01*
X21535827Y-4248908D01*
X21556194Y-4182073D01*
X21590930Y-4147071D01*
X21606601Y-4136601D01*
X21661966Y-4053740D01*
X21676500Y-3980674D01*
X21676500Y-2931326D01*
X21676500Y-2931323D01*
X21676499Y-2931321D01*
X21661967Y-2858264D01*
X21661966Y-2858260D01*
X21646109Y-2834528D01*
X21606601Y-2775399D01*
X21606599Y-2775398D01*
X21601917Y-2768390D01*
X21581040Y-2701713D01*
X21599525Y-2634333D01*
X21651504Y-2587643D01*
X21705020Y-2575500D01*
X23392788Y-2575500D01*
X23459827Y-2595185D01*
X23505582Y-2647989D01*
X23515526Y-2717147D01*
X23488641Y-2778165D01*
X23390507Y-2897739D01*
X23390503Y-2897746D01*
X23297652Y-3071458D01*
X23256839Y-3205999D01*
X23256840Y-3206000D01*
X24016382Y-3206000D01*
X23965936Y-3256446D01*
X23923149Y-3330555D01*
X23901000Y-3413213D01*
X23901000Y-3498787D01*
X23923149Y-3581445D01*
X23965936Y-3655554D01*
X24016382Y-3706000D01*
X23256840Y-3706000D01*
X23297652Y-3840541D01*
X23390503Y-4014253D01*
X23390507Y-4014260D01*
X23515471Y-4166527D01*
X23546941Y-4192354D01*
X23586276Y-4250100D01*
X23588147Y-4319944D01*
X23573272Y-4354178D01*
X23545545Y-4398306D01*
X23489685Y-4557943D01*
X23470751Y-4725997D01*
X23470751Y-4726002D01*
X23489685Y-4894056D01*
X23545545Y-5053694D01*
X23545547Y-5053697D01*
X23597171Y-5135855D01*
X23616172Y-5203091D01*
X23595805Y-5269926D01*
X23561069Y-5304929D01*
X23545399Y-5315398D01*
X23490033Y-5398260D01*
X23490032Y-5398264D01*
X23475500Y-5471321D01*
X23475500Y-6520678D01*
X23490032Y-6593735D01*
X23490033Y-6593739D01*
X23490034Y-6593740D01*
X23545399Y-6676601D01*
X23628260Y-6731966D01*
X23628264Y-6731967D01*
X23701321Y-6746499D01*
X23701324Y-6746500D01*
X23701326Y-6746500D01*
X24750676Y-6746500D01*
X24750677Y-6746499D01*
X24823740Y-6731966D01*
X24906601Y-6676601D01*
X24961966Y-6593740D01*
X24976500Y-6520674D01*
X24976500Y-5471326D01*
X24976500Y-5471323D01*
X24976499Y-5471321D01*
X24961967Y-5398264D01*
X24961966Y-5398260D01*
X24920687Y-5336481D01*
X24906601Y-5315399D01*
X24890930Y-5304928D01*
X24846126Y-5251317D01*
X24837419Y-5181992D01*
X24854829Y-5135855D01*
X24906452Y-5053697D01*
X24906454Y-5053694D01*
X24906454Y-5053692D01*
X24906456Y-5053690D01*
X24962313Y-4894059D01*
X24962313Y-4894058D01*
X24962314Y-4894056D01*
X24981249Y-4726002D01*
X24981249Y-4725997D01*
X24962314Y-4557943D01*
X24913453Y-4418307D01*
X24906456Y-4398310D01*
X24878727Y-4354180D01*
X24859727Y-4286946D01*
X24880094Y-4220111D01*
X24905058Y-4192354D01*
X24936526Y-4166529D01*
X25061492Y-4014260D01*
X25061496Y-4014253D01*
X25154347Y-3840541D01*
X25195160Y-3706000D01*
X24435618Y-3706000D01*
X24486064Y-3655554D01*
X24528851Y-3581445D01*
X24551000Y-3498787D01*
X24551000Y-3413213D01*
X24528851Y-3330555D01*
X24486064Y-3256446D01*
X24435618Y-3206000D01*
X25195160Y-3206000D01*
X25195160Y-3205999D01*
X25154347Y-3071458D01*
X25061496Y-2897746D01*
X25061492Y-2897739D01*
X24963359Y-2778165D01*
X24936046Y-2713855D01*
X24947837Y-2644988D01*
X24994989Y-2593427D01*
X25059212Y-2575500D01*
X26693101Y-2575500D01*
X26760140Y-2595185D01*
X26780782Y-2611819D01*
X26851063Y-2682100D01*
X26884548Y-2743423D01*
X26879564Y-2813115D01*
X26866486Y-2838669D01*
X26840034Y-2878258D01*
X26840032Y-2878264D01*
X26825500Y-2951321D01*
X26825500Y-4000678D01*
X26840032Y-4073735D01*
X26840033Y-4073739D01*
X26841541Y-4075996D01*
X26895399Y-4156601D01*
X26911068Y-4167070D01*
X26955872Y-4220679D01*
X26964582Y-4290004D01*
X26947172Y-4336144D01*
X26895545Y-4418307D01*
X26839685Y-4577943D01*
X26820751Y-4745997D01*
X26820751Y-4746002D01*
X26839685Y-4914056D01*
X26895545Y-5073694D01*
X26895547Y-5073697D01*
X26985518Y-5216884D01*
X26985523Y-5216890D01*
X27105109Y-5336476D01*
X27105115Y-5336481D01*
X27248302Y-5426452D01*
X27248305Y-5426454D01*
X27248309Y-5426455D01*
X27248310Y-5426456D01*
X27311826Y-5448681D01*
X27407943Y-5482314D01*
X27575997Y-5501249D01*
X27576000Y-5501249D01*
X27576003Y-5501249D01*
X27744056Y-5482314D01*
X27775458Y-5471326D01*
X27903690Y-5426456D01*
X27903692Y-5426454D01*
X27903694Y-5426454D01*
X27903697Y-5426452D01*
X28046884Y-5336481D01*
X28046885Y-5336480D01*
X28046890Y-5336477D01*
X28166477Y-5216890D01*
X28256452Y-5073697D01*
X28256454Y-5073694D01*
X28256454Y-5073692D01*
X28256456Y-5073690D01*
X28312313Y-4914059D01*
X28312313Y-4914058D01*
X28312314Y-4914056D01*
X28331249Y-4746002D01*
X28331249Y-4745997D01*
X28312314Y-4577943D01*
X28293694Y-4524730D01*
X28256456Y-4418310D01*
X28256454Y-4418307D01*
X28256454Y-4418306D01*
X28204828Y-4336145D01*
X28185827Y-4268908D01*
X28206194Y-4202073D01*
X28240930Y-4167071D01*
X28256601Y-4156601D01*
X28311966Y-4073740D01*
X28326500Y-4000674D01*
X28326500Y-3300000D01*
X32344722Y-3300000D01*
X32363762Y-3456818D01*
X32396516Y-3543181D01*
X32419780Y-3604523D01*
X32509517Y-3734530D01*
X32627760Y-3839283D01*
X32627762Y-3839284D01*
X32767634Y-3912696D01*
X32921014Y-3950500D01*
X32921015Y-3950500D01*
X33078985Y-3950500D01*
X33232365Y-3912696D01*
X33326474Y-3863303D01*
X33372240Y-3839283D01*
X33490483Y-3734530D01*
X33570851Y-3618097D01*
X34999500Y-3618097D01*
X35036446Y-3851368D01*
X35109433Y-4075996D01*
X35208286Y-4270004D01*
X35216657Y-4286433D01*
X35355483Y-4477510D01*
X35522490Y-4644517D01*
X35713567Y-4783343D01*
X35812991Y-4834002D01*
X35924003Y-4890566D01*
X35924005Y-4890566D01*
X35924008Y-4890568D01*
X35996306Y-4914059D01*
X36148631Y-4963553D01*
X36381903Y-5000500D01*
X36381908Y-5000500D01*
X36618097Y-5000500D01*
X36851368Y-4963553D01*
X37075992Y-4890568D01*
X37286433Y-4783343D01*
X37477510Y-4644517D01*
X37644517Y-4477510D01*
X37783343Y-4286433D01*
X37890568Y-4075992D01*
X37963553Y-3851368D01*
X37978206Y-3758851D01*
X38000500Y-3618097D01*
X38000500Y-3381902D01*
X37963553Y-3148631D01*
X37929689Y-3044412D01*
X37890568Y-2924008D01*
X37890566Y-2924005D01*
X37890566Y-2924003D01*
X37814848Y-2775399D01*
X37783343Y-2713567D01*
X37644517Y-2522490D01*
X37477510Y-2355483D01*
X37286433Y-2216657D01*
X37075996Y-2109433D01*
X36851368Y-2036446D01*
X36618097Y-1999500D01*
X36618092Y-1999500D01*
X36381908Y-1999500D01*
X36381903Y-1999500D01*
X36148631Y-2036446D01*
X35924003Y-2109433D01*
X35713566Y-2216657D01*
X35604550Y-2295862D01*
X35522490Y-2355483D01*
X35522488Y-2355485D01*
X35522487Y-2355485D01*
X35355485Y-2522487D01*
X35355485Y-2522488D01*
X35355483Y-2522490D01*
X35303944Y-2593427D01*
X35216657Y-2713566D01*
X35109433Y-2924003D01*
X35036446Y-3148631D01*
X34999500Y-3381902D01*
X34999500Y-3618097D01*
X33570851Y-3618097D01*
X33580220Y-3604523D01*
X33636237Y-3456818D01*
X33655278Y-3300000D01*
X33651086Y-3265471D01*
X33636237Y-3143181D01*
X33586750Y-3012696D01*
X33580220Y-2995477D01*
X33490483Y-2865470D01*
X33372240Y-2760717D01*
X33372238Y-2760716D01*
X33372237Y-2760715D01*
X33232365Y-2687303D01*
X33078986Y-2649500D01*
X33078985Y-2649500D01*
X32921015Y-2649500D01*
X32921014Y-2649500D01*
X32767634Y-2687303D01*
X32627762Y-2760715D01*
X32627760Y-2760717D01*
X32517656Y-2858260D01*
X32509516Y-2865471D01*
X32419781Y-2995475D01*
X32419780Y-2995476D01*
X32363762Y-3143181D01*
X32344722Y-3299999D01*
X32344722Y-3300000D01*
X28326500Y-3300000D01*
X28326500Y-2951326D01*
X28326500Y-2951323D01*
X28326499Y-2951321D01*
X28311967Y-2878264D01*
X28311966Y-2878260D01*
X28298605Y-2858264D01*
X28256601Y-2795399D01*
X28173740Y-2740034D01*
X28173739Y-2740033D01*
X28173735Y-2740032D01*
X28100677Y-2725500D01*
X28100674Y-2725500D01*
X27994290Y-2725500D01*
X27927251Y-2705815D01*
X27886903Y-2663500D01*
X27878265Y-2648539D01*
X27876475Y-2645438D01*
X27806562Y-2575525D01*
X27130563Y-1899526D01*
X27130562Y-1899525D01*
X27044940Y-1850091D01*
X27044939Y-1850090D01*
X26963341Y-1828226D01*
X26949436Y-1824500D01*
X26949435Y-1824500D01*
X21401436Y-1824500D01*
X21302564Y-1824500D01*
X21302561Y-1824500D01*
X21288658Y-1828225D01*
X21288659Y-1828226D01*
X21207060Y-1850090D01*
X21207059Y-1850091D01*
X21121436Y-1899526D01*
X20625527Y-2395435D01*
X20576090Y-2481062D01*
X20576090Y-2481063D01*
X20550779Y-2575525D01*
X20550771Y-2575552D01*
X20550500Y-2576560D01*
X20550500Y-2581500D01*
X20530815Y-2648539D01*
X20478011Y-2694294D01*
X20426500Y-2705500D01*
X20401323Y-2705500D01*
X20328264Y-2720032D01*
X20328260Y-2720033D01*
X20245399Y-2775399D01*
X20190033Y-2858260D01*
X20190032Y-2858264D01*
X20175500Y-2931321D01*
X20175500Y-3980678D01*
X20190032Y-4053735D01*
X20190033Y-4053739D01*
X20190034Y-4053740D01*
X20245399Y-4136601D01*
X20261068Y-4147070D01*
X20305872Y-4200679D01*
X20314582Y-4270004D01*
X20297172Y-4316144D01*
X20245545Y-4398307D01*
X20189685Y-4557943D01*
X20170751Y-4725997D01*
X20170751Y-4726002D01*
X20189685Y-4894056D01*
X20245545Y-5053694D01*
X20245547Y-5053697D01*
X20335518Y-5196884D01*
X20335523Y-5196890D01*
X20411952Y-5273319D01*
X20445437Y-5334642D01*
X20440453Y-5404334D01*
X20411952Y-5448681D01*
X20335523Y-5525109D01*
X20335518Y-5525115D01*
X20245547Y-5668302D01*
X20245545Y-5668305D01*
X20189685Y-5827943D01*
X20170751Y-5995997D01*
X20170751Y-5996002D01*
X10412069Y-5996002D01*
X10372240Y-5960717D01*
X10372238Y-5960716D01*
X10372237Y-5960715D01*
X10232365Y-5887303D01*
X10078986Y-5849500D01*
X10078985Y-5849500D01*
X9921015Y-5849500D01*
X9921014Y-5849500D01*
X9767634Y-5887303D01*
X9627762Y-5960715D01*
X9509516Y-6065471D01*
X9419781Y-6195474D01*
X9365942Y-6337436D01*
X9323764Y-6393138D01*
X9258166Y-6417195D01*
X9189976Y-6401968D01*
X9140843Y-6352292D01*
X9134058Y-6337436D01*
X9125375Y-6314542D01*
X9080220Y-6195477D01*
X8990483Y-6065470D01*
X8872240Y-5960717D01*
X8872238Y-5960716D01*
X8872237Y-5960715D01*
X8732365Y-5887303D01*
X8578986Y-5849500D01*
X8578985Y-5849500D01*
X8421015Y-5849500D01*
X8421014Y-5849500D01*
X8267634Y-5887303D01*
X8127762Y-5960715D01*
X8009516Y-6065471D01*
X7919781Y-6195475D01*
X7919780Y-6195476D01*
X7863762Y-6343181D01*
X7844722Y-6499999D01*
X7844722Y-6500000D01*
X0Y-6500000D01*
X0Y-3618097D01*
X1999500Y-3618097D01*
X2036446Y-3851368D01*
X2109433Y-4075996D01*
X2208286Y-4270004D01*
X2216657Y-4286433D01*
X2355483Y-4477510D01*
X2522490Y-4644517D01*
X2713567Y-4783343D01*
X2812991Y-4834002D01*
X2924003Y-4890566D01*
X2924005Y-4890566D01*
X2924008Y-4890568D01*
X2996306Y-4914059D01*
X3148631Y-4963553D01*
X3381903Y-5000500D01*
X3381908Y-5000500D01*
X3618097Y-5000500D01*
X3851368Y-4963553D01*
X4075992Y-4890568D01*
X4286433Y-4783343D01*
X4477510Y-4644517D01*
X4644517Y-4477510D01*
X4645614Y-4476000D01*
X17720722Y-4476000D01*
X17739762Y-4632818D01*
X17775101Y-4725997D01*
X17795780Y-4780523D01*
X17885517Y-4910530D01*
X18003760Y-5015283D01*
X18003762Y-5015284D01*
X18143634Y-5088696D01*
X18297014Y-5126500D01*
X18297015Y-5126500D01*
X18454985Y-5126500D01*
X18608365Y-5088696D01*
X18636943Y-5073697D01*
X18748240Y-5015283D01*
X18866483Y-4910530D01*
X18956220Y-4780523D01*
X19012237Y-4632818D01*
X19031278Y-4476000D01*
X19021845Y-4398307D01*
X19012237Y-4319181D01*
X18968420Y-4203647D01*
X18956220Y-4171477D01*
X18866483Y-4041470D01*
X18748240Y-3936717D01*
X18748238Y-3936716D01*
X18748237Y-3936715D01*
X18608365Y-3863303D01*
X18454986Y-3825500D01*
X18454985Y-3825500D01*
X18297015Y-3825500D01*
X18297014Y-3825500D01*
X18143634Y-3863303D01*
X18003762Y-3936715D01*
X17885516Y-4041471D01*
X17795781Y-4171475D01*
X17795780Y-4171476D01*
X17739762Y-4319181D01*
X17720722Y-4475999D01*
X17720722Y-4476000D01*
X4645614Y-4476000D01*
X4783343Y-4286433D01*
X4890568Y-4075992D01*
X4963553Y-3851368D01*
X4978206Y-3758851D01*
X4987527Y-3700000D01*
X11244722Y-3700000D01*
X11263762Y-3856818D01*
X11306972Y-3970751D01*
X11319780Y-4004523D01*
X11409517Y-4134530D01*
X11527760Y-4239283D01*
X11527762Y-4239284D01*
X11667634Y-4312696D01*
X11821014Y-4350500D01*
X11821015Y-4350500D01*
X11978985Y-4350500D01*
X12132365Y-4312696D01*
X12203978Y-4275110D01*
X12272240Y-4239283D01*
X12390483Y-4134530D01*
X12480220Y-4004523D01*
X12484058Y-3994400D01*
X12526236Y-3938700D01*
X12591833Y-3914642D01*
X12660023Y-3929869D01*
X12709157Y-3979544D01*
X12715942Y-3994402D01*
X12719780Y-4004524D01*
X12753748Y-4053735D01*
X12809517Y-4134530D01*
X12927760Y-4239283D01*
X12927762Y-4239284D01*
X13067634Y-4312696D01*
X13221014Y-4350500D01*
X13221015Y-4350500D01*
X13378985Y-4350500D01*
X13532365Y-4312696D01*
X13603978Y-4275110D01*
X13672240Y-4239283D01*
X13790483Y-4134530D01*
X13880220Y-4004523D01*
X13884058Y-3994400D01*
X13926236Y-3938700D01*
X13991833Y-3914642D01*
X14060023Y-3929869D01*
X14109157Y-3979544D01*
X14115942Y-3994402D01*
X14119780Y-4004524D01*
X14153748Y-4053735D01*
X14209517Y-4134530D01*
X14327760Y-4239283D01*
X14327762Y-4239284D01*
X14467634Y-4312696D01*
X14621014Y-4350500D01*
X14621015Y-4350500D01*
X14778985Y-4350500D01*
X14932365Y-4312696D01*
X15003978Y-4275110D01*
X15072240Y-4239283D01*
X15190483Y-4134530D01*
X15280220Y-4004523D01*
X15336237Y-3856818D01*
X15355278Y-3700000D01*
X15336237Y-3543182D01*
X15280220Y-3395477D01*
X15190483Y-3265470D01*
X15072240Y-3160717D01*
X15072238Y-3160716D01*
X15072237Y-3160715D01*
X14932365Y-3087303D01*
X14778986Y-3049500D01*
X14778985Y-3049500D01*
X14621015Y-3049500D01*
X14621014Y-3049500D01*
X14467634Y-3087303D01*
X14327762Y-3160715D01*
X14209516Y-3265471D01*
X14119781Y-3395475D01*
X14119779Y-3395478D01*
X14115941Y-3405599D01*
X14073763Y-3461301D01*
X14008165Y-3485357D01*
X13939975Y-3470129D01*
X13890842Y-3420453D01*
X13884059Y-3405599D01*
X13880220Y-3395478D01*
X13880220Y-3395477D01*
X13790483Y-3265470D01*
X13672240Y-3160717D01*
X13672238Y-3160716D01*
X13672237Y-3160715D01*
X13532365Y-3087303D01*
X13378986Y-3049500D01*
X13378985Y-3049500D01*
X13221015Y-3049500D01*
X13221014Y-3049500D01*
X13067634Y-3087303D01*
X12927762Y-3160715D01*
X12809516Y-3265471D01*
X12719781Y-3395475D01*
X12719779Y-3395478D01*
X12715941Y-3405599D01*
X12673763Y-3461301D01*
X12608165Y-3485357D01*
X12539975Y-3470129D01*
X12490842Y-3420453D01*
X12484059Y-3405599D01*
X12480220Y-3395478D01*
X12480220Y-3395477D01*
X12390483Y-3265470D01*
X12272240Y-3160717D01*
X12272238Y-3160716D01*
X12272237Y-3160715D01*
X12132365Y-3087303D01*
X11978986Y-3049500D01*
X11978985Y-3049500D01*
X11821015Y-3049500D01*
X11821014Y-3049500D01*
X11667634Y-3087303D01*
X11527762Y-3160715D01*
X11409516Y-3265471D01*
X11319781Y-3395475D01*
X11319780Y-3395476D01*
X11263762Y-3543181D01*
X11244722Y-3699999D01*
X11244722Y-3700000D01*
X4987527Y-3700000D01*
X5000500Y-3618097D01*
X5000500Y-3381902D01*
X4963553Y-3148631D01*
X4929689Y-3044412D01*
X4890568Y-2924008D01*
X4890566Y-2924005D01*
X4890566Y-2924003D01*
X4814848Y-2775399D01*
X4783343Y-2713567D01*
X4644517Y-2522490D01*
X4522027Y-2400000D01*
X6644722Y-2400000D01*
X6663762Y-2556818D01*
X6704222Y-2663500D01*
X6719780Y-2704523D01*
X6809517Y-2834530D01*
X6927760Y-2939283D01*
X6927762Y-2939284D01*
X7067634Y-3012696D01*
X7221014Y-3050500D01*
X7221015Y-3050500D01*
X7378985Y-3050500D01*
X7532365Y-3012696D01*
X7672240Y-2939283D01*
X7790483Y-2834530D01*
X7880220Y-2704523D01*
X7884058Y-2694400D01*
X7926236Y-2638700D01*
X7991833Y-2614642D01*
X8060023Y-2629869D01*
X8109157Y-2679544D01*
X8115942Y-2694402D01*
X8119780Y-2704524D01*
X8158566Y-2760715D01*
X8209517Y-2834530D01*
X8327760Y-2939283D01*
X8327762Y-2939284D01*
X8467634Y-3012696D01*
X8621014Y-3050500D01*
X8621015Y-3050500D01*
X8778985Y-3050500D01*
X8932365Y-3012696D01*
X9072240Y-2939283D01*
X9190483Y-2834530D01*
X9280220Y-2704523D01*
X9336237Y-2556818D01*
X9355278Y-2400000D01*
X9344678Y-2312696D01*
X9336237Y-2243181D01*
X9305184Y-2161301D01*
X9280220Y-2095477D01*
X9190483Y-1965470D01*
X9072240Y-1860717D01*
X9072238Y-1860716D01*
X9072237Y-1860715D01*
X8932365Y-1787303D01*
X8778986Y-1749500D01*
X8778985Y-1749500D01*
X8621015Y-1749500D01*
X8621014Y-1749500D01*
X8467634Y-1787303D01*
X8327762Y-1860715D01*
X8209516Y-1965471D01*
X8119781Y-2095475D01*
X8119779Y-2095478D01*
X8115941Y-2105599D01*
X8073763Y-2161301D01*
X8008165Y-2185357D01*
X7939975Y-2170129D01*
X7890842Y-2120453D01*
X7884059Y-2105599D01*
X7880220Y-2095478D01*
X7880220Y-2095477D01*
X7790483Y-1965470D01*
X7672240Y-1860717D01*
X7672238Y-1860716D01*
X7672237Y-1860715D01*
X7532365Y-1787303D01*
X7378986Y-1749500D01*
X7378985Y-1749500D01*
X7221015Y-1749500D01*
X7221014Y-1749500D01*
X7067634Y-1787303D01*
X6927762Y-1860715D01*
X6809516Y-1965471D01*
X6719781Y-2095475D01*
X6719780Y-2095476D01*
X6663762Y-2243181D01*
X6644722Y-2399999D01*
X6644722Y-2400000D01*
X4522027Y-2400000D01*
X4477510Y-2355483D01*
X4286433Y-2216657D01*
X4075996Y-2109433D01*
X3851368Y-2036446D01*
X3618097Y-1999500D01*
X3618092Y-1999500D01*
X3381908Y-1999500D01*
X3381903Y-1999500D01*
X3148631Y-2036446D01*
X2924003Y-2109433D01*
X2713566Y-2216657D01*
X2604550Y-2295862D01*
X2522490Y-2355483D01*
X2522488Y-2355485D01*
X2522487Y-2355485D01*
X2355485Y-2522487D01*
X2355485Y-2522488D01*
X2355483Y-2522490D01*
X2303944Y-2593427D01*
X2216657Y-2713566D01*
X2109433Y-2924003D01*
X2036446Y-3148631D01*
X1999500Y-3381902D01*
X1999500Y-3618097D01*
X0Y-3618097D01*
X0Y-1700000D01*
X32344722Y-1700000D01*
X32363762Y-1856818D01*
X32417875Y-1999500D01*
X32419780Y-2004523D01*
X32509517Y-2134530D01*
X32627760Y-2239283D01*
X32627762Y-2239284D01*
X32767634Y-2312696D01*
X32921014Y-2350500D01*
X32921015Y-2350500D01*
X33078985Y-2350500D01*
X33232365Y-2312696D01*
X33372240Y-2239283D01*
X33490483Y-2134530D01*
X33580220Y-2004523D01*
X33636237Y-1856818D01*
X33655278Y-1700000D01*
X33636237Y-1543182D01*
X33580220Y-1395477D01*
X33490483Y-1265470D01*
X33372240Y-1160717D01*
X33372238Y-1160716D01*
X33372237Y-1160715D01*
X33232365Y-1087303D01*
X33078986Y-1049500D01*
X33078985Y-1049500D01*
X32921015Y-1049500D01*
X32921014Y-1049500D01*
X32767634Y-1087303D01*
X32627762Y-1160715D01*
X32509516Y-1265471D01*
X32419781Y-1395475D01*
X32419780Y-1395476D01*
X32363762Y-1543181D01*
X32344722Y-1699999D01*
X32344722Y-1700000D01*
X0Y-1700000D01*
X0Y-124000D01*
X19685Y-56961D01*
X72489Y-11206D01*
X124000Y0D01*
X39876000Y0D01*
X39943039Y-19685D01*
G37*
G04 #@! TD.AperFunction*
M02*
