%TF.GenerationSoftware,KiCad,Pcbnew,(7.0.0)*%
%TF.CreationDate,2024-02-01T10:08:02+02:00*%
%TF.ProjectId,FancyLight-V2,46616e63-794c-4696-9768-742d56322e6b,rev?*%
%TF.SameCoordinates,Original*%
%TF.FileFunction,Drillmap*%
%TF.FilePolarity,Positive*%
%FSLAX45Y45*%
G04 Gerber Fmt 4.5, Leading zero omitted, Abs format (unit mm)*
G04 Created by KiCad (PCBNEW (7.0.0)) date 2024-02-01 10:08:02*
%MOMM*%
%LPD*%
G01*
G04 APERTURE LIST*
%ADD10C,0.100000*%
%ADD11C,0.200000*%
%ADD12C,0.040000*%
%ADD13C,0.065000*%
%ADD14C,0.070000*%
G04 APERTURE END LIST*
D10*
X0Y0D02*
X4000000Y0D01*
X4000000Y0D02*
X4000000Y-4000000D01*
X4000000Y-4000000D02*
X0Y-4000000D01*
X0Y-4000000D02*
X0Y0D01*
D11*
D12*
X140000Y-850000D02*
X180000Y-890000D01*
X180000Y-850000D02*
X140000Y-890000D01*
X240000Y-1430000D02*
X280000Y-1470000D01*
X280000Y-1430000D02*
X240000Y-1470000D01*
X330000Y-680000D02*
X370000Y-720000D01*
X370000Y-680000D02*
X330000Y-720000D01*
X420000Y-1290000D02*
X460000Y-1330000D01*
X460000Y-1290000D02*
X420000Y-1330000D01*
X637500Y-852500D02*
X677500Y-892500D01*
X677500Y-852500D02*
X637500Y-892500D01*
X690000Y-1030000D02*
X730000Y-1070000D01*
X730000Y-1030000D02*
X690000Y-1070000D01*
X715000Y-925000D02*
X755000Y-965000D01*
X755000Y-925000D02*
X715000Y-965000D01*
X800000Y-1420000D02*
X840000Y-1460000D01*
X840000Y-1420000D02*
X800000Y-1460000D01*
X822500Y-622500D02*
X862500Y-662500D01*
X862500Y-622500D02*
X822500Y-662500D01*
X870000Y-1600000D02*
X910000Y-1640000D01*
X910000Y-1600000D02*
X870000Y-1640000D01*
X990000Y-620000D02*
X1030000Y-660000D01*
X1030000Y-620000D02*
X990000Y-660000D01*
X992500Y-792500D02*
X1032500Y-832500D01*
X1032500Y-792500D02*
X992500Y-832500D01*
X1080000Y-410000D02*
X1120000Y-450000D01*
X1120000Y-410000D02*
X1080000Y-450000D01*
X1120000Y-990000D02*
X1160000Y-1030000D01*
X1160000Y-990000D02*
X1120000Y-1030000D01*
X1120000Y-1990000D02*
X1160000Y-2030000D01*
X1160000Y-1990000D02*
X1120000Y-2030000D01*
X1130000Y-1170000D02*
X1170000Y-1210000D01*
X1170000Y-1170000D02*
X1130000Y-1210000D01*
X1200000Y-1880000D02*
X1240000Y-1920000D01*
X1240000Y-1880000D02*
X1200000Y-1920000D01*
X1210000Y-2250000D02*
X1250000Y-2290000D01*
X1250000Y-2250000D02*
X1210000Y-2290000D01*
X1285000Y-895000D02*
X1325000Y-935000D01*
X1325000Y-895000D02*
X1285000Y-935000D01*
X1326265Y-1076265D02*
X1366265Y-1116265D01*
X1366265Y-1076265D02*
X1326265Y-1116265D01*
X1430000Y-440000D02*
X1470000Y-480000D01*
X1470000Y-440000D02*
X1430000Y-480000D01*
X1460000Y-950000D02*
X1500000Y-990000D01*
X1500000Y-950000D02*
X1460000Y-990000D01*
X1500000Y-1880000D02*
X1540000Y-1920000D01*
X1540000Y-1880000D02*
X1500000Y-1920000D01*
X1630000Y-1880000D02*
X1670000Y-1920000D01*
X1670000Y-1880000D02*
X1630000Y-1920000D01*
X1760000Y-2320000D02*
X1800000Y-2360000D01*
X1800000Y-2320000D02*
X1760000Y-2360000D01*
X1930000Y-1500000D02*
X1970000Y-1540000D01*
X1970000Y-1500000D02*
X1930000Y-1540000D01*
X1960000Y-1880000D02*
X2000000Y-1920000D01*
X2000000Y-1880000D02*
X1960000Y-1920000D01*
X2170000Y-1500000D02*
X2210000Y-1540000D01*
X2210000Y-1500000D02*
X2170000Y-1540000D01*
X2170000Y-3310000D02*
X2210000Y-3350000D01*
X2210000Y-3310000D02*
X2170000Y-3350000D01*
X2200000Y-730000D02*
X2240000Y-770000D01*
X2240000Y-730000D02*
X2200000Y-770000D01*
X2200000Y-1040000D02*
X2240000Y-1080000D01*
X2240000Y-1040000D02*
X2200000Y-1080000D01*
X2250000Y-2290000D02*
X2290000Y-2330000D01*
X2290000Y-2290000D02*
X2250000Y-2330000D01*
X2280000Y-2690000D02*
X2320000Y-2730000D01*
X2320000Y-2690000D02*
X2280000Y-2730000D01*
X2500000Y-1650000D02*
X2540000Y-1690000D01*
X2540000Y-1650000D02*
X2500000Y-1690000D01*
X2830000Y-1080000D02*
X2870000Y-1120000D01*
X2870000Y-1080000D02*
X2830000Y-1120000D01*
X2850000Y-1670000D02*
X2890000Y-1710000D01*
X2890000Y-1670000D02*
X2850000Y-1710000D01*
X2850000Y-1810000D02*
X2890000Y-1850000D01*
X2890000Y-1810000D02*
X2850000Y-1850000D01*
X2850000Y-1950000D02*
X2890000Y-1990000D01*
X2890000Y-1950000D02*
X2850000Y-1990000D01*
X2850000Y-2090000D02*
X2890000Y-2130000D01*
X2890000Y-2090000D02*
X2850000Y-2130000D01*
X3010000Y-1670000D02*
X3050000Y-1710000D01*
X3050000Y-1670000D02*
X3010000Y-1710000D01*
X3010000Y-1810000D02*
X3050000Y-1850000D01*
X3050000Y-1810000D02*
X3010000Y-1850000D01*
X3010000Y-1950000D02*
X3050000Y-1990000D01*
X3050000Y-1950000D02*
X3010000Y-1990000D01*
X3010000Y-2090000D02*
X3050000Y-2130000D01*
X3050000Y-2090000D02*
X3010000Y-2130000D01*
D13*
X1777500Y-348000D02*
G75*
G03*
X1777500Y-348000I-32500J0D01*
G01*
X1777500Y-475000D02*
G75*
G03*
X1777500Y-475000I-32500J0D01*
G01*
X1777500Y-602000D02*
G75*
G03*
X1777500Y-602000I-32500J0D01*
G01*
X2107500Y-348000D02*
G75*
G03*
X2107500Y-348000I-32500J0D01*
G01*
X2107500Y-475000D02*
G75*
G03*
X2107500Y-475000I-32500J0D01*
G01*
X2107500Y-602000D02*
G75*
G03*
X2107500Y-602000I-32500J0D01*
G01*
X2442500Y-350000D02*
G75*
G03*
X2442500Y-350000I-32500J0D01*
G01*
X2442500Y-477000D02*
G75*
G03*
X2442500Y-477000I-32500J0D01*
G01*
X3232500Y-3233000D02*
G75*
G03*
X3232500Y-3233000I-32500J0D01*
G01*
X3232500Y-3360000D02*
G75*
G03*
X3232500Y-3360000I-32500J0D01*
G01*
X3232500Y-3620000D02*
G75*
G03*
X3232500Y-3620000I-32500J0D01*
G01*
X3232500Y-3747000D02*
G75*
G03*
X3232500Y-3747000I-32500J0D01*
G01*
D14*
X1568000Y-3421200D02*
X1568000Y-3491200D01*
X1533000Y-3456200D02*
X1603000Y-3456200D01*
D11*
X1533000Y-3416200D02*
X1533000Y-3496200D01*
X1533000Y-3496200D02*
G75*
G03*
X1603000Y-3496200I35000J0D01*
G01*
X1603000Y-3496200D02*
X1603000Y-3416200D01*
X1603000Y-3416200D02*
G75*
G03*
X1533000Y-3416200I-35000J0D01*
G01*
D14*
X1568000Y-3801300D02*
X1568000Y-3871300D01*
X1533000Y-3836300D02*
X1603000Y-3836300D01*
D11*
X1533000Y-3796300D02*
X1533000Y-3876300D01*
X1533000Y-3876300D02*
G75*
G03*
X1603000Y-3876300I35000J0D01*
G01*
X1603000Y-3876300D02*
X1603000Y-3796300D01*
X1603000Y-3796300D02*
G75*
G03*
X1533000Y-3796300I-35000J0D01*
G01*
D14*
X2432000Y-3421200D02*
X2432000Y-3491200D01*
X2397000Y-3456200D02*
X2467000Y-3456200D01*
D11*
X2397000Y-3416200D02*
X2397000Y-3496200D01*
X2397000Y-3496200D02*
G75*
G03*
X2467000Y-3496200I35000J0D01*
G01*
X2467000Y-3496200D02*
X2467000Y-3416200D01*
X2467000Y-3416200D02*
G75*
G03*
X2397000Y-3416200I-35000J0D01*
G01*
D14*
X2432000Y-3801300D02*
X2432000Y-3871300D01*
X2397000Y-3836300D02*
X2467000Y-3836300D01*
D11*
X2397000Y-3796300D02*
X2397000Y-3876300D01*
X2397000Y-3876300D02*
G75*
G03*
X2467000Y-3876300I35000J0D01*
G01*
X2467000Y-3876300D02*
X2467000Y-3796300D01*
X2467000Y-3796300D02*
G75*
G03*
X2397000Y-3796300I-35000J0D01*
G01*
D10*
X257356Y-1847856D02*
X257356Y-1777144D01*
X186644Y-1777144D01*
X186644Y-1847856D01*
X257356Y-1847856D01*
X257356Y-2101856D02*
X257356Y-2031144D01*
X186644Y-2031144D01*
X186644Y-2101856D01*
X257356Y-2101856D01*
X386356Y-2727856D02*
X386356Y-2657144D01*
X315644Y-2657144D01*
X315644Y-2727856D01*
X386356Y-2727856D01*
X386356Y-2981856D02*
X386356Y-2911144D01*
X315644Y-2911144D01*
X315644Y-2981856D01*
X386356Y-2981856D01*
X511356Y-1847856D02*
X511356Y-1777144D01*
X440644Y-1777144D01*
X440644Y-1847856D01*
X511356Y-1847856D01*
X511356Y-2101856D02*
X511356Y-2031144D01*
X440644Y-2031144D01*
X440644Y-2101856D01*
X511356Y-2101856D01*
X640356Y-2727856D02*
X640356Y-2657144D01*
X569644Y-2657144D01*
X569644Y-2727856D01*
X640356Y-2727856D01*
X640356Y-2981856D02*
X640356Y-2911144D01*
X569644Y-2911144D01*
X569644Y-2981856D01*
X640356Y-2981856D01*
X765356Y-1847856D02*
X765356Y-1777144D01*
X694644Y-1777144D01*
X694644Y-1847856D01*
X765356Y-1847856D01*
X765356Y-2101856D02*
X765356Y-2031144D01*
X694644Y-2031144D01*
X694644Y-2101856D01*
X765356Y-2101856D01*
D11*
X242619Y-4298476D02*
X242619Y-4098476D01*
X242619Y-4098476D02*
X290238Y-4098476D01*
X290238Y-4098476D02*
X318810Y-4108000D01*
X318810Y-4108000D02*
X337857Y-4127048D01*
X337857Y-4127048D02*
X347381Y-4146095D01*
X347381Y-4146095D02*
X356905Y-4184190D01*
X356905Y-4184190D02*
X356905Y-4212762D01*
X356905Y-4212762D02*
X347381Y-4250857D01*
X347381Y-4250857D02*
X337857Y-4269905D01*
X337857Y-4269905D02*
X318810Y-4288952D01*
X318810Y-4288952D02*
X290238Y-4298476D01*
X290238Y-4298476D02*
X242619Y-4298476D01*
X442619Y-4298476D02*
X442619Y-4165143D01*
X442619Y-4203238D02*
X452143Y-4184190D01*
X452143Y-4184190D02*
X461667Y-4174667D01*
X461667Y-4174667D02*
X480714Y-4165143D01*
X480714Y-4165143D02*
X499762Y-4165143D01*
X566429Y-4298476D02*
X566429Y-4165143D01*
X566429Y-4098476D02*
X556905Y-4108000D01*
X556905Y-4108000D02*
X566429Y-4117524D01*
X566429Y-4117524D02*
X575952Y-4108000D01*
X575952Y-4108000D02*
X566429Y-4098476D01*
X566429Y-4098476D02*
X566429Y-4117524D01*
X690238Y-4298476D02*
X671190Y-4288952D01*
X671190Y-4288952D02*
X661667Y-4269905D01*
X661667Y-4269905D02*
X661667Y-4098476D01*
X795000Y-4298476D02*
X775952Y-4288952D01*
X775952Y-4288952D02*
X766428Y-4269905D01*
X766428Y-4269905D02*
X766428Y-4098476D01*
X991190Y-4298476D02*
X991190Y-4098476D01*
X991190Y-4098476D02*
X1057857Y-4241333D01*
X1057857Y-4241333D02*
X1124524Y-4098476D01*
X1124524Y-4098476D02*
X1124524Y-4298476D01*
X1305476Y-4298476D02*
X1305476Y-4193714D01*
X1305476Y-4193714D02*
X1295952Y-4174667D01*
X1295952Y-4174667D02*
X1276905Y-4165143D01*
X1276905Y-4165143D02*
X1238809Y-4165143D01*
X1238809Y-4165143D02*
X1219762Y-4174667D01*
X1305476Y-4288952D02*
X1286429Y-4298476D01*
X1286429Y-4298476D02*
X1238809Y-4298476D01*
X1238809Y-4298476D02*
X1219762Y-4288952D01*
X1219762Y-4288952D02*
X1210238Y-4269905D01*
X1210238Y-4269905D02*
X1210238Y-4250857D01*
X1210238Y-4250857D02*
X1219762Y-4231810D01*
X1219762Y-4231810D02*
X1238809Y-4222286D01*
X1238809Y-4222286D02*
X1286429Y-4222286D01*
X1286429Y-4222286D02*
X1305476Y-4212762D01*
X1400714Y-4165143D02*
X1400714Y-4365143D01*
X1400714Y-4174667D02*
X1419762Y-4165143D01*
X1419762Y-4165143D02*
X1457857Y-4165143D01*
X1457857Y-4165143D02*
X1476905Y-4174667D01*
X1476905Y-4174667D02*
X1486428Y-4184190D01*
X1486428Y-4184190D02*
X1495952Y-4203238D01*
X1495952Y-4203238D02*
X1495952Y-4260381D01*
X1495952Y-4260381D02*
X1486428Y-4279429D01*
X1486428Y-4279429D02*
X1476905Y-4288952D01*
X1476905Y-4288952D02*
X1457857Y-4298476D01*
X1457857Y-4298476D02*
X1419762Y-4298476D01*
X1419762Y-4298476D02*
X1400714Y-4288952D01*
X1581667Y-4279429D02*
X1591190Y-4288952D01*
X1591190Y-4288952D02*
X1581667Y-4298476D01*
X1581667Y-4298476D02*
X1572143Y-4288952D01*
X1572143Y-4288952D02*
X1581667Y-4279429D01*
X1581667Y-4279429D02*
X1581667Y-4298476D01*
X1581667Y-4174667D02*
X1591190Y-4184190D01*
X1591190Y-4184190D02*
X1581667Y-4193714D01*
X1581667Y-4193714D02*
X1572143Y-4184190D01*
X1572143Y-4184190D02*
X1581667Y-4174667D01*
X1581667Y-4174667D02*
X1581667Y-4193714D01*
D12*
X-45000Y-4625000D02*
X-5000Y-4665000D01*
X-5000Y-4625000D02*
X-45000Y-4665000D01*
D11*
X280714Y-4518476D02*
X299762Y-4518476D01*
X299762Y-4518476D02*
X318810Y-4528000D01*
X318810Y-4528000D02*
X328333Y-4537524D01*
X328333Y-4537524D02*
X337857Y-4556571D01*
X337857Y-4556571D02*
X347381Y-4594667D01*
X347381Y-4594667D02*
X347381Y-4642286D01*
X347381Y-4642286D02*
X337857Y-4680381D01*
X337857Y-4680381D02*
X328333Y-4699429D01*
X328333Y-4699429D02*
X318810Y-4708952D01*
X318810Y-4708952D02*
X299762Y-4718476D01*
X299762Y-4718476D02*
X280714Y-4718476D01*
X280714Y-4718476D02*
X261667Y-4708952D01*
X261667Y-4708952D02*
X252143Y-4699429D01*
X252143Y-4699429D02*
X242619Y-4680381D01*
X242619Y-4680381D02*
X233095Y-4642286D01*
X233095Y-4642286D02*
X233095Y-4594667D01*
X233095Y-4594667D02*
X242619Y-4556571D01*
X242619Y-4556571D02*
X252143Y-4537524D01*
X252143Y-4537524D02*
X261667Y-4528000D01*
X261667Y-4528000D02*
X280714Y-4518476D01*
X433095Y-4699429D02*
X442619Y-4708952D01*
X442619Y-4708952D02*
X433095Y-4718476D01*
X433095Y-4718476D02*
X423571Y-4708952D01*
X423571Y-4708952D02*
X433095Y-4699429D01*
X433095Y-4699429D02*
X433095Y-4718476D01*
X614048Y-4585143D02*
X614048Y-4718476D01*
X566429Y-4508952D02*
X518809Y-4651810D01*
X518809Y-4651810D02*
X642619Y-4651810D01*
X756905Y-4518476D02*
X775952Y-4518476D01*
X775952Y-4518476D02*
X795000Y-4528000D01*
X795000Y-4528000D02*
X804524Y-4537524D01*
X804524Y-4537524D02*
X814048Y-4556571D01*
X814048Y-4556571D02*
X823571Y-4594667D01*
X823571Y-4594667D02*
X823571Y-4642286D01*
X823571Y-4642286D02*
X814048Y-4680381D01*
X814048Y-4680381D02*
X804524Y-4699429D01*
X804524Y-4699429D02*
X795000Y-4708952D01*
X795000Y-4708952D02*
X775952Y-4718476D01*
X775952Y-4718476D02*
X756905Y-4718476D01*
X756905Y-4718476D02*
X737857Y-4708952D01*
X737857Y-4708952D02*
X728333Y-4699429D01*
X728333Y-4699429D02*
X718809Y-4680381D01*
X718809Y-4680381D02*
X709286Y-4642286D01*
X709286Y-4642286D02*
X709286Y-4594667D01*
X709286Y-4594667D02*
X718809Y-4556571D01*
X718809Y-4556571D02*
X728333Y-4537524D01*
X728333Y-4537524D02*
X737857Y-4528000D01*
X737857Y-4528000D02*
X756905Y-4518476D01*
X947381Y-4518476D02*
X966429Y-4518476D01*
X966429Y-4518476D02*
X985476Y-4528000D01*
X985476Y-4528000D02*
X995000Y-4537524D01*
X995000Y-4537524D02*
X1004524Y-4556571D01*
X1004524Y-4556571D02*
X1014048Y-4594667D01*
X1014048Y-4594667D02*
X1014048Y-4642286D01*
X1014048Y-4642286D02*
X1004524Y-4680381D01*
X1004524Y-4680381D02*
X995000Y-4699429D01*
X995000Y-4699429D02*
X985476Y-4708952D01*
X985476Y-4708952D02*
X966429Y-4718476D01*
X966429Y-4718476D02*
X947381Y-4718476D01*
X947381Y-4718476D02*
X928333Y-4708952D01*
X928333Y-4708952D02*
X918809Y-4699429D01*
X918809Y-4699429D02*
X909286Y-4680381D01*
X909286Y-4680381D02*
X899762Y-4642286D01*
X899762Y-4642286D02*
X899762Y-4594667D01*
X899762Y-4594667D02*
X909286Y-4556571D01*
X909286Y-4556571D02*
X918809Y-4537524D01*
X918809Y-4537524D02*
X928333Y-4528000D01*
X928333Y-4528000D02*
X947381Y-4518476D01*
X1099762Y-4718476D02*
X1099762Y-4585143D01*
X1099762Y-4604190D02*
X1109286Y-4594667D01*
X1109286Y-4594667D02*
X1128333Y-4585143D01*
X1128333Y-4585143D02*
X1156905Y-4585143D01*
X1156905Y-4585143D02*
X1175952Y-4594667D01*
X1175952Y-4594667D02*
X1185476Y-4613714D01*
X1185476Y-4613714D02*
X1185476Y-4718476D01*
X1185476Y-4613714D02*
X1195000Y-4594667D01*
X1195000Y-4594667D02*
X1214048Y-4585143D01*
X1214048Y-4585143D02*
X1242619Y-4585143D01*
X1242619Y-4585143D02*
X1261667Y-4594667D01*
X1261667Y-4594667D02*
X1271191Y-4613714D01*
X1271191Y-4613714D02*
X1271191Y-4718476D01*
X1366429Y-4718476D02*
X1366429Y-4585143D01*
X1366429Y-4604190D02*
X1375952Y-4594667D01*
X1375952Y-4594667D02*
X1395000Y-4585143D01*
X1395000Y-4585143D02*
X1423571Y-4585143D01*
X1423571Y-4585143D02*
X1442619Y-4594667D01*
X1442619Y-4594667D02*
X1452143Y-4613714D01*
X1452143Y-4613714D02*
X1452143Y-4718476D01*
X1452143Y-4613714D02*
X1461667Y-4594667D01*
X1461667Y-4594667D02*
X1480714Y-4585143D01*
X1480714Y-4585143D02*
X1509286Y-4585143D01*
X1509286Y-4585143D02*
X1528333Y-4594667D01*
X1528333Y-4594667D02*
X1537857Y-4613714D01*
X1537857Y-4613714D02*
X1537857Y-4718476D01*
X1895952Y-4508952D02*
X1724524Y-4766095D01*
X2120714Y-4518476D02*
X2139762Y-4518476D01*
X2139762Y-4518476D02*
X2158810Y-4528000D01*
X2158810Y-4528000D02*
X2168333Y-4537524D01*
X2168333Y-4537524D02*
X2177857Y-4556571D01*
X2177857Y-4556571D02*
X2187381Y-4594667D01*
X2187381Y-4594667D02*
X2187381Y-4642286D01*
X2187381Y-4642286D02*
X2177857Y-4680381D01*
X2177857Y-4680381D02*
X2168333Y-4699429D01*
X2168333Y-4699429D02*
X2158810Y-4708952D01*
X2158810Y-4708952D02*
X2139762Y-4718476D01*
X2139762Y-4718476D02*
X2120714Y-4718476D01*
X2120714Y-4718476D02*
X2101667Y-4708952D01*
X2101667Y-4708952D02*
X2092143Y-4699429D01*
X2092143Y-4699429D02*
X2082619Y-4680381D01*
X2082619Y-4680381D02*
X2073095Y-4642286D01*
X2073095Y-4642286D02*
X2073095Y-4594667D01*
X2073095Y-4594667D02*
X2082619Y-4556571D01*
X2082619Y-4556571D02*
X2092143Y-4537524D01*
X2092143Y-4537524D02*
X2101667Y-4528000D01*
X2101667Y-4528000D02*
X2120714Y-4518476D01*
X2273095Y-4699429D02*
X2282619Y-4708952D01*
X2282619Y-4708952D02*
X2273095Y-4718476D01*
X2273095Y-4718476D02*
X2263572Y-4708952D01*
X2263572Y-4708952D02*
X2273095Y-4699429D01*
X2273095Y-4699429D02*
X2273095Y-4718476D01*
X2406429Y-4518476D02*
X2425476Y-4518476D01*
X2425476Y-4518476D02*
X2444524Y-4528000D01*
X2444524Y-4528000D02*
X2454048Y-4537524D01*
X2454048Y-4537524D02*
X2463572Y-4556571D01*
X2463572Y-4556571D02*
X2473095Y-4594667D01*
X2473095Y-4594667D02*
X2473095Y-4642286D01*
X2473095Y-4642286D02*
X2463572Y-4680381D01*
X2463572Y-4680381D02*
X2454048Y-4699429D01*
X2454048Y-4699429D02*
X2444524Y-4708952D01*
X2444524Y-4708952D02*
X2425476Y-4718476D01*
X2425476Y-4718476D02*
X2406429Y-4718476D01*
X2406429Y-4718476D02*
X2387381Y-4708952D01*
X2387381Y-4708952D02*
X2377857Y-4699429D01*
X2377857Y-4699429D02*
X2368333Y-4680381D01*
X2368333Y-4680381D02*
X2358810Y-4642286D01*
X2358810Y-4642286D02*
X2358810Y-4594667D01*
X2358810Y-4594667D02*
X2368333Y-4556571D01*
X2368333Y-4556571D02*
X2377857Y-4537524D01*
X2377857Y-4537524D02*
X2387381Y-4528000D01*
X2387381Y-4528000D02*
X2406429Y-4518476D01*
X2663572Y-4718476D02*
X2549286Y-4718476D01*
X2606429Y-4718476D02*
X2606429Y-4518476D01*
X2606429Y-4518476D02*
X2587381Y-4547048D01*
X2587381Y-4547048D02*
X2568333Y-4566095D01*
X2568333Y-4566095D02*
X2549286Y-4575619D01*
X2844524Y-4518476D02*
X2749286Y-4518476D01*
X2749286Y-4518476D02*
X2739762Y-4613714D01*
X2739762Y-4613714D02*
X2749286Y-4604190D01*
X2749286Y-4604190D02*
X2768333Y-4594667D01*
X2768333Y-4594667D02*
X2815952Y-4594667D01*
X2815952Y-4594667D02*
X2835000Y-4604190D01*
X2835000Y-4604190D02*
X2844524Y-4613714D01*
X2844524Y-4613714D02*
X2854048Y-4632762D01*
X2854048Y-4632762D02*
X2854048Y-4680381D01*
X2854048Y-4680381D02*
X2844524Y-4699429D01*
X2844524Y-4699429D02*
X2835000Y-4708952D01*
X2835000Y-4708952D02*
X2815952Y-4718476D01*
X2815952Y-4718476D02*
X2768333Y-4718476D01*
X2768333Y-4718476D02*
X2749286Y-4708952D01*
X2749286Y-4708952D02*
X2739762Y-4699429D01*
X2920714Y-4518476D02*
X3054048Y-4518476D01*
X3054048Y-4518476D02*
X2968333Y-4718476D01*
X3120714Y-4518476D02*
X3120714Y-4556571D01*
X3196905Y-4518476D02*
X3196905Y-4556571D01*
X3459762Y-4794667D02*
X3450238Y-4785143D01*
X3450238Y-4785143D02*
X3431191Y-4756571D01*
X3431191Y-4756571D02*
X3421667Y-4737524D01*
X3421667Y-4737524D02*
X3412143Y-4708952D01*
X3412143Y-4708952D02*
X3402619Y-4661333D01*
X3402619Y-4661333D02*
X3402619Y-4623238D01*
X3402619Y-4623238D02*
X3412143Y-4575619D01*
X3412143Y-4575619D02*
X3421667Y-4547048D01*
X3421667Y-4547048D02*
X3431191Y-4528000D01*
X3431191Y-4528000D02*
X3450238Y-4499429D01*
X3450238Y-4499429D02*
X3459762Y-4489905D01*
X3621667Y-4585143D02*
X3621667Y-4718476D01*
X3574048Y-4508952D02*
X3526429Y-4651810D01*
X3526429Y-4651810D02*
X3650238Y-4651810D01*
X3707381Y-4518476D02*
X3831191Y-4518476D01*
X3831191Y-4518476D02*
X3764524Y-4594667D01*
X3764524Y-4594667D02*
X3793095Y-4594667D01*
X3793095Y-4594667D02*
X3812143Y-4604190D01*
X3812143Y-4604190D02*
X3821667Y-4613714D01*
X3821667Y-4613714D02*
X3831191Y-4632762D01*
X3831191Y-4632762D02*
X3831191Y-4680381D01*
X3831191Y-4680381D02*
X3821667Y-4699429D01*
X3821667Y-4699429D02*
X3812143Y-4708952D01*
X3812143Y-4708952D02*
X3793095Y-4718476D01*
X3793095Y-4718476D02*
X3735952Y-4718476D01*
X3735952Y-4718476D02*
X3716905Y-4708952D01*
X3716905Y-4708952D02*
X3707381Y-4699429D01*
X4036905Y-4718476D02*
X4036905Y-4518476D01*
X4122619Y-4718476D02*
X4122619Y-4613714D01*
X4122619Y-4613714D02*
X4113095Y-4594667D01*
X4113095Y-4594667D02*
X4094048Y-4585143D01*
X4094048Y-4585143D02*
X4065476Y-4585143D01*
X4065476Y-4585143D02*
X4046429Y-4594667D01*
X4046429Y-4594667D02*
X4036905Y-4604190D01*
X4246429Y-4718476D02*
X4227381Y-4708952D01*
X4227381Y-4708952D02*
X4217857Y-4699429D01*
X4217857Y-4699429D02*
X4208334Y-4680381D01*
X4208334Y-4680381D02*
X4208334Y-4623238D01*
X4208334Y-4623238D02*
X4217857Y-4604190D01*
X4217857Y-4604190D02*
X4227381Y-4594667D01*
X4227381Y-4594667D02*
X4246429Y-4585143D01*
X4246429Y-4585143D02*
X4275000Y-4585143D01*
X4275000Y-4585143D02*
X4294048Y-4594667D01*
X4294048Y-4594667D02*
X4303572Y-4604190D01*
X4303572Y-4604190D02*
X4313095Y-4623238D01*
X4313095Y-4623238D02*
X4313095Y-4680381D01*
X4313095Y-4680381D02*
X4303572Y-4699429D01*
X4303572Y-4699429D02*
X4294048Y-4708952D01*
X4294048Y-4708952D02*
X4275000Y-4718476D01*
X4275000Y-4718476D02*
X4246429Y-4718476D01*
X4427381Y-4718476D02*
X4408334Y-4708952D01*
X4408334Y-4708952D02*
X4398810Y-4689905D01*
X4398810Y-4689905D02*
X4398810Y-4518476D01*
X4579762Y-4708952D02*
X4560715Y-4718476D01*
X4560715Y-4718476D02*
X4522619Y-4718476D01*
X4522619Y-4718476D02*
X4503572Y-4708952D01*
X4503572Y-4708952D02*
X4494048Y-4689905D01*
X4494048Y-4689905D02*
X4494048Y-4613714D01*
X4494048Y-4613714D02*
X4503572Y-4594667D01*
X4503572Y-4594667D02*
X4522619Y-4585143D01*
X4522619Y-4585143D02*
X4560715Y-4585143D01*
X4560715Y-4585143D02*
X4579762Y-4594667D01*
X4579762Y-4594667D02*
X4589286Y-4613714D01*
X4589286Y-4613714D02*
X4589286Y-4632762D01*
X4589286Y-4632762D02*
X4494048Y-4651810D01*
X4665476Y-4708952D02*
X4684524Y-4718476D01*
X4684524Y-4718476D02*
X4722619Y-4718476D01*
X4722619Y-4718476D02*
X4741667Y-4708952D01*
X4741667Y-4708952D02*
X4751191Y-4689905D01*
X4751191Y-4689905D02*
X4751191Y-4680381D01*
X4751191Y-4680381D02*
X4741667Y-4661333D01*
X4741667Y-4661333D02*
X4722619Y-4651810D01*
X4722619Y-4651810D02*
X4694048Y-4651810D01*
X4694048Y-4651810D02*
X4675000Y-4642286D01*
X4675000Y-4642286D02*
X4665476Y-4623238D01*
X4665476Y-4623238D02*
X4665476Y-4613714D01*
X4665476Y-4613714D02*
X4675000Y-4594667D01*
X4675000Y-4594667D02*
X4694048Y-4585143D01*
X4694048Y-4585143D02*
X4722619Y-4585143D01*
X4722619Y-4585143D02*
X4741667Y-4594667D01*
X4817857Y-4794667D02*
X4827381Y-4785143D01*
X4827381Y-4785143D02*
X4846429Y-4756571D01*
X4846429Y-4756571D02*
X4855953Y-4737524D01*
X4855953Y-4737524D02*
X4865476Y-4708952D01*
X4865476Y-4708952D02*
X4875000Y-4661333D01*
X4875000Y-4661333D02*
X4875000Y-4623238D01*
X4875000Y-4623238D02*
X4865476Y-4575619D01*
X4865476Y-4575619D02*
X4855953Y-4547048D01*
X4855953Y-4547048D02*
X4846429Y-4528000D01*
X4846429Y-4528000D02*
X4827381Y-4499429D01*
X4827381Y-4499429D02*
X4817857Y-4489905D01*
D13*
X-5000Y-4909000D02*
G75*
G03*
X-5000Y-4909000I-32500J0D01*
G01*
D11*
X280714Y-4782476D02*
X299762Y-4782476D01*
X299762Y-4782476D02*
X318810Y-4792000D01*
X318810Y-4792000D02*
X328333Y-4801524D01*
X328333Y-4801524D02*
X337857Y-4820571D01*
X337857Y-4820571D02*
X347381Y-4858667D01*
X347381Y-4858667D02*
X347381Y-4906286D01*
X347381Y-4906286D02*
X337857Y-4944381D01*
X337857Y-4944381D02*
X328333Y-4963429D01*
X328333Y-4963429D02*
X318810Y-4972952D01*
X318810Y-4972952D02*
X299762Y-4982476D01*
X299762Y-4982476D02*
X280714Y-4982476D01*
X280714Y-4982476D02*
X261667Y-4972952D01*
X261667Y-4972952D02*
X252143Y-4963429D01*
X252143Y-4963429D02*
X242619Y-4944381D01*
X242619Y-4944381D02*
X233095Y-4906286D01*
X233095Y-4906286D02*
X233095Y-4858667D01*
X233095Y-4858667D02*
X242619Y-4820571D01*
X242619Y-4820571D02*
X252143Y-4801524D01*
X252143Y-4801524D02*
X261667Y-4792000D01*
X261667Y-4792000D02*
X280714Y-4782476D01*
X433095Y-4963429D02*
X442619Y-4972952D01*
X442619Y-4972952D02*
X433095Y-4982476D01*
X433095Y-4982476D02*
X423571Y-4972952D01*
X423571Y-4972952D02*
X433095Y-4963429D01*
X433095Y-4963429D02*
X433095Y-4982476D01*
X614048Y-4782476D02*
X575952Y-4782476D01*
X575952Y-4782476D02*
X556905Y-4792000D01*
X556905Y-4792000D02*
X547381Y-4801524D01*
X547381Y-4801524D02*
X528333Y-4830095D01*
X528333Y-4830095D02*
X518809Y-4868190D01*
X518809Y-4868190D02*
X518809Y-4944381D01*
X518809Y-4944381D02*
X528333Y-4963429D01*
X528333Y-4963429D02*
X537857Y-4972952D01*
X537857Y-4972952D02*
X556905Y-4982476D01*
X556905Y-4982476D02*
X595000Y-4982476D01*
X595000Y-4982476D02*
X614048Y-4972952D01*
X614048Y-4972952D02*
X623571Y-4963429D01*
X623571Y-4963429D02*
X633095Y-4944381D01*
X633095Y-4944381D02*
X633095Y-4896762D01*
X633095Y-4896762D02*
X623571Y-4877714D01*
X623571Y-4877714D02*
X614048Y-4868190D01*
X614048Y-4868190D02*
X595000Y-4858667D01*
X595000Y-4858667D02*
X556905Y-4858667D01*
X556905Y-4858667D02*
X537857Y-4868190D01*
X537857Y-4868190D02*
X528333Y-4877714D01*
X528333Y-4877714D02*
X518809Y-4896762D01*
X814048Y-4782476D02*
X718809Y-4782476D01*
X718809Y-4782476D02*
X709286Y-4877714D01*
X709286Y-4877714D02*
X718809Y-4868190D01*
X718809Y-4868190D02*
X737857Y-4858667D01*
X737857Y-4858667D02*
X785476Y-4858667D01*
X785476Y-4858667D02*
X804524Y-4868190D01*
X804524Y-4868190D02*
X814048Y-4877714D01*
X814048Y-4877714D02*
X823571Y-4896762D01*
X823571Y-4896762D02*
X823571Y-4944381D01*
X823571Y-4944381D02*
X814048Y-4963429D01*
X814048Y-4963429D02*
X804524Y-4972952D01*
X804524Y-4972952D02*
X785476Y-4982476D01*
X785476Y-4982476D02*
X737857Y-4982476D01*
X737857Y-4982476D02*
X718809Y-4972952D01*
X718809Y-4972952D02*
X709286Y-4963429D01*
X947381Y-4782476D02*
X966429Y-4782476D01*
X966429Y-4782476D02*
X985476Y-4792000D01*
X985476Y-4792000D02*
X995000Y-4801524D01*
X995000Y-4801524D02*
X1004524Y-4820571D01*
X1004524Y-4820571D02*
X1014048Y-4858667D01*
X1014048Y-4858667D02*
X1014048Y-4906286D01*
X1014048Y-4906286D02*
X1004524Y-4944381D01*
X1004524Y-4944381D02*
X995000Y-4963429D01*
X995000Y-4963429D02*
X985476Y-4972952D01*
X985476Y-4972952D02*
X966429Y-4982476D01*
X966429Y-4982476D02*
X947381Y-4982476D01*
X947381Y-4982476D02*
X928333Y-4972952D01*
X928333Y-4972952D02*
X918809Y-4963429D01*
X918809Y-4963429D02*
X909286Y-4944381D01*
X909286Y-4944381D02*
X899762Y-4906286D01*
X899762Y-4906286D02*
X899762Y-4858667D01*
X899762Y-4858667D02*
X909286Y-4820571D01*
X909286Y-4820571D02*
X918809Y-4801524D01*
X918809Y-4801524D02*
X928333Y-4792000D01*
X928333Y-4792000D02*
X947381Y-4782476D01*
X1099762Y-4982476D02*
X1099762Y-4849143D01*
X1099762Y-4868190D02*
X1109286Y-4858667D01*
X1109286Y-4858667D02*
X1128333Y-4849143D01*
X1128333Y-4849143D02*
X1156905Y-4849143D01*
X1156905Y-4849143D02*
X1175952Y-4858667D01*
X1175952Y-4858667D02*
X1185476Y-4877714D01*
X1185476Y-4877714D02*
X1185476Y-4982476D01*
X1185476Y-4877714D02*
X1195000Y-4858667D01*
X1195000Y-4858667D02*
X1214048Y-4849143D01*
X1214048Y-4849143D02*
X1242619Y-4849143D01*
X1242619Y-4849143D02*
X1261667Y-4858667D01*
X1261667Y-4858667D02*
X1271191Y-4877714D01*
X1271191Y-4877714D02*
X1271191Y-4982476D01*
X1366429Y-4982476D02*
X1366429Y-4849143D01*
X1366429Y-4868190D02*
X1375952Y-4858667D01*
X1375952Y-4858667D02*
X1395000Y-4849143D01*
X1395000Y-4849143D02*
X1423571Y-4849143D01*
X1423571Y-4849143D02*
X1442619Y-4858667D01*
X1442619Y-4858667D02*
X1452143Y-4877714D01*
X1452143Y-4877714D02*
X1452143Y-4982476D01*
X1452143Y-4877714D02*
X1461667Y-4858667D01*
X1461667Y-4858667D02*
X1480714Y-4849143D01*
X1480714Y-4849143D02*
X1509286Y-4849143D01*
X1509286Y-4849143D02*
X1528333Y-4858667D01*
X1528333Y-4858667D02*
X1537857Y-4877714D01*
X1537857Y-4877714D02*
X1537857Y-4982476D01*
X1895952Y-4772952D02*
X1724524Y-5030095D01*
X2120714Y-4782476D02*
X2139762Y-4782476D01*
X2139762Y-4782476D02*
X2158810Y-4792000D01*
X2158810Y-4792000D02*
X2168333Y-4801524D01*
X2168333Y-4801524D02*
X2177857Y-4820571D01*
X2177857Y-4820571D02*
X2187381Y-4858667D01*
X2187381Y-4858667D02*
X2187381Y-4906286D01*
X2187381Y-4906286D02*
X2177857Y-4944381D01*
X2177857Y-4944381D02*
X2168333Y-4963429D01*
X2168333Y-4963429D02*
X2158810Y-4972952D01*
X2158810Y-4972952D02*
X2139762Y-4982476D01*
X2139762Y-4982476D02*
X2120714Y-4982476D01*
X2120714Y-4982476D02*
X2101667Y-4972952D01*
X2101667Y-4972952D02*
X2092143Y-4963429D01*
X2092143Y-4963429D02*
X2082619Y-4944381D01*
X2082619Y-4944381D02*
X2073095Y-4906286D01*
X2073095Y-4906286D02*
X2073095Y-4858667D01*
X2073095Y-4858667D02*
X2082619Y-4820571D01*
X2082619Y-4820571D02*
X2092143Y-4801524D01*
X2092143Y-4801524D02*
X2101667Y-4792000D01*
X2101667Y-4792000D02*
X2120714Y-4782476D01*
X2273095Y-4963429D02*
X2282619Y-4972952D01*
X2282619Y-4972952D02*
X2273095Y-4982476D01*
X2273095Y-4982476D02*
X2263572Y-4972952D01*
X2263572Y-4972952D02*
X2273095Y-4963429D01*
X2273095Y-4963429D02*
X2273095Y-4982476D01*
X2406429Y-4782476D02*
X2425476Y-4782476D01*
X2425476Y-4782476D02*
X2444524Y-4792000D01*
X2444524Y-4792000D02*
X2454048Y-4801524D01*
X2454048Y-4801524D02*
X2463572Y-4820571D01*
X2463572Y-4820571D02*
X2473095Y-4858667D01*
X2473095Y-4858667D02*
X2473095Y-4906286D01*
X2473095Y-4906286D02*
X2463572Y-4944381D01*
X2463572Y-4944381D02*
X2454048Y-4963429D01*
X2454048Y-4963429D02*
X2444524Y-4972952D01*
X2444524Y-4972952D02*
X2425476Y-4982476D01*
X2425476Y-4982476D02*
X2406429Y-4982476D01*
X2406429Y-4982476D02*
X2387381Y-4972952D01*
X2387381Y-4972952D02*
X2377857Y-4963429D01*
X2377857Y-4963429D02*
X2368333Y-4944381D01*
X2368333Y-4944381D02*
X2358810Y-4906286D01*
X2358810Y-4906286D02*
X2358810Y-4858667D01*
X2358810Y-4858667D02*
X2368333Y-4820571D01*
X2368333Y-4820571D02*
X2377857Y-4801524D01*
X2377857Y-4801524D02*
X2387381Y-4792000D01*
X2387381Y-4792000D02*
X2406429Y-4782476D01*
X2549286Y-4801524D02*
X2558810Y-4792000D01*
X2558810Y-4792000D02*
X2577857Y-4782476D01*
X2577857Y-4782476D02*
X2625476Y-4782476D01*
X2625476Y-4782476D02*
X2644524Y-4792000D01*
X2644524Y-4792000D02*
X2654048Y-4801524D01*
X2654048Y-4801524D02*
X2663572Y-4820571D01*
X2663572Y-4820571D02*
X2663572Y-4839619D01*
X2663572Y-4839619D02*
X2654048Y-4868190D01*
X2654048Y-4868190D02*
X2539762Y-4982476D01*
X2539762Y-4982476D02*
X2663572Y-4982476D01*
X2844524Y-4782476D02*
X2749286Y-4782476D01*
X2749286Y-4782476D02*
X2739762Y-4877714D01*
X2739762Y-4877714D02*
X2749286Y-4868190D01*
X2749286Y-4868190D02*
X2768333Y-4858667D01*
X2768333Y-4858667D02*
X2815952Y-4858667D01*
X2815952Y-4858667D02*
X2835000Y-4868190D01*
X2835000Y-4868190D02*
X2844524Y-4877714D01*
X2844524Y-4877714D02*
X2854048Y-4896762D01*
X2854048Y-4896762D02*
X2854048Y-4944381D01*
X2854048Y-4944381D02*
X2844524Y-4963429D01*
X2844524Y-4963429D02*
X2835000Y-4972952D01*
X2835000Y-4972952D02*
X2815952Y-4982476D01*
X2815952Y-4982476D02*
X2768333Y-4982476D01*
X2768333Y-4982476D02*
X2749286Y-4972952D01*
X2749286Y-4972952D02*
X2739762Y-4963429D01*
X3025476Y-4782476D02*
X2987381Y-4782476D01*
X2987381Y-4782476D02*
X2968333Y-4792000D01*
X2968333Y-4792000D02*
X2958810Y-4801524D01*
X2958810Y-4801524D02*
X2939762Y-4830095D01*
X2939762Y-4830095D02*
X2930238Y-4868190D01*
X2930238Y-4868190D02*
X2930238Y-4944381D01*
X2930238Y-4944381D02*
X2939762Y-4963429D01*
X2939762Y-4963429D02*
X2949286Y-4972952D01*
X2949286Y-4972952D02*
X2968333Y-4982476D01*
X2968333Y-4982476D02*
X3006429Y-4982476D01*
X3006429Y-4982476D02*
X3025476Y-4972952D01*
X3025476Y-4972952D02*
X3035000Y-4963429D01*
X3035000Y-4963429D02*
X3044524Y-4944381D01*
X3044524Y-4944381D02*
X3044524Y-4896762D01*
X3044524Y-4896762D02*
X3035000Y-4877714D01*
X3035000Y-4877714D02*
X3025476Y-4868190D01*
X3025476Y-4868190D02*
X3006429Y-4858667D01*
X3006429Y-4858667D02*
X2968333Y-4858667D01*
X2968333Y-4858667D02*
X2949286Y-4868190D01*
X2949286Y-4868190D02*
X2939762Y-4877714D01*
X2939762Y-4877714D02*
X2930238Y-4896762D01*
X3120714Y-4782476D02*
X3120714Y-4820571D01*
X3196905Y-4782476D02*
X3196905Y-4820571D01*
X3459762Y-5058667D02*
X3450238Y-5049143D01*
X3450238Y-5049143D02*
X3431191Y-5020571D01*
X3431191Y-5020571D02*
X3421667Y-5001524D01*
X3421667Y-5001524D02*
X3412143Y-4972952D01*
X3412143Y-4972952D02*
X3402619Y-4925333D01*
X3402619Y-4925333D02*
X3402619Y-4887238D01*
X3402619Y-4887238D02*
X3412143Y-4839619D01*
X3412143Y-4839619D02*
X3421667Y-4811048D01*
X3421667Y-4811048D02*
X3431191Y-4792000D01*
X3431191Y-4792000D02*
X3450238Y-4763429D01*
X3450238Y-4763429D02*
X3459762Y-4753905D01*
X3640714Y-4982476D02*
X3526429Y-4982476D01*
X3583571Y-4982476D02*
X3583571Y-4782476D01*
X3583571Y-4782476D02*
X3564524Y-4811048D01*
X3564524Y-4811048D02*
X3545476Y-4830095D01*
X3545476Y-4830095D02*
X3526429Y-4839619D01*
X3716905Y-4801524D02*
X3726429Y-4792000D01*
X3726429Y-4792000D02*
X3745476Y-4782476D01*
X3745476Y-4782476D02*
X3793095Y-4782476D01*
X3793095Y-4782476D02*
X3812143Y-4792000D01*
X3812143Y-4792000D02*
X3821667Y-4801524D01*
X3821667Y-4801524D02*
X3831191Y-4820571D01*
X3831191Y-4820571D02*
X3831191Y-4839619D01*
X3831191Y-4839619D02*
X3821667Y-4868190D01*
X3821667Y-4868190D02*
X3707381Y-4982476D01*
X3707381Y-4982476D02*
X3831191Y-4982476D01*
X4036905Y-4982476D02*
X4036905Y-4782476D01*
X4122619Y-4982476D02*
X4122619Y-4877714D01*
X4122619Y-4877714D02*
X4113095Y-4858667D01*
X4113095Y-4858667D02*
X4094048Y-4849143D01*
X4094048Y-4849143D02*
X4065476Y-4849143D01*
X4065476Y-4849143D02*
X4046429Y-4858667D01*
X4046429Y-4858667D02*
X4036905Y-4868190D01*
X4246429Y-4982476D02*
X4227381Y-4972952D01*
X4227381Y-4972952D02*
X4217857Y-4963429D01*
X4217857Y-4963429D02*
X4208334Y-4944381D01*
X4208334Y-4944381D02*
X4208334Y-4887238D01*
X4208334Y-4887238D02*
X4217857Y-4868190D01*
X4217857Y-4868190D02*
X4227381Y-4858667D01*
X4227381Y-4858667D02*
X4246429Y-4849143D01*
X4246429Y-4849143D02*
X4275000Y-4849143D01*
X4275000Y-4849143D02*
X4294048Y-4858667D01*
X4294048Y-4858667D02*
X4303572Y-4868190D01*
X4303572Y-4868190D02*
X4313095Y-4887238D01*
X4313095Y-4887238D02*
X4313095Y-4944381D01*
X4313095Y-4944381D02*
X4303572Y-4963429D01*
X4303572Y-4963429D02*
X4294048Y-4972952D01*
X4294048Y-4972952D02*
X4275000Y-4982476D01*
X4275000Y-4982476D02*
X4246429Y-4982476D01*
X4427381Y-4982476D02*
X4408334Y-4972952D01*
X4408334Y-4972952D02*
X4398810Y-4953905D01*
X4398810Y-4953905D02*
X4398810Y-4782476D01*
X4579762Y-4972952D02*
X4560715Y-4982476D01*
X4560715Y-4982476D02*
X4522619Y-4982476D01*
X4522619Y-4982476D02*
X4503572Y-4972952D01*
X4503572Y-4972952D02*
X4494048Y-4953905D01*
X4494048Y-4953905D02*
X4494048Y-4877714D01*
X4494048Y-4877714D02*
X4503572Y-4858667D01*
X4503572Y-4858667D02*
X4522619Y-4849143D01*
X4522619Y-4849143D02*
X4560715Y-4849143D01*
X4560715Y-4849143D02*
X4579762Y-4858667D01*
X4579762Y-4858667D02*
X4589286Y-4877714D01*
X4589286Y-4877714D02*
X4589286Y-4896762D01*
X4589286Y-4896762D02*
X4494048Y-4915810D01*
X4665476Y-4972952D02*
X4684524Y-4982476D01*
X4684524Y-4982476D02*
X4722619Y-4982476D01*
X4722619Y-4982476D02*
X4741667Y-4972952D01*
X4741667Y-4972952D02*
X4751191Y-4953905D01*
X4751191Y-4953905D02*
X4751191Y-4944381D01*
X4751191Y-4944381D02*
X4741667Y-4925333D01*
X4741667Y-4925333D02*
X4722619Y-4915810D01*
X4722619Y-4915810D02*
X4694048Y-4915810D01*
X4694048Y-4915810D02*
X4675000Y-4906286D01*
X4675000Y-4906286D02*
X4665476Y-4887238D01*
X4665476Y-4887238D02*
X4665476Y-4877714D01*
X4665476Y-4877714D02*
X4675000Y-4858667D01*
X4675000Y-4858667D02*
X4694048Y-4849143D01*
X4694048Y-4849143D02*
X4722619Y-4849143D01*
X4722619Y-4849143D02*
X4741667Y-4858667D01*
X4817857Y-5058667D02*
X4827381Y-5049143D01*
X4827381Y-5049143D02*
X4846429Y-5020571D01*
X4846429Y-5020571D02*
X4855953Y-5001524D01*
X4855953Y-5001524D02*
X4865476Y-4972952D01*
X4865476Y-4972952D02*
X4875000Y-4925333D01*
X4875000Y-4925333D02*
X4875000Y-4887238D01*
X4875000Y-4887238D02*
X4865476Y-4839619D01*
X4865476Y-4839619D02*
X4855953Y-4811048D01*
X4855953Y-4811048D02*
X4846429Y-4792000D01*
X4846429Y-4792000D02*
X4827381Y-4763429D01*
X4827381Y-4763429D02*
X4817857Y-4753905D01*
D14*
X-40000Y-5138000D02*
X-40000Y-5208000D01*
X-75000Y-5173000D02*
X-5000Y-5173000D01*
D11*
X280714Y-5046476D02*
X299762Y-5046476D01*
X299762Y-5046476D02*
X318810Y-5056000D01*
X318810Y-5056000D02*
X328333Y-5065524D01*
X328333Y-5065524D02*
X337857Y-5084571D01*
X337857Y-5084571D02*
X347381Y-5122667D01*
X347381Y-5122667D02*
X347381Y-5170286D01*
X347381Y-5170286D02*
X337857Y-5208381D01*
X337857Y-5208381D02*
X328333Y-5227429D01*
X328333Y-5227429D02*
X318810Y-5236952D01*
X318810Y-5236952D02*
X299762Y-5246476D01*
X299762Y-5246476D02*
X280714Y-5246476D01*
X280714Y-5246476D02*
X261667Y-5236952D01*
X261667Y-5236952D02*
X252143Y-5227429D01*
X252143Y-5227429D02*
X242619Y-5208381D01*
X242619Y-5208381D02*
X233095Y-5170286D01*
X233095Y-5170286D02*
X233095Y-5122667D01*
X233095Y-5122667D02*
X242619Y-5084571D01*
X242619Y-5084571D02*
X252143Y-5065524D01*
X252143Y-5065524D02*
X261667Y-5056000D01*
X261667Y-5056000D02*
X280714Y-5046476D01*
X433095Y-5227429D02*
X442619Y-5236952D01*
X442619Y-5236952D02*
X433095Y-5246476D01*
X433095Y-5246476D02*
X423571Y-5236952D01*
X423571Y-5236952D02*
X433095Y-5227429D01*
X433095Y-5227429D02*
X433095Y-5246476D01*
X509286Y-5046476D02*
X642619Y-5046476D01*
X642619Y-5046476D02*
X556905Y-5246476D01*
X756905Y-5046476D02*
X775952Y-5046476D01*
X775952Y-5046476D02*
X795000Y-5056000D01*
X795000Y-5056000D02*
X804524Y-5065524D01*
X804524Y-5065524D02*
X814048Y-5084571D01*
X814048Y-5084571D02*
X823571Y-5122667D01*
X823571Y-5122667D02*
X823571Y-5170286D01*
X823571Y-5170286D02*
X814048Y-5208381D01*
X814048Y-5208381D02*
X804524Y-5227429D01*
X804524Y-5227429D02*
X795000Y-5236952D01*
X795000Y-5236952D02*
X775952Y-5246476D01*
X775952Y-5246476D02*
X756905Y-5246476D01*
X756905Y-5246476D02*
X737857Y-5236952D01*
X737857Y-5236952D02*
X728333Y-5227429D01*
X728333Y-5227429D02*
X718809Y-5208381D01*
X718809Y-5208381D02*
X709286Y-5170286D01*
X709286Y-5170286D02*
X709286Y-5122667D01*
X709286Y-5122667D02*
X718809Y-5084571D01*
X718809Y-5084571D02*
X728333Y-5065524D01*
X728333Y-5065524D02*
X737857Y-5056000D01*
X737857Y-5056000D02*
X756905Y-5046476D01*
X947381Y-5046476D02*
X966429Y-5046476D01*
X966429Y-5046476D02*
X985476Y-5056000D01*
X985476Y-5056000D02*
X995000Y-5065524D01*
X995000Y-5065524D02*
X1004524Y-5084571D01*
X1004524Y-5084571D02*
X1014048Y-5122667D01*
X1014048Y-5122667D02*
X1014048Y-5170286D01*
X1014048Y-5170286D02*
X1004524Y-5208381D01*
X1004524Y-5208381D02*
X995000Y-5227429D01*
X995000Y-5227429D02*
X985476Y-5236952D01*
X985476Y-5236952D02*
X966429Y-5246476D01*
X966429Y-5246476D02*
X947381Y-5246476D01*
X947381Y-5246476D02*
X928333Y-5236952D01*
X928333Y-5236952D02*
X918809Y-5227429D01*
X918809Y-5227429D02*
X909286Y-5208381D01*
X909286Y-5208381D02*
X899762Y-5170286D01*
X899762Y-5170286D02*
X899762Y-5122667D01*
X899762Y-5122667D02*
X909286Y-5084571D01*
X909286Y-5084571D02*
X918809Y-5065524D01*
X918809Y-5065524D02*
X928333Y-5056000D01*
X928333Y-5056000D02*
X947381Y-5046476D01*
X1099762Y-5246476D02*
X1099762Y-5113143D01*
X1099762Y-5132190D02*
X1109286Y-5122667D01*
X1109286Y-5122667D02*
X1128333Y-5113143D01*
X1128333Y-5113143D02*
X1156905Y-5113143D01*
X1156905Y-5113143D02*
X1175952Y-5122667D01*
X1175952Y-5122667D02*
X1185476Y-5141714D01*
X1185476Y-5141714D02*
X1185476Y-5246476D01*
X1185476Y-5141714D02*
X1195000Y-5122667D01*
X1195000Y-5122667D02*
X1214048Y-5113143D01*
X1214048Y-5113143D02*
X1242619Y-5113143D01*
X1242619Y-5113143D02*
X1261667Y-5122667D01*
X1261667Y-5122667D02*
X1271191Y-5141714D01*
X1271191Y-5141714D02*
X1271191Y-5246476D01*
X1366429Y-5246476D02*
X1366429Y-5113143D01*
X1366429Y-5132190D02*
X1375952Y-5122667D01*
X1375952Y-5122667D02*
X1395000Y-5113143D01*
X1395000Y-5113143D02*
X1423571Y-5113143D01*
X1423571Y-5113143D02*
X1442619Y-5122667D01*
X1442619Y-5122667D02*
X1452143Y-5141714D01*
X1452143Y-5141714D02*
X1452143Y-5246476D01*
X1452143Y-5141714D02*
X1461667Y-5122667D01*
X1461667Y-5122667D02*
X1480714Y-5113143D01*
X1480714Y-5113143D02*
X1509286Y-5113143D01*
X1509286Y-5113143D02*
X1528333Y-5122667D01*
X1528333Y-5122667D02*
X1537857Y-5141714D01*
X1537857Y-5141714D02*
X1537857Y-5246476D01*
X1895952Y-5036952D02*
X1724524Y-5294095D01*
X2120714Y-5046476D02*
X2139762Y-5046476D01*
X2139762Y-5046476D02*
X2158810Y-5056000D01*
X2158810Y-5056000D02*
X2168333Y-5065524D01*
X2168333Y-5065524D02*
X2177857Y-5084571D01*
X2177857Y-5084571D02*
X2187381Y-5122667D01*
X2187381Y-5122667D02*
X2187381Y-5170286D01*
X2187381Y-5170286D02*
X2177857Y-5208381D01*
X2177857Y-5208381D02*
X2168333Y-5227429D01*
X2168333Y-5227429D02*
X2158810Y-5236952D01*
X2158810Y-5236952D02*
X2139762Y-5246476D01*
X2139762Y-5246476D02*
X2120714Y-5246476D01*
X2120714Y-5246476D02*
X2101667Y-5236952D01*
X2101667Y-5236952D02*
X2092143Y-5227429D01*
X2092143Y-5227429D02*
X2082619Y-5208381D01*
X2082619Y-5208381D02*
X2073095Y-5170286D01*
X2073095Y-5170286D02*
X2073095Y-5122667D01*
X2073095Y-5122667D02*
X2082619Y-5084571D01*
X2082619Y-5084571D02*
X2092143Y-5065524D01*
X2092143Y-5065524D02*
X2101667Y-5056000D01*
X2101667Y-5056000D02*
X2120714Y-5046476D01*
X2273095Y-5227429D02*
X2282619Y-5236952D01*
X2282619Y-5236952D02*
X2273095Y-5246476D01*
X2273095Y-5246476D02*
X2263572Y-5236952D01*
X2263572Y-5236952D02*
X2273095Y-5227429D01*
X2273095Y-5227429D02*
X2273095Y-5246476D01*
X2406429Y-5046476D02*
X2425476Y-5046476D01*
X2425476Y-5046476D02*
X2444524Y-5056000D01*
X2444524Y-5056000D02*
X2454048Y-5065524D01*
X2454048Y-5065524D02*
X2463572Y-5084571D01*
X2463572Y-5084571D02*
X2473095Y-5122667D01*
X2473095Y-5122667D02*
X2473095Y-5170286D01*
X2473095Y-5170286D02*
X2463572Y-5208381D01*
X2463572Y-5208381D02*
X2454048Y-5227429D01*
X2454048Y-5227429D02*
X2444524Y-5236952D01*
X2444524Y-5236952D02*
X2425476Y-5246476D01*
X2425476Y-5246476D02*
X2406429Y-5246476D01*
X2406429Y-5246476D02*
X2387381Y-5236952D01*
X2387381Y-5236952D02*
X2377857Y-5227429D01*
X2377857Y-5227429D02*
X2368333Y-5208381D01*
X2368333Y-5208381D02*
X2358810Y-5170286D01*
X2358810Y-5170286D02*
X2358810Y-5122667D01*
X2358810Y-5122667D02*
X2368333Y-5084571D01*
X2368333Y-5084571D02*
X2377857Y-5065524D01*
X2377857Y-5065524D02*
X2387381Y-5056000D01*
X2387381Y-5056000D02*
X2406429Y-5046476D01*
X2549286Y-5065524D02*
X2558810Y-5056000D01*
X2558810Y-5056000D02*
X2577857Y-5046476D01*
X2577857Y-5046476D02*
X2625476Y-5046476D01*
X2625476Y-5046476D02*
X2644524Y-5056000D01*
X2644524Y-5056000D02*
X2654048Y-5065524D01*
X2654048Y-5065524D02*
X2663572Y-5084571D01*
X2663572Y-5084571D02*
X2663572Y-5103619D01*
X2663572Y-5103619D02*
X2654048Y-5132190D01*
X2654048Y-5132190D02*
X2539762Y-5246476D01*
X2539762Y-5246476D02*
X2663572Y-5246476D01*
X2730238Y-5046476D02*
X2863571Y-5046476D01*
X2863571Y-5046476D02*
X2777857Y-5246476D01*
X3025476Y-5046476D02*
X2987381Y-5046476D01*
X2987381Y-5046476D02*
X2968333Y-5056000D01*
X2968333Y-5056000D02*
X2958810Y-5065524D01*
X2958810Y-5065524D02*
X2939762Y-5094095D01*
X2939762Y-5094095D02*
X2930238Y-5132190D01*
X2930238Y-5132190D02*
X2930238Y-5208381D01*
X2930238Y-5208381D02*
X2939762Y-5227429D01*
X2939762Y-5227429D02*
X2949286Y-5236952D01*
X2949286Y-5236952D02*
X2968333Y-5246476D01*
X2968333Y-5246476D02*
X3006429Y-5246476D01*
X3006429Y-5246476D02*
X3025476Y-5236952D01*
X3025476Y-5236952D02*
X3035000Y-5227429D01*
X3035000Y-5227429D02*
X3044524Y-5208381D01*
X3044524Y-5208381D02*
X3044524Y-5160762D01*
X3044524Y-5160762D02*
X3035000Y-5141714D01*
X3035000Y-5141714D02*
X3025476Y-5132190D01*
X3025476Y-5132190D02*
X3006429Y-5122667D01*
X3006429Y-5122667D02*
X2968333Y-5122667D01*
X2968333Y-5122667D02*
X2949286Y-5132190D01*
X2949286Y-5132190D02*
X2939762Y-5141714D01*
X2939762Y-5141714D02*
X2930238Y-5160762D01*
X3120714Y-5046476D02*
X3120714Y-5084571D01*
X3196905Y-5046476D02*
X3196905Y-5084571D01*
X3459762Y-5322667D02*
X3450238Y-5313143D01*
X3450238Y-5313143D02*
X3431191Y-5284571D01*
X3431191Y-5284571D02*
X3421667Y-5265524D01*
X3421667Y-5265524D02*
X3412143Y-5236952D01*
X3412143Y-5236952D02*
X3402619Y-5189333D01*
X3402619Y-5189333D02*
X3402619Y-5151238D01*
X3402619Y-5151238D02*
X3412143Y-5103619D01*
X3412143Y-5103619D02*
X3421667Y-5075048D01*
X3421667Y-5075048D02*
X3431191Y-5056000D01*
X3431191Y-5056000D02*
X3450238Y-5027429D01*
X3450238Y-5027429D02*
X3459762Y-5017905D01*
X3574048Y-5046476D02*
X3593095Y-5046476D01*
X3593095Y-5046476D02*
X3612143Y-5056000D01*
X3612143Y-5056000D02*
X3621667Y-5065524D01*
X3621667Y-5065524D02*
X3631191Y-5084571D01*
X3631191Y-5084571D02*
X3640714Y-5122667D01*
X3640714Y-5122667D02*
X3640714Y-5170286D01*
X3640714Y-5170286D02*
X3631191Y-5208381D01*
X3631191Y-5208381D02*
X3621667Y-5227429D01*
X3621667Y-5227429D02*
X3612143Y-5236952D01*
X3612143Y-5236952D02*
X3593095Y-5246476D01*
X3593095Y-5246476D02*
X3574048Y-5246476D01*
X3574048Y-5246476D02*
X3555000Y-5236952D01*
X3555000Y-5236952D02*
X3545476Y-5227429D01*
X3545476Y-5227429D02*
X3535952Y-5208381D01*
X3535952Y-5208381D02*
X3526429Y-5170286D01*
X3526429Y-5170286D02*
X3526429Y-5122667D01*
X3526429Y-5122667D02*
X3535952Y-5084571D01*
X3535952Y-5084571D02*
X3545476Y-5065524D01*
X3545476Y-5065524D02*
X3555000Y-5056000D01*
X3555000Y-5056000D02*
X3574048Y-5046476D01*
X3846429Y-5246476D02*
X3846429Y-5046476D01*
X3932143Y-5246476D02*
X3932143Y-5141714D01*
X3932143Y-5141714D02*
X3922619Y-5122667D01*
X3922619Y-5122667D02*
X3903572Y-5113143D01*
X3903572Y-5113143D02*
X3875000Y-5113143D01*
X3875000Y-5113143D02*
X3855952Y-5122667D01*
X3855952Y-5122667D02*
X3846429Y-5132190D01*
X4055952Y-5246476D02*
X4036905Y-5236952D01*
X4036905Y-5236952D02*
X4027381Y-5227429D01*
X4027381Y-5227429D02*
X4017857Y-5208381D01*
X4017857Y-5208381D02*
X4017857Y-5151238D01*
X4017857Y-5151238D02*
X4027381Y-5132190D01*
X4027381Y-5132190D02*
X4036905Y-5122667D01*
X4036905Y-5122667D02*
X4055952Y-5113143D01*
X4055952Y-5113143D02*
X4084524Y-5113143D01*
X4084524Y-5113143D02*
X4103572Y-5122667D01*
X4103572Y-5122667D02*
X4113095Y-5132190D01*
X4113095Y-5132190D02*
X4122619Y-5151238D01*
X4122619Y-5151238D02*
X4122619Y-5208381D01*
X4122619Y-5208381D02*
X4113095Y-5227429D01*
X4113095Y-5227429D02*
X4103572Y-5236952D01*
X4103572Y-5236952D02*
X4084524Y-5246476D01*
X4084524Y-5246476D02*
X4055952Y-5246476D01*
X4236905Y-5246476D02*
X4217857Y-5236952D01*
X4217857Y-5236952D02*
X4208334Y-5217905D01*
X4208334Y-5217905D02*
X4208334Y-5046476D01*
X4389286Y-5236952D02*
X4370238Y-5246476D01*
X4370238Y-5246476D02*
X4332143Y-5246476D01*
X4332143Y-5246476D02*
X4313095Y-5236952D01*
X4313095Y-5236952D02*
X4303572Y-5217905D01*
X4303572Y-5217905D02*
X4303572Y-5141714D01*
X4303572Y-5141714D02*
X4313095Y-5122667D01*
X4313095Y-5122667D02*
X4332143Y-5113143D01*
X4332143Y-5113143D02*
X4370238Y-5113143D01*
X4370238Y-5113143D02*
X4389286Y-5122667D01*
X4389286Y-5122667D02*
X4398810Y-5141714D01*
X4398810Y-5141714D02*
X4398810Y-5160762D01*
X4398810Y-5160762D02*
X4303572Y-5179810D01*
X4475000Y-5236952D02*
X4494048Y-5246476D01*
X4494048Y-5246476D02*
X4532143Y-5246476D01*
X4532143Y-5246476D02*
X4551191Y-5236952D01*
X4551191Y-5236952D02*
X4560715Y-5217905D01*
X4560715Y-5217905D02*
X4560715Y-5208381D01*
X4560715Y-5208381D02*
X4551191Y-5189333D01*
X4551191Y-5189333D02*
X4532143Y-5179810D01*
X4532143Y-5179810D02*
X4503572Y-5179810D01*
X4503572Y-5179810D02*
X4484524Y-5170286D01*
X4484524Y-5170286D02*
X4475000Y-5151238D01*
X4475000Y-5151238D02*
X4475000Y-5141714D01*
X4475000Y-5141714D02*
X4484524Y-5122667D01*
X4484524Y-5122667D02*
X4503572Y-5113143D01*
X4503572Y-5113143D02*
X4532143Y-5113143D01*
X4532143Y-5113143D02*
X4551191Y-5122667D01*
X4766429Y-5170286D02*
X4918810Y-5170286D01*
X4842619Y-5246476D02*
X4842619Y-5094095D01*
X5219762Y-5113143D02*
X5219762Y-5246476D01*
X5172143Y-5036952D02*
X5124524Y-5179810D01*
X5124524Y-5179810D02*
X5248334Y-5179810D01*
X5435000Y-5236952D02*
X5454048Y-5246476D01*
X5454048Y-5246476D02*
X5492143Y-5246476D01*
X5492143Y-5246476D02*
X5511191Y-5236952D01*
X5511191Y-5236952D02*
X5520715Y-5217905D01*
X5520715Y-5217905D02*
X5520715Y-5208381D01*
X5520715Y-5208381D02*
X5511191Y-5189333D01*
X5511191Y-5189333D02*
X5492143Y-5179810D01*
X5492143Y-5179810D02*
X5463572Y-5179810D01*
X5463572Y-5179810D02*
X5444524Y-5170286D01*
X5444524Y-5170286D02*
X5435000Y-5151238D01*
X5435000Y-5151238D02*
X5435000Y-5141714D01*
X5435000Y-5141714D02*
X5444524Y-5122667D01*
X5444524Y-5122667D02*
X5463572Y-5113143D01*
X5463572Y-5113143D02*
X5492143Y-5113143D01*
X5492143Y-5113143D02*
X5511191Y-5122667D01*
X5635000Y-5246476D02*
X5615953Y-5236952D01*
X5615953Y-5236952D02*
X5606429Y-5217905D01*
X5606429Y-5217905D02*
X5606429Y-5046476D01*
X5739762Y-5246476D02*
X5720714Y-5236952D01*
X5720714Y-5236952D02*
X5711191Y-5227429D01*
X5711191Y-5227429D02*
X5701667Y-5208381D01*
X5701667Y-5208381D02*
X5701667Y-5151238D01*
X5701667Y-5151238D02*
X5711191Y-5132190D01*
X5711191Y-5132190D02*
X5720714Y-5122667D01*
X5720714Y-5122667D02*
X5739762Y-5113143D01*
X5739762Y-5113143D02*
X5768334Y-5113143D01*
X5768334Y-5113143D02*
X5787381Y-5122667D01*
X5787381Y-5122667D02*
X5796905Y-5132190D01*
X5796905Y-5132190D02*
X5806429Y-5151238D01*
X5806429Y-5151238D02*
X5806429Y-5208381D01*
X5806429Y-5208381D02*
X5796905Y-5227429D01*
X5796905Y-5227429D02*
X5787381Y-5236952D01*
X5787381Y-5236952D02*
X5768334Y-5246476D01*
X5768334Y-5246476D02*
X5739762Y-5246476D01*
X5863572Y-5113143D02*
X5939762Y-5113143D01*
X5892143Y-5046476D02*
X5892143Y-5217905D01*
X5892143Y-5217905D02*
X5901667Y-5236952D01*
X5901667Y-5236952D02*
X5920714Y-5246476D01*
X5920714Y-5246476D02*
X5939762Y-5246476D01*
X5996905Y-5236952D02*
X6015953Y-5246476D01*
X6015953Y-5246476D02*
X6054048Y-5246476D01*
X6054048Y-5246476D02*
X6073095Y-5236952D01*
X6073095Y-5236952D02*
X6082619Y-5217905D01*
X6082619Y-5217905D02*
X6082619Y-5208381D01*
X6082619Y-5208381D02*
X6073095Y-5189333D01*
X6073095Y-5189333D02*
X6054048Y-5179810D01*
X6054048Y-5179810D02*
X6025476Y-5179810D01*
X6025476Y-5179810D02*
X6006429Y-5170286D01*
X6006429Y-5170286D02*
X5996905Y-5151238D01*
X5996905Y-5151238D02*
X5996905Y-5141714D01*
X5996905Y-5141714D02*
X6006429Y-5122667D01*
X6006429Y-5122667D02*
X6025476Y-5113143D01*
X6025476Y-5113143D02*
X6054048Y-5113143D01*
X6054048Y-5113143D02*
X6073095Y-5122667D01*
X6149286Y-5322667D02*
X6158810Y-5313143D01*
X6158810Y-5313143D02*
X6177857Y-5284571D01*
X6177857Y-5284571D02*
X6187381Y-5265524D01*
X6187381Y-5265524D02*
X6196905Y-5236952D01*
X6196905Y-5236952D02*
X6206429Y-5189333D01*
X6206429Y-5189333D02*
X6206429Y-5151238D01*
X6206429Y-5151238D02*
X6196905Y-5103619D01*
X6196905Y-5103619D02*
X6187381Y-5075048D01*
X6187381Y-5075048D02*
X6177857Y-5056000D01*
X6177857Y-5056000D02*
X6158810Y-5027429D01*
X6158810Y-5027429D02*
X6149286Y-5017905D01*
D10*
X-19644Y-5472356D02*
X-19644Y-5401644D01*
X-90356Y-5401644D01*
X-90356Y-5472356D01*
X-19644Y-5472356D01*
D11*
X347381Y-5510476D02*
X233095Y-5510476D01*
X290238Y-5510476D02*
X290238Y-5310476D01*
X290238Y-5310476D02*
X271190Y-5339048D01*
X271190Y-5339048D02*
X252143Y-5358095D01*
X252143Y-5358095D02*
X233095Y-5367619D01*
X433095Y-5491429D02*
X442619Y-5500952D01*
X442619Y-5500952D02*
X433095Y-5510476D01*
X433095Y-5510476D02*
X423571Y-5500952D01*
X423571Y-5500952D02*
X433095Y-5491429D01*
X433095Y-5491429D02*
X433095Y-5510476D01*
X566429Y-5310476D02*
X585476Y-5310476D01*
X585476Y-5310476D02*
X604524Y-5320000D01*
X604524Y-5320000D02*
X614048Y-5329524D01*
X614048Y-5329524D02*
X623571Y-5348571D01*
X623571Y-5348571D02*
X633095Y-5386667D01*
X633095Y-5386667D02*
X633095Y-5434286D01*
X633095Y-5434286D02*
X623571Y-5472381D01*
X623571Y-5472381D02*
X614048Y-5491429D01*
X614048Y-5491429D02*
X604524Y-5500952D01*
X604524Y-5500952D02*
X585476Y-5510476D01*
X585476Y-5510476D02*
X566429Y-5510476D01*
X566429Y-5510476D02*
X547381Y-5500952D01*
X547381Y-5500952D02*
X537857Y-5491429D01*
X537857Y-5491429D02*
X528333Y-5472381D01*
X528333Y-5472381D02*
X518809Y-5434286D01*
X518809Y-5434286D02*
X518809Y-5386667D01*
X518809Y-5386667D02*
X528333Y-5348571D01*
X528333Y-5348571D02*
X537857Y-5329524D01*
X537857Y-5329524D02*
X547381Y-5320000D01*
X547381Y-5320000D02*
X566429Y-5310476D01*
X756905Y-5310476D02*
X775952Y-5310476D01*
X775952Y-5310476D02*
X795000Y-5320000D01*
X795000Y-5320000D02*
X804524Y-5329524D01*
X804524Y-5329524D02*
X814048Y-5348571D01*
X814048Y-5348571D02*
X823571Y-5386667D01*
X823571Y-5386667D02*
X823571Y-5434286D01*
X823571Y-5434286D02*
X814048Y-5472381D01*
X814048Y-5472381D02*
X804524Y-5491429D01*
X804524Y-5491429D02*
X795000Y-5500952D01*
X795000Y-5500952D02*
X775952Y-5510476D01*
X775952Y-5510476D02*
X756905Y-5510476D01*
X756905Y-5510476D02*
X737857Y-5500952D01*
X737857Y-5500952D02*
X728333Y-5491429D01*
X728333Y-5491429D02*
X718809Y-5472381D01*
X718809Y-5472381D02*
X709286Y-5434286D01*
X709286Y-5434286D02*
X709286Y-5386667D01*
X709286Y-5386667D02*
X718809Y-5348571D01*
X718809Y-5348571D02*
X728333Y-5329524D01*
X728333Y-5329524D02*
X737857Y-5320000D01*
X737857Y-5320000D02*
X756905Y-5310476D01*
X947381Y-5310476D02*
X966429Y-5310476D01*
X966429Y-5310476D02*
X985476Y-5320000D01*
X985476Y-5320000D02*
X995000Y-5329524D01*
X995000Y-5329524D02*
X1004524Y-5348571D01*
X1004524Y-5348571D02*
X1014048Y-5386667D01*
X1014048Y-5386667D02*
X1014048Y-5434286D01*
X1014048Y-5434286D02*
X1004524Y-5472381D01*
X1004524Y-5472381D02*
X995000Y-5491429D01*
X995000Y-5491429D02*
X985476Y-5500952D01*
X985476Y-5500952D02*
X966429Y-5510476D01*
X966429Y-5510476D02*
X947381Y-5510476D01*
X947381Y-5510476D02*
X928333Y-5500952D01*
X928333Y-5500952D02*
X918809Y-5491429D01*
X918809Y-5491429D02*
X909286Y-5472381D01*
X909286Y-5472381D02*
X899762Y-5434286D01*
X899762Y-5434286D02*
X899762Y-5386667D01*
X899762Y-5386667D02*
X909286Y-5348571D01*
X909286Y-5348571D02*
X918809Y-5329524D01*
X918809Y-5329524D02*
X928333Y-5320000D01*
X928333Y-5320000D02*
X947381Y-5310476D01*
X1099762Y-5510476D02*
X1099762Y-5377143D01*
X1099762Y-5396190D02*
X1109286Y-5386667D01*
X1109286Y-5386667D02*
X1128333Y-5377143D01*
X1128333Y-5377143D02*
X1156905Y-5377143D01*
X1156905Y-5377143D02*
X1175952Y-5386667D01*
X1175952Y-5386667D02*
X1185476Y-5405714D01*
X1185476Y-5405714D02*
X1185476Y-5510476D01*
X1185476Y-5405714D02*
X1195000Y-5386667D01*
X1195000Y-5386667D02*
X1214048Y-5377143D01*
X1214048Y-5377143D02*
X1242619Y-5377143D01*
X1242619Y-5377143D02*
X1261667Y-5386667D01*
X1261667Y-5386667D02*
X1271191Y-5405714D01*
X1271191Y-5405714D02*
X1271191Y-5510476D01*
X1366429Y-5510476D02*
X1366429Y-5377143D01*
X1366429Y-5396190D02*
X1375952Y-5386667D01*
X1375952Y-5386667D02*
X1395000Y-5377143D01*
X1395000Y-5377143D02*
X1423571Y-5377143D01*
X1423571Y-5377143D02*
X1442619Y-5386667D01*
X1442619Y-5386667D02*
X1452143Y-5405714D01*
X1452143Y-5405714D02*
X1452143Y-5510476D01*
X1452143Y-5405714D02*
X1461667Y-5386667D01*
X1461667Y-5386667D02*
X1480714Y-5377143D01*
X1480714Y-5377143D02*
X1509286Y-5377143D01*
X1509286Y-5377143D02*
X1528333Y-5386667D01*
X1528333Y-5386667D02*
X1537857Y-5405714D01*
X1537857Y-5405714D02*
X1537857Y-5510476D01*
X1895952Y-5300952D02*
X1724524Y-5558095D01*
X2120714Y-5310476D02*
X2139762Y-5310476D01*
X2139762Y-5310476D02*
X2158810Y-5320000D01*
X2158810Y-5320000D02*
X2168333Y-5329524D01*
X2168333Y-5329524D02*
X2177857Y-5348571D01*
X2177857Y-5348571D02*
X2187381Y-5386667D01*
X2187381Y-5386667D02*
X2187381Y-5434286D01*
X2187381Y-5434286D02*
X2177857Y-5472381D01*
X2177857Y-5472381D02*
X2168333Y-5491429D01*
X2168333Y-5491429D02*
X2158810Y-5500952D01*
X2158810Y-5500952D02*
X2139762Y-5510476D01*
X2139762Y-5510476D02*
X2120714Y-5510476D01*
X2120714Y-5510476D02*
X2101667Y-5500952D01*
X2101667Y-5500952D02*
X2092143Y-5491429D01*
X2092143Y-5491429D02*
X2082619Y-5472381D01*
X2082619Y-5472381D02*
X2073095Y-5434286D01*
X2073095Y-5434286D02*
X2073095Y-5386667D01*
X2073095Y-5386667D02*
X2082619Y-5348571D01*
X2082619Y-5348571D02*
X2092143Y-5329524D01*
X2092143Y-5329524D02*
X2101667Y-5320000D01*
X2101667Y-5320000D02*
X2120714Y-5310476D01*
X2273095Y-5491429D02*
X2282619Y-5500952D01*
X2282619Y-5500952D02*
X2273095Y-5510476D01*
X2273095Y-5510476D02*
X2263572Y-5500952D01*
X2263572Y-5500952D02*
X2273095Y-5491429D01*
X2273095Y-5491429D02*
X2273095Y-5510476D01*
X2406429Y-5310476D02*
X2425476Y-5310476D01*
X2425476Y-5310476D02*
X2444524Y-5320000D01*
X2444524Y-5320000D02*
X2454048Y-5329524D01*
X2454048Y-5329524D02*
X2463572Y-5348571D01*
X2463572Y-5348571D02*
X2473095Y-5386667D01*
X2473095Y-5386667D02*
X2473095Y-5434286D01*
X2473095Y-5434286D02*
X2463572Y-5472381D01*
X2463572Y-5472381D02*
X2454048Y-5491429D01*
X2454048Y-5491429D02*
X2444524Y-5500952D01*
X2444524Y-5500952D02*
X2425476Y-5510476D01*
X2425476Y-5510476D02*
X2406429Y-5510476D01*
X2406429Y-5510476D02*
X2387381Y-5500952D01*
X2387381Y-5500952D02*
X2377857Y-5491429D01*
X2377857Y-5491429D02*
X2368333Y-5472381D01*
X2368333Y-5472381D02*
X2358810Y-5434286D01*
X2358810Y-5434286D02*
X2358810Y-5386667D01*
X2358810Y-5386667D02*
X2368333Y-5348571D01*
X2368333Y-5348571D02*
X2377857Y-5329524D01*
X2377857Y-5329524D02*
X2387381Y-5320000D01*
X2387381Y-5320000D02*
X2406429Y-5310476D01*
X2539762Y-5310476D02*
X2663572Y-5310476D01*
X2663572Y-5310476D02*
X2596905Y-5386667D01*
X2596905Y-5386667D02*
X2625476Y-5386667D01*
X2625476Y-5386667D02*
X2644524Y-5396190D01*
X2644524Y-5396190D02*
X2654048Y-5405714D01*
X2654048Y-5405714D02*
X2663572Y-5424762D01*
X2663572Y-5424762D02*
X2663572Y-5472381D01*
X2663572Y-5472381D02*
X2654048Y-5491429D01*
X2654048Y-5491429D02*
X2644524Y-5500952D01*
X2644524Y-5500952D02*
X2625476Y-5510476D01*
X2625476Y-5510476D02*
X2568333Y-5510476D01*
X2568333Y-5510476D02*
X2549286Y-5500952D01*
X2549286Y-5500952D02*
X2539762Y-5491429D01*
X2758810Y-5510476D02*
X2796905Y-5510476D01*
X2796905Y-5510476D02*
X2815952Y-5500952D01*
X2815952Y-5500952D02*
X2825476Y-5491429D01*
X2825476Y-5491429D02*
X2844524Y-5462857D01*
X2844524Y-5462857D02*
X2854048Y-5424762D01*
X2854048Y-5424762D02*
X2854048Y-5348571D01*
X2854048Y-5348571D02*
X2844524Y-5329524D01*
X2844524Y-5329524D02*
X2835000Y-5320000D01*
X2835000Y-5320000D02*
X2815952Y-5310476D01*
X2815952Y-5310476D02*
X2777857Y-5310476D01*
X2777857Y-5310476D02*
X2758810Y-5320000D01*
X2758810Y-5320000D02*
X2749286Y-5329524D01*
X2749286Y-5329524D02*
X2739762Y-5348571D01*
X2739762Y-5348571D02*
X2739762Y-5396190D01*
X2739762Y-5396190D02*
X2749286Y-5415238D01*
X2749286Y-5415238D02*
X2758810Y-5424762D01*
X2758810Y-5424762D02*
X2777857Y-5434286D01*
X2777857Y-5434286D02*
X2815952Y-5434286D01*
X2815952Y-5434286D02*
X2835000Y-5424762D01*
X2835000Y-5424762D02*
X2844524Y-5415238D01*
X2844524Y-5415238D02*
X2854048Y-5396190D01*
X3025476Y-5377143D02*
X3025476Y-5510476D01*
X2977857Y-5300952D02*
X2930238Y-5443810D01*
X2930238Y-5443810D02*
X3054048Y-5443810D01*
X3120714Y-5310476D02*
X3120714Y-5348571D01*
X3196905Y-5310476D02*
X3196905Y-5348571D01*
X3459762Y-5586667D02*
X3450238Y-5577143D01*
X3450238Y-5577143D02*
X3431191Y-5548571D01*
X3431191Y-5548571D02*
X3421667Y-5529524D01*
X3421667Y-5529524D02*
X3412143Y-5500952D01*
X3412143Y-5500952D02*
X3402619Y-5453333D01*
X3402619Y-5453333D02*
X3402619Y-5415238D01*
X3402619Y-5415238D02*
X3412143Y-5367619D01*
X3412143Y-5367619D02*
X3421667Y-5339048D01*
X3421667Y-5339048D02*
X3431191Y-5320000D01*
X3431191Y-5320000D02*
X3450238Y-5291429D01*
X3450238Y-5291429D02*
X3459762Y-5281905D01*
X3640714Y-5510476D02*
X3526429Y-5510476D01*
X3583571Y-5510476D02*
X3583571Y-5310476D01*
X3583571Y-5310476D02*
X3564524Y-5339048D01*
X3564524Y-5339048D02*
X3545476Y-5358095D01*
X3545476Y-5358095D02*
X3526429Y-5367619D01*
X3764524Y-5310476D02*
X3783572Y-5310476D01*
X3783572Y-5310476D02*
X3802619Y-5320000D01*
X3802619Y-5320000D02*
X3812143Y-5329524D01*
X3812143Y-5329524D02*
X3821667Y-5348571D01*
X3821667Y-5348571D02*
X3831191Y-5386667D01*
X3831191Y-5386667D02*
X3831191Y-5434286D01*
X3831191Y-5434286D02*
X3821667Y-5472381D01*
X3821667Y-5472381D02*
X3812143Y-5491429D01*
X3812143Y-5491429D02*
X3802619Y-5500952D01*
X3802619Y-5500952D02*
X3783572Y-5510476D01*
X3783572Y-5510476D02*
X3764524Y-5510476D01*
X3764524Y-5510476D02*
X3745476Y-5500952D01*
X3745476Y-5500952D02*
X3735952Y-5491429D01*
X3735952Y-5491429D02*
X3726429Y-5472381D01*
X3726429Y-5472381D02*
X3716905Y-5434286D01*
X3716905Y-5434286D02*
X3716905Y-5386667D01*
X3716905Y-5386667D02*
X3726429Y-5348571D01*
X3726429Y-5348571D02*
X3735952Y-5329524D01*
X3735952Y-5329524D02*
X3745476Y-5320000D01*
X3745476Y-5320000D02*
X3764524Y-5310476D01*
X4036905Y-5510476D02*
X4036905Y-5310476D01*
X4122619Y-5510476D02*
X4122619Y-5405714D01*
X4122619Y-5405714D02*
X4113095Y-5386667D01*
X4113095Y-5386667D02*
X4094048Y-5377143D01*
X4094048Y-5377143D02*
X4065476Y-5377143D01*
X4065476Y-5377143D02*
X4046429Y-5386667D01*
X4046429Y-5386667D02*
X4036905Y-5396190D01*
X4246429Y-5510476D02*
X4227381Y-5500952D01*
X4227381Y-5500952D02*
X4217857Y-5491429D01*
X4217857Y-5491429D02*
X4208334Y-5472381D01*
X4208334Y-5472381D02*
X4208334Y-5415238D01*
X4208334Y-5415238D02*
X4217857Y-5396190D01*
X4217857Y-5396190D02*
X4227381Y-5386667D01*
X4227381Y-5386667D02*
X4246429Y-5377143D01*
X4246429Y-5377143D02*
X4275000Y-5377143D01*
X4275000Y-5377143D02*
X4294048Y-5386667D01*
X4294048Y-5386667D02*
X4303572Y-5396190D01*
X4303572Y-5396190D02*
X4313095Y-5415238D01*
X4313095Y-5415238D02*
X4313095Y-5472381D01*
X4313095Y-5472381D02*
X4303572Y-5491429D01*
X4303572Y-5491429D02*
X4294048Y-5500952D01*
X4294048Y-5500952D02*
X4275000Y-5510476D01*
X4275000Y-5510476D02*
X4246429Y-5510476D01*
X4427381Y-5510476D02*
X4408334Y-5500952D01*
X4408334Y-5500952D02*
X4398810Y-5481905D01*
X4398810Y-5481905D02*
X4398810Y-5310476D01*
X4579762Y-5500952D02*
X4560715Y-5510476D01*
X4560715Y-5510476D02*
X4522619Y-5510476D01*
X4522619Y-5510476D02*
X4503572Y-5500952D01*
X4503572Y-5500952D02*
X4494048Y-5481905D01*
X4494048Y-5481905D02*
X4494048Y-5405714D01*
X4494048Y-5405714D02*
X4503572Y-5386667D01*
X4503572Y-5386667D02*
X4522619Y-5377143D01*
X4522619Y-5377143D02*
X4560715Y-5377143D01*
X4560715Y-5377143D02*
X4579762Y-5386667D01*
X4579762Y-5386667D02*
X4589286Y-5405714D01*
X4589286Y-5405714D02*
X4589286Y-5424762D01*
X4589286Y-5424762D02*
X4494048Y-5443810D01*
X4665476Y-5500952D02*
X4684524Y-5510476D01*
X4684524Y-5510476D02*
X4722619Y-5510476D01*
X4722619Y-5510476D02*
X4741667Y-5500952D01*
X4741667Y-5500952D02*
X4751191Y-5481905D01*
X4751191Y-5481905D02*
X4751191Y-5472381D01*
X4751191Y-5472381D02*
X4741667Y-5453333D01*
X4741667Y-5453333D02*
X4722619Y-5443810D01*
X4722619Y-5443810D02*
X4694048Y-5443810D01*
X4694048Y-5443810D02*
X4675000Y-5434286D01*
X4675000Y-5434286D02*
X4665476Y-5415238D01*
X4665476Y-5415238D02*
X4665476Y-5405714D01*
X4665476Y-5405714D02*
X4675000Y-5386667D01*
X4675000Y-5386667D02*
X4694048Y-5377143D01*
X4694048Y-5377143D02*
X4722619Y-5377143D01*
X4722619Y-5377143D02*
X4741667Y-5386667D01*
X4817857Y-5586667D02*
X4827381Y-5577143D01*
X4827381Y-5577143D02*
X4846429Y-5548571D01*
X4846429Y-5548571D02*
X4855953Y-5529524D01*
X4855953Y-5529524D02*
X4865476Y-5500952D01*
X4865476Y-5500952D02*
X4875000Y-5453333D01*
X4875000Y-5453333D02*
X4875000Y-5415238D01*
X4875000Y-5415238D02*
X4865476Y-5367619D01*
X4865476Y-5367619D02*
X4855953Y-5339048D01*
X4855953Y-5339048D02*
X4846429Y-5320000D01*
X4846429Y-5320000D02*
X4827381Y-5291429D01*
X4827381Y-5291429D02*
X4817857Y-5281905D01*
M02*
