%TF.GenerationSoftware,KiCad,Pcbnew,(7.0.0)*%
%TF.CreationDate,2024-01-31T21:47:27+02:00*%
%TF.ProjectId,FancyLight-V2,46616e63-794c-4696-9768-742d56322e6b,rev?*%
%TF.SameCoordinates,Original*%
%TF.FileFunction,Copper,L2,Bot*%
%TF.FilePolarity,Positive*%
%FSLAX46Y46*%
G04 Gerber Fmt 4.6, Leading zero omitted, Abs format (unit mm)*
G04 Created by KiCad (PCBNEW (7.0.0)) date 2024-01-31 21:47:27*
%MOMM*%
%LPD*%
G01*
G04 APERTURE LIST*
%TA.AperFunction,ComponentPad*%
%ADD10R,1.000000X1.000000*%
%TD*%
%TA.AperFunction,ComponentPad*%
%ADD11O,1.000000X1.000000*%
%TD*%
%TA.AperFunction,ComponentPad*%
%ADD12R,1.700000X1.700000*%
%TD*%
%TA.AperFunction,ComponentPad*%
%ADD13O,1.700000X1.700000*%
%TD*%
%TA.AperFunction,ComponentPad*%
%ADD14O,1.100000X1.900000*%
%TD*%
%TA.AperFunction,ViaPad*%
%ADD15C,0.800000*%
%TD*%
%TA.AperFunction,Conductor*%
%ADD16C,0.250000*%
%TD*%
%TA.AperFunction,Conductor*%
%ADD17C,0.500000*%
%TD*%
G04 APERTURE END LIST*
D10*
%TO.P,SW1,1,A*%
%TO.N,Net-(D7-K)*%
X31999999Y-37469999D03*
D11*
%TO.P,SW1,2,B*%
%TO.N,VBAT*%
X31999999Y-36199999D03*
%TD*%
D12*
%TO.P,J1,1,Pin_1*%
%TO.N,MISO*%
X7299999Y-18124999D03*
D13*
%TO.P,J1,2,Pin_2*%
%TO.N,VBAT*%
X7299999Y-20664999D03*
%TO.P,J1,3,Pin_3*%
%TO.N,SCK*%
X4759999Y-18124999D03*
%TO.P,J1,4,Pin_4*%
%TO.N,MODE1*%
X4759999Y-20664999D03*
%TO.P,J1,5,Pin_5*%
%TO.N,RST*%
X2219999Y-18124999D03*
%TO.P,J1,6,Pin_6*%
%TO.N,BAT-*%
X2219999Y-20664999D03*
%TD*%
D12*
%TO.P,J3,1,Pin_1*%
%TO.N,MODE1*%
X6049999Y-26924999D03*
D13*
%TO.P,J3,2,Pin_2*%
%TO.N,Net-(J3-Pin_2)*%
X6049999Y-29464999D03*
%TO.P,J3,3,Pin_3*%
%TO.N,MODE2*%
X3509999Y-26924999D03*
%TO.P,J3,4,Pin_4*%
%TO.N,Net-(J3-Pin_2)*%
X3509999Y-29464999D03*
%TD*%
D10*
%TO.P,J2,1,Pin_1*%
%TO.N,VBAT*%
X17449999Y-3479999D03*
D11*
%TO.P,J2,2,Pin_2*%
%TO.N,BAT-*%
X17449999Y-4749999D03*
%TO.P,J2,3,Pin_3*%
%TO.N,TRIG*%
X17449999Y-6019999D03*
%TD*%
D10*
%TO.P,R15,1*%
%TO.N,VBAT*%
X24099999Y-3499999D03*
D11*
%TO.P,R15,2*%
%TO.N,Net-(U6-PA3)*%
X24099999Y-4769999D03*
%TD*%
D10*
%TO.P,BT1,1,+*%
%TO.N,BAT+*%
X31999999Y-33599999D03*
D11*
%TO.P,BT1,2,-*%
%TO.N,Net-(BT1--)*%
X31999999Y-32329999D03*
%TD*%
D10*
%TO.P,U5,1,GND*%
%TO.N,Net-(Q2-D)*%
X20749999Y-6019999D03*
D11*
%TO.P,U5,2,DAT*%
%TO.N,R_TRIG*%
X20749999Y-4749999D03*
%TO.P,U5,3,VCC*%
%TO.N,VBAT*%
X20749999Y-3479999D03*
%TD*%
D14*
%TO.P,USB1,7,EH*%
%TO.N,BAT-*%
X15679999Y-34561999D03*
X15679999Y-38362999D03*
X24319999Y-34561999D03*
X24319999Y-38362999D03*
%TD*%
D15*
%TO.N,BAT-*%
X19800000Y-19000000D03*
X28700000Y-19700000D03*
X28700000Y-18300000D03*
X11400000Y-20100000D03*
X22200000Y-7500000D03*
X30300000Y-18300000D03*
X12300000Y-22700000D03*
X21900000Y-15200000D03*
X19500000Y-15200000D03*
X16500000Y-19000000D03*
X10125000Y-8125000D03*
X28700000Y-21100000D03*
X30300000Y-21100000D03*
X8425000Y-6425000D03*
X22200000Y-10600000D03*
X30300000Y-16900000D03*
X28700000Y-16900000D03*
X4400000Y-13100000D03*
X11000000Y-4300000D03*
X10100000Y-6400000D03*
X30300000Y-19700000D03*
X25200000Y-16700000D03*
X15200000Y-19000000D03*
X12200000Y-19000000D03*
%TO.N,Net-(D6-A)*%
X21900000Y-33300000D03*
X23000000Y-27100000D03*
%TO.N,VBAT*%
X22700000Y-23100000D03*
%TO.N,MISO*%
X13462652Y-10962652D03*
X7100000Y-10500000D03*
%TO.N,SCK*%
X11400000Y-10100000D03*
X11500000Y-11900000D03*
%TO.N,MODE1*%
X7350000Y-9450000D03*
%TO.N,PWM*%
X28500000Y-11000000D03*
X14800000Y-9700000D03*
%TO.N,DCDC_EN*%
X14500000Y-4600000D03*
X17800000Y-23400000D03*
%TO.N,MODE2*%
X3500000Y-7000000D03*
%TO.N,Net-(U6-XTAL2{slash}PB1)*%
X1600000Y-8700000D03*
X2600000Y-14500000D03*
X8900000Y-16200000D03*
X8200000Y-14400000D03*
%TO.N,Net-(RN1-R4.1)*%
X6575000Y-8725000D03*
X13050000Y-9150000D03*
%TD*%
D16*
%TO.N,Net-(D6-A)*%
X21900000Y-33300000D02*
X21900000Y-28200000D01*
X21900000Y-28200000D02*
X23000000Y-27100000D01*
D17*
%TO.N,VBAT*%
X32000000Y-36200000D02*
X36100000Y-32100000D01*
X20770000Y-3500000D02*
X20750000Y-3480000D01*
X20750000Y-3480000D02*
X17450000Y-3480000D01*
X22700000Y-23100000D02*
X22600000Y-23100000D01*
X23850000Y-26600000D02*
X23850000Y-24350000D01*
X36100000Y-32100000D02*
X36100000Y-9000000D01*
D16*
X32000000Y-36200000D02*
X20300000Y-36200000D01*
X7300000Y-23200000D02*
X7300000Y-20940000D01*
D17*
X32000000Y-36200000D02*
X23850000Y-28050000D01*
X36100000Y-9000000D02*
X30600000Y-3500000D01*
X23850000Y-24350000D02*
X22700000Y-23200000D01*
X24100000Y-3500000D02*
X20770000Y-3500000D01*
X23850000Y-28050000D02*
X23850000Y-26600000D01*
D16*
X7300000Y-20940000D02*
X7025000Y-20665000D01*
D17*
X22600000Y-23100000D02*
X22700000Y-23200000D01*
X22700000Y-23200000D02*
X22700000Y-23100000D01*
X30600000Y-3500000D02*
X24100000Y-3500000D01*
D16*
X20300000Y-36200000D02*
X7300000Y-23200000D01*
%TO.N,MISO*%
X11750305Y-12675000D02*
X7925000Y-12675000D01*
X7050000Y-11800000D02*
X7050000Y-10450000D01*
X7925000Y-12675000D02*
X7050000Y-11800000D01*
X7300000Y-12050000D02*
X7300000Y-17850000D01*
X7050000Y-11800000D02*
X7300000Y-12050000D01*
X7300000Y-17850000D02*
X7025000Y-18125000D01*
X13462652Y-10962652D02*
X11750305Y-12675000D01*
%TO.N,SCK*%
X11500000Y-10200000D02*
X11400000Y-10100000D01*
X11500000Y-11900000D02*
X11500000Y-10200000D01*
%TO.N,MODE1*%
X6050000Y-22230000D02*
X6050000Y-26925000D01*
X7024695Y-9450000D02*
X6000000Y-10474695D01*
X6000000Y-19150000D02*
X4485000Y-20665000D01*
X7350000Y-9450000D02*
X7024695Y-9450000D01*
X6000000Y-10474695D02*
X6000000Y-19150000D01*
X4485000Y-20665000D02*
X6050000Y-22230000D01*
%TO.N,PWM*%
X27600000Y-11900000D02*
X17000000Y-11900000D01*
X28500000Y-11000000D02*
X27600000Y-11900000D01*
X17000000Y-11900000D02*
X14800000Y-9700000D01*
%TO.N,DCDC_EN*%
X15200000Y-11674695D02*
X15200000Y-11700000D01*
X15200000Y-11700000D02*
X17800000Y-14300000D01*
X14500000Y-4600000D02*
X13962652Y-5137348D01*
X13962652Y-10437347D02*
X15200000Y-11674695D01*
X13962652Y-5137348D02*
X13962652Y-10437347D01*
X17800000Y-14300000D02*
X17800000Y-23400000D01*
%TO.N,MODE2*%
X3500000Y-26915000D02*
X3510000Y-26925000D01*
X3500000Y-7000000D02*
X3500000Y-26915000D01*
%TO.N,Net-(U6-XTAL2{slash}PB1)*%
X8300000Y-14500000D02*
X8300000Y-14400000D01*
X8900000Y-16200000D02*
X8900000Y-15100000D01*
X8200000Y-14400000D02*
X8300000Y-14500000D01*
X2600000Y-14600000D02*
X1600000Y-13600000D01*
X8300000Y-14400000D02*
X8200000Y-14400000D01*
X1600000Y-13600000D02*
X1600000Y-8700000D01*
X8900000Y-15100000D02*
X8300000Y-14500000D01*
%TO.N,Net-(RN1-R4.1)*%
X9525000Y-8725000D02*
X6575000Y-8725000D01*
X13050000Y-9150000D02*
X9950000Y-9150000D01*
X9950000Y-9150000D02*
X9525000Y-8725000D01*
%TD*%
%TA.AperFunction,Conductor*%
%TO.N,BAT-*%
G36*
X39937500Y-17113D02*
G01*
X39982887Y-62500D01*
X39999500Y-124500D01*
X39999500Y-39875500D01*
X39982887Y-39937500D01*
X39937500Y-39982887D01*
X39875500Y-39999500D01*
X24696888Y-39999500D01*
X24630035Y-39979935D01*
X24584278Y-39927414D01*
X24574057Y-39858510D01*
X24602598Y-39794968D01*
X24660893Y-39756839D01*
X24717934Y-39739535D01*
X24729134Y-39734896D01*
X24900795Y-39643142D01*
X24910884Y-39636400D01*
X25061348Y-39512917D01*
X25069917Y-39504348D01*
X25193400Y-39353884D01*
X25200142Y-39343795D01*
X25291896Y-39172134D01*
X25296535Y-39160934D01*
X25353039Y-38974666D01*
X25355405Y-38962771D01*
X25369701Y-38817622D01*
X25370000Y-38811538D01*
X25370000Y-38629326D01*
X25366549Y-38616450D01*
X25353674Y-38613000D01*
X23286326Y-38613000D01*
X23273450Y-38616450D01*
X23270000Y-38629326D01*
X23270000Y-38811538D01*
X23270298Y-38817622D01*
X23284594Y-38962771D01*
X23286960Y-38974666D01*
X23343464Y-39160934D01*
X23348103Y-39172134D01*
X23439857Y-39343795D01*
X23446599Y-39353884D01*
X23570082Y-39504348D01*
X23578651Y-39512917D01*
X23729115Y-39636400D01*
X23739204Y-39643142D01*
X23910865Y-39734896D01*
X23922065Y-39739535D01*
X23979107Y-39756839D01*
X24037402Y-39794968D01*
X24065943Y-39858510D01*
X24055722Y-39927414D01*
X24009965Y-39979935D01*
X23943112Y-39999500D01*
X16056888Y-39999500D01*
X15990035Y-39979935D01*
X15944278Y-39927414D01*
X15934057Y-39858510D01*
X15962598Y-39794968D01*
X16020893Y-39756839D01*
X16077934Y-39739535D01*
X16089134Y-39734896D01*
X16260795Y-39643142D01*
X16270884Y-39636400D01*
X16421348Y-39512917D01*
X16429917Y-39504348D01*
X16553400Y-39353884D01*
X16560142Y-39343795D01*
X16651896Y-39172134D01*
X16656535Y-39160934D01*
X16713039Y-38974666D01*
X16715405Y-38962771D01*
X16729701Y-38817622D01*
X16730000Y-38811538D01*
X16730000Y-38629326D01*
X16726549Y-38616450D01*
X16713674Y-38613000D01*
X14646326Y-38613000D01*
X14633450Y-38616450D01*
X14630000Y-38629326D01*
X14630000Y-38811538D01*
X14630298Y-38817622D01*
X14644594Y-38962771D01*
X14646960Y-38974666D01*
X14703464Y-39160934D01*
X14708103Y-39172134D01*
X14799857Y-39343795D01*
X14806599Y-39353884D01*
X14930082Y-39504348D01*
X14938651Y-39512917D01*
X15089115Y-39636400D01*
X15099204Y-39643142D01*
X15270865Y-39734896D01*
X15282065Y-39739535D01*
X15339107Y-39756839D01*
X15397402Y-39794968D01*
X15425943Y-39858510D01*
X15415722Y-39927414D01*
X15369965Y-39979935D01*
X15303112Y-39999500D01*
X124500Y-39999500D01*
X62500Y-39982887D01*
X17113Y-39937500D01*
X500Y-39875500D01*
X500Y-38096674D01*
X14630000Y-38096674D01*
X14633450Y-38109549D01*
X14646326Y-38113000D01*
X15413674Y-38113000D01*
X15426549Y-38109549D01*
X15430000Y-38096674D01*
X15930000Y-38096674D01*
X15933450Y-38109549D01*
X15946326Y-38113000D01*
X16713674Y-38113000D01*
X16726549Y-38109549D01*
X16730000Y-38096674D01*
X23270000Y-38096674D01*
X23273450Y-38109549D01*
X23286326Y-38113000D01*
X24053674Y-38113000D01*
X24066549Y-38109549D01*
X24070000Y-38096674D01*
X24570000Y-38096674D01*
X24573450Y-38109549D01*
X24586326Y-38113000D01*
X25353674Y-38113000D01*
X25366549Y-38109549D01*
X25370000Y-38096674D01*
X25370000Y-37914462D01*
X25369701Y-37908377D01*
X25355405Y-37763228D01*
X25353039Y-37751333D01*
X25296535Y-37565065D01*
X25291896Y-37553865D01*
X25200142Y-37382204D01*
X25193400Y-37372115D01*
X25069917Y-37221651D01*
X25061348Y-37213082D01*
X24910884Y-37089599D01*
X24900795Y-37082857D01*
X24729134Y-36991103D01*
X24717934Y-36986464D01*
X24583897Y-36945804D01*
X24572612Y-36945111D01*
X24570000Y-36956113D01*
X24570000Y-38096674D01*
X24070000Y-38096674D01*
X24070000Y-36956113D01*
X24067387Y-36945111D01*
X24056102Y-36945804D01*
X23922065Y-36986464D01*
X23910865Y-36991103D01*
X23739204Y-37082857D01*
X23729115Y-37089599D01*
X23578651Y-37213082D01*
X23570082Y-37221651D01*
X23446599Y-37372115D01*
X23439857Y-37382204D01*
X23348103Y-37553865D01*
X23343464Y-37565065D01*
X23286960Y-37751333D01*
X23284594Y-37763228D01*
X23270298Y-37908377D01*
X23270000Y-37914462D01*
X23270000Y-38096674D01*
X16730000Y-38096674D01*
X16730000Y-37914462D01*
X16729701Y-37908377D01*
X16715405Y-37763228D01*
X16713039Y-37751333D01*
X16656535Y-37565065D01*
X16651896Y-37553865D01*
X16560142Y-37382204D01*
X16553400Y-37372115D01*
X16429917Y-37221651D01*
X16421348Y-37213082D01*
X16270884Y-37089599D01*
X16260795Y-37082857D01*
X16089134Y-36991103D01*
X16077934Y-36986464D01*
X15943897Y-36945804D01*
X15932612Y-36945111D01*
X15930000Y-36956113D01*
X15930000Y-38096674D01*
X15430000Y-38096674D01*
X15430000Y-36956113D01*
X15427387Y-36945111D01*
X15416102Y-36945804D01*
X15282065Y-36986464D01*
X15270865Y-36991103D01*
X15099204Y-37082857D01*
X15089115Y-37089599D01*
X14938651Y-37213082D01*
X14930082Y-37221651D01*
X14806599Y-37372115D01*
X14799857Y-37382204D01*
X14708103Y-37553865D01*
X14703464Y-37565065D01*
X14646960Y-37751333D01*
X14644594Y-37763228D01*
X14630298Y-37908377D01*
X14630000Y-37914462D01*
X14630000Y-38096674D01*
X500Y-38096674D01*
X500Y-36624335D01*
X1999500Y-36624335D01*
X2000343Y-36629387D01*
X2000344Y-36629398D01*
X2028738Y-36799551D01*
X2040429Y-36869614D01*
X2042093Y-36874461D01*
X2042094Y-36874465D01*
X2119507Y-37099962D01*
X2119510Y-37099969D01*
X2121172Y-37104810D01*
X2123607Y-37109310D01*
X2123610Y-37109316D01*
X2179766Y-37213082D01*
X2239526Y-37323509D01*
X2392262Y-37519744D01*
X2396029Y-37523211D01*
X2396032Y-37523215D01*
X2571439Y-37684688D01*
X2575215Y-37688164D01*
X2671903Y-37751333D01*
X2779099Y-37821368D01*
X2779102Y-37821369D01*
X2783393Y-37824173D01*
X3011119Y-37924063D01*
X3252179Y-37985108D01*
X3437933Y-38000500D01*
X3559497Y-38000500D01*
X3562067Y-38000500D01*
X3747821Y-37985108D01*
X3988881Y-37924063D01*
X4216607Y-37824173D01*
X4424785Y-37688164D01*
X4607738Y-37519744D01*
X4760474Y-37323509D01*
X4878828Y-37104810D01*
X4959571Y-36869614D01*
X5000500Y-36624335D01*
X5000500Y-36375665D01*
X4959571Y-36130386D01*
X4878828Y-35895190D01*
X4760474Y-35676491D01*
X4607738Y-35480256D01*
X4603970Y-35476787D01*
X4603967Y-35476784D01*
X4428560Y-35315311D01*
X4428559Y-35315310D01*
X4424785Y-35311836D01*
X4416885Y-35306675D01*
X4220900Y-35178631D01*
X4220893Y-35178627D01*
X4216607Y-35175827D01*
X4211916Y-35173769D01*
X4211910Y-35173766D01*
X3993577Y-35077997D01*
X3993578Y-35077997D01*
X3988881Y-35075937D01*
X3983911Y-35074678D01*
X3983910Y-35074678D01*
X3752795Y-35016151D01*
X3752788Y-35016149D01*
X3747821Y-35014892D01*
X3742709Y-35014468D01*
X3742701Y-35014467D01*
X3695285Y-35010538D01*
X14630000Y-35010538D01*
X14630298Y-35016622D01*
X14644594Y-35161771D01*
X14646960Y-35173666D01*
X14703464Y-35359934D01*
X14708103Y-35371134D01*
X14799857Y-35542795D01*
X14806599Y-35552884D01*
X14930082Y-35703348D01*
X14938651Y-35711917D01*
X15089115Y-35835400D01*
X15099204Y-35842142D01*
X15270865Y-35933896D01*
X15282065Y-35938535D01*
X15416102Y-35979195D01*
X15427387Y-35979888D01*
X15430000Y-35968887D01*
X15930000Y-35968887D01*
X15932612Y-35979888D01*
X15943897Y-35979195D01*
X16077934Y-35938535D01*
X16089134Y-35933896D01*
X16260795Y-35842142D01*
X16270884Y-35835400D01*
X16421348Y-35711917D01*
X16429917Y-35703348D01*
X16553400Y-35552884D01*
X16560142Y-35542795D01*
X16651896Y-35371134D01*
X16656535Y-35359934D01*
X16713039Y-35173666D01*
X16715405Y-35161771D01*
X16729701Y-35016622D01*
X16730000Y-35010538D01*
X16730000Y-34828326D01*
X16726549Y-34815450D01*
X16713674Y-34812000D01*
X15946326Y-34812000D01*
X15933450Y-34815450D01*
X15930000Y-34828326D01*
X15930000Y-35968887D01*
X15430000Y-35968887D01*
X15430000Y-34828326D01*
X15426549Y-34815450D01*
X15413674Y-34812000D01*
X14646326Y-34812000D01*
X14633450Y-34815450D01*
X14630000Y-34828326D01*
X14630000Y-35010538D01*
X3695285Y-35010538D01*
X3564633Y-34999712D01*
X3564617Y-34999711D01*
X3562067Y-34999500D01*
X3437933Y-34999500D01*
X3435383Y-34999711D01*
X3435366Y-34999712D01*
X3257298Y-35014467D01*
X3257288Y-35014468D01*
X3252179Y-35014892D01*
X3247213Y-35016149D01*
X3247204Y-35016151D01*
X3016089Y-35074678D01*
X3016084Y-35074679D01*
X3011119Y-35075937D01*
X3006425Y-35077995D01*
X3006422Y-35077997D01*
X2788089Y-35173766D01*
X2788077Y-35173772D01*
X2783393Y-35175827D01*
X2779111Y-35178624D01*
X2779099Y-35178631D01*
X2579512Y-35309028D01*
X2579506Y-35309031D01*
X2575215Y-35311836D01*
X2571446Y-35315305D01*
X2571439Y-35315311D01*
X2396032Y-35476784D01*
X2396023Y-35476793D01*
X2392262Y-35480256D01*
X2389113Y-35484301D01*
X2389111Y-35484304D01*
X2242678Y-35672440D01*
X2242672Y-35672448D01*
X2239526Y-35676491D01*
X2237088Y-35680995D01*
X2237084Y-35681002D01*
X2123610Y-35890683D01*
X2123605Y-35890693D01*
X2121172Y-35895190D01*
X2119511Y-35900026D01*
X2119507Y-35900037D01*
X2042094Y-36125534D01*
X2042092Y-36125541D01*
X2040429Y-36130386D01*
X2039585Y-36135441D01*
X2039585Y-36135443D01*
X2000344Y-36370601D01*
X2000343Y-36370613D01*
X1999500Y-36375665D01*
X1999500Y-36624335D01*
X500Y-36624335D01*
X500Y-34295674D01*
X14630000Y-34295674D01*
X14633450Y-34308549D01*
X14646326Y-34312000D01*
X15413674Y-34312000D01*
X15426549Y-34308549D01*
X15430000Y-34295674D01*
X15930000Y-34295674D01*
X15933450Y-34308549D01*
X15946326Y-34312000D01*
X16713674Y-34312000D01*
X16726549Y-34308549D01*
X16730000Y-34295674D01*
X16730000Y-34113462D01*
X16729701Y-34107377D01*
X16715405Y-33962228D01*
X16713039Y-33950333D01*
X16656535Y-33764065D01*
X16651896Y-33752865D01*
X16560142Y-33581204D01*
X16553400Y-33571115D01*
X16429917Y-33420651D01*
X16421348Y-33412082D01*
X16270884Y-33288599D01*
X16260795Y-33281857D01*
X16089134Y-33190103D01*
X16077934Y-33185464D01*
X15943897Y-33144804D01*
X15932612Y-33144111D01*
X15930000Y-33155113D01*
X15930000Y-34295674D01*
X15430000Y-34295674D01*
X15430000Y-33155113D01*
X15427387Y-33144111D01*
X15416102Y-33144804D01*
X15282065Y-33185464D01*
X15270865Y-33190103D01*
X15099204Y-33281857D01*
X15089115Y-33288599D01*
X14938651Y-33412082D01*
X14930082Y-33420651D01*
X14806599Y-33571115D01*
X14799857Y-33581204D01*
X14708103Y-33752865D01*
X14703464Y-33764065D01*
X14646960Y-33950333D01*
X14644594Y-33962228D01*
X14630298Y-34107377D01*
X14630000Y-34113462D01*
X14630000Y-34295674D01*
X500Y-34295674D01*
X500Y-29465000D01*
X2404785Y-29465000D01*
X2423603Y-29668083D01*
X2425171Y-29673594D01*
X2425173Y-29673604D01*
X2477847Y-29858731D01*
X2477849Y-29858737D01*
X2479418Y-29864250D01*
X2570327Y-30046821D01*
X2573779Y-30051392D01*
X2689778Y-30205001D01*
X2689783Y-30205006D01*
X2693236Y-30209579D01*
X2697472Y-30213440D01*
X2697476Y-30213445D01*
X2799227Y-30306203D01*
X2843959Y-30346981D01*
X3017363Y-30454348D01*
X3207544Y-30528024D01*
X3408024Y-30565500D01*
X3606247Y-30565500D01*
X3611976Y-30565500D01*
X3812456Y-30528024D01*
X4002637Y-30454348D01*
X4176041Y-30346981D01*
X4326764Y-30209579D01*
X4449673Y-30046821D01*
X4540582Y-29864250D01*
X4596397Y-29668083D01*
X4615215Y-29465000D01*
X4944785Y-29465000D01*
X4963603Y-29668083D01*
X4965171Y-29673594D01*
X4965173Y-29673604D01*
X5017847Y-29858731D01*
X5017849Y-29858737D01*
X5019418Y-29864250D01*
X5110327Y-30046821D01*
X5113779Y-30051392D01*
X5229778Y-30205001D01*
X5229783Y-30205006D01*
X5233236Y-30209579D01*
X5237472Y-30213440D01*
X5237476Y-30213445D01*
X5339227Y-30306203D01*
X5383959Y-30346981D01*
X5557363Y-30454348D01*
X5747544Y-30528024D01*
X5948024Y-30565500D01*
X6146247Y-30565500D01*
X6151976Y-30565500D01*
X6352456Y-30528024D01*
X6542637Y-30454348D01*
X6716041Y-30346981D01*
X6866764Y-30209579D01*
X6989673Y-30046821D01*
X7080582Y-29864250D01*
X7136397Y-29668083D01*
X7155215Y-29465000D01*
X7136397Y-29261917D01*
X7080582Y-29065750D01*
X6989673Y-28883179D01*
X6941176Y-28818959D01*
X6870221Y-28724998D01*
X6870217Y-28724994D01*
X6866764Y-28720421D01*
X6862527Y-28716558D01*
X6862523Y-28716554D01*
X6720275Y-28586879D01*
X6720276Y-28586879D01*
X6716041Y-28583019D01*
X6711171Y-28580004D01*
X6711169Y-28580002D01*
X6547511Y-28478670D01*
X6547512Y-28478670D01*
X6542637Y-28475652D01*
X6537294Y-28473582D01*
X6357803Y-28404047D01*
X6357798Y-28404045D01*
X6352456Y-28401976D01*
X6295168Y-28391267D01*
X6157605Y-28365552D01*
X6157602Y-28365551D01*
X6151976Y-28364500D01*
X5948024Y-28364500D01*
X5942398Y-28365551D01*
X5942394Y-28365552D01*
X5753181Y-28400922D01*
X5753178Y-28400922D01*
X5747544Y-28401976D01*
X5742203Y-28404044D01*
X5742196Y-28404047D01*
X5562705Y-28473582D01*
X5562700Y-28473584D01*
X5557363Y-28475652D01*
X5552491Y-28478668D01*
X5552488Y-28478670D01*
X5388830Y-28580002D01*
X5388822Y-28580007D01*
X5383959Y-28583019D01*
X5379728Y-28586875D01*
X5379724Y-28586879D01*
X5237476Y-28716554D01*
X5237466Y-28716564D01*
X5233236Y-28720421D01*
X5229787Y-28724987D01*
X5229778Y-28724998D01*
X5113779Y-28878607D01*
X5113776Y-28878611D01*
X5110327Y-28883179D01*
X5107774Y-28888304D01*
X5107772Y-28888309D01*
X5021976Y-29060612D01*
X5019418Y-29065750D01*
X5017850Y-29071258D01*
X5017847Y-29071268D01*
X4965173Y-29256395D01*
X4965170Y-29256406D01*
X4963603Y-29261917D01*
X4944785Y-29465000D01*
X4615215Y-29465000D01*
X4596397Y-29261917D01*
X4540582Y-29065750D01*
X4449673Y-28883179D01*
X4401176Y-28818959D01*
X4330221Y-28724998D01*
X4330217Y-28724994D01*
X4326764Y-28720421D01*
X4322527Y-28716558D01*
X4322523Y-28716554D01*
X4180275Y-28586879D01*
X4180276Y-28586879D01*
X4176041Y-28583019D01*
X4171171Y-28580004D01*
X4171169Y-28580002D01*
X4007511Y-28478670D01*
X4007512Y-28478670D01*
X4002637Y-28475652D01*
X3997294Y-28473582D01*
X3817803Y-28404047D01*
X3817798Y-28404045D01*
X3812456Y-28401976D01*
X3755168Y-28391267D01*
X3617605Y-28365552D01*
X3617602Y-28365551D01*
X3611976Y-28364500D01*
X3408024Y-28364500D01*
X3402398Y-28365551D01*
X3402394Y-28365552D01*
X3213181Y-28400922D01*
X3213178Y-28400922D01*
X3207544Y-28401976D01*
X3202203Y-28404044D01*
X3202196Y-28404047D01*
X3022705Y-28473582D01*
X3022700Y-28473584D01*
X3017363Y-28475652D01*
X3012491Y-28478668D01*
X3012488Y-28478670D01*
X2848830Y-28580002D01*
X2848822Y-28580007D01*
X2843959Y-28583019D01*
X2839728Y-28586875D01*
X2839724Y-28586879D01*
X2697476Y-28716554D01*
X2697466Y-28716564D01*
X2693236Y-28720421D01*
X2689787Y-28724987D01*
X2689778Y-28724998D01*
X2573779Y-28878607D01*
X2573776Y-28878611D01*
X2570327Y-28883179D01*
X2567774Y-28888304D01*
X2567772Y-28888309D01*
X2481976Y-29060612D01*
X2479418Y-29065750D01*
X2477850Y-29071258D01*
X2477847Y-29071268D01*
X2425173Y-29256395D01*
X2425170Y-29256406D01*
X2423603Y-29261917D01*
X2404785Y-29465000D01*
X500Y-29465000D01*
X500Y-20917551D01*
X892688Y-20917551D01*
X893056Y-20928780D01*
X945168Y-21123263D01*
X948856Y-21133397D01*
X1044113Y-21337676D01*
X1049501Y-21347008D01*
X1178784Y-21531643D01*
X1185721Y-21539909D01*
X1345090Y-21699278D01*
X1353356Y-21706215D01*
X1537991Y-21835498D01*
X1547323Y-21840886D01*
X1751602Y-21936143D01*
X1761736Y-21939831D01*
X1956219Y-21991943D01*
X1967448Y-21992311D01*
X1970000Y-21981369D01*
X1970000Y-20931326D01*
X1966549Y-20918450D01*
X1953674Y-20915000D01*
X903631Y-20915000D01*
X892688Y-20917551D01*
X500Y-20917551D01*
X500Y-20412448D01*
X892688Y-20412448D01*
X903631Y-20415000D01*
X2346000Y-20415000D01*
X2408000Y-20431613D01*
X2453387Y-20477000D01*
X2470000Y-20539000D01*
X2470000Y-21981369D01*
X2472551Y-21992311D01*
X2483780Y-21991943D01*
X2678263Y-21939831D01*
X2688397Y-21936143D01*
X2892676Y-21840886D01*
X2902010Y-21835497D01*
X2929375Y-21816336D01*
X2992389Y-21794176D01*
X3057756Y-21807920D01*
X3106509Y-21853582D01*
X3124500Y-21917910D01*
X3124500Y-25809204D01*
X3114693Y-25857537D01*
X3086821Y-25898224D01*
X3045296Y-25924830D01*
X3022708Y-25933580D01*
X3022695Y-25933586D01*
X3017363Y-25935652D01*
X3012491Y-25938668D01*
X3012488Y-25938670D01*
X2848830Y-26040002D01*
X2848822Y-26040007D01*
X2843959Y-26043019D01*
X2839728Y-26046875D01*
X2839724Y-26046879D01*
X2697476Y-26176554D01*
X2697466Y-26176564D01*
X2693236Y-26180421D01*
X2689787Y-26184987D01*
X2689778Y-26184998D01*
X2573779Y-26338607D01*
X2573776Y-26338611D01*
X2570327Y-26343179D01*
X2567774Y-26348304D01*
X2567772Y-26348309D01*
X2496826Y-26490789D01*
X2479418Y-26525750D01*
X2477850Y-26531258D01*
X2477847Y-26531268D01*
X2425173Y-26716395D01*
X2425170Y-26716406D01*
X2423603Y-26721917D01*
X2423073Y-26727627D01*
X2423073Y-26727632D01*
X2405314Y-26919291D01*
X2404785Y-26925000D01*
X2405314Y-26930709D01*
X2421000Y-27100000D01*
X2423603Y-27128083D01*
X2425171Y-27133594D01*
X2425173Y-27133604D01*
X2477847Y-27318731D01*
X2477849Y-27318737D01*
X2479418Y-27324250D01*
X2570327Y-27506821D01*
X2573779Y-27511392D01*
X2689778Y-27665001D01*
X2689783Y-27665006D01*
X2693236Y-27669579D01*
X2697472Y-27673440D01*
X2697476Y-27673445D01*
X2750412Y-27721702D01*
X2843959Y-27806981D01*
X3017363Y-27914348D01*
X3207544Y-27988024D01*
X3408024Y-28025500D01*
X3606247Y-28025500D01*
X3611976Y-28025500D01*
X3812456Y-27988024D01*
X4002637Y-27914348D01*
X4176041Y-27806981D01*
X4326764Y-27669579D01*
X4449673Y-27506821D01*
X4540582Y-27324250D01*
X4596397Y-27128083D01*
X4615215Y-26925000D01*
X4596397Y-26721917D01*
X4540582Y-26525750D01*
X4449673Y-26343179D01*
X4401176Y-26278959D01*
X4330221Y-26184998D01*
X4330217Y-26184994D01*
X4326764Y-26180421D01*
X4322527Y-26176558D01*
X4322523Y-26176554D01*
X4180275Y-26046879D01*
X4180276Y-26046879D01*
X4176041Y-26043019D01*
X4171171Y-26040004D01*
X4171169Y-26040002D01*
X4007511Y-25938670D01*
X4007512Y-25938670D01*
X4002637Y-25935652D01*
X3997295Y-25933582D01*
X3997288Y-25933579D01*
X3954705Y-25917082D01*
X3913179Y-25890477D01*
X3885308Y-25849789D01*
X3875500Y-25801456D01*
X3875500Y-21628662D01*
X3888500Y-21573390D01*
X3924774Y-21529708D01*
X3976716Y-21506773D01*
X4033435Y-21509396D01*
X4083038Y-21537025D01*
X4093959Y-21546981D01*
X4267363Y-21654348D01*
X4457544Y-21728024D01*
X4658024Y-21765500D01*
X4856247Y-21765500D01*
X4861976Y-21765500D01*
X4867613Y-21764446D01*
X4867615Y-21764446D01*
X4959898Y-21747195D01*
X5019363Y-21750632D01*
X5070365Y-21781402D01*
X5638181Y-22349218D01*
X5665061Y-22389446D01*
X5674500Y-22436899D01*
X5674500Y-25700500D01*
X5657887Y-25762500D01*
X5612500Y-25807887D01*
X5550500Y-25824500D01*
X5175326Y-25824500D01*
X5169351Y-25825688D01*
X5169346Y-25825689D01*
X5114240Y-25836650D01*
X5114235Y-25836651D01*
X5102260Y-25839034D01*
X5092105Y-25845819D01*
X5092103Y-25845820D01*
X5029551Y-25887615D01*
X5029548Y-25887617D01*
X5019399Y-25894399D01*
X5012617Y-25904548D01*
X5012615Y-25904551D01*
X4970820Y-25967103D01*
X4970819Y-25967105D01*
X4964034Y-25977260D01*
X4961651Y-25989235D01*
X4961650Y-25989240D01*
X4950689Y-26044346D01*
X4950688Y-26044351D01*
X4949500Y-26050326D01*
X4949500Y-27799674D01*
X4950688Y-27805649D01*
X4950689Y-27805653D01*
X4961650Y-27860759D01*
X4961651Y-27860762D01*
X4964034Y-27872740D01*
X5019399Y-27955601D01*
X5102260Y-28010966D01*
X5175326Y-28025500D01*
X6918579Y-28025500D01*
X6924674Y-28025500D01*
X6997740Y-28010966D01*
X7080601Y-27955601D01*
X7135966Y-27872740D01*
X7150500Y-27799674D01*
X7150500Y-26050326D01*
X7135966Y-25977260D01*
X7080601Y-25894399D01*
X6997740Y-25839034D01*
X6985762Y-25836651D01*
X6985759Y-25836650D01*
X6930653Y-25825689D01*
X6930649Y-25825688D01*
X6924674Y-25824500D01*
X6918579Y-25824500D01*
X6549500Y-25824500D01*
X6487500Y-25807887D01*
X6442113Y-25762500D01*
X6425500Y-25700500D01*
X6425500Y-22281805D01*
X6428140Y-22256356D01*
X6428258Y-22255790D01*
X6428258Y-22255789D01*
X6430367Y-22245732D01*
X6426451Y-22214323D01*
X6426128Y-22209113D01*
X6425924Y-22209130D01*
X6425500Y-22204018D01*
X6425500Y-22198886D01*
X6422074Y-22178362D01*
X6421341Y-22173326D01*
X6416137Y-22131572D01*
X6414866Y-22121374D01*
X6411373Y-22114229D01*
X6410065Y-22106390D01*
X6385158Y-22060366D01*
X6382837Y-22055859D01*
X6359826Y-22008789D01*
X6354202Y-22003165D01*
X6350419Y-21996174D01*
X6342858Y-21989214D01*
X6342857Y-21989212D01*
X6311917Y-21960730D01*
X6308219Y-21957182D01*
X5728915Y-21377877D01*
X5700969Y-21334990D01*
X5692728Y-21284469D01*
X5705594Y-21234928D01*
X5790582Y-21064250D01*
X5846397Y-20868083D01*
X5865215Y-20665000D01*
X6194785Y-20665000D01*
X6213603Y-20868083D01*
X6215171Y-20873594D01*
X6215173Y-20873604D01*
X6267847Y-21058731D01*
X6267849Y-21058737D01*
X6269418Y-21064250D01*
X6360327Y-21246821D01*
X6363779Y-21251392D01*
X6479778Y-21405001D01*
X6479783Y-21405006D01*
X6483236Y-21409579D01*
X6487472Y-21413440D01*
X6487476Y-21413445D01*
X6589227Y-21506203D01*
X6633959Y-21546981D01*
X6807363Y-21654348D01*
X6812709Y-21656419D01*
X6812711Y-21656420D01*
X6845295Y-21669044D01*
X6886821Y-21695650D01*
X6914692Y-21736337D01*
X6924500Y-21784670D01*
X6924500Y-23148195D01*
X6921860Y-23173644D01*
X6921741Y-23174209D01*
X6921740Y-23174216D01*
X6919633Y-23184268D01*
X6920903Y-23194458D01*
X6920903Y-23194462D01*
X6923548Y-23215676D01*
X6923871Y-23220891D01*
X6924077Y-23220874D01*
X6924500Y-23225981D01*
X6924500Y-23231114D01*
X6925344Y-23236172D01*
X6925345Y-23236184D01*
X6927918Y-23251603D01*
X6928657Y-23256670D01*
X6929550Y-23263832D01*
X6935134Y-23308626D01*
X6938626Y-23315770D01*
X6939935Y-23323610D01*
X6964845Y-23369641D01*
X6967171Y-23374161D01*
X6985660Y-23411979D01*
X6985661Y-23411981D01*
X6990174Y-23421211D01*
X6995797Y-23426834D01*
X6999581Y-23433826D01*
X7007138Y-23440782D01*
X7007139Y-23440784D01*
X7038082Y-23469269D01*
X7041780Y-23472817D01*
X19997850Y-36428887D01*
X20013974Y-36448741D01*
X20019916Y-36457836D01*
X20028018Y-36464142D01*
X20028021Y-36464145D01*
X20044894Y-36477277D01*
X20048808Y-36480734D01*
X20048942Y-36480577D01*
X20052848Y-36483885D01*
X20056482Y-36487519D01*
X20072202Y-36498742D01*
X20073389Y-36499590D01*
X20077500Y-36502655D01*
X20118811Y-36534809D01*
X20126331Y-36537390D01*
X20132801Y-36542010D01*
X20182940Y-36556937D01*
X20187822Y-36558501D01*
X20213109Y-36567181D01*
X20237340Y-36575500D01*
X20245293Y-36575500D01*
X20252911Y-36577768D01*
X20305191Y-36575606D01*
X20310315Y-36575500D01*
X31237305Y-36575500D01*
X31293600Y-36589015D01*
X31337623Y-36626615D01*
X31359778Y-36680102D01*
X31355236Y-36737818D01*
X31326558Y-36784615D01*
X31319399Y-36789399D01*
X31312617Y-36799548D01*
X31312615Y-36799551D01*
X31270820Y-36862103D01*
X31270819Y-36862105D01*
X31264034Y-36872260D01*
X31261651Y-36884235D01*
X31261650Y-36884240D01*
X31250689Y-36939346D01*
X31250688Y-36939351D01*
X31249500Y-36945326D01*
X31249500Y-37994674D01*
X31250688Y-38000649D01*
X31250689Y-38000653D01*
X31261650Y-38055759D01*
X31261651Y-38055762D01*
X31264034Y-38067740D01*
X31319399Y-38150601D01*
X31402260Y-38205966D01*
X31475326Y-38220500D01*
X32518579Y-38220500D01*
X32524674Y-38220500D01*
X32597740Y-38205966D01*
X32680601Y-38150601D01*
X32735966Y-38067740D01*
X32750500Y-37994674D01*
X32750500Y-36945326D01*
X32735966Y-36872260D01*
X32680601Y-36789399D01*
X32670448Y-36782615D01*
X32670445Y-36782612D01*
X32664930Y-36778927D01*
X32623127Y-36731706D01*
X32609958Y-36670030D01*
X32624288Y-36624335D01*
X34999500Y-36624335D01*
X35000343Y-36629387D01*
X35000344Y-36629398D01*
X35028738Y-36799551D01*
X35040429Y-36869614D01*
X35042093Y-36874461D01*
X35042094Y-36874465D01*
X35119507Y-37099962D01*
X35119510Y-37099969D01*
X35121172Y-37104810D01*
X35123607Y-37109310D01*
X35123610Y-37109316D01*
X35179766Y-37213082D01*
X35239526Y-37323509D01*
X35392262Y-37519744D01*
X35396029Y-37523211D01*
X35396032Y-37523215D01*
X35571439Y-37684688D01*
X35575215Y-37688164D01*
X35671903Y-37751333D01*
X35779099Y-37821368D01*
X35779102Y-37821369D01*
X35783393Y-37824173D01*
X36011119Y-37924063D01*
X36252179Y-37985108D01*
X36437933Y-38000500D01*
X36559497Y-38000500D01*
X36562067Y-38000500D01*
X36747821Y-37985108D01*
X36988881Y-37924063D01*
X37216607Y-37824173D01*
X37424785Y-37688164D01*
X37607738Y-37519744D01*
X37760474Y-37323509D01*
X37878828Y-37104810D01*
X37959571Y-36869614D01*
X38000500Y-36624335D01*
X38000500Y-36375665D01*
X37959571Y-36130386D01*
X37878828Y-35895190D01*
X37760474Y-35676491D01*
X37607738Y-35480256D01*
X37603970Y-35476787D01*
X37603967Y-35476784D01*
X37428560Y-35315311D01*
X37428559Y-35315310D01*
X37424785Y-35311836D01*
X37416885Y-35306675D01*
X37220900Y-35178631D01*
X37220893Y-35178627D01*
X37216607Y-35175827D01*
X37211916Y-35173769D01*
X37211910Y-35173766D01*
X36993577Y-35077997D01*
X36993578Y-35077997D01*
X36988881Y-35075937D01*
X36983911Y-35074678D01*
X36983910Y-35074678D01*
X36752795Y-35016151D01*
X36752788Y-35016149D01*
X36747821Y-35014892D01*
X36742709Y-35014468D01*
X36742701Y-35014467D01*
X36564633Y-34999712D01*
X36564617Y-34999711D01*
X36562067Y-34999500D01*
X36437933Y-34999500D01*
X36435383Y-34999711D01*
X36435366Y-34999712D01*
X36257298Y-35014467D01*
X36257288Y-35014468D01*
X36252179Y-35014892D01*
X36247213Y-35016149D01*
X36247204Y-35016151D01*
X36016089Y-35074678D01*
X36016084Y-35074679D01*
X36011119Y-35075937D01*
X36006425Y-35077995D01*
X36006422Y-35077997D01*
X35788089Y-35173766D01*
X35788077Y-35173772D01*
X35783393Y-35175827D01*
X35779111Y-35178624D01*
X35779099Y-35178631D01*
X35579512Y-35309028D01*
X35579506Y-35309031D01*
X35575215Y-35311836D01*
X35571446Y-35315305D01*
X35571439Y-35315311D01*
X35396032Y-35476784D01*
X35396023Y-35476793D01*
X35392262Y-35480256D01*
X35389113Y-35484301D01*
X35389111Y-35484304D01*
X35242678Y-35672440D01*
X35242672Y-35672448D01*
X35239526Y-35676491D01*
X35237088Y-35680995D01*
X35237084Y-35681002D01*
X35123610Y-35890683D01*
X35123605Y-35890693D01*
X35121172Y-35895190D01*
X35119511Y-35900026D01*
X35119507Y-35900037D01*
X35042094Y-36125534D01*
X35042092Y-36125541D01*
X35040429Y-36130386D01*
X35039585Y-36135441D01*
X35039585Y-36135443D01*
X35000344Y-36370601D01*
X35000343Y-36370613D01*
X34999500Y-36375665D01*
X34999500Y-36624335D01*
X32624288Y-36624335D01*
X32628829Y-36609853D01*
X32680456Y-36527690D01*
X32736313Y-36368059D01*
X32755249Y-36200000D01*
X32755401Y-36200017D01*
X32763908Y-36157253D01*
X32790788Y-36117025D01*
X34595813Y-34312000D01*
X36406430Y-32501382D01*
X36417036Y-32492836D01*
X36416961Y-32492749D01*
X36423667Y-32486937D01*
X36431128Y-32482143D01*
X36463653Y-32444604D01*
X36469674Y-32438139D01*
X36479221Y-32428593D01*
X36487318Y-32417775D01*
X36492855Y-32410903D01*
X36525377Y-32373373D01*
X36529062Y-32365301D01*
X36533855Y-32357845D01*
X36533954Y-32357908D01*
X36534330Y-32357274D01*
X36534228Y-32357219D01*
X36538478Y-32349433D01*
X36543796Y-32342331D01*
X36561155Y-32295787D01*
X36564526Y-32287647D01*
X36585165Y-32242457D01*
X36586427Y-32233675D01*
X36588925Y-32225169D01*
X36589037Y-32225202D01*
X36589220Y-32224484D01*
X36589106Y-32224460D01*
X36590990Y-32215793D01*
X36594091Y-32207483D01*
X36597633Y-32157949D01*
X36598578Y-32149162D01*
X36600500Y-32135799D01*
X36600500Y-32122308D01*
X36600816Y-32113461D01*
X36603726Y-32072773D01*
X36604359Y-32063927D01*
X36602473Y-32055260D01*
X36601841Y-32046414D01*
X36601956Y-32046405D01*
X36600500Y-32032856D01*
X36600500Y-9067144D01*
X36601956Y-9053594D01*
X36601841Y-9053586D01*
X36602473Y-9044739D01*
X36604359Y-9036073D01*
X36600815Y-8986538D01*
X36600500Y-8977692D01*
X36600500Y-8968636D01*
X36600500Y-8964201D01*
X36598578Y-8950837D01*
X36597633Y-8942046D01*
X36594091Y-8892517D01*
X36590990Y-8884204D01*
X36589106Y-8875540D01*
X36589220Y-8875515D01*
X36589037Y-8874798D01*
X36588925Y-8874832D01*
X36586427Y-8866326D01*
X36585165Y-8857543D01*
X36564530Y-8812360D01*
X36561159Y-8804222D01*
X36543796Y-8757669D01*
X36538478Y-8750565D01*
X36534230Y-8742785D01*
X36534332Y-8742729D01*
X36533953Y-8742090D01*
X36533855Y-8742154D01*
X36529061Y-8734694D01*
X36525377Y-8726627D01*
X36519570Y-8719925D01*
X36519566Y-8719919D01*
X36492860Y-8689099D01*
X36487306Y-8682207D01*
X36485197Y-8679390D01*
X36479221Y-8671407D01*
X36469676Y-8661862D01*
X36463658Y-8655400D01*
X36431128Y-8617857D01*
X36423668Y-8613063D01*
X36416963Y-8607252D01*
X36417038Y-8607164D01*
X36406427Y-8598613D01*
X31432149Y-3624335D01*
X34999500Y-3624335D01*
X35000343Y-3629387D01*
X35000344Y-3629398D01*
X35038952Y-3860768D01*
X35040429Y-3869614D01*
X35042093Y-3874461D01*
X35042094Y-3874465D01*
X35119507Y-4099962D01*
X35119510Y-4099969D01*
X35121172Y-4104810D01*
X35123607Y-4109310D01*
X35123610Y-4109316D01*
X35228153Y-4302494D01*
X35239526Y-4323509D01*
X35392262Y-4519744D01*
X35396029Y-4523211D01*
X35396032Y-4523215D01*
X35487533Y-4607447D01*
X35575215Y-4688164D01*
X35602895Y-4706248D01*
X35779099Y-4821368D01*
X35779102Y-4821369D01*
X35783393Y-4824173D01*
X36011119Y-4924063D01*
X36252179Y-4985108D01*
X36437933Y-5000500D01*
X36559497Y-5000500D01*
X36562067Y-5000500D01*
X36747821Y-4985108D01*
X36988881Y-4924063D01*
X37216607Y-4824173D01*
X37424785Y-4688164D01*
X37607738Y-4519744D01*
X37760474Y-4323509D01*
X37878828Y-4104810D01*
X37959571Y-3869614D01*
X38000500Y-3624335D01*
X38000500Y-3375665D01*
X37959571Y-3130386D01*
X37878828Y-2895190D01*
X37760474Y-2676491D01*
X37607738Y-2480256D01*
X37603970Y-2476787D01*
X37603967Y-2476784D01*
X37428560Y-2315311D01*
X37428559Y-2315310D01*
X37424785Y-2311836D01*
X37416885Y-2306675D01*
X37220900Y-2178631D01*
X37220893Y-2178627D01*
X37216607Y-2175827D01*
X37211916Y-2173769D01*
X37211910Y-2173766D01*
X36993577Y-2077997D01*
X36993578Y-2077997D01*
X36988881Y-2075937D01*
X36983911Y-2074678D01*
X36983910Y-2074678D01*
X36752795Y-2016151D01*
X36752788Y-2016149D01*
X36747821Y-2014892D01*
X36742709Y-2014468D01*
X36742701Y-2014467D01*
X36564633Y-1999712D01*
X36564617Y-1999711D01*
X36562067Y-1999500D01*
X36437933Y-1999500D01*
X36435383Y-1999711D01*
X36435366Y-1999712D01*
X36257298Y-2014467D01*
X36257288Y-2014468D01*
X36252179Y-2014892D01*
X36247213Y-2016149D01*
X36247204Y-2016151D01*
X36016089Y-2074678D01*
X36016084Y-2074679D01*
X36011119Y-2075937D01*
X36006425Y-2077995D01*
X36006422Y-2077997D01*
X35788089Y-2173766D01*
X35788077Y-2173772D01*
X35783393Y-2175827D01*
X35779111Y-2178624D01*
X35779099Y-2178631D01*
X35579512Y-2309028D01*
X35579506Y-2309031D01*
X35575215Y-2311836D01*
X35571446Y-2315305D01*
X35571439Y-2315311D01*
X35396032Y-2476784D01*
X35396023Y-2476793D01*
X35392262Y-2480256D01*
X35389113Y-2484301D01*
X35389111Y-2484304D01*
X35242678Y-2672440D01*
X35242672Y-2672448D01*
X35239526Y-2676491D01*
X35237088Y-2680995D01*
X35237084Y-2681002D01*
X35123610Y-2890683D01*
X35123605Y-2890693D01*
X35121172Y-2895190D01*
X35119511Y-2900026D01*
X35119507Y-2900037D01*
X35042094Y-3125534D01*
X35042092Y-3125541D01*
X35040429Y-3130386D01*
X35039585Y-3135441D01*
X35039585Y-3135443D01*
X35000344Y-3370601D01*
X35000343Y-3370613D01*
X34999500Y-3375665D01*
X34999500Y-3624335D01*
X31432149Y-3624335D01*
X31001385Y-3193571D01*
X30992835Y-3182961D01*
X30992748Y-3183037D01*
X30986934Y-3176328D01*
X30982143Y-3168872D01*
X30975444Y-3163067D01*
X30975442Y-3163065D01*
X30944615Y-3136354D01*
X30938136Y-3130322D01*
X30931730Y-3123916D01*
X30928593Y-3120779D01*
X30917785Y-3112688D01*
X30910907Y-3107147D01*
X30873373Y-3074623D01*
X30865307Y-3070939D01*
X30857845Y-3066143D01*
X30857907Y-3066046D01*
X30857267Y-3065666D01*
X30857212Y-3065768D01*
X30849431Y-3061519D01*
X30842331Y-3056204D01*
X30834023Y-3053105D01*
X30834021Y-3053104D01*
X30795790Y-3038845D01*
X30787613Y-3035457D01*
X30750527Y-3018520D01*
X30750524Y-3018519D01*
X30742457Y-3014835D01*
X30733676Y-3013572D01*
X30725171Y-3011075D01*
X30725203Y-3010964D01*
X30724479Y-3010779D01*
X30724455Y-3010892D01*
X30715789Y-3009006D01*
X30707483Y-3005909D01*
X30698642Y-3005276D01*
X30698640Y-3005276D01*
X30657946Y-3002365D01*
X30649155Y-3001420D01*
X30635799Y-2999500D01*
X30631370Y-2999500D01*
X30622308Y-2999500D01*
X30613461Y-2999184D01*
X30572773Y-2996273D01*
X30572767Y-2996273D01*
X30563927Y-2995641D01*
X30555262Y-2997525D01*
X30546414Y-2998159D01*
X30546405Y-2998043D01*
X30532856Y-2999500D01*
X24956519Y-2999500D01*
X24909066Y-2990061D01*
X24868837Y-2963180D01*
X24841957Y-2922951D01*
X24838349Y-2914241D01*
X24835966Y-2902260D01*
X24780601Y-2819399D01*
X24697740Y-2764034D01*
X24685762Y-2761651D01*
X24685759Y-2761650D01*
X24630653Y-2750689D01*
X24630649Y-2750688D01*
X24624674Y-2749500D01*
X23575326Y-2749500D01*
X23569351Y-2750688D01*
X23569346Y-2750689D01*
X23514240Y-2761650D01*
X23514235Y-2761651D01*
X23502260Y-2764034D01*
X23492105Y-2770819D01*
X23492103Y-2770820D01*
X23429551Y-2812615D01*
X23429548Y-2812617D01*
X23419399Y-2819399D01*
X23412617Y-2829548D01*
X23412615Y-2829551D01*
X23377397Y-2882260D01*
X23364034Y-2902260D01*
X23361650Y-2914239D01*
X23358043Y-2922951D01*
X23331163Y-2963180D01*
X23290934Y-2990061D01*
X23243481Y-2999500D01*
X21382229Y-2999500D01*
X21334776Y-2990061D01*
X21294548Y-2963181D01*
X21225818Y-2894451D01*
X21220890Y-2889523D01*
X21077690Y-2799544D01*
X21071124Y-2797246D01*
X21071121Y-2797245D01*
X20924633Y-2745987D01*
X20924630Y-2745986D01*
X20918059Y-2743687D01*
X20911142Y-2742907D01*
X20911135Y-2742906D01*
X20756923Y-2725531D01*
X20750000Y-2724751D01*
X20743077Y-2725531D01*
X20588864Y-2742906D01*
X20588855Y-2742907D01*
X20581941Y-2743687D01*
X20575371Y-2745985D01*
X20575366Y-2745987D01*
X20428878Y-2797245D01*
X20428872Y-2797247D01*
X20422310Y-2799544D01*
X20416419Y-2803245D01*
X20416418Y-2803246D01*
X20285010Y-2885815D01*
X20285005Y-2885818D01*
X20279110Y-2889523D01*
X20274185Y-2894447D01*
X20274181Y-2894451D01*
X20225452Y-2943181D01*
X20185224Y-2970061D01*
X20137771Y-2979500D01*
X18306519Y-2979500D01*
X18259066Y-2970061D01*
X18218837Y-2943180D01*
X18191957Y-2902951D01*
X18188349Y-2894240D01*
X18185966Y-2882260D01*
X18130601Y-2799399D01*
X18047740Y-2744034D01*
X18035762Y-2741651D01*
X18035759Y-2741650D01*
X17980653Y-2730689D01*
X17980649Y-2730688D01*
X17974674Y-2729500D01*
X16925326Y-2729500D01*
X16919351Y-2730688D01*
X16919346Y-2730689D01*
X16864240Y-2741650D01*
X16864235Y-2741651D01*
X16852260Y-2744034D01*
X16842105Y-2750819D01*
X16842103Y-2750820D01*
X16779551Y-2792615D01*
X16779548Y-2792617D01*
X16769399Y-2799399D01*
X16762617Y-2809548D01*
X16762615Y-2809551D01*
X16720820Y-2872103D01*
X16720819Y-2872105D01*
X16714034Y-2882260D01*
X16711651Y-2894235D01*
X16711650Y-2894240D01*
X16700689Y-2949346D01*
X16700688Y-2949351D01*
X16699500Y-2955326D01*
X16699500Y-4004674D01*
X16700688Y-4010648D01*
X16700689Y-4010654D01*
X16701429Y-4014373D01*
X16700093Y-4068689D01*
X16675664Y-4117220D01*
X16618373Y-4187029D01*
X16611633Y-4197117D01*
X16524520Y-4360094D01*
X16519883Y-4371287D01*
X16485054Y-4486103D01*
X16484361Y-4497387D01*
X16495363Y-4500000D01*
X18404637Y-4500000D01*
X18415638Y-4497387D01*
X18414945Y-4486103D01*
X18380116Y-4371287D01*
X18375479Y-4360094D01*
X18288366Y-4197117D01*
X18281626Y-4187029D01*
X18278454Y-4183164D01*
X18251240Y-4119678D01*
X18262214Y-4051483D01*
X18307969Y-3999738D01*
X18374308Y-3980500D01*
X20137771Y-3980500D01*
X20185224Y-3989939D01*
X20225452Y-4016819D01*
X20235952Y-4027319D01*
X20268046Y-4082906D01*
X20268046Y-4147094D01*
X20235952Y-4202681D01*
X20164451Y-4274181D01*
X20164447Y-4274185D01*
X20159523Y-4279110D01*
X20155818Y-4285005D01*
X20155815Y-4285010D01*
X20108605Y-4360145D01*
X20069544Y-4422310D01*
X20067247Y-4428872D01*
X20067245Y-4428878D01*
X20015987Y-4575366D01*
X20015985Y-4575371D01*
X20013687Y-4581941D01*
X20012907Y-4588855D01*
X20012906Y-4588864D01*
X19999169Y-4710788D01*
X19994751Y-4750000D01*
X19995531Y-4756923D01*
X20012906Y-4911135D01*
X20012907Y-4911142D01*
X20013687Y-4918059D01*
X20015986Y-4924630D01*
X20015987Y-4924633D01*
X20056180Y-5039500D01*
X20069544Y-5077690D01*
X20073245Y-5083580D01*
X20073246Y-5083582D01*
X20121171Y-5159854D01*
X20140041Y-5220029D01*
X20126873Y-5281704D01*
X20085072Y-5328925D01*
X20079555Y-5332611D01*
X20079548Y-5332617D01*
X20069399Y-5339399D01*
X20062617Y-5349548D01*
X20062615Y-5349551D01*
X20020820Y-5412103D01*
X20020819Y-5412105D01*
X20014034Y-5422260D01*
X20011651Y-5434235D01*
X20011650Y-5434240D01*
X20000689Y-5489346D01*
X20000688Y-5489351D01*
X19999500Y-5495326D01*
X19999500Y-6544674D01*
X20000688Y-6550649D01*
X20000689Y-6550653D01*
X20011650Y-6605759D01*
X20011651Y-6605762D01*
X20014034Y-6617740D01*
X20069399Y-6700601D01*
X20152260Y-6755966D01*
X20225326Y-6770500D01*
X21268579Y-6770500D01*
X21274674Y-6770500D01*
X21347740Y-6755966D01*
X21430601Y-6700601D01*
X21485966Y-6617740D01*
X21500500Y-6544674D01*
X21500500Y-5495326D01*
X21485966Y-5422260D01*
X21430601Y-5339399D01*
X21420448Y-5332615D01*
X21420445Y-5332612D01*
X21414930Y-5328927D01*
X21373127Y-5281706D01*
X21359958Y-5220030D01*
X21378829Y-5159853D01*
X21386488Y-5147664D01*
X21430456Y-5077690D01*
X21486313Y-4918059D01*
X21502996Y-4770000D01*
X21504469Y-4756923D01*
X21505249Y-4750000D01*
X21486313Y-4581941D01*
X21430456Y-4422310D01*
X21340477Y-4279110D01*
X21273548Y-4212181D01*
X21243298Y-4162818D01*
X21238756Y-4105102D01*
X21260911Y-4051615D01*
X21304934Y-4014015D01*
X21361229Y-4000500D01*
X23243481Y-4000500D01*
X23290934Y-4009939D01*
X23331163Y-4036820D01*
X23358043Y-4077049D01*
X23361650Y-4085759D01*
X23364034Y-4097740D01*
X23397011Y-4147094D01*
X23405967Y-4160499D01*
X23419399Y-4180601D01*
X23429551Y-4187384D01*
X23429553Y-4187386D01*
X23435068Y-4191071D01*
X23476871Y-4238291D01*
X23490042Y-4299967D01*
X23471171Y-4360144D01*
X23423248Y-4436413D01*
X23423246Y-4436418D01*
X23419544Y-4442310D01*
X23417247Y-4448872D01*
X23417245Y-4448878D01*
X23365987Y-4595366D01*
X23365985Y-4595371D01*
X23363687Y-4601941D01*
X23362907Y-4608855D01*
X23362906Y-4608864D01*
X23347075Y-4749370D01*
X23344751Y-4770000D01*
X23345531Y-4776923D01*
X23362906Y-4931135D01*
X23362907Y-4931142D01*
X23363687Y-4938059D01*
X23365986Y-4944630D01*
X23365987Y-4944633D01*
X23416524Y-5089061D01*
X23419544Y-5097690D01*
X23509523Y-5240890D01*
X23629110Y-5360477D01*
X23772310Y-5450456D01*
X23931941Y-5506313D01*
X24100000Y-5525249D01*
X24268059Y-5506313D01*
X24427690Y-5450456D01*
X24570890Y-5360477D01*
X24690477Y-5240890D01*
X24780456Y-5097690D01*
X24836313Y-4938059D01*
X24855249Y-4770000D01*
X24836313Y-4601941D01*
X24780456Y-4442310D01*
X24728827Y-4360144D01*
X24709957Y-4299967D01*
X24723129Y-4238290D01*
X24764934Y-4191069D01*
X24780601Y-4180601D01*
X24835966Y-4097740D01*
X24838349Y-4085758D01*
X24841957Y-4077049D01*
X24868837Y-4036820D01*
X24909066Y-4009939D01*
X24956519Y-4000500D01*
X30341324Y-4000500D01*
X30388777Y-4009939D01*
X30429005Y-4036819D01*
X35563181Y-9170995D01*
X35590061Y-9211223D01*
X35599500Y-9258676D01*
X35599500Y-31841324D01*
X35590061Y-31888777D01*
X35563181Y-31929005D01*
X32087680Y-35404504D01*
X32032093Y-35436598D01*
X31967905Y-35436598D01*
X31912318Y-35404504D01*
X28837814Y-32330000D01*
X31244751Y-32330000D01*
X31245531Y-32336923D01*
X31262906Y-32491135D01*
X31262907Y-32491142D01*
X31263687Y-32498059D01*
X31319544Y-32657690D01*
X31323245Y-32663580D01*
X31323246Y-32663582D01*
X31371171Y-32739854D01*
X31390041Y-32800029D01*
X31376873Y-32861704D01*
X31335072Y-32908925D01*
X31329555Y-32912611D01*
X31329548Y-32912617D01*
X31319399Y-32919399D01*
X31312617Y-32929548D01*
X31312615Y-32929551D01*
X31270820Y-32992103D01*
X31270819Y-32992105D01*
X31264034Y-33002260D01*
X31261651Y-33014235D01*
X31261650Y-33014240D01*
X31250689Y-33069346D01*
X31250688Y-33069351D01*
X31249500Y-33075326D01*
X31249500Y-34124674D01*
X31250688Y-34130649D01*
X31250689Y-34130653D01*
X31261650Y-34185759D01*
X31261651Y-34185762D01*
X31264034Y-34197740D01*
X31319399Y-34280601D01*
X31402260Y-34335966D01*
X31475326Y-34350500D01*
X32518579Y-34350500D01*
X32524674Y-34350500D01*
X32597740Y-34335966D01*
X32680601Y-34280601D01*
X32735966Y-34197740D01*
X32750500Y-34124674D01*
X32750500Y-33075326D01*
X32735966Y-33002260D01*
X32680601Y-32919399D01*
X32670448Y-32912615D01*
X32670445Y-32912612D01*
X32664930Y-32908927D01*
X32623127Y-32861706D01*
X32609958Y-32800030D01*
X32628829Y-32739853D01*
X32648972Y-32707796D01*
X32680456Y-32657690D01*
X32736313Y-32498059D01*
X32755249Y-32330000D01*
X32736313Y-32161941D01*
X32680456Y-32002310D01*
X32590477Y-31859110D01*
X32470890Y-31739523D01*
X32327690Y-31649544D01*
X32321124Y-31647246D01*
X32321121Y-31647245D01*
X32174633Y-31595987D01*
X32174630Y-31595986D01*
X32168059Y-31593687D01*
X32161142Y-31592907D01*
X32161135Y-31592906D01*
X32006923Y-31575531D01*
X32000000Y-31574751D01*
X31993077Y-31575531D01*
X31838864Y-31592906D01*
X31838855Y-31592907D01*
X31831941Y-31593687D01*
X31825371Y-31595985D01*
X31825366Y-31595987D01*
X31678878Y-31647245D01*
X31678872Y-31647247D01*
X31672310Y-31649544D01*
X31666419Y-31653245D01*
X31666418Y-31653246D01*
X31535010Y-31735815D01*
X31535005Y-31735818D01*
X31529110Y-31739523D01*
X31524185Y-31744447D01*
X31524181Y-31744451D01*
X31414451Y-31854181D01*
X31414447Y-31854185D01*
X31409523Y-31859110D01*
X31405818Y-31865005D01*
X31405815Y-31865010D01*
X31323246Y-31996418D01*
X31319544Y-32002310D01*
X31317247Y-32008872D01*
X31317245Y-32008878D01*
X31265987Y-32155366D01*
X31265985Y-32155371D01*
X31263687Y-32161941D01*
X31262907Y-32168855D01*
X31262906Y-32168864D01*
X31253706Y-32250522D01*
X31244751Y-32330000D01*
X28837814Y-32330000D01*
X24386819Y-27879005D01*
X24359939Y-27838777D01*
X24350500Y-27791324D01*
X24350500Y-24417144D01*
X24351956Y-24403594D01*
X24351841Y-24403586D01*
X24352473Y-24394739D01*
X24354359Y-24386073D01*
X24350815Y-24336538D01*
X24350500Y-24327692D01*
X24350500Y-24318636D01*
X24350500Y-24314201D01*
X24348578Y-24300837D01*
X24347633Y-24292046D01*
X24344091Y-24242517D01*
X24340990Y-24234204D01*
X24339106Y-24225540D01*
X24339220Y-24225515D01*
X24339037Y-24224798D01*
X24338925Y-24224832D01*
X24336427Y-24216326D01*
X24335165Y-24207543D01*
X24314530Y-24162360D01*
X24311159Y-24154222D01*
X24293796Y-24107669D01*
X24288478Y-24100565D01*
X24284230Y-24092785D01*
X24284332Y-24092729D01*
X24283953Y-24092090D01*
X24283855Y-24092154D01*
X24279061Y-24084694D01*
X24275377Y-24076627D01*
X24269570Y-24069925D01*
X24269566Y-24069919D01*
X24242860Y-24039099D01*
X24237306Y-24032207D01*
X24235197Y-24029390D01*
X24229221Y-24021407D01*
X24219675Y-24011861D01*
X24213658Y-24005400D01*
X24181128Y-23967857D01*
X24173668Y-23963063D01*
X24166963Y-23957252D01*
X24167038Y-23957164D01*
X24156427Y-23948613D01*
X23390693Y-23182879D01*
X23363813Y-23142651D01*
X23355327Y-23099993D01*
X23355278Y-23100000D01*
X23336237Y-22943182D01*
X23280220Y-22795477D01*
X23190483Y-22665470D01*
X23072240Y-22560717D01*
X23065595Y-22557229D01*
X23065593Y-22557228D01*
X22939006Y-22490789D01*
X22939002Y-22490787D01*
X22932365Y-22487304D01*
X22925087Y-22485510D01*
X22925084Y-22485509D01*
X22786267Y-22451294D01*
X22786260Y-22451293D01*
X22778985Y-22449500D01*
X22621015Y-22449500D01*
X22613740Y-22451292D01*
X22613732Y-22451294D01*
X22474915Y-22485509D01*
X22474909Y-22485510D01*
X22467635Y-22487304D01*
X22461000Y-22490786D01*
X22460993Y-22490789D01*
X22334406Y-22557228D01*
X22334400Y-22557231D01*
X22327760Y-22560717D01*
X22322148Y-22565687D01*
X22322143Y-22565692D01*
X22215127Y-22660499D01*
X22215122Y-22660503D01*
X22209517Y-22665470D01*
X22205262Y-22671634D01*
X22205257Y-22671640D01*
X22124043Y-22789300D01*
X22124040Y-22789303D01*
X22119780Y-22795477D01*
X22117120Y-22802488D01*
X22117118Y-22802494D01*
X22066423Y-22936167D01*
X22063763Y-22943182D01*
X22062859Y-22950622D01*
X22062858Y-22950629D01*
X22051940Y-23040553D01*
X22044722Y-23100000D01*
X22045626Y-23107445D01*
X22062858Y-23249370D01*
X22062859Y-23249375D01*
X22063763Y-23256818D01*
X22066422Y-23263831D01*
X22066423Y-23263832D01*
X22106538Y-23369608D01*
X22119780Y-23404523D01*
X22209517Y-23534530D01*
X22327760Y-23639283D01*
X22467635Y-23712696D01*
X22483500Y-23716606D01*
X22541508Y-23749322D01*
X23313181Y-24520995D01*
X23340061Y-24561223D01*
X23349500Y-24608676D01*
X23349500Y-26357901D01*
X23336987Y-26412184D01*
X23301973Y-26455512D01*
X23251526Y-26479139D01*
X23195825Y-26478298D01*
X23086266Y-26451294D01*
X23086261Y-26451293D01*
X23078985Y-26449500D01*
X22921015Y-26449500D01*
X22913740Y-26451292D01*
X22913732Y-26451294D01*
X22774915Y-26485509D01*
X22774909Y-26485510D01*
X22767635Y-26487304D01*
X22761000Y-26490786D01*
X22760993Y-26490789D01*
X22634406Y-26557228D01*
X22634400Y-26557231D01*
X22627760Y-26560717D01*
X22622148Y-26565687D01*
X22622143Y-26565692D01*
X22515127Y-26660499D01*
X22515122Y-26660503D01*
X22509517Y-26665470D01*
X22505262Y-26671634D01*
X22505257Y-26671640D01*
X22424043Y-26789300D01*
X22424040Y-26789303D01*
X22419780Y-26795477D01*
X22417120Y-26802488D01*
X22417118Y-26802494D01*
X22368493Y-26930709D01*
X22363763Y-26943182D01*
X22362859Y-26950622D01*
X22362858Y-26950629D01*
X22346070Y-27088896D01*
X22344722Y-27100000D01*
X22345626Y-27107445D01*
X22345626Y-27107447D01*
X22350896Y-27150854D01*
X22345017Y-27206249D01*
X22315481Y-27253480D01*
X21671107Y-27897853D01*
X21651258Y-27913973D01*
X21642164Y-27919916D01*
X21635858Y-27928017D01*
X21635852Y-27928023D01*
X21622720Y-27944895D01*
X21619273Y-27948822D01*
X21619418Y-27948945D01*
X21616105Y-27952855D01*
X21612480Y-27956482D01*
X21609505Y-27960648D01*
X21609498Y-27960657D01*
X21600401Y-27973399D01*
X21597342Y-27977501D01*
X21571500Y-28010703D01*
X21571496Y-28010710D01*
X21565191Y-28018811D01*
X21562609Y-28026331D01*
X21557990Y-28032801D01*
X21555060Y-28042641D01*
X21555058Y-28042646D01*
X21543056Y-28082957D01*
X21541495Y-28087829D01*
X21527836Y-28127619D01*
X21527835Y-28127624D01*
X21524500Y-28137340D01*
X21524500Y-28145294D01*
X21522232Y-28152912D01*
X21522656Y-28163175D01*
X21522656Y-28163179D01*
X21524394Y-28205193D01*
X21524500Y-28210316D01*
X21524500Y-32707796D01*
X21513576Y-32758687D01*
X21482727Y-32800612D01*
X21415127Y-32860499D01*
X21415122Y-32860503D01*
X21409517Y-32865470D01*
X21405262Y-32871634D01*
X21405257Y-32871640D01*
X21324043Y-32989300D01*
X21324040Y-32989303D01*
X21319780Y-32995477D01*
X21317120Y-33002488D01*
X21317118Y-33002494D01*
X21266423Y-33136167D01*
X21263763Y-33143182D01*
X21262859Y-33150622D01*
X21262858Y-33150629D01*
X21246925Y-33281857D01*
X21244722Y-33300000D01*
X21245626Y-33307445D01*
X21262858Y-33449370D01*
X21262859Y-33449375D01*
X21263763Y-33456818D01*
X21319780Y-33604523D01*
X21409517Y-33734530D01*
X21527760Y-33839283D01*
X21667635Y-33912696D01*
X21821015Y-33950500D01*
X21971485Y-33950500D01*
X21978985Y-33950500D01*
X22132365Y-33912696D01*
X22272240Y-33839283D01*
X22390483Y-33734530D01*
X22480220Y-33604523D01*
X22536237Y-33456818D01*
X22555278Y-33300000D01*
X22536237Y-33143182D01*
X22480220Y-32995477D01*
X22390483Y-32865470D01*
X22375676Y-32852352D01*
X22317273Y-32800612D01*
X22286424Y-32758687D01*
X22275500Y-32707796D01*
X22275500Y-28406899D01*
X22284939Y-28359446D01*
X22311819Y-28319218D01*
X22844218Y-27786819D01*
X22884446Y-27759939D01*
X22931899Y-27750500D01*
X23071485Y-27750500D01*
X23078985Y-27750500D01*
X23195825Y-27721701D01*
X23251526Y-27720861D01*
X23301973Y-27744488D01*
X23336987Y-27787816D01*
X23349500Y-27842099D01*
X23349500Y-27982856D01*
X23348043Y-27996405D01*
X23348159Y-27996414D01*
X23347525Y-28005262D01*
X23345641Y-28013927D01*
X23346273Y-28022767D01*
X23346273Y-28022773D01*
X23349184Y-28063461D01*
X23349500Y-28072308D01*
X23349500Y-28085799D01*
X23350130Y-28090180D01*
X23351420Y-28099155D01*
X23352365Y-28107946D01*
X23354581Y-28138928D01*
X23355909Y-28157483D01*
X23359006Y-28165789D01*
X23360892Y-28174455D01*
X23360779Y-28174479D01*
X23360964Y-28175203D01*
X23361075Y-28175171D01*
X23363572Y-28183676D01*
X23364835Y-28192457D01*
X23368519Y-28200524D01*
X23368520Y-28200527D01*
X23385457Y-28237613D01*
X23388845Y-28245790D01*
X23403104Y-28284021D01*
X23403105Y-28284023D01*
X23406204Y-28292331D01*
X23411519Y-28299431D01*
X23415768Y-28307212D01*
X23415666Y-28307267D01*
X23416046Y-28307907D01*
X23416143Y-28307845D01*
X23420939Y-28315307D01*
X23424623Y-28323373D01*
X23457147Y-28360907D01*
X23462688Y-28367785D01*
X23470779Y-28378593D01*
X23473916Y-28381730D01*
X23480322Y-28388136D01*
X23486354Y-28394615D01*
X23513065Y-28425442D01*
X23513067Y-28425444D01*
X23518872Y-28432143D01*
X23526328Y-28436934D01*
X23533037Y-28442748D01*
X23532961Y-28442835D01*
X23543571Y-28451385D01*
X30705005Y-35612819D01*
X30735255Y-35662182D01*
X30739797Y-35719898D01*
X30717642Y-35773385D01*
X30673619Y-35810985D01*
X30617324Y-35824500D01*
X25232667Y-35824500D01*
X25166327Y-35805262D01*
X25120572Y-35753517D01*
X25109600Y-35685321D01*
X25136814Y-35621835D01*
X25193400Y-35552884D01*
X25200142Y-35542795D01*
X25291896Y-35371134D01*
X25296535Y-35359934D01*
X25353039Y-35173666D01*
X25355405Y-35161771D01*
X25369701Y-35016622D01*
X25370000Y-35010538D01*
X25370000Y-34828326D01*
X25366549Y-34815450D01*
X25353674Y-34812000D01*
X23286326Y-34812000D01*
X23273450Y-34815450D01*
X23270000Y-34828326D01*
X23270000Y-35010538D01*
X23270298Y-35016622D01*
X23284594Y-35161771D01*
X23286960Y-35173666D01*
X23343464Y-35359934D01*
X23348103Y-35371134D01*
X23439857Y-35542795D01*
X23446599Y-35552884D01*
X23503186Y-35621835D01*
X23530400Y-35685321D01*
X23519428Y-35753517D01*
X23473673Y-35805262D01*
X23407333Y-35824500D01*
X20506900Y-35824500D01*
X20459447Y-35815061D01*
X20419219Y-35788181D01*
X18926712Y-34295674D01*
X23270000Y-34295674D01*
X23273450Y-34308549D01*
X23286326Y-34312000D01*
X24053674Y-34312000D01*
X24066549Y-34308549D01*
X24070000Y-34295674D01*
X24570000Y-34295674D01*
X24573450Y-34308549D01*
X24586326Y-34312000D01*
X25353674Y-34312000D01*
X25366549Y-34308549D01*
X25370000Y-34295674D01*
X25370000Y-34113462D01*
X25369701Y-34107377D01*
X25355405Y-33962228D01*
X25353039Y-33950333D01*
X25296535Y-33764065D01*
X25291896Y-33752865D01*
X25200142Y-33581204D01*
X25193400Y-33571115D01*
X25069917Y-33420651D01*
X25061348Y-33412082D01*
X24910884Y-33288599D01*
X24900795Y-33281857D01*
X24729134Y-33190103D01*
X24717934Y-33185464D01*
X24583897Y-33144804D01*
X24572612Y-33144111D01*
X24570000Y-33155113D01*
X24570000Y-34295674D01*
X24070000Y-34295674D01*
X24070000Y-33155113D01*
X24067387Y-33144111D01*
X24056102Y-33144804D01*
X23922065Y-33185464D01*
X23910865Y-33190103D01*
X23739204Y-33281857D01*
X23729115Y-33288599D01*
X23578651Y-33412082D01*
X23570082Y-33420651D01*
X23446599Y-33571115D01*
X23439857Y-33581204D01*
X23348103Y-33752865D01*
X23343464Y-33764065D01*
X23286960Y-33950333D01*
X23284594Y-33962228D01*
X23270298Y-34107377D01*
X23270000Y-34113462D01*
X23270000Y-34295674D01*
X18926712Y-34295674D01*
X7711819Y-23080781D01*
X7684939Y-23040553D01*
X7675500Y-22993100D01*
X7675500Y-21784670D01*
X7685308Y-21736337D01*
X7713179Y-21695650D01*
X7754705Y-21669044D01*
X7782108Y-21658426D01*
X7792637Y-21654348D01*
X7966041Y-21546981D01*
X8116764Y-21409579D01*
X8239673Y-21246821D01*
X8330582Y-21064250D01*
X8386397Y-20868083D01*
X8405215Y-20665000D01*
X8386397Y-20461917D01*
X8330582Y-20265750D01*
X8239673Y-20083179D01*
X8184500Y-20010118D01*
X8120221Y-19924998D01*
X8120217Y-19924994D01*
X8116764Y-19920421D01*
X8112527Y-19916558D01*
X8112523Y-19916554D01*
X7998520Y-19812627D01*
X7966041Y-19783019D01*
X7961171Y-19780004D01*
X7961169Y-19780002D01*
X7797511Y-19678670D01*
X7797512Y-19678670D01*
X7792637Y-19675652D01*
X7787294Y-19673582D01*
X7607803Y-19604047D01*
X7607798Y-19604045D01*
X7602456Y-19601976D01*
X7596818Y-19600922D01*
X7407605Y-19565552D01*
X7407602Y-19565551D01*
X7401976Y-19564500D01*
X7198024Y-19564500D01*
X7192398Y-19565551D01*
X7192394Y-19565552D01*
X7003181Y-19600922D01*
X7003178Y-19600922D01*
X6997544Y-19601976D01*
X6992203Y-19604044D01*
X6992196Y-19604047D01*
X6812705Y-19673582D01*
X6812700Y-19673584D01*
X6807363Y-19675652D01*
X6802491Y-19678668D01*
X6802488Y-19678670D01*
X6638830Y-19780002D01*
X6638822Y-19780007D01*
X6633959Y-19783019D01*
X6629728Y-19786875D01*
X6629724Y-19786879D01*
X6487476Y-19916554D01*
X6487466Y-19916564D01*
X6483236Y-19920421D01*
X6479787Y-19924987D01*
X6479778Y-19924998D01*
X6363779Y-20078607D01*
X6363776Y-20078611D01*
X6360327Y-20083179D01*
X6357774Y-20088304D01*
X6357772Y-20088309D01*
X6303849Y-20196602D01*
X6269418Y-20265750D01*
X6267850Y-20271258D01*
X6267847Y-20271268D01*
X6215173Y-20456395D01*
X6215170Y-20456406D01*
X6213603Y-20461917D01*
X6194785Y-20665000D01*
X5865215Y-20665000D01*
X5846397Y-20461917D01*
X5790582Y-20265750D01*
X5705593Y-20095069D01*
X5692727Y-20045529D01*
X5700968Y-19995008D01*
X5728912Y-19952123D01*
X6228889Y-19452146D01*
X6248747Y-19436021D01*
X6257836Y-19430084D01*
X6277279Y-19405102D01*
X6280746Y-19401205D01*
X6280574Y-19401060D01*
X6283881Y-19397154D01*
X6287520Y-19393517D01*
X6299597Y-19376600D01*
X6302663Y-19372489D01*
X6304092Y-19370653D01*
X6334809Y-19331189D01*
X6337390Y-19323668D01*
X6342010Y-19317199D01*
X6344944Y-19307343D01*
X6349459Y-19298110D01*
X6351250Y-19298986D01*
X6368263Y-19268062D01*
X6410402Y-19236641D01*
X6461772Y-19225500D01*
X8168579Y-19225500D01*
X8174674Y-19225500D01*
X8247740Y-19210966D01*
X8330601Y-19155601D01*
X8385966Y-19072740D01*
X8400500Y-18999674D01*
X8400500Y-17250326D01*
X8385966Y-17177260D01*
X8330601Y-17094399D01*
X8247740Y-17039034D01*
X8235762Y-17036651D01*
X8235759Y-17036650D01*
X8180653Y-17025689D01*
X8180649Y-17025688D01*
X8174674Y-17024500D01*
X8168579Y-17024500D01*
X7799500Y-17024500D01*
X7737500Y-17007887D01*
X7692113Y-16962500D01*
X7675500Y-16900500D01*
X7675500Y-15064492D01*
X7691494Y-15003576D01*
X7735350Y-14958375D01*
X7795755Y-14940549D01*
X7857126Y-14954696D01*
X7960993Y-15009210D01*
X7967635Y-15012696D01*
X8121015Y-15050500D01*
X8128515Y-15050500D01*
X8268101Y-15050500D01*
X8315554Y-15059939D01*
X8355782Y-15086819D01*
X8488181Y-15219218D01*
X8515061Y-15259446D01*
X8524500Y-15306899D01*
X8524500Y-15607796D01*
X8513576Y-15658687D01*
X8482727Y-15700612D01*
X8415127Y-15760499D01*
X8415122Y-15760503D01*
X8409517Y-15765470D01*
X8405262Y-15771634D01*
X8405257Y-15771640D01*
X8324043Y-15889300D01*
X8324040Y-15889303D01*
X8319780Y-15895477D01*
X8317120Y-15902488D01*
X8317118Y-15902494D01*
X8266423Y-16036167D01*
X8263763Y-16043182D01*
X8262859Y-16050622D01*
X8262858Y-16050629D01*
X8246070Y-16188896D01*
X8244722Y-16200000D01*
X8245626Y-16207445D01*
X8262858Y-16349370D01*
X8262859Y-16349375D01*
X8263763Y-16356818D01*
X8319780Y-16504523D01*
X8409517Y-16634530D01*
X8527760Y-16739283D01*
X8667635Y-16812696D01*
X8821015Y-16850500D01*
X8971485Y-16850500D01*
X8978985Y-16850500D01*
X9132365Y-16812696D01*
X9272240Y-16739283D01*
X9390483Y-16634530D01*
X9480220Y-16504523D01*
X9536237Y-16356818D01*
X9555278Y-16200000D01*
X9536237Y-16043182D01*
X9480220Y-15895477D01*
X9390483Y-15765470D01*
X9317273Y-15700612D01*
X9286424Y-15658687D01*
X9275500Y-15607796D01*
X9275500Y-15151805D01*
X9278140Y-15126356D01*
X9278258Y-15125790D01*
X9278258Y-15125789D01*
X9280367Y-15115732D01*
X9276451Y-15084323D01*
X9276128Y-15079113D01*
X9275924Y-15079130D01*
X9275500Y-15074018D01*
X9275500Y-15068886D01*
X9272074Y-15048362D01*
X9271341Y-15043326D01*
X9267523Y-15012696D01*
X9264866Y-14991374D01*
X9261373Y-14984229D01*
X9260065Y-14976390D01*
X9235158Y-14930366D01*
X9232837Y-14925859D01*
X9209826Y-14878789D01*
X9204202Y-14873165D01*
X9200419Y-14866174D01*
X9192858Y-14859214D01*
X9192857Y-14859212D01*
X9161917Y-14830730D01*
X9158219Y-14827182D01*
X8884518Y-14553481D01*
X8854982Y-14506249D01*
X8849103Y-14450852D01*
X8854374Y-14407445D01*
X8855278Y-14400000D01*
X8836237Y-14243182D01*
X8780220Y-14095477D01*
X8690483Y-13965470D01*
X8663567Y-13941625D01*
X8577856Y-13865692D01*
X8577854Y-13865690D01*
X8572240Y-13860717D01*
X8565595Y-13857229D01*
X8565593Y-13857228D01*
X8439006Y-13790789D01*
X8439002Y-13790787D01*
X8432365Y-13787304D01*
X8425087Y-13785510D01*
X8425084Y-13785509D01*
X8286267Y-13751294D01*
X8286260Y-13751293D01*
X8278985Y-13749500D01*
X8121015Y-13749500D01*
X8113740Y-13751292D01*
X8113732Y-13751294D01*
X7974915Y-13785509D01*
X7974909Y-13785510D01*
X7967635Y-13787304D01*
X7961000Y-13790786D01*
X7960993Y-13790789D01*
X7857126Y-13845304D01*
X7795755Y-13859451D01*
X7735350Y-13841625D01*
X7691494Y-13796424D01*
X7675500Y-13735508D01*
X7675500Y-13160030D01*
X7689249Y-13103279D01*
X7727447Y-13059112D01*
X7781623Y-13037325D01*
X7839761Y-13042748D01*
X7862340Y-13050500D01*
X7870294Y-13050500D01*
X7877912Y-13052768D01*
X7930192Y-13050606D01*
X7935316Y-13050500D01*
X11698500Y-13050500D01*
X11723949Y-13053140D01*
X11724514Y-13053258D01*
X11724515Y-13053258D01*
X11734573Y-13055367D01*
X11765981Y-13051451D01*
X11771192Y-13051128D01*
X11771176Y-13050924D01*
X11776291Y-13050500D01*
X11781419Y-13050500D01*
X11801941Y-13047074D01*
X11806971Y-13046342D01*
X11858931Y-13039866D01*
X11866075Y-13036373D01*
X11873915Y-13035065D01*
X11919952Y-13010150D01*
X11924469Y-13007825D01*
X11971516Y-12984826D01*
X11977139Y-12979202D01*
X11984131Y-12975419D01*
X12019622Y-12936863D01*
X12023099Y-12933241D01*
X13306870Y-11649470D01*
X13347098Y-11622591D01*
X13394551Y-11613152D01*
X13534137Y-11613152D01*
X13541637Y-11613152D01*
X13695017Y-11575348D01*
X13834892Y-11501935D01*
X13953135Y-11397182D01*
X14042872Y-11267175D01*
X14043365Y-11267515D01*
X14076937Y-11229036D01*
X14130253Y-11207420D01*
X14187587Y-11212193D01*
X14236595Y-11242327D01*
X14851336Y-11857068D01*
X14875054Y-11890285D01*
X14885661Y-11911981D01*
X14885662Y-11911983D01*
X14890174Y-11921211D01*
X14895797Y-11926834D01*
X14899581Y-11933826D01*
X14907138Y-11940782D01*
X14907139Y-11940784D01*
X14938082Y-11969269D01*
X14941780Y-11972817D01*
X17388181Y-14419218D01*
X17415061Y-14459446D01*
X17424500Y-14506899D01*
X17424500Y-22807796D01*
X17413576Y-22858687D01*
X17382727Y-22900612D01*
X17315127Y-22960499D01*
X17315122Y-22960503D01*
X17309517Y-22965470D01*
X17305262Y-22971634D01*
X17305257Y-22971640D01*
X17224043Y-23089300D01*
X17224040Y-23089303D01*
X17219780Y-23095477D01*
X17217120Y-23102488D01*
X17217118Y-23102494D01*
X17166423Y-23236167D01*
X17163763Y-23243182D01*
X17162859Y-23250622D01*
X17162858Y-23250629D01*
X17148412Y-23369608D01*
X17144722Y-23400000D01*
X17145626Y-23407445D01*
X17162858Y-23549370D01*
X17162859Y-23549375D01*
X17163763Y-23556818D01*
X17166422Y-23563831D01*
X17166423Y-23563832D01*
X17196360Y-23642771D01*
X17219780Y-23704523D01*
X17309517Y-23834530D01*
X17427760Y-23939283D01*
X17567635Y-24012696D01*
X17721015Y-24050500D01*
X17871485Y-24050500D01*
X17878985Y-24050500D01*
X18032365Y-24012696D01*
X18172240Y-23939283D01*
X18290483Y-23834530D01*
X18380220Y-23704523D01*
X18436237Y-23556818D01*
X18455278Y-23400000D01*
X18436237Y-23243182D01*
X18380220Y-23095477D01*
X18290483Y-22965470D01*
X18265325Y-22943182D01*
X18217273Y-22900612D01*
X18186424Y-22858687D01*
X18175500Y-22807796D01*
X18175500Y-14351805D01*
X18178140Y-14326356D01*
X18178258Y-14325790D01*
X18178258Y-14325789D01*
X18180367Y-14315732D01*
X18176451Y-14284325D01*
X18176128Y-14279107D01*
X18175923Y-14279124D01*
X18175500Y-14274019D01*
X18175500Y-14268886D01*
X18172077Y-14248374D01*
X18171337Y-14243297D01*
X18171323Y-14243182D01*
X18164865Y-14191374D01*
X18161373Y-14184232D01*
X18160065Y-14176390D01*
X18135160Y-14130371D01*
X18132815Y-14125815D01*
X18114964Y-14089300D01*
X18109826Y-14078789D01*
X18104202Y-14073165D01*
X18100419Y-14066174D01*
X18061905Y-14030718D01*
X18058209Y-14027171D01*
X15548661Y-11517623D01*
X15524941Y-11484401D01*
X15514339Y-11462715D01*
X15509826Y-11453483D01*
X15504201Y-11447858D01*
X15500419Y-11440869D01*
X15461905Y-11405414D01*
X15458231Y-11401888D01*
X14616477Y-10560134D01*
X14585335Y-10507910D01*
X14582765Y-10447160D01*
X14609383Y-10392492D01*
X14658790Y-10357050D01*
X14717308Y-10349586D01*
X14721015Y-10350500D01*
X14728519Y-10350500D01*
X14868100Y-10350500D01*
X14915553Y-10359939D01*
X14955781Y-10386819D01*
X16697850Y-12128888D01*
X16713977Y-12148746D01*
X16719916Y-12157836D01*
X16728022Y-12164145D01*
X16728023Y-12164146D01*
X16744889Y-12177273D01*
X16748810Y-12180735D01*
X16748943Y-12180579D01*
X16752851Y-12183889D01*
X16756482Y-12187520D01*
X16760655Y-12190499D01*
X16760663Y-12190506D01*
X16773396Y-12199596D01*
X16777511Y-12202664D01*
X16792514Y-12214341D01*
X16818811Y-12234809D01*
X16826331Y-12237390D01*
X16832801Y-12242010D01*
X16882999Y-12256954D01*
X16887791Y-12258490D01*
X16937340Y-12275500D01*
X16945294Y-12275500D01*
X16952912Y-12277768D01*
X17005192Y-12275606D01*
X17010316Y-12275500D01*
X27548195Y-12275500D01*
X27573644Y-12278140D01*
X27574209Y-12278258D01*
X27574210Y-12278258D01*
X27584268Y-12280367D01*
X27615676Y-12276451D01*
X27620887Y-12276128D01*
X27620871Y-12275924D01*
X27625986Y-12275500D01*
X27631114Y-12275500D01*
X27651636Y-12272074D01*
X27656666Y-12271342D01*
X27708626Y-12264866D01*
X27715770Y-12261373D01*
X27723610Y-12260065D01*
X27769647Y-12235150D01*
X27774164Y-12232825D01*
X27821211Y-12209826D01*
X27826834Y-12204202D01*
X27833826Y-12200419D01*
X27869317Y-12161863D01*
X27872794Y-12158241D01*
X28344216Y-11686819D01*
X28384445Y-11659939D01*
X28431898Y-11650500D01*
X28571485Y-11650500D01*
X28578985Y-11650500D01*
X28732365Y-11612696D01*
X28872240Y-11539283D01*
X28990483Y-11434530D01*
X29080220Y-11304523D01*
X29136237Y-11156818D01*
X29155278Y-11000000D01*
X29136237Y-10843182D01*
X29080220Y-10695477D01*
X28990483Y-10565470D01*
X28984460Y-10560134D01*
X28877856Y-10465692D01*
X28877854Y-10465690D01*
X28872240Y-10460717D01*
X28865595Y-10457229D01*
X28865593Y-10457228D01*
X28739006Y-10390789D01*
X28739002Y-10390787D01*
X28732365Y-10387304D01*
X28725087Y-10385510D01*
X28725084Y-10385509D01*
X28586267Y-10351294D01*
X28586260Y-10351293D01*
X28578985Y-10349500D01*
X28421015Y-10349500D01*
X28413740Y-10351292D01*
X28413732Y-10351294D01*
X28274915Y-10385509D01*
X28274909Y-10385510D01*
X28267635Y-10387304D01*
X28261000Y-10390786D01*
X28260993Y-10390789D01*
X28134406Y-10457228D01*
X28134400Y-10457231D01*
X28127760Y-10460717D01*
X28122148Y-10465687D01*
X28122143Y-10465692D01*
X28015127Y-10560499D01*
X28015122Y-10560503D01*
X28009517Y-10565470D01*
X28005262Y-10571634D01*
X28005257Y-10571640D01*
X27924043Y-10689300D01*
X27924040Y-10689303D01*
X27919780Y-10695477D01*
X27917120Y-10702488D01*
X27917118Y-10702494D01*
X27866423Y-10836167D01*
X27863763Y-10843182D01*
X27862859Y-10850622D01*
X27862858Y-10850629D01*
X27852837Y-10933166D01*
X27844722Y-11000000D01*
X27845626Y-11007445D01*
X27845626Y-11007447D01*
X27850896Y-11050854D01*
X27845017Y-11106249D01*
X27815481Y-11153480D01*
X27480781Y-11488181D01*
X27440553Y-11515061D01*
X27393100Y-11524500D01*
X17206899Y-11524500D01*
X17159446Y-11515061D01*
X17119218Y-11488181D01*
X15484518Y-9853481D01*
X15454982Y-9806249D01*
X15449103Y-9750852D01*
X15454374Y-9707445D01*
X15455278Y-9700000D01*
X15436237Y-9543182D01*
X15380220Y-9395477D01*
X15290483Y-9265470D01*
X15229250Y-9211223D01*
X15177856Y-9165692D01*
X15177854Y-9165690D01*
X15172240Y-9160717D01*
X15165595Y-9157229D01*
X15165593Y-9157228D01*
X15039006Y-9090789D01*
X15039002Y-9090787D01*
X15032365Y-9087304D01*
X15025087Y-9085510D01*
X15025084Y-9085509D01*
X14886267Y-9051294D01*
X14886260Y-9051293D01*
X14878985Y-9049500D01*
X14721015Y-9049500D01*
X14713740Y-9051292D01*
X14713732Y-9051294D01*
X14574915Y-9085509D01*
X14574909Y-9085510D01*
X14567635Y-9087304D01*
X14519775Y-9112422D01*
X14458408Y-9126569D01*
X14398003Y-9108743D01*
X14354146Y-9063542D01*
X14338152Y-9002626D01*
X14338152Y-5374500D01*
X14354765Y-5312500D01*
X14400152Y-5267113D01*
X14462152Y-5250500D01*
X14571485Y-5250500D01*
X14578985Y-5250500D01*
X14732365Y-5212696D01*
X14872240Y-5139283D01*
X14990483Y-5034530D01*
X15012514Y-5002612D01*
X16484361Y-5002612D01*
X16485054Y-5013896D01*
X16519883Y-5128712D01*
X16524520Y-5139905D01*
X16611633Y-5302882D01*
X16618374Y-5312970D01*
X16735609Y-5455821D01*
X16744177Y-5464389D01*
X16770942Y-5486354D01*
X16806390Y-5533685D01*
X16815887Y-5592051D01*
X16797273Y-5648179D01*
X16773245Y-5686419D01*
X16773243Y-5686422D01*
X16769544Y-5692310D01*
X16767247Y-5698872D01*
X16767245Y-5698878D01*
X16715987Y-5845366D01*
X16715985Y-5845371D01*
X16713687Y-5851941D01*
X16712907Y-5858855D01*
X16712906Y-5858864D01*
X16695531Y-6013077D01*
X16694751Y-6020000D01*
X16695531Y-6026923D01*
X16712906Y-6181135D01*
X16712907Y-6181142D01*
X16713687Y-6188059D01*
X16769544Y-6347690D01*
X16859523Y-6490890D01*
X16979110Y-6610477D01*
X17122310Y-6700456D01*
X17281941Y-6756313D01*
X17450000Y-6775249D01*
X17618059Y-6756313D01*
X17777690Y-6700456D01*
X17920890Y-6610477D01*
X18040477Y-6490890D01*
X18130456Y-6347690D01*
X18186313Y-6188059D01*
X18205249Y-6020000D01*
X18186313Y-5851941D01*
X18130456Y-5692310D01*
X18126751Y-5686415D01*
X18126750Y-5686411D01*
X18102728Y-5648180D01*
X18084112Y-5592052D01*
X18093609Y-5533684D01*
X18129059Y-5486353D01*
X18155819Y-5464392D01*
X18164390Y-5455821D01*
X18281625Y-5312970D01*
X18288366Y-5302882D01*
X18375479Y-5139905D01*
X18380116Y-5128712D01*
X18414945Y-5013896D01*
X18415638Y-5002612D01*
X18404637Y-5000000D01*
X16495363Y-5000000D01*
X16484361Y-5002612D01*
X15012514Y-5002612D01*
X15080220Y-4904523D01*
X15136237Y-4756818D01*
X15155278Y-4600000D01*
X15136237Y-4443182D01*
X15080220Y-4295477D01*
X15008153Y-4191069D01*
X14994742Y-4171640D01*
X14994741Y-4171639D01*
X14990483Y-4165470D01*
X14938794Y-4119678D01*
X14877856Y-4065692D01*
X14877854Y-4065690D01*
X14872240Y-4060717D01*
X14865595Y-4057229D01*
X14865593Y-4057228D01*
X14739006Y-3990789D01*
X14739002Y-3990787D01*
X14732365Y-3987304D01*
X14725087Y-3985510D01*
X14725084Y-3985509D01*
X14586267Y-3951294D01*
X14586260Y-3951293D01*
X14578985Y-3949500D01*
X14421015Y-3949500D01*
X14413740Y-3951292D01*
X14413732Y-3951294D01*
X14274915Y-3985509D01*
X14274909Y-3985510D01*
X14267635Y-3987304D01*
X14261000Y-3990786D01*
X14260993Y-3990789D01*
X14134406Y-4057228D01*
X14134400Y-4057231D01*
X14127760Y-4060717D01*
X14122148Y-4065687D01*
X14122143Y-4065692D01*
X14015127Y-4160499D01*
X14015122Y-4160503D01*
X14009517Y-4165470D01*
X14005262Y-4171634D01*
X14005257Y-4171640D01*
X13924043Y-4289300D01*
X13924040Y-4289303D01*
X13919780Y-4295477D01*
X13917120Y-4302488D01*
X13917118Y-4302494D01*
X13866423Y-4436167D01*
X13863763Y-4443182D01*
X13862859Y-4450622D01*
X13862858Y-4450629D01*
X13854045Y-4523215D01*
X13844722Y-4600000D01*
X13845626Y-4607445D01*
X13845626Y-4607447D01*
X13850896Y-4650853D01*
X13845017Y-4706248D01*
X13815481Y-4753480D01*
X13733757Y-4835203D01*
X13713909Y-4851322D01*
X13713417Y-4851642D01*
X13713408Y-4851649D01*
X13704816Y-4857264D01*
X13698510Y-4865365D01*
X13698504Y-4865371D01*
X13685372Y-4882243D01*
X13681925Y-4886170D01*
X13682070Y-4886293D01*
X13678757Y-4890203D01*
X13675132Y-4893830D01*
X13672157Y-4897996D01*
X13672150Y-4898005D01*
X13663053Y-4910747D01*
X13659994Y-4914849D01*
X13634152Y-4948051D01*
X13634148Y-4948058D01*
X13627843Y-4956159D01*
X13625261Y-4963679D01*
X13620642Y-4970149D01*
X13617712Y-4979989D01*
X13617710Y-4979994D01*
X13605708Y-5020305D01*
X13604147Y-5025177D01*
X13590488Y-5064967D01*
X13590487Y-5064972D01*
X13587152Y-5074688D01*
X13587152Y-5082642D01*
X13584884Y-5090260D01*
X13585308Y-5100523D01*
X13585308Y-5100527D01*
X13587046Y-5142541D01*
X13587152Y-5147664D01*
X13587152Y-8492149D01*
X13571158Y-8553065D01*
X13527302Y-8598266D01*
X13466897Y-8616092D01*
X13405527Y-8601945D01*
X13355386Y-8575629D01*
X13289006Y-8540789D01*
X13289002Y-8540787D01*
X13282365Y-8537304D01*
X13275087Y-8535510D01*
X13275084Y-8535509D01*
X13136267Y-8501294D01*
X13136260Y-8501293D01*
X13128985Y-8499500D01*
X12971015Y-8499500D01*
X12963740Y-8501292D01*
X12963732Y-8501294D01*
X12824915Y-8535509D01*
X12824909Y-8535510D01*
X12817635Y-8537304D01*
X12811000Y-8540786D01*
X12810993Y-8540789D01*
X12684406Y-8607228D01*
X12684400Y-8607231D01*
X12677760Y-8610717D01*
X12672148Y-8615687D01*
X12672143Y-8615692D01*
X12565129Y-8710497D01*
X12565123Y-8710502D01*
X12559517Y-8715470D01*
X12555256Y-8721642D01*
X12550285Y-8727255D01*
X12549449Y-8726514D01*
X12511318Y-8760297D01*
X12453692Y-8774500D01*
X10156899Y-8774500D01*
X10109446Y-8765061D01*
X10069218Y-8738181D01*
X9955593Y-8624556D01*
X9827150Y-8496112D01*
X9811022Y-8476251D01*
X9810706Y-8475768D01*
X9810703Y-8475765D01*
X9805084Y-8467164D01*
X9780109Y-8447725D01*
X9776190Y-8444264D01*
X9776058Y-8444421D01*
X9772143Y-8441105D01*
X9768518Y-8437480D01*
X9751591Y-8425395D01*
X9747481Y-8422330D01*
X9714297Y-8396502D01*
X9706189Y-8390191D01*
X9698668Y-8387609D01*
X9692199Y-8382990D01*
X9682353Y-8380058D01*
X9682350Y-8380057D01*
X9642043Y-8368056D01*
X9637167Y-8366494D01*
X9597381Y-8352836D01*
X9597374Y-8352834D01*
X9587660Y-8349500D01*
X9579706Y-8349500D01*
X9572088Y-8347232D01*
X9561823Y-8347656D01*
X9561820Y-8347656D01*
X9519807Y-8349394D01*
X9514684Y-8349500D01*
X7171308Y-8349500D01*
X7113682Y-8335297D01*
X7075550Y-8301514D01*
X7074715Y-8302255D01*
X7069744Y-8296644D01*
X7065483Y-8290470D01*
X7031652Y-8260499D01*
X6952856Y-8190692D01*
X6952854Y-8190690D01*
X6947240Y-8185717D01*
X6940595Y-8182229D01*
X6940593Y-8182228D01*
X6814006Y-8115789D01*
X6814002Y-8115787D01*
X6807365Y-8112304D01*
X6800087Y-8110510D01*
X6800084Y-8110509D01*
X6661267Y-8076294D01*
X6661260Y-8076293D01*
X6653985Y-8074500D01*
X6496015Y-8074500D01*
X6488740Y-8076292D01*
X6488732Y-8076294D01*
X6349915Y-8110509D01*
X6349909Y-8110510D01*
X6342635Y-8112304D01*
X6336000Y-8115786D01*
X6335993Y-8115789D01*
X6209406Y-8182228D01*
X6209400Y-8182231D01*
X6202760Y-8185717D01*
X6197148Y-8190687D01*
X6197143Y-8190692D01*
X6090127Y-8285499D01*
X6090122Y-8285503D01*
X6084517Y-8290470D01*
X6080262Y-8296634D01*
X6080257Y-8296640D01*
X5999043Y-8414300D01*
X5999040Y-8414303D01*
X5994780Y-8420477D01*
X5992120Y-8427488D01*
X5992118Y-8427494D01*
X5944496Y-8553065D01*
X5938763Y-8568182D01*
X5937859Y-8575622D01*
X5937858Y-8575629D01*
X5921854Y-8707445D01*
X5919722Y-8725000D01*
X5920626Y-8732445D01*
X5937858Y-8874370D01*
X5937859Y-8874375D01*
X5938763Y-8881818D01*
X5941422Y-8888831D01*
X5941423Y-8888832D01*
X5985298Y-9004523D01*
X5994780Y-9029523D01*
X5999043Y-9035699D01*
X6068840Y-9136819D01*
X6084517Y-9159530D01*
X6090126Y-9164499D01*
X6090127Y-9164500D01*
X6171280Y-9236395D01*
X6202760Y-9264283D01*
X6342635Y-9337696D01*
X6349919Y-9339491D01*
X6354931Y-9341392D01*
X6405007Y-9376518D01*
X6432198Y-9431309D01*
X6429889Y-9492432D01*
X6398641Y-9545015D01*
X5771107Y-10172548D01*
X5751258Y-10188668D01*
X5742164Y-10194611D01*
X5735858Y-10202712D01*
X5735852Y-10202718D01*
X5722720Y-10219590D01*
X5719273Y-10223517D01*
X5719418Y-10223640D01*
X5716105Y-10227550D01*
X5712480Y-10231177D01*
X5709505Y-10235343D01*
X5709498Y-10235352D01*
X5700401Y-10248094D01*
X5697342Y-10252196D01*
X5671500Y-10285398D01*
X5671496Y-10285405D01*
X5665191Y-10293506D01*
X5662609Y-10301026D01*
X5657990Y-10307496D01*
X5655060Y-10317336D01*
X5655058Y-10317341D01*
X5643056Y-10357652D01*
X5641495Y-10362524D01*
X5627836Y-10402314D01*
X5627835Y-10402319D01*
X5624500Y-10412035D01*
X5624500Y-10419989D01*
X5622232Y-10427607D01*
X5622656Y-10437870D01*
X5622656Y-10437874D01*
X5624394Y-10479888D01*
X5624500Y-10485011D01*
X5624500Y-17144526D01*
X5605927Y-17209804D01*
X5555771Y-17255526D01*
X5489058Y-17267997D01*
X5427118Y-17244001D01*
X5426041Y-17243019D01*
X5421167Y-17240001D01*
X5421163Y-17239998D01*
X5257511Y-17138670D01*
X5257512Y-17138670D01*
X5252637Y-17135652D01*
X5172356Y-17104551D01*
X5067803Y-17064047D01*
X5067798Y-17064045D01*
X5062456Y-17061976D01*
X4976029Y-17045820D01*
X4867605Y-17025552D01*
X4867602Y-17025551D01*
X4861976Y-17024500D01*
X4658024Y-17024500D01*
X4652398Y-17025551D01*
X4652394Y-17025552D01*
X4463181Y-17060922D01*
X4463178Y-17060922D01*
X4457544Y-17061976D01*
X4452203Y-17064044D01*
X4452196Y-17064047D01*
X4272705Y-17133582D01*
X4272700Y-17133584D01*
X4267363Y-17135652D01*
X4262491Y-17138668D01*
X4262488Y-17138670D01*
X4098830Y-17240002D01*
X4098822Y-17240007D01*
X4093959Y-17243019D01*
X4089728Y-17246875D01*
X4089724Y-17246879D01*
X4083039Y-17252974D01*
X4033435Y-17280604D01*
X3976716Y-17283227D01*
X3924774Y-17260292D01*
X3888500Y-17216610D01*
X3875500Y-17161338D01*
X3875500Y-7592204D01*
X3886424Y-7541313D01*
X3917273Y-7499388D01*
X3933298Y-7485190D01*
X3990483Y-7434530D01*
X4080220Y-7304523D01*
X4136237Y-7156818D01*
X4155278Y-7000000D01*
X4136237Y-6843182D01*
X4080220Y-6695477D01*
X3990483Y-6565470D01*
X3960129Y-6538579D01*
X3877856Y-6465692D01*
X3877854Y-6465690D01*
X3872240Y-6460717D01*
X3865595Y-6457229D01*
X3865593Y-6457228D01*
X3739006Y-6390789D01*
X3739002Y-6390787D01*
X3732365Y-6387304D01*
X3725087Y-6385510D01*
X3725084Y-6385509D01*
X3586267Y-6351294D01*
X3586260Y-6351293D01*
X3578985Y-6349500D01*
X3421015Y-6349500D01*
X3413740Y-6351292D01*
X3413732Y-6351294D01*
X3274915Y-6385509D01*
X3274909Y-6385510D01*
X3267635Y-6387304D01*
X3261000Y-6390786D01*
X3260993Y-6390789D01*
X3134406Y-6457228D01*
X3134400Y-6457231D01*
X3127760Y-6460717D01*
X3122148Y-6465687D01*
X3122143Y-6465692D01*
X3015127Y-6560499D01*
X3015122Y-6560503D01*
X3009517Y-6565470D01*
X3005262Y-6571634D01*
X3005257Y-6571640D01*
X2924043Y-6689300D01*
X2924040Y-6689303D01*
X2919780Y-6695477D01*
X2917120Y-6702488D01*
X2917118Y-6702494D01*
X2866423Y-6836167D01*
X2863763Y-6843182D01*
X2862859Y-6850622D01*
X2862858Y-6850629D01*
X2846070Y-6988896D01*
X2844722Y-7000000D01*
X2845626Y-7007445D01*
X2862858Y-7149370D01*
X2862859Y-7149375D01*
X2863763Y-7156818D01*
X2919780Y-7304523D01*
X3009517Y-7434530D01*
X3015126Y-7439499D01*
X3015127Y-7439500D01*
X3082727Y-7499388D01*
X3113576Y-7541313D01*
X3124500Y-7592204D01*
X3124500Y-13835508D01*
X3108506Y-13896424D01*
X3064650Y-13941625D01*
X3004245Y-13959451D01*
X2942874Y-13945304D01*
X2839006Y-13890789D01*
X2839002Y-13890787D01*
X2832365Y-13887304D01*
X2825087Y-13885510D01*
X2825084Y-13885509D01*
X2686267Y-13851294D01*
X2686260Y-13851293D01*
X2678985Y-13849500D01*
X2521015Y-13849500D01*
X2513735Y-13851294D01*
X2513729Y-13851295D01*
X2476216Y-13860541D01*
X2413244Y-13859589D01*
X2358862Y-13827825D01*
X2187707Y-13656670D01*
X2011819Y-13480781D01*
X1984939Y-13440553D01*
X1975500Y-13393100D01*
X1975500Y-9292204D01*
X1986424Y-9241313D01*
X2017273Y-9199388D01*
X2055308Y-9165692D01*
X2090483Y-9134530D01*
X2180220Y-9004523D01*
X2236237Y-8856818D01*
X2255278Y-8700000D01*
X2236237Y-8543182D01*
X2180220Y-8395477D01*
X2090483Y-8265470D01*
X2006075Y-8190692D01*
X1977856Y-8165692D01*
X1977854Y-8165690D01*
X1972240Y-8160717D01*
X1965595Y-8157229D01*
X1965593Y-8157228D01*
X1839006Y-8090789D01*
X1839002Y-8090787D01*
X1832365Y-8087304D01*
X1825087Y-8085510D01*
X1825084Y-8085509D01*
X1686267Y-8051294D01*
X1686260Y-8051293D01*
X1678985Y-8049500D01*
X1521015Y-8049500D01*
X1513740Y-8051292D01*
X1513732Y-8051294D01*
X1374915Y-8085509D01*
X1374909Y-8085510D01*
X1367635Y-8087304D01*
X1361000Y-8090786D01*
X1360993Y-8090789D01*
X1234406Y-8157228D01*
X1234400Y-8157231D01*
X1227760Y-8160717D01*
X1222148Y-8165687D01*
X1222143Y-8165692D01*
X1115127Y-8260499D01*
X1115122Y-8260503D01*
X1109517Y-8265470D01*
X1105262Y-8271634D01*
X1105257Y-8271640D01*
X1024043Y-8389300D01*
X1024040Y-8389303D01*
X1019780Y-8395477D01*
X1017120Y-8402488D01*
X1017118Y-8402494D01*
X966673Y-8535509D01*
X963763Y-8543182D01*
X962859Y-8550622D01*
X962858Y-8550629D01*
X953882Y-8624556D01*
X944722Y-8700000D01*
X945626Y-8707445D01*
X962858Y-8849370D01*
X962859Y-8849375D01*
X963763Y-8856818D01*
X966422Y-8863831D01*
X966423Y-8863832D01*
X1012959Y-8986539D01*
X1019780Y-9004523D01*
X1024043Y-9010699D01*
X1104021Y-9126569D01*
X1109517Y-9134530D01*
X1115126Y-9139499D01*
X1115127Y-9139500D01*
X1182727Y-9199388D01*
X1213576Y-9241313D01*
X1224500Y-9292204D01*
X1224500Y-13548195D01*
X1221860Y-13573644D01*
X1221741Y-13574209D01*
X1221740Y-13574216D01*
X1219633Y-13584268D01*
X1220903Y-13594458D01*
X1220903Y-13594462D01*
X1223548Y-13615676D01*
X1223871Y-13620891D01*
X1224077Y-13620874D01*
X1224500Y-13625981D01*
X1224500Y-13631114D01*
X1225344Y-13636172D01*
X1225345Y-13636184D01*
X1227918Y-13651603D01*
X1228657Y-13656670D01*
X1235134Y-13708626D01*
X1238626Y-13715770D01*
X1239935Y-13723610D01*
X1264845Y-13769641D01*
X1267171Y-13774161D01*
X1285660Y-13811979D01*
X1285661Y-13811981D01*
X1290174Y-13821211D01*
X1295797Y-13826834D01*
X1299581Y-13833826D01*
X1307138Y-13840782D01*
X1307139Y-13840784D01*
X1338082Y-13869269D01*
X1341780Y-13872817D01*
X1911114Y-14442151D01*
X1934920Y-14475549D01*
X1946529Y-14514885D01*
X1962858Y-14649371D01*
X1962859Y-14649377D01*
X1963763Y-14656818D01*
X2019780Y-14804523D01*
X2024043Y-14810699D01*
X2105093Y-14928122D01*
X2109517Y-14934530D01*
X2115126Y-14939499D01*
X2115127Y-14939500D01*
X2185192Y-15001572D01*
X2227760Y-15039283D01*
X2245712Y-15048705D01*
X2350258Y-15103576D01*
X2367635Y-15112696D01*
X2521015Y-15150500D01*
X2671485Y-15150500D01*
X2678985Y-15150500D01*
X2832365Y-15112696D01*
X2924209Y-15064492D01*
X2942874Y-15054696D01*
X3004245Y-15040549D01*
X3064650Y-15058375D01*
X3108506Y-15103576D01*
X3124500Y-15164492D01*
X3124500Y-17179570D01*
X3111500Y-17234841D01*
X3075227Y-17278524D01*
X3023285Y-17301459D01*
X2966566Y-17298836D01*
X2916962Y-17271207D01*
X2900742Y-17256421D01*
X2886041Y-17243019D01*
X2881171Y-17240004D01*
X2881169Y-17240002D01*
X2717511Y-17138670D01*
X2717512Y-17138670D01*
X2712637Y-17135652D01*
X2632356Y-17104551D01*
X2527803Y-17064047D01*
X2527798Y-17064045D01*
X2522456Y-17061976D01*
X2436029Y-17045820D01*
X2327605Y-17025552D01*
X2327602Y-17025551D01*
X2321976Y-17024500D01*
X2118024Y-17024500D01*
X2112398Y-17025551D01*
X2112394Y-17025552D01*
X1923181Y-17060922D01*
X1923178Y-17060922D01*
X1917544Y-17061976D01*
X1912203Y-17064044D01*
X1912196Y-17064047D01*
X1732705Y-17133582D01*
X1732700Y-17133584D01*
X1727363Y-17135652D01*
X1722491Y-17138668D01*
X1722488Y-17138670D01*
X1558830Y-17240002D01*
X1558822Y-17240007D01*
X1553959Y-17243019D01*
X1549728Y-17246875D01*
X1549724Y-17246879D01*
X1407476Y-17376554D01*
X1407466Y-17376564D01*
X1403236Y-17380421D01*
X1399787Y-17384987D01*
X1399778Y-17384998D01*
X1283779Y-17538607D01*
X1283776Y-17538611D01*
X1280327Y-17543179D01*
X1277774Y-17548304D01*
X1277772Y-17548309D01*
X1191976Y-17720612D01*
X1189418Y-17725750D01*
X1187850Y-17731258D01*
X1187847Y-17731268D01*
X1135173Y-17916395D01*
X1135170Y-17916406D01*
X1133603Y-17921917D01*
X1114785Y-18125000D01*
X1133603Y-18328083D01*
X1135171Y-18333594D01*
X1135173Y-18333604D01*
X1187847Y-18518731D01*
X1187849Y-18518737D01*
X1189418Y-18524250D01*
X1280327Y-18706821D01*
X1283779Y-18711392D01*
X1399778Y-18865001D01*
X1399783Y-18865006D01*
X1403236Y-18869579D01*
X1407472Y-18873440D01*
X1407476Y-18873445D01*
X1509227Y-18966203D01*
X1553959Y-19006981D01*
X1727363Y-19114348D01*
X1732704Y-19116417D01*
X1732708Y-19116419D01*
X1732711Y-19116420D01*
X1808284Y-19145696D01*
X1858397Y-19181519D01*
X1885088Y-19237036D01*
X1881771Y-19298548D01*
X1849262Y-19350872D01*
X1795586Y-19381097D01*
X1761742Y-19390166D01*
X1751602Y-19393856D01*
X1547332Y-19489110D01*
X1537982Y-19494508D01*
X1353357Y-19623784D01*
X1345092Y-19630719D01*
X1185719Y-19790092D01*
X1178784Y-19798357D01*
X1049508Y-19982982D01*
X1044110Y-19992332D01*
X948856Y-20196602D01*
X945168Y-20206736D01*
X893056Y-20401219D01*
X892688Y-20412448D01*
X500Y-20412448D01*
X500Y-3624335D01*
X1999500Y-3624335D01*
X2000343Y-3629387D01*
X2000344Y-3629398D01*
X2038952Y-3860768D01*
X2040429Y-3869614D01*
X2042093Y-3874461D01*
X2042094Y-3874465D01*
X2119507Y-4099962D01*
X2119510Y-4099969D01*
X2121172Y-4104810D01*
X2123607Y-4109310D01*
X2123610Y-4109316D01*
X2228153Y-4302494D01*
X2239526Y-4323509D01*
X2392262Y-4519744D01*
X2396029Y-4523211D01*
X2396032Y-4523215D01*
X2487533Y-4607447D01*
X2575215Y-4688164D01*
X2602895Y-4706248D01*
X2779099Y-4821368D01*
X2779102Y-4821369D01*
X2783393Y-4824173D01*
X3011119Y-4924063D01*
X3252179Y-4985108D01*
X3437933Y-5000500D01*
X3559497Y-5000500D01*
X3562067Y-5000500D01*
X3747821Y-4985108D01*
X3988881Y-4924063D01*
X4216607Y-4824173D01*
X4424785Y-4688164D01*
X4607738Y-4519744D01*
X4760474Y-4323509D01*
X4878828Y-4104810D01*
X4959571Y-3869614D01*
X5000500Y-3624335D01*
X5000500Y-3375665D01*
X4959571Y-3130386D01*
X4878828Y-2895190D01*
X4760474Y-2676491D01*
X4607738Y-2480256D01*
X4603970Y-2476787D01*
X4603967Y-2476784D01*
X4428560Y-2315311D01*
X4428559Y-2315310D01*
X4424785Y-2311836D01*
X4416885Y-2306675D01*
X4220900Y-2178631D01*
X4220893Y-2178627D01*
X4216607Y-2175827D01*
X4211916Y-2173769D01*
X4211910Y-2173766D01*
X3993577Y-2077997D01*
X3993578Y-2077997D01*
X3988881Y-2075937D01*
X3983911Y-2074678D01*
X3983910Y-2074678D01*
X3752795Y-2016151D01*
X3752788Y-2016149D01*
X3747821Y-2014892D01*
X3742709Y-2014468D01*
X3742701Y-2014467D01*
X3564633Y-1999712D01*
X3564617Y-1999711D01*
X3562067Y-1999500D01*
X3437933Y-1999500D01*
X3435383Y-1999711D01*
X3435366Y-1999712D01*
X3257298Y-2014467D01*
X3257288Y-2014468D01*
X3252179Y-2014892D01*
X3247213Y-2016149D01*
X3247204Y-2016151D01*
X3016089Y-2074678D01*
X3016084Y-2074679D01*
X3011119Y-2075937D01*
X3006425Y-2077995D01*
X3006422Y-2077997D01*
X2788089Y-2173766D01*
X2788077Y-2173772D01*
X2783393Y-2175827D01*
X2779111Y-2178624D01*
X2779099Y-2178631D01*
X2579512Y-2309028D01*
X2579506Y-2309031D01*
X2575215Y-2311836D01*
X2571446Y-2315305D01*
X2571439Y-2315311D01*
X2396032Y-2476784D01*
X2396023Y-2476793D01*
X2392262Y-2480256D01*
X2389113Y-2484301D01*
X2389111Y-2484304D01*
X2242678Y-2672440D01*
X2242672Y-2672448D01*
X2239526Y-2676491D01*
X2237088Y-2680995D01*
X2237084Y-2681002D01*
X2123610Y-2890683D01*
X2123605Y-2890693D01*
X2121172Y-2895190D01*
X2119511Y-2900026D01*
X2119507Y-2900037D01*
X2042094Y-3125534D01*
X2042092Y-3125541D01*
X2040429Y-3130386D01*
X2039585Y-3135441D01*
X2039585Y-3135443D01*
X2000344Y-3370601D01*
X2000343Y-3370613D01*
X1999500Y-3375665D01*
X1999500Y-3624335D01*
X500Y-3624335D01*
X500Y-124500D01*
X17113Y-62500D01*
X62500Y-17113D01*
X124500Y-500D01*
X39875500Y-500D01*
X39937500Y-17113D01*
G37*
%TD.AperFunction*%
%TD*%
M02*
