G04 #@! TF.GenerationSoftware,KiCad,Pcbnew,8.0.1*
G04 #@! TF.CreationDate,2024-06-15T21:09:50+03:00*
G04 #@! TF.ProjectId,FancyLight-V2,46616e63-794c-4696-9768-742d56322e6b,rev?*
G04 #@! TF.SameCoordinates,Original*
G04 #@! TF.FileFunction,Copper,L1,Top*
G04 #@! TF.FilePolarity,Positive*
%FSLAX46Y46*%
G04 Gerber Fmt 4.6, Leading zero omitted, Abs format (unit mm)*
G04 Created by KiCad (PCBNEW 8.0.1) date 2024-06-15 21:09:50*
%MOMM*%
%LPD*%
G01*
G04 APERTURE LIST*
G04 Aperture macros list*
%AMRoundRect*
0 Rectangle with rounded corners*
0 $1 Rounding radius*
0 $2 $3 $4 $5 $6 $7 $8 $9 X,Y pos of 4 corners*
0 Add a 4 corners polygon primitive as box body*
4,1,4,$2,$3,$4,$5,$6,$7,$8,$9,$2,$3,0*
0 Add four circle primitives for the rounded corners*
1,1,$1+$1,$2,$3*
1,1,$1+$1,$4,$5*
1,1,$1+$1,$6,$7*
1,1,$1+$1,$8,$9*
0 Add four rect primitives between the rounded corners*
20,1,$1+$1,$2,$3,$4,$5,0*
20,1,$1+$1,$4,$5,$6,$7,0*
20,1,$1+$1,$6,$7,$8,$9,0*
20,1,$1+$1,$8,$9,$2,$3,0*%
G04 Aperture macros list end*
G04 #@! TA.AperFunction,SMDPad,CuDef*
%ADD10RoundRect,0.062500X0.362500X0.062500X-0.362500X0.062500X-0.362500X-0.062500X0.362500X-0.062500X0*%
G04 #@! TD*
G04 #@! TA.AperFunction,SMDPad,CuDef*
%ADD11RoundRect,0.062500X0.062500X0.362500X-0.062500X0.362500X-0.062500X-0.362500X0.062500X-0.362500X0*%
G04 #@! TD*
G04 #@! TA.AperFunction,SMDPad,CuDef*
%ADD12R,2.600000X2.600000*%
G04 #@! TD*
G04 #@! TA.AperFunction,SMDPad,CuDef*
%ADD13RoundRect,0.218750X0.218750X0.256250X-0.218750X0.256250X-0.218750X-0.256250X0.218750X-0.256250X0*%
G04 #@! TD*
G04 #@! TA.AperFunction,SMDPad,CuDef*
%ADD14RoundRect,0.225000X-0.225000X-0.250000X0.225000X-0.250000X0.225000X0.250000X-0.225000X0.250000X0*%
G04 #@! TD*
G04 #@! TA.AperFunction,SMDPad,CuDef*
%ADD15RoundRect,0.200000X0.275000X-0.200000X0.275000X0.200000X-0.275000X0.200000X-0.275000X-0.200000X0*%
G04 #@! TD*
G04 #@! TA.AperFunction,ComponentPad*
%ADD16R,1.000000X1.000000*%
G04 #@! TD*
G04 #@! TA.AperFunction,ComponentPad*
%ADD17O,1.000000X1.000000*%
G04 #@! TD*
G04 #@! TA.AperFunction,SMDPad,CuDef*
%ADD18R,0.700000X1.150000*%
G04 #@! TD*
G04 #@! TA.AperFunction,SMDPad,CuDef*
%ADD19RoundRect,0.200000X-0.275000X0.200000X-0.275000X-0.200000X0.275000X-0.200000X0.275000X0.200000X0*%
G04 #@! TD*
G04 #@! TA.AperFunction,SMDPad,CuDef*
%ADD20RoundRect,0.250000X0.450000X-0.262500X0.450000X0.262500X-0.450000X0.262500X-0.450000X-0.262500X0*%
G04 #@! TD*
G04 #@! TA.AperFunction,SMDPad,CuDef*
%ADD21RoundRect,0.200000X-0.200000X-0.275000X0.200000X-0.275000X0.200000X0.275000X-0.200000X0.275000X0*%
G04 #@! TD*
G04 #@! TA.AperFunction,SMDPad,CuDef*
%ADD22R,2.500000X2.200000*%
G04 #@! TD*
G04 #@! TA.AperFunction,SMDPad,CuDef*
%ADD23R,1.550000X2.200000*%
G04 #@! TD*
G04 #@! TA.AperFunction,SMDPad,CuDef*
%ADD24RoundRect,0.225000X0.375000X-0.225000X0.375000X0.225000X-0.375000X0.225000X-0.375000X-0.225000X0*%
G04 #@! TD*
G04 #@! TA.AperFunction,ComponentPad*
%ADD25R,1.700000X1.700000*%
G04 #@! TD*
G04 #@! TA.AperFunction,ComponentPad*
%ADD26O,1.700000X1.700000*%
G04 #@! TD*
G04 #@! TA.AperFunction,SMDPad,CuDef*
%ADD27R,3.320000X1.500000*%
G04 #@! TD*
G04 #@! TA.AperFunction,SMDPad,CuDef*
%ADD28RoundRect,0.200000X0.200000X0.275000X-0.200000X0.275000X-0.200000X-0.275000X0.200000X-0.275000X0*%
G04 #@! TD*
G04 #@! TA.AperFunction,SMDPad,CuDef*
%ADD29RoundRect,0.250000X-0.450000X0.262500X-0.450000X-0.262500X0.450000X-0.262500X0.450000X0.262500X0*%
G04 #@! TD*
G04 #@! TA.AperFunction,SMDPad,CuDef*
%ADD30RoundRect,0.250000X-0.475000X0.250000X-0.475000X-0.250000X0.475000X-0.250000X0.475000X0.250000X0*%
G04 #@! TD*
G04 #@! TA.AperFunction,SMDPad,CuDef*
%ADD31RoundRect,0.225000X-0.225000X-0.375000X0.225000X-0.375000X0.225000X0.375000X-0.225000X0.375000X0*%
G04 #@! TD*
G04 #@! TA.AperFunction,SMDPad,CuDef*
%ADD32RoundRect,0.150000X-0.587500X-0.150000X0.587500X-0.150000X0.587500X0.150000X-0.587500X0.150000X0*%
G04 #@! TD*
G04 #@! TA.AperFunction,SMDPad,CuDef*
%ADD33RoundRect,0.042000X-0.943000X-0.258000X0.943000X-0.258000X0.943000X0.258000X-0.943000X0.258000X0*%
G04 #@! TD*
G04 #@! TA.AperFunction,SMDPad,CuDef*
%ADD34R,2.413000X3.302000*%
G04 #@! TD*
G04 #@! TA.AperFunction,SMDPad,CuDef*
%ADD35RoundRect,0.225000X0.225000X0.250000X-0.225000X0.250000X-0.225000X-0.250000X0.225000X-0.250000X0*%
G04 #@! TD*
G04 #@! TA.AperFunction,SMDPad,CuDef*
%ADD36RoundRect,0.112500X-0.112500X0.187500X-0.112500X-0.187500X0.112500X-0.187500X0.112500X0.187500X0*%
G04 #@! TD*
G04 #@! TA.AperFunction,SMDPad,CuDef*
%ADD37RoundRect,0.150000X-0.512500X-0.150000X0.512500X-0.150000X0.512500X0.150000X-0.512500X0.150000X0*%
G04 #@! TD*
G04 #@! TA.AperFunction,SMDPad,CuDef*
%ADD38RoundRect,0.250000X0.250000X0.475000X-0.250000X0.475000X-0.250000X-0.475000X0.250000X-0.475000X0*%
G04 #@! TD*
G04 #@! TA.AperFunction,SMDPad,CuDef*
%ADD39RoundRect,0.225000X0.250000X-0.225000X0.250000X0.225000X-0.250000X0.225000X-0.250000X-0.225000X0*%
G04 #@! TD*
G04 #@! TA.AperFunction,ComponentPad*
%ADD40O,1.100000X1.900000*%
G04 #@! TD*
G04 #@! TA.AperFunction,SMDPad,CuDef*
%ADD41R,0.700000X1.000000*%
G04 #@! TD*
G04 #@! TA.AperFunction,SMDPad,CuDef*
%ADD42R,0.800000X1.000000*%
G04 #@! TD*
G04 #@! TA.AperFunction,SMDPad,CuDef*
%ADD43R,1.250000X0.700000*%
G04 #@! TD*
G04 #@! TA.AperFunction,SMDPad,CuDef*
%ADD44R,0.800000X0.500000*%
G04 #@! TD*
G04 #@! TA.AperFunction,SMDPad,CuDef*
%ADD45R,0.800000X0.400000*%
G04 #@! TD*
G04 #@! TA.AperFunction,ViaPad*
%ADD46C,0.800000*%
G04 #@! TD*
G04 #@! TA.AperFunction,Conductor*
%ADD47C,0.500000*%
G04 #@! TD*
G04 #@! TA.AperFunction,Conductor*
%ADD48C,0.250000*%
G04 #@! TD*
G04 #@! TA.AperFunction,Conductor*
%ADD49C,0.200000*%
G04 #@! TD*
G04 APERTURE END LIST*
D10*
X11225000Y-8300000D03*
X11225000Y-7800000D03*
X11225000Y-7300000D03*
X11225000Y-6800000D03*
X11225000Y-6300000D03*
D11*
X10300000Y-5375000D03*
X9800000Y-5375000D03*
X9300000Y-5375000D03*
X8800000Y-5375000D03*
X8300000Y-5375000D03*
D10*
X7375000Y-6300000D03*
X7375000Y-6800000D03*
X7375000Y-7300000D03*
X7375000Y-7800000D03*
X7375000Y-8300000D03*
D11*
X8300000Y-9225000D03*
X8800000Y-9225000D03*
X9300000Y-9225000D03*
X9800000Y-9225000D03*
X10300000Y-9225000D03*
D12*
X9300000Y-7300000D03*
D13*
X26462500Y-27900000D03*
X24887500Y-27900000D03*
D14*
X24825000Y-31500000D03*
X26375000Y-31500000D03*
D15*
X34600000Y-33325000D03*
X34600000Y-31675000D03*
D16*
X32000000Y-37470000D03*
D17*
X32000000Y-36200000D03*
D18*
X31750000Y-3500000D03*
X30800000Y-6000000D03*
X29850000Y-3500000D03*
D19*
X27075000Y-8225000D03*
X27075000Y-9875000D03*
D20*
X10200000Y-24800000D03*
X10200000Y-22975000D03*
D21*
X3475000Y-31700000D03*
X5125000Y-31700000D03*
X24750000Y-29600000D03*
X26400000Y-29600000D03*
D13*
X13875000Y-11500000D03*
X12300000Y-11500000D03*
D22*
X15494000Y-24765000D03*
D23*
X12919000Y-24765000D03*
D15*
X11700000Y-34225000D03*
X11700000Y-32575000D03*
D24*
X26650000Y-37800000D03*
X26650000Y-34500000D03*
D25*
X5500000Y-22660000D03*
D26*
X5500000Y-25200000D03*
X2960000Y-22660000D03*
X2960000Y-25200000D03*
D27*
X23100000Y-20128000D03*
X23100000Y-17472000D03*
D22*
X26924000Y-24765000D03*
D23*
X24349000Y-24765000D03*
D28*
X5125000Y-30000000D03*
X3475000Y-30000000D03*
D15*
X13800000Y-9425000D03*
X13800000Y-7775000D03*
D19*
X5200000Y-8875000D03*
X5200000Y-10525000D03*
D15*
X14375000Y-29125000D03*
X14375000Y-27475000D03*
D29*
X10300000Y-16487500D03*
X10300000Y-18312500D03*
D22*
X26924000Y-14100000D03*
D23*
X24349000Y-14100000D03*
D30*
X26100000Y-18200000D03*
X26100000Y-20100000D03*
D31*
X16809300Y-17073400D03*
X20109300Y-17073400D03*
D16*
X20926000Y-3456000D03*
D17*
X20926000Y-4726000D03*
X20926000Y-5996000D03*
D32*
X22351000Y-8476000D03*
X22351000Y-10376000D03*
X24226000Y-9426000D03*
D16*
X27576000Y-3476000D03*
D17*
X27576000Y-4746000D03*
D15*
X10687500Y-13125000D03*
X10687500Y-11475000D03*
D33*
X17320300Y-28036800D03*
X17320300Y-29306800D03*
X17320300Y-30576800D03*
X17320300Y-31846800D03*
X22270300Y-31846800D03*
X22270300Y-30576800D03*
X22270300Y-29306800D03*
X22270300Y-28036800D03*
D34*
X19795300Y-29941800D03*
D14*
X32225000Y-6400000D03*
X33775000Y-6400000D03*
D35*
X18475000Y-3200000D03*
X16925000Y-3200000D03*
D16*
X32000000Y-33600000D03*
D17*
X32000000Y-32330000D03*
D32*
X7025000Y-27950000D03*
X7025000Y-29850000D03*
X8900000Y-28900000D03*
D36*
X11300000Y-28850000D03*
X11300000Y-30950000D03*
D28*
X15625000Y-22100000D03*
X13975000Y-22100000D03*
D15*
X13900000Y-36025000D03*
X13900000Y-34375000D03*
D37*
X17825000Y-20200000D03*
X17825000Y-21150000D03*
X17825000Y-22100000D03*
X20100000Y-22100000D03*
X20100000Y-21150000D03*
X20100000Y-20200000D03*
D16*
X24226000Y-5996000D03*
D17*
X24226000Y-4726000D03*
X24226000Y-3456000D03*
D38*
X14735700Y-17124200D03*
X12835700Y-17124200D03*
D22*
X15494000Y-14100000D03*
D23*
X12919000Y-14100000D03*
D14*
X30025000Y-1750000D03*
X31575000Y-1750000D03*
D39*
X14375000Y-32275000D03*
X14375000Y-30725000D03*
D35*
X31175000Y-30300000D03*
X29625000Y-30300000D03*
D14*
X7425000Y-3700000D03*
X8975000Y-3700000D03*
D24*
X29200000Y-37850000D03*
X29200000Y-34550000D03*
D19*
X20326000Y-8501000D03*
X20326000Y-10151000D03*
D32*
X29100000Y-8200000D03*
X29100000Y-10100000D03*
X30975000Y-9150000D03*
D21*
X13975000Y-20400000D03*
X15625000Y-20400000D03*
D40*
X15680000Y-34562000D03*
X15680000Y-38363000D03*
X24320000Y-34562000D03*
X24320000Y-38363000D03*
D41*
X19500000Y-34437000D03*
X21500000Y-34437000D03*
D42*
X22700000Y-34437000D03*
D41*
X20500000Y-34437000D03*
X18500000Y-34437000D03*
D42*
X17300000Y-34437000D03*
D28*
X5125000Y-28000000D03*
X3475000Y-28000000D03*
D25*
X2960000Y-13275000D03*
D26*
X5500000Y-13275000D03*
X2960000Y-15815000D03*
X5500000Y-15815000D03*
X2960000Y-18355000D03*
X5500000Y-18355000D03*
D43*
X33900000Y-29950000D03*
X33900000Y-28050000D03*
X31900000Y-29000000D03*
D44*
X16676000Y-5776000D03*
D45*
X16676000Y-6576000D03*
X16676000Y-7376000D03*
D44*
X16676000Y-8176000D03*
X18476000Y-8176000D03*
D45*
X18476000Y-7376000D03*
X18476000Y-6576000D03*
D44*
X18476000Y-5776000D03*
D46*
X6300000Y-26600000D03*
X7200000Y-32800000D03*
X7200000Y-31400000D03*
X9800000Y-26600000D03*
X11200000Y-26600000D03*
X18100000Y-25900000D03*
X19500000Y-25900000D03*
X28100000Y-32000000D03*
X28100000Y-30600000D03*
X35900000Y-30800000D03*
X35900000Y-29400000D03*
X27100000Y-11700000D03*
X25700000Y-11700000D03*
X22000000Y-12100000D03*
X20600000Y-12100000D03*
X17400000Y-11700000D03*
X16000000Y-11700000D03*
X34500000Y-8400000D03*
X33100000Y-8400000D03*
X8700000Y-2400000D03*
X7300000Y-2400000D03*
X33000000Y-3300000D03*
X33000000Y-1700000D03*
X11900000Y-3700000D03*
X13300000Y-3700000D03*
X14700000Y-3700000D03*
X8300000Y-26700000D03*
X9300000Y-11600000D03*
X19800000Y-19000000D03*
X11500000Y-19600000D03*
X10000000Y-6500000D03*
X12300000Y-22700000D03*
X10000000Y-7900000D03*
X21900000Y-15200000D03*
X19500000Y-15200000D03*
X8600000Y-7900000D03*
X16500000Y-19000000D03*
X8500000Y-6500000D03*
X19700000Y-23100000D03*
X26400000Y-16500000D03*
X15200000Y-19000000D03*
X17700000Y-23100000D03*
X12800000Y-19200000D03*
X9800000Y-31500000D03*
X21200000Y-26700000D03*
X6400000Y-10800000D03*
X25400000Y-21900000D03*
X10300000Y-3700000D03*
X23000000Y-21900000D03*
X33000000Y-4900000D03*
X24200000Y-21900000D03*
X10700000Y-14300000D03*
X11700000Y-9200000D03*
X4200000Y-8900000D03*
X25825000Y-8225000D03*
X18476000Y-9276000D03*
X21300000Y-23000000D03*
X18376000Y-4476000D03*
X15300000Y-9400000D03*
X7400000Y-10000000D03*
X17401000Y-9300000D03*
X6350000Y-8050000D03*
X15500000Y-8200000D03*
D47*
X19160300Y-30576800D02*
X19795300Y-29941800D01*
X17320300Y-30576800D02*
X19160300Y-30576800D01*
X28500000Y-15673000D02*
X27600000Y-14773000D01*
X28500000Y-23189000D02*
X28500000Y-15673000D01*
X26924000Y-24765000D02*
X28500000Y-23189000D01*
D48*
X6400000Y-10800000D02*
X6100000Y-10500000D01*
X6100000Y-10500000D02*
X5725000Y-10500000D01*
X8300000Y-26700000D02*
X8275000Y-26700000D01*
X8275000Y-26700000D02*
X7025000Y-27950000D01*
D47*
X11202082Y-21500000D02*
X10300000Y-21500000D01*
X12250000Y-20452082D02*
X11202082Y-21500000D01*
X13975000Y-20400000D02*
X12250000Y-20400000D01*
X12250000Y-20400000D02*
X12250000Y-20452082D01*
X10531500Y-16487500D02*
X12919000Y-14100000D01*
X10300000Y-16487500D02*
X10531500Y-16487500D01*
X10200000Y-22975000D02*
X10300000Y-22875000D01*
X10300000Y-22875000D02*
X10300000Y-18312500D01*
X12919000Y-14100000D02*
X12919000Y-14097000D01*
X12884000Y-24800000D02*
X12919000Y-24765000D01*
X10200000Y-24800000D02*
X12884000Y-24800000D01*
D48*
X21200000Y-26700000D02*
X22270300Y-27770300D01*
X22270300Y-27770300D02*
X22270300Y-28036800D01*
X10875000Y-32575000D02*
X11700000Y-32575000D01*
X9800000Y-31500000D02*
X10875000Y-32575000D01*
X20100000Y-22400000D02*
X20100000Y-22100000D01*
X20700000Y-23000000D02*
X20100000Y-22400000D01*
X21300000Y-23000000D02*
X20700000Y-23000000D01*
X5274695Y-6800000D02*
X7375000Y-6800000D01*
X3475000Y-8599695D02*
X5274695Y-6800000D01*
X4300000Y-12265000D02*
X3475000Y-11440000D01*
X3475000Y-11440000D02*
X3475000Y-8599695D01*
X2449150Y-23900000D02*
X3525000Y-23900000D01*
X3525000Y-23900000D02*
X4300000Y-23125000D01*
X1600000Y-28125000D02*
X1600000Y-24749150D01*
X1600000Y-24749150D02*
X2449150Y-23900000D01*
X3475000Y-30000000D02*
X1600000Y-28125000D01*
X4300000Y-23125000D02*
X4300000Y-12265000D01*
X5175000Y-8900000D02*
X5200000Y-8875000D01*
X4200000Y-8900000D02*
X5175000Y-8900000D01*
X5200000Y-8174695D02*
X5200000Y-8875000D01*
X6074695Y-7300000D02*
X5200000Y-8174695D01*
X7375000Y-7300000D02*
X6074695Y-7300000D01*
X3475000Y-31700000D02*
X3475000Y-30000000D01*
X6875000Y-30000000D02*
X7025000Y-29850000D01*
X5125000Y-30000000D02*
X6875000Y-30000000D01*
X8950000Y-28850000D02*
X8900000Y-28900000D01*
X11300000Y-28850000D02*
X8950000Y-28850000D01*
X3325000Y-25565000D02*
X2960000Y-25200000D01*
X3325000Y-28000000D02*
X3325000Y-25565000D01*
X27600000Y-3500000D02*
X27576000Y-3476000D01*
X29850000Y-3500000D02*
X27600000Y-3500000D01*
X33000000Y-4900000D02*
X33000000Y-5625000D01*
X33000000Y-5625000D02*
X32225000Y-6400000D01*
X31200000Y-6400000D02*
X30800000Y-6000000D01*
X32225000Y-6400000D02*
X31200000Y-6400000D01*
X25825000Y-8225000D02*
X27075000Y-8225000D01*
D47*
X29200000Y-14100000D02*
X30975000Y-12325000D01*
X26924000Y-14100000D02*
X29200000Y-14100000D01*
X30975000Y-12325000D02*
X30975000Y-9150000D01*
D48*
X18475000Y-3200000D02*
X20670000Y-3200000D01*
X20670000Y-3200000D02*
X20926000Y-3456000D01*
X11226000Y-10151000D02*
X20326000Y-10151000D01*
X10300000Y-9225000D02*
X11226000Y-10151000D01*
X6600000Y-7800000D02*
X7375000Y-7800000D01*
X6350000Y-8050000D02*
X6600000Y-7800000D01*
X7400000Y-10000000D02*
X7400000Y-9800000D01*
X7400000Y-8325000D02*
X7375000Y-8300000D01*
X7400000Y-10000000D02*
X7400000Y-8325000D01*
X2300000Y-6300000D02*
X7375000Y-6300000D01*
X1175000Y-7425000D02*
X2300000Y-6300000D01*
X2960000Y-22660000D02*
X1175000Y-20875000D01*
X1175000Y-20875000D02*
X1175000Y-7425000D01*
X6675000Y-21485000D02*
X5500000Y-22660000D01*
X6675000Y-16990000D02*
X6675000Y-21485000D01*
X5500000Y-15815000D02*
X6675000Y-16990000D01*
X9300000Y-11600000D02*
X9400000Y-11500000D01*
X10300000Y-10639496D02*
X9439496Y-11500000D01*
X9439496Y-11500000D02*
X9300000Y-11600000D01*
X10300000Y-9225000D02*
X10300000Y-10639496D01*
X8300000Y-13015000D02*
X5500000Y-15815000D01*
X8300000Y-9225000D02*
X8300000Y-13015000D01*
D47*
X27950000Y-33300000D02*
X29200000Y-34550000D01*
D48*
X24878200Y-31846800D02*
X24925000Y-31800000D01*
D47*
X24900000Y-31575000D02*
X24825000Y-31500000D01*
X32000000Y-33700000D02*
X32000000Y-33600000D01*
D49*
X34600000Y-33325000D02*
X34325000Y-33600000D01*
D47*
X26000000Y-33300000D02*
X27950000Y-33300000D01*
X29200000Y-34550000D02*
X31150000Y-34550000D01*
X24900000Y-32200000D02*
X24900000Y-31575000D01*
X24900000Y-32200000D02*
X26000000Y-33300000D01*
X24925000Y-31800000D02*
X22317100Y-31800000D01*
D49*
X34325000Y-33600000D02*
X32000000Y-33600000D01*
D47*
X31150000Y-34550000D02*
X32000000Y-33700000D01*
X22317100Y-31800000D02*
X22270300Y-31846800D01*
X29625000Y-31425000D02*
X29625000Y-30175000D01*
X29625000Y-30175000D02*
X30800000Y-29000000D01*
X30800000Y-29000000D02*
X31900000Y-29000000D01*
X30530000Y-32330000D02*
X29625000Y-31425000D01*
X32100000Y-32330000D02*
X30530000Y-32330000D01*
X18550000Y-21150000D02*
X18900000Y-20800000D01*
X17825000Y-21150000D02*
X18550000Y-21150000D01*
X30999000Y-9126000D02*
X30975000Y-9150000D01*
X13975000Y-20400000D02*
X13975000Y-17884900D01*
X16809300Y-17073400D02*
X14786500Y-17073400D01*
X14786500Y-17073400D02*
X14735700Y-17124200D01*
X13975000Y-17884900D02*
X14735700Y-17124200D01*
X18500000Y-33026500D02*
X17320300Y-31846800D01*
D48*
X12000000Y-32275000D02*
X11700000Y-32575000D01*
D47*
X21500000Y-34437000D02*
X21500000Y-35437000D01*
X21150000Y-33487000D02*
X18700000Y-33487000D01*
X17273500Y-31800000D02*
X14850000Y-31800000D01*
X18500000Y-34437000D02*
X18500000Y-33026500D01*
X21500000Y-33837000D02*
X21500000Y-34437000D01*
D48*
X24600700Y-28036800D02*
X22270300Y-28036800D01*
X14375000Y-32275000D02*
X12000000Y-32275000D01*
D47*
X17320300Y-31846800D02*
X17273500Y-31800000D01*
X14850000Y-31800000D02*
X14375000Y-32275000D01*
D48*
X24737500Y-27900000D02*
X24600700Y-28036800D01*
D47*
X22025000Y-35962000D02*
X25188000Y-35962000D01*
X25188000Y-35962000D02*
X26650000Y-34500000D01*
X18500000Y-33687000D02*
X18500000Y-34437000D01*
X21500000Y-33837000D02*
X21150000Y-33487000D01*
D48*
X11700000Y-32575000D02*
X11700000Y-31350000D01*
X11700000Y-31350000D02*
X11300000Y-30950000D01*
D47*
X18700000Y-33487000D02*
X18500000Y-33687000D01*
X21500000Y-35437000D02*
X22025000Y-35962000D01*
X21687184Y-20128000D02*
X23100000Y-20128000D01*
X26100000Y-20100000D02*
X23128000Y-20100000D01*
D48*
X8800000Y-5375000D02*
X8800000Y-3875000D01*
D47*
X20100000Y-21150000D02*
X20665184Y-21150000D01*
D48*
X10300000Y-3700000D02*
X8975000Y-3700000D01*
D47*
X20665184Y-21150000D02*
X21687184Y-20128000D01*
D48*
X8800000Y-3875000D02*
X8975000Y-3700000D01*
D47*
X23128000Y-20100000D02*
X23100000Y-20128000D01*
D48*
X31475000Y-30200000D02*
X32525000Y-30200000D01*
X31175000Y-30500000D02*
X31475000Y-30200000D01*
X32950000Y-29000000D02*
X33900000Y-28050000D01*
X32525000Y-30200000D02*
X32950000Y-29775000D01*
X34600000Y-31675000D02*
X34000000Y-31675000D01*
X32525000Y-30200000D02*
X32950000Y-30625000D01*
X34000000Y-31675000D02*
X32950000Y-30625000D01*
X32950000Y-29775000D02*
X32950000Y-29000000D01*
D47*
X24349000Y-14097000D02*
X15494000Y-14097000D01*
D48*
X29850000Y-1925000D02*
X30025000Y-1750000D01*
X29850000Y-3500000D02*
X29850000Y-1925000D01*
D47*
X20109300Y-17073400D02*
X19226600Y-17073400D01*
X22728000Y-17100000D02*
X20135900Y-17100000D01*
X20135900Y-17100000D02*
X20109300Y-17073400D01*
X17825000Y-18475000D02*
X17825000Y-20200000D01*
X19226600Y-17073400D02*
X17825000Y-18475000D01*
X23100000Y-17472000D02*
X22728000Y-17100000D01*
D48*
X26400000Y-28112500D02*
X26612500Y-27900000D01*
X26400000Y-29900000D02*
X26400000Y-28112500D01*
D47*
X15494000Y-24765000D02*
X24349000Y-24765000D01*
X31620000Y-37850000D02*
X32000000Y-37470000D01*
X29200000Y-37850000D02*
X31620000Y-37850000D01*
X29150000Y-37800000D02*
X29200000Y-37850000D01*
X26650000Y-37800000D02*
X29150000Y-37800000D01*
D48*
X10700000Y-14300000D02*
X10700000Y-14000000D01*
X10687500Y-13125000D02*
X10687500Y-13987500D01*
X11700000Y-8775000D02*
X11700000Y-9200000D01*
X10687500Y-13987500D02*
X10700000Y-14300000D01*
X11700000Y-9200000D02*
X11700000Y-8900000D01*
X11225000Y-8300000D02*
X11700000Y-8775000D01*
X24226000Y-5996000D02*
X24226000Y-9426000D01*
X17138500Y-29125000D02*
X17320300Y-29306800D01*
X14375000Y-29125000D02*
X17138500Y-29125000D01*
X20326000Y-8501000D02*
X22326000Y-8501000D01*
X22326000Y-8501000D02*
X22351000Y-8476000D01*
X18476000Y-9276000D02*
X18476000Y-9176000D01*
X18476000Y-8176000D02*
X18476000Y-9276000D01*
X27100000Y-8200000D02*
X27075000Y-8225000D01*
X29100000Y-8200000D02*
X27100000Y-8200000D01*
X22363500Y-29400000D02*
X24550000Y-29400000D01*
X22270300Y-29306800D02*
X22363500Y-29400000D01*
X24550000Y-29400000D02*
X24750000Y-29600000D01*
X13900000Y-36025000D02*
X18662000Y-36025000D01*
X19500000Y-34437000D02*
X20500000Y-34437000D01*
X18662000Y-36025000D02*
X19500000Y-35187000D01*
X19500000Y-35187000D02*
X19500000Y-34437000D01*
X11749000Y-5776000D02*
X11225000Y-6300000D01*
X16676000Y-5776000D02*
X11749000Y-5776000D01*
X11699740Y-6800000D02*
X11225000Y-6800000D01*
X16676000Y-6576000D02*
X16652000Y-6600000D01*
X11899740Y-6600000D02*
X11699740Y-6800000D01*
X16652000Y-6600000D02*
X11899740Y-6600000D01*
X23846000Y-4726000D02*
X24226000Y-4726000D01*
X18476000Y-7376000D02*
X21196000Y-7376000D01*
X21196000Y-7376000D02*
X23846000Y-4726000D01*
X20926000Y-5996000D02*
X20346000Y-6576000D01*
X20346000Y-6576000D02*
X18476000Y-6576000D01*
X18376000Y-4476000D02*
X18476000Y-4576000D01*
X18476000Y-4576000D02*
X18476000Y-5776000D01*
X2960000Y-25200000D02*
X5500000Y-25200000D01*
D47*
X17825000Y-22100000D02*
X15625000Y-22100000D01*
X15625000Y-22100000D02*
X15625000Y-20400000D01*
D48*
X11225000Y-7800000D02*
X12175000Y-7800000D01*
X12175000Y-7800000D02*
X13800000Y-9425000D01*
X15275000Y-9425000D02*
X13800000Y-9425000D01*
X15300000Y-9400000D02*
X15000000Y-9400000D01*
X15300000Y-9400000D02*
X15275000Y-9425000D01*
X13325000Y-7300000D02*
X13800000Y-7775000D01*
X11225000Y-7300000D02*
X13325000Y-7300000D01*
X17600000Y-9101000D02*
X17401000Y-9300000D01*
X17600000Y-7650000D02*
X17600000Y-9101000D01*
X16676000Y-7376000D02*
X17326000Y-7376000D01*
X17376000Y-9325000D02*
X17401000Y-9300000D01*
X17326000Y-7376000D02*
X17600000Y-7650000D01*
X15524000Y-8176000D02*
X15500000Y-8200000D01*
X16676000Y-8176000D02*
X15524000Y-8176000D01*
X10712500Y-11500000D02*
X10687500Y-11475000D01*
X12275000Y-11475000D02*
X12300000Y-11500000D01*
X10687500Y-11475000D02*
X12275000Y-11475000D01*
G04 #@! TA.AperFunction,Conductor*
G36*
X27578300Y-19497746D02*
G01*
X27644959Y-19518668D01*
X27689729Y-19572310D01*
X27700000Y-19621724D01*
X27700000Y-22373682D01*
X27680315Y-22440721D01*
X27627511Y-22486476D01*
X27573704Y-22497661D01*
X22421704Y-22402253D01*
X22355041Y-22381330D01*
X22310271Y-22327688D01*
X22300000Y-22278274D01*
X22300000Y-21502000D01*
X22319685Y-21434961D01*
X22372489Y-21389206D01*
X22424000Y-21378000D01*
X22850000Y-21378000D01*
X23350000Y-21378000D01*
X24807828Y-21378000D01*
X24807844Y-21377999D01*
X24867372Y-21371598D01*
X24867379Y-21371596D01*
X25002086Y-21321354D01*
X25002093Y-21321350D01*
X25117187Y-21235190D01*
X25117190Y-21235187D01*
X25203350Y-21120093D01*
X25207604Y-21112304D01*
X25210171Y-21113705D01*
X25243186Y-21069588D01*
X25308647Y-21045160D01*
X25356517Y-21051137D01*
X25472302Y-21089505D01*
X25472309Y-21089506D01*
X25575019Y-21099999D01*
X25849999Y-21099999D01*
X25850000Y-21099998D01*
X25850000Y-20350000D01*
X26350000Y-20350000D01*
X26350000Y-21099999D01*
X26624972Y-21099999D01*
X26624986Y-21099998D01*
X26727697Y-21089505D01*
X26894119Y-21034358D01*
X26894124Y-21034356D01*
X27043345Y-20942315D01*
X27167315Y-20818345D01*
X27259356Y-20669124D01*
X27259358Y-20669119D01*
X27314505Y-20502697D01*
X27314506Y-20502690D01*
X27324999Y-20399986D01*
X27325000Y-20399973D01*
X27325000Y-20350000D01*
X26350000Y-20350000D01*
X25850000Y-20350000D01*
X25296084Y-20350000D01*
X25249996Y-20375166D01*
X25223638Y-20378000D01*
X23350000Y-20378000D01*
X23350000Y-21378000D01*
X22850000Y-21378000D01*
X22850000Y-20002000D01*
X22869685Y-19934961D01*
X22922489Y-19889206D01*
X22974000Y-19878000D01*
X24838916Y-19878000D01*
X24885004Y-19852834D01*
X24911362Y-19850000D01*
X27324999Y-19850000D01*
X27324999Y-19800028D01*
X27324998Y-19800013D01*
X27314506Y-19697304D01*
X27301423Y-19657824D01*
X27299021Y-19587996D01*
X27334752Y-19527954D01*
X27397272Y-19496761D01*
X27421412Y-19494840D01*
X27578300Y-19497746D01*
G37*
G04 #@! TD.AperFunction*
G04 #@! TA.AperFunction,Conductor*
G36*
X5750000Y-19685633D02*
G01*
X5963483Y-19628433D01*
X5963492Y-19628429D01*
X6123095Y-19554006D01*
X6192173Y-19543514D01*
X6255957Y-19572034D01*
X6294196Y-19630510D01*
X6299500Y-19666388D01*
X6299500Y-21278101D01*
X6279815Y-21345140D01*
X6263181Y-21365782D01*
X6105782Y-21523181D01*
X6044459Y-21556666D01*
X6018101Y-21559500D01*
X4799500Y-21559500D01*
X4732461Y-21539815D01*
X4686706Y-21487011D01*
X4675500Y-21435500D01*
X4675500Y-19654730D01*
X4695185Y-19587691D01*
X4747989Y-19541936D01*
X4817147Y-19531992D01*
X4851905Y-19542348D01*
X5036507Y-19628429D01*
X5036516Y-19628433D01*
X5250000Y-19685634D01*
X5250000Y-18788012D01*
X5307007Y-18820925D01*
X5434174Y-18855000D01*
X5565826Y-18855000D01*
X5692993Y-18820925D01*
X5750000Y-18788012D01*
X5750000Y-19685633D01*
G37*
G04 #@! TD.AperFunction*
G04 #@! TA.AperFunction,Conductor*
G36*
X9367539Y-5269685D02*
G01*
X9413294Y-5322489D01*
X9424500Y-5374000D01*
X9424500Y-5774180D01*
X9430500Y-5819756D01*
X9430502Y-5819763D01*
X9477150Y-5919799D01*
X9513681Y-5956330D01*
X9547166Y-6017653D01*
X9550000Y-6044011D01*
X9550000Y-7426000D01*
X9530315Y-7493039D01*
X9477511Y-7538794D01*
X9426000Y-7550000D01*
X9174000Y-7550000D01*
X9106961Y-7530315D01*
X9061206Y-7477511D01*
X9050000Y-7426000D01*
X9050000Y-6044011D01*
X9069685Y-5976972D01*
X9086319Y-5956330D01*
X9092560Y-5950089D01*
X9122850Y-5919799D01*
X9169499Y-5819760D01*
X9175500Y-5774179D01*
X9175500Y-5394437D01*
X9175500Y-5374000D01*
X9195185Y-5306961D01*
X9247989Y-5261206D01*
X9299500Y-5250000D01*
X9300500Y-5250000D01*
X9367539Y-5269685D01*
G37*
G04 #@! TD.AperFunction*
G04 #@! TA.AperFunction,Conductor*
G36*
X20118539Y-3595185D02*
G01*
X20164294Y-3647989D01*
X20175500Y-3699500D01*
X20175500Y-3980672D01*
X20177428Y-3990366D01*
X20171199Y-4059958D01*
X20151664Y-4093220D01*
X20090507Y-4167740D01*
X20090505Y-4167742D01*
X19997652Y-4341458D01*
X19956839Y-4475999D01*
X19956840Y-4476000D01*
X20716382Y-4476000D01*
X20665936Y-4526446D01*
X20623149Y-4600555D01*
X20601000Y-4683213D01*
X20601000Y-4768787D01*
X20623149Y-4851445D01*
X20665936Y-4925554D01*
X20716382Y-4976000D01*
X19956840Y-4976000D01*
X19997652Y-5110541D01*
X20090503Y-5284253D01*
X20090507Y-5284260D01*
X20215471Y-5436527D01*
X20246941Y-5462354D01*
X20286276Y-5520100D01*
X20288147Y-5589944D01*
X20273272Y-5624178D01*
X20245545Y-5668306D01*
X20189685Y-5827943D01*
X20170751Y-5995997D01*
X20170751Y-5996004D01*
X20178256Y-6062617D01*
X20166201Y-6131439D01*
X20118852Y-6182818D01*
X20055036Y-6200500D01*
X19247792Y-6200500D01*
X19180753Y-6180815D01*
X19134998Y-6128011D01*
X19125054Y-6058853D01*
X19126176Y-6052301D01*
X19126499Y-6050678D01*
X19126500Y-6050674D01*
X19126500Y-5501326D01*
X19126500Y-5501323D01*
X19126499Y-5501321D01*
X19111967Y-5428264D01*
X19111966Y-5428260D01*
X19098708Y-5408418D01*
X19056601Y-5345399D01*
X19001235Y-5308405D01*
X18973739Y-5290033D01*
X18973737Y-5290032D01*
X18951307Y-5285571D01*
X18889397Y-5253185D01*
X18854823Y-5192469D01*
X18851500Y-5163954D01*
X18851500Y-4970877D01*
X18871185Y-4903838D01*
X18873450Y-4900437D01*
X18907266Y-4851445D01*
X18956220Y-4780523D01*
X19012237Y-4632818D01*
X19031278Y-4476000D01*
X19030000Y-4465470D01*
X19012237Y-4319181D01*
X18969502Y-4206500D01*
X18956220Y-4171477D01*
X18876721Y-4056303D01*
X18854839Y-3989949D01*
X18872304Y-3922298D01*
X18923572Y-3874828D01*
X18927423Y-3873158D01*
X18930222Y-3871629D01*
X18930226Y-3871628D01*
X19039687Y-3789687D01*
X19121628Y-3680226D01*
X19130602Y-3656163D01*
X19172473Y-3600233D01*
X19237937Y-3575816D01*
X19246783Y-3575500D01*
X20051500Y-3575500D01*
X20118539Y-3595185D01*
G37*
G04 #@! TD.AperFunction*
G04 #@! TA.AperFunction,Conductor*
G36*
X21132539Y-17620185D02*
G01*
X21178294Y-17672989D01*
X21189500Y-17724500D01*
X21189500Y-18246678D01*
X21204032Y-18319735D01*
X21204033Y-18319739D01*
X21216706Y-18338705D01*
X21259399Y-18402601D01*
X21330338Y-18450000D01*
X21342260Y-18457966D01*
X21342264Y-18457967D01*
X21415321Y-18472499D01*
X21415324Y-18472500D01*
X24760216Y-18472500D01*
X24827255Y-18492185D01*
X24873010Y-18544989D01*
X24883574Y-18583900D01*
X24885493Y-18602696D01*
X24940641Y-18769119D01*
X24940643Y-18769124D01*
X25032684Y-18918345D01*
X25156654Y-19042315D01*
X25305875Y-19134356D01*
X25305880Y-19134358D01*
X25398140Y-19164930D01*
X25455585Y-19204702D01*
X25482408Y-19269218D01*
X25470093Y-19337994D01*
X25422550Y-19389194D01*
X25402471Y-19398817D01*
X25382674Y-19406201D01*
X25382664Y-19406206D01*
X25267457Y-19492451D01*
X25267452Y-19492456D01*
X25233767Y-19537454D01*
X25177833Y-19579325D01*
X25108141Y-19584309D01*
X25046818Y-19550824D01*
X25013334Y-19489500D01*
X25010500Y-19463143D01*
X25010500Y-19353323D01*
X25010499Y-19353321D01*
X24995967Y-19280264D01*
X24995966Y-19280260D01*
X24987864Y-19268134D01*
X24940601Y-19197399D01*
X24885235Y-19160405D01*
X24857739Y-19142033D01*
X24857735Y-19142032D01*
X24784677Y-19127500D01*
X24784674Y-19127500D01*
X21415326Y-19127500D01*
X21415323Y-19127500D01*
X21342264Y-19142032D01*
X21342260Y-19142033D01*
X21259399Y-19197399D01*
X21204033Y-19280260D01*
X21204032Y-19280264D01*
X21189500Y-19353321D01*
X21189500Y-19783753D01*
X21169815Y-19850792D01*
X21117011Y-19896547D01*
X21047853Y-19906491D01*
X20984297Y-19877466D01*
X20955015Y-19840048D01*
X20940549Y-19811657D01*
X20940545Y-19811652D01*
X20850847Y-19721954D01*
X20850844Y-19721952D01*
X20850842Y-19721950D01*
X20757717Y-19674500D01*
X20737801Y-19664352D01*
X20644024Y-19649500D01*
X19555982Y-19649500D01*
X19475019Y-19662323D01*
X19462196Y-19664354D01*
X19349158Y-19721950D01*
X19349157Y-19721951D01*
X19349152Y-19721954D01*
X19259454Y-19811652D01*
X19259451Y-19811657D01*
X19201852Y-19924698D01*
X19187000Y-20018475D01*
X19187000Y-20381517D01*
X19190755Y-20405224D01*
X19201854Y-20475304D01*
X19259450Y-20588342D01*
X19259453Y-20588345D01*
X19265189Y-20596241D01*
X19263834Y-20597224D01*
X19291911Y-20648642D01*
X19286927Y-20718334D01*
X19264487Y-20753249D01*
X19265189Y-20753759D01*
X19259449Y-20761659D01*
X19201455Y-20875478D01*
X19153481Y-20926273D01*
X19085660Y-20943068D01*
X19019525Y-20920530D01*
X18976074Y-20865815D01*
X18971894Y-20853777D01*
X18938781Y-20739801D01*
X18855185Y-20598447D01*
X18855178Y-20598438D01*
X18769038Y-20512298D01*
X18735553Y-20450975D01*
X18734246Y-20405219D01*
X18738000Y-20381519D01*
X18737999Y-20018482D01*
X18723146Y-19924696D01*
X18665550Y-19811658D01*
X18665546Y-19811654D01*
X18665545Y-19811652D01*
X18575847Y-19721954D01*
X18575844Y-19721952D01*
X18575842Y-19721950D01*
X18462804Y-19664354D01*
X18462802Y-19664353D01*
X18462801Y-19664353D01*
X18430100Y-19659173D01*
X18366966Y-19629242D01*
X18330036Y-19569930D01*
X18325500Y-19536700D01*
X18325500Y-18733675D01*
X18345185Y-18666636D01*
X18361814Y-18645998D01*
X19304336Y-17703476D01*
X19365659Y-17669992D01*
X19435351Y-17674976D01*
X19491283Y-17716846D01*
X19544613Y-17788087D01*
X19654074Y-17870028D01*
X19782186Y-17917812D01*
X19838815Y-17923900D01*
X20379784Y-17923899D01*
X20436414Y-17917812D01*
X20564526Y-17870028D01*
X20673987Y-17788087D01*
X20755928Y-17678626D01*
X20755929Y-17678622D01*
X20760176Y-17670846D01*
X20761971Y-17671826D01*
X20796856Y-17625230D01*
X20862321Y-17600816D01*
X20871162Y-17600500D01*
X21065500Y-17600500D01*
X21132539Y-17620185D01*
G37*
G04 #@! TD.AperFunction*
G04 #@! TA.AperFunction,Conductor*
G36*
X39943039Y-19685D02*
G01*
X39988794Y-72489D01*
X40000000Y-124000D01*
X40000000Y-39876000D01*
X39980315Y-39943039D01*
X39927511Y-39988794D01*
X39876000Y-40000000D01*
X24700792Y-40000000D01*
X24633753Y-39980315D01*
X24587998Y-39927511D01*
X24578054Y-39858353D01*
X24607079Y-39794797D01*
X24653339Y-39761439D01*
X24817358Y-39693499D01*
X24817368Y-39693494D01*
X24989335Y-39578589D01*
X24989339Y-39578586D01*
X25135586Y-39432339D01*
X25135589Y-39432335D01*
X25250494Y-39260368D01*
X25250499Y-39260358D01*
X25329649Y-39069274D01*
X25329651Y-39069266D01*
X25369999Y-38866420D01*
X25370000Y-38866417D01*
X25370000Y-38613000D01*
X24670000Y-38613000D01*
X24670000Y-38113000D01*
X25370000Y-38113000D01*
X25370000Y-38070481D01*
X25799500Y-38070481D01*
X25799501Y-38070490D01*
X25805587Y-38127114D01*
X25840580Y-38220930D01*
X25853372Y-38255226D01*
X25935313Y-38364687D01*
X26044774Y-38446628D01*
X26172886Y-38494412D01*
X26229515Y-38500500D01*
X27070484Y-38500499D01*
X27127114Y-38494412D01*
X27255226Y-38446628D01*
X27255229Y-38446626D01*
X27364681Y-38364692D01*
X27364683Y-38364689D01*
X27364687Y-38364687D01*
X27375541Y-38350188D01*
X27431476Y-38308317D01*
X27474807Y-38300500D01*
X28337764Y-38300500D01*
X28404803Y-38320185D01*
X28437029Y-38350188D01*
X28485313Y-38414687D01*
X28573177Y-38480461D01*
X28591813Y-38494412D01*
X28594774Y-38496628D01*
X28722886Y-38544412D01*
X28779515Y-38550500D01*
X29620484Y-38550499D01*
X29677114Y-38544412D01*
X29805226Y-38496628D01*
X29805229Y-38496626D01*
X29914681Y-38414692D01*
X29914683Y-38414689D01*
X29914687Y-38414687D01*
X29925541Y-38400188D01*
X29981476Y-38358317D01*
X30024807Y-38350500D01*
X31685890Y-38350500D01*
X31685892Y-38350500D01*
X31813186Y-38316392D01*
X31927314Y-38250500D01*
X31927317Y-38250497D01*
X31933017Y-38246124D01*
X31998186Y-38220930D01*
X32008503Y-38220500D01*
X32524676Y-38220500D01*
X32524677Y-38220499D01*
X32597740Y-38205966D01*
X32680601Y-38150601D01*
X32735966Y-38067740D01*
X32750500Y-37994674D01*
X32750500Y-36945326D01*
X32750500Y-36945323D01*
X32750499Y-36945321D01*
X32735967Y-36872264D01*
X32735966Y-36872260D01*
X32680600Y-36789398D01*
X32664931Y-36778929D01*
X32620126Y-36725317D01*
X32611419Y-36655992D01*
X32625719Y-36618097D01*
X34999500Y-36618097D01*
X35036446Y-36851368D01*
X35109433Y-37075996D01*
X35210713Y-37274767D01*
X35216657Y-37286433D01*
X35355483Y-37477510D01*
X35522490Y-37644517D01*
X35713567Y-37783343D01*
X35801025Y-37827905D01*
X35924003Y-37890566D01*
X35924005Y-37890566D01*
X35924008Y-37890568D01*
X36005117Y-37916922D01*
X36148631Y-37963553D01*
X36381903Y-38000500D01*
X36381908Y-38000500D01*
X36618097Y-38000500D01*
X36851368Y-37963553D01*
X37075992Y-37890568D01*
X37286433Y-37783343D01*
X37477510Y-37644517D01*
X37644517Y-37477510D01*
X37783343Y-37286433D01*
X37890568Y-37075992D01*
X37963553Y-36851368D01*
X37982137Y-36734034D01*
X38000500Y-36618097D01*
X38000500Y-36381902D01*
X37963553Y-36148631D01*
X37890566Y-35924003D01*
X37799009Y-35744313D01*
X37783343Y-35713567D01*
X37644517Y-35522490D01*
X37477510Y-35355483D01*
X37286433Y-35216657D01*
X37242775Y-35194412D01*
X37075996Y-35109433D01*
X36851368Y-35036446D01*
X36618097Y-34999500D01*
X36618092Y-34999500D01*
X36381908Y-34999500D01*
X36381903Y-34999500D01*
X36148631Y-35036446D01*
X35924003Y-35109433D01*
X35713566Y-35216657D01*
X35652091Y-35261322D01*
X35522490Y-35355483D01*
X35522488Y-35355485D01*
X35522487Y-35355485D01*
X35355485Y-35522487D01*
X35355485Y-35522488D01*
X35355483Y-35522490D01*
X35315871Y-35577011D01*
X35216657Y-35713566D01*
X35109433Y-35924003D01*
X35036446Y-36148631D01*
X34999500Y-36381902D01*
X34999500Y-36618097D01*
X32625719Y-36618097D01*
X32628829Y-36609855D01*
X32680452Y-36527697D01*
X32680454Y-36527694D01*
X32680454Y-36527692D01*
X32680456Y-36527690D01*
X32736313Y-36368059D01*
X32736313Y-36368058D01*
X32736314Y-36368056D01*
X32755249Y-36200002D01*
X32755249Y-36199997D01*
X32736314Y-36031943D01*
X32680454Y-35872305D01*
X32680452Y-35872302D01*
X32590481Y-35729115D01*
X32590476Y-35729109D01*
X32470890Y-35609523D01*
X32470884Y-35609518D01*
X32327697Y-35519547D01*
X32327694Y-35519545D01*
X32168056Y-35463685D01*
X32000003Y-35444751D01*
X31999997Y-35444751D01*
X31831943Y-35463685D01*
X31672305Y-35519545D01*
X31672302Y-35519547D01*
X31529115Y-35609518D01*
X31529109Y-35609523D01*
X31409523Y-35729109D01*
X31409518Y-35729115D01*
X31319547Y-35872302D01*
X31319545Y-35872305D01*
X31263685Y-36031943D01*
X31244751Y-36199997D01*
X31244751Y-36200002D01*
X31263685Y-36368056D01*
X31319545Y-36527694D01*
X31319547Y-36527697D01*
X31371171Y-36609855D01*
X31390172Y-36677091D01*
X31369805Y-36743926D01*
X31335069Y-36778929D01*
X31319399Y-36789398D01*
X31264033Y-36872260D01*
X31264032Y-36872264D01*
X31249500Y-36945321D01*
X31249500Y-37225500D01*
X31229815Y-37292539D01*
X31177011Y-37338294D01*
X31125500Y-37349500D01*
X30024807Y-37349500D01*
X29957768Y-37329815D01*
X29925541Y-37299812D01*
X29914687Y-37285313D01*
X29914681Y-37285307D01*
X29805230Y-37203374D01*
X29805227Y-37203373D01*
X29805226Y-37203372D01*
X29677114Y-37155588D01*
X29677112Y-37155587D01*
X29677110Y-37155587D01*
X29620493Y-37149500D01*
X28779518Y-37149500D01*
X28779509Y-37149501D01*
X28722885Y-37155587D01*
X28594773Y-37203372D01*
X28565214Y-37225500D01*
X28499399Y-37274767D01*
X28433937Y-37299184D01*
X28425091Y-37299500D01*
X27474807Y-37299500D01*
X27407768Y-37279815D01*
X27375541Y-37249812D01*
X27364687Y-37235313D01*
X27364681Y-37235307D01*
X27255230Y-37153374D01*
X27255227Y-37153373D01*
X27255226Y-37153372D01*
X27127114Y-37105588D01*
X27127112Y-37105587D01*
X27127110Y-37105587D01*
X27070493Y-37099500D01*
X26229518Y-37099500D01*
X26229509Y-37099501D01*
X26172885Y-37105587D01*
X26044773Y-37153372D01*
X25935313Y-37235313D01*
X25853373Y-37344771D01*
X25805587Y-37472889D01*
X25799500Y-37529498D01*
X25799500Y-38070481D01*
X25370000Y-38070481D01*
X25370000Y-37859583D01*
X25369999Y-37859579D01*
X25329651Y-37656733D01*
X25329649Y-37656725D01*
X25250499Y-37465641D01*
X25250494Y-37465631D01*
X25135589Y-37293664D01*
X25135586Y-37293660D01*
X24989339Y-37147413D01*
X24989335Y-37147410D01*
X24817368Y-37032505D01*
X24817358Y-37032500D01*
X24626272Y-36953349D01*
X24626267Y-36953347D01*
X24570000Y-36942155D01*
X24570000Y-37718025D01*
X24534905Y-37682930D01*
X24455095Y-37636852D01*
X24366078Y-37613000D01*
X24273922Y-37613000D01*
X24184905Y-37636852D01*
X24105095Y-37682930D01*
X24070000Y-37718025D01*
X24070000Y-36942156D01*
X24069999Y-36942155D01*
X24013732Y-36953347D01*
X24013727Y-36953349D01*
X23822641Y-37032500D01*
X23822631Y-37032505D01*
X23650664Y-37147410D01*
X23650660Y-37147413D01*
X23504413Y-37293660D01*
X23504410Y-37293664D01*
X23389505Y-37465631D01*
X23389500Y-37465641D01*
X23310350Y-37656725D01*
X23310348Y-37656733D01*
X23270000Y-37859579D01*
X23270000Y-38113000D01*
X23970000Y-38113000D01*
X23970000Y-38613000D01*
X23270000Y-38613000D01*
X23270000Y-38866420D01*
X23310348Y-39069266D01*
X23310350Y-39069274D01*
X23389500Y-39260358D01*
X23389505Y-39260368D01*
X23504410Y-39432335D01*
X23504413Y-39432339D01*
X23650660Y-39578586D01*
X23650664Y-39578589D01*
X23822631Y-39693494D01*
X23822641Y-39693499D01*
X23986661Y-39761439D01*
X24041064Y-39805280D01*
X24063129Y-39871574D01*
X24045850Y-39939274D01*
X23994712Y-39986884D01*
X23939208Y-40000000D01*
X16060792Y-40000000D01*
X15993753Y-39980315D01*
X15947998Y-39927511D01*
X15938054Y-39858353D01*
X15967079Y-39794797D01*
X16013339Y-39761439D01*
X16177358Y-39693499D01*
X16177368Y-39693494D01*
X16349335Y-39578589D01*
X16349339Y-39578586D01*
X16495586Y-39432339D01*
X16495589Y-39432335D01*
X16610494Y-39260368D01*
X16610499Y-39260358D01*
X16689649Y-39069274D01*
X16689651Y-39069266D01*
X16729999Y-38866420D01*
X16730000Y-38866417D01*
X16730000Y-38613000D01*
X16030000Y-38613000D01*
X16030000Y-38113000D01*
X16730000Y-38113000D01*
X16730000Y-37859583D01*
X16729999Y-37859579D01*
X16689651Y-37656733D01*
X16689649Y-37656725D01*
X16610499Y-37465641D01*
X16610494Y-37465631D01*
X16495589Y-37293664D01*
X16495586Y-37293660D01*
X16349339Y-37147413D01*
X16349335Y-37147410D01*
X16177368Y-37032505D01*
X16177358Y-37032500D01*
X15986272Y-36953349D01*
X15986267Y-36953347D01*
X15930000Y-36942155D01*
X15930000Y-37718025D01*
X15894905Y-37682930D01*
X15815095Y-37636852D01*
X15726078Y-37613000D01*
X15633922Y-37613000D01*
X15544905Y-37636852D01*
X15465095Y-37682930D01*
X15430000Y-37718025D01*
X15430000Y-36942156D01*
X15429999Y-36942155D01*
X15373732Y-36953347D01*
X15373727Y-36953349D01*
X15182641Y-37032500D01*
X15182631Y-37032505D01*
X15010664Y-37147410D01*
X15010660Y-37147413D01*
X14864413Y-37293660D01*
X14864410Y-37293664D01*
X14749505Y-37465631D01*
X14749500Y-37465641D01*
X14670350Y-37656725D01*
X14670348Y-37656733D01*
X14630000Y-37859579D01*
X14630000Y-38113000D01*
X15330000Y-38113000D01*
X15330000Y-38613000D01*
X14630000Y-38613000D01*
X14630000Y-38866420D01*
X14670348Y-39069266D01*
X14670350Y-39069274D01*
X14749500Y-39260358D01*
X14749505Y-39260368D01*
X14864410Y-39432335D01*
X14864413Y-39432339D01*
X15010660Y-39578586D01*
X15010664Y-39578589D01*
X15182631Y-39693494D01*
X15182641Y-39693499D01*
X15346661Y-39761439D01*
X15401064Y-39805280D01*
X15423129Y-39871574D01*
X15405850Y-39939274D01*
X15354712Y-39986884D01*
X15299208Y-40000000D01*
X124000Y-40000000D01*
X56961Y-39980315D01*
X11206Y-39927511D01*
X0Y-39876000D01*
X0Y-36618097D01*
X1999500Y-36618097D01*
X2036446Y-36851368D01*
X2109433Y-37075996D01*
X2210713Y-37274767D01*
X2216657Y-37286433D01*
X2355483Y-37477510D01*
X2522490Y-37644517D01*
X2713567Y-37783343D01*
X2801025Y-37827905D01*
X2924003Y-37890566D01*
X2924005Y-37890566D01*
X2924008Y-37890568D01*
X3005117Y-37916922D01*
X3148631Y-37963553D01*
X3381903Y-38000500D01*
X3381908Y-38000500D01*
X3618097Y-38000500D01*
X3851368Y-37963553D01*
X4075992Y-37890568D01*
X4286433Y-37783343D01*
X4477510Y-37644517D01*
X4644517Y-37477510D01*
X4783343Y-37286433D01*
X4890568Y-37075992D01*
X4963553Y-36851368D01*
X4982137Y-36734034D01*
X5000500Y-36618097D01*
X5000500Y-36381902D01*
X4963553Y-36148631D01*
X4890566Y-35924003D01*
X4799009Y-35744313D01*
X4783343Y-35713567D01*
X4644517Y-35522490D01*
X4477510Y-35355483D01*
X4286433Y-35216657D01*
X4242775Y-35194412D01*
X4075996Y-35109433D01*
X3851368Y-35036446D01*
X3618097Y-34999500D01*
X3618092Y-34999500D01*
X3381908Y-34999500D01*
X3381903Y-34999500D01*
X3148631Y-35036446D01*
X2924003Y-35109433D01*
X2713566Y-35216657D01*
X2652091Y-35261322D01*
X2522490Y-35355483D01*
X2522488Y-35355485D01*
X2522487Y-35355485D01*
X2355485Y-35522487D01*
X2355485Y-35522488D01*
X2355483Y-35522490D01*
X2315871Y-35577011D01*
X2216657Y-35713566D01*
X2109433Y-35924003D01*
X2036446Y-36148631D01*
X1999500Y-36381902D01*
X1999500Y-36618097D01*
X0Y-36618097D01*
X0Y-34475000D01*
X10725001Y-34475000D01*
X10725001Y-34481582D01*
X10731408Y-34552102D01*
X10731409Y-34552107D01*
X10781981Y-34714396D01*
X10869927Y-34859877D01*
X10990122Y-34980072D01*
X11135604Y-35068019D01*
X11135603Y-35068019D01*
X11297894Y-35118590D01*
X11297892Y-35118590D01*
X11368418Y-35124999D01*
X11449999Y-35124998D01*
X11450000Y-35124998D01*
X11450000Y-34475000D01*
X11950000Y-34475000D01*
X11950000Y-35124999D01*
X12031581Y-35124999D01*
X12102102Y-35118591D01*
X12102107Y-35118590D01*
X12264396Y-35068018D01*
X12409877Y-34980072D01*
X12530072Y-34859877D01*
X12618019Y-34714395D01*
X12668590Y-34552106D01*
X12675000Y-34481572D01*
X12675000Y-34475000D01*
X11950000Y-34475000D01*
X11450000Y-34475000D01*
X10725001Y-34475000D01*
X0Y-34475000D01*
X0Y-34125000D01*
X12925000Y-34125000D01*
X13650000Y-34125000D01*
X13650000Y-33475000D01*
X13649999Y-33474999D01*
X13568417Y-33475000D01*
X13497897Y-33481408D01*
X13497892Y-33481409D01*
X13335603Y-33531981D01*
X13190122Y-33619927D01*
X13069927Y-33740122D01*
X12981980Y-33885604D01*
X12931409Y-34047893D01*
X12925000Y-34118427D01*
X12925000Y-34125000D01*
X0Y-34125000D01*
X0Y-20924435D01*
X799500Y-20924435D01*
X825090Y-21019938D01*
X847806Y-21059284D01*
X874526Y-21105563D01*
X1900289Y-22131326D01*
X1933774Y-22192649D01*
X1929331Y-22254765D01*
X1930986Y-22255236D01*
X1873603Y-22456915D01*
X1873602Y-22456917D01*
X1854785Y-22659999D01*
X1854785Y-22660000D01*
X1873602Y-22863082D01*
X1929417Y-23059247D01*
X1929422Y-23059260D01*
X2020327Y-23241821D01*
X2143237Y-23404581D01*
X2188661Y-23445990D01*
X2224943Y-23505701D01*
X2223182Y-23575549D01*
X2192804Y-23625308D01*
X1369438Y-24448675D01*
X1299526Y-24518586D01*
X1250090Y-24604211D01*
X1246348Y-24618178D01*
X1246348Y-24618179D01*
X1224663Y-24699108D01*
X1224648Y-24699162D01*
X1224500Y-24699712D01*
X1224500Y-28174438D01*
X1231652Y-28201127D01*
X1231652Y-28201129D01*
X1231653Y-28201129D01*
X1231653Y-28201130D01*
X1250090Y-28269938D01*
X1250091Y-28269941D01*
X1296024Y-28349498D01*
X1299527Y-28355565D01*
X2788181Y-29844218D01*
X2821666Y-29905541D01*
X2824500Y-29931899D01*
X2824500Y-30329269D01*
X2827353Y-30359699D01*
X2827353Y-30359701D01*
X2867699Y-30475000D01*
X2872207Y-30487882D01*
X2952849Y-30597149D01*
X2952851Y-30597151D01*
X3049133Y-30668210D01*
X3091384Y-30723857D01*
X3099500Y-30767980D01*
X3099500Y-30932019D01*
X3079815Y-30999058D01*
X3049134Y-31031789D01*
X2952850Y-31102850D01*
X2872207Y-31212117D01*
X2872206Y-31212119D01*
X2827353Y-31340298D01*
X2827353Y-31340300D01*
X2824500Y-31370730D01*
X2824500Y-32029269D01*
X2827353Y-32059699D01*
X2827353Y-32059701D01*
X2866974Y-32172928D01*
X2872207Y-32187882D01*
X2952850Y-32297150D01*
X3062118Y-32377793D01*
X3103897Y-32392412D01*
X3190299Y-32422646D01*
X3220730Y-32425500D01*
X3220734Y-32425500D01*
X3729270Y-32425500D01*
X3759699Y-32422646D01*
X3759701Y-32422646D01*
X3832137Y-32397299D01*
X3887882Y-32377793D01*
X3997150Y-32297150D01*
X4059259Y-32212994D01*
X4114905Y-32170745D01*
X4184561Y-32165286D01*
X4246111Y-32198353D01*
X4277413Y-32249737D01*
X4281981Y-32264397D01*
X4369927Y-32409877D01*
X4490122Y-32530072D01*
X4635604Y-32618019D01*
X4635603Y-32618019D01*
X4797894Y-32668590D01*
X4797893Y-32668590D01*
X4868408Y-32674998D01*
X4868426Y-32674999D01*
X4874999Y-32674998D01*
X4875000Y-32674998D01*
X4875000Y-31950000D01*
X5375000Y-31950000D01*
X5375000Y-32674999D01*
X5381581Y-32674999D01*
X5452102Y-32668591D01*
X5452107Y-32668590D01*
X5614396Y-32618018D01*
X5759877Y-32530072D01*
X5880072Y-32409877D01*
X5968019Y-32264395D01*
X6018590Y-32102106D01*
X6025000Y-32031572D01*
X6025000Y-31950000D01*
X5375000Y-31950000D01*
X4875000Y-31950000D01*
X4875000Y-31574000D01*
X4894685Y-31506961D01*
X4902718Y-31500000D01*
X9144722Y-31500000D01*
X9163762Y-31656818D01*
X9216352Y-31795485D01*
X9219780Y-31804523D01*
X9309517Y-31934530D01*
X9427760Y-32039283D01*
X9427762Y-32039284D01*
X9567634Y-32112696D01*
X9721014Y-32150500D01*
X9868101Y-32150500D01*
X9935140Y-32170185D01*
X9955782Y-32186819D01*
X10644438Y-32875475D01*
X10730063Y-32924911D01*
X10825564Y-32950500D01*
X10825565Y-32950500D01*
X10932020Y-32950500D01*
X10999059Y-32970185D01*
X11031790Y-33000867D01*
X11102848Y-33097148D01*
X11102849Y-33097148D01*
X11102850Y-33097150D01*
X11187004Y-33159258D01*
X11229254Y-33214905D01*
X11234713Y-33284562D01*
X11201645Y-33346111D01*
X11150263Y-33377412D01*
X11135605Y-33381979D01*
X11135604Y-33381980D01*
X10990122Y-33469927D01*
X10869927Y-33590122D01*
X10781980Y-33735604D01*
X10731409Y-33897893D01*
X10725000Y-33968427D01*
X10725000Y-33975000D01*
X12674999Y-33975000D01*
X12674999Y-33968417D01*
X12668591Y-33897897D01*
X12668590Y-33897892D01*
X12618018Y-33735603D01*
X12530072Y-33590122D01*
X12409877Y-33469927D01*
X12264397Y-33381981D01*
X12249737Y-33377413D01*
X12191590Y-33338674D01*
X12163617Y-33274649D01*
X12174699Y-33205664D01*
X12212993Y-33159259D01*
X12297150Y-33097150D01*
X12377793Y-32987882D01*
X12401756Y-32919399D01*
X12422646Y-32859701D01*
X12422646Y-32859699D01*
X12425500Y-32829269D01*
X12425500Y-32774500D01*
X12445185Y-32707461D01*
X12497989Y-32661706D01*
X12549500Y-32650500D01*
X13587541Y-32650500D01*
X13654580Y-32670185D01*
X13700335Y-32722989D01*
X13703209Y-32729928D01*
X13703372Y-32730226D01*
X13785313Y-32839687D01*
X13894774Y-32921628D01*
X14022886Y-32969412D01*
X14079515Y-32975500D01*
X14670484Y-32975499D01*
X14727114Y-32969412D01*
X14855226Y-32921628D01*
X14964687Y-32839687D01*
X15046628Y-32730226D01*
X15094412Y-32602114D01*
X15096687Y-32580944D01*
X15100499Y-32545501D01*
X15100500Y-32545484D01*
X15100500Y-32424500D01*
X15120185Y-32357461D01*
X15172989Y-32311706D01*
X15224500Y-32300500D01*
X16107980Y-32300500D01*
X16175019Y-32320185D01*
X16195661Y-32336819D01*
X16209134Y-32350292D01*
X16309172Y-32394463D01*
X16333625Y-32397300D01*
X17111623Y-32397299D01*
X17178662Y-32416983D01*
X17199304Y-32433618D01*
X17963181Y-33197495D01*
X17996666Y-33258818D01*
X17999500Y-33285176D01*
X17999500Y-33336466D01*
X17979815Y-33403505D01*
X17927011Y-33449260D01*
X17857853Y-33459204D01*
X17832168Y-33452648D01*
X17807382Y-33443403D01*
X17807372Y-33443401D01*
X17747844Y-33437000D01*
X17550000Y-33437000D01*
X17550000Y-34563000D01*
X17530315Y-34630039D01*
X17477511Y-34675794D01*
X17426000Y-34687000D01*
X16773000Y-34687000D01*
X16773000Y-34688000D01*
X16753315Y-34755039D01*
X16700511Y-34800794D01*
X16649000Y-34812000D01*
X16030000Y-34812000D01*
X16030000Y-34312000D01*
X16357000Y-34312000D01*
X16357000Y-34311000D01*
X16376685Y-34243961D01*
X16429489Y-34198206D01*
X16481000Y-34187000D01*
X17050000Y-34187000D01*
X17050000Y-33437000D01*
X16852155Y-33437000D01*
X16792627Y-33443401D01*
X16792620Y-33443403D01*
X16657913Y-33493645D01*
X16657911Y-33493646D01*
X16651658Y-33498328D01*
X16586193Y-33522744D01*
X16517920Y-33507892D01*
X16489667Y-33486741D01*
X16349339Y-33346413D01*
X16349335Y-33346410D01*
X16177368Y-33231505D01*
X16177358Y-33231500D01*
X15986272Y-33152349D01*
X15986267Y-33152347D01*
X15930000Y-33141155D01*
X15930000Y-33917025D01*
X15894905Y-33881930D01*
X15815095Y-33835852D01*
X15726078Y-33812000D01*
X15633922Y-33812000D01*
X15544905Y-33835852D01*
X15465095Y-33881930D01*
X15430000Y-33917025D01*
X15430000Y-33141156D01*
X15429999Y-33141155D01*
X15373732Y-33152347D01*
X15373727Y-33152349D01*
X15182641Y-33231500D01*
X15182631Y-33231505D01*
X15010664Y-33346410D01*
X15010660Y-33346413D01*
X14864413Y-33492660D01*
X14864410Y-33492664D01*
X14795427Y-33595904D01*
X14741814Y-33640709D01*
X14672489Y-33649416D01*
X14617075Y-33622903D01*
X14615783Y-33624554D01*
X14609877Y-33619927D01*
X14464395Y-33531980D01*
X14464396Y-33531980D01*
X14302105Y-33481409D01*
X14302106Y-33481409D01*
X14231572Y-33475000D01*
X14150000Y-33475000D01*
X14150000Y-34125000D01*
X14794000Y-34125000D01*
X14861039Y-34144685D01*
X14906794Y-34197489D01*
X14918000Y-34249000D01*
X14918000Y-34312000D01*
X15330000Y-34312000D01*
X15330000Y-34812000D01*
X14711000Y-34812000D01*
X14643961Y-34792315D01*
X14598206Y-34739511D01*
X14587000Y-34688000D01*
X14587000Y-34625000D01*
X12925001Y-34625000D01*
X12925001Y-34631582D01*
X12931408Y-34702102D01*
X12931409Y-34702107D01*
X12981981Y-34864396D01*
X13069927Y-35009877D01*
X13190122Y-35130072D01*
X13335602Y-35218018D01*
X13350258Y-35222585D01*
X13408407Y-35261322D01*
X13436382Y-35325347D01*
X13425301Y-35394332D01*
X13387004Y-35440741D01*
X13302850Y-35502850D01*
X13222207Y-35612117D01*
X13222206Y-35612119D01*
X13177353Y-35740298D01*
X13177353Y-35740300D01*
X13174500Y-35770730D01*
X13174500Y-36279269D01*
X13177353Y-36309699D01*
X13177353Y-36309701D01*
X13211966Y-36408616D01*
X13222207Y-36437882D01*
X13302850Y-36547150D01*
X13412118Y-36627793D01*
X13454845Y-36642744D01*
X13540299Y-36672646D01*
X13570730Y-36675500D01*
X13570734Y-36675500D01*
X14229270Y-36675500D01*
X14259699Y-36672646D01*
X14259701Y-36672646D01*
X14323790Y-36650219D01*
X14387882Y-36627793D01*
X14497150Y-36547150D01*
X14568210Y-36450867D01*
X14623857Y-36408616D01*
X14667980Y-36400500D01*
X18711435Y-36400500D01*
X18711436Y-36400500D01*
X18780821Y-36381908D01*
X18806938Y-36374910D01*
X18892562Y-36325475D01*
X18962475Y-36255562D01*
X19800474Y-35417563D01*
X19823689Y-35377354D01*
X19849910Y-35331938D01*
X19869784Y-35257763D01*
X19906147Y-35198107D01*
X19942103Y-35175300D01*
X19947735Y-35172966D01*
X19947740Y-35172966D01*
X19947744Y-35172963D01*
X19952544Y-35170975D01*
X20022014Y-35163505D01*
X20047457Y-35170976D01*
X20052257Y-35172964D01*
X20052260Y-35172966D01*
X20052263Y-35172966D01*
X20052264Y-35172967D01*
X20125321Y-35187499D01*
X20125324Y-35187500D01*
X20875500Y-35187500D01*
X20942539Y-35207185D01*
X20988294Y-35259989D01*
X20999500Y-35311500D01*
X20999500Y-35371108D01*
X20999500Y-35502892D01*
X21004751Y-35522488D01*
X21033608Y-35630187D01*
X21044759Y-35649500D01*
X21099500Y-35744314D01*
X21717686Y-36362500D01*
X21831814Y-36428392D01*
X21959107Y-36462500D01*
X21959108Y-36462500D01*
X21959109Y-36462500D01*
X25253890Y-36462500D01*
X25253892Y-36462500D01*
X25381186Y-36428392D01*
X25495314Y-36362500D01*
X26620994Y-35236817D01*
X26682317Y-35203333D01*
X26708675Y-35200499D01*
X27070481Y-35200499D01*
X27070484Y-35200499D01*
X27127114Y-35194412D01*
X27255226Y-35146628D01*
X27364687Y-35064687D01*
X27446628Y-34955226D01*
X27494412Y-34827114D01*
X27498153Y-34792315D01*
X27500499Y-34770501D01*
X27500499Y-34770494D01*
X27500500Y-34770485D01*
X27500499Y-34229516D01*
X27494412Y-34172886D01*
X27483893Y-34144685D01*
X27476430Y-34124674D01*
X27446628Y-34044774D01*
X27412219Y-33998809D01*
X27387803Y-33933347D01*
X27402654Y-33865074D01*
X27452059Y-33815668D01*
X27511487Y-33800500D01*
X27691324Y-33800500D01*
X27758363Y-33820185D01*
X27779005Y-33836819D01*
X28313181Y-34370995D01*
X28346666Y-34432318D01*
X28349500Y-34458676D01*
X28349500Y-34820480D01*
X28349501Y-34820490D01*
X28355587Y-34877114D01*
X28393990Y-34980072D01*
X28403372Y-35005226D01*
X28485313Y-35114687D01*
X28566283Y-35175300D01*
X28591813Y-35194412D01*
X28594774Y-35196628D01*
X28722886Y-35244412D01*
X28779515Y-35250500D01*
X29620484Y-35250499D01*
X29677114Y-35244412D01*
X29805226Y-35196628D01*
X29805229Y-35196626D01*
X29914681Y-35114692D01*
X29914683Y-35114689D01*
X29914687Y-35114687D01*
X29925541Y-35100188D01*
X29981476Y-35058317D01*
X30024807Y-35050500D01*
X31215890Y-35050500D01*
X31215892Y-35050500D01*
X31343186Y-35016392D01*
X31457314Y-34950500D01*
X32020995Y-34386819D01*
X32082318Y-34353334D01*
X32108676Y-34350500D01*
X32524676Y-34350500D01*
X32524677Y-34350499D01*
X32597740Y-34335966D01*
X32680601Y-34280601D01*
X32735966Y-34197740D01*
X32750500Y-34124674D01*
X32750500Y-34074500D01*
X32770185Y-34007461D01*
X32822989Y-33961706D01*
X32874500Y-33950500D01*
X34155942Y-33950500D01*
X34196897Y-33957459D01*
X34240298Y-33972645D01*
X34240300Y-33972646D01*
X34270730Y-33975500D01*
X34270734Y-33975500D01*
X34929270Y-33975500D01*
X34959699Y-33972646D01*
X34959701Y-33972646D01*
X35040247Y-33944461D01*
X35087882Y-33927793D01*
X35197150Y-33847150D01*
X35277793Y-33737882D01*
X35303425Y-33664631D01*
X35322646Y-33609701D01*
X35322646Y-33609699D01*
X35325500Y-33579269D01*
X35325500Y-33070730D01*
X35322646Y-33040300D01*
X35322646Y-33040298D01*
X35282269Y-32924910D01*
X35277793Y-32912118D01*
X35197150Y-32802850D01*
X35087882Y-32722207D01*
X35087880Y-32722206D01*
X34959700Y-32677353D01*
X34929270Y-32674500D01*
X34929266Y-32674500D01*
X34270734Y-32674500D01*
X34270730Y-32674500D01*
X34240300Y-32677353D01*
X34240298Y-32677353D01*
X34112119Y-32722206D01*
X34112117Y-32722207D01*
X34002850Y-32802850D01*
X33922207Y-32912117D01*
X33922206Y-32912119D01*
X33877353Y-33040298D01*
X33877353Y-33040300D01*
X33874500Y-33070730D01*
X33874500Y-33125500D01*
X33854815Y-33192539D01*
X33802011Y-33238294D01*
X33750500Y-33249500D01*
X32874500Y-33249500D01*
X32807461Y-33229815D01*
X32761706Y-33177011D01*
X32750500Y-33125500D01*
X32750500Y-33075323D01*
X32750499Y-33075321D01*
X32735967Y-33002264D01*
X32735966Y-33002260D01*
X32718085Y-32975499D01*
X32680601Y-32919399D01*
X32664930Y-32908928D01*
X32620126Y-32855317D01*
X32611419Y-32785992D01*
X32628829Y-32739855D01*
X32680452Y-32657697D01*
X32680454Y-32657694D01*
X32680454Y-32657692D01*
X32680456Y-32657690D01*
X32736313Y-32498059D01*
X32736313Y-32498058D01*
X32736314Y-32498056D01*
X32755249Y-32330002D01*
X32755249Y-32329997D01*
X32736314Y-32161943D01*
X32680454Y-32002305D01*
X32680452Y-32002302D01*
X32590481Y-31859115D01*
X32590476Y-31859109D01*
X32470890Y-31739523D01*
X32470884Y-31739518D01*
X32327697Y-31649547D01*
X32327694Y-31649545D01*
X32168056Y-31593685D01*
X32000003Y-31574751D01*
X31999997Y-31574751D01*
X31831943Y-31593685D01*
X31672305Y-31649545D01*
X31672302Y-31649547D01*
X31529115Y-31739518D01*
X31529109Y-31739523D01*
X31475452Y-31793181D01*
X31414129Y-31826666D01*
X31387771Y-31829500D01*
X30788675Y-31829500D01*
X30721636Y-31809815D01*
X30700994Y-31793181D01*
X30161819Y-31254005D01*
X30128334Y-31192682D01*
X30125500Y-31166324D01*
X30125500Y-30999807D01*
X30145185Y-30932768D01*
X30175190Y-30900539D01*
X30183308Y-30894462D01*
X30189687Y-30889687D01*
X30271628Y-30780226D01*
X30283819Y-30747538D01*
X30325687Y-30691609D01*
X30391150Y-30667191D01*
X30459424Y-30682042D01*
X30508830Y-30731446D01*
X30516180Y-30747539D01*
X30528372Y-30780227D01*
X30547290Y-30805498D01*
X30610313Y-30889687D01*
X30679537Y-30941507D01*
X30705198Y-30960717D01*
X30719774Y-30971628D01*
X30847886Y-31019412D01*
X30904515Y-31025500D01*
X31445484Y-31025499D01*
X31502114Y-31019412D01*
X31630226Y-30971628D01*
X31739687Y-30889687D01*
X31821628Y-30780226D01*
X31867901Y-30656164D01*
X31909772Y-30600232D01*
X31975237Y-30575816D01*
X31984082Y-30575500D01*
X32318101Y-30575500D01*
X32385140Y-30595185D01*
X32405781Y-30611818D01*
X32568462Y-30774500D01*
X32726502Y-30932540D01*
X32726508Y-30932545D01*
X33699525Y-31905562D01*
X33769438Y-31975475D01*
X33855062Y-32024910D01*
X33855064Y-32024911D01*
X33857123Y-32025764D01*
X33858593Y-32026948D01*
X33862101Y-32028974D01*
X33861785Y-32029521D01*
X33911526Y-32069605D01*
X33919297Y-32082378D01*
X33922203Y-32087877D01*
X33925844Y-32092810D01*
X34002850Y-32197150D01*
X34112118Y-32277793D01*
X34154845Y-32292744D01*
X34240299Y-32322646D01*
X34270730Y-32325500D01*
X34270734Y-32325500D01*
X34929270Y-32325500D01*
X34959699Y-32322646D01*
X34959701Y-32322646D01*
X35023790Y-32300219D01*
X35087882Y-32277793D01*
X35197150Y-32197150D01*
X35277793Y-32087882D01*
X35307739Y-32002302D01*
X35322646Y-31959701D01*
X35322646Y-31959699D01*
X35325500Y-31929269D01*
X35325500Y-31420730D01*
X35322646Y-31390300D01*
X35322646Y-31390298D01*
X35277793Y-31262119D01*
X35277792Y-31262117D01*
X35271289Y-31253306D01*
X35197150Y-31152850D01*
X35087882Y-31072207D01*
X35087880Y-31072206D01*
X34959700Y-31027353D01*
X34929270Y-31024500D01*
X34929266Y-31024500D01*
X34700590Y-31024500D01*
X34633551Y-31004815D01*
X34587796Y-30952011D01*
X34577852Y-30882853D01*
X34606877Y-30819297D01*
X34657257Y-30784318D01*
X34767086Y-30743354D01*
X34767093Y-30743350D01*
X34882187Y-30657190D01*
X34882190Y-30657187D01*
X34968350Y-30542093D01*
X34968354Y-30542086D01*
X35018596Y-30407379D01*
X35018598Y-30407372D01*
X35024999Y-30347844D01*
X35025000Y-30347827D01*
X35025000Y-30200000D01*
X34150000Y-30200000D01*
X34150000Y-30800000D01*
X34160228Y-30800000D01*
X34227267Y-30819685D01*
X34273022Y-30872489D01*
X34282966Y-30941647D01*
X34253941Y-31005203D01*
X34201183Y-31041042D01*
X34112116Y-31072207D01*
X34092178Y-31086922D01*
X34026549Y-31110891D01*
X33958379Y-31095573D01*
X33930867Y-31074830D01*
X33686319Y-30830282D01*
X33652834Y-30768959D01*
X33650000Y-30742601D01*
X33650000Y-29100000D01*
X34150000Y-29100000D01*
X34150000Y-29700000D01*
X35025000Y-29700000D01*
X35025000Y-29552172D01*
X35024999Y-29552155D01*
X35018598Y-29492627D01*
X35018596Y-29492620D01*
X34968354Y-29357913D01*
X34968350Y-29357906D01*
X34882190Y-29242812D01*
X34882187Y-29242809D01*
X34767093Y-29156649D01*
X34767086Y-29156645D01*
X34632379Y-29106403D01*
X34632372Y-29106401D01*
X34572844Y-29100000D01*
X34150000Y-29100000D01*
X33650000Y-29100000D01*
X33637363Y-29087363D01*
X33613360Y-29080315D01*
X33567605Y-29027511D01*
X33557661Y-28958353D01*
X33586686Y-28894797D01*
X33592710Y-28888326D01*
X33794219Y-28686819D01*
X33855542Y-28653334D01*
X33881900Y-28650500D01*
X34549676Y-28650500D01*
X34549677Y-28650499D01*
X34622740Y-28635966D01*
X34705601Y-28580601D01*
X34760966Y-28497740D01*
X34775500Y-28424674D01*
X34775500Y-27675326D01*
X34775500Y-27675323D01*
X34775499Y-27675321D01*
X34760967Y-27602264D01*
X34760966Y-27602260D01*
X34739608Y-27570295D01*
X34705601Y-27519399D01*
X34648317Y-27481124D01*
X34622739Y-27464033D01*
X34622735Y-27464032D01*
X34549677Y-27449500D01*
X34549674Y-27449500D01*
X33250326Y-27449500D01*
X33250323Y-27449500D01*
X33177264Y-27464032D01*
X33177260Y-27464033D01*
X33094399Y-27519399D01*
X33039033Y-27602260D01*
X33039032Y-27602264D01*
X33024500Y-27675321D01*
X33024500Y-28343100D01*
X33004815Y-28410139D01*
X32988185Y-28430776D01*
X32948217Y-28470745D01*
X32910157Y-28508805D01*
X32848833Y-28542289D01*
X32779142Y-28537304D01*
X32723208Y-28495433D01*
X32719394Y-28490043D01*
X32705601Y-28469399D01*
X32643714Y-28428048D01*
X32622739Y-28414033D01*
X32622735Y-28414032D01*
X32549677Y-28399500D01*
X32549674Y-28399500D01*
X31250326Y-28399500D01*
X31250323Y-28399500D01*
X31177264Y-28414032D01*
X31177260Y-28414034D01*
X31084244Y-28476184D01*
X31082254Y-28473206D01*
X31039293Y-28496666D01*
X31012935Y-28499500D01*
X30734108Y-28499500D01*
X30606812Y-28533608D01*
X30492686Y-28599500D01*
X30492683Y-28599502D01*
X29554003Y-29538181D01*
X29492680Y-29571666D01*
X29466323Y-29574500D01*
X29354519Y-29574500D01*
X29354509Y-29574501D01*
X29297885Y-29580587D01*
X29169773Y-29628372D01*
X29060313Y-29710313D01*
X28978373Y-29819771D01*
X28930587Y-29947889D01*
X28924500Y-30004498D01*
X28924500Y-30595481D01*
X28924501Y-30595490D01*
X28930587Y-30652114D01*
X28974498Y-30769839D01*
X28978372Y-30780226D01*
X29060313Y-30889687D01*
X29060314Y-30889687D01*
X29060314Y-30889688D01*
X29074810Y-30900539D01*
X29116681Y-30956472D01*
X29124500Y-30999807D01*
X29124500Y-31359108D01*
X29124500Y-31490892D01*
X29132988Y-31522571D01*
X29158608Y-31618187D01*
X29176713Y-31649545D01*
X29224500Y-31732314D01*
X29675825Y-32183639D01*
X30125159Y-32632972D01*
X30125169Y-32632983D01*
X30129499Y-32637313D01*
X30129500Y-32637314D01*
X30222686Y-32730500D01*
X30326635Y-32790515D01*
X30336814Y-32796392D01*
X30464107Y-32830500D01*
X30464108Y-32830500D01*
X31149600Y-32830500D01*
X31216639Y-32850185D01*
X31262394Y-32902989D01*
X31272338Y-32972147D01*
X31264160Y-33001955D01*
X31264032Y-33002262D01*
X31249500Y-33075321D01*
X31249500Y-33691324D01*
X31229815Y-33758363D01*
X31213181Y-33779005D01*
X30979005Y-34013181D01*
X30917682Y-34046666D01*
X30891324Y-34049500D01*
X30024807Y-34049500D01*
X29957768Y-34029815D01*
X29925541Y-33999812D01*
X29914687Y-33985313D01*
X29914681Y-33985307D01*
X29805230Y-33903374D01*
X29805227Y-33903373D01*
X29805226Y-33903372D01*
X29677114Y-33855588D01*
X29677112Y-33855587D01*
X29677110Y-33855587D01*
X29620501Y-33849500D01*
X29620485Y-33849500D01*
X29258676Y-33849500D01*
X29191637Y-33829815D01*
X29170995Y-33813181D01*
X28257316Y-32899502D01*
X28257314Y-32899500D01*
X28180787Y-32855317D01*
X28143187Y-32833608D01*
X28028394Y-32802850D01*
X28015892Y-32799500D01*
X28015891Y-32799500D01*
X26258676Y-32799500D01*
X26191637Y-32779815D01*
X26170995Y-32763181D01*
X26091588Y-32683774D01*
X26058103Y-32622451D01*
X26063087Y-32552759D01*
X26091587Y-32508413D01*
X26125000Y-32474999D01*
X26125000Y-31750000D01*
X26625000Y-31750000D01*
X26625000Y-32474999D01*
X26648308Y-32474999D01*
X26648322Y-32474998D01*
X26747607Y-32464855D01*
X26908481Y-32411547D01*
X26908492Y-32411542D01*
X27052728Y-32322575D01*
X27052732Y-32322572D01*
X27172572Y-32202732D01*
X27172575Y-32202728D01*
X27261542Y-32058492D01*
X27261547Y-32058481D01*
X27314855Y-31897606D01*
X27324999Y-31798322D01*
X27325000Y-31798309D01*
X27325000Y-31750000D01*
X26625000Y-31750000D01*
X26125000Y-31750000D01*
X26125000Y-31374000D01*
X26144685Y-31306961D01*
X26197489Y-31261206D01*
X26249000Y-31250000D01*
X27324999Y-31250000D01*
X27324999Y-31201692D01*
X27324998Y-31201677D01*
X27314855Y-31102392D01*
X27261547Y-30941518D01*
X27261542Y-30941507D01*
X27172575Y-30797271D01*
X27172572Y-30797267D01*
X27052732Y-30677427D01*
X27052728Y-30677424D01*
X26908492Y-30588457D01*
X26908481Y-30588452D01*
X26748956Y-30535591D01*
X26691511Y-30495818D01*
X26664688Y-30431303D01*
X26677003Y-30362527D01*
X26724546Y-30311327D01*
X26746998Y-30300846D01*
X26812882Y-30277793D01*
X26922150Y-30197150D01*
X27002793Y-30087882D01*
X27031970Y-30004498D01*
X27047646Y-29959701D01*
X27047646Y-29959699D01*
X27050500Y-29929269D01*
X27050500Y-29270730D01*
X27047646Y-29240300D01*
X27047646Y-29240298D01*
X27002793Y-29112119D01*
X27002792Y-29112117D01*
X26998575Y-29106403D01*
X26922150Y-29002850D01*
X26853265Y-28952011D01*
X26825866Y-28931789D01*
X26783615Y-28876141D01*
X26775500Y-28832019D01*
X26775500Y-28708018D01*
X26795185Y-28640979D01*
X26847989Y-28595224D01*
X26856168Y-28591836D01*
X26908445Y-28572338D01*
X26908445Y-28572337D01*
X26908450Y-28572336D01*
X27016472Y-28491472D01*
X27097336Y-28383450D01*
X27144491Y-28257022D01*
X27150053Y-28205287D01*
X27150499Y-28201144D01*
X27150500Y-28201127D01*
X27150500Y-27598870D01*
X27150499Y-27598855D01*
X27146499Y-27561658D01*
X27144491Y-27542978D01*
X27135697Y-27519399D01*
X27097337Y-27416552D01*
X27097335Y-27416549D01*
X27084573Y-27399501D01*
X27016472Y-27308528D01*
X26908450Y-27227664D01*
X26908447Y-27227662D01*
X26782024Y-27180509D01*
X26726144Y-27174500D01*
X26726130Y-27174500D01*
X26198870Y-27174500D01*
X26198855Y-27174500D01*
X26142975Y-27180509D01*
X26016552Y-27227662D01*
X26016549Y-27227664D01*
X25908528Y-27308528D01*
X25827664Y-27416549D01*
X25827662Y-27416552D01*
X25791182Y-27514361D01*
X25749311Y-27570295D01*
X25683846Y-27594712D01*
X25615573Y-27579860D01*
X25566168Y-27530455D01*
X25558818Y-27514361D01*
X25522337Y-27416552D01*
X25522335Y-27416549D01*
X25509573Y-27399501D01*
X25441472Y-27308528D01*
X25333450Y-27227664D01*
X25333447Y-27227662D01*
X25207024Y-27180509D01*
X25151144Y-27174500D01*
X25151130Y-27174500D01*
X24623870Y-27174500D01*
X24623855Y-27174500D01*
X24567975Y-27180509D01*
X24441552Y-27227662D01*
X24441549Y-27227664D01*
X24333528Y-27308528D01*
X24252664Y-27416549D01*
X24252662Y-27416552D01*
X24205509Y-27542975D01*
X24205509Y-27542976D01*
X24204694Y-27550557D01*
X24177955Y-27615108D01*
X24120562Y-27654955D01*
X24081405Y-27661300D01*
X23558860Y-27661300D01*
X23491821Y-27641615D01*
X23467589Y-27618086D01*
X23466917Y-27618759D01*
X23381466Y-27533308D01*
X23281429Y-27489137D01*
X23256977Y-27486300D01*
X23256975Y-27486300D01*
X22568700Y-27486300D01*
X22501661Y-27466615D01*
X22481019Y-27449981D01*
X21884517Y-26853480D01*
X21851032Y-26792157D01*
X21849102Y-26750857D01*
X21855278Y-26700000D01*
X21836237Y-26543182D01*
X21780220Y-26395477D01*
X21690483Y-26265470D01*
X21572240Y-26160717D01*
X21572238Y-26160716D01*
X21572237Y-26160715D01*
X21432365Y-26087303D01*
X21278986Y-26049500D01*
X21278985Y-26049500D01*
X21121015Y-26049500D01*
X21121014Y-26049500D01*
X20967634Y-26087303D01*
X20827762Y-26160715D01*
X20709516Y-26265471D01*
X20619781Y-26395475D01*
X20619780Y-26395476D01*
X20563762Y-26543181D01*
X20544722Y-26699999D01*
X20544722Y-26700000D01*
X20563762Y-26856818D01*
X20612605Y-26985604D01*
X20619780Y-27004523D01*
X20709517Y-27134530D01*
X20827760Y-27239283D01*
X20827762Y-27239284D01*
X20967634Y-27312696D01*
X21004513Y-27321785D01*
X21084787Y-27341570D01*
X21145167Y-27376725D01*
X21176956Y-27438944D01*
X21170061Y-27508473D01*
X21142794Y-27549648D01*
X21081807Y-27610635D01*
X21034893Y-27716886D01*
X20989807Y-27770263D01*
X20923021Y-27790790D01*
X20921459Y-27790800D01*
X20045300Y-27790800D01*
X20045300Y-32092800D01*
X20921459Y-32092800D01*
X20988498Y-32112485D01*
X21034253Y-32165289D01*
X21034893Y-32166714D01*
X21081807Y-32272965D01*
X21081808Y-32272966D01*
X21159134Y-32350292D01*
X21259172Y-32394463D01*
X21283625Y-32397300D01*
X23256974Y-32397299D01*
X23281428Y-32394463D01*
X23381466Y-32350292D01*
X23394939Y-32336819D01*
X23456262Y-32303334D01*
X23482620Y-32300500D01*
X24313625Y-32300500D01*
X24380664Y-32320185D01*
X24426419Y-32372989D01*
X24433401Y-32392412D01*
X24433608Y-32393187D01*
X24456951Y-32433618D01*
X24499500Y-32507314D01*
X24499502Y-32507316D01*
X25152227Y-33160041D01*
X25185712Y-33221364D01*
X25180728Y-33291056D01*
X25145019Y-33338755D01*
X25170052Y-33311382D01*
X25237594Y-33293497D01*
X25304083Y-33314968D01*
X25321958Y-33329772D01*
X25692686Y-33700500D01*
X25806814Y-33766392D01*
X25842204Y-33775874D01*
X25901864Y-33812239D01*
X25932393Y-33875086D01*
X25924098Y-33944461D01*
X25909377Y-33969959D01*
X25853374Y-34044769D01*
X25853372Y-34044773D01*
X25853372Y-34044774D01*
X25823570Y-34124676D01*
X25805587Y-34172889D01*
X25799500Y-34229498D01*
X25799500Y-34591323D01*
X25779815Y-34658362D01*
X25763181Y-34679004D01*
X25581681Y-34860504D01*
X25520358Y-34893989D01*
X25450666Y-34889005D01*
X25394733Y-34847133D01*
X25388546Y-34830546D01*
X25370000Y-34812000D01*
X24670000Y-34812000D01*
X24670000Y-34312000D01*
X25370000Y-34312000D01*
X25370000Y-34058583D01*
X25369999Y-34058579D01*
X25329651Y-33855733D01*
X25329649Y-33855725D01*
X25250499Y-33664641D01*
X25250494Y-33664631D01*
X25132205Y-33487599D01*
X25134231Y-33486244D01*
X25111111Y-33431811D01*
X25122901Y-33362943D01*
X25136783Y-33347761D01*
X25073392Y-33371406D01*
X25005119Y-33356554D01*
X24994618Y-33349470D01*
X24994401Y-33349795D01*
X24817368Y-33231505D01*
X24817358Y-33231500D01*
X24626272Y-33152349D01*
X24626267Y-33152347D01*
X24570000Y-33141155D01*
X24570000Y-33917025D01*
X24534905Y-33881930D01*
X24455095Y-33835852D01*
X24366078Y-33812000D01*
X24273922Y-33812000D01*
X24184905Y-33835852D01*
X24105095Y-33881930D01*
X24070000Y-33917025D01*
X24070000Y-33141156D01*
X24069999Y-33141155D01*
X24013732Y-33152347D01*
X24013727Y-33152349D01*
X23822641Y-33231500D01*
X23822631Y-33231505D01*
X23650664Y-33346410D01*
X23510332Y-33486742D01*
X23449009Y-33520226D01*
X23379317Y-33515242D01*
X23348338Y-33498325D01*
X23342091Y-33493648D01*
X23207376Y-33443402D01*
X23207372Y-33443401D01*
X23147844Y-33437000D01*
X22950000Y-33437000D01*
X22950000Y-34187000D01*
X23519000Y-34187000D01*
X23586039Y-34206685D01*
X23631794Y-34259489D01*
X23643000Y-34311000D01*
X23643000Y-34312000D01*
X23970000Y-34312000D01*
X23970000Y-34812000D01*
X23351000Y-34812000D01*
X23283961Y-34792315D01*
X23238206Y-34739511D01*
X23227000Y-34688000D01*
X23227000Y-34687000D01*
X22574000Y-34687000D01*
X22506961Y-34667315D01*
X22461206Y-34614511D01*
X22450000Y-34563000D01*
X22450000Y-33437000D01*
X22252155Y-33437000D01*
X22192627Y-33443401D01*
X22192620Y-33443403D01*
X22057913Y-33493645D01*
X22057908Y-33493648D01*
X22033291Y-33512076D01*
X21967826Y-33536491D01*
X21899554Y-33521638D01*
X21871302Y-33500488D01*
X21457316Y-33086502D01*
X21457314Y-33086500D01*
X21400250Y-33053554D01*
X21343187Y-33020608D01*
X21269511Y-33000867D01*
X21215892Y-32986500D01*
X21215891Y-32986500D01*
X19102586Y-32986500D01*
X19035547Y-32966815D01*
X18989792Y-32914011D01*
X18982812Y-32894598D01*
X18966392Y-32833314D01*
X18900500Y-32719186D01*
X18807314Y-32626000D01*
X18552158Y-32370844D01*
X18518673Y-32309521D01*
X18523657Y-32239829D01*
X18526396Y-32233096D01*
X18552963Y-32172928D01*
X18552963Y-32172925D01*
X18555706Y-32166714D01*
X18600792Y-32113338D01*
X18667578Y-32092810D01*
X18669141Y-32092800D01*
X19545300Y-32092800D01*
X19545300Y-27790800D01*
X18921836Y-27790800D01*
X18854797Y-27771115D01*
X18809042Y-27718311D01*
X18798721Y-27681585D01*
X18794840Y-27649269D01*
X18794840Y-27649268D01*
X18740180Y-27510660D01*
X18650155Y-27391944D01*
X18531439Y-27301919D01*
X18392831Y-27247259D01*
X18305734Y-27236800D01*
X17570300Y-27236800D01*
X17570300Y-28162800D01*
X17550615Y-28229839D01*
X17497811Y-28275594D01*
X17446300Y-28286800D01*
X15835300Y-28286800D01*
X15835300Y-28337234D01*
X15845759Y-28424330D01*
X15845759Y-28424331D01*
X15900418Y-28562937D01*
X15901426Y-28564729D01*
X15901849Y-28566564D01*
X15903530Y-28570827D01*
X15902890Y-28571079D01*
X15917122Y-28632813D01*
X15893518Y-28698575D01*
X15838108Y-28741136D01*
X15793338Y-28749500D01*
X15142980Y-28749500D01*
X15075941Y-28729815D01*
X15043210Y-28699133D01*
X14972151Y-28602851D01*
X14967613Y-28599502D01*
X14887995Y-28540741D01*
X14845745Y-28485093D01*
X14840286Y-28415437D01*
X14873354Y-28353888D01*
X14924742Y-28322585D01*
X14939396Y-28318018D01*
X15084877Y-28230072D01*
X15205072Y-28109877D01*
X15293019Y-27964395D01*
X15343590Y-27802106D01*
X15344981Y-27786800D01*
X15835300Y-27786800D01*
X17070300Y-27786800D01*
X17070300Y-27236800D01*
X16334866Y-27236800D01*
X16247769Y-27247259D01*
X16247768Y-27247259D01*
X16109160Y-27301919D01*
X15990444Y-27391944D01*
X15900419Y-27510660D01*
X15845759Y-27649268D01*
X15845759Y-27649269D01*
X15835300Y-27736365D01*
X15835300Y-27786800D01*
X15344981Y-27786800D01*
X15350000Y-27731572D01*
X15350000Y-27725000D01*
X13400001Y-27725000D01*
X13400001Y-27731582D01*
X13406408Y-27802102D01*
X13406409Y-27802107D01*
X13456981Y-27964396D01*
X13544927Y-28109877D01*
X13665122Y-28230072D01*
X13810602Y-28318018D01*
X13825258Y-28322585D01*
X13883407Y-28361322D01*
X13911382Y-28425347D01*
X13900301Y-28494332D01*
X13862004Y-28540741D01*
X13777850Y-28602850D01*
X13697207Y-28712117D01*
X13697206Y-28712119D01*
X13652353Y-28840298D01*
X13652353Y-28840300D01*
X13649500Y-28870730D01*
X13649500Y-29379269D01*
X13652353Y-29409699D01*
X13652353Y-29409701D01*
X13694659Y-29530601D01*
X13697207Y-29537882D01*
X13772794Y-29640300D01*
X13777851Y-29647151D01*
X13789001Y-29655380D01*
X13831252Y-29711027D01*
X13836711Y-29780683D01*
X13803644Y-29842233D01*
X13780466Y-29860688D01*
X13672268Y-29927426D01*
X13552427Y-30047267D01*
X13552424Y-30047271D01*
X13463457Y-30191507D01*
X13463452Y-30191518D01*
X13410144Y-30352393D01*
X13400000Y-30451677D01*
X13400000Y-30475000D01*
X15349999Y-30475000D01*
X15349999Y-30451692D01*
X15349998Y-30451677D01*
X15339855Y-30352392D01*
X15286547Y-30191518D01*
X15286542Y-30191507D01*
X15197575Y-30047271D01*
X15197572Y-30047267D01*
X15077731Y-29927426D01*
X14969533Y-29860688D01*
X14922809Y-29808740D01*
X14911588Y-29739777D01*
X14939432Y-29675695D01*
X14960994Y-29655382D01*
X14972150Y-29647150D01*
X15021275Y-29580588D01*
X15043210Y-29550867D01*
X15098857Y-29508616D01*
X15142980Y-29500500D01*
X15961828Y-29500500D01*
X16028867Y-29520185D01*
X16074622Y-29572989D01*
X16085002Y-29610214D01*
X16087636Y-29632925D01*
X16087637Y-29632928D01*
X16122576Y-29712058D01*
X16131648Y-29781336D01*
X16101824Y-29844521D01*
X16084068Y-29860948D01*
X15990443Y-29931946D01*
X15900419Y-30050660D01*
X15845759Y-30189268D01*
X15845759Y-30189269D01*
X15835300Y-30276365D01*
X15835300Y-30326800D01*
X17446300Y-30326800D01*
X17513339Y-30346485D01*
X17559094Y-30399289D01*
X17570300Y-30450800D01*
X17570300Y-30702800D01*
X17550615Y-30769839D01*
X17497811Y-30815594D01*
X17446300Y-30826800D01*
X15835300Y-30826800D01*
X15835300Y-30877234D01*
X15845759Y-30964330D01*
X15845759Y-30964331D01*
X15900419Y-31102939D01*
X15904576Y-31110332D01*
X15902728Y-31111370D01*
X15923449Y-31165879D01*
X15909026Y-31234244D01*
X15859931Y-31283958D01*
X15799823Y-31299500D01*
X15444675Y-31299500D01*
X15377636Y-31279815D01*
X15331881Y-31227011D01*
X15321937Y-31157853D01*
X15326969Y-31136495D01*
X15339856Y-31097605D01*
X15349999Y-30998322D01*
X15350000Y-30998309D01*
X15350000Y-30975000D01*
X13400001Y-30975000D01*
X13400001Y-30998322D01*
X13410144Y-31097607D01*
X13463452Y-31258481D01*
X13463457Y-31258492D01*
X13552424Y-31402728D01*
X13552427Y-31402732D01*
X13672266Y-31522571D01*
X13730268Y-31558347D01*
X13776992Y-31610295D01*
X13788215Y-31679258D01*
X13764439Y-31738195D01*
X13703374Y-31819769D01*
X13699123Y-31827556D01*
X13697753Y-31826808D01*
X13661850Y-31874768D01*
X13596385Y-31899184D01*
X13587541Y-31899500D01*
X12199500Y-31899500D01*
X12132461Y-31879815D01*
X12086706Y-31827011D01*
X12075500Y-31775500D01*
X12075500Y-31300569D01*
X12075500Y-31300565D01*
X12075117Y-31299137D01*
X12057078Y-31231814D01*
X12049910Y-31205062D01*
X12000475Y-31119438D01*
X11930562Y-31049525D01*
X11811818Y-30930781D01*
X11778333Y-30869458D01*
X11775499Y-30843100D01*
X11775499Y-30728049D01*
X11768796Y-30682042D01*
X11765220Y-30657491D01*
X11712012Y-30548653D01*
X11712010Y-30548651D01*
X11712010Y-30548650D01*
X11626348Y-30462988D01*
X11517511Y-30409780D01*
X11499869Y-30407210D01*
X11446949Y-30399500D01*
X11446943Y-30399500D01*
X11153049Y-30399500D01*
X11082493Y-30409779D01*
X10973650Y-30462989D01*
X10887988Y-30548651D01*
X10834780Y-30657488D01*
X10833367Y-30667191D01*
X10824500Y-30728051D01*
X10824500Y-30728055D01*
X10824500Y-30728056D01*
X10824500Y-31171950D01*
X10834779Y-31242506D01*
X10834779Y-31242507D01*
X10834780Y-31242509D01*
X10882587Y-31340300D01*
X10887989Y-31351349D01*
X10973651Y-31437011D01*
X11082488Y-31490219D01*
X11082489Y-31490219D01*
X11082491Y-31490220D01*
X11153051Y-31500500D01*
X11200500Y-31500499D01*
X11267537Y-31520182D01*
X11313293Y-31572985D01*
X11324500Y-31624499D01*
X11324500Y-31844900D01*
X11304815Y-31911939D01*
X11252011Y-31957694D01*
X11241456Y-31961941D01*
X11212118Y-31972207D01*
X11102849Y-32052850D01*
X11095429Y-32062904D01*
X11039778Y-32105151D01*
X10970122Y-32110605D01*
X10908574Y-32077534D01*
X10907982Y-32076945D01*
X10484517Y-31653480D01*
X10451032Y-31592157D01*
X10449102Y-31550857D01*
X10455278Y-31500000D01*
X10436237Y-31343182D01*
X10380220Y-31195477D01*
X10290483Y-31065470D01*
X10172240Y-30960717D01*
X10172238Y-30960716D01*
X10172237Y-30960715D01*
X10032365Y-30887303D01*
X9878986Y-30849500D01*
X9878985Y-30849500D01*
X9721015Y-30849500D01*
X9721014Y-30849500D01*
X9567634Y-30887303D01*
X9427762Y-30960715D01*
X9309516Y-31065471D01*
X9219781Y-31195475D01*
X9219780Y-31195476D01*
X9163762Y-31343181D01*
X9144722Y-31499999D01*
X9144722Y-31500000D01*
X4902718Y-31500000D01*
X4947489Y-31461206D01*
X4999000Y-31450000D01*
X6024999Y-31450000D01*
X6024999Y-31368417D01*
X6018591Y-31297897D01*
X6018590Y-31297892D01*
X5968018Y-31135603D01*
X5880072Y-30990122D01*
X5759877Y-30869927D01*
X5653298Y-30805498D01*
X5606111Y-30753970D01*
X5594272Y-30685111D01*
X5621541Y-30620782D01*
X5643815Y-30599611D01*
X5647150Y-30597150D01*
X5727793Y-30487882D01*
X5738059Y-30458543D01*
X5778779Y-30401770D01*
X5843731Y-30376022D01*
X5855099Y-30375500D01*
X6262513Y-30375500D01*
X6302137Y-30385013D01*
X6302912Y-30382630D01*
X6312194Y-30385645D01*
X6312196Y-30385646D01*
X6405981Y-30400500D01*
X7644018Y-30400499D01*
X7737804Y-30385646D01*
X7850842Y-30328050D01*
X7940550Y-30238342D01*
X7998146Y-30125304D01*
X7998146Y-30125302D01*
X7998147Y-30125301D01*
X8012999Y-30031524D01*
X8013000Y-30031519D01*
X8012999Y-29668482D01*
X7998146Y-29574696D01*
X7998145Y-29574694D01*
X7996619Y-29565057D01*
X7998642Y-29564736D01*
X7997006Y-29507494D01*
X8033084Y-29447660D01*
X8095784Y-29416830D01*
X8165198Y-29424792D01*
X8173208Y-29428519D01*
X8187196Y-29435646D01*
X8187198Y-29435646D01*
X8187200Y-29435647D01*
X8187198Y-29435647D01*
X8280975Y-29450499D01*
X8280981Y-29450500D01*
X9519018Y-29450499D01*
X9612804Y-29435646D01*
X9725842Y-29378050D01*
X9766882Y-29337010D01*
X9815550Y-29288343D01*
X9821286Y-29280448D01*
X9823559Y-29282100D01*
X9861046Y-29242409D01*
X9923557Y-29225500D01*
X10810778Y-29225500D01*
X10877817Y-29245185D01*
X10898459Y-29261819D01*
X10973651Y-29337011D01*
X11082488Y-29390219D01*
X11082489Y-29390219D01*
X11082491Y-29390220D01*
X11153051Y-29400500D01*
X11446948Y-29400499D01*
X11446950Y-29400499D01*
X11475172Y-29396387D01*
X11517509Y-29390220D01*
X11626347Y-29337012D01*
X11712012Y-29251347D01*
X11765220Y-29142509D01*
X11775500Y-29071949D01*
X11775499Y-28628052D01*
X11775127Y-28625500D01*
X11767383Y-28572337D01*
X11765220Y-28557491D01*
X11712012Y-28448653D01*
X11712010Y-28448651D01*
X11712010Y-28448650D01*
X11626348Y-28362988D01*
X11517511Y-28309780D01*
X11499869Y-28307210D01*
X11446949Y-28299500D01*
X11446943Y-28299500D01*
X11153049Y-28299500D01*
X11082493Y-28309779D01*
X10973650Y-28362989D01*
X10898459Y-28438181D01*
X10837136Y-28471666D01*
X10810778Y-28474500D01*
X9829755Y-28474500D01*
X9762716Y-28454815D01*
X9742074Y-28438181D01*
X9725847Y-28421954D01*
X9725844Y-28421952D01*
X9725842Y-28421950D01*
X9626776Y-28371473D01*
X9612801Y-28364352D01*
X9519024Y-28349500D01*
X8280982Y-28349500D01*
X8187196Y-28364354D01*
X8173224Y-28371473D01*
X8104555Y-28384367D01*
X8039815Y-28358088D01*
X7999560Y-28300981D01*
X7996732Y-28234960D01*
X7996620Y-28234943D01*
X7996707Y-28234389D01*
X7996570Y-28231175D01*
X7998019Y-28226105D01*
X8001316Y-28205287D01*
X8013000Y-28131519D01*
X8012999Y-27768482D01*
X7998146Y-27674696D01*
X7982742Y-27644464D01*
X7969846Y-27575795D01*
X7996123Y-27511055D01*
X8005537Y-27500498D01*
X8119935Y-27386100D01*
X8181256Y-27352617D01*
X8213514Y-27351111D01*
X8213514Y-27350500D01*
X8378985Y-27350500D01*
X8532365Y-27312696D01*
X8540306Y-27308528D01*
X8672240Y-27239283D01*
X8688362Y-27225000D01*
X13400000Y-27225000D01*
X14125000Y-27225000D01*
X14125000Y-26575000D01*
X14625000Y-26575000D01*
X14625000Y-27225000D01*
X15349999Y-27225000D01*
X15349999Y-27218417D01*
X15343591Y-27147897D01*
X15343590Y-27147892D01*
X15293018Y-26985603D01*
X15205072Y-26840122D01*
X15084877Y-26719927D01*
X14939395Y-26631980D01*
X14939396Y-26631980D01*
X14777105Y-26581409D01*
X14777106Y-26581409D01*
X14706572Y-26575000D01*
X14625000Y-26575000D01*
X14125000Y-26575000D01*
X14124999Y-26574999D01*
X14043417Y-26575000D01*
X13972897Y-26581408D01*
X13972892Y-26581409D01*
X13810603Y-26631981D01*
X13665122Y-26719927D01*
X13544927Y-26840122D01*
X13456980Y-26985604D01*
X13406409Y-27147893D01*
X13400000Y-27218427D01*
X13400000Y-27225000D01*
X8688362Y-27225000D01*
X8790483Y-27134530D01*
X8880220Y-27004523D01*
X8936237Y-26856818D01*
X8955278Y-26700000D01*
X8940879Y-26581408D01*
X8936237Y-26543181D01*
X8914992Y-26487164D01*
X8880220Y-26395477D01*
X8790483Y-26265470D01*
X8672240Y-26160717D01*
X8672238Y-26160716D01*
X8672237Y-26160715D01*
X8532365Y-26087303D01*
X8378986Y-26049500D01*
X8378985Y-26049500D01*
X8221015Y-26049500D01*
X8221014Y-26049500D01*
X8067634Y-26087303D01*
X7927762Y-26160715D01*
X7809516Y-26265471D01*
X7719781Y-26395475D01*
X7719780Y-26395476D01*
X7663762Y-26543181D01*
X7644722Y-26699999D01*
X7644722Y-26700003D01*
X7648189Y-26728563D01*
X7636727Y-26797486D01*
X7612774Y-26831187D01*
X7080780Y-27363181D01*
X7019457Y-27396666D01*
X6993099Y-27399500D01*
X6405982Y-27399500D01*
X6325019Y-27412323D01*
X6312196Y-27414354D01*
X6199158Y-27471950D01*
X6199157Y-27471951D01*
X6199155Y-27471952D01*
X6176609Y-27494498D01*
X6115285Y-27527982D01*
X6045593Y-27522996D01*
X5989661Y-27481124D01*
X5970544Y-27443707D01*
X5968018Y-27435602D01*
X5880072Y-27290122D01*
X5759877Y-27169927D01*
X5614395Y-27081980D01*
X5614396Y-27081980D01*
X5452105Y-27031409D01*
X5452106Y-27031409D01*
X5381572Y-27025000D01*
X5375000Y-27025000D01*
X5375000Y-28974999D01*
X5381581Y-28974999D01*
X5452102Y-28968591D01*
X5452107Y-28968590D01*
X5614396Y-28918018D01*
X5759877Y-28830072D01*
X5880072Y-28709877D01*
X5968017Y-28564398D01*
X5994300Y-28480052D01*
X6033037Y-28421904D01*
X6097062Y-28393929D01*
X6166047Y-28405010D01*
X6191012Y-28422650D01*
X6191259Y-28422311D01*
X6199153Y-28428045D01*
X6199158Y-28428050D01*
X6311111Y-28485093D01*
X6312198Y-28485647D01*
X6405975Y-28500499D01*
X6405981Y-28500500D01*
X7644018Y-28500499D01*
X7737804Y-28485646D01*
X7751773Y-28478528D01*
X7820438Y-28465632D01*
X7885179Y-28491907D01*
X7925437Y-28549012D01*
X7928268Y-28615039D01*
X7928380Y-28615057D01*
X7928293Y-28615605D01*
X7928431Y-28618818D01*
X7926981Y-28623888D01*
X7912000Y-28718475D01*
X7912000Y-29081517D01*
X7922590Y-29148384D01*
X7923723Y-29155537D01*
X7928381Y-29184943D01*
X7926357Y-29185263D01*
X7927990Y-29242516D01*
X7891907Y-29302347D01*
X7829204Y-29333171D01*
X7759790Y-29325203D01*
X7751780Y-29321475D01*
X7737804Y-29314354D01*
X7737803Y-29314353D01*
X7737800Y-29314352D01*
X7737801Y-29314352D01*
X7644024Y-29299500D01*
X6405982Y-29299500D01*
X6325019Y-29312323D01*
X6312196Y-29314354D01*
X6199158Y-29371950D01*
X6199157Y-29371951D01*
X6199152Y-29371954D01*
X6109454Y-29461652D01*
X6109449Y-29461659D01*
X6060974Y-29556796D01*
X6013000Y-29607591D01*
X5950490Y-29624500D01*
X5855099Y-29624500D01*
X5788060Y-29604815D01*
X5742305Y-29552011D01*
X5738065Y-29541474D01*
X5727793Y-29512118D01*
X5647150Y-29402850D01*
X5537882Y-29322207D01*
X5537880Y-29322206D01*
X5409700Y-29277353D01*
X5379270Y-29274500D01*
X5379266Y-29274500D01*
X4870734Y-29274500D01*
X4870730Y-29274500D01*
X4840300Y-29277353D01*
X4840298Y-29277353D01*
X4712119Y-29322206D01*
X4712117Y-29322207D01*
X4602850Y-29402850D01*
X4522207Y-29512117D01*
X4522206Y-29512119D01*
X4477353Y-29640298D01*
X4477353Y-29640300D01*
X4474500Y-29670730D01*
X4474500Y-30329269D01*
X4477353Y-30359699D01*
X4477353Y-30359701D01*
X4517699Y-30475000D01*
X4522207Y-30487882D01*
X4602850Y-30597150D01*
X4606185Y-30599611D01*
X4608941Y-30603241D01*
X4609421Y-30603721D01*
X4609355Y-30603786D01*
X4648436Y-30655259D01*
X4653893Y-30724915D01*
X4620826Y-30786465D01*
X4596701Y-30805498D01*
X4490122Y-30869927D01*
X4369927Y-30990122D01*
X4281980Y-31135604D01*
X4281979Y-31135605D01*
X4277412Y-31150263D01*
X4238673Y-31208410D01*
X4174647Y-31236382D01*
X4105662Y-31225299D01*
X4059258Y-31187004D01*
X4048146Y-31171948D01*
X3997150Y-31102850D01*
X3913403Y-31041042D01*
X3900866Y-31031789D01*
X3858615Y-30976141D01*
X3850500Y-30932019D01*
X3850500Y-30767980D01*
X3870185Y-30700941D01*
X3900867Y-30668210D01*
X3938998Y-30640067D01*
X3997150Y-30597150D01*
X4077793Y-30487882D01*
X4113567Y-30385646D01*
X4122646Y-30359701D01*
X4122646Y-30359699D01*
X4125500Y-30329269D01*
X4125500Y-29670730D01*
X4122646Y-29640300D01*
X4122646Y-29640298D01*
X4084260Y-29530601D01*
X4077793Y-29512118D01*
X3997150Y-29402850D01*
X3887882Y-29322207D01*
X3887880Y-29322206D01*
X3759700Y-29277353D01*
X3729270Y-29274500D01*
X3729266Y-29274500D01*
X3331899Y-29274500D01*
X3264860Y-29254815D01*
X3244218Y-29238181D01*
X2788109Y-28782072D01*
X2783797Y-28774176D01*
X2780624Y-28772968D01*
X2767927Y-28761890D01*
X2011819Y-28005782D01*
X1978334Y-27944459D01*
X1975500Y-27918101D01*
X1975500Y-26072500D01*
X1995185Y-26005461D01*
X2047989Y-25959706D01*
X2117147Y-25949762D01*
X2180703Y-25978787D01*
X2183025Y-25980852D01*
X2215419Y-26010382D01*
X2293958Y-26081980D01*
X2293960Y-26081982D01*
X2348094Y-26115500D01*
X2467363Y-26189348D01*
X2657544Y-26263024D01*
X2848286Y-26298679D01*
X2910566Y-26330347D01*
X2945839Y-26390660D01*
X2949500Y-26420568D01*
X2949500Y-27366586D01*
X2929815Y-27433625D01*
X2925270Y-27440219D01*
X2872209Y-27512113D01*
X2872206Y-27512119D01*
X2827353Y-27640298D01*
X2827353Y-27640300D01*
X2824500Y-27670730D01*
X2824500Y-28329269D01*
X2827353Y-28359699D01*
X2827353Y-28359701D01*
X2872206Y-28487880D01*
X2872209Y-28487886D01*
X2952848Y-28597148D01*
X2952849Y-28597148D01*
X2952850Y-28597150D01*
X3062118Y-28677793D01*
X3087913Y-28686819D01*
X3190299Y-28722646D01*
X3220730Y-28725500D01*
X3220734Y-28725500D01*
X3729270Y-28725500D01*
X3759699Y-28722646D01*
X3759701Y-28722646D01*
X3823790Y-28700219D01*
X3887882Y-28677793D01*
X3997150Y-28597150D01*
X4059259Y-28512994D01*
X4114905Y-28470745D01*
X4184561Y-28465286D01*
X4246111Y-28498353D01*
X4277413Y-28549737D01*
X4281981Y-28564397D01*
X4369927Y-28709877D01*
X4490122Y-28830072D01*
X4635604Y-28918019D01*
X4635603Y-28918019D01*
X4797894Y-28968590D01*
X4797893Y-28968590D01*
X4868408Y-28974998D01*
X4868426Y-28974999D01*
X4874999Y-28974998D01*
X4875000Y-28974998D01*
X4875000Y-27025000D01*
X4874999Y-27024999D01*
X4868436Y-27025000D01*
X4868417Y-27025001D01*
X4797897Y-27031408D01*
X4797892Y-27031409D01*
X4635603Y-27081981D01*
X4490122Y-27169927D01*
X4369927Y-27290122D01*
X4281980Y-27435604D01*
X4281979Y-27435605D01*
X4277412Y-27450263D01*
X4238673Y-27508410D01*
X4174647Y-27536382D01*
X4105662Y-27525299D01*
X4059258Y-27487004D01*
X4058739Y-27486301D01*
X3997150Y-27402850D01*
X3887882Y-27322207D01*
X3783544Y-27285697D01*
X3726769Y-27244975D01*
X3701022Y-27180022D01*
X3700500Y-27168656D01*
X3700500Y-26068854D01*
X3720185Y-26001815D01*
X3740962Y-25977216D01*
X3776764Y-25944579D01*
X3899673Y-25781821D01*
X3968186Y-25644226D01*
X4015687Y-25592992D01*
X4079185Y-25575500D01*
X4380815Y-25575500D01*
X4447854Y-25595185D01*
X4491813Y-25644225D01*
X4560327Y-25781821D01*
X4560329Y-25781823D01*
X4683237Y-25944581D01*
X4833958Y-26081980D01*
X4833960Y-26081982D01*
X4888094Y-26115500D01*
X5007363Y-26189348D01*
X5197544Y-26263024D01*
X5398024Y-26300500D01*
X5398026Y-26300500D01*
X5601974Y-26300500D01*
X5601976Y-26300500D01*
X5802456Y-26263024D01*
X5992637Y-26189348D01*
X6166041Y-26081981D01*
X6296848Y-25962735D01*
X6316762Y-25944581D01*
X6316764Y-25944579D01*
X6439673Y-25781821D01*
X6530582Y-25599250D01*
X6586397Y-25403083D01*
X6605215Y-25200000D01*
X6596910Y-25110370D01*
X9249500Y-25110370D01*
X9249501Y-25110376D01*
X9255908Y-25169983D01*
X9306202Y-25304828D01*
X9306206Y-25304835D01*
X9392452Y-25420044D01*
X9392455Y-25420047D01*
X9507664Y-25506293D01*
X9507671Y-25506297D01*
X9642517Y-25556591D01*
X9642516Y-25556591D01*
X9649444Y-25557335D01*
X9702127Y-25563000D01*
X10697872Y-25562999D01*
X10757483Y-25556591D01*
X10892331Y-25506296D01*
X11007546Y-25420046D01*
X11059842Y-25350187D01*
X11115774Y-25308318D01*
X11159107Y-25300500D01*
X11769500Y-25300500D01*
X11836539Y-25320185D01*
X11882294Y-25372989D01*
X11893500Y-25424500D01*
X11893500Y-25889678D01*
X11908032Y-25962735D01*
X11908033Y-25962739D01*
X11908034Y-25962740D01*
X11963399Y-26045601D01*
X12017848Y-26081982D01*
X12046260Y-26100966D01*
X12046264Y-26100967D01*
X12119321Y-26115499D01*
X12119324Y-26115500D01*
X12119326Y-26115500D01*
X13718676Y-26115500D01*
X13718677Y-26115499D01*
X13791740Y-26100966D01*
X13874601Y-26045601D01*
X13874603Y-26045597D01*
X13881319Y-26038883D01*
X13942642Y-26005398D01*
X14012334Y-26010382D01*
X14056681Y-26038883D01*
X14063396Y-26045598D01*
X14063397Y-26045599D01*
X14063399Y-26045601D01*
X14117848Y-26081982D01*
X14146260Y-26100966D01*
X14146264Y-26100967D01*
X14219321Y-26115499D01*
X14219324Y-26115500D01*
X14219326Y-26115500D01*
X16768676Y-26115500D01*
X16768677Y-26115499D01*
X16841740Y-26100966D01*
X16924601Y-26045601D01*
X16979966Y-25962740D01*
X16994500Y-25889674D01*
X16994500Y-25389500D01*
X17014185Y-25322461D01*
X17066989Y-25276706D01*
X17118500Y-25265500D01*
X23199500Y-25265500D01*
X23266539Y-25285185D01*
X23312294Y-25337989D01*
X23323500Y-25389500D01*
X23323500Y-25889678D01*
X23338032Y-25962735D01*
X23338033Y-25962739D01*
X23338034Y-25962740D01*
X23393399Y-26045601D01*
X23447848Y-26081982D01*
X23476260Y-26100966D01*
X23476264Y-26100967D01*
X23549321Y-26115499D01*
X23549324Y-26115500D01*
X23549326Y-26115500D01*
X25148676Y-26115500D01*
X25148677Y-26115499D01*
X25221740Y-26100966D01*
X25304601Y-26045601D01*
X25304603Y-26045597D01*
X25311319Y-26038883D01*
X25372642Y-26005398D01*
X25442334Y-26010382D01*
X25486681Y-26038883D01*
X25493396Y-26045598D01*
X25493397Y-26045599D01*
X25493399Y-26045601D01*
X25547848Y-26081982D01*
X25576260Y-26100966D01*
X25576264Y-26100967D01*
X25649321Y-26115499D01*
X25649324Y-26115500D01*
X25649326Y-26115500D01*
X28198676Y-26115500D01*
X28198677Y-26115499D01*
X28271740Y-26100966D01*
X28354601Y-26045601D01*
X28409966Y-25962740D01*
X28424500Y-25889674D01*
X28424500Y-24023676D01*
X28444185Y-23956637D01*
X28460819Y-23935995D01*
X28665223Y-23731591D01*
X28900500Y-23496314D01*
X28966392Y-23382186D01*
X29000500Y-23254892D01*
X29000500Y-23123107D01*
X29000500Y-16102351D01*
X30699500Y-16102351D01*
X30731522Y-16304534D01*
X30794781Y-16499223D01*
X30887715Y-16681613D01*
X31008028Y-16847213D01*
X31152786Y-16991971D01*
X31307749Y-17104556D01*
X31318390Y-17112287D01*
X31434607Y-17171503D01*
X31500776Y-17205218D01*
X31500778Y-17205218D01*
X31500781Y-17205220D01*
X31563683Y-17225658D01*
X31695465Y-17268477D01*
X31796557Y-17284488D01*
X31897648Y-17300500D01*
X31897649Y-17300500D01*
X32102351Y-17300500D01*
X32102352Y-17300500D01*
X32304534Y-17268477D01*
X32499219Y-17205220D01*
X32681610Y-17112287D01*
X32774590Y-17044732D01*
X32847213Y-16991971D01*
X32847215Y-16991968D01*
X32847219Y-16991966D01*
X32991966Y-16847219D01*
X32991968Y-16847215D01*
X32991971Y-16847213D01*
X33055744Y-16759435D01*
X33112287Y-16681610D01*
X33205220Y-16499219D01*
X33268477Y-16304534D01*
X33300500Y-16102352D01*
X33300500Y-15897648D01*
X33287410Y-15815000D01*
X33268477Y-15695465D01*
X33205218Y-15500776D01*
X33143985Y-15380601D01*
X33112287Y-15318390D01*
X33089797Y-15287435D01*
X32991971Y-15152786D01*
X32847213Y-15008028D01*
X32681613Y-14887715D01*
X32681612Y-14887714D01*
X32681610Y-14887713D01*
X32623527Y-14858118D01*
X32499223Y-14794781D01*
X32304534Y-14731522D01*
X32129995Y-14703878D01*
X32102352Y-14699500D01*
X31897648Y-14699500D01*
X31873329Y-14703351D01*
X31695465Y-14731522D01*
X31500776Y-14794781D01*
X31318386Y-14887715D01*
X31152786Y-15008028D01*
X31008028Y-15152786D01*
X30887715Y-15318386D01*
X30794781Y-15500776D01*
X30731522Y-15695465D01*
X30699500Y-15897648D01*
X30699500Y-16102351D01*
X29000500Y-16102351D01*
X29000500Y-15607108D01*
X28994425Y-15584437D01*
X28966392Y-15479814D01*
X28957891Y-15465090D01*
X28900500Y-15365686D01*
X28807314Y-15272500D01*
X28807313Y-15272499D01*
X28802983Y-15268169D01*
X28802972Y-15268159D01*
X28460819Y-14926005D01*
X28427334Y-14864682D01*
X28424500Y-14838324D01*
X28424500Y-14724500D01*
X28444185Y-14657461D01*
X28496989Y-14611706D01*
X28548500Y-14600500D01*
X29265890Y-14600500D01*
X29265892Y-14600500D01*
X29393186Y-14566392D01*
X29507314Y-14500500D01*
X31375500Y-12632314D01*
X31441392Y-12518186D01*
X31475500Y-12390893D01*
X31475500Y-12259108D01*
X31475500Y-9824451D01*
X31495185Y-9757412D01*
X31547989Y-9711657D01*
X31589777Y-9700833D01*
X31594011Y-9700499D01*
X31594018Y-9700499D01*
X31687804Y-9685646D01*
X31800842Y-9628050D01*
X31890550Y-9538342D01*
X31948146Y-9425304D01*
X31948146Y-9425302D01*
X31948147Y-9425301D01*
X31962999Y-9331524D01*
X31963000Y-9331519D01*
X31962999Y-8968482D01*
X31948146Y-8874696D01*
X31890550Y-8761658D01*
X31890546Y-8761654D01*
X31890545Y-8761652D01*
X31800847Y-8671954D01*
X31800844Y-8671952D01*
X31800842Y-8671950D01*
X31714682Y-8628049D01*
X31687801Y-8614352D01*
X31594024Y-8599500D01*
X30355982Y-8599500D01*
X30262196Y-8614354D01*
X30248224Y-8621473D01*
X30179555Y-8634367D01*
X30114815Y-8608088D01*
X30074560Y-8550981D01*
X30071732Y-8484960D01*
X30071620Y-8484943D01*
X30071707Y-8484389D01*
X30071570Y-8481175D01*
X30073019Y-8476105D01*
X30086166Y-8393100D01*
X30088000Y-8381519D01*
X30087999Y-8018482D01*
X30073146Y-7924696D01*
X30015550Y-7811658D01*
X30015546Y-7811654D01*
X30015545Y-7811652D01*
X29925847Y-7721954D01*
X29925844Y-7721952D01*
X29925842Y-7721950D01*
X29836589Y-7676473D01*
X29812801Y-7664352D01*
X29719024Y-7649500D01*
X28480982Y-7649500D01*
X28400019Y-7662323D01*
X28387196Y-7664354D01*
X28274158Y-7721950D01*
X28274157Y-7721951D01*
X28274156Y-7721951D01*
X28257404Y-7738704D01*
X28207925Y-7788182D01*
X28146605Y-7821666D01*
X28120246Y-7824500D01*
X27824529Y-7824500D01*
X27757490Y-7804815D01*
X27724759Y-7774133D01*
X27672151Y-7702851D01*
X27669400Y-7700821D01*
X27562882Y-7622207D01*
X27562880Y-7622206D01*
X27434700Y-7577353D01*
X27404270Y-7574500D01*
X27404266Y-7574500D01*
X26745734Y-7574500D01*
X26745730Y-7574500D01*
X26715300Y-7577353D01*
X26715298Y-7577353D01*
X26587119Y-7622206D01*
X26587117Y-7622207D01*
X26477848Y-7702851D01*
X26455067Y-7733718D01*
X26399419Y-7775967D01*
X26329763Y-7781424D01*
X26273073Y-7752898D01*
X26197240Y-7685717D01*
X26197238Y-7685716D01*
X26197237Y-7685715D01*
X26057365Y-7612303D01*
X25903986Y-7574500D01*
X25903985Y-7574500D01*
X25746015Y-7574500D01*
X25746014Y-7574500D01*
X25592634Y-7612303D01*
X25452762Y-7685715D01*
X25433419Y-7702851D01*
X25362737Y-7765470D01*
X25334516Y-7790471D01*
X25244781Y-7920475D01*
X25244780Y-7920476D01*
X25188762Y-8068181D01*
X25169722Y-8224999D01*
X25169722Y-8225000D01*
X25188762Y-8381818D01*
X25235299Y-8504523D01*
X25244780Y-8529523D01*
X25334517Y-8659530D01*
X25452760Y-8764283D01*
X25452762Y-8764284D01*
X25592634Y-8837696D01*
X25746014Y-8875500D01*
X25746015Y-8875500D01*
X25903985Y-8875500D01*
X26057365Y-8837696D01*
X26172336Y-8777354D01*
X26197240Y-8764283D01*
X26273073Y-8697101D01*
X26336305Y-8667380D01*
X26405568Y-8676564D01*
X26455068Y-8716282D01*
X26477849Y-8747149D01*
X26477850Y-8747150D01*
X26562004Y-8809258D01*
X26604254Y-8864905D01*
X26609713Y-8934562D01*
X26576645Y-8996111D01*
X26525263Y-9027412D01*
X26510605Y-9031979D01*
X26510604Y-9031980D01*
X26365122Y-9119927D01*
X26244927Y-9240122D01*
X26156980Y-9385604D01*
X26106409Y-9547893D01*
X26100000Y-9618427D01*
X26100000Y-9625000D01*
X27969000Y-9625000D01*
X28036039Y-9644685D01*
X28081794Y-9697489D01*
X28093000Y-9749000D01*
X28093000Y-9850000D01*
X28850000Y-9850000D01*
X28850000Y-9300000D01*
X28446850Y-9300000D01*
X28410010Y-9302899D01*
X28410004Y-9302900D01*
X28252306Y-9348716D01*
X28252303Y-9348717D01*
X28150583Y-9408874D01*
X28082859Y-9426057D01*
X28016596Y-9403897D01*
X27981345Y-9366292D01*
X27905072Y-9240122D01*
X27784877Y-9119927D01*
X27639397Y-9031981D01*
X27624737Y-9027413D01*
X27566590Y-8988674D01*
X27538617Y-8924649D01*
X27549699Y-8855664D01*
X27587993Y-8809259D01*
X27672150Y-8747150D01*
X27752793Y-8637882D01*
X27752793Y-8637881D01*
X27758311Y-8630405D01*
X27760285Y-8631862D01*
X27799580Y-8591485D01*
X27860480Y-8575500D01*
X28120246Y-8575500D01*
X28187285Y-8595185D01*
X28207922Y-8611814D01*
X28274158Y-8678050D01*
X28373228Y-8728529D01*
X28387198Y-8735647D01*
X28480975Y-8750499D01*
X28480981Y-8750500D01*
X29719018Y-8750499D01*
X29812804Y-8735646D01*
X29826773Y-8728528D01*
X29895438Y-8715632D01*
X29960179Y-8741907D01*
X30000437Y-8799012D01*
X30003268Y-8865039D01*
X30003380Y-8865057D01*
X30003293Y-8865605D01*
X30003431Y-8868818D01*
X30001981Y-8873888D01*
X29987000Y-8968475D01*
X29987000Y-9194984D01*
X29967315Y-9262023D01*
X29914511Y-9307778D01*
X29845353Y-9317722D01*
X29828405Y-9314060D01*
X29789995Y-9302900D01*
X29789989Y-9302899D01*
X29753149Y-9300000D01*
X29350000Y-9300000D01*
X29350000Y-10900000D01*
X29753134Y-10900000D01*
X29753149Y-10899999D01*
X29789989Y-10897100D01*
X29789995Y-10897099D01*
X29947693Y-10851283D01*
X29947696Y-10851282D01*
X30089052Y-10767685D01*
X30089061Y-10767678D01*
X30205178Y-10651561D01*
X30205184Y-10651553D01*
X30243768Y-10586312D01*
X30294837Y-10538629D01*
X30363578Y-10526125D01*
X30428168Y-10552770D01*
X30468098Y-10610105D01*
X30474500Y-10649433D01*
X30474500Y-12066324D01*
X30454815Y-12133363D01*
X30438181Y-12154005D01*
X29029005Y-13563181D01*
X28967682Y-13596666D01*
X28941324Y-13599500D01*
X28548500Y-13599500D01*
X28481461Y-13579815D01*
X28435706Y-13527011D01*
X28424500Y-13475500D01*
X28424500Y-12975323D01*
X28424499Y-12975321D01*
X28409967Y-12902264D01*
X28409966Y-12902260D01*
X28392253Y-12875750D01*
X28354601Y-12819399D01*
X28271740Y-12764034D01*
X28271739Y-12764033D01*
X28271735Y-12764032D01*
X28198677Y-12749500D01*
X28198674Y-12749500D01*
X25649326Y-12749500D01*
X25649323Y-12749500D01*
X25576264Y-12764032D01*
X25576260Y-12764033D01*
X25493396Y-12819401D01*
X25486681Y-12826117D01*
X25425358Y-12859602D01*
X25355666Y-12854618D01*
X25311319Y-12826117D01*
X25304603Y-12819401D01*
X25304601Y-12819400D01*
X25304601Y-12819399D01*
X25221740Y-12764034D01*
X25221739Y-12764033D01*
X25221735Y-12764032D01*
X25148677Y-12749500D01*
X25148674Y-12749500D01*
X23549326Y-12749500D01*
X23549323Y-12749500D01*
X23476264Y-12764032D01*
X23476260Y-12764033D01*
X23393399Y-12819399D01*
X23338033Y-12902260D01*
X23338032Y-12902264D01*
X23323500Y-12975321D01*
X23323500Y-13472500D01*
X23303815Y-13539539D01*
X23251011Y-13585294D01*
X23199500Y-13596500D01*
X17118500Y-13596500D01*
X17051461Y-13576815D01*
X17005706Y-13524011D01*
X16994500Y-13472500D01*
X16994500Y-12975323D01*
X16994499Y-12975321D01*
X16979967Y-12902264D01*
X16979966Y-12902260D01*
X16962253Y-12875750D01*
X16924601Y-12819399D01*
X16841740Y-12764034D01*
X16841739Y-12764033D01*
X16841735Y-12764032D01*
X16768677Y-12749500D01*
X16768674Y-12749500D01*
X14219326Y-12749500D01*
X14219323Y-12749500D01*
X14146264Y-12764032D01*
X14146260Y-12764033D01*
X14063396Y-12819401D01*
X14056681Y-12826117D01*
X13995358Y-12859602D01*
X13925666Y-12854618D01*
X13881319Y-12826117D01*
X13874603Y-12819401D01*
X13874601Y-12819400D01*
X13874601Y-12819399D01*
X13791740Y-12764034D01*
X13791739Y-12764033D01*
X13791735Y-12764032D01*
X13718677Y-12749500D01*
X13718674Y-12749500D01*
X12119326Y-12749500D01*
X12119323Y-12749500D01*
X12046264Y-12764032D01*
X12046260Y-12764033D01*
X11963399Y-12819399D01*
X11908033Y-12902260D01*
X11908032Y-12902264D01*
X11893500Y-12975321D01*
X11893500Y-14366323D01*
X11873815Y-14433362D01*
X11857181Y-14454004D01*
X10623003Y-15688181D01*
X10561680Y-15721666D01*
X10535322Y-15724500D01*
X9802129Y-15724500D01*
X9802123Y-15724501D01*
X9742516Y-15730908D01*
X9607671Y-15781202D01*
X9607664Y-15781206D01*
X9492455Y-15867452D01*
X9492452Y-15867455D01*
X9406206Y-15982664D01*
X9406202Y-15982671D01*
X9361565Y-16102352D01*
X9355909Y-16117517D01*
X9349500Y-16177127D01*
X9349500Y-16177134D01*
X9349500Y-16177135D01*
X9349500Y-16797870D01*
X9349501Y-16797876D01*
X9355908Y-16857483D01*
X9406202Y-16992328D01*
X9406206Y-16992335D01*
X9492452Y-17107544D01*
X9492455Y-17107547D01*
X9607664Y-17193793D01*
X9607671Y-17193797D01*
X9742517Y-17244091D01*
X9742516Y-17244091D01*
X9749444Y-17244835D01*
X9802127Y-17250500D01*
X10797872Y-17250499D01*
X10857483Y-17244091D01*
X10992331Y-17193796D01*
X11107546Y-17107546D01*
X11193796Y-16992331D01*
X11237856Y-16874200D01*
X11835700Y-16874200D01*
X12585700Y-16874200D01*
X12585700Y-15899200D01*
X12585699Y-15899199D01*
X12535729Y-15899200D01*
X12535711Y-15899201D01*
X12433002Y-15909694D01*
X12266580Y-15964841D01*
X12266575Y-15964843D01*
X12117354Y-16056884D01*
X11993384Y-16180854D01*
X11901343Y-16330075D01*
X11901341Y-16330080D01*
X11846194Y-16496502D01*
X11846193Y-16496509D01*
X11835700Y-16599213D01*
X11835700Y-16874200D01*
X11237856Y-16874200D01*
X11244091Y-16857483D01*
X11250500Y-16797873D01*
X11250499Y-16527674D01*
X11270183Y-16460636D01*
X11286813Y-16439999D01*
X12239995Y-15486819D01*
X12301318Y-15453334D01*
X12327676Y-15450500D01*
X13718676Y-15450500D01*
X13718677Y-15450499D01*
X13791740Y-15435966D01*
X13874601Y-15380601D01*
X13874603Y-15380597D01*
X13881319Y-15373883D01*
X13942642Y-15340398D01*
X14012334Y-15345382D01*
X14056681Y-15373883D01*
X14063396Y-15380598D01*
X14063397Y-15380599D01*
X14063399Y-15380601D01*
X14146260Y-15435966D01*
X14146264Y-15435967D01*
X14219321Y-15450499D01*
X14219324Y-15450500D01*
X14219326Y-15450500D01*
X16768676Y-15450500D01*
X16768677Y-15450499D01*
X16841740Y-15435966D01*
X16924601Y-15380601D01*
X16979966Y-15297740D01*
X16994500Y-15224674D01*
X16994500Y-14721500D01*
X17014185Y-14654461D01*
X17066989Y-14608706D01*
X17118500Y-14597500D01*
X23199500Y-14597500D01*
X23266539Y-14617185D01*
X23312294Y-14669989D01*
X23323500Y-14721500D01*
X23323500Y-15224678D01*
X23338032Y-15297735D01*
X23338033Y-15297739D01*
X23338034Y-15297740D01*
X23393399Y-15380601D01*
X23476260Y-15435966D01*
X23476264Y-15435967D01*
X23549321Y-15450499D01*
X23549324Y-15450500D01*
X23549326Y-15450500D01*
X25148676Y-15450500D01*
X25148677Y-15450499D01*
X25221740Y-15435966D01*
X25304601Y-15380601D01*
X25304603Y-15380597D01*
X25311319Y-15373883D01*
X25372642Y-15340398D01*
X25442334Y-15345382D01*
X25486681Y-15373883D01*
X25493396Y-15380598D01*
X25493397Y-15380599D01*
X25493399Y-15380601D01*
X25576260Y-15435966D01*
X25576264Y-15435967D01*
X25649321Y-15450499D01*
X25649324Y-15450500D01*
X25649326Y-15450500D01*
X27518324Y-15450500D01*
X27585363Y-15470185D01*
X27606005Y-15486819D01*
X27963181Y-15843994D01*
X27996666Y-15905317D01*
X27999500Y-15931675D01*
X27999500Y-19217801D01*
X27979815Y-19284840D01*
X27927011Y-19330595D01*
X27857853Y-19340539D01*
X27815998Y-19326592D01*
X27721477Y-19274895D01*
X27721469Y-19274891D01*
X27654814Y-19253970D01*
X27583031Y-19242289D01*
X27426148Y-19239384D01*
X27426146Y-19239384D01*
X27426144Y-19239384D01*
X27401144Y-19240145D01*
X27401133Y-19240145D01*
X27401128Y-19240146D01*
X27401115Y-19240147D01*
X27376999Y-19242066D01*
X27376998Y-19242066D01*
X27283211Y-19268134D01*
X27220683Y-19299331D01*
X27220676Y-19299335D01*
X27181903Y-19323215D01*
X27115188Y-19397292D01*
X27115186Y-19397295D01*
X27090223Y-19439242D01*
X27039023Y-19486785D01*
X26970247Y-19499099D01*
X26909355Y-19475093D01*
X26817331Y-19406204D01*
X26817329Y-19406203D01*
X26797529Y-19398818D01*
X26741596Y-19356946D01*
X26717179Y-19291482D01*
X26732031Y-19223209D01*
X26781437Y-19173804D01*
X26801860Y-19164930D01*
X26894117Y-19134359D01*
X26894124Y-19134356D01*
X27043345Y-19042315D01*
X27167315Y-18918345D01*
X27259356Y-18769124D01*
X27259358Y-18769119D01*
X27314505Y-18602697D01*
X27314506Y-18602690D01*
X27324999Y-18499986D01*
X27325000Y-18499973D01*
X27325000Y-18450000D01*
X25974000Y-18450000D01*
X25906961Y-18430315D01*
X25861206Y-18377511D01*
X25850000Y-18326000D01*
X25850000Y-17200000D01*
X26350000Y-17200000D01*
X26350000Y-17950000D01*
X27324999Y-17950000D01*
X27324999Y-17900028D01*
X27324998Y-17900013D01*
X27314505Y-17797302D01*
X27259358Y-17630880D01*
X27259356Y-17630875D01*
X27167315Y-17481654D01*
X27043345Y-17357684D01*
X26894124Y-17265643D01*
X26894119Y-17265641D01*
X26727697Y-17210494D01*
X26727690Y-17210493D01*
X26624986Y-17200000D01*
X26350000Y-17200000D01*
X25850000Y-17200000D01*
X25575029Y-17200000D01*
X25575012Y-17200001D01*
X25472302Y-17210494D01*
X25305880Y-17265641D01*
X25305875Y-17265643D01*
X25199597Y-17331197D01*
X25132204Y-17349637D01*
X25065541Y-17328714D01*
X25020771Y-17275072D01*
X25010500Y-17225658D01*
X25010500Y-16697323D01*
X25010499Y-16697321D01*
X24995967Y-16624264D01*
X24995966Y-16624260D01*
X24979230Y-16599213D01*
X24940601Y-16541399D01*
X24857740Y-16486034D01*
X24857739Y-16486033D01*
X24857735Y-16486032D01*
X24784677Y-16471500D01*
X24784674Y-16471500D01*
X21415326Y-16471500D01*
X21415323Y-16471500D01*
X21342264Y-16486032D01*
X21342260Y-16486033D01*
X21259398Y-16541400D01*
X21259395Y-16541402D01*
X21257399Y-16544391D01*
X21251361Y-16549436D01*
X21250760Y-16550038D01*
X21250706Y-16549984D01*
X21203786Y-16589196D01*
X21154297Y-16599500D01*
X20891005Y-16599500D01*
X20823966Y-16579815D01*
X20778211Y-16527011D01*
X20774824Y-16518835D01*
X20767507Y-16499219D01*
X20755928Y-16468174D01*
X20673987Y-16358713D01*
X20601612Y-16304534D01*
X20564528Y-16276773D01*
X20564526Y-16276772D01*
X20436414Y-16228988D01*
X20436412Y-16228987D01*
X20436410Y-16228987D01*
X20379793Y-16222900D01*
X19838818Y-16222900D01*
X19838809Y-16222901D01*
X19782185Y-16228987D01*
X19654073Y-16276772D01*
X19544613Y-16358713D01*
X19462673Y-16468171D01*
X19462672Y-16468174D01*
X19453697Y-16492236D01*
X19411827Y-16548167D01*
X19346363Y-16572584D01*
X19337517Y-16572900D01*
X19160708Y-16572900D01*
X19033412Y-16607008D01*
X18919286Y-16672900D01*
X18919283Y-16672902D01*
X17424502Y-18167683D01*
X17424500Y-18167686D01*
X17358608Y-18281812D01*
X17324500Y-18409108D01*
X17324500Y-19536701D01*
X17304815Y-19603740D01*
X17252011Y-19649495D01*
X17219898Y-19659174D01*
X17187199Y-19664352D01*
X17167283Y-19674500D01*
X17074158Y-19721950D01*
X17074157Y-19721951D01*
X17074152Y-19721954D01*
X16984454Y-19811652D01*
X16984451Y-19811657D01*
X16926852Y-19924698D01*
X16912000Y-20018475D01*
X16912000Y-20381522D01*
X16915754Y-20405224D01*
X16906796Y-20474517D01*
X16880962Y-20512298D01*
X16794818Y-20598442D01*
X16794814Y-20598447D01*
X16711218Y-20739801D01*
X16665399Y-20897513D01*
X16665204Y-20899998D01*
X16665205Y-20900000D01*
X17951000Y-20900000D01*
X18018039Y-20919685D01*
X18063794Y-20972489D01*
X18075000Y-21024000D01*
X18075000Y-21276000D01*
X18055315Y-21343039D01*
X18002511Y-21388794D01*
X17951000Y-21400000D01*
X16665205Y-21400000D01*
X16665204Y-21400001D01*
X16665399Y-21402486D01*
X16676561Y-21440905D01*
X16676361Y-21510775D01*
X16638418Y-21569445D01*
X16574780Y-21598288D01*
X16557484Y-21599500D01*
X16281079Y-21599500D01*
X16214040Y-21579815D01*
X16181309Y-21549134D01*
X16179899Y-21547224D01*
X16149729Y-21506345D01*
X16125759Y-21440717D01*
X16125500Y-21432712D01*
X16125500Y-21067288D01*
X16145185Y-21000249D01*
X16149730Y-20993655D01*
X16227790Y-20887886D01*
X16227789Y-20887886D01*
X16227793Y-20887882D01*
X16256520Y-20805784D01*
X16272646Y-20759701D01*
X16272646Y-20759699D01*
X16275500Y-20729269D01*
X16275500Y-20070730D01*
X16272646Y-20040300D01*
X16272646Y-20040298D01*
X16232195Y-19924698D01*
X16227793Y-19912118D01*
X16147150Y-19802850D01*
X16037882Y-19722207D01*
X16037880Y-19722206D01*
X15909700Y-19677353D01*
X15879270Y-19674500D01*
X15879266Y-19674500D01*
X15370734Y-19674500D01*
X15370730Y-19674500D01*
X15340300Y-19677353D01*
X15340298Y-19677353D01*
X15212119Y-19722206D01*
X15212117Y-19722207D01*
X15102850Y-19802850D01*
X15022207Y-19912117D01*
X15022206Y-19912119D01*
X14977353Y-20040298D01*
X14977353Y-20040300D01*
X14974500Y-20070730D01*
X14974500Y-20729269D01*
X14977353Y-20759699D01*
X14977353Y-20759701D01*
X15022206Y-20887880D01*
X15022209Y-20887886D01*
X15100270Y-20993655D01*
X15124241Y-21059284D01*
X15124500Y-21067288D01*
X15124500Y-21432711D01*
X15104815Y-21499750D01*
X15100270Y-21506345D01*
X15040741Y-21587004D01*
X14985094Y-21629254D01*
X14915437Y-21634713D01*
X14853888Y-21601645D01*
X14822585Y-21550258D01*
X14818018Y-21535602D01*
X14730072Y-21390122D01*
X14609877Y-21269927D01*
X14503298Y-21205498D01*
X14456111Y-21153970D01*
X14444272Y-21085111D01*
X14471541Y-21020782D01*
X14493815Y-20999611D01*
X14497150Y-20997150D01*
X14577793Y-20887882D01*
X14606520Y-20805784D01*
X14622646Y-20759701D01*
X14622646Y-20759699D01*
X14625500Y-20729269D01*
X14625500Y-20070730D01*
X14622646Y-20040300D01*
X14622646Y-20040298D01*
X14582195Y-19924698D01*
X14577793Y-19912118D01*
X14499729Y-19806344D01*
X14475759Y-19740715D01*
X14475500Y-19732711D01*
X14475500Y-18223699D01*
X14495185Y-18156660D01*
X14547989Y-18110905D01*
X14599500Y-18099699D01*
X15033571Y-18099699D01*
X15033572Y-18099699D01*
X15093183Y-18093291D01*
X15228031Y-18042996D01*
X15343246Y-17956746D01*
X15429496Y-17841531D01*
X15479791Y-17706683D01*
X15481321Y-17692452D01*
X15482161Y-17684643D01*
X15508900Y-17620092D01*
X15566293Y-17580245D01*
X15605450Y-17573900D01*
X16037517Y-17573900D01*
X16104556Y-17593585D01*
X16150311Y-17646389D01*
X16153689Y-17654542D01*
X16162672Y-17678626D01*
X16244613Y-17788087D01*
X16354074Y-17870028D01*
X16482186Y-17917812D01*
X16538815Y-17923900D01*
X17079784Y-17923899D01*
X17136414Y-17917812D01*
X17264526Y-17870028D01*
X17373987Y-17788087D01*
X17455928Y-17678626D01*
X17503712Y-17550514D01*
X17505987Y-17529344D01*
X17509799Y-17493901D01*
X17509799Y-17493894D01*
X17509800Y-17493885D01*
X17509799Y-16652916D01*
X17505554Y-16613425D01*
X17503712Y-16596285D01*
X17484356Y-16544391D01*
X17455928Y-16468174D01*
X17373987Y-16358713D01*
X17301612Y-16304534D01*
X17264528Y-16276773D01*
X17264526Y-16276772D01*
X17136414Y-16228988D01*
X17136412Y-16228987D01*
X17136410Y-16228987D01*
X17079793Y-16222900D01*
X16538818Y-16222900D01*
X16538809Y-16222901D01*
X16482185Y-16228987D01*
X16354073Y-16276772D01*
X16244613Y-16358713D01*
X16162673Y-16468171D01*
X16162672Y-16468174D01*
X16153697Y-16492236D01*
X16111827Y-16548167D01*
X16046363Y-16572584D01*
X16037517Y-16572900D01*
X15577517Y-16572900D01*
X15510478Y-16553215D01*
X15464723Y-16500411D01*
X15461335Y-16492233D01*
X15429497Y-16406871D01*
X15429493Y-16406864D01*
X15343247Y-16291655D01*
X15343244Y-16291652D01*
X15228035Y-16205406D01*
X15228028Y-16205402D01*
X15093186Y-16155110D01*
X15093185Y-16155109D01*
X15093183Y-16155109D01*
X15033573Y-16148700D01*
X15033563Y-16148700D01*
X14437829Y-16148700D01*
X14437823Y-16148701D01*
X14378216Y-16155108D01*
X14243371Y-16205402D01*
X14243364Y-16205406D01*
X14128155Y-16291652D01*
X14128152Y-16291655D01*
X14041906Y-16406864D01*
X14041901Y-16406874D01*
X14034517Y-16426671D01*
X13992645Y-16482604D01*
X13927180Y-16507020D01*
X13858907Y-16492167D01*
X13809503Y-16442761D01*
X13800630Y-16422340D01*
X13770058Y-16330080D01*
X13770056Y-16330075D01*
X13678015Y-16180854D01*
X13554045Y-16056884D01*
X13404824Y-15964843D01*
X13404819Y-15964841D01*
X13238397Y-15909694D01*
X13238390Y-15909693D01*
X13135686Y-15899200D01*
X13085700Y-15899200D01*
X13085700Y-18349199D01*
X13135672Y-18349199D01*
X13135686Y-18349198D01*
X13238397Y-18338705D01*
X13311496Y-18314483D01*
X13381324Y-18312081D01*
X13441366Y-18347813D01*
X13472559Y-18410333D01*
X13474500Y-18432189D01*
X13474500Y-19732712D01*
X13454815Y-19799751D01*
X13450272Y-19806342D01*
X13446350Y-19811658D01*
X13418691Y-19849134D01*
X13363044Y-19891384D01*
X13318921Y-19899500D01*
X12184108Y-19899500D01*
X12056812Y-19933608D01*
X11942686Y-19999500D01*
X11942683Y-19999502D01*
X11849502Y-20092683D01*
X11849500Y-20092686D01*
X11786516Y-20201777D01*
X11766809Y-20227457D01*
X11395821Y-20598447D01*
X11031087Y-20963181D01*
X10969764Y-20996666D01*
X10943406Y-20999500D01*
X10924500Y-20999500D01*
X10857461Y-20979815D01*
X10811706Y-20927011D01*
X10800500Y-20875500D01*
X10800500Y-19176439D01*
X10820185Y-19109400D01*
X10872989Y-19063645D01*
X10881168Y-19060257D01*
X10992326Y-19018798D01*
X10992326Y-19018797D01*
X10992331Y-19018796D01*
X11107546Y-18932546D01*
X11193796Y-18817331D01*
X11244091Y-18682483D01*
X11250500Y-18622873D01*
X11250499Y-18002128D01*
X11244091Y-17942517D01*
X11237147Y-17923900D01*
X11193797Y-17807671D01*
X11193793Y-17807664D01*
X11107547Y-17692455D01*
X11107544Y-17692452D01*
X10992335Y-17606206D01*
X10992328Y-17606202D01*
X10857482Y-17555908D01*
X10857483Y-17555908D01*
X10797883Y-17549501D01*
X10797881Y-17549500D01*
X10797873Y-17549500D01*
X10797864Y-17549500D01*
X9802129Y-17549500D01*
X9802123Y-17549501D01*
X9742516Y-17555908D01*
X9607671Y-17606202D01*
X9607664Y-17606206D01*
X9492455Y-17692452D01*
X9492452Y-17692455D01*
X9406206Y-17807664D01*
X9406202Y-17807671D01*
X9355910Y-17942513D01*
X9355909Y-17942517D01*
X9349500Y-18002127D01*
X9349500Y-18002134D01*
X9349500Y-18002135D01*
X9349500Y-18622870D01*
X9349501Y-18622876D01*
X9355908Y-18682483D01*
X9406202Y-18817328D01*
X9406206Y-18817335D01*
X9492452Y-18932544D01*
X9492455Y-18932547D01*
X9607664Y-19018793D01*
X9607673Y-19018798D01*
X9718832Y-19060257D01*
X9774766Y-19102127D01*
X9799184Y-19167592D01*
X9799500Y-19176439D01*
X9799500Y-22090148D01*
X9779815Y-22157187D01*
X9727011Y-22202942D01*
X9688755Y-22213438D01*
X9642516Y-22218409D01*
X9507671Y-22268702D01*
X9507664Y-22268706D01*
X9392455Y-22354952D01*
X9392452Y-22354955D01*
X9306206Y-22470164D01*
X9306202Y-22470171D01*
X9255910Y-22605013D01*
X9255909Y-22605017D01*
X9249500Y-22664627D01*
X9249500Y-22664634D01*
X9249500Y-22664635D01*
X9249500Y-23285370D01*
X9249501Y-23285376D01*
X9255908Y-23344983D01*
X9306202Y-23479828D01*
X9306206Y-23479835D01*
X9392452Y-23595044D01*
X9392455Y-23595047D01*
X9507664Y-23681293D01*
X9507671Y-23681297D01*
X9642517Y-23731591D01*
X9642516Y-23731591D01*
X9649444Y-23732335D01*
X9702127Y-23738000D01*
X10697872Y-23737999D01*
X10757483Y-23731591D01*
X10892331Y-23681296D01*
X11007546Y-23595046D01*
X11093796Y-23479831D01*
X11144091Y-23344983D01*
X11150500Y-23285373D01*
X11150499Y-22664628D01*
X11144091Y-22605017D01*
X11142406Y-22600500D01*
X11093797Y-22470171D01*
X11093793Y-22470164D01*
X11007547Y-22354955D01*
X11007544Y-22354952D01*
X11000929Y-22350000D01*
X13075001Y-22350000D01*
X13075001Y-22431582D01*
X13081408Y-22502102D01*
X13081409Y-22502107D01*
X13131981Y-22664396D01*
X13219927Y-22809877D01*
X13340122Y-22930072D01*
X13485604Y-23018019D01*
X13485603Y-23018019D01*
X13647894Y-23068590D01*
X13647893Y-23068590D01*
X13718408Y-23074998D01*
X13718426Y-23074999D01*
X13724999Y-23074998D01*
X13725000Y-23074998D01*
X13725000Y-22350000D01*
X13075001Y-22350000D01*
X11000929Y-22350000D01*
X10892335Y-22268706D01*
X10892332Y-22268705D01*
X10892331Y-22268704D01*
X10881161Y-22264538D01*
X10825231Y-22222666D01*
X10800816Y-22157201D01*
X10800500Y-22148358D01*
X10800500Y-22124500D01*
X10820185Y-22057461D01*
X10872989Y-22011706D01*
X10924500Y-22000500D01*
X11267972Y-22000500D01*
X11267974Y-22000500D01*
X11395268Y-21966392D01*
X11509396Y-21900500D01*
X12473077Y-20936819D01*
X12534400Y-20903334D01*
X12560758Y-20900500D01*
X13318921Y-20900500D01*
X13385960Y-20920185D01*
X13418690Y-20950865D01*
X13426631Y-20961624D01*
X13452848Y-20997148D01*
X13452850Y-20997150D01*
X13456185Y-20999611D01*
X13458938Y-21003237D01*
X13459418Y-21003717D01*
X13459352Y-21003782D01*
X13498436Y-21055259D01*
X13503893Y-21124915D01*
X13470826Y-21186465D01*
X13446701Y-21205498D01*
X13340122Y-21269927D01*
X13219927Y-21390122D01*
X13131980Y-21535604D01*
X13081409Y-21697893D01*
X13075000Y-21768427D01*
X13075000Y-21850000D01*
X14101000Y-21850000D01*
X14168039Y-21869685D01*
X14213794Y-21922489D01*
X14225000Y-21974000D01*
X14225000Y-23074999D01*
X14231581Y-23074999D01*
X14302102Y-23068591D01*
X14302107Y-23068590D01*
X14464396Y-23018018D01*
X14609877Y-22930072D01*
X14730072Y-22809877D01*
X14818018Y-22664396D01*
X14822585Y-22649742D01*
X14861321Y-22591593D01*
X14925345Y-22563618D01*
X14994331Y-22574697D01*
X15040741Y-22612995D01*
X15102850Y-22697150D01*
X15212118Y-22777793D01*
X15254845Y-22792744D01*
X15340299Y-22822646D01*
X15370730Y-22825500D01*
X15370734Y-22825500D01*
X15879270Y-22825500D01*
X15909699Y-22822646D01*
X15909701Y-22822646D01*
X15973790Y-22800219D01*
X16037882Y-22777793D01*
X16147150Y-22697150D01*
X16181308Y-22650866D01*
X16236956Y-22608616D01*
X16281079Y-22600500D01*
X17088448Y-22600500D01*
X17144742Y-22614015D01*
X17187198Y-22635647D01*
X17280975Y-22650499D01*
X17280981Y-22650500D01*
X18369018Y-22650499D01*
X18462804Y-22635646D01*
X18575842Y-22578050D01*
X18665550Y-22488342D01*
X18723146Y-22375304D01*
X18723146Y-22375302D01*
X18723147Y-22375301D01*
X18737999Y-22281524D01*
X18738000Y-22281519D01*
X18737999Y-21918482D01*
X18734245Y-21894780D01*
X18743198Y-21825490D01*
X18769038Y-21787700D01*
X18855178Y-21701561D01*
X18855185Y-21701552D01*
X18938781Y-21560197D01*
X18971894Y-21446223D01*
X19009500Y-21387337D01*
X19072973Y-21358130D01*
X19142159Y-21367876D01*
X19195094Y-21413479D01*
X19201456Y-21424522D01*
X19201853Y-21425302D01*
X19201854Y-21425304D01*
X19259450Y-21538342D01*
X19259453Y-21538345D01*
X19265189Y-21546241D01*
X19263834Y-21547224D01*
X19291911Y-21598642D01*
X19286927Y-21668334D01*
X19264487Y-21703249D01*
X19265189Y-21703759D01*
X19259451Y-21711657D01*
X19259450Y-21711658D01*
X19257460Y-21715564D01*
X19201852Y-21824698D01*
X19187000Y-21918475D01*
X19187000Y-22281517D01*
X19194722Y-22330270D01*
X19201854Y-22375304D01*
X19259450Y-22488342D01*
X19259452Y-22488344D01*
X19259454Y-22488347D01*
X19349152Y-22578045D01*
X19349154Y-22578046D01*
X19349158Y-22578050D01*
X19462194Y-22635645D01*
X19462198Y-22635647D01*
X19555975Y-22650499D01*
X19555981Y-22650500D01*
X19768099Y-22650499D01*
X19835139Y-22670183D01*
X19855781Y-22686818D01*
X20399525Y-23230562D01*
X20469438Y-23300475D01*
X20555062Y-23349910D01*
X20576156Y-23355562D01*
X20650564Y-23375500D01*
X20650565Y-23375500D01*
X20703692Y-23375500D01*
X20770731Y-23395185D01*
X20805742Y-23429061D01*
X20808163Y-23432569D01*
X20809515Y-23434528D01*
X20809517Y-23434530D01*
X20927760Y-23539283D01*
X20927762Y-23539284D01*
X21067634Y-23612696D01*
X21221014Y-23650500D01*
X21221015Y-23650500D01*
X21378985Y-23650500D01*
X21532365Y-23612696D01*
X21565994Y-23595046D01*
X21672240Y-23539283D01*
X21790483Y-23434530D01*
X21880220Y-23304523D01*
X21936237Y-23156818D01*
X21955278Y-23000000D01*
X21938654Y-22863083D01*
X21936237Y-22843181D01*
X21902080Y-22753117D01*
X21880220Y-22695477D01*
X21790483Y-22565470D01*
X21672240Y-22460717D01*
X21672238Y-22460716D01*
X21672237Y-22460715D01*
X21532365Y-22387303D01*
X21378986Y-22349500D01*
X21378985Y-22349500D01*
X21221015Y-22349500D01*
X21221011Y-22349500D01*
X21166672Y-22362893D01*
X21096870Y-22359823D01*
X21039809Y-22319503D01*
X21013604Y-22254733D01*
X21012999Y-22242514D01*
X21012999Y-21918482D01*
X20998146Y-21824696D01*
X20940550Y-21711658D01*
X20940547Y-21711655D01*
X20937315Y-21705311D01*
X20924419Y-21636642D01*
X20950695Y-21571901D01*
X20972322Y-21550634D01*
X20972488Y-21550505D01*
X20972498Y-21550500D01*
X21358178Y-21164818D01*
X21419501Y-21131334D01*
X21445859Y-21128500D01*
X21992384Y-21128500D01*
X22059423Y-21148185D01*
X22105178Y-21200989D01*
X22115122Y-21270147D01*
X22102259Y-21309976D01*
X22074534Y-21362976D01*
X22074533Y-21362977D01*
X22054851Y-21430009D01*
X22054848Y-21430021D01*
X22044500Y-21501998D01*
X22044500Y-22278273D01*
X22044499Y-22278273D01*
X22049847Y-22330273D01*
X22060113Y-22379662D01*
X22060120Y-22379692D01*
X22066393Y-22403870D01*
X22066396Y-22403878D01*
X22102537Y-22470171D01*
X22114113Y-22491403D01*
X22123047Y-22502107D01*
X22158878Y-22545040D01*
X22191064Y-22577268D01*
X22191069Y-22577272D01*
X22248380Y-22608616D01*
X22278529Y-22625105D01*
X22345192Y-22646028D01*
X22416973Y-22657709D01*
X27568973Y-22753117D01*
X27625704Y-22747813D01*
X27679511Y-22736628D01*
X27679521Y-22736625D01*
X27679527Y-22736624D01*
X27679532Y-22736623D01*
X27708192Y-22728903D01*
X27708198Y-22728901D01*
X27747199Y-22706692D01*
X27794828Y-22679570D01*
X27794835Y-22679563D01*
X27799796Y-22676054D01*
X27800580Y-22677162D01*
X27857840Y-22651006D01*
X27927000Y-22660942D01*
X27979809Y-22706692D01*
X27999500Y-22773729D01*
X27999500Y-22930324D01*
X27979815Y-22997363D01*
X27963181Y-23018005D01*
X27603005Y-23378181D01*
X27541682Y-23411666D01*
X27515324Y-23414500D01*
X25649323Y-23414500D01*
X25576264Y-23429032D01*
X25576260Y-23429033D01*
X25493396Y-23484401D01*
X25486681Y-23491117D01*
X25425358Y-23524602D01*
X25355666Y-23519618D01*
X25311319Y-23491117D01*
X25304603Y-23484401D01*
X25304601Y-23484400D01*
X25304601Y-23484399D01*
X25247117Y-23445990D01*
X25221739Y-23429033D01*
X25221735Y-23429032D01*
X25148677Y-23414500D01*
X25148674Y-23414500D01*
X23549326Y-23414500D01*
X23549323Y-23414500D01*
X23476264Y-23429032D01*
X23476260Y-23429033D01*
X23393399Y-23484399D01*
X23338033Y-23567260D01*
X23338032Y-23567264D01*
X23323500Y-23640321D01*
X23323500Y-24140500D01*
X23303815Y-24207539D01*
X23251011Y-24253294D01*
X23199500Y-24264500D01*
X17118500Y-24264500D01*
X17051461Y-24244815D01*
X17005706Y-24192011D01*
X16994500Y-24140500D01*
X16994500Y-23640323D01*
X16994499Y-23640321D01*
X16979967Y-23567264D01*
X16979966Y-23567260D01*
X16970377Y-23552909D01*
X16924601Y-23484399D01*
X16867117Y-23445990D01*
X16841739Y-23429033D01*
X16841735Y-23429032D01*
X16768677Y-23414500D01*
X16768674Y-23414500D01*
X14219326Y-23414500D01*
X14219323Y-23414500D01*
X14146264Y-23429032D01*
X14146260Y-23429033D01*
X14063396Y-23484401D01*
X14056681Y-23491117D01*
X13995358Y-23524602D01*
X13925666Y-23519618D01*
X13881319Y-23491117D01*
X13874603Y-23484401D01*
X13874601Y-23484400D01*
X13874601Y-23484399D01*
X13817117Y-23445990D01*
X13791739Y-23429033D01*
X13791735Y-23429032D01*
X13718677Y-23414500D01*
X13718674Y-23414500D01*
X12119326Y-23414500D01*
X12119323Y-23414500D01*
X12046264Y-23429032D01*
X12046260Y-23429033D01*
X11963399Y-23484399D01*
X11908033Y-23567260D01*
X11908032Y-23567264D01*
X11893500Y-23640321D01*
X11893500Y-24175500D01*
X11873815Y-24242539D01*
X11821011Y-24288294D01*
X11769500Y-24299500D01*
X11159107Y-24299500D01*
X11092068Y-24279815D01*
X11059843Y-24249814D01*
X11007546Y-24179954D01*
X11007544Y-24179952D01*
X11007543Y-24179951D01*
X10892335Y-24093706D01*
X10892328Y-24093702D01*
X10757482Y-24043408D01*
X10757483Y-24043408D01*
X10697883Y-24037001D01*
X10697881Y-24037000D01*
X10697873Y-24037000D01*
X10697864Y-24037000D01*
X9702129Y-24037000D01*
X9702123Y-24037001D01*
X9642516Y-24043408D01*
X9507671Y-24093702D01*
X9507664Y-24093706D01*
X9392455Y-24179952D01*
X9392452Y-24179955D01*
X9306206Y-24295164D01*
X9306202Y-24295171D01*
X9264839Y-24406074D01*
X9255909Y-24430017D01*
X9249500Y-24489627D01*
X9249500Y-24489634D01*
X9249500Y-24489635D01*
X9249500Y-25110370D01*
X6596910Y-25110370D01*
X6586397Y-24996917D01*
X6530582Y-24800750D01*
X6439673Y-24618179D01*
X6380704Y-24540091D01*
X6316762Y-24455418D01*
X6166041Y-24318019D01*
X6166039Y-24318017D01*
X5992642Y-24210655D01*
X5992635Y-24210651D01*
X5897546Y-24173814D01*
X5802456Y-24136976D01*
X5601976Y-24099500D01*
X5398024Y-24099500D01*
X5197544Y-24136976D01*
X5197541Y-24136976D01*
X5197541Y-24136977D01*
X5007364Y-24210651D01*
X5007357Y-24210655D01*
X4833960Y-24318017D01*
X4833958Y-24318019D01*
X4683237Y-24455418D01*
X4570875Y-24604211D01*
X4560327Y-24618179D01*
X4491813Y-24755773D01*
X4444313Y-24807008D01*
X4380815Y-24824500D01*
X4079185Y-24824500D01*
X4012146Y-24804815D01*
X3968186Y-24755774D01*
X3899673Y-24618179D01*
X3776764Y-24455421D01*
X3722633Y-24406074D01*
X3686352Y-24346363D01*
X3688112Y-24276516D01*
X3727355Y-24218708D01*
X3744155Y-24207060D01*
X3755562Y-24200475D01*
X3825475Y-24130562D01*
X4280864Y-23675171D01*
X4342185Y-23641688D01*
X4411876Y-23646672D01*
X4460017Y-23682710D01*
X4460763Y-23681965D01*
X4465944Y-23687146D01*
X4467810Y-23688543D01*
X4468944Y-23690146D01*
X4469396Y-23690598D01*
X4469397Y-23690599D01*
X4469399Y-23690601D01*
X4540338Y-23738000D01*
X4552260Y-23745966D01*
X4552264Y-23745967D01*
X4625321Y-23760499D01*
X4625324Y-23760500D01*
X4625326Y-23760500D01*
X6374676Y-23760500D01*
X6374677Y-23760499D01*
X6447740Y-23745966D01*
X6530601Y-23690601D01*
X6585966Y-23607740D01*
X6600500Y-23534674D01*
X6600500Y-22141899D01*
X6620185Y-22074860D01*
X6636819Y-22054218D01*
X6975473Y-21715564D01*
X6984174Y-21700496D01*
X7007108Y-21660770D01*
X7024910Y-21629938D01*
X7037705Y-21582186D01*
X7050500Y-21534436D01*
X7050500Y-21435564D01*
X7050500Y-17374200D01*
X11835701Y-17374200D01*
X11835701Y-17649186D01*
X11846194Y-17751897D01*
X11901341Y-17918319D01*
X11901343Y-17918324D01*
X11993384Y-18067545D01*
X12117354Y-18191515D01*
X12266575Y-18283556D01*
X12266580Y-18283558D01*
X12433002Y-18338705D01*
X12433009Y-18338706D01*
X12535719Y-18349199D01*
X12585699Y-18349198D01*
X12585700Y-18349198D01*
X12585700Y-17374200D01*
X11835701Y-17374200D01*
X7050500Y-17374200D01*
X7050500Y-16940565D01*
X7041456Y-16906814D01*
X7024910Y-16845063D01*
X7024910Y-16845062D01*
X6975475Y-16759438D01*
X6905562Y-16689525D01*
X6559709Y-16343672D01*
X6526224Y-16282349D01*
X6530666Y-16220234D01*
X6529013Y-16219764D01*
X6533099Y-16205404D01*
X6586397Y-16018083D01*
X6605215Y-15815000D01*
X6586397Y-15611917D01*
X6530582Y-15415750D01*
X6530581Y-15415748D01*
X6529013Y-15410237D01*
X6530994Y-15409673D01*
X6525902Y-15349174D01*
X6558614Y-15287435D01*
X6559628Y-15286407D01*
X8466768Y-13379269D01*
X9962000Y-13379269D01*
X9964853Y-13409699D01*
X9964853Y-13409701D01*
X10004853Y-13524011D01*
X10009707Y-13537882D01*
X10090350Y-13647150D01*
X10172473Y-13707759D01*
X10214723Y-13763406D01*
X10220182Y-13833063D01*
X10200889Y-13877969D01*
X10119781Y-13995475D01*
X10119780Y-13995476D01*
X10063762Y-14143181D01*
X10044722Y-14299999D01*
X10044722Y-14300000D01*
X10063762Y-14456818D01*
X10118254Y-14600499D01*
X10119780Y-14604523D01*
X10209517Y-14734530D01*
X10327760Y-14839283D01*
X10327762Y-14839284D01*
X10467634Y-14912696D01*
X10621014Y-14950500D01*
X10621015Y-14950500D01*
X10778985Y-14950500D01*
X10932365Y-14912696D01*
X10976206Y-14889686D01*
X11072240Y-14839283D01*
X11190483Y-14734530D01*
X11280220Y-14604523D01*
X11336237Y-14456818D01*
X11355278Y-14300000D01*
X11353031Y-14281490D01*
X11336237Y-14143181D01*
X11289361Y-14019581D01*
X11280220Y-13995477D01*
X11211002Y-13895197D01*
X11190673Y-13865745D01*
X11168790Y-13799390D01*
X11186256Y-13731739D01*
X11219086Y-13695537D01*
X11284650Y-13647150D01*
X11365293Y-13537882D01*
X11388171Y-13472500D01*
X11410146Y-13409701D01*
X11410146Y-13409699D01*
X11413000Y-13379269D01*
X11413000Y-12870730D01*
X11410146Y-12840300D01*
X11410146Y-12840298D01*
X11365293Y-12712119D01*
X11365292Y-12712117D01*
X11351315Y-12693179D01*
X11284650Y-12602850D01*
X11175382Y-12522207D01*
X11175380Y-12522206D01*
X11047200Y-12477353D01*
X11016770Y-12474500D01*
X11016766Y-12474500D01*
X10358234Y-12474500D01*
X10358230Y-12474500D01*
X10327800Y-12477353D01*
X10327798Y-12477353D01*
X10199619Y-12522206D01*
X10199617Y-12522207D01*
X10090350Y-12602850D01*
X10009707Y-12712117D01*
X10009706Y-12712119D01*
X9964853Y-12840298D01*
X9964853Y-12840300D01*
X9962000Y-12870730D01*
X9962000Y-13379269D01*
X8466768Y-13379269D01*
X8600474Y-13245563D01*
X8600475Y-13245562D01*
X8649910Y-13159938D01*
X8675500Y-13064435D01*
X8675500Y-12191317D01*
X8695185Y-12124278D01*
X8747989Y-12078523D01*
X8817147Y-12068579D01*
X8880703Y-12097604D01*
X8881649Y-12098433D01*
X8903382Y-12117686D01*
X8927762Y-12139285D01*
X9067634Y-12212696D01*
X9221014Y-12250500D01*
X9221015Y-12250500D01*
X9378985Y-12250500D01*
X9532365Y-12212696D01*
X9546885Y-12205075D01*
X9672240Y-12139283D01*
X9790483Y-12034530D01*
X9850061Y-11948214D01*
X9904341Y-11904227D01*
X9973789Y-11896567D01*
X10036354Y-11927669D01*
X10051877Y-11945021D01*
X10090350Y-11997150D01*
X10199618Y-12077793D01*
X10242345Y-12092744D01*
X10327799Y-12122646D01*
X10358230Y-12125500D01*
X10358234Y-12125500D01*
X11016770Y-12125500D01*
X11047199Y-12122646D01*
X11047201Y-12122646D01*
X11129542Y-12093833D01*
X11175382Y-12077793D01*
X11284650Y-11997150D01*
X11339383Y-11922989D01*
X11355710Y-11900867D01*
X11411357Y-11858616D01*
X11455480Y-11850500D01*
X11529481Y-11850500D01*
X11596520Y-11870185D01*
X11642275Y-11922989D01*
X11645663Y-11931166D01*
X11665163Y-11983449D01*
X11665164Y-11983450D01*
X11746028Y-12091472D01*
X11829563Y-12154005D01*
X11854049Y-12172335D01*
X11854052Y-12172337D01*
X11969960Y-12215568D01*
X11980478Y-12219491D01*
X12009818Y-12222645D01*
X12036355Y-12225499D01*
X12036370Y-12225500D01*
X12563630Y-12225500D01*
X12563644Y-12225499D01*
X12585523Y-12223146D01*
X12619522Y-12219491D01*
X12745950Y-12172336D01*
X12853972Y-12091472D01*
X12853974Y-12091468D01*
X12857935Y-12088504D01*
X12923399Y-12064087D01*
X12991672Y-12078938D01*
X13037784Y-12122674D01*
X13088610Y-12205075D01*
X13088613Y-12205079D01*
X13207419Y-12323885D01*
X13350422Y-12412091D01*
X13350427Y-12412093D01*
X13509916Y-12464942D01*
X13608356Y-12474999D01*
X13625000Y-12474998D01*
X13625000Y-11750000D01*
X14125000Y-11750000D01*
X14125000Y-12474999D01*
X14141636Y-12474999D01*
X14141652Y-12474998D01*
X14240083Y-12464943D01*
X14399572Y-12412093D01*
X14399577Y-12412091D01*
X14542580Y-12323885D01*
X14661385Y-12205080D01*
X14749591Y-12062077D01*
X14749593Y-12062072D01*
X14802442Y-11902583D01*
X14812499Y-11804150D01*
X14812500Y-11804137D01*
X14812500Y-11750000D01*
X14125000Y-11750000D01*
X13625000Y-11750000D01*
X13625000Y-11374000D01*
X13644685Y-11306961D01*
X13697489Y-11261206D01*
X13749000Y-11250000D01*
X14812499Y-11250000D01*
X14812499Y-11195864D01*
X14812498Y-11195847D01*
X14802443Y-11097416D01*
X14749593Y-10937927D01*
X14749591Y-10937922D01*
X14661385Y-10794919D01*
X14604647Y-10738181D01*
X14571162Y-10676858D01*
X14576146Y-10607166D01*
X14618018Y-10551233D01*
X14683482Y-10526816D01*
X14692328Y-10526500D01*
X19558020Y-10526500D01*
X19625059Y-10546185D01*
X19657790Y-10576867D01*
X19728848Y-10673148D01*
X19728849Y-10673148D01*
X19728850Y-10673150D01*
X19838118Y-10753793D01*
X19877799Y-10767678D01*
X19966299Y-10798646D01*
X19996730Y-10801500D01*
X19996734Y-10801500D01*
X20655270Y-10801500D01*
X20685699Y-10798646D01*
X20685701Y-10798646D01*
X20749790Y-10776219D01*
X20813882Y-10753793D01*
X20923150Y-10673150D01*
X20923152Y-10673146D01*
X20929721Y-10666579D01*
X20930931Y-10667789D01*
X20977873Y-10632146D01*
X21047529Y-10626684D01*
X21109080Y-10659749D01*
X21141077Y-10713433D01*
X21162216Y-10786193D01*
X21162217Y-10786196D01*
X21245814Y-10927552D01*
X21245821Y-10927561D01*
X21361938Y-11043678D01*
X21361947Y-11043685D01*
X21503303Y-11127282D01*
X21503306Y-11127283D01*
X21661004Y-11173099D01*
X21661010Y-11173100D01*
X21697850Y-11175999D01*
X21697866Y-11176000D01*
X22101000Y-11176000D01*
X22101000Y-10626000D01*
X22601000Y-10626000D01*
X22601000Y-11176000D01*
X23004134Y-11176000D01*
X23004149Y-11175999D01*
X23040989Y-11173100D01*
X23040995Y-11173099D01*
X23198693Y-11127283D01*
X23198696Y-11127282D01*
X23340052Y-11043685D01*
X23340061Y-11043678D01*
X23456178Y-10927561D01*
X23456185Y-10927552D01*
X23539781Y-10786198D01*
X23585600Y-10628486D01*
X23585795Y-10626001D01*
X23585795Y-10626000D01*
X22601000Y-10626000D01*
X22101000Y-10626000D01*
X22101000Y-9576000D01*
X21697850Y-9576000D01*
X21661010Y-9578899D01*
X21661004Y-9578900D01*
X21503306Y-9624716D01*
X21503303Y-9624717D01*
X21361947Y-9708314D01*
X21361938Y-9708321D01*
X21245821Y-9824438D01*
X21241037Y-9830607D01*
X21238876Y-9828931D01*
X21197365Y-9867676D01*
X21128621Y-9880167D01*
X21064036Y-9853509D01*
X21024683Y-9797819D01*
X21003793Y-9738118D01*
X20923150Y-9628850D01*
X20813882Y-9548207D01*
X20813880Y-9548206D01*
X20685700Y-9503353D01*
X20655270Y-9500500D01*
X20655266Y-9500500D01*
X19996734Y-9500500D01*
X19996730Y-9500500D01*
X19966300Y-9503353D01*
X19966298Y-9503353D01*
X19838119Y-9548206D01*
X19838117Y-9548207D01*
X19728848Y-9628851D01*
X19657790Y-9725133D01*
X19602143Y-9767384D01*
X19558020Y-9775500D01*
X19157899Y-9775500D01*
X19090860Y-9755815D01*
X19045105Y-9703011D01*
X19035161Y-9633853D01*
X19053333Y-9587482D01*
X19052733Y-9587167D01*
X19055592Y-9581718D01*
X19055852Y-9581056D01*
X19056220Y-9580523D01*
X19112237Y-9432818D01*
X19131278Y-9276000D01*
X19116064Y-9150696D01*
X19112237Y-9119181D01*
X19079165Y-9031979D01*
X19056220Y-8971477D01*
X18966483Y-8841470D01*
X18966479Y-8841466D01*
X18963527Y-8838134D01*
X18933806Y-8774901D01*
X18942988Y-8705637D01*
X18987449Y-8652805D01*
X19056601Y-8606601D01*
X19111966Y-8523740D01*
X19126500Y-8450674D01*
X19126500Y-7901326D01*
X19126176Y-7899697D01*
X19126254Y-7898826D01*
X19125903Y-7895261D01*
X19126578Y-7895194D01*
X19132399Y-7830107D01*
X19175259Y-7774927D01*
X19241148Y-7751678D01*
X19247792Y-7751500D01*
X19660067Y-7751500D01*
X19727106Y-7771185D01*
X19772861Y-7823989D01*
X19782805Y-7893147D01*
X19753780Y-7956703D01*
X19733702Y-7975269D01*
X19728850Y-7978849D01*
X19648207Y-8088117D01*
X19648206Y-8088119D01*
X19603353Y-8216298D01*
X19603353Y-8216300D01*
X19600500Y-8246730D01*
X19600500Y-8755269D01*
X19603353Y-8785699D01*
X19603353Y-8785701D01*
X19646977Y-8910367D01*
X19648207Y-8913882D01*
X19728850Y-9023150D01*
X19838118Y-9103793D01*
X19880845Y-9118744D01*
X19966299Y-9148646D01*
X19996730Y-9151500D01*
X19996734Y-9151500D01*
X20655270Y-9151500D01*
X20685699Y-9148646D01*
X20685701Y-9148646D01*
X20749790Y-9126219D01*
X20813882Y-9103793D01*
X20923150Y-9023150D01*
X20994210Y-8926867D01*
X21049857Y-8884616D01*
X21093980Y-8876500D01*
X21396246Y-8876500D01*
X21463285Y-8896185D01*
X21483928Y-8912820D01*
X21525153Y-8954046D01*
X21525155Y-8954047D01*
X21525158Y-8954050D01*
X21638194Y-9011645D01*
X21638198Y-9011647D01*
X21731975Y-9026499D01*
X21731981Y-9026500D01*
X22970018Y-9026499D01*
X23063804Y-9011646D01*
X23077773Y-9004528D01*
X23146438Y-8991632D01*
X23211179Y-9017907D01*
X23251437Y-9075012D01*
X23254268Y-9141039D01*
X23254380Y-9141057D01*
X23254293Y-9141605D01*
X23254431Y-9144818D01*
X23252981Y-9149888D01*
X23238000Y-9244475D01*
X23238000Y-9470984D01*
X23218315Y-9538023D01*
X23165511Y-9583778D01*
X23096353Y-9593722D01*
X23079405Y-9590060D01*
X23040995Y-9578900D01*
X23040989Y-9578899D01*
X23004149Y-9576000D01*
X22601000Y-9576000D01*
X22601000Y-10126000D01*
X23585795Y-10126000D01*
X23585795Y-10125998D01*
X23585717Y-10125000D01*
X26100001Y-10125000D01*
X26100001Y-10131582D01*
X26106408Y-10202102D01*
X26106409Y-10202107D01*
X26156981Y-10364396D01*
X26244927Y-10509877D01*
X26365122Y-10630072D01*
X26510604Y-10718019D01*
X26510603Y-10718019D01*
X26672894Y-10768590D01*
X26672892Y-10768590D01*
X26743418Y-10774999D01*
X26824999Y-10774998D01*
X26825000Y-10774998D01*
X26825000Y-10125000D01*
X27325000Y-10125000D01*
X27325000Y-10774999D01*
X27406581Y-10774999D01*
X27477102Y-10768591D01*
X27477107Y-10768590D01*
X27639396Y-10718018D01*
X27784874Y-10630074D01*
X27795774Y-10619174D01*
X27857096Y-10585688D01*
X27926788Y-10590670D01*
X27982723Y-10632540D01*
X27990191Y-10643734D01*
X27994814Y-10651552D01*
X27994821Y-10651561D01*
X28110938Y-10767678D01*
X28110947Y-10767685D01*
X28252303Y-10851282D01*
X28252306Y-10851283D01*
X28410004Y-10897099D01*
X28410010Y-10897100D01*
X28446850Y-10899999D01*
X28446866Y-10900000D01*
X28850000Y-10900000D01*
X28850000Y-10350000D01*
X27943500Y-10350000D01*
X27876461Y-10330315D01*
X27830706Y-10277511D01*
X27819500Y-10226000D01*
X27819500Y-10125000D01*
X27325000Y-10125000D01*
X26825000Y-10125000D01*
X26100001Y-10125000D01*
X23585717Y-10125000D01*
X23585600Y-10123515D01*
X23585468Y-10122790D01*
X23585511Y-10122379D01*
X23585103Y-10117191D01*
X23586065Y-10117115D01*
X23592780Y-10053304D01*
X23636499Y-9998802D01*
X23702743Y-9976588D01*
X23707399Y-9976499D01*
X24845018Y-9976499D01*
X24938804Y-9961646D01*
X25051842Y-9904050D01*
X25141550Y-9814342D01*
X25199146Y-9701304D01*
X25199146Y-9701302D01*
X25199147Y-9701301D01*
X25210621Y-9628851D01*
X25214000Y-9607519D01*
X25213999Y-9244482D01*
X25199146Y-9150696D01*
X25141550Y-9037658D01*
X25141546Y-9037654D01*
X25141545Y-9037652D01*
X25051847Y-8947954D01*
X25051844Y-8947952D01*
X25051842Y-8947950D01*
X24952776Y-8897473D01*
X24938801Y-8890352D01*
X24845024Y-8875500D01*
X24845019Y-8875500D01*
X24725500Y-8875500D01*
X24658461Y-8855815D01*
X24612706Y-8803011D01*
X24601500Y-8751500D01*
X24601500Y-6870500D01*
X24621185Y-6803461D01*
X24673989Y-6757706D01*
X24725500Y-6746500D01*
X24750676Y-6746500D01*
X24750677Y-6746499D01*
X24823740Y-6731966D01*
X24906601Y-6676601D01*
X24957998Y-6599678D01*
X30199500Y-6599678D01*
X30214032Y-6672735D01*
X30214033Y-6672739D01*
X30229031Y-6695185D01*
X30269399Y-6755601D01*
X30328642Y-6795185D01*
X30352260Y-6810966D01*
X30352264Y-6810967D01*
X30425321Y-6825499D01*
X30425324Y-6825500D01*
X30425326Y-6825500D01*
X31174676Y-6825500D01*
X31211207Y-6818233D01*
X31247740Y-6810966D01*
X31269545Y-6796396D01*
X31336222Y-6775520D01*
X31338434Y-6775500D01*
X31453217Y-6775500D01*
X31520256Y-6795185D01*
X31566011Y-6847989D01*
X31569389Y-6856142D01*
X31575953Y-6873740D01*
X31578373Y-6880228D01*
X31611074Y-6923911D01*
X31660313Y-6989687D01*
X31769774Y-7071628D01*
X31897886Y-7119412D01*
X31954515Y-7125500D01*
X32495484Y-7125499D01*
X32552114Y-7119412D01*
X32680226Y-7071628D01*
X32761804Y-7010559D01*
X32827264Y-6986143D01*
X32895538Y-7000994D01*
X32941650Y-7044730D01*
X32977424Y-7102728D01*
X32977427Y-7102732D01*
X33097267Y-7222572D01*
X33097271Y-7222575D01*
X33241507Y-7311542D01*
X33241518Y-7311547D01*
X33402393Y-7364855D01*
X33501683Y-7374999D01*
X33525000Y-7374998D01*
X33525000Y-6650000D01*
X34025000Y-6650000D01*
X34025000Y-7374999D01*
X34048308Y-7374999D01*
X34048322Y-7374998D01*
X34147607Y-7364855D01*
X34308481Y-7311547D01*
X34308492Y-7311542D01*
X34452728Y-7222575D01*
X34452732Y-7222572D01*
X34572572Y-7102732D01*
X34572575Y-7102728D01*
X34661542Y-6958492D01*
X34661547Y-6958481D01*
X34714855Y-6797606D01*
X34724999Y-6698322D01*
X34725000Y-6698309D01*
X34725000Y-6650000D01*
X34025000Y-6650000D01*
X33525000Y-6650000D01*
X33525000Y-5425000D01*
X34025000Y-5425000D01*
X34025000Y-6150000D01*
X34724999Y-6150000D01*
X34724999Y-6101692D01*
X34724998Y-6101677D01*
X34714855Y-6002392D01*
X34661547Y-5841518D01*
X34661542Y-5841507D01*
X34572575Y-5697271D01*
X34572572Y-5697267D01*
X34452732Y-5577427D01*
X34452728Y-5577424D01*
X34308492Y-5488457D01*
X34308481Y-5488452D01*
X34147606Y-5435144D01*
X34048322Y-5425000D01*
X34025000Y-5425000D01*
X33525000Y-5425000D01*
X33525000Y-5411942D01*
X33507221Y-5379385D01*
X33512204Y-5309693D01*
X33526334Y-5282590D01*
X33580220Y-5204523D01*
X33636237Y-5056818D01*
X33655278Y-4900000D01*
X33649383Y-4851445D01*
X33636237Y-4743181D01*
X33610378Y-4674998D01*
X33580220Y-4595477D01*
X33490483Y-4465470D01*
X33372240Y-4360717D01*
X33372238Y-4360716D01*
X33372237Y-4360715D01*
X33232365Y-4287303D01*
X33078986Y-4249500D01*
X33078985Y-4249500D01*
X32921015Y-4249500D01*
X32921014Y-4249500D01*
X32767633Y-4287304D01*
X32763285Y-4288953D01*
X32693622Y-4294317D01*
X32632117Y-4261167D01*
X32598298Y-4200027D01*
X32596030Y-4159751D01*
X32599999Y-4122839D01*
X32600000Y-4122827D01*
X32600000Y-3750000D01*
X32000000Y-3750000D01*
X32000000Y-4575000D01*
X32147828Y-4575000D01*
X32147844Y-4574999D01*
X32207372Y-4568598D01*
X32207375Y-4568597D01*
X32210380Y-4567477D01*
X32212875Y-4567298D01*
X32214930Y-4566813D01*
X32215008Y-4567145D01*
X32280072Y-4562490D01*
X32341396Y-4595972D01*
X32374884Y-4657294D01*
X32369903Y-4726986D01*
X32369662Y-4727626D01*
X32363762Y-4743181D01*
X32344722Y-4899999D01*
X32344722Y-4900000D01*
X32363762Y-5056818D01*
X32416885Y-5196890D01*
X32419780Y-5204523D01*
X32509517Y-5334530D01*
X32530656Y-5353257D01*
X32543434Y-5364577D01*
X32580560Y-5423766D01*
X32579793Y-5493632D01*
X32548888Y-5545074D01*
X32455781Y-5638181D01*
X32394458Y-5671666D01*
X32368100Y-5674500D01*
X31954518Y-5674500D01*
X31954509Y-5674501D01*
X31897885Y-5680587D01*
X31769773Y-5728372D01*
X31660313Y-5810313D01*
X31623767Y-5859133D01*
X31567833Y-5901004D01*
X31498141Y-5905988D01*
X31436818Y-5872503D01*
X31403334Y-5811179D01*
X31400500Y-5784822D01*
X31400500Y-5400323D01*
X31400499Y-5400321D01*
X31385967Y-5327264D01*
X31385966Y-5327260D01*
X31371045Y-5304929D01*
X31330601Y-5244399D01*
X31247740Y-5189034D01*
X31247739Y-5189033D01*
X31247735Y-5189032D01*
X31174677Y-5174500D01*
X31174674Y-5174500D01*
X30425326Y-5174500D01*
X30425323Y-5174500D01*
X30352264Y-5189032D01*
X30352260Y-5189033D01*
X30269399Y-5244399D01*
X30214033Y-5327260D01*
X30214032Y-5327264D01*
X30199500Y-5400321D01*
X30199500Y-6599678D01*
X24957998Y-6599678D01*
X24961966Y-6593740D01*
X24976500Y-6520674D01*
X24976500Y-5471326D01*
X24976500Y-5471323D01*
X24976499Y-5471321D01*
X24961967Y-5398264D01*
X24961966Y-5398260D01*
X24926646Y-5345399D01*
X24906601Y-5315399D01*
X24890930Y-5304928D01*
X24846126Y-5251317D01*
X24837419Y-5181992D01*
X24854829Y-5135855D01*
X24906452Y-5053697D01*
X24906454Y-5053694D01*
X24906454Y-5053692D01*
X24906456Y-5053690D01*
X24962313Y-4894059D01*
X24962313Y-4894058D01*
X24962314Y-4894056D01*
X24978996Y-4746002D01*
X26820751Y-4746002D01*
X26839685Y-4914056D01*
X26895545Y-5073694D01*
X26895547Y-5073697D01*
X26985518Y-5216884D01*
X26985523Y-5216890D01*
X27105109Y-5336476D01*
X27105115Y-5336481D01*
X27248302Y-5426452D01*
X27248305Y-5426454D01*
X27248309Y-5426455D01*
X27248310Y-5426456D01*
X27320913Y-5451860D01*
X27407943Y-5482314D01*
X27575997Y-5501249D01*
X27576000Y-5501249D01*
X27576003Y-5501249D01*
X27744056Y-5482314D01*
X27775458Y-5471326D01*
X27903690Y-5426456D01*
X27903692Y-5426454D01*
X27903694Y-5426454D01*
X27903697Y-5426452D01*
X28046884Y-5336481D01*
X28046885Y-5336480D01*
X28046890Y-5336477D01*
X28166477Y-5216890D01*
X28166481Y-5216884D01*
X28256452Y-5073697D01*
X28256454Y-5073694D01*
X28256454Y-5073692D01*
X28256456Y-5073690D01*
X28312313Y-4914059D01*
X28312313Y-4914058D01*
X28312314Y-4914056D01*
X28331249Y-4746002D01*
X28331249Y-4745997D01*
X28312314Y-4577943D01*
X28282657Y-4493188D01*
X28256456Y-4418310D01*
X28256454Y-4418307D01*
X28256454Y-4418306D01*
X28204828Y-4336145D01*
X28185827Y-4268908D01*
X28206194Y-4202073D01*
X28240930Y-4167071D01*
X28256601Y-4156601D01*
X28311966Y-4073740D01*
X28326500Y-4000674D01*
X28326500Y-3999500D01*
X28326674Y-3998906D01*
X28327097Y-3994614D01*
X28327911Y-3994694D01*
X28346185Y-3932461D01*
X28398989Y-3886706D01*
X28450500Y-3875500D01*
X29125500Y-3875500D01*
X29192539Y-3895185D01*
X29238294Y-3947989D01*
X29249500Y-3999500D01*
X29249500Y-4099678D01*
X29264032Y-4172735D01*
X29264033Y-4172739D01*
X29269036Y-4180226D01*
X29319399Y-4255601D01*
X29402260Y-4310966D01*
X29402264Y-4310967D01*
X29475321Y-4325499D01*
X29475324Y-4325500D01*
X29475326Y-4325500D01*
X30224676Y-4325500D01*
X30224677Y-4325499D01*
X30297740Y-4310966D01*
X30380601Y-4255601D01*
X30435966Y-4172740D01*
X30450500Y-4099674D01*
X30450500Y-3750000D01*
X30900000Y-3750000D01*
X30900000Y-4122844D01*
X30906401Y-4182372D01*
X30906403Y-4182379D01*
X30956645Y-4317086D01*
X30956649Y-4317093D01*
X31042809Y-4432187D01*
X31042812Y-4432190D01*
X31157906Y-4518350D01*
X31157913Y-4518354D01*
X31292620Y-4568596D01*
X31292627Y-4568598D01*
X31352155Y-4574999D01*
X31352172Y-4575000D01*
X31500000Y-4575000D01*
X31500000Y-3750000D01*
X30900000Y-3750000D01*
X30450500Y-3750000D01*
X30450500Y-3618097D01*
X34999500Y-3618097D01*
X35036446Y-3851368D01*
X35109433Y-4075996D01*
X35210888Y-4275110D01*
X35216657Y-4286433D01*
X35355483Y-4477510D01*
X35522490Y-4644517D01*
X35713567Y-4783343D01*
X35794933Y-4824801D01*
X35924003Y-4890566D01*
X35924005Y-4890566D01*
X35924008Y-4890568D01*
X36044412Y-4929689D01*
X36148631Y-4963553D01*
X36381903Y-5000500D01*
X36381908Y-5000500D01*
X36618097Y-5000500D01*
X36851368Y-4963553D01*
X37075992Y-4890568D01*
X37286433Y-4783343D01*
X37477510Y-4644517D01*
X37644517Y-4477510D01*
X37783343Y-4286433D01*
X37890568Y-4075992D01*
X37963553Y-3851368D01*
X37973322Y-3789687D01*
X38000500Y-3618097D01*
X38000500Y-3381902D01*
X37963553Y-3148631D01*
X37908952Y-2980588D01*
X37890568Y-2924008D01*
X37890566Y-2924005D01*
X37890566Y-2924003D01*
X37819247Y-2784033D01*
X37783343Y-2713567D01*
X37644517Y-2522490D01*
X37477510Y-2355483D01*
X37286433Y-2216657D01*
X37075996Y-2109433D01*
X36851368Y-2036446D01*
X36618097Y-1999500D01*
X36618092Y-1999500D01*
X36381908Y-1999500D01*
X36381903Y-1999500D01*
X36148631Y-2036446D01*
X35924003Y-2109433D01*
X35713566Y-2216657D01*
X35614750Y-2288452D01*
X35522490Y-2355483D01*
X35522488Y-2355485D01*
X35522487Y-2355485D01*
X35355485Y-2522487D01*
X35355485Y-2522488D01*
X35355483Y-2522490D01*
X35319096Y-2572572D01*
X35216657Y-2713566D01*
X35109433Y-2924003D01*
X35036446Y-3148631D01*
X34999500Y-3381902D01*
X34999500Y-3618097D01*
X30450500Y-3618097D01*
X30450500Y-2900326D01*
X30450500Y-2900323D01*
X30450499Y-2900321D01*
X30435967Y-2827264D01*
X30435966Y-2827260D01*
X30419351Y-2802393D01*
X30380601Y-2744399D01*
X30380600Y-2744398D01*
X30305993Y-2694548D01*
X30261188Y-2640936D01*
X30252481Y-2571611D01*
X30282635Y-2508584D01*
X30342078Y-2471864D01*
X30346373Y-2470768D01*
X30352107Y-2469412D01*
X30352114Y-2469412D01*
X30480226Y-2421628D01*
X30561804Y-2360559D01*
X30627264Y-2336143D01*
X30695538Y-2350994D01*
X30741650Y-2394730D01*
X30777424Y-2452728D01*
X30777427Y-2452732D01*
X30897267Y-2572572D01*
X30902935Y-2577054D01*
X30901137Y-2579326D01*
X30939042Y-2621455D01*
X30950275Y-2690416D01*
X30943411Y-2718396D01*
X30906403Y-2817619D01*
X30906401Y-2817627D01*
X30900000Y-2877155D01*
X30900000Y-3250000D01*
X31500000Y-3250000D01*
X31500000Y-2768000D01*
X31449000Y-2768000D01*
X31381961Y-2748315D01*
X31336206Y-2695511D01*
X31325000Y-2644000D01*
X31325000Y-2000000D01*
X31825000Y-2000000D01*
X31825000Y-2382000D01*
X31876000Y-2382000D01*
X31943039Y-2401685D01*
X31988794Y-2454489D01*
X32000000Y-2506000D01*
X32000000Y-3250000D01*
X32600000Y-3250000D01*
X32600000Y-2877172D01*
X32599999Y-2877155D01*
X32593598Y-2817627D01*
X32593596Y-2817620D01*
X32543354Y-2682913D01*
X32543350Y-2682906D01*
X32457191Y-2567814D01*
X32457183Y-2567806D01*
X32441460Y-2556035D01*
X32399590Y-2500101D01*
X32394607Y-2430409D01*
X32410235Y-2391672D01*
X32461544Y-2308488D01*
X32461547Y-2308481D01*
X32514855Y-2147606D01*
X32524999Y-2048322D01*
X32525000Y-2048309D01*
X32525000Y-2000000D01*
X31825000Y-2000000D01*
X31325000Y-2000000D01*
X31325000Y-775000D01*
X31825000Y-775000D01*
X31825000Y-1500000D01*
X32524999Y-1500000D01*
X32524999Y-1451692D01*
X32524998Y-1451677D01*
X32514855Y-1352392D01*
X32461547Y-1191518D01*
X32461542Y-1191507D01*
X32372575Y-1047271D01*
X32372572Y-1047267D01*
X32252732Y-927427D01*
X32252728Y-927424D01*
X32108492Y-838457D01*
X32108481Y-838452D01*
X31947606Y-785144D01*
X31848322Y-775000D01*
X31825000Y-775000D01*
X31325000Y-775000D01*
X31325000Y-774999D01*
X31301693Y-775000D01*
X31301674Y-775001D01*
X31202392Y-785144D01*
X31041518Y-838452D01*
X31041507Y-838457D01*
X30897271Y-927424D01*
X30897267Y-927427D01*
X30777424Y-1047270D01*
X30741649Y-1105270D01*
X30689701Y-1151993D01*
X30620738Y-1163214D01*
X30561802Y-1139438D01*
X30480230Y-1078374D01*
X30480227Y-1078373D01*
X30480226Y-1078372D01*
X30352114Y-1030588D01*
X30352112Y-1030587D01*
X30352110Y-1030587D01*
X30295493Y-1024500D01*
X29754518Y-1024500D01*
X29754509Y-1024501D01*
X29697885Y-1030587D01*
X29569773Y-1078372D01*
X29460313Y-1160313D01*
X29378373Y-1269771D01*
X29330587Y-1397889D01*
X29324500Y-1454498D01*
X29324500Y-2045481D01*
X29324501Y-2045490D01*
X29330587Y-2102114D01*
X29373311Y-2216657D01*
X29378372Y-2230226D01*
X29449767Y-2325600D01*
X29474184Y-2391063D01*
X29474500Y-2399909D01*
X29474500Y-2576256D01*
X29454815Y-2643295D01*
X29411478Y-2680846D01*
X29412415Y-2682248D01*
X29319399Y-2744398D01*
X29264033Y-2827260D01*
X29264032Y-2827264D01*
X29249500Y-2900321D01*
X29249500Y-3000500D01*
X29229815Y-3067539D01*
X29177011Y-3113294D01*
X29125500Y-3124500D01*
X28450500Y-3124500D01*
X28383461Y-3104815D01*
X28337706Y-3052011D01*
X28326500Y-3000500D01*
X28326500Y-2951323D01*
X28326499Y-2951321D01*
X28311967Y-2878264D01*
X28311966Y-2878260D01*
X28311228Y-2877155D01*
X28256601Y-2795399D01*
X28180273Y-2744399D01*
X28173739Y-2740033D01*
X28173735Y-2740032D01*
X28100677Y-2725500D01*
X28100674Y-2725500D01*
X27051326Y-2725500D01*
X27051323Y-2725500D01*
X26978264Y-2740032D01*
X26978260Y-2740033D01*
X26895399Y-2795399D01*
X26840033Y-2878260D01*
X26840032Y-2878264D01*
X26825500Y-2951321D01*
X26825500Y-4000678D01*
X26840032Y-4073735D01*
X26840033Y-4073739D01*
X26855981Y-4097607D01*
X26895399Y-4156601D01*
X26911068Y-4167070D01*
X26955872Y-4220679D01*
X26964582Y-4290004D01*
X26947172Y-4336144D01*
X26895545Y-4418307D01*
X26839685Y-4577943D01*
X26820751Y-4745997D01*
X26820751Y-4746002D01*
X24978996Y-4746002D01*
X24981249Y-4726002D01*
X24981249Y-4725997D01*
X24962314Y-4557943D01*
X24906454Y-4398305D01*
X24906452Y-4398302D01*
X24816481Y-4255115D01*
X24816476Y-4255109D01*
X24740048Y-4178681D01*
X24706563Y-4117358D01*
X24711547Y-4047666D01*
X24740048Y-4003319D01*
X24762695Y-3980672D01*
X24816477Y-3926890D01*
X24817351Y-3925499D01*
X24906452Y-3783697D01*
X24906454Y-3783694D01*
X24906454Y-3783692D01*
X24906456Y-3783690D01*
X24962313Y-3624059D01*
X24962313Y-3624058D01*
X24962314Y-3624056D01*
X24981249Y-3456002D01*
X24981249Y-3455997D01*
X24962314Y-3287943D01*
X24931860Y-3200913D01*
X24906456Y-3128310D01*
X24906455Y-3128309D01*
X24906454Y-3128305D01*
X24906452Y-3128302D01*
X24816481Y-2985115D01*
X24816476Y-2985109D01*
X24696890Y-2865523D01*
X24696884Y-2865518D01*
X24553697Y-2775547D01*
X24553694Y-2775545D01*
X24394056Y-2719685D01*
X24226003Y-2700751D01*
X24225997Y-2700751D01*
X24057943Y-2719685D01*
X23898305Y-2775545D01*
X23898302Y-2775547D01*
X23755115Y-2865518D01*
X23755109Y-2865523D01*
X23635523Y-2985109D01*
X23635518Y-2985115D01*
X23545547Y-3128302D01*
X23545545Y-3128305D01*
X23489685Y-3287943D01*
X23470751Y-3455997D01*
X23470751Y-3456002D01*
X23489685Y-3624056D01*
X23545545Y-3783694D01*
X23545547Y-3783697D01*
X23635518Y-3926884D01*
X23635523Y-3926890D01*
X23711952Y-4003319D01*
X23745437Y-4064642D01*
X23740453Y-4134334D01*
X23711952Y-4178681D01*
X23635523Y-4255109D01*
X23635518Y-4255115D01*
X23545548Y-4398300D01*
X23545543Y-4398311D01*
X23502621Y-4520974D01*
X23473261Y-4567700D01*
X21885642Y-6155319D01*
X21824319Y-6188804D01*
X21754627Y-6183820D01*
X21698694Y-6141948D01*
X21674277Y-6076484D01*
X21674740Y-6053760D01*
X21681249Y-5996000D01*
X21681249Y-5995997D01*
X21662314Y-5827943D01*
X21643501Y-5774178D01*
X21606456Y-5668310D01*
X21578727Y-5624180D01*
X21559727Y-5556946D01*
X21580094Y-5490111D01*
X21605058Y-5462354D01*
X21636526Y-5436529D01*
X21761492Y-5284260D01*
X21761496Y-5284253D01*
X21854347Y-5110541D01*
X21895160Y-4976000D01*
X21135618Y-4976000D01*
X21186064Y-4925554D01*
X21228851Y-4851445D01*
X21251000Y-4768787D01*
X21251000Y-4683213D01*
X21228851Y-4600555D01*
X21186064Y-4526446D01*
X21135618Y-4476000D01*
X21895160Y-4476000D01*
X21895160Y-4475999D01*
X21854347Y-4341458D01*
X21761496Y-4167746D01*
X21761492Y-4167739D01*
X21700336Y-4093221D01*
X21673023Y-4028911D01*
X21674572Y-3990362D01*
X21676500Y-3980674D01*
X21676500Y-2931326D01*
X21676500Y-2931323D01*
X21676499Y-2931321D01*
X21661967Y-2858264D01*
X21661966Y-2858260D01*
X21641255Y-2827264D01*
X21606601Y-2775399D01*
X21531174Y-2725001D01*
X21523739Y-2720033D01*
X21523735Y-2720032D01*
X21450677Y-2705500D01*
X21450674Y-2705500D01*
X20401326Y-2705500D01*
X20401323Y-2705500D01*
X20328264Y-2720032D01*
X20328260Y-2720034D01*
X20245401Y-2775397D01*
X20236766Y-2784033D01*
X20234547Y-2781814D01*
X20195807Y-2814194D01*
X20146312Y-2824500D01*
X19246783Y-2824500D01*
X19179744Y-2804815D01*
X19133989Y-2752011D01*
X19130610Y-2743857D01*
X19121628Y-2719774D01*
X19121561Y-2719685D01*
X19094029Y-2682906D01*
X19039687Y-2610313D01*
X18966155Y-2555268D01*
X18930228Y-2528373D01*
X18930226Y-2528372D01*
X18802114Y-2480588D01*
X18802112Y-2480587D01*
X18802110Y-2480587D01*
X18745493Y-2474500D01*
X18204518Y-2474500D01*
X18204509Y-2474501D01*
X18147885Y-2480587D01*
X18019771Y-2528373D01*
X17938195Y-2589439D01*
X17872730Y-2613855D01*
X17804458Y-2599002D01*
X17758347Y-2555268D01*
X17722571Y-2497266D01*
X17602732Y-2377427D01*
X17602728Y-2377424D01*
X17458492Y-2288457D01*
X17458481Y-2288452D01*
X17297606Y-2235144D01*
X17198322Y-2225000D01*
X17175000Y-2225000D01*
X17175000Y-4174999D01*
X17198308Y-4174999D01*
X17198322Y-4174998D01*
X17297607Y-4164855D01*
X17458481Y-4111547D01*
X17458492Y-4111542D01*
X17602725Y-4022577D01*
X17608194Y-4018253D01*
X17672988Y-3992110D01*
X17741630Y-4005147D01*
X17792328Y-4053225D01*
X17808984Y-4121081D01*
X17797366Y-4164056D01*
X17798440Y-4164464D01*
X17795781Y-4171475D01*
X17795780Y-4171477D01*
X17788010Y-4191966D01*
X17739762Y-4319181D01*
X17720722Y-4475999D01*
X17720722Y-4476000D01*
X17739762Y-4632818D01*
X17786992Y-4757351D01*
X17795780Y-4780523D01*
X17823028Y-4819999D01*
X17885517Y-4910531D01*
X17945368Y-4963553D01*
X18003760Y-5015283D01*
X18003764Y-5015285D01*
X18003767Y-5015287D01*
X18034124Y-5031219D01*
X18084337Y-5079802D01*
X18100500Y-5141016D01*
X18100500Y-5163954D01*
X18080815Y-5230993D01*
X18028011Y-5276748D01*
X18000693Y-5285571D01*
X17978262Y-5290032D01*
X17978260Y-5290033D01*
X17895399Y-5345399D01*
X17840033Y-5428260D01*
X17840032Y-5428264D01*
X17825500Y-5501321D01*
X17825500Y-5501326D01*
X17825500Y-6050674D01*
X17825500Y-6050676D01*
X17825499Y-6050676D01*
X17840033Y-6123739D01*
X17845628Y-6132113D01*
X17866503Y-6198791D01*
X17848016Y-6266171D01*
X17845628Y-6269887D01*
X17840033Y-6278260D01*
X17825500Y-6351323D01*
X17825500Y-6800678D01*
X17840032Y-6873735D01*
X17840033Y-6873739D01*
X17862331Y-6907110D01*
X17883208Y-6973788D01*
X17864723Y-7041168D01*
X17862331Y-7044890D01*
X17840033Y-7078260D01*
X17840033Y-7078262D01*
X17838714Y-7084893D01*
X17806326Y-7146803D01*
X17745610Y-7181375D01*
X17675840Y-7177633D01*
X17629416Y-7148379D01*
X17556564Y-7075527D01*
X17556563Y-7075526D01*
X17556562Y-7075525D01*
X17497054Y-7041168D01*
X17470937Y-7026089D01*
X17418226Y-7011965D01*
X17418224Y-7011965D01*
X17403417Y-7007997D01*
X17343758Y-6971630D01*
X17313230Y-6908782D01*
X17313897Y-6864030D01*
X17315462Y-6856166D01*
X17326500Y-6800674D01*
X17326500Y-6351326D01*
X17326500Y-6351323D01*
X17326499Y-6351321D01*
X17311967Y-6278264D01*
X17311967Y-6278263D01*
X17311966Y-6278262D01*
X17311966Y-6278260D01*
X17306372Y-6269889D01*
X17285495Y-6203216D01*
X17303978Y-6135836D01*
X17306338Y-6132161D01*
X17311966Y-6123740D01*
X17326500Y-6050674D01*
X17326500Y-5501326D01*
X17326500Y-5501323D01*
X17326499Y-5501321D01*
X17311967Y-5428264D01*
X17311966Y-5428260D01*
X17298708Y-5408418D01*
X17256601Y-5345399D01*
X17201235Y-5308405D01*
X17173739Y-5290033D01*
X17173735Y-5290032D01*
X17100677Y-5275500D01*
X17100674Y-5275500D01*
X16251326Y-5275500D01*
X16251323Y-5275500D01*
X16178264Y-5290032D01*
X16178260Y-5290034D01*
X16095401Y-5345397D01*
X16086766Y-5354033D01*
X16085990Y-5353257D01*
X16041796Y-5390195D01*
X15992303Y-5400500D01*
X11699564Y-5400500D01*
X11651812Y-5413295D01*
X11651811Y-5413294D01*
X11604063Y-5426089D01*
X11604062Y-5426089D01*
X11543875Y-5460838D01*
X11518438Y-5475525D01*
X11518437Y-5475526D01*
X11437318Y-5556645D01*
X11227038Y-5766924D01*
X11165715Y-5800408D01*
X11096023Y-5795424D01*
X11040090Y-5753553D01*
X10957186Y-5642809D01*
X10842093Y-5556649D01*
X10842086Y-5556645D01*
X10756166Y-5524599D01*
X10700232Y-5482728D01*
X10675815Y-5417263D01*
X10675499Y-5408432D01*
X10675499Y-4975822D01*
X10669499Y-4930240D01*
X10622850Y-4830201D01*
X10544799Y-4752150D01*
X10444760Y-4705501D01*
X10444758Y-4705500D01*
X10399188Y-4699501D01*
X10399185Y-4699500D01*
X10399179Y-4699500D01*
X10399172Y-4699500D01*
X10200819Y-4699500D01*
X10155243Y-4705500D01*
X10155238Y-4705501D01*
X10102403Y-4730139D01*
X10033325Y-4740630D01*
X9997595Y-4730138D01*
X9944759Y-4705500D01*
X9899188Y-4699501D01*
X9899185Y-4699500D01*
X9899179Y-4699500D01*
X9899172Y-4699500D01*
X9892493Y-4699500D01*
X9825454Y-4679815D01*
X9794117Y-4650986D01*
X9763683Y-4611323D01*
X9646175Y-4521156D01*
X9578655Y-4493188D01*
X9524251Y-4449346D01*
X9502187Y-4383052D01*
X9519467Y-4315353D01*
X9538433Y-4290940D01*
X9539679Y-4289692D01*
X9539687Y-4289687D01*
X9621628Y-4180226D01*
X9621630Y-4180218D01*
X9625117Y-4173833D01*
X9674518Y-4124423D01*
X9742790Y-4109565D01*
X9808256Y-4133976D01*
X9816173Y-4140427D01*
X9863520Y-4182372D01*
X9927762Y-4239285D01*
X10067634Y-4312696D01*
X10221014Y-4350500D01*
X10221015Y-4350500D01*
X10378985Y-4350500D01*
X10532365Y-4312696D01*
X10577603Y-4288953D01*
X10672240Y-4239283D01*
X10790483Y-4134530D01*
X10880220Y-4004523D01*
X10936237Y-3856818D01*
X10955278Y-3700000D01*
X10940200Y-3575816D01*
X10936237Y-3543181D01*
X10900898Y-3450000D01*
X15975001Y-3450000D01*
X15975001Y-3498322D01*
X15985144Y-3597607D01*
X16038452Y-3758481D01*
X16038457Y-3758492D01*
X16127424Y-3902728D01*
X16127427Y-3902732D01*
X16247267Y-4022572D01*
X16247271Y-4022575D01*
X16391507Y-4111542D01*
X16391518Y-4111547D01*
X16552393Y-4164855D01*
X16651683Y-4174999D01*
X16675000Y-4174998D01*
X16675000Y-3450000D01*
X15975001Y-3450000D01*
X10900898Y-3450000D01*
X10880220Y-3395477D01*
X10790483Y-3265470D01*
X10672240Y-3160717D01*
X10672238Y-3160716D01*
X10672237Y-3160715D01*
X10532365Y-3087303D01*
X10378986Y-3049500D01*
X10378985Y-3049500D01*
X10221015Y-3049500D01*
X10221014Y-3049500D01*
X10067634Y-3087303D01*
X9927761Y-3160715D01*
X9927759Y-3160717D01*
X9816181Y-3259565D01*
X9752948Y-3289286D01*
X9683685Y-3280102D01*
X9630382Y-3234929D01*
X9625119Y-3226169D01*
X9621626Y-3219771D01*
X9605461Y-3198177D01*
X9539687Y-3110313D01*
X9458450Y-3049500D01*
X9430228Y-3028373D01*
X9430226Y-3028372D01*
X9302114Y-2980588D01*
X9302112Y-2980587D01*
X9302110Y-2980587D01*
X9245493Y-2974500D01*
X8704518Y-2974500D01*
X8704509Y-2974501D01*
X8647885Y-2980587D01*
X8519771Y-3028373D01*
X8438195Y-3089439D01*
X8372730Y-3113855D01*
X8304458Y-3099002D01*
X8258347Y-3055268D01*
X8222571Y-2997266D01*
X8175305Y-2950000D01*
X15975000Y-2950000D01*
X16675000Y-2950000D01*
X16675000Y-2224999D01*
X16651693Y-2225000D01*
X16651674Y-2225001D01*
X16552392Y-2235144D01*
X16391518Y-2288452D01*
X16391507Y-2288457D01*
X16247271Y-2377424D01*
X16247267Y-2377427D01*
X16127427Y-2497267D01*
X16127424Y-2497271D01*
X16038457Y-2641507D01*
X16038452Y-2641518D01*
X15985144Y-2802393D01*
X15975000Y-2901677D01*
X15975000Y-2950000D01*
X8175305Y-2950000D01*
X8102732Y-2877427D01*
X8102728Y-2877424D01*
X7958492Y-2788457D01*
X7958481Y-2788452D01*
X7797606Y-2735144D01*
X7698322Y-2725000D01*
X7675000Y-2725000D01*
X7675000Y-4674999D01*
X7698308Y-4674999D01*
X7698322Y-4674998D01*
X7797608Y-4664855D01*
X7828279Y-4654692D01*
X7898108Y-4652289D01*
X7958150Y-4688020D01*
X7989343Y-4750540D01*
X7981784Y-4819999D01*
X7979667Y-4824801D01*
X7930501Y-4930239D01*
X7930500Y-4930241D01*
X7924501Y-4975811D01*
X7924500Y-4975827D01*
X7924500Y-5408418D01*
X7904815Y-5475457D01*
X7852011Y-5521212D01*
X7843833Y-5524600D01*
X7757913Y-5556645D01*
X7757906Y-5556649D01*
X7642812Y-5642809D01*
X7642809Y-5642812D01*
X7556649Y-5757906D01*
X7556645Y-5757913D01*
X7524600Y-5843833D01*
X7482729Y-5899767D01*
X7417265Y-5924184D01*
X7408418Y-5924500D01*
X2250564Y-5924500D01*
X2202812Y-5937295D01*
X2202811Y-5937294D01*
X2155063Y-5950089D01*
X2155062Y-5950089D01*
X2087530Y-5989079D01*
X2072340Y-5997850D01*
X2069435Y-5999527D01*
X874527Y-7194435D01*
X825091Y-7280060D01*
X825090Y-7280063D01*
X806503Y-7349432D01*
X806502Y-7349435D01*
X799652Y-7374999D01*
X799500Y-7375565D01*
X799500Y-20924435D01*
X0Y-20924435D01*
X0Y-3618097D01*
X1999500Y-3618097D01*
X2036446Y-3851368D01*
X2109433Y-4075996D01*
X2210888Y-4275110D01*
X2216657Y-4286433D01*
X2355483Y-4477510D01*
X2522490Y-4644517D01*
X2713567Y-4783343D01*
X2794933Y-4824801D01*
X2924003Y-4890566D01*
X2924005Y-4890566D01*
X2924008Y-4890568D01*
X3044412Y-4929689D01*
X3148631Y-4963553D01*
X3381903Y-5000500D01*
X3381908Y-5000500D01*
X3618097Y-5000500D01*
X3851368Y-4963553D01*
X4075992Y-4890568D01*
X4286433Y-4783343D01*
X4477510Y-4644517D01*
X4644517Y-4477510D01*
X4783343Y-4286433D01*
X4890568Y-4075992D01*
X4931505Y-3950000D01*
X6475001Y-3950000D01*
X6475001Y-3998322D01*
X6485144Y-4097607D01*
X6538452Y-4258481D01*
X6538457Y-4258492D01*
X6627424Y-4402728D01*
X6627427Y-4402732D01*
X6747267Y-4522572D01*
X6747271Y-4522575D01*
X6891507Y-4611542D01*
X6891518Y-4611547D01*
X7052393Y-4664855D01*
X7151683Y-4674999D01*
X7175000Y-4674998D01*
X7175000Y-3950000D01*
X6475001Y-3950000D01*
X4931505Y-3950000D01*
X4963553Y-3851368D01*
X4973322Y-3789687D01*
X5000500Y-3618097D01*
X5000500Y-3450000D01*
X6475000Y-3450000D01*
X7175000Y-3450000D01*
X7175000Y-2724999D01*
X7151693Y-2725000D01*
X7151674Y-2725001D01*
X7052392Y-2735144D01*
X6891518Y-2788452D01*
X6891507Y-2788457D01*
X6747271Y-2877424D01*
X6747267Y-2877427D01*
X6627427Y-2997267D01*
X6627424Y-2997271D01*
X6538457Y-3141507D01*
X6538452Y-3141518D01*
X6485144Y-3302393D01*
X6475000Y-3401677D01*
X6475000Y-3450000D01*
X5000500Y-3450000D01*
X5000500Y-3381902D01*
X4963553Y-3148631D01*
X4908952Y-2980588D01*
X4890568Y-2924008D01*
X4890566Y-2924005D01*
X4890566Y-2924003D01*
X4819247Y-2784033D01*
X4783343Y-2713567D01*
X4644517Y-2522490D01*
X4477510Y-2355483D01*
X4286433Y-2216657D01*
X4075996Y-2109433D01*
X3851368Y-2036446D01*
X3618097Y-1999500D01*
X3618092Y-1999500D01*
X3381908Y-1999500D01*
X3381903Y-1999500D01*
X3148631Y-2036446D01*
X2924003Y-2109433D01*
X2713566Y-2216657D01*
X2614750Y-2288452D01*
X2522490Y-2355483D01*
X2522488Y-2355485D01*
X2522487Y-2355485D01*
X2355485Y-2522487D01*
X2355485Y-2522488D01*
X2355483Y-2522490D01*
X2319096Y-2572572D01*
X2216657Y-2713566D01*
X2109433Y-2924003D01*
X2036446Y-3148631D01*
X1999500Y-3381902D01*
X1999500Y-3618097D01*
X0Y-3618097D01*
X0Y-124000D01*
X19685Y-56961D01*
X72489Y-11206D01*
X124000Y0D01*
X39876000Y0D01*
X39943039Y-19685D01*
G37*
G04 #@! TD.AperFunction*
M02*
